<svg xmlns="http://www.w3.org/2000/svg" viewBox="0 0 323.44 323.7"><defs><style>.cls-1{fill:#fff;}</style></defs><title>bot</title><g id="Layer_2" data-name="Layer 2"><g id="Layer_1-2" data-name="Layer 1"><g id="New_Symbol_7" data-name="New Symbol 7"><path class="cls-1" d="M38.35,196a10.65,10.65,0,1,0,4.79-2.73A10.56,10.56,0,0,0,38.35,196m284.77,58.66q.26-2.15.32-4.38L250,323.7q2.26-.09,4.44-.32,26.74-2.59,46.4-22.25t22.28-46.49M200.54,56.36a10.57,10.57,0,0,0,13-7.55,11,11,0,0,0,0-5.41A10.8,10.8,0,0,0,206,35.84a11,11,0,0,0-5.41,0,10.55,10.55,0,0,0-7.55,13,10.53,10.53,0,0,0,7.55,7.55M115.82,17.12a43.93,43.93,0,0,0-14.46,9.58L26.45,101.61a43.63,43.63,0,0,0,0,61.89l59.36,59.36a43.51,43.51,0,0,0,14.46,9.64,44.72,44.72,0,0,0,16.49,3.2,44.09,44.09,0,0,0,16.49-3.2,43.26,43.26,0,0,0,13.81-9l.65-.65,5.2-5.2a10.34,10.34,0,0,1,4.67-2.67,10,10,0,0,1,5.2,0,10.12,10.12,0,0,1,4.64,2.64l.12.12a11.58,11.58,0,0,1,2.88,4.82.48.48,0,0,0,0,.15q.12.41.21.79a2.71,2.71,0,0,1,0,.38,5.28,5.28,0,0,1,.12.71,1.11,1.11,0,0,0,.06.35q0,.53,0,1.09t-.06,1.18q-.06.59-.12,1.12a6.6,6.6,0,0,0-.24.94,82.33,82.33,0,0,0-1.73,17.07q0,1.59.06,3.12,1,30.06,22.6,51.63,20.63,20.63,49,22.48a.27.27,0,0,0,.21,0,7.82,7.82,0,0,0,3.29-.47,9,9,0,0,0,2.85-1.85l74.26-74.38a7.4,7.4,0,0,0,1.76-2.76,7.54,7.54,0,0,0,.5-3.26v-.18q-1.88-28.39-22.48-49Q278.16,169,246.12,169a81.2,81.2,0,0,0-17,1.73q-.71.12-1.32.26a9.45,9.45,0,0,1-2.12.18,11.23,11.23,0,0,1-6.7-2.06l0,0-.44-.44q-.35-.35-1-.91a10,10,0,0,1-2.79-4.67,10.4,10.4,0,0,1,2.64-10l5.17-5.17a43.4,43.4,0,0,0,9.61-14.43,44.09,44.09,0,0,0,3.2-16.49,44.72,44.72,0,0,0-3.2-16.49,44,44,0,0,0-9.61-14.49L163.25,26.7a43.9,43.9,0,0,0-47.43-9.58m63.45,52.93Q202,92.74,201.9,124.77t-22.66,54.75a75.63,75.63,0,0,1-31.71,19.43,79.68,79.68,0,0,1-23.07,3.26q-31.94,0-54.63-22.72T47,124.8q.09-32,22.78-54.69t54.66-22.75q32.09,0,54.78,22.69m66.95,129.66a46.57,46.57,0,0,1,32.89,79.55,46.61,46.61,0,0,1-79.52-32.91,46.46,46.46,0,0,1,2.09-14.25,47,47,0,0,1,44.55-32.39m30,16.52a42.5,42.5,0,0,0-60.19,0,41.89,41.89,0,0,0-9,13,41.4,41.4,0,0,0-3.41,17,42.56,42.56,0,0,0,72.62,30.12,42.43,42.43,0,0,0,0-60.22M250,233.48a.65.65,0,0,0,.53-.35l2.85-4.38,2.64,4.53q.26.5.47.82a1.16,1.16,0,0,0,.44.44,1.3,1.3,0,0,0,.68-.09l1.91-.68-1,11.52a1,1,0,0,0,.18.65.7.7,0,0,0,.47.47l2.41,1.35q-1.23.94-2.35,1.82t-2.32,1.79l-2.26,1.79,7.05,6.05-2.53,2.53-6.11-7-.06.06-1.85,2.32q-.85,1.15-1.76,2.29t-1.82,2.35l-1.29-2.47a1.3,1.3,0,0,0-.53-.41,1.46,1.46,0,0,0-.65-.18l-11.52,1,.68-1.91a1.31,1.31,0,0,0,.06-.65,1.16,1.16,0,0,0-.44-.44l-.79-.5-4.56-2.62,4.41-2.88a.62.62,0,0,0,.32-.5.8.8,0,0,0-.06-.53L232,247.52l6.2.5a1.82,1.82,0,0,0,.65-.06.62.62,0,0,0,.38-.38.53.53,0,0,0-.06-.53,1.78,1.78,0,0,0-.73-.68l-7.93-5.58,2.5-.73a1.89,1.89,0,0,0,.91-.44,1,1,0,0,0,.09-.85L231.81,232l6.73,2.15a1,1,0,0,0,.88-.12,1.89,1.89,0,0,0,.44-.91l.76-2.53,5.52,8a1.78,1.78,0,0,0,.68.73.63.63,0,0,0,.56,0,.53.53,0,0,0,.35-.35,2.56,2.56,0,0,0,.09-.68l-.5-6.2,2.2,1.2a.66.66,0,0,0,.47.12"/><g id="Layer0_0_1_STROKES" data-name="Layer0 0 1 STROKES"><path class="cls-1" d="M157.11,157.4a18.73,18.73,0,0,1-26.55,0,5,5,0,0,1,7.12-7.12A8.74,8.74,0,0,0,150,137.92a5,5,0,0,1,0-7.1l0,0a5,5,0,0,1,7.12.05,18.87,18.87,0,0,1-.09,26.55Zm19.72-45.93a26.8,26.8,0,0,1-19.51,8.23h-.15c-.89,0-1.77-.07-2.62-.13h-.1A27.7,27.7,0,0,1,129.79,94.9v-.1c-.06-.85-.11-1.72-.13-2.61,0,0,0-.09,0-.14a26.78,26.78,0,0,1,8.12-19.47,26.51,26.51,0,0,1,19.45-8.06,27.56,27.56,0,0,1,27.62,27.64A26.34,26.34,0,0,1,176.83,111.47Zm-19.5-1.84a16.88,16.88,0,0,0,12.29-5.2,16.39,16.39,0,0,0,5.14-12.26A17.49,17.49,0,0,0,157.2,74.59a16.56,16.56,0,0,0-12.31,5.11A16.81,16.81,0,0,0,139.72,92c0,.67.05,1.33.1,2a17.63,17.63,0,0,0,15.55,15.55C156,109.57,156.66,109.61,157.33,109.62ZM111,177.33l-.1.1a26.7,26.7,0,0,1-19.4,8.1H91.2l-2.35-.12-.21,0A27.55,27.55,0,0,1,64,160.71c0-.07,0-.14,0-.22l-.12-2.35c0-.08,0-.17,0-.26a27.61,27.61,0,0,1,27.55-27.55A27.56,27.56,0,0,1,119,158,26.49,26.49,0,0,1,111,177.33Zm-19.41-1.87a16.74,16.74,0,0,0,12.2-5.17l.07-.07a16.54,16.54,0,0,0,5.1-12.24,17.49,17.49,0,0,0-17.56-17.56,17.54,17.54,0,0,0-17.47,17.36l.11,2.1a17.49,17.49,0,0,0,15.47,15.47Z"/></g><path class="cls-1" d="M31.95,90.3l58-58A8,8,0,0,0,92.19,25l-3-15.27-5,3.47a2.94,2.94,0,0,1-1.88.68A3.7,3.7,0,0,1,80.71,13l-2-2L67.55,0l-4.8,14.87q-.45,1.19-1.19,1.36a2,2,0,0,1-1.51.14l-7.22-1.59L57.13,27.9a1.61,1.61,0,0,1-2.83,1.44L41.51,11.54l-2.19,7.53A6,6,0,0,1,38,21.63a2.58,2.58,0,0,1-2.64.43l-20-6.4,6.4,20a2.75,2.75,0,0,1-.34,2.56,6.18,6.18,0,0,1-2.64,1.45l-7.42,2.08L29.42,54.9A1.61,1.61,0,0,1,28,57.73L14.53,53.3l1.93,7.33a2.81,2.81,0,0,1-.2,1.51,1.91,1.91,0,0,1-1.36,1.19L0,68.17,11,79.4q1.28,1.22,2,2A2.63,2.63,0,0,1,13.82,83a2.3,2.3,0,0,1-.6,1.79l-3.41,5,15,2.72A8,8,0,0,0,31.95,90.3Z"/></g></g></g></svg>