<!-- Generator: Adobe Illustrator 21.0.0, SVG Export Plug-In  -->
<svg version="1.1"
	 xmlns="http://www.w3.org/2000/svg" xmlns:xlink="http://www.w3.org/1999/xlink" xmlns:a="http://ns.adobe.com/AdobeSVGViewerExtensions/3.0/"
	 x="0px" y="0px" width="424.672px" height="109.806px" viewBox="0 0 424.672 109.806"
	 style="enable-background:new 0 0 424.672 109.806;" xml:space="preserve">
<style type="text/css">
	.st0{fill:#FFFFFF;}
</style>
<defs>
</defs>
<g>
	<path class="st0" d="M0,57.966c0-0.639,0.339-0.959,1.02-0.959h0.9c0.68,0,1.02,0.32,1.02,0.959v38.221h16.2
		c0.68,0,1.021,0.359,1.021,1.08v0.72c0,0.681-0.341,1.021-1.021,1.021H1.02c-0.681,0-1.02-0.32-1.02-0.961V57.966z"/>
	<path class="st0" d="M41.879,90.366c0-0.6,0.3-0.9,0.9-0.9h0.899c0.64,0,0.961,0.321,0.961,0.961c0,1.4-0.231,2.67-0.69,3.81
		c-0.46,1.14-1.11,2.11-1.95,2.91s-1.83,1.421-2.97,1.86s-2.391,0.66-3.75,0.66c-1.4,0-2.69-0.211-3.87-0.631
		c-1.181-0.42-2.2-1.05-3.06-1.89c-0.861-0.841-1.541-1.89-2.04-3.149c-0.501-1.261-0.75-2.73-0.75-4.41V76.806
		c0-1.68,0.249-3.149,0.75-4.409c0.499-1.261,1.179-2.31,2.04-3.149c0.859-0.841,1.879-1.471,3.06-1.891
		c1.18-0.42,2.47-0.63,3.87-0.63c1.359,0,2.63,0.21,3.81,0.63s2.21,1.05,3.09,1.891c0.88,0.84,1.561,1.889,2.04,3.149
		c0.48,1.26,0.721,2.729,0.721,4.409v5.701c0,0.64-0.321,0.959-0.96,0.959H28.379v5.94c0,1.401,0.181,2.591,0.54,3.57
		c0.36,0.98,0.85,1.771,1.471,2.37c0.619,0.6,1.35,1.041,2.189,1.32s1.74,0.42,2.7,0.42c1.839,0,3.399-0.59,4.68-1.771
		C41.239,94.138,41.879,92.487,41.879,90.366z M28.379,80.886h13.8v-3.899c0-1.399-0.18-2.589-0.539-3.569
		c-0.36-0.98-0.861-1.771-1.5-2.371c-0.641-0.6-1.371-1.039-2.19-1.319c-0.82-0.28-1.71-0.421-2.67-0.421s-1.86,0.141-2.7,0.421
		s-1.57,0.72-2.189,1.319c-0.621,0.601-1.11,1.391-1.471,2.371c-0.359,0.98-0.54,2.17-0.54,3.569V80.886z"/>
	<path class="st0" d="M63.959,99.007c-0.801,0.158-1.681,0.24-2.641,0.24c-2.439,0-4.36-0.561-5.76-1.681
		c-1.4-1.12-2.1-3.1-2.1-5.94v-31.02c0-0.64,0.319-0.96,0.96-0.96h0.899c0.64,0,0.96,0.32,0.96,0.96v6.779h7.62
		c0.64,0,0.96,0.321,0.96,0.961v0.66c0,0.64-0.32,0.959-0.96,0.959h-7.62v21.48c0,2.04,0.44,3.42,1.32,4.141
		c0.88,0.719,2.22,1.08,4.021,1.08c0.359,0,0.729-0.021,1.109-0.061c0.38-0.039,0.77-0.1,1.17-0.18c0.64-0.121,0.96,0.18,0.96,0.899
		v0.66C64.858,98.547,64.559,98.886,63.959,99.007z"/>
	<path class="st0" d="M72.838,68.826c-0.12,0.479-0.42,0.72-0.9,0.72h-0.66c-0.561,0-0.779-0.26-0.659-0.779l1.859-10.801
		c0.04-0.639,0.399-0.959,1.08-0.959h1.5c0.64,0,0.88,0.381,0.72,1.14L72.838,68.826z"/>
	<path class="st0" d="M99.718,75.126c0-2-0.621-3.469-1.86-4.41c-1.24-0.939-2.721-1.41-4.44-1.41s-3.2,0.461-4.439,1.381
		c-1.24,0.92-1.86,2.381-1.86,4.38v0.12c0,1.48,0.391,2.64,1.17,3.48c0.78,0.84,1.75,1.539,2.91,2.1s2.43,1.061,3.811,1.5
		c1.38,0.44,2.649,1.01,3.81,1.71s2.13,1.63,2.91,2.79s1.17,2.699,1.17,4.619c0,1.32-0.24,2.49-0.72,3.511
		c-0.48,1.021-1.141,1.89-1.98,2.61c-0.84,0.72-1.83,1.26-2.97,1.619c-1.141,0.36-2.391,0.541-3.75,0.541
		c-1.36,0-2.61-0.191-3.75-0.57c-1.141-0.38-2.13-0.93-2.97-1.65c-0.841-0.72-1.491-1.59-1.95-2.609
		c-0.461-1.021-0.69-2.17-0.69-3.451v-0.18c0-0.639,0.32-0.959,0.96-0.959h0.9c0.6,0,0.899,0.299,0.899,0.899v0.06
		c0,1.041,0.181,1.931,0.54,2.67c0.36,0.741,0.841,1.351,1.44,1.83c0.6,0.48,1.3,0.831,2.1,1.051s1.64,0.33,2.521,0.33
		c0.879,0,1.719-0.11,2.52-0.33c0.8-0.22,1.5-0.561,2.101-1.021c0.6-0.46,1.08-1.05,1.439-1.771c0.36-0.719,0.54-1.599,0.54-2.64
		v-0.12c0-1.479-0.39-2.64-1.17-3.479c-0.78-0.841-1.75-1.53-2.91-2.07s-2.42-1.029-3.779-1.47c-1.36-0.439-2.621-1.01-3.78-1.71
		c-1.161-0.7-2.13-1.62-2.91-2.761c-0.78-1.14-1.17-2.689-1.17-4.649c0-1.319,0.229-2.499,0.69-3.54
		c0.459-1.039,1.089-1.91,1.89-2.609c0.8-0.7,1.76-1.24,2.88-1.621c1.119-0.379,2.319-0.569,3.6-0.569s2.47,0.19,3.57,0.569
		c1.1,0.381,2.06,0.931,2.88,1.65c0.819,0.721,1.46,1.59,1.92,2.609c0.46,1.021,0.69,2.151,0.69,3.391v0.18
		c0,0.641-0.32,0.961-0.96,0.961h-0.9c-0.6,0-0.899-0.301-0.899-0.9V75.126z"/>
	<path class="st0" d="M138.177,75.126c0-2-0.621-3.469-1.86-4.41c-1.24-0.939-2.721-1.41-4.44-1.41s-3.2,0.461-4.439,1.381
		c-1.24,0.92-1.86,2.381-1.86,4.38v0.12c0,1.48,0.391,2.64,1.17,3.48c0.78,0.84,1.75,1.539,2.91,2.1s2.43,1.061,3.811,1.5
		c1.38,0.44,2.649,1.01,3.81,1.71s2.13,1.63,2.91,2.79s1.17,2.699,1.17,4.619c0,1.32-0.24,2.49-0.72,3.511
		c-0.48,1.021-1.141,1.89-1.98,2.61c-0.84,0.72-1.83,1.26-2.97,1.619c-1.141,0.36-2.391,0.541-3.75,0.541
		c-1.36,0-2.61-0.191-3.75-0.57c-1.141-0.38-2.13-0.93-2.97-1.65c-0.841-0.72-1.491-1.59-1.95-2.609
		c-0.461-1.021-0.69-2.17-0.69-3.451v-0.18c0-0.639,0.32-0.959,0.96-0.959h0.9c0.6,0,0.899,0.299,0.899,0.899v0.06
		c0,1.041,0.181,1.931,0.54,2.67c0.36,0.741,0.841,1.351,1.44,1.83c0.6,0.48,1.3,0.831,2.1,1.051s1.64,0.33,2.521,0.33
		c0.879,0,1.719-0.11,2.52-0.33c0.8-0.22,1.5-0.561,2.101-1.021c0.6-0.46,1.08-1.05,1.439-1.771c0.36-0.719,0.54-1.599,0.54-2.64
		v-0.12c0-1.479-0.39-2.64-1.17-3.479c-0.78-0.841-1.75-1.53-2.91-2.07s-2.42-1.029-3.779-1.47c-1.36-0.439-2.621-1.01-3.78-1.71
		c-1.161-0.7-2.13-1.62-2.91-2.761c-0.78-1.14-1.17-2.689-1.17-4.649c0-1.319,0.229-2.499,0.69-3.54
		c0.459-1.039,1.089-1.91,1.89-2.609c0.8-0.7,1.76-1.24,2.88-1.621c1.119-0.379,2.319-0.569,3.6-0.569s2.47,0.19,3.57,0.569
		c1.1,0.381,2.06,0.931,2.88,1.65c0.819,0.721,1.46,1.59,1.92,2.609c0.46,1.021,0.69,2.151,0.69,3.391v0.18
		c0,0.641-0.32,0.961-0.96,0.961h-0.9c-0.6,0-0.899-0.301-0.899-0.9V75.126z"/>
	<path class="st0" d="M159.836,99.007c-0.801,0.158-1.681,0.24-2.641,0.24c-2.439,0-4.36-0.561-5.76-1.681
		c-1.4-1.12-2.1-3.1-2.1-5.94v-31.02c0-0.64,0.319-0.96,0.96-0.96h0.899c0.64,0,0.96,0.32,0.96,0.96v6.779h7.62
		c0.64,0,0.96,0.321,0.96,0.961v0.66c0,0.64-0.32,0.959-0.96,0.959h-7.62v21.48c0,2.04,0.44,3.42,1.32,4.141
		c0.88,0.719,2.22,1.08,4.021,1.08c0.359,0,0.729-0.021,1.109-0.061c0.38-0.039,0.77-0.1,1.17-0.18c0.64-0.121,0.96,0.18,0.96,0.899
		v0.66C160.735,98.547,160.436,98.886,159.836,99.007z"/>
	<path class="st0" d="M185.814,89.587c0,1.68-0.239,3.149-0.72,4.41c-0.479,1.26-1.16,2.309-2.04,3.149
		c-0.88,0.84-1.91,1.47-3.09,1.89c-1.181,0.42-2.451,0.631-3.811,0.631c-1.28,0-2.51-0.191-3.689-0.57
		c-1.181-0.38-2.22-0.961-3.12-1.74c-0.9-0.78-1.61-1.74-2.13-2.88c-0.521-1.14-0.78-2.47-0.78-3.99v-0.3
		c0-1.52,0.26-2.85,0.78-3.99c0.52-1.141,1.22-2.1,2.1-2.88s1.91-1.359,3.09-1.74c1.18-0.38,2.431-0.569,3.75-0.569h6.9v-4.021
		c0-1.399-0.18-2.589-0.54-3.569s-0.851-1.771-1.47-2.371c-0.621-0.6-1.351-1.039-2.19-1.319s-1.739-0.421-2.7-0.421
		c-1.84,0-3.37,0.592-4.59,1.771c-1.221,1.181-1.83,2.831-1.83,4.95c0,0.6-0.3,0.9-0.899,0.9h-0.9c-0.64,0-0.96-0.32-0.96-0.961
		c0-2.84,0.859-5.09,2.58-6.75c1.72-1.658,3.92-2.489,6.6-2.489c1.359,0,2.63,0.21,3.811,0.63c1.18,0.42,2.21,1.05,3.09,1.891
		c0.88,0.84,1.561,1.889,2.04,3.149c0.48,1.26,0.72,2.729,0.72,4.409V89.587z M176.154,97.087c0.961,0,1.851-0.141,2.671-0.42
		c0.819-0.279,1.549-0.721,2.189-1.32c0.64-0.6,1.14-1.39,1.5-2.37c0.36-0.979,0.54-2.169,0.54-3.57v-5.819h-6.9
		c-1.92,0-3.55,0.561-4.89,1.68c-1.341,1.12-2.01,2.801-2.01,5.039v0.061c0,2.24,0.669,3.921,2.01,5.04
		C172.604,96.526,174.234,97.087,176.154,97.087z"/>
	<path class="st0" d="M210.774,68.347c0-0.64,0.32-0.961,0.96-0.961h0.9c0.64,0,0.96,0.321,0.96,0.961v31.5
		c0,1.68-0.25,3.15-0.75,4.41c-0.501,1.26-1.181,2.299-2.04,3.119c-0.86,0.82-1.89,1.43-3.09,1.83s-2.48,0.6-3.84,0.6
		c-2.841,0-5.11-0.77-6.811-2.309c-1.7-1.541-2.55-3.531-2.55-5.971c0-0.641,0.32-0.96,0.96-0.96h0.9c0.6,0,0.899,0.3,0.899,0.899
		c0,1.801,0.609,3.22,1.83,4.261c1.22,1.04,2.81,1.56,4.771,1.56c0.96,0,1.859-0.13,2.7-0.39c0.84-0.261,1.569-0.681,2.189-1.261
		s1.11-1.35,1.47-2.31c0.36-0.96,0.54-2.14,0.54-3.54v-6.9c-0.8,1.361-1.829,2.371-3.09,3.031c-1.26,0.659-2.71,0.989-4.35,0.989
		c-1.28,0-2.48-0.2-3.601-0.601c-1.12-0.398-2.09-1.009-2.909-1.829c-0.82-0.819-1.461-1.851-1.92-3.091
		c-0.461-1.238-0.69-2.699-0.69-4.379v-18.66c0-0.64,0.319-0.961,0.96-0.961h0.84c0.64,0,0.96,0.321,0.96,0.961v18.3
		c0,1.4,0.181,2.591,0.54,3.569c0.36,0.98,0.86,1.771,1.5,2.371c0.64,0.6,1.37,1.04,2.19,1.319c0.819,0.28,1.71,0.42,2.67,0.42
		s1.859-0.14,2.7-0.42c0.84-0.279,1.569-0.72,2.189-1.319c0.62-0.601,1.11-1.391,1.47-2.371c0.36-0.979,0.54-2.169,0.54-3.569
		V68.347z"/>
	<path class="st0" d="M236.695,57.966c0-0.639,0.319-0.959,0.96-0.959h0.899c0.64,0,0.96,0.32,0.96,0.959v3.24
		c0,0.641-0.32,0.961-0.96,0.961h-0.899c-0.641,0-0.96-0.32-0.96-0.961V57.966z M236.695,68.347c0-0.64,0.319-0.961,0.96-0.961
		h0.899c0.64,0,0.96,0.321,0.96,0.961v29.699c0,0.641-0.32,0.961-0.96,0.961h-0.899c-0.641,0-0.96-0.32-0.96-0.961V68.347z"/>
	<path class="st0" d="M267.475,99.007h-0.9c-0.641,0-0.96-0.32-0.96-0.961v-21.06c0-1.399-0.18-2.589-0.54-3.569
		s-0.851-1.771-1.47-2.371c-0.621-0.6-1.351-1.039-2.19-1.319s-1.74-0.421-2.7-0.421s-1.851,0.141-2.67,0.421
		c-0.82,0.28-1.551,0.72-2.189,1.319c-0.641,0.601-1.141,1.391-1.5,2.371c-0.36,0.98-0.54,2.17-0.54,3.569v21.06
		c0,0.641-0.321,0.961-0.96,0.961h-0.841c-0.64,0-0.96-0.32-0.96-0.961v-21.24c0-1.68,0.24-3.149,0.721-4.409
		c0.479-1.261,1.159-2.31,2.04-3.149c0.879-0.841,1.899-1.471,3.06-1.891s2.439-0.63,3.84-0.63c1.359,0,2.641,0.21,3.84,0.63
		c1.2,0.42,2.229,1.05,3.091,1.891c0.859,0.84,1.539,1.889,2.04,3.149c0.499,1.26,0.75,2.729,0.75,4.409v21.24
		C268.435,98.686,268.114,99.007,267.475,99.007z"/>
	<path class="st0" d="M301.314,99.007c-0.801,0.158-1.681,0.24-2.641,0.24c-2.439,0-4.36-0.561-5.76-1.681
		c-1.4-1.12-2.1-3.1-2.1-5.94v-31.02c0-0.64,0.319-0.96,0.96-0.96h0.899c0.64,0,0.96,0.32,0.96,0.96v6.779h7.62
		c0.64,0,0.96,0.321,0.96,0.961v0.66c0,0.64-0.32,0.959-0.96,0.959h-7.62v21.48c0,2.04,0.44,3.42,1.32,4.141
		c0.88,0.719,2.22,1.08,4.021,1.08c0.359,0,0.729-0.021,1.109-0.061c0.38-0.039,0.77-0.1,1.17-0.18c0.64-0.121,0.96,0.18,0.96,0.899
		v0.66C302.213,98.547,301.914,98.886,301.314,99.007z"/>
	<path class="st0" d="M327.893,89.587c0,1.68-0.24,3.149-0.721,4.41c-0.479,1.26-1.16,2.309-2.04,3.149
		c-0.88,0.84-1.91,1.47-3.09,1.89s-2.45,0.631-3.81,0.631c-1.4,0-2.69-0.211-3.87-0.631c-1.181-0.42-2.2-1.05-3.06-1.89
		c-0.861-0.841-1.541-1.89-2.04-3.149c-0.501-1.261-0.75-2.73-0.75-4.41V76.806c0-1.68,0.249-3.149,0.75-4.409
		c0.499-1.261,1.179-2.31,2.04-3.149c0.859-0.841,1.879-1.471,3.06-1.891c1.18-0.42,2.47-0.63,3.87-0.63
		c1.359,0,2.63,0.21,3.81,0.63s2.21,1.05,3.09,1.891c0.88,0.84,1.561,1.889,2.04,3.149c0.48,1.26,0.721,2.729,0.721,4.409V89.587z
		 M325.132,76.986c0-1.399-0.18-2.589-0.539-3.569c-0.36-0.98-0.861-1.771-1.5-2.371c-0.641-0.6-1.371-1.039-2.19-1.319
		c-0.82-0.28-1.71-0.421-2.67-0.421s-1.86,0.141-2.7,0.421s-1.57,0.72-2.189,1.319c-0.621,0.601-1.11,1.391-1.471,2.371
		c-0.359,0.98-0.54,2.17-0.54,3.569v12.42c0,1.401,0.181,2.591,0.54,3.57c0.36,0.98,0.85,1.771,1.471,2.37
		c0.619,0.6,1.35,1.041,2.189,1.32s1.74,0.42,2.7,0.42s1.85-0.141,2.67-0.42c0.819-0.279,1.55-0.721,2.19-1.32
		c0.639-0.6,1.14-1.39,1.5-2.37c0.359-0.979,0.539-2.169,0.539-3.57V76.986z"/>
	<path class="st0" d="M337.312,67.386h0.841c0.639,0,0.96,0.321,0.96,0.961v21.06c0,1.401,0.18,2.591,0.54,3.57
		c0.359,0.98,0.859,1.771,1.5,2.37c0.639,0.6,1.369,1.041,2.189,1.32c0.819,0.279,1.71,0.42,2.67,0.42s1.86-0.141,2.7-0.42
		s1.569-0.721,2.19-1.32c0.619-0.6,1.109-1.39,1.47-2.37c0.36-0.979,0.54-2.169,0.54-3.57v-21.06c0-0.64,0.319-0.961,0.96-0.961h0.9
		c0.639,0,0.96,0.321,0.96,0.961v21.24c0,1.68-0.251,3.149-0.75,4.41c-0.501,1.26-1.181,2.309-2.04,3.149
		c-0.861,0.84-1.891,1.47-3.091,1.89c-1.199,0.42-2.48,0.631-3.84,0.631c-1.4,0-2.68-0.211-3.84-0.631s-2.181-1.05-3.06-1.89
		c-0.881-0.841-1.561-1.89-2.04-3.149c-0.48-1.261-0.721-2.73-0.721-4.41v-21.24C336.352,67.707,336.672,67.386,337.312,67.386z"/>
	<path class="st0" d="M366.953,89.406c0,1.401,0.181,2.591,0.54,3.57c0.36,0.98,0.85,1.771,1.471,2.37
		c0.619,0.6,1.35,1.041,2.189,1.32s1.74,0.42,2.7,0.42c1.8,0,3.35-0.601,4.649-1.801c1.3-1.199,1.95-2.88,1.95-5.039
		c0-0.601,0.3-0.9,0.9-0.9h0.899c0.64,0,0.961,0.32,0.961,0.959c0,1.441-0.24,2.741-0.721,3.9c-0.479,1.161-1.14,2.141-1.979,2.94
		s-1.83,1.421-2.971,1.86c-1.14,0.439-2.369,0.66-3.689,0.66c-1.4,0-2.69-0.211-3.87-0.631c-1.181-0.42-2.2-1.05-3.06-1.89
		c-0.861-0.841-1.541-1.89-2.04-3.149c-0.501-1.261-0.75-2.73-0.75-4.41V76.806c0-1.68,0.249-3.149,0.75-4.409
		c0.499-1.261,1.179-2.31,2.04-3.149c0.859-0.841,1.879-1.471,3.06-1.891c1.18-0.42,2.47-0.63,3.87-0.63
		c1.32,0,2.55,0.22,3.689,0.659c1.141,0.441,2.131,1.061,2.971,1.861c0.84,0.8,1.5,1.779,1.979,2.939
		c0.48,1.16,0.721,2.46,0.721,3.9c0,0.64-0.321,0.959-0.961,0.959h-0.899c-0.601,0-0.9-0.299-0.9-0.899c0-2.16-0.65-3.841-1.95-5.04
		c-1.3-1.2-2.85-1.801-4.649-1.801c-0.96,0-1.86,0.141-2.7,0.421s-1.57,0.72-2.189,1.319c-0.621,0.601-1.11,1.391-1.471,2.371
		c-0.359,0.98-0.54,2.17-0.54,3.569V89.406z"/>
	<path class="st0" d="M394.552,98.046c0,0.641-0.32,0.961-0.96,0.961h-0.899c-0.641,0-0.96-0.32-0.96-0.961v-40.68
		c0-0.639,0.319-0.96,0.96-0.96h0.899c0.64,0,0.96,0.321,0.96,0.96v13.439c0.76-1.359,1.779-2.379,3.061-3.059
		c1.279-0.68,2.739-1.021,4.38-1.021c1.279,0,2.479,0.21,3.6,0.63c1.119,0.42,2.09,1.041,2.91,1.859
		c0.819,0.82,1.46,1.852,1.92,3.09c0.459,1.241,0.69,2.682,0.69,4.32v21.42c0,0.641-0.321,0.961-0.96,0.961h-0.841
		c-0.64,0-0.96-0.32-0.96-0.961v-21.06c0-1.399-0.18-2.589-0.54-3.569c-0.359-0.98-0.86-1.771-1.5-2.371
		c-0.64-0.6-1.37-1.039-2.189-1.319c-0.82-0.28-1.71-0.421-2.67-0.421s-1.86,0.141-2.7,0.421s-1.57,0.72-2.19,1.319
		c-0.62,0.601-1.109,1.391-1.47,2.371c-0.359,0.98-0.54,2.17-0.54,3.569V98.046z"/>
	<path class="st0" d="M424.672,98.046c0,0.641-0.32,0.961-0.96,0.961h-2.1c-0.641,0-0.96-0.32-0.96-0.961v-2.939
		c0-0.64,0.319-0.96,0.96-0.96h2.1c0.64,0,0.96,0.32,0.96,0.96V98.046z M421.073,57.966c-0.081-0.639,0.239-0.959,0.96-0.959h1.319
		c0.64,0,0.96,0.32,0.96,0.959l-0.359,29.4c0,0.641-0.3,0.96-0.9,0.96h-0.72c-0.601,0-0.921-0.319-0.96-0.96L421.073,57.966z"/>
</g>
<g>
	<g>
		<path class="st0" d="M220.795,10.319c0.103,0.103,0.257,0.134,0.463,0.093l3.8-0.803l-0.989,3.769
			c-0.082,0.268-0.144,0.494-0.185,0.68c-0.041,0.206-0.041,0.36,0,0.463c0.062,0.103,0.196,0.206,0.402,0.309l1.359,0.649
			l-6.581,5.53c-0.124,0.103-0.206,0.247-0.247,0.433c-0.082,0.144-0.082,0.309,0,0.494l0.556,1.977
			c-0.762-0.103-1.493-0.196-2.194-0.278c-0.742-0.082-1.462-0.175-2.163-0.278c-0.7-0.082-1.411-0.165-2.132-0.247l0.525,6.89
			h-2.657l0.463-6.89c-0.021,0-0.041,0-0.062,0c-0.742,0.082-1.473,0.165-2.194,0.247c-0.7,0.103-1.411,0.196-2.132,0.278
			c-0.7,0.082-1.431,0.175-2.194,0.278l0.618-1.977c0.021-0.185,0-0.35-0.062-0.494c-0.062-0.185-0.144-0.33-0.247-0.433
			l-6.581-5.53l1.359-0.649c0.185-0.103,0.309-0.206,0.371-0.309c0.041-0.103,0.041-0.257,0-0.463
			c-0.041-0.185-0.093-0.412-0.154-0.68l-1.02-3.769l3.831,0.803c0.165,0.041,0.309,0.01,0.433-0.093
			c0.124-0.082,0.206-0.185,0.247-0.309l0.494-1.792l2.997,3.522c0.103,0.124,0.227,0.227,0.371,0.309
			c0.144,0.062,0.278,0.062,0.402,0c0.124-0.041,0.206-0.144,0.247-0.309c0.062-0.165,0.051-0.412-0.031-0.742l-1.236-7.106
			l1.699,0.927c0.268,0.165,0.505,0.247,0.711,0.247c0.206-0.041,0.371-0.175,0.494-0.402L211.99,0l2.41,4.665
			c0.124,0.227,0.299,0.36,0.525,0.402c0.206,0,0.443-0.082,0.711-0.247l1.73-0.927l-1.298,7.106
			c-0.082,0.33-0.093,0.577-0.031,0.742s0.154,0.268,0.278,0.309c0.124,0.062,0.247,0.062,0.371,0
			c0.144-0.082,0.278-0.185,0.402-0.309l2.997-3.522l0.525,1.792C220.631,10.134,220.692,10.237,220.795,10.319"/>
	</g>
</g>
</svg>