<!-- Generator: Adobe Illustrator 21.0.0, SVG Export Plug-In  -->
<svg version="1.1"
	 xmlns="http://www.w3.org/2000/svg" xmlns:xlink="http://www.w3.org/1999/xlink" xmlns:a="http://ns.adobe.com/AdobeSVGViewerExtensions/3.0/"
	 x="0px" y="0px" width="247.499px" height="40px" viewBox="0 0 247.499 40" style="enable-background:new 0 0 247.499 40;"
	 xml:space="preserve">
<style type="text/css">
	.st0{fill:#898989;}
</style>
<defs>
</defs>
<g>
	<path class="st0" d="M20,0C8.954,0,0,8.954,0,20c0,11.046,8.954,20,20,20c11.046,0,20-8.954,20-20C40,8.954,31.046,0,20,0z
		 M25.876,20.714h-4.384v11.728h-4.467V20.714h-3.1v-4.226h3.1v-3.609c0-2.831,1.834-5.438,6.055-5.438
		c1.709,0,2.974,0.165,2.974,0.165l-0.1,3.944c0,0-1.289-0.012-2.695-0.012c-1.521,0-1.767,0.704-1.767,1.868v3.082h4.584
		L25.876,20.714z"/>
	<g>
		<ellipse class="st0" cx="89.19" cy="19.945" rx="5.021" ry="4.865"/>
		<path class="st0" d="M94.879,15.223h2.825c0.619,0,1.125-0.507,1.125-1.126v-2.694c0-0.619-0.506-1.125-1.125-1.125h-2.825
			c-0.62,0-1.126,0.506-1.126,1.125v2.694C93.753,14.716,94.259,15.223,94.879,15.223z"/>
		<path class="st0" d="M96.961,20.217c0,4.159-3.479,7.529-7.771,7.529c-4.291,0-7.77-3.371-7.77-7.529
			c0-0.745,0.113-1.466,0.321-2.146h-2.297v10.56c0,0.547,0.447,0.994,0.994,0.994h17.409c0.547,0,0.994-0.447,0.994-0.994v-10.56
			H96.64C96.849,18.752,96.961,19.472,96.961,20.217z"/>
		<path class="st0" d="M89.166,0c-11.046,0-20,8.954-20,20c0,11.046,8.954,20,20,20c11.046,0,20-8.954,20-20
			C109.166,8.954,100.212,0,89.166,0z M101.666,29.291c0,1.765-1.444,3.208-3.208,3.208H79.875c-1.764,0-3.208-1.444-3.208-3.208
			V10.708c0-1.765,1.445-3.208,3.208-3.208h18.583c1.765,0,3.208,1.444,3.208,3.208V29.291z"/>
	</g>
	<path class="st0" d="M158.333,0c-11.046,0-20,8.954-20,20c0,11.046,8.954,20,20,20c11.046,0,20-8.954,20-20
		C178.332,8.954,169.378,0,158.333,0z M168.274,14.843c0.009,0.219,0.013,0.441,0.013,0.663c0,6.779-5.159,14.593-14.592,14.593
		c-2.895,0-5.591-0.851-7.863-2.305c0.404,0.047,0.81,0.072,1.225,0.072c2.402,0,4.614-0.82,6.369-2.195
		c-2.242-0.041-4.138-1.525-4.79-3.562c0.313,0.059,0.634,0.093,0.965,0.093c0.468,0,0.92-0.062,1.351-0.179
		c-2.346-0.473-4.114-2.544-4.114-5.031c0-0.021,0-0.041,0-0.064c0.692,0.383,1.484,0.616,2.324,0.641
		c-1.376-0.92-2.281-2.488-2.281-4.269c0-0.939,0.253-1.821,0.694-2.576c2.53,3.101,6.309,5.141,10.571,5.359
		c-0.087-0.376-0.133-0.768-0.133-1.17c0-2.832,2.297-5.129,5.129-5.129c1.476,0,2.809,0.622,3.744,1.618
		c1.168-0.229,2.265-0.654,3.257-1.242c-0.382,1.198-1.196,2.204-2.255,2.834c1.038-0.122,2.025-0.397,2.946-0.805
		C170.144,13.217,169.275,14.12,168.274,14.843z"/>
	<path class="st0" d="M227.499,0c-11.046,0-20,8.954-20,20c0,11.046,8.954,20,20,20c11.046,0,20-8.954,20-20
		C247.499,8.954,238.544,0,227.499,0z M240.815,27.278c0,1.21-0.982,2.192-2.192,2.192h-22.247c-1.211,0-2.192-0.982-2.192-2.192
		v-7.389l13.761,4.551l12.87-4.612V27.278z M240.815,17.553l-12.873,4.612l-13.759-4.549v-4.894c0-1.211,0.982-2.192,2.192-2.192
		h22.247c1.211,0,2.192,0.981,2.192,2.192V17.553z"/>
</g>
</svg>