<!-- Generator: Adobe Illustrator 21.0.0, SVG Export Plug-In  -->
<svg version="1.1"
	 xmlns="http://www.w3.org/2000/svg" xmlns:xlink="http://www.w3.org/1999/xlink" xmlns:a="http://ns.adobe.com/AdobeSVGViewerExtensions/3.0/"
	 x="0px" y="0px" width="453.25px" height="441.223px" viewBox="0 0 453.25 441.223"
	 style="enable-background:new 0 0 453.25 441.223;" xml:space="preserve">
<style type="text/css">
	.st0{fill:#FF0000;}
</style>
<defs>
</defs>
<g id="New_Symbol_9_copy">
	<g id="Layer0_0_FILL_2_">
		<g>
			<path class="st0" d="M280.023,248.079c-1.482,0.021-2.81,0.381-3.983,1.081c-1.194,0.7-2.141,1.647-2.841,2.841
				c-0.7,1.173-1.06,2.491-1.081,3.952c0.021,1.482,0.381,2.81,1.081,3.983c0.7,1.194,1.647,2.141,2.841,2.841
				c1.173,0.7,2.501,1.06,3.983,1.081c1.462-0.021,2.779-0.381,3.952-1.081c1.194-0.7,2.141-1.647,2.841-2.841
				c0.7-1.173,1.06-2.501,1.081-3.983c-0.021-1.462-0.381-2.779-1.081-3.952c-0.7-1.194-1.647-2.141-2.841-2.841
				C282.802,248.46,281.484,248.1,280.023,248.079 M398.811,428.501c0.844-0.659,1.667-1.369,2.47-2.131h-77.165
				c0.823,0.762,1.657,1.482,2.501,2.161c10.272,8.461,22.294,12.691,36.066,12.691
				C376.476,441.223,388.518,436.982,398.811,428.501 M438.582,259.936c0.7,1.194,1.637,2.141,2.81,2.841
				c1.194,0.7,2.522,1.06,3.983,1.081c1.462-0.021,2.789-0.381,3.983-1.081c1.173-0.7,2.12-1.647,2.841-2.841
				c0.7-1.173,1.05-2.501,1.05-3.983c0-1.462-0.35-2.779-1.05-3.952c-0.721-1.194-1.667-2.141-2.841-2.841
				c-1.194-0.7-2.522-1.06-3.983-1.081c-1.462,0.021-2.789,0.381-3.983,1.081c-1.173,0.7-2.11,1.647-2.81,2.841
				c-0.7,1.173-1.06,2.491-1.081,3.952C437.522,257.435,437.883,258.763,438.582,259.936 M414.683,194.814
				c-3.911-1.667-8.121-2.522-12.629-2.563h-78.709c-4.529,0.041-8.749,0.895-12.66,2.563c-3.932,1.688-7.38,4.014-10.344,6.978
				c-2.964,2.964-5.29,6.402-6.978,10.313c-1.667,3.932-2.511,8.152-2.532,12.66v62.374c0.021,4.529,0.865,8.749,2.532,12.66
				c1.688,3.911,4.014,7.359,6.978,10.344c2.964,2.964,6.412,5.29,10.344,6.978c3.705,1.585,7.699,2.429,11.981,2.532
				c0.226,0,0.453,0,0.679,0h5.465c1.42,0.021,2.707,0.371,3.86,1.05c1.153,0.679,2.059,1.595,2.717,2.748
				c0.679,1.132,1.029,2.409,1.05,3.829c0,0.041,0,0.082,0,0.124c-0.021,1.482-0.36,2.83-1.019,4.045
				c-0.021,0.021-0.041,0.051-0.062,0.093c-0.103,0.185-0.206,0.36-0.309,0.525c-0.062,0.082-0.124,0.154-0.185,0.216
				c-0.103,0.165-0.206,0.309-0.309,0.432c-0.062,0.062-0.113,0.134-0.154,0.216c-0.185,0.185-0.371,0.381-0.556,0.587
				c-0.226,0.206-0.443,0.401-0.648,0.587c-0.226,0.185-0.443,0.36-0.648,0.525c-0.206,0.103-0.412,0.226-0.618,0.371
				c-3.479,2.264-6.773,4.951-9.881,8.059c-0.556,0.556-1.091,1.112-1.606,1.667c-10.169,10.89-15.254,23.889-15.254,38.999
				c0,14.451,4.652,26.977,13.957,37.579c0.021,0.041,0.062,0.072,0.123,0.093c0.556,0.638,1.215,1.132,1.976,1.482
				c0.782,0.329,1.606,0.504,2.47,0.525l78.091-0.062c0.844,0,1.637-0.175,2.378-0.525c0.782-0.35,1.441-0.834,1.976-1.451
				l0.093-0.093c9.284-10.602,13.926-23.117,13.926-37.548c0-15.892-5.61-29.448-16.829-40.667
				c-3.088-3.088-6.361-5.754-9.819-7.997c-0.288-0.206-0.566-0.391-0.834-0.556c-0.432-0.288-0.834-0.628-1.204-1.019
				c-1.338-1.338-2.151-2.872-2.439-4.601h-0.031c0-0.041,0-0.196,0-0.463c0-0.247-0.01-0.576-0.031-0.988
				c-0.021-1.441,0.309-2.748,0.988-3.922c0.679-1.173,1.595-2.1,2.748-2.779c1.153-0.7,2.45-1.06,3.891-1.081h5.435
				c4.508-0.021,8.718-0.865,12.629-2.532c3.932-1.688,7.38-4.014,10.344-6.978c2.964-2.985,5.29-6.433,6.979-10.344
				c1.667-3.911,2.522-8.131,2.563-12.66v-62.374c-0.041-4.508-0.895-8.728-2.563-12.66c-1.688-3.911-4.014-7.349-6.979-10.313
				C422.063,198.828,418.614,196.502,414.683,194.814 M420.21,255.953c0,15.892-5.62,29.437-16.859,40.636
				c-11.219,11.24-24.775,16.859-40.667,16.859c-9.84,0-18.795-2.151-26.864-6.454c-4.941-2.656-9.552-6.124-13.833-10.406
				c-11.178-11.199-16.767-24.744-16.767-40.636s5.589-29.458,16.767-40.698c11.24-11.178,24.806-16.767,40.698-16.767
				c15.892-0.021,29.448,5.568,40.667,16.767C414.59,226.495,420.21,240.061,420.21,255.953 M387.263,359.241
				c6.731,6.731,10.097,14.883,10.097,24.456c0,9.552-3.366,17.714-10.097,24.486c-6.793,6.752-14.966,10.128-24.517,10.128
				c-9.572,0-17.734-3.376-24.486-10.128c-6.731-6.752-10.097-14.914-10.097-24.486c0-9.552,3.366-17.703,10.097-24.456
				c2.635-2.656,5.496-4.786,8.584-6.392c4.776-2.511,10.077-3.767,15.902-3.767C372.297,349.082,380.47,352.468,387.263,359.241
				 M394.334,383.665c0-8.728-3.067-16.17-9.202-22.325c-6.217-6.196-13.689-9.294-22.418-9.294c-4.138,0-7.997,0.71-11.579,2.131
				c-3.932,1.523-7.514,3.911-10.746,7.164c-6.176,6.155-9.263,13.597-9.263,22.325s3.088,16.19,9.263,22.387
				c6.176,6.155,13.617,9.243,22.325,9.263c8.728-0.021,16.201-3.108,22.418-9.263C391.267,399.856,394.334,392.394,394.334,383.665
				 M371.515,378.972c0.103,0.103,0.257,0.134,0.463,0.093l3.798-0.803l-0.988,3.767c-0.082,0.268-0.144,0.494-0.185,0.679
				c-0.041,0.206-0.041,0.36,0,0.463c0.062,0.103,0.196,0.206,0.401,0.309l1.359,0.648l-6.577,5.527
				c-0.124,0.103-0.206,0.247-0.247,0.432c-0.082,0.144-0.082,0.309,0,0.494l0.556,1.976c-0.762-0.103-1.492-0.196-2.192-0.278
				c-0.741-0.082-1.462-0.175-2.161-0.278c-0.7-0.082-1.41-0.165-2.131-0.247l0.525,6.886h-2.656l0.463-6.886
				c-0.021,0-0.041,0-0.062,0c-0.741,0.082-1.472,0.165-2.192,0.247c-0.7,0.103-1.41,0.196-2.131,0.278
				c-0.7,0.082-1.431,0.175-2.192,0.278l0.618-1.976c0.021-0.185,0-0.35-0.062-0.494c-0.062-0.185-0.144-0.329-0.247-0.432
				l-6.577-5.527l1.359-0.648c0.185-0.103,0.309-0.206,0.371-0.309c0.041-0.103,0.041-0.257,0-0.463
				c-0.041-0.185-0.093-0.412-0.154-0.679l-1.019-3.767l3.829,0.803c0.165,0.041,0.309,0.01,0.432-0.093
				c0.123-0.082,0.206-0.185,0.247-0.309l0.494-1.791l2.995,3.52c0.103,0.124,0.226,0.226,0.371,0.309
				c0.144,0.062,0.278,0.062,0.401,0c0.124-0.041,0.206-0.144,0.247-0.309c0.062-0.165,0.051-0.412-0.031-0.741l-1.235-7.102
				l1.698,0.926c0.268,0.165,0.504,0.247,0.71,0.247c0.206-0.041,0.371-0.175,0.494-0.401l2.409-4.663l2.408,4.663
				c0.124,0.226,0.298,0.36,0.525,0.401c0.206,0,0.443-0.082,0.71-0.247l1.729-0.926l-1.297,7.102
				c-0.082,0.329-0.093,0.576-0.031,0.741c0.062,0.165,0.154,0.268,0.278,0.309c0.123,0.062,0.247,0.062,0.371,0
				c0.144-0.082,0.278-0.185,0.401-0.309l2.995-3.52l0.525,1.791C371.35,378.787,371.412,378.89,371.515,378.972"/>
		</g>
	</g>
	<path class="st0" d="M332.177,189.194h60.984c1.991,0,3.852-0.992,4.961-2.646l6.439-9.601l-4.451-0.806
		c-0.617-0.1-1.065-0.309-1.344-0.627c-0.179-0.239-0.299-0.677-0.359-1.314c0-0.538,0-1.235,0-2.091l-0.09-11.649l-10.335,5.287
		c-0.578,0.259-1.026,0.289-1.344,0.09c-0.418-0.159-0.707-0.398-0.866-0.717l-2.957-4.63l-4.627,9.151
		c-0.617,1.219-2.466,0.616-2.246-0.732l2.631-16.066l-5.108,2.808c-0.777,0.418-1.463,0.627-2.061,0.627
		c-0.717-0.06-1.255-0.448-1.613-1.165l-7.169-13.89l-7.169,13.89c-0.418,0.717-0.926,1.105-1.523,1.165
		c-0.657,0-1.374-0.209-2.151-0.627l-4.988-2.808l2.653,16.427c0.218,1.348-1.631,1.948-2.246,0.729l-4.738-9.389l-2.838,4.869
		c-0.219,0.299-0.518,0.528-0.896,0.687c-0.418,0.199-0.866,0.169-1.344-0.09l-10.365-5.287l-0.119,11.679
		c0.02,0.876,0.03,1.583,0.03,2.121c-0.06,0.617-0.209,1.036-0.448,1.255c-0.199,0.319-0.617,0.528-1.255,0.627l-4.421,0.836
		l6.462,9.319C328.384,188.234,330.218,189.194,332.177,189.194z"/>
	<g>
		<g>
			<g id="Layer0_0_1_STROKES_1_">
				<path class="st0" d="M414.61,260.398h-33.879c-1.974,0-3.573-1.6-3.573-3.574c0-4.911,1.545-9.278,4.593-12.981
					c0.46-0.538,0.897-1.021,1.357-1.504c4.057-4.034,8.938-6.043,14.578-6.043c5.647,0,10.514,2.015,14.463,5.988
					c4.001,4.001,6.034,8.896,6.034,14.541C418.184,258.798,416.584,260.398,414.61,260.398z M384.744,253.251h25.848
					c-0.583-2.205-1.744-4.161-3.504-5.921c-2.603-2.618-5.675-3.887-9.401-3.887c-3.736,0-6.834,1.274-9.472,3.895
					c-0.303,0.32-0.656,0.711-0.992,1.103C386.031,249.889,385.205,251.485,384.744,253.251z M344.667,260.398h-33.91
					c-1.974,0-3.573-1.6-3.573-3.574c0-4.916,1.559-9.287,4.633-12.992c0.032-0.039,0.065-0.077,0.099-0.115l1.188-1.313
					c0.04-0.044,0.08-0.087,0.122-0.129c3.969-3.968,8.843-5.98,14.486-5.98s10.518,2.012,14.486,5.98
					c4.009,4.009,6.042,8.904,6.042,14.548C348.24,258.798,346.641,260.398,344.667,260.398z M314.776,253.251h25.872
					c-0.583-2.205-1.744-4.161-3.504-5.921c-2.616-2.615-5.701-3.887-9.433-3.887c-3.703,0-6.77,1.252-9.372,3.827l-1.069,1.182
					C316.066,249.918,315.239,251.505,314.776,253.251z"/>
			</g>
		</g>
	</g>
	<g>
		<path class="st0" d="M363.053,284.285c-11.396,0-19.672-4.718-20.188-5.02c-1.704-0.995-2.279-3.184-1.284-4.888
			c0.993-1.702,3.177-2.277,4.879-1.29c0.647,0.371,15.946,8.96,32.568-0.05c1.734-0.939,3.904-0.296,4.845,1.438
			s0.297,3.904-1.438,4.845C375.572,283.042,368.901,284.285,363.053,284.285z"/>
	</g>
</g>
<g>
	<path class="st0" d="M94.308,193.88c-0.029,0-0.06,0-0.089-0.001l-0.1-0.003c-1.656-0.048-2.96-1.431-2.911-3.087
		s1.442-2.971,3.087-2.91c1.656,0.048,3.01,1.432,2.961,3.088C97.208,192.592,95.923,193.88,94.308,193.88z M104.293,193.634
		c-1.553,0-2.866-1.196-2.988-2.769c-0.128-1.652,1.108-3.094,2.76-3.222c6.442-0.498,12.832-1.684,18.992-3.525
		c1.586-0.475,3.259,0.428,3.733,2.015c0.475,1.587-0.427,3.259-2.015,3.734c-6.568,1.964-13.381,3.229-20.248,3.759
		C104.448,193.631,104.37,193.634,104.293,193.634z M84.252,193.065c-0.134,0-0.27-0.009-0.406-0.027
		c-6.82-0.922-13.551-2.58-20.004-4.924c-1.558-0.566-2.361-2.287-1.795-3.844c0.565-1.558,2.29-2.36,3.844-1.795
		c6.052,2.199,12.363,3.753,18.76,4.618c1.642,0.222,2.793,1.733,2.57,3.375C87.018,191.971,85.729,193.065,84.252,193.065z
		 M133.324,186.621c-1.17,0-2.281-0.689-2.765-1.835c-0.645-1.526,0.071-3.286,1.598-3.93c0.002-0.001,0.096-0.04,0.098-0.041
		c1.528-0.639,3.286,0.079,3.927,1.606s-0.078,3.286-1.606,3.927l-1.16-2.767l1.074,2.803
		C134.108,186.545,133.713,186.621,133.324,186.621z M55.65,184.379c-0.432,0-0.871-0.095-1.289-0.297l-0.125-0.062
		c-1.481-0.741-2.082-2.543-1.342-4.025c0.743-1.482,2.546-2.082,4.025-1.341c1.491,0.722,2.143,2.529,1.421,4.021
		C57.821,183.748,56.761,184.379,55.65,184.379z M142.403,182.216c-1.056,0-2.08-0.558-2.628-1.547
		c-0.802-1.45-0.277-3.275,1.172-4.078c5.632-3.118,10.952-6.852,15.813-11.098c1.25-1.089,3.143-0.962,4.233,0.286
		c1.09,1.248,0.962,3.143-0.286,4.233c-5.182,4.525-10.852,8.504-16.854,11.827C143.393,182.095,142.895,182.216,142.403,182.216z
		 M46.853,179.458c-0.548,0-1.102-0.15-1.599-0.464c-5.804-3.666-11.238-7.965-16.151-12.778c-1.184-1.16-1.203-3.059-0.043-4.243
		c1.159-1.185,3.059-1.202,4.242-0.043c4.61,4.518,9.71,8.552,15.155,11.991c1.401,0.885,1.819,2.738,0.935,4.139
		C48.821,178.963,47.848,179.458,46.853,179.458z M165.903,163.792c-0.748,0-1.496-0.277-2.077-0.836
		c-1.195-1.147-1.234-3.046-0.087-4.242c1.121-1.22,3.032-1.312,4.251-0.19c1.22,1.122,1.311,3.006,0.189,4.226l-0.112,0.12
		C167.479,163.484,166.691,163.792,165.903,163.792z M24.391,159.689c-0.84,0-1.669-0.357-2.254-1.061
		c-0.008-0.011-0.08-0.098-0.089-0.109c-1.041-1.289-0.84-3.178,0.449-4.219c1.288-1.04,3.178-0.84,4.219,0.449
		c1.036,1.283,0.874,3.2-0.401,4.245C25.746,159.459,25.065,159.689,24.391,159.689z M172.355,156.031
		c-0.624,0-1.252-0.193-1.79-0.594c-1.329-0.99-1.604-2.87-0.613-4.198c3.857-5.179,7.166-10.775,9.833-16.633
		c0.687-1.508,2.466-2.174,3.974-1.487s2.174,2.465,1.487,3.973c-2.843,6.246-6.37,12.212-10.483,17.732
		C174.174,155.614,173.271,156.031,172.355,156.031z M18.452,151.595c-0.976,0-1.931-0.475-2.508-1.35
		c-3.788-5.747-6.964-11.906-9.441-18.307c-0.598-1.545,0.17-3.282,1.715-3.88c1.551-0.599,3.283,0.171,3.881,1.715
		c2.323,6.002,5.303,11.779,8.855,17.17c0.912,1.383,0.529,3.244-0.854,4.156C19.592,151.434,19.019,151.595,18.452,151.595z
		 M186.159,129.523c-0.298,0-0.6-0.045-0.897-0.14c-1.569-0.498-2.45-2.149-1.966-3.723l0.057-0.175
		c0.531-1.569,2.229-2.413,3.804-1.88c1.569,0.531,2.411,2.234,1.88,3.804l-2.842-0.962l2.832,0.991
		C188.611,128.705,187.428,129.523,186.159,129.523z M6.197,124.359c-1.319,0-2.528-0.877-2.893-2.211l-0.026-0.097
		c-0.436-1.599,0.507-3.248,2.105-3.684c1.59-0.436,3.247,0.506,3.684,2.105l0.026,0.097c0.436,1.599-0.507,3.248-2.105,3.684
		C6.725,124.324,6.459,124.359,6.197,124.359z M188.82,119.803c-0.209,0-0.421-0.022-0.634-0.067
		c-1.619-0.348-2.65-1.944-2.302-3.563c1.348-6.272,2.031-12.736,2.031-19.214c0-1.657,1.343-3,3-3s3,1.343,3,3
		c0,6.9-0.729,13.789-2.166,20.475C191.448,118.84,190.204,119.803,188.82,119.803z M4.111,114.484c-1.454,0-2.73-1.059-2.961-2.541
		C0.387,107.021,0,101.98,0,96.958c0-1.853,0.053-3.729,0.158-5.578c0.094-1.654,1.53-2.917,3.165-2.825
		c1.654,0.094,2.919,1.511,2.825,3.165C6.05,93.456,6,95.218,6,96.958c0,4.714,0.363,9.446,1.08,14.065
		c0.254,1.637-0.868,3.17-2.505,3.424C4.419,114.472,4.265,114.484,4.111,114.484z M190.471,90.794c-1.526,0-2.832-1.16-2.982-2.71
		c-0.623-6.431-1.935-12.796-3.896-18.919c-0.506-1.578,0.363-3.267,1.94-3.772c1.575-0.505,3.267,0.363,3.772,1.941
		c2.093,6.529,3.491,13.316,4.156,20.171c0.159,1.649-1.048,3.116-2.697,3.275C190.666,90.789,190.567,90.794,190.471,90.794z
		 M4.25,84.619c-0.176,0-0.354-0.016-0.533-0.047c-1.631-0.292-2.716-1.851-2.424-3.482l2.953,0.529l-2.948-0.555
		c0.275-1.621,1.815-2.742,3.431-2.484c1.624,0.257,2.741,1.75,2.502,3.376l-0.031,0.191C6.939,83.599,5.675,84.619,4.25,84.619z
		 M6.419,74.763c-0.266,0-0.536-0.036-0.805-0.11c-1.597-0.443-2.531-2.097-2.088-3.693c1.837-6.618,4.396-13.061,7.605-19.147
		c0.771-1.466,2.586-2.028,4.053-1.255c1.465,0.772,2.027,2.587,1.254,4.053c-3.009,5.708-5.408,11.749-7.131,17.954
		C8.939,73.892,7.732,74.763,6.419,74.763z M182.894,61.911c-1.172,0-2.286-0.692-2.768-1.841c-0.635-1.513,0.045-3.301,1.549-3.956
		c1.505-0.656,3.235-0.027,3.912,1.47c0.011,0.025,0.062,0.141,0.072,0.166c0.641,1.528-0.078,3.286-1.606,3.927
		C183.674,61.835,183.28,61.911,182.894,61.911z M178.314,52.921c-1.035,0-2.042-0.536-2.599-1.497
		c-3.229-5.572-7.065-10.819-11.403-15.596c-1.114-1.227-1.022-3.124,0.204-4.238c1.226-1.113,3.125-1.022,4.237,0.204
		c4.623,5.091,8.712,10.684,12.153,16.622c0.831,1.434,0.342,3.269-1.092,4.1C179.342,52.791,178.825,52.921,178.314,52.921z
		 M18.905,47.576c-0.568,0-1.14-0.16-1.643-0.498c-1.371-0.922-1.766-2.737-0.85-4.112c0.005-0.007,0.064-0.097,0.069-0.104
		c0.931-1.371,2.799-1.728,4.167-0.798c1.371,0.93,1.729,2.796,0.798,4.167C20.859,47.097,19.888,47.576,18.905,47.576z
		 M24.977,39.565c-0.681,0-1.365-0.23-1.928-0.703c-1.269-1.066-1.434-2.958-0.367-4.227c4.419-5.262,9.41-10.067,14.834-14.282
		c1.31-1.016,3.192-0.78,4.21,0.528c1.017,1.309,0.78,3.193-0.528,4.21c-5.09,3.955-9.774,8.464-13.922,13.402
		C26.683,39.2,25.833,39.565,24.977,39.565z M159.434,29.779c-0.726,0-1.454-0.262-2.03-0.792c-1.253-1.084-1.394-2.982-0.309-4.235
		c1.084-1.251,2.975-1.393,4.228-0.308l0.144,0.127c1.22,1.122,1.298,3.02,0.177,4.239
		C161.051,29.454,160.243,29.779,159.434,29.779z M151.545,23.477c-0.604,0-1.213-0.182-1.742-0.56
		c-5.252-3.756-10.911-6.954-16.821-9.506c-1.521-0.657-2.222-2.422-1.564-3.944s2.425-2.219,3.943-1.565
		c6.301,2.721,12.334,6.13,17.933,10.134c1.348,0.964,1.659,2.838,0.695,4.186C153.402,23.041,152.48,23.477,151.545,23.477z
		 M47.611,19.974c-1.008,0-1.994-0.491-2.559-1.399c-0.873-1.408-0.483-3.231,0.925-4.104l0.085-0.053
		c1.406-0.875,3.256-0.441,4.131,0.967c0.874,1.408,0.441,3.257-0.967,4.131C48.727,19.825,48.166,19.974,47.611,19.974z
		 M56.412,15.176c-1.118,0-2.192-0.628-2.707-1.704c-0.717-1.495-0.085-3.286,1.409-4.002c6.2-2.97,12.734-5.28,19.421-6.864
		c1.608-0.379,3.229,0.615,3.61,2.228c0.382,1.612-0.615,3.229-2.228,3.611c-6.27,1.485-12.397,3.65-18.212,6.436
		C57.288,15.082,56.847,15.176,56.412,15.176z M124.796,10.193c-0.311,0-0.626-0.048-0.937-0.15c-1.585-0.48-2.496-2.16-2.016-3.746
		c0.48-1.586,2.138-2.486,3.726-2.006l0.161,0.05c1.574,0.517,2.432,2.211,1.915,3.786C127.23,9.391,126.057,10.193,124.796,10.193z
		 M115.007,7.732c-0.189,0-0.382-0.018-0.576-0.056c-6.295-1.225-12.817-1.778-19.251-1.659c-1.667,0.017-3.025-1.286-3.057-2.942
		c-0.032-1.657,1.285-3.025,2.941-3.057c6.852-0.133,13.802,0.463,20.513,1.769c1.626,0.316,2.688,1.892,2.371,3.518
		C117.67,6.737,116.414,7.732,115.007,7.732z M85.109,6.739c-1.485,0-2.797-1.095-2.997-2.603c-0.217-1.643,0.91-3.147,2.553-3.364
		l0.143-0.018c1.643-0.196,3.137,0.983,3.33,2.629s-0.983,3.136-2.629,3.33C85.375,6.731,85.241,6.739,85.109,6.739z"/>
</g>
<g>
	<path class="st0" d="M68.408,52.246c-0.726,0-1.088-0.362-1.088-1.088c0-0.96-0.268-1.744-0.801-2.352
		c-0.533-0.608-1.279-0.912-2.239-0.912c-0.448,0-0.87,0.063-1.265,0.191s-0.746,0.342-1.056,0.641s-0.55,0.698-0.72,1.199
		c-0.172,0.502-0.256,1.126-0.256,1.872v8.32c0,0.747,0.084,1.371,0.256,1.872c0.17,0.502,0.404,0.901,0.703,1.2
		s0.646,0.512,1.041,0.64c0.395,0.128,0.816,0.192,1.264,0.192c0.448,0,0.869-0.064,1.264-0.192s0.741-0.341,1.041-0.64
		c0.298-0.299,0.532-0.698,0.703-1.2c0.171-0.501,0.256-1.125,0.256-1.872v-0.992h-1.728c-0.812,0-1.216-0.404-1.216-1.216v-1.056
		c0-0.811,0.404-1.216,1.216-1.216h4.192c0.811,0,1.215,0.405,1.215,1.216v3.647c0,1.174-0.176,2.197-0.527,3.072
		s-0.838,1.605-1.456,2.192c-0.619,0.587-1.354,1.023-2.208,1.312s-1.771,0.432-2.752,0.432c-1.003,0-1.926-0.144-2.768-0.432
		c-0.844-0.288-1.574-0.725-2.192-1.312c-0.619-0.587-1.104-1.317-1.456-2.192s-0.527-1.898-0.527-3.072v-9.088
		c0-1.173,0.176-2.197,0.527-3.072c0.352-0.874,0.837-1.604,1.456-2.191c0.618-0.587,1.349-1.024,2.192-1.312
		c0.842-0.288,1.765-0.432,2.768-0.432c0.98,0,1.889,0.16,2.721,0.479c0.832,0.32,1.546,0.769,2.143,1.345
		c0.598,0.576,1.062,1.264,1.393,2.063c0.33,0.8,0.496,1.681,0.496,2.641v0.096c0,0.811-0.405,1.216-1.216,1.216H68.408z"/>
	<path class="st0" d="M85.752,61.847c0,0.96-0.145,1.797-0.432,2.512c-0.289,0.715-0.678,1.302-1.168,1.76
		c-0.492,0.459-1.084,0.806-1.777,1.04s-1.434,0.352-2.223,0.352c-0.812,0-1.559-0.117-2.24-0.352
		c-0.684-0.234-1.27-0.581-1.76-1.04c-0.492-0.458-0.881-1.045-1.168-1.76c-0.289-0.715-0.433-1.552-0.433-2.512v-6.24
		c0-0.938,0.144-1.766,0.433-2.48c0.287-0.714,0.676-1.307,1.168-1.775c0.49-0.47,1.076-0.821,1.76-1.057
		c0.682-0.234,1.429-0.352,2.24-0.352c0.789,0,1.529,0.117,2.223,0.352c0.693,0.235,1.285,0.587,1.777,1.057
		c0.49,0.469,0.879,1.062,1.168,1.775c0.287,0.715,0.432,1.542,0.432,2.48V61.847z M82.296,55.83c0-1.023-0.208-1.723-0.624-2.096
		s-0.924-0.561-1.52-0.561c-0.598,0-1.104,0.188-1.521,0.561s-0.624,1.072-0.624,2.096v5.792c0,1.024,0.208,1.723,0.624,2.096
		c0.416,0.374,0.923,0.561,1.521,0.561c0.596,0,1.104-0.187,1.52-0.561c0.416-0.373,0.624-1.071,0.624-2.096V55.83z"/>
	<path class="st0" d="M95.896,67.158c-0.319,0.064-0.613,0.101-0.88,0.112c-0.268,0.01-0.518,0.016-0.752,0.016
		c-1.536,0-2.709-0.356-3.52-1.072c-0.812-0.714-1.217-1.936-1.217-3.664V47.318c0-0.769,0.385-1.152,1.152-1.152h1.152
		c0.768,0,1.151,0.384,1.151,1.152v2.976h2.752c0.769,0,1.152,0.384,1.152,1.152v0.928c0,0.769-0.384,1.152-1.152,1.152h-2.752
		v8.768c0,0.662,0.128,1.12,0.384,1.376s0.715,0.385,1.377,0.385c0.276,0,0.607-0.032,0.991-0.097
		c0.384-0.063,0.673,0.011,0.864,0.225c0.191,0.213,0.288,0.512,0.288,0.896v0.928c0,0.385-0.091,0.656-0.272,0.816
		S96.193,67.094,95.896,67.158z"/>
	<path class="st0" d="M107.223,45.91c0-0.768,0.384-1.152,1.152-1.152h1.152c0.768,0,1.151,0.385,1.151,1.152v1.088
		c0,0.769-0.384,1.152-1.151,1.152h-1.152c-0.769,0-1.152-0.384-1.152-1.152V45.91z M107.223,51.446
		c0-0.769,0.384-1.152,1.152-1.152h1.152c0.768,0,1.151,0.384,1.151,1.152v14.56c0,0.769-0.384,1.152-1.151,1.152h-1.152
		c-0.769,0-1.152-0.384-1.152-1.152V51.446z"/>
	<path class="st0" d="M121.303,67.158c-0.32,0.064-0.613,0.101-0.881,0.112c-0.267,0.01-0.518,0.016-0.752,0.016
		c-1.535,0-2.709-0.356-3.52-1.072c-0.811-0.714-1.217-1.936-1.217-3.664V47.318c0-0.769,0.385-1.152,1.152-1.152h1.152
		c0.768,0,1.152,0.384,1.152,1.152v2.976h2.752c0.768,0,1.152,0.384,1.152,1.152v0.928c0,0.769-0.385,1.152-1.152,1.152h-2.752
		v8.768c0,0.662,0.127,1.12,0.384,1.376c0.256,0.256,0.714,0.385,1.376,0.385c0.277,0,0.607-0.032,0.992-0.097
		c0.384-0.063,0.672,0.011,0.863,0.225c0.192,0.213,0.289,0.512,0.289,0.896v0.928c0,0.385-0.092,0.656-0.272,0.816
		C121.841,66.983,121.601,67.094,121.303,67.158z"/>
	<path class="st0" d="M127.51,49.91c0,0.661-0.384,0.992-1.152,0.992h-1.151c-0.769,0-1.152-0.384-1.152-1.152
		c0-0.789,0.128-1.509,0.384-2.16c0.256-0.65,0.629-1.21,1.121-1.68c0.49-0.469,1.076-0.837,1.76-1.104
		c0.682-0.267,1.461-0.4,2.336-0.4c0.789,0,1.53,0.117,2.224,0.352c0.692,0.235,1.285,0.587,1.776,1.057
		c0.49,0.47,0.879,1.062,1.168,1.775c0.287,0.716,0.432,1.542,0.432,2.48v0.191c0,0.875-0.123,1.622-0.368,2.24
		c-0.245,0.619-0.55,1.168-0.912,1.648c-0.362,0.479-0.763,0.912-1.2,1.296s-0.837,0.784-1.199,1.2
		c-0.363,0.416-0.668,0.863-0.912,1.344c-0.246,0.479-0.368,1.051-0.368,1.712v0.096c0,0.769-0.384,1.152-1.151,1.152h-0.832
		c-0.769,0-1.152-0.384-1.152-1.152v-0.063c0-0.917,0.111-1.712,0.336-2.384c0.224-0.673,0.512-1.265,0.863-1.776
		c0.353-0.512,0.726-0.971,1.121-1.376c0.395-0.405,0.768-0.805,1.119-1.2c0.352-0.395,0.641-0.805,0.864-1.231
		s0.336-0.917,0.336-1.473v-0.096c0-0.981-0.208-1.653-0.624-2.016c-0.416-0.363-0.923-0.544-1.52-0.544
		c-0.769,0-1.318,0.224-1.648,0.672C127.675,48.758,127.51,49.292,127.51,49.91z M130.806,66.006c0,0.769-0.384,1.152-1.151,1.152
		h-1.856c-0.769,0-1.151-0.384-1.151-1.152v-1.888c0-0.768,0.383-1.152,1.151-1.152h1.856c0.768,0,1.151,0.385,1.151,1.152V66.006z"
		/>
	<path class="st0" d="M30.729,89.67c0.811,0,1.216,0.406,1.216,1.216v0.097c0,0.96-0.166,1.84-0.496,2.64
		c-0.331,0.8-0.795,1.488-1.393,2.064c-0.597,0.575-1.311,1.023-2.143,1.344s-1.74,0.479-2.721,0.479
		c-1.003,0-1.926-0.144-2.768-0.432c-0.844-0.288-1.574-0.725-2.192-1.312c-0.619-0.587-1.104-1.317-1.456-2.192
		s-0.527-1.898-0.527-3.072v-9.088c0-1.173,0.176-2.197,0.527-3.072c0.352-0.874,0.837-1.604,1.456-2.191
		c0.618-0.587,1.349-1.024,2.192-1.312c0.842-0.288,1.765-0.432,2.768-0.432c0.98,0,1.889,0.16,2.721,0.479
		c0.832,0.32,1.546,0.769,2.143,1.345c0.598,0.576,1.062,1.264,1.393,2.063c0.33,0.8,0.496,1.681,0.496,2.641v0.096
		c0,0.811-0.405,1.216-1.216,1.216h-1.376c-0.726,0-1.088-0.362-1.088-1.088c0-0.96-0.268-1.744-0.801-2.352
		c-0.533-0.608-1.279-0.912-2.239-0.912c-0.448,0-0.87,0.063-1.265,0.191s-0.746,0.342-1.056,0.641s-0.55,0.698-0.72,1.199
		c-0.172,0.502-0.256,1.126-0.256,1.872v8.32c0,0.747,0.084,1.371,0.256,1.872c0.17,0.502,0.41,0.901,0.72,1.2
		s0.661,0.512,1.056,0.64s0.816,0.192,1.265,0.192c0.96,0,1.706-0.305,2.239-0.912c0.533-0.608,0.801-1.393,0.801-2.353
		c0-0.725,0.362-1.088,1.088-1.088H30.729z"/>
	<path class="st0" d="M40.297,94.055c0.17,0,0.314-0.006,0.432-0.017s0.272-0.037,0.465-0.08c0.384-0.063,0.672,0.011,0.863,0.225
		c0.192,0.213,0.288,0.512,0.288,0.896v0.928c0,0.385-0.091,0.656-0.272,0.816c-0.181,0.16-0.432,0.271-0.752,0.336
		c-0.299,0.064-0.581,0.101-0.848,0.112c-0.267,0.01-0.518,0.016-0.752,0.016c-0.619,0-1.179-0.075-1.68-0.224
		c-0.502-0.149-0.934-0.395-1.296-0.736c-0.363-0.341-0.64-0.795-0.832-1.36c-0.192-0.564-0.288-1.253-0.288-2.063V75.59
		c0-0.768,0.384-1.151,1.152-1.151h1.151c0.769,0,1.152,0.384,1.152,1.151v17.057c0,0.555,0.128,0.928,0.384,1.12
		C39.721,93.958,39.998,94.055,40.297,94.055z"/>
	<path class="st0" d="M45,75.91c0-0.768,0.385-1.152,1.152-1.152h1.152c0.768,0,1.152,0.385,1.152,1.152v1.088
		c0,0.769-0.385,1.152-1.152,1.152h-1.152c-0.768,0-1.152-0.384-1.152-1.152V75.91z M45,81.446c0-0.769,0.385-1.152,1.152-1.152
		h1.152c0.768,0,1.152,0.384,1.152,1.152v14.56c0,0.769-0.385,1.152-1.152,1.152h-1.152c-0.768,0-1.152-0.384-1.152-1.152V81.446z"
		/>
	<path class="st0" d="M55.848,91.622c0,1.024,0.209,1.723,0.625,2.096c0.416,0.374,0.922,0.561,1.52,0.561
		c0.618,0,1.104-0.192,1.456-0.576s0.528-0.896,0.528-1.536c0-0.661,0.33-0.992,0.992-0.992h1.312c0.768,0,1.151,0.385,1.151,1.152
		c0,0.789-0.133,1.504-0.399,2.144c-0.267,0.641-0.64,1.185-1.12,1.633c-0.48,0.447-1.057,0.795-1.729,1.04
		c-0.672,0.244-1.402,0.367-2.191,0.367c-0.811,0-1.558-0.117-2.24-0.352c-0.684-0.234-1.27-0.587-1.76-1.056
		c-0.491-0.47-0.88-1.062-1.168-1.776s-0.432-1.541-0.432-2.479v-6.24c0-0.938,0.144-1.766,0.432-2.48
		c0.288-0.714,0.677-1.307,1.168-1.775c0.49-0.47,1.076-0.821,1.76-1.057c0.683-0.234,1.43-0.352,2.24-0.352
		c0.789,0,1.52,0.123,2.191,0.368s1.248,0.592,1.729,1.04c0.48,0.447,0.854,0.991,1.12,1.632c0.267,0.64,0.399,1.354,0.399,2.144
		c0,0.769-0.384,1.152-1.151,1.152h-1.312c-0.662,0-0.992-0.331-0.992-0.992c0-0.64-0.176-1.152-0.528-1.536
		s-0.838-0.576-1.456-0.576c-0.598,0-1.104,0.188-1.52,0.561s-0.625,1.072-0.625,2.096V91.622z"/>
	<path class="st0" d="M71.912,89.99l-1.377,1.792v4.224c0,0.769-0.384,1.152-1.151,1.152h-1.152c-0.769,0-1.151-0.384-1.151-1.152
		V75.559c0-0.769,0.383-1.152,1.151-1.152h1.152c0.768,0,1.151,0.384,1.151,1.152v11.647l4.096-6.048
		c0.193-0.299,0.4-0.517,0.625-0.656c0.224-0.139,0.549-0.208,0.976-0.208h1.632c0.405,0,0.656,0.149,0.752,0.448
		s0.037,0.576-0.176,0.832l-4.32,5.536l4.48,8.8c0.17,0.299,0.191,0.582,0.064,0.848c-0.129,0.268-0.385,0.4-0.769,0.4h-1.472
		c-0.428,0-0.742-0.069-0.944-0.208c-0.203-0.139-0.379-0.357-0.528-0.656L71.912,89.99z"/>
	<path class="st0" d="M107.303,96.006c0,0.769-0.384,1.152-1.152,1.152h-1.151c-0.769,0-1.151-0.384-1.151-1.152V85.67
		c0-0.96-0.198-1.615-0.593-1.968c-0.396-0.352-0.87-0.528-1.424-0.528c-0.556,0-1.03,0.177-1.425,0.528
		c-0.395,0.353-0.592,1.008-0.592,1.968v10.336c0,0.769-0.383,1.152-1.151,1.152h-1.152c-0.768,0-1.151-0.384-1.151-1.152V85.67
		c0-0.96-0.197-1.615-0.592-1.968c-0.396-0.352-0.87-0.528-1.425-0.528s-1.029,0.177-1.424,0.528
		c-0.396,0.353-0.592,1.008-0.592,1.968v10.336c0,0.769-0.384,1.152-1.152,1.152h-1.151c-0.769,0-1.152-0.384-1.152-1.152V85.03
		c0-0.854,0.128-1.595,0.384-2.224c0.256-0.63,0.608-1.157,1.056-1.584c0.448-0.427,0.977-0.747,1.584-0.961
		c0.608-0.213,1.275-0.319,2-0.319c0.961,0,1.797,0.208,2.512,0.624s1.275,1.008,1.681,1.775c0.405-0.768,0.965-1.359,1.681-1.775
		c0.714-0.416,1.551-0.624,2.512-0.624c0.725,0,1.392,0.106,2,0.319c0.607,0.214,1.136,0.534,1.584,0.961
		c0.447,0.427,0.8,0.954,1.056,1.584c0.256,0.629,0.384,1.37,0.384,2.224V96.006z"/>
	<path class="st0" d="M118.631,92.486c0-0.661,0.33-0.992,0.992-0.992h1.312c0.768,0,1.151,0.384,1.151,1.152
		c0,1.451-0.496,2.624-1.488,3.52c-0.991,0.896-2.31,1.344-3.952,1.344c-0.811,0-1.557-0.117-2.24-0.352
		c-0.683-0.234-1.27-0.587-1.76-1.056c-0.49-0.47-0.879-1.062-1.168-1.776c-0.287-0.715-0.432-1.541-0.432-2.479v-6.24
		c0-0.938,0.145-1.766,0.432-2.48c0.289-0.714,0.678-1.307,1.168-1.775c0.49-0.47,1.077-0.821,1.76-1.057
		c0.684-0.234,1.43-0.352,2.24-0.352c0.789,0,1.531,0.117,2.225,0.352c0.693,0.235,1.285,0.587,1.775,1.057
		c0.49,0.469,0.881,1.062,1.168,1.775c0.289,0.715,0.433,1.542,0.433,2.48v2.72c0,0.768-0.384,1.152-1.152,1.152h-6.592v2.144
		c0,1.024,0.208,1.723,0.624,2.096c0.416,0.374,0.922,0.561,1.52,0.561c0.619,0,1.104-0.16,1.457-0.48
		C118.455,93.479,118.631,93.041,118.631,92.486z M114.503,86.886h4.288V85.83c0-1.023-0.208-1.723-0.624-2.096
		s-0.923-0.561-1.521-0.561s-1.104,0.188-1.52,0.561s-0.624,1.072-0.624,2.096V86.886z"/>
	<path class="st0" d="M143.686,91.847c0,0.938-0.144,1.765-0.432,2.479s-0.678,1.307-1.168,1.776
		c-0.491,0.469-1.083,0.821-1.775,1.056c-0.694,0.234-1.436,0.352-2.225,0.352c-0.811,0-1.558-0.117-2.24-0.352
		s-1.275-0.565-1.775-0.992c-0.502-0.427-0.892-0.954-1.168-1.584c-0.277-0.629-0.416-1.349-0.416-2.16v-0.063
		c0-1.601,0.479-2.849,1.439-3.744c0.96-0.896,2.347-1.344,4.16-1.344h2.145v-1.44c0-1.023-0.209-1.723-0.625-2.096
		s-0.922-0.561-1.52-0.561c-0.619,0-1.078,0.166-1.376,0.496c-0.299,0.331-0.448,0.731-0.448,1.2c0,0.661-0.331,0.992-0.992,0.992
		h-1.312c-0.769,0-1.152-0.384-1.152-1.152c0-0.683,0.122-1.312,0.368-1.888c0.245-0.576,0.598-1.077,1.057-1.504
		c0.458-0.427,1.012-0.763,1.664-1.008c0.65-0.245,1.381-0.368,2.191-0.368c0.789,0,1.53,0.117,2.225,0.352
		c0.692,0.235,1.284,0.587,1.775,1.057c0.49,0.469,0.88,1.062,1.168,1.775c0.288,0.715,0.432,1.542,0.432,2.48V91.847z
		 M138.086,94.278c0.598,0,1.104-0.187,1.52-0.561c0.416-0.373,0.625-1.071,0.625-2.096v-1.76h-2.145
		c-0.598,0-1.104,0.165-1.52,0.496s-0.625,0.901-0.625,1.712s0.209,1.382,0.625,1.712C136.982,94.113,137.488,94.278,138.086,94.278
		z"/>
	<path class="st0" d="M157.478,97.158h-1.151c-0.769,0-1.152-0.384-1.152-1.152V85.83c0-1.023-0.209-1.723-0.624-2.096
		c-0.416-0.373-0.923-0.561-1.521-0.561s-1.104,0.188-1.52,0.561s-0.624,1.072-0.624,2.096v10.176c0,0.769-0.384,1.152-1.152,1.152
		h-1.151c-0.769,0-1.152-0.384-1.152-1.152V85.607c0-0.938,0.145-1.766,0.432-2.48c0.288-0.714,0.678-1.307,1.168-1.775
		c0.49-0.47,1.077-0.821,1.76-1.057c0.684-0.234,1.43-0.352,2.24-0.352c0.789,0,1.531,0.117,2.225,0.352
		c0.693,0.235,1.285,0.587,1.775,1.057c0.49,0.469,0.881,1.062,1.168,1.775c0.288,0.715,0.432,1.542,0.432,2.48v10.399
		C158.629,96.775,158.246,97.158,157.478,97.158z"/>
	<path class="st0" d="M162.373,85.223c0-1.792,0.433-3.12,1.297-3.984c0.863-0.864,1.957-1.296,3.279-1.296
		c0.641,0,1.232,0.106,1.776,0.319c0.544,0.214,1.008,0.556,1.392,1.024V75.59c0-0.768,0.385-1.151,1.152-1.151h1.152
		c0.768,0,1.152,0.384,1.152,1.151v16.257c0,0.96-0.145,1.797-0.433,2.512s-0.678,1.302-1.168,1.76
		c-0.491,0.459-1.083,0.806-1.776,1.04s-1.435,0.352-2.224,0.352c-0.812,0-1.558-0.117-2.24-0.352s-1.27-0.581-1.76-1.04
		c-0.491-0.458-0.88-1.045-1.168-1.76s-0.433-1.552-0.433-2.512V85.223z M165.83,91.622c0,1.024,0.207,1.723,0.623,2.096
		c0.416,0.374,0.923,0.561,1.521,0.561c0.597,0,1.104-0.187,1.521-0.561c0.416-0.373,0.623-1.071,0.623-2.096V85.83
		c0-1.023-0.207-1.723-0.623-2.096s-0.924-0.561-1.521-0.561c-0.598,0-1.104,0.188-1.521,0.561s-0.623,1.072-0.623,2.096V91.622z"/>
	<path class="st0" d="M51.256,124.055c0.171,0,0.314-0.006,0.433-0.017c0.116-0.011,0.272-0.037,0.464-0.08
		c0.385-0.063,0.672,0.011,0.864,0.225c0.192,0.213,0.288,0.512,0.288,0.896v0.928c0,0.385-0.092,0.656-0.272,0.816
		s-0.432,0.271-0.752,0.336c-0.299,0.064-0.581,0.101-0.848,0.112c-0.267,0.01-0.518,0.016-0.753,0.016
		c-0.618,0-1.178-0.075-1.68-0.224c-0.501-0.149-0.934-0.395-1.295-0.736c-0.363-0.341-0.641-0.795-0.832-1.36
		c-0.193-0.564-0.289-1.253-0.289-2.063V105.59c0-0.768,0.385-1.151,1.152-1.151h1.152c0.768,0,1.152,0.384,1.152,1.151v17.057
		c0,0.555,0.127,0.928,0.383,1.12C50.68,123.958,50.957,124.055,51.256,124.055z"/>
	<path class="st0" d="M63.064,122.486c0-0.661,0.33-0.992,0.992-0.992h1.312c0.768,0,1.151,0.384,1.151,1.152
		c0,1.451-0.496,2.624-1.488,3.52c-0.991,0.896-2.309,1.344-3.951,1.344c-0.811,0-1.558-0.117-2.24-0.352
		c-0.684-0.234-1.27-0.587-1.76-1.056c-0.491-0.47-0.88-1.062-1.168-1.776s-0.432-1.541-0.432-2.479v-6.24
		c0-0.938,0.144-1.766,0.432-2.48c0.288-0.714,0.677-1.307,1.168-1.775c0.49-0.47,1.076-0.821,1.76-1.057
		c0.683-0.234,1.43-0.352,2.24-0.352c0.789,0,1.53,0.117,2.224,0.352c0.693,0.235,1.285,0.587,1.776,1.057
		c0.49,0.469,0.88,1.062,1.168,1.775c0.288,0.715,0.432,1.542,0.432,2.48v2.72c0,0.768-0.384,1.152-1.152,1.152h-6.592v2.144
		c0,1.024,0.209,1.723,0.625,2.096c0.416,0.374,0.922,0.561,1.52,0.561c0.618,0,1.104-0.16,1.456-0.48
		C62.889,123.479,63.064,123.041,63.064,122.486z M58.936,116.886h4.289v-1.056c0-1.023-0.209-1.723-0.625-2.096
		s-0.923-0.561-1.52-0.561c-0.598,0-1.104,0.188-1.52,0.561s-0.625,1.072-0.625,2.096V116.886z"/>
	<path class="st0" d="M76.791,127.158c-0.319,0.064-0.613,0.101-0.879,0.112c-0.268,0.01-0.518,0.016-0.752,0.016
		c-1.537,0-2.71-0.356-3.521-1.072c-0.812-0.714-1.216-1.936-1.216-3.664v-15.231c0-0.769,0.384-1.152,1.152-1.152h1.151
		c0.769,0,1.151,0.384,1.151,1.152v2.976h2.752c0.769,0,1.152,0.384,1.152,1.152v0.928c0,0.769-0.384,1.152-1.152,1.152h-2.752
		v8.768c0,0.662,0.129,1.12,0.385,1.376s0.715,0.385,1.376,0.385c0.276,0,0.608-0.032,0.991-0.097
		c0.385-0.063,0.673,0.011,0.865,0.225c0.191,0.213,0.287,0.512,0.287,0.896v0.928c0,0.385-0.091,0.656-0.271,0.816
		C77.33,126.983,77.09,127.094,76.791,127.158z"/>
	<path class="st0" d="M82.52,112.278c-0.064,0.214-0.176,0.395-0.336,0.544s-0.391,0.224-0.688,0.224h-0.832
		c-0.235,0-0.433-0.068-0.592-0.208c-0.16-0.139-0.22-0.356-0.177-0.655l1.024-6.272c0.128-0.768,0.565-1.152,1.312-1.152h1.473
		c0.341,0,0.598,0.112,0.768,0.336c0.171,0.225,0.182,0.55,0.032,0.977L82.52,112.278z"/>
	<path class="st0" d="M95.191,114.647c0-0.47-0.16-0.832-0.48-1.088c-0.32-0.257-0.758-0.385-1.312-0.385s-0.992,0.128-1.312,0.385
		c-0.32,0.256-0.479,0.661-0.479,1.216v0.063c0,0.556,0.18,0.992,0.543,1.312c0.363,0.319,0.811,0.603,1.344,0.848
		c0.533,0.246,1.121,0.491,1.761,0.736s1.227,0.565,1.76,0.96s0.981,0.907,1.345,1.536c0.361,0.629,0.543,1.456,0.543,2.479
		c0,0.769-0.139,1.451-0.416,2.048c-0.277,0.598-0.656,1.1-1.136,1.504c-0.479,0.406-1.056,0.716-1.728,0.929
		s-1.403,0.319-2.192,0.319c-0.812,0-1.547-0.117-2.208-0.352s-1.232-0.549-1.712-0.944c-0.479-0.395-0.854-0.869-1.12-1.424
		s-0.4-1.151-0.4-1.792v-0.191c0-0.769,0.385-1.152,1.152-1.152h1.312c0.66,0,0.992,0.331,0.992,0.992
		c0,0.555,0.181,0.965,0.543,1.231c0.363,0.268,0.844,0.4,1.44,0.4s1.083-0.128,1.456-0.384s0.561-0.693,0.561-1.312v-0.063
		c0-0.555-0.182-0.987-0.545-1.296c-0.363-0.31-0.811-0.581-1.344-0.816c-0.533-0.234-1.119-0.469-1.76-0.704
		c-0.641-0.234-1.227-0.549-1.76-0.944c-0.533-0.395-0.982-0.9-1.344-1.52c-0.363-0.618-0.545-1.44-0.545-2.464
		c0-1.536,0.485-2.726,1.457-3.568c0.97-0.843,2.234-1.264,3.791-1.264c0.789,0,1.504,0.117,2.145,0.352
		c0.64,0.235,1.189,0.561,1.648,0.977c0.458,0.416,0.815,0.896,1.071,1.439s0.384,1.137,0.384,1.776
		c0,0.768-0.384,1.152-1.152,1.152h-1.312C95.521,115.639,95.191,115.308,95.191,114.647z"/>
	<path class="st0" d="M116.887,124.502c-0.748,0.896-1.803,1.345-3.168,1.345c-1.323,0-2.416-0.433-3.28-1.297
		c-0.864-0.863-1.296-2.191-1.296-3.983v-4.96c0-0.938,0.144-1.766,0.432-2.48c0.288-0.714,0.678-1.307,1.168-1.775
		c0.49-0.47,1.077-0.821,1.76-1.057c0.683-0.234,1.43-0.352,2.24-0.352c0.789,0,1.531,0.117,2.225,0.352
		c0.692,0.235,1.285,0.587,1.775,1.057c0.49,0.469,0.88,1.062,1.168,1.775c0.288,0.715,0.432,1.542,0.432,2.48v11.808
		c0,0.938-0.144,1.755-0.432,2.448s-0.678,1.264-1.168,1.712s-1.083,0.784-1.775,1.008c-0.693,0.225-1.436,0.336-2.225,0.336
		c-0.854,0-1.615-0.123-2.288-0.368c-0.672-0.245-1.243-0.575-1.712-0.991s-0.826-0.902-1.072-1.456
		c-0.245-0.556-0.367-1.152-0.367-1.792c0-0.769,0.384-1.152,1.151-1.152h1.312c0.662,0,0.992,0.33,0.992,0.992
		c0,0.469,0.16,0.869,0.48,1.2c0.32,0.33,0.82,0.496,1.504,0.496c0.598,0,1.104-0.16,1.52-0.48s0.625-0.992,0.625-2.016V124.502z
		 M116.887,115.83c0-1.023-0.209-1.723-0.625-2.096s-0.922-0.561-1.52-0.561s-1.104,0.188-1.52,0.561s-0.625,1.072-0.625,2.096
		v4.128c0,1.024,0.209,1.724,0.625,2.097s0.922,0.56,1.52,0.56s1.104-0.187,1.52-0.56s0.625-1.072,0.625-2.097V115.83z"/>
	<path class="st0" d="M131.67,122.486c0-0.661,0.33-0.992,0.992-0.992h1.312c0.768,0,1.151,0.384,1.151,1.152
		c0,1.451-0.496,2.624-1.488,3.52c-0.991,0.896-2.31,1.344-3.952,1.344c-0.811,0-1.557-0.117-2.24-0.352
		c-0.683-0.234-1.27-0.587-1.76-1.056c-0.49-0.47-0.879-1.062-1.168-1.776c-0.287-0.715-0.432-1.541-0.432-2.479v-6.24
		c0-0.938,0.145-1.766,0.432-2.48c0.289-0.714,0.678-1.307,1.168-1.775c0.49-0.47,1.077-0.821,1.76-1.057
		c0.684-0.234,1.43-0.352,2.24-0.352c0.789,0,1.531,0.117,2.225,0.352c0.693,0.235,1.285,0.587,1.775,1.057
		c0.49,0.469,0.881,1.062,1.168,1.775c0.289,0.715,0.433,1.542,0.433,2.48v2.72c0,0.768-0.384,1.152-1.152,1.152h-6.592v2.144
		c0,1.024,0.208,1.723,0.624,2.096c0.416,0.374,0.922,0.561,1.52,0.561c0.619,0,1.104-0.16,1.457-0.48
		C131.494,123.479,131.67,123.041,131.67,122.486z M127.542,116.886h4.288v-1.056c0-1.023-0.208-1.723-0.624-2.096
		s-0.923-0.561-1.521-0.561s-1.104,0.188-1.52,0.561s-0.624,1.072-0.624,2.096V116.886z"/>
	<path class="st0" d="M145.397,127.158c-0.319,0.064-0.613,0.101-0.88,0.112c-0.268,0.01-0.518,0.016-0.752,0.016
		c-1.536,0-2.709-0.356-3.52-1.072c-0.812-0.714-1.217-1.936-1.217-3.664v-15.231c0-0.769,0.385-1.152,1.152-1.152h1.152
		c0.768,0,1.151,0.384,1.151,1.152v2.976h2.752c0.769,0,1.152,0.384,1.152,1.152v0.928c0,0.769-0.384,1.152-1.152,1.152h-2.752
		v8.768c0,0.662,0.128,1.12,0.384,1.376s0.715,0.385,1.377,0.385c0.276,0,0.607-0.032,0.991-0.097
		c0.384-0.063,0.673,0.011,0.864,0.225c0.191,0.213,0.288,0.512,0.288,0.896v0.928c0,0.385-0.091,0.656-0.272,0.816
		S145.695,127.094,145.397,127.158z"/>
	<path class="st0" d="M79.128,157.158c-0.319,0.064-0.613,0.101-0.88,0.112c-0.268,0.01-0.518,0.016-0.752,0.016
		c-1.536,0-2.709-0.356-3.52-1.072c-0.812-0.714-1.217-1.936-1.217-3.664v-15.231c0-0.769,0.385-1.152,1.152-1.152h1.152
		c0.768,0,1.151,0.384,1.151,1.152v2.976h2.752c0.769,0,1.152,0.384,1.152,1.152v0.928c0,0.769-0.384,1.152-1.152,1.152h-2.752
		v8.768c0,0.662,0.128,1.12,0.384,1.376s0.715,0.385,1.377,0.385c0.276,0,0.607-0.032,0.991-0.097
		c0.384-0.063,0.673,0.011,0.864,0.225c0.191,0.213,0.288,0.512,0.288,0.896v0.928c0,0.385-0.091,0.656-0.272,0.816
		S79.426,157.094,79.128,157.158z"/>
	<path class="st0" d="M94.072,151.847c0,0.96-0.145,1.797-0.433,2.512s-0.678,1.302-1.168,1.76c-0.491,0.459-1.083,0.806-1.776,1.04
		s-1.435,0.352-2.224,0.352c-0.812,0-1.558-0.117-2.24-0.352s-1.27-0.581-1.76-1.04c-0.491-0.458-0.88-1.045-1.168-1.76
		s-0.433-1.552-0.433-2.512v-6.24c0-0.938,0.145-1.766,0.433-2.48c0.288-0.714,0.677-1.307,1.168-1.775
		c0.49-0.47,1.077-0.821,1.76-1.057c0.683-0.234,1.429-0.352,2.24-0.352c0.789,0,1.53,0.117,2.224,0.352
		c0.693,0.235,1.285,0.587,1.776,1.057c0.49,0.469,0.88,1.062,1.168,1.775c0.288,0.715,0.433,1.542,0.433,2.48V151.847z
		 M90.615,145.83c0-1.023-0.207-1.723-0.623-2.096s-0.924-0.561-1.521-0.561c-0.598,0-1.104,0.188-1.521,0.561
		s-0.623,1.072-0.623,2.096v5.792c0,1.024,0.207,1.723,0.623,2.096c0.416,0.374,0.923,0.561,1.521,0.561
		c0.597,0,1.104-0.187,1.521-0.561c0.416-0.373,0.623-1.071,0.623-2.096V145.83z"/>
	<path class="st0" d="M105.111,135.91c0-0.768,0.383-1.152,1.151-1.152h1.152c0.768,0,1.151,0.385,1.151,1.152v1.088
		c0,0.769-0.384,1.152-1.151,1.152h-1.152c-0.769,0-1.151-0.384-1.151-1.152V135.91z M105.111,141.446
		c0-0.769,0.383-1.152,1.151-1.152h1.152c0.768,0,1.151,0.384,1.151,1.152v14.56c0,0.769-0.384,1.152-1.151,1.152h-1.152
		c-0.769,0-1.151-0.384-1.151-1.152V141.446z"/>
	<path class="st0" d="M119.19,157.158c-0.319,0.064-0.613,0.101-0.88,0.112c-0.268,0.01-0.518,0.016-0.752,0.016
		c-1.536,0-2.709-0.356-3.52-1.072c-0.812-0.714-1.217-1.936-1.217-3.664v-15.231c0-0.769,0.385-1.152,1.152-1.152h1.152
		c0.768,0,1.151,0.384,1.151,1.152v2.976h2.752c0.769,0,1.152,0.384,1.152,1.152v0.928c0,0.769-0.384,1.152-1.152,1.152h-2.752
		v8.768c0,0.662,0.128,1.12,0.384,1.376s0.715,0.385,1.377,0.385c0.276,0,0.607-0.032,0.991-0.097
		c0.384-0.063,0.673,0.011,0.864,0.225c0.191,0.213,0.288,0.512,0.288,0.896v0.928c0,0.385-0.091,0.656-0.272,0.816
		S119.488,157.094,119.19,157.158z"/>
</g>
<g>
	<path class="st0" d="M267.548,225.617c-0.531,0-1.068-0.141-1.556-0.437l-0.086-0.052c-1.416-0.861-1.865-2.706-1.005-4.122
		c0.861-1.416,2.707-1.864,4.122-1.005l0.086,0.052c1.416,0.861,1.865,2.706,1.005,4.122
		C269.55,225.104,268.561,225.617,267.548,225.617z M258.923,220.36c-0.532,0-1.071-0.142-1.559-0.439l-17.077-10.409
		c-1.415-0.862-1.862-2.708-1-4.123c0.863-1.416,2.709-1.863,4.123-1l17.077,10.409c1.415,0.862,1.862,2.708,1,4.123
		C260.922,219.848,259.935,220.36,258.923,220.36z M233.307,204.746c-0.532,0-1.07-0.142-1.558-0.438
		c-1.415-0.862-1.906-2.734-1.044-4.148c0.861-1.415,2.663-1.891,4.08-1.027l0.085,0.052c1.415,0.862,1.863,2.708,1.002,4.123
		C235.307,204.234,234.318,204.746,233.307,204.746z M224.683,199.489c-0.532,0-1.071-0.142-1.559-0.439l-17.078-10.41
		c-1.415-0.862-1.862-2.708-1-4.123s2.708-1.863,4.123-1l17.078,10.41c1.415,0.862,1.862,2.708,1,4.123
		C226.682,198.978,225.694,199.489,224.683,199.489z M199.066,183.875c-0.527,0-1.061-0.139-1.545-0.431l-0.086-0.052
		c-1.419-0.855-1.877-2.698-1.022-4.118c0.855-1.42,2.698-1.877,4.118-1.022l0.086,0.052c1.419,0.855,1.877,2.698,1.022,4.118
		C201.076,183.358,200.084,183.875,199.066,183.875z M190.441,178.618c-0.532,0-1.071-0.142-1.559-0.439l-17.077-10.409
		c-1.415-0.862-1.862-2.708-1-4.123c0.862-1.416,2.708-1.863,4.123-1l17.077,10.409c1.415,0.862,1.862,2.708,1,4.123
		C192.44,178.107,191.453,178.618,190.441,178.618z"/>
</g>
</svg>