<!-- Generator: Adobe Illustrator 21.0.0, SVG Export Plug-In  -->
<svg version="1.1"
	 xmlns="http://www.w3.org/2000/svg" xmlns:xlink="http://www.w3.org/1999/xlink" xmlns:a="http://ns.adobe.com/AdobeSVGViewerExtensions/3.0/"
	 x="0px" y="0px" width="651.65px" height="99.667px" viewBox="0 0 651.65 99.667"
	 style="enable-background:new 0 0 651.65 99.667;" xml:space="preserve">
<style type="text/css">
	.st0{fill:#3F3F3F;}
	.st1{fill:#FF0000;}
</style>
<defs>
</defs>
<g>
	<path class="st0" d="M0,68.766c0-2.08,0.3-3.891,0.899-5.43c0.601-1.54,1.44-2.83,2.521-3.871c1.08-1.039,2.35-1.819,3.81-2.34
		c1.46-0.52,3.05-0.779,4.771-0.779c1.68,0,3.249,0.26,4.71,0.779c1.46,0.521,2.729,1.301,3.81,2.34
		c1.08,1.041,1.92,2.331,2.521,3.871c0.6,1.539,0.899,3.35,0.899,5.43v29.279c0,0.641-0.34,0.961-1.02,0.961h-0.9
		c-0.681,0-1.02-0.32-1.02-0.961v-14.16H3v14.16c0,0.641-0.36,0.961-1.08,0.961h-0.9c-0.681,0-1.02-0.32-1.02-0.961V68.766z
		 M3,81.066h18v-11.94c0-1.8-0.24-3.339-0.72-4.619c-0.48-1.28-1.131-2.311-1.95-3.09c-0.82-0.781-1.771-1.351-2.851-1.711
		c-1.08-0.359-2.24-0.539-3.479-0.539c-1.24,0-2.41,0.18-3.51,0.539c-1.101,0.36-2.051,0.93-2.851,1.711
		c-0.801,0.779-1.439,1.81-1.92,3.09C3.24,65.787,3,67.326,3,69.126V81.066z"/>
	<path class="st0" d="M36.54,70.805c0.759-1.359,1.779-2.379,3.06-3.059c1.279-0.68,2.76-1.021,4.44-1.021
		c1.279,0,2.469,0.21,3.569,0.63c1.1,0.42,2.06,1.041,2.88,1.859c0.819,0.82,1.46,1.852,1.92,3.09c0.46,1.241,0.69,2.682,0.69,4.32
		v12.961c0,1.68-0.24,3.149-0.72,4.41c-0.48,1.26-1.161,2.309-2.04,3.149c-0.881,0.84-1.911,1.47-3.09,1.89
		c-1.181,0.42-2.451,0.631-3.811,0.631c-1.4,0-2.68-0.211-3.84-0.631s-2.181-1.05-3.06-1.89c-0.881-0.841-1.561-1.89-2.04-3.149
		c-0.48-1.261-0.721-2.73-0.721-4.41V57.366c0-0.639,0.32-0.96,0.96-0.96h0.841c0.639,0,0.96,0.321,0.96,0.96V70.805z M36.54,89.406
		c0,1.401,0.18,2.591,0.54,3.57c0.359,0.98,0.859,1.771,1.5,2.37c0.639,0.6,1.369,1.041,2.189,1.32c0.819,0.279,1.71,0.42,2.67,0.42
		s1.85-0.141,2.67-0.42c0.819-0.279,1.55-0.721,2.19-1.32c0.64-0.6,1.14-1.39,1.5-2.37c0.359-0.979,0.54-2.169,0.54-3.57v-12.42
		c0-1.399-0.181-2.589-0.54-3.569c-0.36-0.98-0.86-1.771-1.5-2.371c-0.641-0.6-1.371-1.039-2.19-1.319
		c-0.82-0.28-1.71-0.421-2.67-0.421s-1.851,0.141-2.67,0.421c-0.82,0.28-1.551,0.72-2.189,1.319c-0.641,0.601-1.141,1.391-1.5,2.371
		c-0.36,0.98-0.54,2.17-0.54,3.569V89.406z"/>
	<path class="st0" d="M80.34,89.586c0,1.68-0.24,3.149-0.721,4.41c-0.479,1.26-1.16,2.309-2.04,3.149
		c-0.88,0.84-1.91,1.47-3.09,1.89s-2.45,0.631-3.81,0.631c-1.4,0-2.69-0.211-3.87-0.631c-1.181-0.42-2.2-1.05-3.06-1.89
		c-0.861-0.841-1.541-1.89-2.04-3.149c-0.501-1.261-0.75-2.73-0.75-4.41V76.805c0-1.68,0.249-3.149,0.75-4.409
		c0.499-1.261,1.179-2.31,2.04-3.149c0.859-0.841,1.879-1.471,3.06-1.891c1.18-0.42,2.47-0.63,3.87-0.63
		c1.359,0,2.63,0.21,3.81,0.63s2.21,1.05,3.09,1.891c0.88,0.84,1.561,1.889,2.04,3.149c0.48,1.26,0.721,2.729,0.721,4.409V89.586z
		 M77.579,76.986c0-1.399-0.18-2.589-0.539-3.569c-0.36-0.98-0.861-1.771-1.5-2.371c-0.641-0.6-1.371-1.039-2.19-1.319
		c-0.82-0.28-1.71-0.421-2.67-0.421s-1.86,0.141-2.7,0.421s-1.57,0.72-2.189,1.319c-0.621,0.601-1.11,1.391-1.471,2.371
		c-0.359,0.98-0.54,2.17-0.54,3.569v12.42c0,1.401,0.181,2.591,0.54,3.57c0.36,0.98,0.85,1.771,1.471,2.37
		c0.619,0.6,1.35,1.041,2.189,1.32s1.74,0.42,2.7,0.42s1.85-0.141,2.67-0.42c0.819-0.279,1.55-0.721,2.19-1.32
		c0.639-0.6,1.14-1.39,1.5-2.37c0.359-0.979,0.539-2.169,0.539-3.57V76.986z"/>
	<path class="st0" d="M89.758,67.385h0.841c0.639,0,0.96,0.321,0.96,0.961v21.06c0,1.401,0.18,2.591,0.54,3.57
		c0.359,0.98,0.859,1.771,1.5,2.37c0.639,0.6,1.369,1.041,2.189,1.32c0.819,0.279,1.71,0.42,2.67,0.42s1.86-0.141,2.7-0.42
		s1.569-0.721,2.19-1.32c0.619-0.6,1.109-1.39,1.47-2.37c0.36-0.979,0.54-2.169,0.54-3.57v-21.06c0-0.64,0.319-0.961,0.96-0.961h0.9
		c0.639,0,0.96,0.321,0.96,0.961v21.24c0,1.68-0.251,3.149-0.75,4.41c-0.501,1.26-1.181,2.309-2.04,3.149
		c-0.861,0.84-1.891,1.47-3.091,1.89c-1.199,0.42-2.48,0.631-3.84,0.631c-1.4,0-2.68-0.211-3.84-0.631s-2.181-1.05-3.06-1.89
		c-0.881-0.841-1.561-1.89-2.04-3.149c-0.48-1.261-0.721-2.73-0.721-4.41v-21.24C88.798,67.707,89.118,67.385,89.758,67.385z"/>
	<path class="st0" d="M127.919,99.006c-0.801,0.158-1.681,0.24-2.641,0.24c-2.439,0-4.36-0.561-5.76-1.681
		c-1.4-1.12-2.1-3.1-2.1-5.94v-31.02c0-0.64,0.319-0.96,0.96-0.96h0.899c0.64,0,0.96,0.32,0.96,0.96v6.779h7.62
		c0.64,0,0.96,0.321,0.96,0.961v0.66c0,0.64-0.32,0.959-0.96,0.959h-7.62v21.48c0,2.04,0.44,3.42,1.32,4.141
		c0.88,0.719,2.22,1.08,4.021,1.08c0.359,0,0.729-0.021,1.109-0.061c0.38-0.039,0.77-0.1,1.17-0.18c0.64-0.121,0.96,0.18,0.96,0.899
		v0.66C128.818,98.546,128.519,98.885,127.919,99.006z"/>
	<path class="st0" d="M146.577,58.146c-0.08-0.319-0.06-0.59,0.061-0.81s0.359-0.33,0.72-0.33h1.2c0.6,0,0.96,0.279,1.08,0.84
		l10.56,38.279l10.62-38.279c0.12-0.561,0.48-0.84,1.08-0.84h1.08c0.319,0,0.549,0.11,0.689,0.33c0.14,0.22,0.17,0.49,0.091,0.81
		l-11.101,39.42c-0.24,0.96-0.84,1.44-1.8,1.44h-1.38c-0.96,0-1.561-0.48-1.8-1.44L146.577,58.146z"/>
	<path class="st0" d="M197.697,89.586c0,1.68-0.239,3.149-0.72,4.41c-0.479,1.26-1.16,2.309-2.04,3.149
		c-0.88,0.84-1.91,1.47-3.09,1.89c-1.181,0.42-2.451,0.631-3.811,0.631c-1.28,0-2.51-0.191-3.689-0.57
		c-1.181-0.38-2.22-0.961-3.12-1.74c-0.9-0.78-1.61-1.74-2.13-2.88c-0.521-1.14-0.78-2.47-0.78-3.99v-0.3
		c0-1.52,0.26-2.85,0.78-3.99c0.52-1.141,1.22-2.1,2.1-2.88s1.91-1.359,3.09-1.74c1.18-0.38,2.431-0.569,3.75-0.569h6.9v-4.021
		c0-1.399-0.18-2.589-0.54-3.569s-0.851-1.771-1.47-2.371c-0.621-0.6-1.351-1.039-2.19-1.319s-1.739-0.421-2.7-0.421
		c-1.84,0-3.37,0.592-4.59,1.771c-1.221,1.181-1.83,2.831-1.83,4.95c0,0.6-0.3,0.9-0.899,0.9h-0.9c-0.64,0-0.96-0.32-0.96-0.961
		c0-2.84,0.859-5.09,2.58-6.75c1.72-1.658,3.92-2.489,6.6-2.489c1.359,0,2.63,0.21,3.811,0.63c1.18,0.42,2.21,1.05,3.09,1.891
		c0.88,0.84,1.561,1.889,2.04,3.149c0.48,1.26,0.72,2.729,0.72,4.409V89.586z M188.037,97.086c0.961,0,1.851-0.141,2.671-0.42
		c0.819-0.279,1.549-0.721,2.189-1.32c0.64-0.6,1.14-1.39,1.5-2.37c0.36-0.979,0.54-2.169,0.54-3.57v-5.819h-6.9
		c-1.92,0-3.55,0.561-4.89,1.68c-1.341,1.12-2.01,2.801-2.01,5.039v0.061c0,2.24,0.669,3.921,2.01,5.04
		C184.487,96.526,186.117,97.086,188.037,97.086z"/>
	<path class="st0" d="M224.577,99.006h-0.9c-0.641,0-0.96-0.32-0.96-0.961v-21.06c0-1.399-0.18-2.589-0.54-3.569
		s-0.851-1.771-1.47-2.371c-0.621-0.6-1.351-1.039-2.19-1.319s-1.74-0.421-2.7-0.421s-1.851,0.141-2.67,0.421
		c-0.82,0.28-1.551,0.72-2.189,1.319c-0.641,0.601-1.141,1.391-1.5,2.371c-0.36,0.98-0.54,2.17-0.54,3.569v21.06
		c0,0.641-0.321,0.961-0.96,0.961h-0.841c-0.64,0-0.96-0.32-0.96-0.961v-21.24c0-1.68,0.24-3.149,0.721-4.409
		c0.479-1.261,1.159-2.31,2.04-3.149c0.879-0.841,1.899-1.471,3.06-1.891s2.439-0.63,3.84-0.63c1.359,0,2.641,0.21,3.84,0.63
		c1.2,0.42,2.229,1.05,3.091,1.891c0.859,0.84,1.539,1.889,2.04,3.149c0.499,1.26,0.75,2.729,0.75,4.409v21.24
		C225.537,98.686,225.216,99.006,224.577,99.006z"/>
	<path class="st0" d="M236.757,57.006h0.9c0.68,0,1.02,0.32,1.02,0.959v18.301h18V57.965c0-0.639,0.34-0.959,1.021-0.959h0.899
		c0.721,0,1.08,0.32,1.08,0.959v40.08c0,0.641-0.359,0.961-1.08,0.961h-0.899c-0.681,0-1.021-0.32-1.021-0.961V79.086h-18v18.959
		c0,0.641-0.34,0.961-1.02,0.961h-0.9c-0.681,0-1.02-0.32-1.02-0.961v-40.08C235.737,57.327,236.076,57.006,236.757,57.006z"/>
	<path class="st0" d="M287.996,89.586c0,1.68-0.239,3.149-0.72,4.41c-0.479,1.26-1.16,2.309-2.04,3.149
		c-0.88,0.84-1.91,1.47-3.09,1.89c-1.181,0.42-2.451,0.631-3.811,0.631c-1.28,0-2.51-0.191-3.689-0.57
		c-1.181-0.38-2.22-0.961-3.12-1.74c-0.9-0.78-1.61-1.74-2.13-2.88c-0.521-1.14-0.78-2.47-0.78-3.99v-0.3
		c0-1.52,0.26-2.85,0.78-3.99c0.52-1.141,1.22-2.1,2.1-2.88s1.91-1.359,3.09-1.74c1.18-0.38,2.431-0.569,3.75-0.569h6.9v-4.021
		c0-1.399-0.18-2.589-0.54-3.569s-0.851-1.771-1.47-2.371c-0.621-0.6-1.351-1.039-2.19-1.319s-1.739-0.421-2.7-0.421
		c-1.84,0-3.37,0.592-4.59,1.771c-1.221,1.181-1.83,2.831-1.83,4.95c0,0.6-0.3,0.9-0.899,0.9h-0.9c-0.64,0-0.96-0.32-0.96-0.961
		c0-2.84,0.859-5.09,2.58-6.75c1.72-1.658,3.92-2.489,6.6-2.489c1.359,0,2.63,0.21,3.811,0.63c1.18,0.42,2.21,1.05,3.09,1.891
		c0.88,0.84,1.561,1.889,2.04,3.149c0.48,1.26,0.72,2.729,0.72,4.409V89.586z M278.336,97.086c0.961,0,1.851-0.141,2.671-0.42
		c0.819-0.279,1.549-0.721,2.189-1.32c0.64-0.6,1.14-1.39,1.5-2.37c0.36-0.979,0.54-2.169,0.54-3.57v-5.819h-6.9
		c-1.92,0-3.55,0.561-4.89,1.68c-1.341,1.12-2.01,2.801-2.01,5.039v0.061c0,2.24,0.669,3.921,2.01,5.04
		C274.786,96.526,276.416,97.086,278.336,97.086z"/>
	<path class="st0" d="M298.616,89.406c0,1.401,0.181,2.591,0.54,3.57c0.36,0.98,0.85,1.771,1.471,2.37
		c0.619,0.6,1.35,1.041,2.189,1.32s1.74,0.42,2.7,0.42c1.8,0,3.35-0.601,4.649-1.801c1.3-1.199,1.95-2.88,1.95-5.039
		c0-0.601,0.3-0.9,0.9-0.9h0.899c0.64,0,0.961,0.32,0.961,0.959c0,1.441-0.24,2.741-0.721,3.9c-0.479,1.161-1.14,2.141-1.979,2.94
		s-1.83,1.421-2.971,1.86c-1.14,0.439-2.369,0.66-3.689,0.66c-1.4,0-2.69-0.211-3.87-0.631c-1.181-0.42-2.2-1.05-3.06-1.89
		c-0.861-0.841-1.541-1.89-2.04-3.149c-0.501-1.261-0.75-2.73-0.75-4.41V76.805c0-1.68,0.249-3.149,0.75-4.409
		c0.499-1.261,1.179-2.31,2.04-3.149c0.859-0.841,1.879-1.471,3.06-1.891c1.18-0.42,2.47-0.63,3.87-0.63
		c1.32,0,2.55,0.22,3.689,0.659c1.141,0.441,2.131,1.061,2.971,1.861c0.84,0.8,1.5,1.779,1.979,2.939
		c0.48,1.16,0.721,2.46,0.721,3.9c0,0.64-0.321,0.959-0.961,0.959h-0.899c-0.601,0-0.9-0.299-0.9-0.899c0-2.16-0.65-3.841-1.95-5.04
		c-1.3-1.2-2.85-1.801-4.649-1.801c-0.96,0-1.86,0.141-2.7,0.421s-1.57,0.72-2.189,1.319c-0.621,0.601-1.11,1.391-1.471,2.371
		c-0.359,0.98-0.54,2.17-0.54,3.569V89.406z"/>
	<path class="st0" d="M331.317,82.385l-5.101,6.061v9.6c0,0.641-0.32,0.961-0.96,0.961h-0.899c-0.641,0-0.96-0.32-0.96-0.961v-40.74
		c0-0.639,0.319-0.959,0.96-0.959h0.899c0.64,0,0.96,0.32,0.96,0.959v27.541l13.681-16.801c0.279-0.439,0.739-0.66,1.38-0.66h1.319
		c0.32,0,0.52,0.141,0.601,0.42c0.079,0.281,0.02,0.521-0.181,0.721l-9.899,11.7l10.2,17.64c0.199,0.28,0.239,0.54,0.119,0.78
		c-0.119,0.239-0.359,0.36-0.72,0.36h-1.2c-0.6,0-1-0.24-1.199-0.721L331.317,82.385z"/>
	<path class="st0" d="M381.715,89.586c0,1.68-0.239,3.149-0.72,4.41c-0.479,1.26-1.16,2.309-2.04,3.149
		c-0.88,0.84-1.91,1.47-3.09,1.89c-1.181,0.42-2.451,0.631-3.811,0.631c-1.28,0-2.51-0.191-3.689-0.57
		c-1.181-0.38-2.22-0.961-3.12-1.74c-0.9-0.78-1.61-1.74-2.13-2.88c-0.521-1.14-0.78-2.47-0.78-3.99v-0.3
		c0-1.52,0.26-2.85,0.78-3.99c0.52-1.141,1.22-2.1,2.1-2.88s1.91-1.359,3.09-1.74c1.18-0.38,2.431-0.569,3.75-0.569h6.9v-4.021
		c0-1.399-0.18-2.589-0.54-3.569s-0.851-1.771-1.47-2.371c-0.621-0.6-1.351-1.039-2.19-1.319s-1.739-0.421-2.7-0.421
		c-1.84,0-3.37,0.592-4.59,1.771c-1.221,1.181-1.83,2.831-1.83,4.95c0,0.6-0.3,0.9-0.899,0.9h-0.9c-0.64,0-0.96-0.32-0.96-0.961
		c0-2.84,0.859-5.09,2.58-6.75c1.72-1.658,3.92-2.489,6.6-2.489c1.359,0,2.63,0.21,3.811,0.63c1.18,0.42,2.21,1.05,3.09,1.891
		c0.88,0.84,1.561,1.889,2.04,3.149c0.48,1.26,0.72,2.729,0.72,4.409V89.586z M372.055,97.086c0.961,0,1.851-0.141,2.671-0.42
		c0.819-0.279,1.549-0.721,2.189-1.32c0.64-0.6,1.14-1.39,1.5-2.37c0.36-0.979,0.54-2.169,0.54-3.57v-5.819h-6.9
		c-1.92,0-3.55,0.561-4.89,1.68c-1.341,1.12-2.01,2.801-2.01,5.039v0.061c0,2.24,0.669,3.921,2.01,5.04
		C368.505,96.526,370.135,97.086,372.055,97.086z"/>
	<path class="st0" d="M408.595,99.006h-0.9c-0.641,0-0.96-0.32-0.96-0.961v-21.06c0-1.399-0.18-2.589-0.54-3.569
		s-0.851-1.771-1.47-2.371c-0.621-0.6-1.351-1.039-2.19-1.319s-1.74-0.421-2.7-0.421s-1.851,0.141-2.67,0.421
		c-0.82,0.28-1.551,0.72-2.189,1.319c-0.641,0.601-1.141,1.391-1.5,2.371c-0.36,0.98-0.54,2.17-0.54,3.569v21.06
		c0,0.641-0.321,0.961-0.96,0.961h-0.841c-0.64,0-0.96-0.32-0.96-0.961v-21.24c0-1.68,0.24-3.149,0.721-4.409
		c0.479-1.261,1.159-2.31,2.04-3.149c0.879-0.841,1.899-1.471,3.06-1.891s2.439-0.63,3.84-0.63c1.359,0,2.641,0.21,3.84,0.63
		c1.2,0.42,2.229,1.05,3.091,1.891c0.859,0.84,1.539,1.889,2.04,3.149c0.499,1.26,0.75,2.729,0.75,4.409v21.24
		C409.555,98.686,409.234,99.006,408.595,99.006z"/>
	<path class="st0" d="M417.956,76.626c0-1.639,0.229-3.079,0.689-4.32c0.46-1.238,1.1-2.27,1.92-3.09
		c0.819-0.818,1.79-1.439,2.91-1.859c1.119-0.42,2.319-0.63,3.6-0.63c1.681,0,3.16,0.341,4.44,1.021c1.279,0.68,2.3,1.72,3.06,3.119
		v-13.5c0-0.639,0.32-0.96,0.961-0.96h0.84c0.639,0,0.96,0.321,0.96,0.96v32.221c0,1.68-0.24,3.149-0.721,4.41
		c-0.479,1.26-1.16,2.309-2.04,3.149c-0.88,0.84-1.91,1.47-3.09,1.89s-2.45,0.631-3.81,0.631c-1.4,0-2.69-0.211-3.87-0.631
		c-1.181-0.42-2.2-1.05-3.06-1.89c-0.861-0.841-1.541-1.89-2.04-3.149c-0.501-1.261-0.75-2.73-0.75-4.41V76.626z M420.775,89.406
		c0,1.401,0.181,2.591,0.54,3.57c0.36,0.98,0.85,1.771,1.471,2.37c0.619,0.6,1.35,1.041,2.189,1.32s1.74,0.42,2.7,0.42
		s1.85-0.141,2.67-0.42c0.819-0.279,1.55-0.721,2.19-1.32c0.639-0.6,1.14-1.39,1.5-2.37c0.359-0.979,0.539-2.169,0.539-3.57v-12.42
		c0-1.399-0.18-2.589-0.539-3.569c-0.36-0.98-0.861-1.771-1.5-2.371c-0.641-0.6-1.371-1.039-2.19-1.319
		c-0.82-0.28-1.71-0.421-2.67-0.421s-1.86,0.141-2.7,0.421s-1.57,0.72-2.189,1.319c-0.621,0.601-1.11,1.391-1.471,2.371
		c-0.359,0.98-0.54,2.17-0.54,3.569V89.406z"/>
	<path class="st0" d="M470.394,99.006c-0.801,0.158-1.681,0.24-2.641,0.24c-2.439,0-4.36-0.561-5.76-1.681
		c-1.4-1.12-2.1-3.1-2.1-5.94v-31.02c0-0.64,0.319-0.96,0.96-0.96h0.899c0.64,0,0.96,0.32,0.96,0.96v6.779h7.62
		c0.64,0,0.96,0.321,0.96,0.961v0.66c0,0.64-0.32,0.959-0.96,0.959h-7.62v21.48c0,2.04,0.44,3.42,1.32,4.141
		c0.88,0.719,2.22,1.08,4.021,1.08c0.359,0,0.729-0.021,1.109-0.061c0.38-0.039,0.77-0.1,1.17-0.18c0.64-0.121,0.96,0.18,0.96,0.899
		v0.66C471.293,98.546,470.994,98.885,470.394,99.006z"/>
	<path class="st0" d="M481.493,98.045c0,0.641-0.32,0.961-0.96,0.961h-0.899c-0.641,0-0.96-0.32-0.96-0.961v-40.68
		c0-0.639,0.319-0.96,0.96-0.96h0.899c0.64,0,0.96,0.321,0.96,0.96v13.439c0.76-1.359,1.779-2.379,3.061-3.059
		c1.279-0.68,2.739-1.021,4.38-1.021c1.279,0,2.479,0.21,3.6,0.63c1.119,0.42,2.09,1.041,2.91,1.859
		c0.819,0.82,1.46,1.852,1.92,3.09c0.459,1.241,0.69,2.682,0.69,4.32v21.42c0,0.641-0.321,0.961-0.96,0.961h-0.841
		c-0.64,0-0.96-0.32-0.96-0.961v-21.06c0-1.399-0.18-2.589-0.54-3.569c-0.359-0.98-0.86-1.771-1.5-2.371
		c-0.64-0.6-1.37-1.039-2.189-1.319c-0.82-0.28-1.71-0.421-2.67-0.421s-1.86,0.141-2.7,0.421s-1.57,0.72-2.19,1.319
		c-0.62,0.601-1.109,1.391-1.47,2.371c-0.359,0.98-0.54,2.17-0.54,3.569V98.045z"/>
	<path class="st0" d="M522.833,90.366c0-0.6,0.3-0.9,0.9-0.9h0.899c0.64,0,0.961,0.321,0.961,0.961c0,1.4-0.231,2.67-0.69,3.81
		c-0.46,1.14-1.11,2.11-1.95,2.91s-1.83,1.421-2.97,1.86s-2.391,0.66-3.75,0.66c-1.4,0-2.69-0.211-3.87-0.631
		c-1.181-0.42-2.2-1.05-3.06-1.89c-0.861-0.841-1.541-1.89-2.04-3.149c-0.501-1.261-0.75-2.73-0.75-4.41V76.805
		c0-1.68,0.249-3.149,0.75-4.409c0.499-1.261,1.179-2.31,2.04-3.149c0.859-0.841,1.879-1.471,3.06-1.891
		c1.18-0.42,2.47-0.63,3.87-0.63c1.359,0,2.63,0.21,3.81,0.63s2.21,1.05,3.09,1.891c0.88,0.84,1.561,1.889,2.04,3.149
		c0.48,1.26,0.721,2.729,0.721,4.409v5.701c0,0.64-0.321,0.959-0.96,0.959h-15.601v5.94c0,1.401,0.181,2.591,0.54,3.57
		c0.36,0.98,0.85,1.771,1.471,2.37c0.619,0.6,1.35,1.041,2.189,1.32s1.74,0.42,2.7,0.42c1.839,0,3.399-0.59,4.68-1.771
		C522.193,94.137,522.833,92.487,522.833,90.366z M509.333,80.885h13.8v-3.899c0-1.399-0.18-2.589-0.539-3.569
		c-0.36-0.98-0.861-1.771-1.5-2.371c-0.641-0.6-1.371-1.039-2.19-1.319c-0.82-0.28-1.71-0.421-2.67-0.421s-1.86,0.141-2.7,0.421
		s-1.57,0.72-2.189,1.319c-0.621,0.601-1.11,1.391-1.471,2.371c-0.359,0.98-0.54,2.17-0.54,3.569V80.885z"/>
	<path class="st0" d="M558.052,99.006c-0.801,0.158-1.681,0.24-2.641,0.24c-2.439,0-4.36-0.561-5.76-1.681
		c-1.4-1.12-2.1-3.1-2.1-5.94v-31.02c0-0.64,0.319-0.96,0.96-0.96h0.899c0.64,0,0.96,0.32,0.96,0.96v6.779h7.62
		c0.64,0,0.96,0.321,0.96,0.961v0.66c0,0.64-0.32,0.959-0.96,0.959h-7.62v21.48c0,2.04,0.44,3.42,1.32,4.141
		c0.88,0.719,2.22,1.08,4.021,1.08c0.359,0,0.729-0.021,1.109-0.061c0.38-0.039,0.77-0.1,1.17-0.18c0.64-0.121,0.96,0.18,0.96,0.899
		v0.66C558.952,98.546,558.652,98.885,558.052,99.006z"/>
	<path class="st0" d="M581.571,90.366c0-0.6,0.3-0.9,0.9-0.9h0.899c0.64,0,0.961,0.321,0.961,0.961c0,1.4-0.231,2.67-0.69,3.81
		c-0.46,1.14-1.11,2.11-1.95,2.91s-1.83,1.421-2.97,1.86s-2.391,0.66-3.75,0.66c-1.4,0-2.69-0.211-3.87-0.631
		c-1.181-0.42-2.2-1.05-3.06-1.89c-0.861-0.841-1.541-1.89-2.04-3.149c-0.501-1.261-0.75-2.73-0.75-4.41V76.805
		c0-1.68,0.249-3.149,0.75-4.409c0.499-1.261,1.179-2.31,2.04-3.149c0.859-0.841,1.879-1.471,3.06-1.891
		c1.18-0.42,2.47-0.63,3.87-0.63c1.359,0,2.63,0.21,3.81,0.63s2.21,1.05,3.09,1.891c0.88,0.84,1.561,1.889,2.04,3.149
		c0.48,1.26,0.721,2.729,0.721,4.409v5.701c0,0.64-0.321,0.959-0.96,0.959h-15.601v5.94c0,1.401,0.181,2.591,0.54,3.57
		c0.36,0.98,0.85,1.771,1.471,2.37c0.619,0.6,1.35,1.041,2.189,1.32s1.74,0.42,2.7,0.42c1.839,0,3.399-0.59,4.68-1.771
		C580.931,94.137,581.571,92.487,581.571,90.366z M568.071,80.885h13.8v-3.899c0-1.399-0.18-2.589-0.539-3.569
		c-0.36-0.98-0.861-1.771-1.5-2.371c-0.641-0.6-1.371-1.039-2.19-1.319c-0.82-0.28-1.71-0.421-2.67-0.421s-1.86,0.141-2.7,0.421
		s-1.57,0.72-2.189,1.319c-0.621,0.601-1.11,1.391-1.471,2.371c-0.359,0.98-0.54,2.17-0.54,3.569V80.885z"/>
	<path class="st0" d="M611.09,89.586c0,1.68-0.239,3.149-0.72,4.41c-0.479,1.26-1.16,2.309-2.04,3.149
		c-0.88,0.84-1.91,1.47-3.09,1.89c-1.181,0.42-2.451,0.631-3.811,0.631c-1.28,0-2.51-0.191-3.689-0.57
		c-1.181-0.38-2.22-0.961-3.12-1.74c-0.9-0.78-1.61-1.74-2.13-2.88c-0.521-1.14-0.78-2.47-0.78-3.99v-0.3
		c0-1.52,0.26-2.85,0.78-3.99c0.52-1.141,1.22-2.1,2.1-2.88s1.91-1.359,3.09-1.74c1.18-0.38,2.431-0.569,3.75-0.569h6.9v-4.021
		c0-1.399-0.18-2.589-0.54-3.569s-0.851-1.771-1.47-2.371c-0.621-0.6-1.351-1.039-2.19-1.319s-1.739-0.421-2.7-0.421
		c-1.84,0-3.37,0.592-4.59,1.771c-1.221,1.181-1.83,2.831-1.83,4.95c0,0.6-0.3,0.9-0.899,0.9h-0.9c-0.64,0-0.96-0.32-0.96-0.961
		c0-2.84,0.859-5.09,2.58-6.75c1.72-1.658,3.92-2.489,6.6-2.489c1.359,0,2.63,0.21,3.811,0.63c1.18,0.42,2.21,1.05,3.09,1.891
		c0.88,0.84,1.561,1.889,2.04,3.149c0.48,1.26,0.72,2.729,0.72,4.409V89.586z M601.43,97.086c0.961,0,1.851-0.141,2.671-0.42
		c0.819-0.279,1.549-0.721,2.189-1.32c0.64-0.6,1.14-1.39,1.5-2.37c0.36-0.979,0.54-2.169,0.54-3.57v-5.819h-6.9
		c-1.92,0-3.55,0.561-4.89,1.68c-1.341,1.12-2.01,2.801-2.01,5.039v0.061c0,2.24,0.669,3.921,2.01,5.04
		C597.88,96.526,599.51,97.086,601.43,97.086z"/>
	<path class="st0" d="M651.65,98.045c0,0.641-0.32,0.961-0.96,0.961h-0.84c-0.641,0-0.96-0.32-0.96-0.961v-22.14
		c0-2.399-0.57-4.1-1.71-5.101c-1.141-0.998-2.551-1.5-4.23-1.5s-3.09,0.502-4.229,1.5c-1.141,1.001-1.711,2.701-1.711,5.101v22.14
		c0,0.641-0.32,0.961-0.96,0.961h-0.899c-0.641,0-0.96-0.32-0.96-0.961v-22.14c0-1.2-0.16-2.22-0.48-3.06s-0.75-1.52-1.29-2.041
		c-0.54-0.519-1.17-0.899-1.89-1.139c-0.72-0.24-1.5-0.361-2.34-0.361c-1.681,0-3.081,0.502-4.2,1.5
		c-1.12,1.001-1.68,2.701-1.68,5.101v22.14c0,0.641-0.321,0.961-0.96,0.961h-0.841c-0.64,0-0.96-0.32-0.96-0.961v-22.56
		c0-2.96,0.8-5.16,2.4-6.601c1.6-1.439,3.62-2.159,6.06-2.159c1.801,0,3.37,0.431,4.711,1.29c1.339,0.86,2.289,2.15,2.85,3.869
		c0.56-1.719,1.51-3.009,2.85-3.869c1.34-0.859,2.93-1.29,4.771-1.29c2.399,0,4.41,0.72,6.03,2.159
		c1.619,1.44,2.43,3.641,2.43,6.601V98.045z"/>
</g>
<g>
	<g>
		<path class="st1" d="M334.314,10.319c0.103,0.103,0.257,0.134,0.463,0.093l3.8-0.803l-0.989,3.769
			c-0.082,0.268-0.144,0.494-0.185,0.68c-0.041,0.206-0.041,0.36,0,0.463c0.062,0.103,0.196,0.206,0.402,0.309l1.359,0.649
			l-6.581,5.53c-0.124,0.103-0.206,0.247-0.247,0.433c-0.082,0.144-0.082,0.309,0,0.494l0.556,1.977
			c-0.762-0.103-1.493-0.196-2.194-0.278c-0.741-0.082-1.462-0.175-2.163-0.278c-0.7-0.082-1.411-0.165-2.132-0.247L326.93,30
			h-2.657l0.463-6.89c-0.021,0-0.041,0-0.062,0c-0.741,0.082-1.473,0.165-2.194,0.247c-0.7,0.103-1.411,0.196-2.132,0.278
			c-0.7,0.082-1.431,0.175-2.194,0.278l0.618-1.977c0.021-0.185,0-0.35-0.062-0.494c-0.062-0.185-0.144-0.33-0.247-0.433
			l-6.581-5.53l1.359-0.649c0.185-0.103,0.309-0.206,0.371-0.309c0.041-0.103,0.041-0.257,0-0.463
			c-0.041-0.185-0.093-0.412-0.154-0.68l-1.02-3.769l3.831,0.803c0.165,0.041,0.309,0.01,0.433-0.093
			c0.124-0.082,0.206-0.185,0.247-0.309l0.494-1.792l2.997,3.522c0.103,0.124,0.227,0.227,0.371,0.309
			c0.144,0.062,0.278,0.062,0.402,0c0.124-0.041,0.206-0.144,0.247-0.309c0.062-0.165,0.051-0.412-0.031-0.742l-1.236-7.106
			l1.699,0.927c0.268,0.165,0.505,0.247,0.711,0.247c0.206-0.041,0.371-0.175,0.494-0.402L325.508,0l2.41,4.665
			c0.124,0.227,0.299,0.36,0.525,0.402c0.206,0,0.443-0.082,0.711-0.247l1.73-0.927l-1.298,7.106
			c-0.082,0.33-0.093,0.577-0.031,0.742c0.062,0.165,0.154,0.268,0.278,0.309c0.124,0.062,0.247,0.062,0.371,0
			c0.144-0.082,0.278-0.185,0.402-0.309l2.997-3.522l0.525,1.792C334.149,10.134,334.211,10.237,334.314,10.319"/>
	</g>
</g>
</svg>