<!-- Generator: Adobe Illustrator 21.0.0, SVG Export Plug-In  -->
<svg version="1.1"
	 xmlns="http://www.w3.org/2000/svg" xmlns:xlink="http://www.w3.org/1999/xlink" xmlns:a="http://ns.adobe.com/AdobeSVGViewerExtensions/3.0/"
	 x="0px" y="0px" width="649.992px" height="208.251px" viewBox="0 0 649.992 208.251"
	 style="enable-background:new 0 0 649.992 208.251;" xml:space="preserve">
<style type="text/css">
	.st0{fill:#FFFFFF;}
	.st1{fill:#3F3F3F;}
</style>
<defs>
</defs>
<g>
	<path class="st0" d="M603.126,93.731H75.293c-25.842,0-46.866-21.024-46.866-46.866S49.451,0,75.293,0h527.833
		c25.842,0,46.866,21.024,46.866,46.866S628.968,93.731,603.126,93.731z M75.293,1.537c-24.995,0-45.329,20.334-45.329,45.329
		s20.334,45.329,45.329,45.329h527.833c24.995,0,45.329-20.334,45.329-45.329S628.12,1.537,603.126,1.537H75.293z"/>
</g>
<g>
	<path class="st0" d="M603.126,208.251H75.293c-25.842,0-46.866-21.024-46.866-46.865c0-25.842,21.024-46.866,46.866-46.866h527.833
		c25.842,0,46.866,21.024,46.866,46.866S628.968,208.251,603.126,208.251z M75.293,116.056c-24.995,0-45.329,20.334-45.329,45.329
		s20.334,45.329,45.329,45.329h527.833c24.995,0,45.329-20.334,45.329-45.329c0-24.995-20.334-45.329-45.329-45.329H75.293z"/>
</g>
<g>
	<g>
		<path class="st1" d="M106.699,62.882V30.614h1.66v32.268H106.699z"/>
	</g>
	<g>
		<path class="st1" d="M115.503,38.588l1.844-9.219h1.751l-2.259,9.219H115.503z"/>
	</g>
	<g>
		<path class="st1" d="M125.322,62.882V29.23h1.613v33.651H125.322z"/>
	</g>
	<g>
		<path class="st1" d="M134.771,62.882V29.23h1.613v33.651H134.771z"/>
	</g>
	<g>
		<path class="st1" d="M169.388,46.609v13.276c0.123,1.106,1.275,1.752,3.458,1.936l-0.092,1.429c-2.244,0-3.826-0.646-4.748-1.936
			c-3.134,1.322-6.239,1.982-9.312,1.982c-1.906,0-3.388-0.568-4.448-1.706c-1.061-1.136-1.59-2.758-1.59-4.863
			c0-2.104,0.507-3.711,1.521-4.817s2.627-1.767,4.84-1.982l8.758-0.922v-2.397c0-1.966-0.423-3.395-1.268-4.287
			c-0.846-0.891-2.128-1.337-3.849-1.337c-1.752,0-4.18,0.2-7.283,0.599l-1.429,0.185l-0.138-1.521
			c3.441-0.553,6.392-0.83,8.851-0.83C167.144,39.418,169.388,41.815,169.388,46.609z M155.467,52.878
			c-0.737,0.83-1.106,2.074-1.106,3.734c0,1.66,0.376,2.943,1.129,3.849c0.752,0.907,1.805,1.36,3.158,1.36
			c1.352,0,2.781-0.161,4.287-0.484c1.505-0.323,2.689-0.637,3.55-0.945l1.291-0.461v-9.45l-8.574,0.876
			C157.449,51.542,156.204,52.049,155.467,52.878z"/>
	</g>
	<g>
		<path class="st1" d="M183.493,40.893c-4.118,0-6.177,1.537-6.177,4.61c0,1.445,0.43,2.466,1.291,3.065s2.766,1.129,5.716,1.59
			s5.009,1.076,6.177,1.844c1.168,0.769,1.752,2.313,1.752,4.633c0,2.321-0.738,4.01-2.213,5.071s-3.657,1.59-6.546,1.59
			c-1.567,0-3.657-0.184-6.269-0.553l-1.337-0.185l0.185-1.521c3.319,0.523,5.961,0.784,7.929,0.784
			c1.966,0,3.549-0.384,4.748-1.152c1.199-0.768,1.798-2.074,1.798-3.918c0-1.844-0.469-3.058-1.406-3.642
			c-0.938-0.583-2.858-1.098-5.762-1.544c-2.904-0.445-4.925-1.044-6.062-1.798c-1.137-0.753-1.706-2.02-1.706-3.803
			c0-1.782,0.415-3.158,1.245-4.126c0.83-0.968,1.798-1.614,2.904-1.936c1.106-0.323,2.259-0.484,3.458-0.484
			c2.489,0,4.824,0.169,7.007,0.507l1.199,0.184l-0.092,1.521C188.196,41.139,185.583,40.893,183.493,40.893z"/>
	</g>
	<g>
		<path class="st1" d="M199.766,62.882h-1.613V29.23h1.613v20.329h4.426l7.929-9.726h1.936l-8.482,10.418l8.851,12.631h-1.936
			l-8.297-11.847h-4.426V62.882z"/>
	</g>
	<g>
		<path class="st1" d="M244.064,61.545c-2.244,1.168-4.81,1.752-7.698,1.752c-2.889,0-4.956-0.929-6.2-2.789
			c-1.245-1.859-1.867-4.878-1.867-9.058c0-4.179,0.768-7.229,2.305-9.15c1.536-1.92,4.271-2.881,8.206-2.881l6.868,0.415v33.651
			h-1.613V61.545z M238.855,40.893c-3.442,0-5.778,0.838-7.007,2.512c-1.229,1.675-1.844,4.341-1.844,7.998
			c0,3.657,0.484,6.308,1.452,7.952c0.968,1.644,2.681,2.466,5.14,2.466c1.229,0,2.466-0.153,3.711-0.461
			c1.245-0.307,2.189-0.614,2.835-0.922l0.922-0.461V41.17C241.667,40.985,239.93,40.893,238.855,40.893z"/>
	</g>
	<g>
		<path class="st1" d="M267.85,39.833h1.613v23.049h-1.613v-1.844c-0.277,0.154-0.646,0.362-1.106,0.622
			c-0.461,0.261-1.36,0.599-2.697,1.014c-1.337,0.415-2.589,0.622-3.757,0.622c-3.073,0-5.102-0.776-6.085-2.328
			c-0.984-1.552-1.475-4.602-1.475-9.15V39.833h1.613v11.893c0,4.056,0.369,6.753,1.106,8.09c0.738,1.337,2.351,2.005,4.84,2.005
			c1.229,0,2.474-0.192,3.734-0.576c1.26-0.384,2.213-0.76,2.858-1.129l0.968-0.599V39.833z"/>
	</g>
	<g>
		<path class="st1" d="M291.498,61.499l1.383-0.092l0.092,1.475c-3.442,0.277-6.285,0.415-8.528,0.415
			c-3.258-0.031-5.517-1.021-6.776-2.973c-1.26-1.951-1.89-4.94-1.89-8.966c0-7.959,3.104-11.939,9.312-11.939
			c2.919,0,5.109,0.876,6.569,2.628c1.459,1.752,2.189,4.563,2.189,8.436v1.521h-16.364c0,3.319,0.522,5.785,1.567,7.398
			c1.044,1.614,2.781,2.42,5.209,2.42C286.688,61.821,289.1,61.714,291.498,61.499z M277.484,50.528h14.659
			c0-3.472-0.561-5.947-1.683-7.422c-1.122-1.475-2.912-2.213-5.37-2.213C280.019,40.893,277.484,44.105,277.484,50.528z"/>
	</g>
	<g>
		<path class="st1" d="M306.479,40.893c-4.118,0-6.177,1.537-6.177,4.61c0,1.445,0.43,2.466,1.291,3.065s2.766,1.129,5.716,1.59
			s5.009,1.076,6.177,1.844c1.168,0.769,1.752,2.313,1.752,4.633c0,2.321-0.738,4.01-2.213,5.071s-3.657,1.59-6.546,1.59
			c-1.567,0-3.657-0.184-6.269-0.553l-1.337-0.185l0.185-1.521c3.319,0.523,5.961,0.784,7.929,0.784
			c1.966,0,3.549-0.384,4.748-1.152c1.199-0.768,1.798-2.074,1.798-3.918c0-1.844-0.469-3.058-1.406-3.642
			c-0.938-0.583-2.858-1.098-5.762-1.544c-2.904-0.445-4.925-1.044-6.062-1.798c-1.137-0.753-1.706-2.02-1.706-3.803
			c0-1.782,0.415-3.158,1.245-4.126c0.83-0.968,1.798-1.614,2.904-1.936c1.106-0.323,2.259-0.484,3.458-0.484
			c2.489,0,4.824,0.169,7.007,0.507l1.199,0.184l-0.092,1.521C311.181,41.139,308.569,40.893,306.479,40.893z"/>
	</g>
	<g>
		<path class="st1" d="M332.478,41.308h-8.39v12.077c0,3.534,0.254,5.831,0.761,6.892s1.667,1.59,3.48,1.59l4.518-0.369l0.138,1.475
			c-2.028,0.246-3.581,0.369-4.656,0.369c-2.183,0-3.704-0.56-4.564-1.683c-0.86-1.121-1.291-3.296-1.291-6.523V41.308h-3.642
			v-1.475h3.642v-7.514h1.613v7.514h8.39V41.308z"/>
	</g>
	<g>
		<path class="st1" d="M336.903,33.149v-2.535h1.613v2.535H336.903z M336.903,62.882V39.833h1.613v23.049H336.903z"/>
	</g>
	<g>
		<path class="st1" d="M347.044,42c1.413-1.721,3.826-2.582,7.237-2.582s5.823,0.861,7.237,2.582
			c1.413,1.721,2.121,4.825,2.121,9.312c0,4.487-0.63,7.606-1.89,9.358c-1.26,1.752-3.75,2.627-7.468,2.627
			c-3.719,0-6.208-0.876-7.468-2.627c-1.26-1.752-1.89-4.871-1.89-9.358C344.924,46.824,345.631,43.721,347.044,42z M350.202,61.291
			c0.999,0.354,2.358,0.53,4.08,0.53c1.721,0,3.081-0.177,4.08-0.53c0.999-0.353,1.767-1.014,2.305-1.982
			c0.537-0.968,0.883-2.059,1.037-3.273c0.153-1.214,0.23-2.911,0.23-5.094c0-3.872-0.538-6.515-1.613-7.929
			c-1.076-1.413-3.089-2.121-6.039-2.121s-4.963,0.707-6.039,2.121c-1.076,1.414-1.613,4.056-1.613,7.929
			c0,2.182,0.076,3.88,0.23,5.094c0.153,1.214,0.499,2.305,1.037,3.273C348.434,60.277,349.203,60.938,350.202,61.291z"/>
	</g>
	<g>
		<path class="st1" d="M371.66,62.882h-1.613V39.833h1.613v1.844c2.735-1.505,5.532-2.259,8.39-2.259
			c2.858,0,4.778,0.777,5.762,2.328c0.983,1.552,1.475,4.603,1.475,9.15v11.985h-1.614V50.989c0-4.057-0.369-6.753-1.106-8.09
			c-0.738-1.337-2.351-2.005-4.84-2.005c-1.229,0-2.512,0.192-3.849,0.576c-1.337,0.385-2.374,0.761-3.112,1.129l-1.106,0.599
			V62.882z"/>
	</g>
	<g>
		<path class="st1" d="M400.931,40.893c-4.118,0-6.177,1.537-6.177,4.61c0,1.445,0.43,2.466,1.291,3.065s2.766,1.129,5.716,1.59
			s5.009,1.076,6.177,1.844c1.168,0.769,1.752,2.313,1.752,4.633c0,2.321-0.738,4.01-2.213,5.071s-3.657,1.59-6.546,1.59
			c-1.567,0-3.657-0.184-6.269-0.553l-1.337-0.185l0.185-1.521c3.319,0.523,5.961,0.784,7.929,0.784
			c1.966,0,3.549-0.384,4.748-1.152c1.199-0.768,1.798-2.074,1.798-3.918c0-1.844-0.469-3.058-1.406-3.642
			c-0.938-0.583-2.858-1.098-5.762-1.544c-2.904-0.445-4.925-1.044-6.062-1.798c-1.137-0.753-1.706-2.02-1.706-3.803
			c0-1.782,0.415-3.158,1.245-4.126c0.83-0.968,1.798-1.614,2.904-1.936c1.106-0.323,2.259-0.484,3.458-0.484
			c2.489,0,4.824,0.169,7.007,0.507l1.199,0.184l-0.092,1.521C405.633,41.139,403.021,40.893,400.931,40.893z"/>
	</g>
	<g>
		<path class="st1" d="M441.035,46.609v13.276c0.123,1.106,1.275,1.752,3.458,1.936L444.4,63.25c-2.244,0-3.826-0.646-4.748-1.936
			c-3.134,1.322-6.239,1.982-9.312,1.982c-1.906,0-3.388-0.568-4.448-1.706c-1.061-1.136-1.59-2.758-1.59-4.863
			c0-2.104,0.507-3.711,1.521-4.817s2.627-1.767,4.84-1.982l8.758-0.922v-2.397c0-1.966-0.423-3.395-1.268-4.287
			c-0.846-0.891-2.128-1.337-3.849-1.337c-1.752,0-4.18,0.2-7.283,0.599l-1.429,0.185l-0.138-1.521
			c3.441-0.553,6.392-0.83,8.851-0.83C438.791,39.418,441.035,41.815,441.035,46.609z M427.114,52.878
			c-0.737,0.83-1.106,2.074-1.106,3.734c0,1.66,0.376,2.943,1.129,3.849c0.752,0.907,1.805,1.36,3.158,1.36
			c1.352,0,2.781-0.161,4.287-0.484c1.505-0.323,2.689-0.637,3.55-0.945l1.291-0.461v-9.45l-8.574,0.876
			C429.096,51.542,427.851,52.049,427.114,52.878z"/>
	</g>
	<g>
		<path class="st1" d="M450.116,41.262c2.55-1.229,5.262-1.844,8.136-1.844c2.873,0,4.863,0.892,5.97,2.674
			c1.106,1.783,1.659,4.84,1.659,9.174c0,4.333-0.722,7.422-2.167,9.265c-1.445,1.844-4.226,2.766-8.344,2.766
			c-2.151,0-4.103-0.108-5.854-0.323l-1.014-0.092V29.23h1.613V41.262z M450.116,61.545c2.397,0.185,4.34,0.277,5.832,0.277
			c1.49,0,2.827-0.199,4.01-0.599c1.183-0.399,2.082-1.091,2.697-2.074c0.614-0.983,1.021-2.082,1.222-3.296
			c0.199-1.214,0.299-2.835,0.299-4.863c0-3.626-0.415-6.215-1.245-7.768c-0.83-1.551-2.459-2.328-4.886-2.328
			c-1.229,0-2.505,0.154-3.826,0.461c-1.322,0.308-2.335,0.615-3.042,0.922l-1.06,0.461V61.545z"/>
	</g>
	<g>
		<path class="st1" d="M473.487,42c1.413-1.721,3.826-2.582,7.237-2.582s5.823,0.861,7.237,2.582
			c1.413,1.721,2.121,4.825,2.121,9.312c0,4.487-0.63,7.606-1.89,9.358c-1.26,1.752-3.75,2.627-7.468,2.627
			c-3.719,0-6.208-0.876-7.468-2.627c-1.26-1.752-1.89-4.871-1.89-9.358C471.367,46.824,472.074,43.721,473.487,42z M476.645,61.291
			c0.999,0.354,2.358,0.53,4.08,0.53c1.721,0,3.081-0.177,4.08-0.53c0.999-0.353,1.767-1.014,2.305-1.982
			c0.537-0.968,0.883-2.059,1.037-3.273c0.153-1.214,0.23-2.911,0.23-5.094c0-3.872-0.538-6.515-1.613-7.929
			c-1.076-1.413-3.089-2.121-6.039-2.121s-4.963,0.707-6.039,2.121c-1.076,1.414-1.613,4.056-1.613,7.929
			c0,2.182,0.076,3.88,0.23,5.094c0.153,1.214,0.499,2.305,1.037,3.273C474.877,60.277,475.646,60.938,476.645,61.291z"/>
	</g>
	<g>
		<path class="st1" d="M511.379,39.833h1.613v23.049h-1.613v-1.844c-0.277,0.154-0.646,0.362-1.106,0.622
			c-0.461,0.261-1.36,0.599-2.697,1.014c-1.337,0.415-2.589,0.622-3.757,0.622c-3.073,0-5.102-0.776-6.085-2.328
			c-0.984-1.552-1.475-4.602-1.475-9.15V39.833h1.613v11.893c0,4.056,0.369,6.753,1.106,8.09c0.738,1.337,2.351,2.005,4.84,2.005
			c1.229,0,2.474-0.192,3.734-0.576c1.26-0.384,2.213-0.76,2.858-1.129l0.968-0.599V39.833z"/>
	</g>
	<g>
		<path class="st1" d="M531.615,41.308h-8.39v12.077c0,3.534,0.254,5.831,0.761,6.892s1.667,1.59,3.48,1.59l4.518-0.369l0.138,1.475
			c-2.028,0.246-3.581,0.369-4.656,0.369c-2.183,0-3.704-0.56-4.564-1.683c-0.86-1.121-1.291-3.296-1.291-6.523V41.308h-3.642
			v-1.475h3.642v-7.514h1.613v7.514h8.39V41.308z"/>
	</g>
	<g>
		<path class="st1" d="M546.18,33.149v-2.535h1.613v2.535H546.18z M546.18,62.882V39.833h1.613v23.049H546.18z"/>
	</g>
	<g>
		<path class="st1" d="M566.417,41.308h-8.39v12.077c0,3.534,0.254,5.831,0.761,6.892s1.667,1.59,3.48,1.59l4.518-0.369l0.138,1.475
			c-2.028,0.246-3.581,0.369-4.656,0.369c-2.183,0-3.704-0.56-4.564-1.683c-0.86-1.121-1.291-3.296-1.291-6.523V41.308h-3.642
			v-1.475h3.642v-7.514h1.613v7.514h8.39V41.308z"/>
	</g>
	<g>
		<path class="st1" d="M570.658,62.882v-3.688h1.844v3.688H570.658z"/>
	</g>
</g>
<g>
	<g>
		<path class="st1" d="M89.113,175.765h-1.66V161.89l-10.51-18.393h1.936l9.404,16.549l9.404-16.549h1.936l-10.51,18.393V175.765z"
			/>
	</g>
	<g>
		<path class="st1" d="M102.019,154.883c1.413-1.721,3.826-2.582,7.237-2.582s5.823,0.861,7.237,2.582
			c1.413,1.721,2.121,4.825,2.121,9.312c0,4.487-0.63,7.606-1.89,9.358c-1.26,1.752-3.75,2.627-7.468,2.627
			c-3.719,0-6.208-0.876-7.468-2.627c-1.26-1.752-1.89-4.871-1.89-9.358C99.898,159.708,100.605,156.605,102.019,154.883z
			 M105.177,174.175c0.999,0.354,2.358,0.53,4.08,0.53c1.721,0,3.081-0.177,4.08-0.53c0.999-0.353,1.767-1.014,2.305-1.982
			c0.537-0.968,0.883-2.059,1.037-3.273c0.153-1.214,0.23-2.911,0.23-5.094c0-3.872-0.538-6.515-1.613-7.929
			c-1.076-1.413-3.089-2.121-6.039-2.121s-4.963,0.707-6.039,2.121c-1.076,1.414-1.613,4.056-1.613,7.929
			c0,2.182,0.076,3.88,0.23,5.094c0.153,1.214,0.499,2.305,1.037,3.273C103.409,173.161,104.178,173.822,105.177,174.175z"/>
	</g>
	<g>
		<path class="st1" d="M139.91,152.717h1.613v23.049h-1.613v-1.844c-0.277,0.154-0.646,0.362-1.106,0.622
			c-0.461,0.261-1.36,0.599-2.697,1.014c-1.337,0.415-2.589,0.622-3.757,0.622c-3.073,0-5.102-0.776-6.085-2.328
			c-0.984-1.552-1.475-4.602-1.475-9.15v-11.985h1.613v11.893c0,4.056,0.369,6.753,1.106,8.09c0.738,1.337,2.351,2.005,4.84,2.005
			c1.229,0,2.474-0.192,3.734-0.576c1.26-0.384,2.213-0.76,2.858-1.129l0.968-0.599V152.717z"/>
	</g>
	<g>
		<path class="st1" d="M148.069,151.472l1.844-9.219h1.751l-2.259,9.219H148.069z"/>
	</g>
	<g>
		<path class="st1" d="M157.888,175.765v-33.651h1.613v33.651H157.888z"/>
	</g>
	<g>
		<path class="st1" d="M167.337,175.765v-33.651h1.613v33.651H167.337z"/>
	</g>
	<g>
		<path class="st1" d="M201.954,159.493v13.276c0.123,1.106,1.275,1.752,3.458,1.936l-0.092,1.429c-2.244,0-3.826-0.646-4.748-1.936
			c-3.134,1.322-6.239,1.982-9.312,1.982c-1.906,0-3.388-0.568-4.448-1.706c-1.061-1.136-1.59-2.758-1.59-4.863
			c0-2.104,0.507-3.711,1.521-4.817s2.627-1.767,4.84-1.982l8.758-0.922v-2.397c0-1.966-0.423-3.395-1.268-4.287
			c-0.846-0.891-2.128-1.337-3.849-1.337c-1.752,0-4.18,0.2-7.283,0.599l-1.429,0.185l-0.138-1.521
			c3.441-0.553,6.392-0.83,8.851-0.83C199.71,152.302,201.954,154.699,201.954,159.493z M188.033,165.762
			c-0.737,0.83-1.106,2.074-1.106,3.734c0,1.66,0.376,2.943,1.129,3.849c0.752,0.907,1.805,1.36,3.158,1.36
			c1.352,0,2.781-0.161,4.287-0.484c1.505-0.323,2.689-0.637,3.55-0.945l1.291-0.461v-9.45l-8.574,0.876
			C190.015,164.426,188.77,164.932,188.033,165.762z"/>
	</g>
	<g>
		<path class="st1" d="M211.081,175.765h-1.613v-23.049h1.613v1.844c2.735-1.505,5.532-2.259,8.39-2.259
			c2.858,0,4.778,0.777,5.762,2.328c0.983,1.552,1.475,4.603,1.475,9.15v11.985h-1.614v-11.893c0-4.057-0.369-6.753-1.106-8.09
			c-0.738-1.337-2.351-2.005-4.84-2.005c-1.229,0-2.512,0.192-3.849,0.576c-1.337,0.385-2.374,0.761-3.112,1.129l-1.106,0.599
			V175.765z"/>
	</g>
	<g>
		<path class="st1" d="M240.352,153.777c-4.118,0-6.177,1.537-6.177,4.61c0,1.445,0.43,2.466,1.291,3.065s2.766,1.129,5.716,1.59
			s5.009,1.076,6.177,1.844c1.168,0.769,1.752,2.313,1.752,4.633c0,2.321-0.738,4.01-2.213,5.071s-3.657,1.59-6.546,1.59
			c-1.567,0-3.657-0.184-6.269-0.553l-1.337-0.185l0.185-1.521c3.319,0.523,5.961,0.784,7.929,0.784
			c1.966,0,3.549-0.384,4.748-1.152c1.199-0.768,1.798-2.074,1.798-3.918c0-1.844-0.469-3.058-1.406-3.642
			c-0.938-0.583-2.858-1.098-5.762-1.544c-2.904-0.445-4.925-1.044-6.062-1.798c-1.137-0.753-1.706-2.02-1.706-3.803
			c0-1.782,0.415-3.158,1.245-4.126c0.83-0.968,1.798-1.614,2.904-1.936c1.106-0.323,2.259-0.484,3.458-0.484
			c2.489,0,4.824,0.169,7.007,0.507l1.199,0.184l-0.092,1.521C245.055,154.023,242.442,153.777,240.352,153.777z"/>
	</g>
	<g>
		<path class="st1" d="M252.707,152.717h1.706l5.854,21.573h0.507l6.822-21.113h1.752l6.822,21.113h0.507l5.854-21.573h1.706
			l-6.223,23.049h-3.134l-6.408-20.652l-6.408,20.652h-3.134L252.707,152.717z"/>
	</g>
	<g>
		<path class="st1" d="M303.876,174.383l1.383-0.092l0.092,1.475c-3.442,0.277-6.285,0.415-8.528,0.415
			c-3.258-0.031-5.517-1.021-6.776-2.973c-1.26-1.951-1.89-4.94-1.89-8.966c0-7.959,3.104-11.939,9.312-11.939
			c2.919,0,5.109,0.876,6.569,2.628c1.459,1.752,2.189,4.563,2.189,8.436v1.521h-16.364c0,3.319,0.522,5.785,1.567,7.398
			c1.044,1.614,2.781,2.42,5.209,2.42C299.066,174.705,301.479,174.598,303.876,174.383z M289.863,163.411h14.659
			c0-3.472-0.561-5.947-1.683-7.422c-1.122-1.475-2.912-2.213-5.37-2.213C292.398,153.777,289.863,156.989,289.863,163.411z"/>
	</g>
	<g>
		<path class="st1" d="M312.265,175.765v-23.049h1.613v3.595c0.922-0.738,2.297-1.528,4.126-2.374
			c1.828-0.845,3.496-1.406,5.001-1.683v1.66c-1.353,0.277-2.789,0.738-4.31,1.383c-1.521,0.646-2.697,1.229-3.526,1.752
			l-1.291,0.784v17.932H312.265z"/>
	</g>
	<g>
		<path class="st1" d="M348.865,154.192h-8.39v12.077c0,3.534,0.254,5.831,0.761,6.892s1.667,1.59,3.48,1.59l4.518-0.369
			l0.138,1.475c-2.028,0.246-3.581,0.369-4.656,0.369c-2.183,0-3.704-0.56-4.564-1.683c-0.86-1.121-1.291-3.296-1.291-6.523v-13.829
			h-3.642v-1.475h3.642v-7.514h1.613v7.514h8.39V154.192z"/>
	</g>
	<g>
		<path class="st1" d="M354.904,175.765h-1.613v-33.651h1.613V154.1c2.704-1.198,5.486-1.798,8.344-1.798s4.778,0.777,5.762,2.328
			c0.983,1.552,1.475,4.603,1.475,9.15v11.985h-1.613v-11.893c0-4.057-0.369-6.753-1.106-8.09c-0.737-1.337-2.351-2.005-4.84-2.005
			c-1.229,0-2.512,0.154-3.849,0.461c-1.336,0.308-2.359,0.615-3.065,0.922l-1.106,0.461V175.765z"/>
	</g>
	<g>
		<path class="st1" d="M392.288,174.383l1.383-0.092l0.092,1.475c-3.442,0.277-6.285,0.415-8.528,0.415
			c-3.258-0.031-5.517-1.021-6.776-2.973c-1.26-1.951-1.89-4.94-1.89-8.966c0-7.959,3.104-11.939,9.312-11.939
			c2.919,0,5.109,0.876,6.569,2.628c1.459,1.752,2.189,4.563,2.189,8.436v1.521h-16.364c0,3.319,0.522,5.785,1.567,7.398
			c1.044,1.614,2.781,2.42,5.209,2.42C387.478,174.705,389.891,174.598,392.288,174.383z M378.275,163.411h14.659
			c0-3.472-0.561-5.947-1.683-7.422c-1.122-1.475-2.912-2.213-5.37-2.213C380.81,153.777,378.275,156.989,378.275,163.411z"/>
	</g>
	<g>
		<path class="st1" d="M425.616,174.428c-2.244,1.168-4.81,1.752-7.698,1.752c-2.889,0-4.956-0.929-6.2-2.789
			c-1.245-1.859-1.867-4.878-1.867-9.058c0-4.179,0.768-7.229,2.305-9.15c1.536-1.92,4.271-2.881,8.206-2.881l6.868,0.415v33.651
			h-1.613V174.428z M420.407,153.777c-3.442,0-5.778,0.838-7.007,2.512c-1.229,1.675-1.844,4.341-1.844,7.998
			c0,3.657,0.484,6.308,1.452,7.952c0.968,1.644,2.681,2.466,5.14,2.466c1.229,0,2.466-0.153,3.711-0.461
			c1.245-0.307,2.189-0.614,2.835-0.922l0.922-0.461v-18.808C423.219,153.869,421.482,153.777,420.407,153.777z"/>
	</g>
	<g>
		<path class="st1" d="M449.402,152.717h1.613v23.049h-1.613v-1.844c-0.277,0.154-0.646,0.362-1.106,0.622
			c-0.461,0.261-1.36,0.599-2.697,1.014c-1.337,0.415-2.589,0.622-3.757,0.622c-3.073,0-5.102-0.776-6.085-2.328
			c-0.984-1.552-1.475-4.602-1.475-9.15v-11.985h1.613v11.893c0,4.056,0.369,6.753,1.106,8.09c0.738,1.337,2.351,2.005,4.84,2.005
			c1.229,0,2.474-0.192,3.734-0.576c1.26-0.384,2.213-0.76,2.858-1.129l0.968-0.599V152.717z"/>
	</g>
	<g>
		<path class="st1" d="M473.049,174.383l1.383-0.092l0.092,1.475c-3.442,0.277-6.285,0.415-8.528,0.415
			c-3.258-0.031-5.517-1.021-6.776-2.973c-1.26-1.951-1.89-4.94-1.89-8.966c0-7.959,3.104-11.939,9.312-11.939
			c2.919,0,5.109,0.876,6.569,2.628c1.459,1.752,2.189,4.563,2.189,8.436v1.521h-16.364c0,3.319,0.522,5.785,1.567,7.398
			c1.044,1.614,2.781,2.42,5.209,2.42C468.239,174.705,470.652,174.598,473.049,174.383z M459.035,163.411h14.659
			c0-3.472-0.561-5.947-1.683-7.422c-1.122-1.475-2.912-2.213-5.37-2.213C461.571,153.777,459.035,156.989,459.035,163.411z"/>
	</g>
	<g>
		<path class="st1" d="M488.03,153.777c-4.118,0-6.177,1.537-6.177,4.61c0,1.445,0.43,2.466,1.291,3.065s2.766,1.129,5.716,1.59
			s5.009,1.076,6.177,1.844c1.168,0.769,1.752,2.313,1.752,4.633c0,2.321-0.738,4.01-2.213,5.071s-3.657,1.59-6.546,1.59
			c-1.567,0-3.657-0.184-6.269-0.553l-1.337-0.185l0.185-1.521c3.319,0.523,5.961,0.784,7.929,0.784
			c1.966,0,3.549-0.384,4.748-1.152c1.199-0.768,1.798-2.074,1.798-3.918c0-1.844-0.469-3.058-1.406-3.642
			c-0.938-0.583-2.858-1.098-5.762-1.544c-2.904-0.445-4.925-1.044-6.062-1.798c-1.137-0.753-1.706-2.02-1.706-3.803
			c0-1.782,0.415-3.158,1.245-4.126c0.83-0.968,1.798-1.614,2.904-1.936c1.106-0.323,2.259-0.484,3.458-0.484
			c2.489,0,4.824,0.169,7.007,0.507l1.199,0.184l-0.092,1.521C492.732,154.023,490.12,153.777,488.03,153.777z"/>
	</g>
	<g>
		<path class="st1" d="M514.029,154.192h-8.39v12.077c0,3.534,0.254,5.831,0.761,6.892s1.667,1.59,3.48,1.59l4.518-0.369
			l0.138,1.475c-2.028,0.246-3.581,0.369-4.656,0.369c-2.183,0-3.704-0.56-4.564-1.683c-0.86-1.121-1.291-3.296-1.291-6.523v-13.829
			h-3.642v-1.475h3.642v-7.514h1.613v7.514h8.39V154.192z"/>
	</g>
	<g>
		<path class="st1" d="M518.454,146.032v-2.535h1.613v2.535H518.454z M518.454,175.765v-23.049h1.613v23.049H518.454z"/>
	</g>
	<g>
		<path class="st1" d="M528.596,154.883c1.413-1.721,3.826-2.582,7.237-2.582s5.823,0.861,7.237,2.582
			c1.413,1.721,2.121,4.825,2.121,9.312c0,4.487-0.63,7.606-1.89,9.358c-1.26,1.752-3.75,2.627-7.468,2.627
			c-3.719,0-6.208-0.876-7.468-2.627c-1.26-1.752-1.89-4.871-1.89-9.358C526.475,159.708,527.182,156.605,528.596,154.883z
			 M531.753,174.175c0.999,0.354,2.358,0.53,4.08,0.53c1.721,0,3.081-0.177,4.08-0.53c0.999-0.353,1.767-1.014,2.305-1.982
			c0.537-0.968,0.883-2.059,1.037-3.273c0.153-1.214,0.23-2.911,0.23-5.094c0-3.872-0.538-6.515-1.613-7.929
			c-1.076-1.413-3.089-2.121-6.039-2.121s-4.963,0.707-6.039,2.121c-1.076,1.414-1.613,4.056-1.613,7.929
			c0,2.182,0.076,3.88,0.23,5.094c0.153,1.214,0.499,2.305,1.037,3.273C529.986,173.161,530.754,173.822,531.753,174.175z"/>
	</g>
	<g>
		<path class="st1" d="M553.211,175.765h-1.613v-23.049h1.613v1.844c2.735-1.505,5.532-2.259,8.39-2.259
			c2.858,0,4.778,0.777,5.762,2.328c0.983,1.552,1.475,4.603,1.475,9.15v11.985h-1.614v-11.893c0-4.057-0.369-6.753-1.106-8.09
			c-0.738-1.337-2.351-2.005-4.84-2.005c-1.229,0-2.512,0.192-3.849,0.576c-1.337,0.385-2.374,0.761-3.112,1.129l-1.106,0.599
			V175.765z"/>
	</g>
	<g>
		<path class="st1" d="M582.482,153.777c-4.118,0-6.177,1.537-6.177,4.61c0,1.445,0.43,2.466,1.291,3.065s2.766,1.129,5.716,1.59
			s5.009,1.076,6.177,1.844c1.168,0.769,1.752,2.313,1.752,4.633c0,2.321-0.738,4.01-2.213,5.071s-3.657,1.59-6.546,1.59
			c-1.567,0-3.657-0.184-6.269-0.553l-1.337-0.185l0.185-1.521c3.319,0.523,5.961,0.784,7.929,0.784
			c1.966,0,3.549-0.384,4.748-1.152c1.199-0.768,1.798-2.074,1.798-3.918c0-1.844-0.469-3.058-1.406-3.642
			c-0.938-0.583-2.858-1.098-5.762-1.544c-2.904-0.445-4.925-1.044-6.062-1.798c-1.137-0.753-1.706-2.02-1.706-3.803
			c0-1.782,0.415-3.158,1.245-4.126c0.83-0.968,1.798-1.614,2.904-1.936c1.106-0.323,2.259-0.484,3.458-0.484
			c2.489,0,4.824,0.169,7.007,0.507l1.199,0.184l-0.092,1.521C587.184,154.023,584.572,153.777,582.482,153.777z"/>
	</g>
	<g>
		<path class="st1" d="M596.957,175.765v-3.688h1.844v3.688H596.957z"/>
	</g>
</g>
<g>
	<circle class="st1" cx="27.658" cy="46.866" r="27.658"/>
</g>
<g>
	<circle class="st1" cx="27.658" cy="161.385" r="27.658"/>
</g>
<g>
	<path class="st0" d="M31.476,37.463v18.255H27.66v-13.94l-3.955,2.545l-1.742-2.849l6.029-4.01H31.476z"/>
</g>
<g>
	<path class="st0" d="M33.551,170.238H21.713v-3.236l3.9-3.955c1.383-1.42,2.346-2.507,2.89-3.264
		c0.544-0.756,0.816-1.563,0.816-2.42s-0.226-1.461-0.678-1.812c-0.452-0.35-1.092-0.526-1.922-0.526
		c-1.236,0-2.582,0.111-4.039,0.332l-0.664,0.083l-0.194-2.959c1.807-0.553,3.679-0.83,5.615-0.83c3.873,0,5.809,1.742,5.809,5.227
		c0,1.365-0.295,2.545-0.885,3.54c-0.59,0.996-1.66,2.204-3.208,3.623l-3.181,2.876h7.579V170.238z"/>
</g>
</svg>