<!-- Generator: Adobe Illustrator 21.0.0, SVG Export Plug-In  -->
<svg version="1.1"
	 xmlns="http://www.w3.org/2000/svg" xmlns:xlink="http://www.w3.org/1999/xlink" xmlns:a="http://ns.adobe.com/AdobeSVGViewerExtensions/3.0/"
	 x="0px" y="0px" width="400px" height="80px" viewBox="0 0 400 80" style="enable-background:new 0 0 400 80;"
	 xml:space="preserve">
<style type="text/css">
	.st0{fill:#FF0000;}
	.st1{fill:#FFFFFF;}
</style>
<defs>
</defs>
<path class="st0" d="M360,80H40C18,80,0,62,0,40v0C0,18,18,0,40,0l320,0c22,0,40,18,40,40v0C400,62,382,80,360,80z"/>
<g>
	<path class="st1" d="M104.077,53c-0.5,0.1-0.958,0.158-1.375,0.175c-0.417,0.016-0.809,0.025-1.175,0.025
		c-2.4,0-4.234-0.558-5.5-1.675c-1.267-1.116-1.9-3.025-1.9-5.725V22c0-1.2,0.6-1.8,1.8-1.8h1.8c1.2,0,1.8,0.6,1.8,1.8v4.65h4.3
		c1.2,0,1.8,0.6,1.8,1.8v1.45c0,1.2-0.6,1.8-1.8,1.8h-4.3v13.7c0,1.034,0.2,1.75,0.6,2.15c0.4,0.4,1.116,0.6,2.15,0.6
		c0.433,0,0.95-0.05,1.55-0.15s1.05,0.017,1.35,0.35c0.3,0.334,0.45,0.8,0.45,1.4v1.45c0,0.6-0.143,1.025-0.425,1.275
		C104.919,52.725,104.544,52.9,104.077,53z"/>
	<path class="st1" d="M119.027,31.45c-1.167,0-2,0.234-2.5,0.7c-0.5,0.467-0.75,1.284-0.75,2.45v16.6c0,1.2-0.6,1.8-1.8,1.8h-1.8
		c-1.2,0-1.8-0.6-1.8-1.8v-17c0-2.866,0.691-4.883,2.075-6.05c1.383-1.166,3.325-1.75,5.825-1.75c0.367,0,0.758,0.009,1.175,0.025
		c0.417,0.017,0.875,0.075,1.375,0.175c0.466,0.1,0.841,0.275,1.125,0.525c0.283,0.25,0.425,0.675,0.425,1.275v1.45
		c0,0.6-0.15,1.067-0.45,1.4c-0.3,0.334-0.75,0.45-1.35,0.35S119.46,31.45,119.027,31.45z"/>
	<path class="st1" d="M138.277,28.45c0-1.2,0.6-1.8,1.8-1.8h1.8c1.2,0,1.8,0.6,1.8,1.8V53.4c0,1.466-0.225,2.741-0.675,3.825
		c-0.45,1.083-1.059,1.975-1.825,2.675c-0.767,0.7-1.692,1.225-2.775,1.575c-1.084,0.35-2.242,0.525-3.475,0.525
		c-1.333,0-2.525-0.192-3.575-0.575c-1.05-0.384-1.942-0.9-2.675-1.55c-0.734-0.65-1.292-1.409-1.675-2.275
		c-0.383-0.867-0.575-1.8-0.575-2.8c0-1.2,0.6-1.8,1.8-1.8h2.05c1.033,0,1.55,0.516,1.55,1.55c0,0.733,0.25,1.358,0.75,1.875
		c0.5,0.516,1.283,0.775,2.35,0.775c0.933,0,1.725-0.25,2.375-0.75s0.975-1.55,0.975-3.15v-4.45c-1.167,1.4-2.817,2.1-4.95,2.1
		c-2.067,0-3.775-0.675-5.125-2.025c-1.35-1.35-2.025-3.425-2.025-6.225V28.45c0-1.2,0.6-1.8,1.8-1.8h1.8c1.2,0,1.8,0.6,1.8,1.8
		v13.3c0,1.6,0.325,2.692,0.975,3.275c0.65,0.584,1.441,0.875,2.375,0.875c0.933,0,1.725-0.291,2.375-0.875
		c0.65-0.583,0.975-1.675,0.975-3.275V28.45z"/>
	<path class="st1" d="M190.175,51.2c0,1.2-0.6,1.8-1.8,1.8h-1.8c-1.2,0-1.8-0.6-1.8-1.8V35.05c0-1.5-0.309-2.525-0.925-3.075
		c-0.617-0.55-1.358-0.825-2.225-0.825c-0.867,0-1.608,0.275-2.225,0.825c-0.617,0.55-0.925,1.575-0.925,3.075V51.2
		c0,1.2-0.6,1.8-1.8,1.8h-1.8c-1.2,0-1.8-0.6-1.8-1.8V35.05c0-1.5-0.309-2.525-0.925-3.075c-0.617-0.55-1.358-0.825-2.225-0.825
		c-0.867,0-1.609,0.275-2.225,0.825c-0.617,0.55-0.925,1.575-0.925,3.075V51.2c0,1.2-0.6,1.8-1.8,1.8h-1.8c-1.2,0-1.8-0.6-1.8-1.8
		V34.05c0-1.333,0.2-2.491,0.6-3.475c0.4-0.983,0.95-1.808,1.65-2.475c0.7-0.666,1.525-1.166,2.475-1.5
		c0.95-0.333,1.991-0.5,3.125-0.5c1.5,0,2.808,0.325,3.925,0.975c1.117,0.65,1.992,1.575,2.625,2.775
		c0.633-1.2,1.508-2.125,2.625-2.775c1.117-0.65,2.425-0.975,3.925-0.975c1.133,0,2.175,0.167,3.125,0.5
		c0.95,0.334,1.775,0.834,2.475,1.5c0.7,0.667,1.25,1.492,1.65,2.475c0.4,0.984,0.6,2.142,0.6,3.475V51.2z"/>
	<path class="st1" d="M207.874,45.7c0-1.033,0.517-1.55,1.55-1.55h2.05c1.2,0,1.8,0.6,1.8,1.8c0,2.267-0.775,4.1-2.325,5.5
		c-1.55,1.4-3.608,2.1-6.175,2.1c-1.268,0-2.434-0.184-3.5-0.55c-1.067-0.366-1.984-0.916-2.75-1.65
		c-0.768-0.733-1.375-1.658-1.825-2.775c-0.45-1.116-0.675-2.408-0.675-3.875v-9.75c0-1.466,0.225-2.758,0.675-3.875
		c0.45-1.116,1.058-2.041,1.825-2.775c0.766-0.733,1.683-1.283,2.75-1.65c1.066-0.366,2.232-0.55,3.5-0.55
		c1.232,0,2.391,0.184,3.475,0.55c1.083,0.367,2.008,0.917,2.775,1.65c0.766,0.734,1.375,1.659,1.825,2.775
		c0.45,1.117,0.675,2.409,0.675,3.875v4.25c0,1.2-0.6,1.8-1.8,1.8h-10.3v3.35c0,1.6,0.325,2.692,0.975,3.275
		c0.65,0.584,1.441,0.875,2.375,0.875c0.966,0,1.725-0.25,2.275-0.75C207.599,47.25,207.874,46.567,207.874,45.7z M201.425,36.95
		h6.7V35.3c0-1.6-0.325-2.691-0.975-3.275c-0.65-0.583-1.442-0.875-2.375-0.875c-0.934,0-1.725,0.292-2.375,0.875
		c-0.65,0.584-0.975,1.675-0.975,3.275V36.95z"/>
	<path class="st1" d="M246.123,53h-1.8c-1.2,0-1.8-0.6-1.8-1.8V35.3c0-1.6-0.325-2.691-0.975-3.275
		c-0.65-0.583-1.442-0.875-2.375-0.875c-0.934,0-1.725,0.292-2.375,0.875c-0.65,0.584-0.975,1.675-0.975,3.275v15.9
		c0,1.2-0.6,1.8-1.8,1.8h-1.8c-1.2,0-1.8-0.6-1.8-1.8V34.95c0-1.466,0.225-2.758,0.675-3.875c0.45-1.116,1.058-2.041,1.825-2.775
		c0.767-0.733,1.683-1.283,2.75-1.65c1.066-0.366,2.233-0.55,3.5-0.55c1.233,0,2.392,0.184,3.475,0.55
		c1.083,0.367,2.008,0.917,2.775,1.65c0.767,0.734,1.375,1.659,1.825,2.775c0.45,1.117,0.675,2.409,0.675,3.875V51.2
		C247.923,52.4,247.323,53,246.123,53z"/>
	<path class="st1" d="M271.273,44.7c0,1.5-0.225,2.809-0.675,3.925c-0.45,1.117-1.059,2.034-1.825,2.75
		c-0.768,0.717-1.692,1.259-2.775,1.625c-1.083,0.366-2.242,0.55-3.475,0.55c-1.268,0-2.434-0.184-3.5-0.55
		c-1.067-0.366-1.984-0.908-2.75-1.625c-0.768-0.716-1.375-1.633-1.825-2.75c-0.45-1.116-0.675-2.425-0.675-3.925v-9.75
		c0-1.466,0.225-2.758,0.675-3.875c0.45-1.116,1.058-2.041,1.825-2.775c0.766-0.733,1.683-1.283,2.75-1.65
		c1.066-0.366,2.232-0.55,3.5-0.55c1.232,0,2.391,0.184,3.475,0.55c1.083,0.367,2.008,0.917,2.775,1.65
		c0.766,0.734,1.375,1.659,1.825,2.775c0.45,1.117,0.675,2.409,0.675,3.875V44.7z M265.873,35.3c0-1.6-0.325-2.691-0.975-3.275
		c-0.65-0.583-1.442-0.875-2.375-0.875c-0.934,0-1.725,0.292-2.375,0.875c-0.65,0.584-0.975,1.675-0.975,3.275v9.05
		c0,1.6,0.325,2.692,0.975,3.275c0.65,0.584,1.441,0.875,2.375,0.875c0.933,0,1.725-0.291,2.375-0.875
		c0.65-0.583,0.975-1.675,0.975-3.275V35.3z"/>
	<path class="st1" d="M277.123,28.45c0-1.2,0.6-1.8,1.8-1.8h1.8c1.2,0,1.8,0.6,1.8,1.8V44.6c0,1.5,0.308,2.525,0.925,3.075
		c0.616,0.55,1.358,0.825,2.225,0.825c0.866,0,1.607-0.275,2.225-0.825c0.617-0.55,0.925-1.575,0.925-3.075V28.45
		c0-1.2,0.6-1.8,1.8-1.8h1.8c1.2,0,1.8,0.6,1.8,1.8V44.6c0,1.5,0.308,2.525,0.925,3.075c0.617,0.55,1.358,0.825,2.225,0.825
		c0.867,0,1.608-0.275,2.225-0.825c0.616-0.55,0.925-1.575,0.925-3.075V28.45c0-1.2,0.6-1.8,1.8-1.8h1.8c1.2,0,1.8,0.6,1.8,1.8V45.6
		c0,1.334-0.2,2.492-0.6,3.475c-0.4,0.984-0.95,1.809-1.65,2.475c-0.7,0.667-1.525,1.167-2.475,1.5c-0.95,0.333-1.992,0.5-3.125,0.5
		c-1.5,0-2.809-0.317-3.925-0.95c-1.117-0.633-1.992-1.566-2.625-2.8c-0.633,1.234-1.508,2.167-2.625,2.8
		c-1.117,0.633-2.425,0.95-3.925,0.95c-1.134,0-2.175-0.167-3.125-0.5c-0.95-0.333-1.775-0.833-2.475-1.5
		c-0.7-0.667-1.25-1.491-1.65-2.475c-0.4-0.983-0.6-2.141-0.6-3.475V28.45z"/>
</g>
</svg>