<!-- Generator: Adobe Illustrator 21.0.0, SVG Export Plug-In  -->
<svg version="1.1"
	 xmlns="http://www.w3.org/2000/svg" xmlns:xlink="http://www.w3.org/1999/xlink" xmlns:a="http://ns.adobe.com/AdobeSVGViewerExtensions/3.0/"
	 x="0px" y="0px" width="27.281px" height="30px" viewBox="0 0 27.281 30" style="enable-background:new 0 0 27.281 30;"
	 xml:space="preserve">
<style type="text/css">
	.st0{fill:#FF0000;}
</style>
<defs>
</defs>
<g>
	<path class="st0" d="M22.43,10.319c0.103,0.103,0.257,0.134,0.463,0.093l3.8-0.803l-0.989,3.769
		c-0.082,0.268-0.144,0.494-0.185,0.68c-0.041,0.206-0.041,0.36,0,0.463c0.062,0.103,0.196,0.206,0.402,0.309l1.359,0.649
		l-6.581,5.53c-0.124,0.103-0.206,0.247-0.247,0.433c-0.082,0.144-0.082,0.309,0,0.494l0.556,1.977
		c-0.762-0.103-1.493-0.196-2.194-0.278c-0.742-0.082-1.462-0.175-2.163-0.278c-0.7-0.082-1.411-0.165-2.132-0.247L15.046,30h-2.657
		l0.463-6.89c-0.021,0-0.041,0-0.062,0c-0.742,0.082-1.473,0.165-2.194,0.247c-0.7,0.103-1.411,0.196-2.132,0.278
		c-0.7,0.082-1.431,0.175-2.194,0.278l0.618-1.977c0.021-0.185,0-0.35-0.062-0.494c-0.062-0.185-0.144-0.33-0.247-0.433L0,15.479
		l1.359-0.649c0.185-0.103,0.309-0.206,0.371-0.309c0.041-0.103,0.041-0.257,0-0.463c-0.041-0.185-0.093-0.412-0.154-0.68
		l-1.02-3.769l3.831,0.803c0.165,0.041,0.309,0.01,0.433-0.093c0.124-0.082,0.206-0.185,0.247-0.309l0.494-1.792l2.997,3.522
		c0.103,0.124,0.227,0.227,0.371,0.309c0.144,0.062,0.278,0.062,0.402,0c0.124-0.041,0.206-0.144,0.247-0.309
		c0.062-0.165,0.051-0.412-0.031-0.742L8.311,3.893L10.01,4.82c0.268,0.165,0.505,0.247,0.711,0.247
		c0.206-0.041,0.371-0.175,0.494-0.402L13.625,0l2.41,4.665c0.124,0.227,0.299,0.36,0.525,0.402c0.206,0,0.443-0.082,0.711-0.247
		l1.73-0.927l-1.298,7.106c-0.082,0.33-0.093,0.577-0.031,0.742c0.062,0.165,0.154,0.268,0.278,0.309
		c0.124,0.062,0.247,0.062,0.371,0c0.144-0.082,0.278-0.185,0.402-0.309l2.997-3.522l0.525,1.792
		C22.266,10.134,22.328,10.237,22.43,10.319"/>
</g>
</svg>