<!-- Generator: Adobe Illustrator 21.0.0, SVG Export Plug-In  -->
<svg version="1.1"
	 xmlns="http://www.w3.org/2000/svg" xmlns:xlink="http://www.w3.org/1999/xlink" xmlns:a="http://ns.adobe.com/AdobeSVGViewerExtensions/3.0/"
	 x="0px" y="0px" width="400px" height="213.068px" viewBox="0 0 400 213.068" style="enable-background:new 0 0 400 213.068;"
	 xml:space="preserve">
<style type="text/css">
	.st0{fill:none;stroke:#FF0000;stroke-width:20;stroke-linecap:round;stroke-linejoin:round;}
	.st1{fill:#FFFFFF;}
	.st2{fill:#FF0000;}
</style>
<defs>
	<symbol  id="New_Symbol_3" viewBox="-414.087 -75.752 831.887 151.359">
		<path class="st0" d="M342.576,65.576"/>
		<path class="st0" d="M320.968,42.883"/>
		<g>
			<g>
				<g>
					<path class="st1" d="M-235.405,64.259c0-40.4,0-80.799,0-121.199c0-5.776,0-11.553,0-17.329c0-3.354,6.145,0.578,6.945,1.204
						c2.624,2.056,5.546,5.279,5.546,8.806c0,40.4,0,80.799,0,121.199c0,5.776,0,11.553,0,17.329c0,3.354-6.145-0.578-6.945-1.204
						C-232.483,71.009-235.405,67.786-235.405,64.259L-235.405,64.259z"/>
				</g>
			</g>
			<g>
				<g>
					<path class="st1" d="M-168.577,64.259c0-40.4,0-80.799,0-121.199c0-5.776,0-11.553,0-17.329c3.75,3.75,7.5,7.5,11.25,11.25
						c-7.515,0-9.147,9.047-11.227,14.633c-3.802,10.213-7.604,20.426-11.406,30.639c-8.074,21.688-16.148,43.376-24.222,65.064
						c-3.299,8.86-7.988,18.14-18.972,18.682c-3.464,0.171-6.812-3.014-8.806-5.546c-0.685-0.871-4.504-6.782-1.204-6.945
						c9.466-0.466,13.482-8.117,16.321-15.744c3.468-9.315,6.935-18.63,10.403-27.944c8.396-22.553,16.792-45.107,25.188-67.66
						c2.551-6.852,4.719-17.67,13.915-17.67c4.961,0,11.25,6.298,11.25,11.25c0,40.4,0,80.799,0,121.199c0,5.776,0,11.553,0,17.329
						c0,3.354-6.145-0.578-6.945-1.204C-165.655,71.009-168.577,67.786-168.577,64.259L-168.577,64.259z"/>
				</g>
			</g>
		</g>
		<g>
			<g>
				<g>
					<path class="st1" d="M-316.492-65.405c8.818,39.871,17.635,79.742,26.453,119.614c1.083,4.899,3.179,10.441,3.422,15.475
						c0.002,0.036,0.022,0.071,0.024,0.106c-2.36-2.257-4.719-4.515-7.079-6.772c0.666,0.083,1.231-0.094,1.697-0.531
						c0.542-0.599,0.808-0.73,1.22-1.635c0.225-0.493,0.232-1.148,0.37-1.672c0.683-2.602,1.167-5.275,1.747-7.902
						c5.13-23.198,10.261-46.396,15.391-69.594c4.125-18.651,8.25-37.303,12.374-55.954c0.974-4.405,13.548,5.23,12.491,10.01
						c-9.133,41.297-18.266,82.595-27.399,123.892c-0.957,4.327-1.368,14.325-6.729,15.718c-7.324,1.902-14.929-7.394-16.563-13.5
						c-0.51-1.905-0.856-3.871-1.282-5.796c-5.113-23.12-10.226-46.241-15.339-69.361c-4.41-19.939-8.819-39.878-13.229-59.817
						c-0.808-3.653,3.695-2.028,5.285-1.1C-320.585-72.442-317.28-68.97-316.492-65.405L-316.492-65.405z"/>
				</g>
			</g>
			<g>
				<g>
					<path class="st1" d="M-320.077-40.99c13.963,0,27.926,0,41.889,0c3.525,0,6.735,2.915,8.806,5.546
						c0.616,0.783,4.508,6.945,1.204,6.945c-13.963,0-27.926,0-41.889,0c-3.525,0-6.735-2.915-8.806-5.546
						C-319.49-34.828-323.381-40.99-320.077-40.99L-320.077-40.99z"/>
				</g>
			</g>
		</g>
		<g>
			<g>
				<g>
					<path class="st1" d="M-135.082-40.99c13.778,0,27.556,0,41.334,0c3.525,0,6.735,2.915,8.806,5.546
						c0.616,0.783,4.508,6.945,1.204,6.945c-13.778,0-27.556,0-41.334,0c-3.525,0-6.735-2.915-8.806-5.546
						C-134.495-34.828-138.386-40.99-135.082-40.99L-135.082-40.99z"/>
				</g>
			</g>
			<g>
				<g>
					<path class="st1" d="M-131.497-65.405c8.818,39.871,17.635,79.742,26.453,119.614c1.083,4.899,3.179,10.441,3.422,15.475
						c0.002,0.036,0.022,0.071,0.024,0.106c-2.36-2.257-4.719-4.515-7.079-6.772c0.666,0.083,1.231-0.094,1.697-0.531
						c0.542-0.599,0.808-0.73,1.22-1.635c0.225-0.493,0.232-1.148,0.37-1.672c0.683-2.602,1.167-5.275,1.747-7.902
						c5.13-23.198,10.261-46.396,15.391-69.594c4.125-18.651,8.25-37.303,12.374-55.954c0.974-4.405,13.548,5.23,12.491,10.01
						c-9.133,41.297-18.266,82.595-27.399,123.892c-0.957,4.327-1.368,14.325-6.729,15.718c-7.324,1.902-14.929-7.394-16.563-13.5
						c-0.51-1.905-0.856-3.871-1.282-5.796c-5.113-23.12-10.226-46.241-15.339-69.361c-4.41-19.939-8.819-39.878-13.229-59.817
						c-0.808-3.653,3.695-2.028,5.285-1.1C-135.589-72.442-132.285-68.97-131.497-65.405L-131.497-65.405z"/>
				</g>
			</g>
		</g>
		<g>
			<g>
				<g>
					<path class="st1" d="M41.047-40.99c13.482,0,26.964,0,40.446,0c3.525,0,6.735,2.915,8.806,5.546
						c0.616,0.783,4.508,6.945,1.204,6.945c-13.482,0-26.964,0-40.446,0c-3.525,0-6.735-2.915-8.806-5.546
						C41.635-34.828,37.744-40.99,41.047-40.99L41.047-40.99z"/>
				</g>
			</g>
			<g>
				<g>
					<path class="st1" d="M44.633-65.405c8.818,39.871,17.635,79.742,26.453,119.614c1.083,4.899,3.179,10.441,3.422,15.475
						c0.002,0.036,0.022,0.071,0.024,0.106c-2.36-2.257-4.719-4.515-7.079-6.772c0.666,0.083,1.231-0.094,1.697-0.531
						c0.542-0.599,0.808-0.73,1.22-1.635c0.225-0.493,0.232-1.148,0.37-1.672c0.683-2.602,1.167-5.275,1.747-7.902
						c5.13-23.198,10.261-46.396,15.391-69.594c4.125-18.651,8.25-37.303,12.374-55.954c0.974-4.405,13.548,5.23,12.491,10.01
						c-9.133,41.297-18.266,82.595-27.399,123.892c-0.957,4.327-1.368,14.325-6.729,15.718c-7.324,1.902-14.929-7.394-16.563-13.5
						c-0.51-1.905-0.856-3.871-1.282-5.796c-5.113-23.12-10.226-46.241-15.339-69.361c-4.41-19.939-8.819-39.878-13.229-59.817
						c-0.808-3.653,3.695-2.028,5.285-1.1C40.54-72.442,43.845-68.97,44.633-65.405L44.633-65.405z"/>
				</g>
			</g>
		</g>
		<g>
			<g>
				<path class="st1" d="M-345.966-40.229c-0.2-9.906-4.739-18.452-14.455-21.482c-10.171-3.172-21.655-0.391-29.659,6.475
					c-7.486,6.422-11.308,15.393-11.475,25.183c-0.059,3.488,0,6.982,0,10.47c0,14.809,0,29.618,0,44.428
					c0,10.341-1.897,24.109,6.058,32.116c7.787,7.838,21.907,7.339,31.191,2.843c11.389-5.515,18.088-17.128,18.34-29.585
					c0.068-3.35,6.111,0.55,6.945,1.204c2.624,2.056,5.546,5.279,5.546,8.806c0,11.347,0,22.693,0,34.04
					c0,3.354-6.145-0.578-6.945-1.204c-2.624-2.056-5.546-5.279-5.546-8.806c0-11.347,0-22.693,0-34.04
					c4.164,3.337,8.327,6.673,12.491,10.01c-0.552,27.294-29.657,42.955-53.454,31.01c-12.307-6.177-22.339-17.666-25.923-31.045
					c-1.499-5.593-1.194-11.438-1.194-17.175c0-17.033,0-34.066,0-51.099c0-4.28-0.102-8.573,0.014-12.851
					c0.343-12.653,7.599-24.447,18.794-30.368c27.988-14.803,61.171,11.859,61.762,41.079c0.068,3.355-6.18-0.604-6.945-1.204
					C-343.091-33.516-345.894-36.678-345.966-40.229L-345.966-40.229z"/>
			</g>
		</g>
		<g>
			<g>
				<path class="st1" d="M-48.405,64.259c0-40.4,0-80.799,0-121.199c0-5.776,0-11.553,0-17.329c0.136-0.691,0.549-1.105,1.241-1.241
					c7.244,0,14.619-0.395,21.846,0.202c13.351,1.103,25.756,7.563,35.489,16.566c9.829,9.093,17.231,21.15,19.62,34.425
					c1.093,6.074,0.827,12.317,0.827,18.466c0,16.072,0.036,32.144,0,48.216c-0.021,9.172-2.903,17.911-9.661,24.388
					c-8.022,7.689-17.79,8.756-28.302,8.756c-5.225,0-10.22,0.004-15.24-1.745c-7.694-2.681-14.396-8.306-19.13-14.851
					c-6.911-9.554-6.689-19.503-6.689-30.669c0-3.354,6.145,0.578,6.945,1.204c2.624,2.056,5.546,5.279,5.546,8.806
					c0,6.052-0.96,13.194,1.755,18.809c3.005,6.216,10.834,5.954,16.803,5.954c7.772,0,15.295,0.05,22.131-4.358
					c8.457-5.453,13.157-14.447,13.351-24.424c0.196-10.071,0-20.166,0-30.239c0-10.353,0.685-20.958-0.141-31.291
					C16.385-47.328,2.437-61.278-17.6-62.878c-5.831-0.466-12.109,0.836-17.835-0.141c-0.189-0.032-1.271,0.149-1.419,0
					c-0.037,0-0.074,0-0.112,0c-0.665,0.027-0.314-0.383,1.052-1.231c0.053,0.108-0.076,0.363,0,0.451c0.271,0.313,0,2.029,0,2.473
					c0,23.275,0,46.551,0,69.826c0,21.923,0,43.846,0,65.769c0,3.354-6.145-0.578-6.945-1.204
					C-45.483,71.009-48.405,67.786-48.405,64.259L-48.405,64.259z"/>
			</g>
		</g>
		<path class="st0" d="M165.504-7.306c7.722-0.172,14.341-3.011,19.857-8.517c5.688-5.688,8.532-12.56,8.532-20.616
			c0-8.046-2.844-14.918-8.532-20.616c-5.698-5.688-12.57-8.532-20.616-8.532s-14.918,2.844-20.616,8.532
			c-5.688,5.698-8.532,12.57-8.532,20.616c0,8.056,2.844,14.928,8.532,20.616c5.516,5.506,12.14,8.345,19.873,8.517
			c0.243,0.01,0.491,0.015,0.744,0.015C164.998-7.291,165.251-7.296,165.504-7.306c-0.253,0-0.506,0-0.759,0
			c-0.253,0-0.501,0-0.744,0"/>
		<path class="st0" d="M177.311,65.576h-25.133c-13.807,0-25-11.193-25-25V17.694c0-13.807,11.193-25,25-25h25.133
			c13.807,0,25,11.193,25,25v22.882C202.311,54.384,191.118,65.576,177.311,65.576z"/>
		<path class="st0" d="M283.51,65.576h-25.133c-13.807,0-25-11.193-25-25v-81.328c0-13.807,11.193-25,25-25h25.133
			c13.807,0,25,11.193,25,25v81.328C308.51,54.384,297.317,65.576,283.51,65.576z"/>
		<path class="st0" d="M342.576,65.576"/>
		<path class="st0" d="M370.3,65.576V-7.29v-33.461c0-13.807,11.193-25,25-25"/>
		<line class="st0" x1="332.8" y1="65.576" x2="407.8" y2="65.576"/>
	</symbol>
</defs>
<use xlink:href="#New_Symbol_3"  width="831.887" height="151.359" id="XMLID_1_" x="-414.087" y="-75.752" transform="matrix(0.4808 0 0 -0.4808 199.1073 176.6443)" style="overflow:visible;"/>
<g id="New_Symbol_7_copy">
	<g>
		<g>
			<path class="st2" d="M217.615,20.669c0.206,0.206,0.516,0.268,0.928,0.186l7.611-1.609l-1.98,7.55
				c-0.165,0.536-0.289,0.99-0.371,1.361c-0.083,0.413-0.083,0.722,0,0.928c0.124,0.206,0.392,0.413,0.804,0.619l2.723,1.3
				L214.15,42.08c-0.248,0.206-0.413,0.495-0.495,0.866c-0.165,0.289-0.165,0.619,0,0.99l1.114,3.96
				c-1.526-0.206-2.991-0.392-4.394-0.557c-1.485-0.165-2.929-0.351-4.332-0.557c-1.403-0.165-2.826-0.33-4.27-0.495l1.052,13.8
				h-5.322l0.928-13.8c-0.041,0-0.082,0-0.124,0c-1.485,0.165-2.95,0.33-4.394,0.495c-1.403,0.206-2.826,0.392-4.27,0.557
				c-1.403,0.165-2.867,0.351-4.394,0.557l1.238-3.96c0.041-0.371,0-0.701-0.124-0.99c-0.124-0.371-0.289-0.66-0.495-0.866
				l-13.181-11.077l2.723-1.3c0.371-0.206,0.619-0.413,0.743-0.619c0.082-0.206,0.082-0.516,0-0.928
				c-0.083-0.371-0.186-0.825-0.309-1.361l-2.042-7.55l7.673,1.609c0.33,0.083,0.619,0.021,0.866-0.186
				c0.247-0.165,0.413-0.371,0.495-0.619l0.99-3.589l6.003,7.055c0.206,0.248,0.454,0.454,0.743,0.619
				c0.289,0.124,0.557,0.124,0.805,0c0.248-0.083,0.413-0.289,0.495-0.619c0.124-0.33,0.103-0.825-0.062-1.485l-2.475-14.233
				l3.404,1.856c0.536,0.33,1.011,0.495,1.423,0.495c0.413-0.082,0.743-0.351,0.99-0.804L199.979,0l4.827,9.344
				c0.248,0.454,0.598,0.722,1.052,0.804c0.413,0,0.887-0.165,1.423-0.495l3.465-1.856l-2.599,14.233
				c-0.165,0.66-0.186,1.155-0.062,1.485s0.309,0.536,0.557,0.619c0.247,0.124,0.495,0.124,0.743,0
				c0.289-0.165,0.557-0.371,0.804-0.619l6.003-7.055l1.052,3.589C217.285,20.297,217.409,20.504,217.615,20.669"/>
		</g>
	</g>
</g>
</svg>