<!-- Generator: Adobe Illustrator 21.0.0, SVG Export Plug-In  -->
<svg version="1.1"
	 xmlns="http://www.w3.org/2000/svg" xmlns:xlink="http://www.w3.org/1999/xlink" xmlns:a="http://ns.adobe.com/AdobeSVGViewerExtensions/3.0/"
	 x="0px" y="0px" width="280.531px" height="13.572px" viewBox="0 0 280.531 13.572"
	 style="enable-background:new 0 0 280.531 13.572;" xml:space="preserve">
<style type="text/css">
	.st0{fill:#C4C4C4;}
	.st1{font-family:'TitilliumWeb-Regular';}
	.st2{font-size:12px;}
</style>
<defs>
</defs>
<g>
	<g>
		<path class="st0" d="M6.036,10.02c-0.824,0.168-1.564,0.252-2.22,0.252s-1.186-0.09-1.59-0.27C1.822,9.822,1.51,9.541,1.29,9.162
			C1.07,8.781,0.918,8.346,0.834,7.854S0.708,6.748,0.708,6.012S0.75,4.658,0.834,4.158S1.07,3.217,1.29,2.832
			c0.22-0.385,0.53-0.664,0.93-0.84c0.4-0.176,0.919-0.264,1.56-0.264s1.392,0.088,2.256,0.264L6,2.771
			C5.192,2.627,4.472,2.557,3.84,2.557c-0.88,0-1.462,0.262-1.746,0.785C1.81,3.865,1.668,4.76,1.668,6.023
			c0,0.633,0.026,1.141,0.078,1.525C1.798,7.932,1.9,8.277,2.052,8.586c0.152,0.309,0.374,0.527,0.666,0.66
			c0.292,0.131,0.72,0.197,1.284,0.197S5.232,9.371,6,9.229L6.036,10.02z"/>
		<path class="st0" d="M11.628,5.963v3.072c0.024,0.297,0.256,0.473,0.696,0.529l-0.036,0.707c-0.632,0-1.108-0.16-1.428-0.48
			c-0.72,0.32-1.44,0.48-2.16,0.48c-0.552,0-0.972-0.156-1.26-0.467C7.152,9.492,7.008,9.043,7.008,8.459
			c0-0.582,0.148-1.014,0.444-1.289s0.76-0.445,1.392-0.51l1.884-0.18V5.963c0-0.406-0.088-0.699-0.264-0.875
			c-0.176-0.176-0.416-0.264-0.72-0.264c-0.64,0-1.304,0.039-1.992,0.119L7.38,4.98L7.344,4.295c0.88-0.176,1.66-0.264,2.34-0.264
			c0.68,0,1.174,0.156,1.482,0.469C11.474,4.812,11.628,5.301,11.628,5.963z M7.932,8.412c0,0.736,0.304,1.104,0.912,1.104
			c0.544,0,1.08-0.092,1.608-0.275l0.276-0.096v-1.98L8.952,7.332c-0.36,0.031-0.62,0.137-0.78,0.312
			C8.012,7.82,7.932,8.076,7.932,8.412z"/>
		<path class="st0" d="M14.304,10.152h-0.9v-6h0.888v0.42c0.648-0.361,1.268-0.541,1.86-0.541c0.8,0,1.338,0.217,1.614,0.648
			s0.414,1.199,0.414,2.305v3.168h-0.888V7.008c0-0.832-0.082-1.402-0.246-1.709c-0.164-0.309-0.514-0.463-1.05-0.463
			c-0.256,0-0.526,0.037-0.81,0.113c-0.284,0.076-0.502,0.15-0.654,0.223l-0.228,0.107V10.152z"/>
		<path class="st0" d="M24.083,5.963v3.072c0.024,0.297,0.256,0.473,0.696,0.529l-0.036,0.707c-0.632,0-1.108-0.16-1.428-0.48
			c-0.72,0.32-1.44,0.48-2.16,0.48c-0.552,0-0.972-0.156-1.26-0.467c-0.288-0.312-0.432-0.762-0.432-1.346
			c0-0.582,0.148-1.014,0.444-1.289s0.76-0.445,1.392-0.51l1.884-0.18V5.963c0-0.406-0.088-0.699-0.264-0.875
			c-0.176-0.176-0.416-0.264-0.72-0.264c-0.64,0-1.304,0.039-1.992,0.119L19.835,4.98l-0.036-0.686
			c0.88-0.176,1.66-0.264,2.34-0.264c0.68,0,1.174,0.156,1.482,0.469C23.929,4.812,24.083,5.301,24.083,5.963z M20.387,8.412
			c0,0.736,0.304,1.104,0.912,1.104c0.544,0,1.08-0.092,1.608-0.275l0.276-0.096v-1.98l-1.776,0.168
			c-0.36,0.031-0.62,0.137-0.78,0.312C20.467,7.82,20.387,8.076,20.387,8.412z"/>
		<path class="st0" d="M30.468,1.535v8.617H29.58V9.744c-0.616,0.352-1.224,0.527-1.824,0.527c-0.32,0-0.6-0.039-0.84-0.119
			c-0.24-0.08-0.464-0.225-0.672-0.432c-0.432-0.434-0.648-1.23-0.648-2.395s0.194-2.004,0.582-2.52
			c0.388-0.518,1.03-0.775,1.926-0.775c0.464,0,0.956,0.053,1.476,0.156V1.535H30.468z M27.348,9.385
			c0.144,0.055,0.33,0.084,0.558,0.084s0.484-0.039,0.768-0.115c0.284-0.076,0.506-0.15,0.666-0.221l0.24-0.109V4.955
			c-0.512-0.096-0.988-0.143-1.428-0.143c-0.608,0-1.032,0.193-1.272,0.582c-0.24,0.387-0.36,0.99-0.36,1.805
			c0,0.93,0.14,1.553,0.42,1.873C27.067,9.225,27.204,9.328,27.348,9.385z"/>
		<path class="st0" d="M36.443,5.963v3.072c0.024,0.297,0.256,0.473,0.696,0.529l-0.036,0.707c-0.632,0-1.108-0.16-1.428-0.48
			c-0.72,0.32-1.44,0.48-2.16,0.48c-0.552,0-0.972-0.156-1.26-0.467c-0.288-0.312-0.432-0.762-0.432-1.346
			c0-0.582,0.148-1.014,0.444-1.289s0.76-0.445,1.392-0.51l1.884-0.18V5.963c0-0.406-0.088-0.699-0.264-0.875
			c-0.176-0.176-0.416-0.264-0.72-0.264c-0.64,0-1.304,0.039-1.992,0.119L32.195,4.98l-0.036-0.686
			c0.88-0.176,1.66-0.264,2.34-0.264c0.68,0,1.174,0.156,1.482,0.469C36.289,4.812,36.443,5.301,36.443,5.963z M32.747,8.412
			c0,0.736,0.304,1.104,0.912,1.104c0.544,0,1.08-0.092,1.608-0.275l0.276-0.096v-1.98l-1.776,0.168
			c-0.36,0.031-0.62,0.137-0.78,0.312C32.827,7.82,32.747,8.076,32.747,8.412z"/>
		<path class="st0" d="M38.375,1.848h3.012c0.824,0,1.441,0.17,1.854,0.51c0.412,0.34,0.618,0.875,0.618,1.602
			c0,0.521-0.09,0.928-0.27,1.219c-0.18,0.293-0.446,0.521-0.798,0.689c0.88,0.305,1.32,0.957,1.32,1.957
			c0,0.832-0.22,1.428-0.66,1.787c-0.44,0.361-1.076,0.541-1.908,0.541h-3.168V1.848z M41.352,2.664h-2.052v2.867h2.136
			c0.512,0,0.886-0.121,1.122-0.365c0.236-0.244,0.354-0.611,0.354-1.104s-0.126-0.848-0.378-1.068
			C42.281,2.773,41.887,2.664,41.352,2.664z M41.447,6.336h-2.148v3h2.208c0.544,0,0.958-0.113,1.242-0.342
			c0.284-0.229,0.426-0.631,0.426-1.207c0-0.303-0.058-0.559-0.174-0.768c-0.116-0.207-0.27-0.355-0.462-0.443
			C42.188,6.416,41.823,6.336,41.447,6.336z"/>
		<path class="st0" d="M45.347,7.141c0-1.098,0.196-1.889,0.588-2.377s1.054-0.732,1.986-0.732s1.592,0.244,1.98,0.732
			c0.388,0.488,0.582,1.279,0.582,2.377c0,1.096-0.184,1.891-0.552,2.387c-0.368,0.496-1.04,0.744-2.016,0.744
			s-1.648-0.248-2.016-0.744C45.531,9.031,45.347,8.236,45.347,7.141z M46.271,7.121c0,0.877,0.106,1.49,0.318,1.842
			c0.212,0.354,0.656,0.529,1.332,0.529c0.676,0,1.118-0.174,1.326-0.521c0.208-0.35,0.312-0.963,0.312-1.844
			c0-0.879-0.116-1.484-0.348-1.816s-0.662-0.498-1.29-0.498s-1.06,0.166-1.296,0.498S46.271,6.246,46.271,7.121z"/>
		<path class="st0" d="M55.007,4.932h-1.908v2.869c0,0.688,0.05,1.139,0.15,1.355c0.1,0.215,0.338,0.324,0.714,0.324l1.068-0.072
			l0.06,0.744c-0.536,0.088-0.944,0.131-1.224,0.131c-0.624,0-1.056-0.15-1.296-0.455c-0.24-0.305-0.36-0.885-0.36-1.74V4.932
			h-0.852V4.152h0.852V2.316h0.888v1.836h1.908V4.932z"/>
		<path class="st0" d="M59.135,8.221c-0.912,0-1.67-0.316-2.274-0.949c-0.604-0.631-0.906-1.41-0.906-2.334s0.3-1.699,0.9-2.328
			c0.6-0.627,1.356-0.941,2.268-0.941s1.666,0.318,2.262,0.953c0.596,0.637,0.894,1.414,0.894,2.334s-0.296,1.695-0.888,2.322
			C60.799,7.906,60.047,8.221,59.135,8.221z M57.239,2.988c-0.504,0.535-0.756,1.188-0.756,1.955s0.25,1.418,0.75,1.951
			c0.5,0.531,1.126,0.797,1.878,0.797s1.38-0.266,1.884-0.797c0.504-0.533,0.756-1.184,0.756-1.951s-0.252-1.42-0.756-1.955
			c-0.504-0.537-1.13-0.805-1.878-0.805S57.743,2.451,57.239,2.988z M59.159,6.84c-0.52,0-0.884-0.15-1.092-0.449
			c-0.208-0.301-0.312-0.781-0.312-1.441s0.106-1.139,0.318-1.439c0.212-0.301,0.578-0.449,1.098-0.449
			c0.296,0,0.564,0.027,0.804,0.084l0.12,0.035l-0.048,0.637c-0.304-0.049-0.594-0.072-0.87-0.072c-0.276,0-0.46,0.09-0.552,0.27
			s-0.138,0.484-0.138,0.912s0.05,0.74,0.15,0.936c0.1,0.197,0.29,0.295,0.57,0.295l0.84-0.084l0.048,0.623
			C59.799,6.791,59.487,6.84,59.159,6.84z"/>
		<path class="st0" d="M71.519,10.152h-5.064V9.371l2.316-2.436c0.4-0.416,0.692-0.732,0.876-0.947
			c0.184-0.217,0.35-0.473,0.498-0.768c0.148-0.297,0.222-0.594,0.222-0.889c0-0.512-0.14-0.871-0.42-1.08
			c-0.28-0.209-0.716-0.312-1.308-0.312c-0.521,0-1.1,0.068-1.74,0.205l-0.312,0.059l-0.072-0.768
			c0.76-0.215,1.543-0.324,2.352-0.324c0.808,0,1.417,0.17,1.83,0.51c0.412,0.342,0.618,0.879,0.618,1.615
			c0,0.561-0.124,1.047-0.372,1.463s-0.676,0.916-1.284,1.5l-2.112,2.148h3.972V10.152z"/>
		<path class="st0" d="M75.695,2.1c0.656,0,1.188,0.125,1.596,0.373c0.864,0.512,1.296,1.791,1.296,3.84
			c0,1.447-0.24,2.469-0.72,3.064c-0.48,0.598-1.2,0.895-2.16,0.895s-1.682-0.293-2.166-0.881s-0.726-1.637-0.726-3.145
			s0.238-2.576,0.714-3.205C74.005,2.414,74.727,2.1,75.695,2.1z M75.707,2.928c-0.456,0-0.816,0.096-1.08,0.289
			c-0.568,0.391-0.852,1.428-0.852,3.107c0,1.184,0.156,2.002,0.468,2.453c0.312,0.453,0.8,0.678,1.464,0.678
			s1.152-0.227,1.464-0.684c0.312-0.455,0.468-1.301,0.468-2.537s-0.15-2.096-0.45-2.58C76.889,3.17,76.395,2.928,75.707,2.928z"/>
		<path class="st0" d="M83.735,2.232v7.92h-0.924V3.264l-2.04,1.344l-0.42-0.695l2.52-1.68H83.735z"/>
		<path class="st0" d="M86.711,3.072v-0.84h4.92v1.211l-3.048,6.828l-0.876-0.275l2.988-6.611V3.072H86.711z"/>
		<path class="st0" d="M93.311,10.152V8.783h0.984v1.369H93.311z"/>
		<path class="st0" d="M103.775,10.02c-0.824,0.168-1.564,0.252-2.22,0.252s-1.186-0.09-1.59-0.27
			c-0.404-0.18-0.716-0.461-0.936-0.84c-0.22-0.381-0.372-0.816-0.456-1.309s-0.126-1.105-0.126-1.842s0.042-1.354,0.126-1.854
			s0.236-0.941,0.456-1.326c0.22-0.385,0.53-0.664,0.93-0.84c0.4-0.176,0.919-0.264,1.56-0.264s1.392,0.088,2.256,0.264
			l-0.036,0.779c-0.808-0.145-1.528-0.215-2.16-0.215c-0.88,0-1.462,0.262-1.746,0.785c-0.284,0.523-0.426,1.418-0.426,2.682
			c0,0.633,0.026,1.141,0.078,1.525c0.052,0.383,0.154,0.729,0.306,1.037c0.152,0.309,0.374,0.527,0.666,0.66
			c0.292,0.131,0.72,0.197,1.284,0.197s1.23-0.072,1.998-0.215L103.775,10.02z"/>
		<path class="st0" d="M105.083,10.152v-6h0.888v0.816c0.696-0.48,1.428-0.797,2.196-0.949v0.912
			c-0.336,0.064-0.687,0.164-1.05,0.301c-0.364,0.135-0.642,0.256-0.834,0.359l-0.3,0.156v4.404H105.083z"/>
		<path class="st0" d="M113.194,9.408l0.348-0.037l0.024,0.709c-0.912,0.127-1.692,0.191-2.34,0.191c-0.864,0-1.476-0.25-1.836-0.75
			c-0.36-0.5-0.54-1.277-0.54-2.334c0-2.104,0.836-3.156,2.508-3.156c0.808,0,1.412,0.227,1.812,0.678
			c0.4,0.453,0.6,1.162,0.6,2.131l-0.048,0.684h-3.96c0,0.664,0.12,1.156,0.36,1.477c0.24,0.32,0.658,0.48,1.254,0.48
			C111.972,9.48,112.578,9.455,113.194,9.408z M112.871,6.805c0-0.736-0.118-1.256-0.354-1.561c-0.236-0.305-0.62-0.457-1.152-0.457
			c-0.532,0-0.932,0.16-1.2,0.48s-0.406,0.832-0.414,1.537H112.871z"/>
		<path class="st0" d="M119.411,5.963v3.072c0.024,0.297,0.256,0.473,0.696,0.529l-0.036,0.707c-0.632,0-1.108-0.16-1.428-0.48
			c-0.72,0.32-1.44,0.48-2.16,0.48c-0.552,0-0.972-0.156-1.26-0.467c-0.288-0.312-0.432-0.762-0.432-1.346
			c0-0.582,0.148-1.014,0.444-1.289s0.76-0.445,1.392-0.51l1.884-0.18V5.963c0-0.406-0.088-0.699-0.264-0.875
			c-0.176-0.176-0.416-0.264-0.72-0.264c-0.64,0-1.304,0.039-1.992,0.119l-0.372,0.037l-0.036-0.686
			c0.88-0.176,1.66-0.264,2.34-0.264c0.68,0,1.174,0.156,1.482,0.469C119.256,4.812,119.411,5.301,119.411,5.963z M115.714,8.412
			c0,0.736,0.304,1.104,0.912,1.104c0.544,0,1.08-0.092,1.608-0.275l0.276-0.096v-1.98l-1.776,0.168
			c-0.36,0.031-0.62,0.137-0.78,0.312C115.794,7.82,115.714,8.076,115.714,8.412z"/>
		<path class="st0" d="M124.294,4.932h-1.908v2.869c0,0.688,0.05,1.139,0.15,1.355c0.1,0.215,0.338,0.324,0.714,0.324l1.068-0.072
			l0.06,0.744c-0.536,0.088-0.944,0.131-1.224,0.131c-0.624,0-1.056-0.15-1.296-0.455c-0.24-0.305-0.36-0.885-0.36-1.74V4.932
			h-0.852V4.152h0.852V2.316h0.888v1.836h1.908V4.932z"/>
		<path class="st0" d="M129.478,9.408l0.348-0.037l0.024,0.709c-0.912,0.127-1.692,0.191-2.34,0.191c-0.864,0-1.476-0.25-1.836-0.75
			c-0.36-0.5-0.54-1.277-0.54-2.334c0-2.104,0.836-3.156,2.508-3.156c0.808,0,1.412,0.227,1.812,0.678
			c0.4,0.453,0.6,1.162,0.6,2.131l-0.048,0.684h-3.96c0,0.664,0.12,1.156,0.36,1.477c0.24,0.32,0.658,0.48,1.254,0.48
			C128.256,9.48,128.862,9.455,129.478,9.408z M129.154,6.805c0-0.736-0.118-1.256-0.354-1.561c-0.236-0.305-0.62-0.457-1.152-0.457
			c-0.532,0-0.932,0.16-1.2,0.48s-0.406,0.832-0.414,1.537H129.154z"/>
		<path class="st0" d="M136.066,1.535v8.617h-0.888V9.744c-0.616,0.352-1.224,0.527-1.824,0.527c-0.32,0-0.6-0.039-0.84-0.119
			c-0.24-0.08-0.464-0.225-0.672-0.432c-0.432-0.434-0.648-1.23-0.648-2.395s0.194-2.004,0.582-2.52
			c0.388-0.518,1.03-0.775,1.926-0.775c0.464,0,0.956,0.053,1.476,0.156V1.535H136.066z M132.946,9.385
			c0.144,0.055,0.33,0.084,0.558,0.084s0.484-0.039,0.768-0.115c0.284-0.076,0.506-0.15,0.666-0.221l0.24-0.109V4.955
			c-0.512-0.096-0.988-0.143-1.428-0.143c-0.608,0-1.032,0.193-1.272,0.582c-0.24,0.387-0.36,0.99-0.36,1.805
			c0,0.93,0.14,1.553,0.42,1.873C132.666,9.225,132.802,9.328,132.946,9.385z"/>
		<path class="st0" d="M143.098,4.031c0.808,0,1.374,0.23,1.698,0.691c0.324,0.459,0.486,1.266,0.486,2.418
			c0,1.15-0.202,1.961-0.606,2.43c-0.404,0.467-1.146,0.701-2.226,0.701c-0.336,0-0.892-0.031-1.668-0.096l-0.336-0.035V1.535h0.888
			v2.916C141.942,4.172,142.53,4.031,143.098,4.031z M142.438,9.469c0.784,0,1.302-0.18,1.554-0.535s0.378-0.957,0.378-1.807
			c0-0.848-0.1-1.441-0.3-1.781c-0.2-0.34-0.556-0.51-1.068-0.51c-0.464,0-0.94,0.088-1.428,0.264l-0.24,0.084v4.225
			C141.854,9.447,142.222,9.469,142.438,9.469z"/>
		<path class="st0" d="M146.085,4.152h0.9l1.5,5.219h0.396l1.512-5.219h0.9l-2.496,8.664h-0.9l0.78-2.664h-0.888L146.085,4.152z"/>
		<path class="st0" d="M159.958,1.848h0.96l-2.172,8.305h-2.064l-2.172-8.305h0.96l1.908,7.488h0.672L159.958,1.848z"/>
		<path class="st0" d="M165.981,5.963v3.072c0.024,0.297,0.256,0.473,0.696,0.529l-0.036,0.707c-0.632,0-1.108-0.16-1.428-0.48
			c-0.72,0.32-1.44,0.48-2.16,0.48c-0.552,0-0.972-0.156-1.26-0.467c-0.288-0.312-0.432-0.762-0.432-1.346
			c0-0.582,0.148-1.014,0.444-1.289s0.76-0.445,1.392-0.51l1.884-0.18V5.963c0-0.406-0.088-0.699-0.264-0.875
			c-0.176-0.176-0.416-0.264-0.72-0.264c-0.64,0-1.304,0.039-1.992,0.119l-0.372,0.037l-0.036-0.686
			c0.88-0.176,1.66-0.264,2.34-0.264c0.68,0,1.174,0.156,1.482,0.469C165.827,4.812,165.981,5.301,165.981,5.963z M162.285,8.412
			c0,0.736,0.304,1.104,0.912,1.104c0.544,0,1.08-0.092,1.608-0.275l0.276-0.096v-1.98l-1.776,0.168
			c-0.36,0.031-0.62,0.137-0.78,0.312C162.365,7.82,162.285,8.076,162.285,8.412z"/>
		<path class="st0" d="M168.658,10.152h-0.9v-6h0.888v0.42c0.648-0.361,1.268-0.541,1.86-0.541c0.8,0,1.338,0.217,1.614,0.648
			s0.414,1.199,0.414,2.305v3.168h-0.888V7.008c0-0.832-0.082-1.402-0.246-1.709c-0.164-0.309-0.514-0.463-1.05-0.463
			c-0.256,0-0.526,0.037-0.81,0.113c-0.284,0.076-0.502,0.15-0.654,0.223l-0.228,0.107V10.152z"/>
		<path class="st0" d="M179.505,10.152V6.396h-4.224v3.756h-0.924V1.848h0.924v3.721h4.224V1.848h0.912v8.305H179.505z"/>
		<path class="st0" d="M186.537,5.963v3.072c0.024,0.297,0.256,0.473,0.696,0.529l-0.036,0.707c-0.632,0-1.108-0.16-1.428-0.48
			c-0.72,0.32-1.44,0.48-2.16,0.48c-0.552,0-0.972-0.156-1.26-0.467c-0.288-0.312-0.432-0.762-0.432-1.346
			c0-0.582,0.148-1.014,0.444-1.289s0.76-0.445,1.392-0.51l1.884-0.18V5.963c0-0.406-0.088-0.699-0.264-0.875
			c-0.176-0.176-0.416-0.264-0.72-0.264c-0.64,0-1.304,0.039-1.992,0.119l-0.372,0.037l-0.036-0.686
			c0.88-0.176,1.66-0.264,2.34-0.264c0.68,0,1.174,0.156,1.482,0.469C186.383,4.812,186.537,5.301,186.537,5.963z M182.841,8.412
			c0,0.736,0.304,1.104,0.912,1.104c0.544,0,1.08-0.092,1.608-0.275l0.276-0.096v-1.98l-1.776,0.168
			c-0.36,0.031-0.62,0.137-0.78,0.312C182.921,7.82,182.841,8.076,182.841,8.412z"/>
		<path class="st0" d="M190.557,4.031c0.264,0,0.712,0.049,1.344,0.145l0.288,0.035l-0.036,0.732
			c-0.64-0.072-1.112-0.107-1.416-0.107c-0.68,0-1.142,0.162-1.386,0.486s-0.366,0.924-0.366,1.799c0,0.877,0.114,1.486,0.342,1.83
			c0.228,0.346,0.702,0.518,1.422,0.518l1.416-0.109l0.036,0.744c-0.744,0.111-1.3,0.168-1.668,0.168
			c-0.936,0-1.582-0.24-1.938-0.719c-0.356-0.48-0.534-1.291-0.534-2.432c0-1.139,0.192-1.939,0.576-2.398
			C189.021,4.262,189.661,4.031,190.557,4.031z"/>
		<path class="st0" d="M194.445,10.152h-0.9V1.535h0.9v5.088l0.936-0.047l1.716-2.424h1.02l-1.956,2.76l2.04,3.24h-1.02
			l-1.788-2.785l-0.948,0.037V10.152z"/>
		<path class="st0" d="M203.217,9.408l0.348-0.037l0.024,0.709c-0.912,0.127-1.692,0.191-2.34,0.191c-0.864,0-1.476-0.25-1.836-0.75
			c-0.36-0.5-0.54-1.277-0.54-2.334c0-2.104,0.836-3.156,2.508-3.156c0.808,0,1.412,0.227,1.812,0.678
			c0.4,0.453,0.6,1.162,0.6,2.131l-0.048,0.684h-3.96c0,0.664,0.12,1.156,0.36,1.477c0.24,0.32,0.658,0.48,1.254,0.48
			C201.995,9.48,202.601,9.455,203.217,9.408z M202.893,6.805c0-0.736-0.118-1.256-0.354-1.561c-0.236-0.305-0.62-0.457-1.152-0.457
			c-0.532,0-0.932,0.16-1.2,0.48s-0.406,0.832-0.414,1.537H202.893z"/>
		<path class="st0" d="M205.196,10.152v-6h0.888v0.816c0.696-0.48,1.428-0.797,2.196-0.949v0.912
			c-0.336,0.064-0.687,0.164-1.05,0.301c-0.364,0.135-0.642,0.256-0.834,0.359l-0.3,0.156v4.404H205.196z"/>
		<path class="st0" d="M211.232,4.836c-0.872,0-1.308,0.305-1.308,0.912c0,0.279,0.1,0.479,0.3,0.594
			c0.2,0.115,0.656,0.236,1.368,0.359c0.712,0.125,1.216,0.299,1.512,0.523c0.296,0.223,0.444,0.643,0.444,1.26
			c0,0.615-0.198,1.068-0.594,1.355s-0.974,0.432-1.734,0.432c-0.496,0-1.08-0.057-1.752-0.168l-0.36-0.061l0.048-0.779
			c0.912,0.137,1.6,0.205,2.064,0.205s0.818-0.074,1.062-0.223s0.366-0.396,0.366-0.744s-0.104-0.584-0.312-0.709
			c-0.208-0.123-0.664-0.24-1.368-0.354c-0.704-0.111-1.204-0.275-1.5-0.492c-0.296-0.215-0.444-0.615-0.444-1.199
			s0.206-1.016,0.618-1.297c0.412-0.279,0.926-0.42,1.542-0.42c0.488,0,1.1,0.057,1.836,0.168l0.336,0.061l-0.024,0.768
			C212.444,4.9,211.744,4.836,211.232,4.836z"/>
		<path class="st0" d="M220.677,4.932h-1.908v2.869c0,0.688,0.05,1.139,0.15,1.355c0.1,0.215,0.338,0.324,0.714,0.324l1.068-0.072
			l0.06,0.744c-0.536,0.088-0.944,0.131-1.224,0.131c-0.624,0-1.056-0.15-1.296-0.455c-0.24-0.305-0.36-0.885-0.36-1.74V4.932
			h-0.852V4.152h0.852V2.316h0.888v1.836h1.908V4.932z"/>
		<path class="st0" d="M221.517,7.141c0-1.098,0.196-1.889,0.588-2.377s1.054-0.732,1.986-0.732s1.592,0.244,1.98,0.732
			c0.388,0.488,0.582,1.279,0.582,2.377c0,1.096-0.184,1.891-0.552,2.387c-0.368,0.496-1.04,0.744-2.016,0.744
			s-1.648-0.248-2.016-0.744C221.701,9.031,221.517,8.236,221.517,7.141z M222.44,7.121c0,0.877,0.106,1.49,0.318,1.842
			c0.212,0.354,0.656,0.529,1.332,0.529c0.676,0,1.118-0.174,1.326-0.521c0.208-0.35,0.312-0.963,0.312-1.844
			c0-0.879-0.116-1.484-0.348-1.816s-0.662-0.498-1.29-0.498s-1.06,0.166-1.296,0.498S222.44,6.246,222.44,7.121z"/>
		<path class="st0" d="M233.864,4.932h-1.908v2.869c0,0.688,0.05,1.139,0.15,1.355c0.1,0.215,0.338,0.324,0.714,0.324l1.068-0.072
			l0.06,0.744c-0.536,0.088-0.944,0.131-1.224,0.131c-0.624,0-1.056-0.15-1.296-0.455c-0.24-0.305-0.36-0.885-0.36-1.74V4.932
			h-0.852V4.152h0.852V2.316h0.888v1.836h1.908V4.932z"/>
		<path class="st0" d="M235.868,10.152h-0.9V1.535h0.9v2.953c0.64-0.305,1.256-0.457,1.848-0.457c0.8,0,1.338,0.217,1.614,0.648
			s0.414,1.199,0.414,2.305v3.168h-0.9V7.008c0-0.832-0.083-1.402-0.246-1.709c-0.164-0.309-0.51-0.463-1.038-0.463
			c-0.504,0-0.992,0.092-1.464,0.275l-0.228,0.084V10.152z"/>
		<path class="st0" d="M245.492,9.408l0.348-0.037l0.024,0.709c-0.912,0.127-1.692,0.191-2.34,0.191c-0.864,0-1.476-0.25-1.836-0.75
			c-0.36-0.5-0.54-1.277-0.54-2.334c0-2.104,0.836-3.156,2.508-3.156c0.808,0,1.412,0.227,1.812,0.678
			c0.4,0.453,0.6,1.162,0.6,2.131l-0.048,0.684h-3.96c0,0.664,0.12,1.156,0.36,1.477c0.24,0.32,0.658,0.48,1.254,0.48
			C244.27,9.48,244.875,9.455,245.492,9.408z M245.168,6.805c0-0.736-0.118-1.256-0.354-1.561c-0.236-0.305-0.62-0.457-1.152-0.457
			c-0.532,0-0.932,0.16-1.2,0.48s-0.406,0.832-0.414,1.537H245.168z"/>
		<path class="st0" d="M249.62,4.152h0.9l1.212,5.219h0.192l1.428-5.1h0.936l1.428,5.1h0.204l1.2-5.219h0.9l-1.428,6h-1.5
			l-1.272-4.693l-1.272,4.693h-1.5L249.62,4.152z"/>
		<path class="st0" d="M258.932,7.141c0-1.098,0.196-1.889,0.588-2.377s1.054-0.732,1.986-0.732s1.592,0.244,1.98,0.732
			c0.388,0.488,0.582,1.279,0.582,2.377c0,1.096-0.184,1.891-0.552,2.387c-0.368,0.496-1.04,0.744-2.016,0.744
			s-1.648-0.248-2.016-0.744C259.116,9.031,258.932,8.236,258.932,7.141z M259.856,7.121c0,0.877,0.106,1.49,0.318,1.842
			c0.212,0.354,0.656,0.529,1.332,0.529c0.676,0,1.118-0.174,1.326-0.521c0.208-0.35,0.312-0.963,0.312-1.844
			c0-0.879-0.116-1.484-0.348-1.816s-0.662-0.498-1.29-0.498s-1.06,0.166-1.296,0.498S259.856,6.246,259.856,7.121z"/>
		<path class="st0" d="M265.532,10.152v-6h0.888v0.816c0.696-0.48,1.428-0.797,2.196-0.949v0.912
			c-0.336,0.064-0.687,0.164-1.05,0.301c-0.364,0.135-0.642,0.256-0.834,0.359l-0.3,0.156v4.404H265.532z"/>
		<path class="st0" d="M269.756,10.152V1.535h0.9v8.617H269.756z"/>
		<path class="st0" d="M277.064,1.535v8.617h-0.888V9.744c-0.616,0.352-1.224,0.527-1.824,0.527c-0.32,0-0.6-0.039-0.84-0.119
			c-0.24-0.08-0.464-0.225-0.672-0.432c-0.432-0.434-0.648-1.23-0.648-2.395s0.194-2.004,0.582-2.52
			c0.388-0.518,1.03-0.775,1.926-0.775c0.464,0,0.956,0.053,1.476,0.156V1.535H277.064z M273.944,9.385
			c0.144,0.055,0.33,0.084,0.558,0.084s0.484-0.039,0.768-0.115c0.284-0.076,0.506-0.15,0.666-0.221l0.24-0.109V4.955
			c-0.512-0.096-0.988-0.143-1.428-0.143c-0.608,0-1.032,0.193-1.272,0.582c-0.24,0.387-0.36,0.99-0.36,1.805
			c0,0.93,0.14,1.553,0.42,1.873C273.664,9.225,273.8,9.328,273.944,9.385z"/>
		<path class="st0" d="M278.744,10.152V8.783h0.984v1.369H278.744z"/>
	</g>
</g>
</svg>