<!-- Generator: Adobe Illustrator 21.0.0, SVG Export Plug-In  -->
<svg version="1.1"
	 xmlns="http://www.w3.org/2000/svg" xmlns:xlink="http://www.w3.org/1999/xlink" xmlns:a="http://ns.adobe.com/AdobeSVGViewerExtensions/3.0/"
	 x="0px" y="0px" width="29.567px" height="17.6px" viewBox="0 0 29.567 17.6" style="enable-background:new 0 0 29.567 17.6;"
	 xml:space="preserve">
<style type="text/css">
	.st0{fill:#7F7F7F;}
	.st1{font-family:'YummoW03-Bold';}
	.st2{font-size:16px;}
</style>
<defs>
</defs>
<g>
	<path class="st0" d="M1.856,2.399H2.48c0.405,0,0.608,0.203,0.608,0.608v9.984c0,0.405-0.203,0.608-0.608,0.608H1.856
		c-0.405,0-0.608-0.203-0.608-0.608V3.008C1.248,2.603,1.451,2.399,1.856,2.399z"/>
	<path class="st0" d="M10.368,13.6H9.792c-0.384,0-0.576-0.192-0.576-0.576V7.936c0-0.512-0.104-0.861-0.312-1.048
		s-0.461-0.28-0.76-0.28c-0.299,0-0.552,0.094-0.76,0.28S7.072,7.424,7.072,7.936v5.088c0,0.384-0.192,0.576-0.576,0.576H5.92
		c-0.384,0-0.576-0.192-0.576-0.576v-5.2c0-0.469,0.072-0.883,0.216-1.24C5.704,6.227,5.898,5.93,6.144,5.696
		c0.245-0.235,0.539-0.411,0.88-0.528c0.341-0.117,0.714-0.176,1.12-0.176c0.395,0,0.765,0.059,1.112,0.176
		c0.347,0.118,0.643,0.293,0.888,0.528c0.245,0.234,0.44,0.531,0.584,0.888c0.144,0.357,0.216,0.771,0.216,1.24v5.2
		C10.944,13.408,10.752,13.6,10.368,13.6z"/>
	<path class="st0" d="M16.16,13.6c-0.16,0.032-0.307,0.05-0.44,0.056c-0.134,0.005-0.259,0.008-0.376,0.008
		c-0.768,0-1.355-0.178-1.76-0.536c-0.405-0.357-0.608-0.968-0.608-1.832V3.68c0-0.384,0.192-0.576,0.576-0.576h0.576
		c0.384,0,0.576,0.192,0.576,0.576v1.488h1.376c0.384,0,0.576,0.192,0.576,0.576v0.464c0,0.384-0.192,0.576-0.576,0.576h-1.376
		v4.384c0,0.331,0.064,0.56,0.192,0.688s0.357,0.192,0.688,0.192c0.139,0,0.304-0.016,0.496-0.048
		c0.192-0.032,0.336,0.005,0.432,0.112c0.096,0.106,0.144,0.256,0.144,0.448v0.464c0,0.192-0.045,0.328-0.136,0.408
		S16.31,13.567,16.16,13.6z"/>
	<path class="st0" d="M20.944,6.704c-0.374,0-0.64,0.075-0.8,0.224s-0.24,0.411-0.24,0.784v5.312c0,0.384-0.192,0.576-0.576,0.576
		h-0.576c-0.384,0-0.576-0.192-0.576-0.576v-5.44c0-0.917,0.222-1.562,0.664-1.936c0.442-0.373,1.064-0.56,1.864-0.56
		c0.117,0,0.242,0.003,0.376,0.008c0.133,0.005,0.28,0.024,0.44,0.056c0.149,0.032,0.269,0.088,0.36,0.168
		c0.091,0.08,0.136,0.216,0.136,0.408v0.464c0,0.192-0.048,0.342-0.144,0.448c-0.096,0.107-0.24,0.144-0.432,0.112
		C21.248,6.72,21.083,6.704,20.944,6.704z"/>
	<path class="st0" d="M28.703,10.944c0,0.48-0.072,0.898-0.216,1.256s-0.339,0.651-0.584,0.88c-0.246,0.229-0.542,0.403-0.888,0.52
		s-0.717,0.176-1.112,0.176c-0.406,0-0.779-0.059-1.12-0.176s-0.635-0.291-0.88-0.52c-0.246-0.229-0.44-0.522-0.584-0.88
		s-0.216-0.776-0.216-1.256v-3.12c0-0.469,0.072-0.883,0.216-1.24c0.144-0.357,0.338-0.653,0.584-0.888
		c0.245-0.235,0.539-0.411,0.88-0.528c0.341-0.117,0.714-0.176,1.12-0.176c0.395,0,0.765,0.059,1.112,0.176
		c0.347,0.118,0.643,0.293,0.888,0.528c0.245,0.234,0.44,0.531,0.584,0.888c0.144,0.357,0.216,0.771,0.216,1.24V10.944z
		 M26.975,7.936c0-0.512-0.104-0.861-0.312-1.048s-0.461-0.28-0.76-0.28c-0.299,0-0.552,0.094-0.76,0.28s-0.312,0.536-0.312,1.048
		v2.896c0,0.512,0.104,0.861,0.312,1.048c0.208,0.187,0.461,0.28,0.76,0.28c0.298,0,0.552-0.093,0.76-0.28
		c0.208-0.187,0.312-0.536,0.312-1.048V7.936z"/>
</g>
</svg>