<!-- Generator: Adobe Illustrator 21.0.0, SVG Export Plug-In  -->
<svg version="1.1"
	 xmlns="http://www.w3.org/2000/svg" xmlns:xlink="http://www.w3.org/1999/xlink" xmlns:a="http://ns.adobe.com/AdobeSVGViewerExtensions/3.0/"
	 x="0px" y="0px" width="177.693px" height="29.762px" viewBox="0 0 177.693 29.762"
	 style="enable-background:new 0 0 177.693 29.762;" xml:space="preserve">
<style type="text/css">
	.st0{fill:#FFFFFF;}
</style>
<defs>
</defs>
<g>
	<path class="st0" d="M0,22.4V0h13.088v1.09H1.152V10.4h10.016v1.088H1.152v9.824h11.936V22.4H0z"/>
	<path class="st0" d="M15.616,6.4h1.312l4.768,7.137l4.8-7.137h1.312l-5.44,8l5.408,8h-1.312l-4.768-7.135L16.928,22.4h-1.312
		l5.408-8L15.616,6.4z"/>
	<path class="st0" d="M31.231,29.762V6.4h1.12v1.344c0.619-0.404,1.482-0.777,2.592-1.119c1.109-0.342,2.09-0.512,2.944-0.512
		c1.92,0,3.312,0.65,4.176,1.951c0.864,1.303,1.296,3.393,1.296,6.271c0,2.881-0.517,4.992-1.552,6.338
		c-1.035,1.344-2.779,2.016-5.232,2.016c-1.451,0-2.859-0.15-4.224-0.449v7.521H31.231z M37.888,7.137
		c-0.811,0-1.68,0.145-2.608,0.432c-0.928,0.289-1.648,0.572-2.16,0.848l-0.768,0.416v12.385c1.643,0.299,3.051,0.447,4.224,0.447
		c2.048,0,3.493-0.57,4.336-1.711c0.842-1.141,1.264-3.02,1.264-5.633s-0.358-4.463-1.072-5.551
		C40.389,7.682,39.316,7.137,37.888,7.137z"/>
	<path class="st0" d="M47.743,22.4v-16h1.12v2.496c0.64-0.512,1.595-1.061,2.864-1.648c1.269-0.586,2.426-0.975,3.472-1.168v1.152
		c-0.939,0.193-1.936,0.512-2.992,0.961c-1.056,0.447-1.872,0.854-2.448,1.215l-0.896,0.545V22.4H47.743z"/>
	<path class="st0" d="M67.935,21.441l0.96-0.064l0.064,1.023c-2.39,0.193-4.363,0.289-5.92,0.289
		c-2.262-0.021-3.83-0.709-4.704-2.064c-0.875-1.355-1.312-3.43-1.312-6.225c0-5.525,2.155-8.287,6.464-8.287
		c2.027,0,3.547,0.607,4.56,1.824c1.013,1.215,1.52,3.168,1.52,5.855v1.057h-11.36c0,2.303,0.362,4.016,1.088,5.135
		c0.725,1.121,1.931,1.68,3.616,1.68C64.596,21.664,66.271,21.59,67.935,21.441z M58.207,13.824h10.176
		c0-2.41-0.389-4.127-1.168-5.15c-0.779-1.025-2.021-1.537-3.728-1.537C59.967,7.137,58.207,9.367,58.207,13.824z"/>
	<path class="st0" d="M78.335,7.137c-2.859,0-4.288,1.066-4.288,3.199c0,1.004,0.298,1.713,0.896,2.129
		c0.597,0.416,1.92,0.783,3.968,1.104c2.048,0.32,3.477,0.748,4.288,1.281s1.216,1.605,1.216,3.215c0,1.611-0.512,2.785-1.536,3.52
		c-1.024,0.736-2.539,1.105-4.544,1.105c-1.088,0-2.539-0.129-4.352-0.385l-0.928-0.127l0.128-1.057
		c2.304,0.363,4.138,0.543,5.504,0.543c1.365,0,2.464-0.266,3.296-0.799s1.248-1.439,1.248-2.721c0-1.279-0.326-2.123-0.976-2.527
		c-0.651-0.406-1.984-0.764-4-1.072s-3.419-0.725-4.208-1.248c-0.79-0.523-1.184-1.402-1.184-2.641c0-1.236,0.288-2.191,0.864-2.863
		c0.576-0.672,1.248-1.119,2.016-1.344c0.768-0.225,1.568-0.336,2.4-0.336c1.728,0,3.349,0.117,4.864,0.352l0.832,0.129
		l-0.064,1.055C81.599,7.309,79.786,7.137,78.335,7.137z"/>
	<path class="st0" d="M93.087,7.137c-2.859,0-4.288,1.066-4.288,3.199c0,1.004,0.298,1.713,0.896,2.129
		c0.597,0.416,1.92,0.783,3.968,1.104c2.048,0.32,3.477,0.748,4.288,1.281s1.216,1.605,1.216,3.215c0,1.611-0.512,2.785-1.536,3.52
		c-1.024,0.736-2.539,1.105-4.544,1.105c-1.088,0-2.539-0.129-4.352-0.385l-0.928-0.127l0.128-1.057
		c2.304,0.363,4.138,0.543,5.504,0.543c1.365,0,2.464-0.266,3.296-0.799s1.248-1.439,1.248-2.721c0-1.279-0.326-2.123-0.976-2.527
		c-0.651-0.406-1.984-0.764-4-1.072s-3.419-0.725-4.208-1.248c-0.79-0.523-1.184-1.402-1.184-2.641c0-1.236,0.288-2.191,0.864-2.863
		c0.576-0.672,1.248-1.119,2.016-1.344c0.768-0.225,1.568-0.336,2.4-0.336c1.728,0,3.349,0.117,4.864,0.352l0.832,0.129
		l-0.064,1.055C96.351,7.309,94.538,7.137,93.087,7.137z"/>
	<path class="st0" d="M110.718,22.4V0h13.088v1.09h-11.936V10.4h10.016v1.088h-10.016v9.824h11.936V22.4H110.718z"/>
	<path class="st0" d="M129.086,22.4h-1.12v-16h1.12v1.281c1.898-1.045,3.84-1.568,5.824-1.568c1.984,0,3.317,0.539,4,1.615
		c0.682,1.078,1.024,3.195,1.024,6.352v8.32h-1.12v-8.256c0-2.816-0.256-4.688-0.768-5.615c-0.512-0.928-1.632-1.393-3.36-1.393
		c-0.854,0-1.744,0.133-2.672,0.4c-0.928,0.268-1.648,0.527-2.16,0.783l-0.768,0.416V22.4z"/>
	<path class="st0" d="M152.542,7.426h-5.824v8.383c0,2.453,0.176,4.049,0.528,4.785c0.352,0.734,1.157,1.104,2.416,1.104
		l3.136-0.256l0.096,1.023c-1.408,0.17-2.485,0.256-3.232,0.256c-1.515,0-2.571-0.389-3.168-1.168
		c-0.598-0.779-0.896-2.287-0.896-4.527v-9.6h-2.528V6.4h2.528V1.186h1.12V6.4h5.824V7.426z"/>
	<path class="st0" d="M155.614,22.4v-16h1.12v2.496c0.64-0.512,1.595-1.061,2.864-1.648c1.269-0.586,2.426-0.975,3.472-1.168v1.152
		c-0.939,0.193-1.936,0.512-2.992,0.961c-1.056,0.447-1.872,0.854-2.448,1.215l-0.896,0.545V22.4H155.614z"/>
	<path class="st0" d="M164.574,6.4h1.184l4.704,14.977h1.312L176.51,6.4h1.184l-7.328,23.361h-1.184l2.304-7.361h-1.952L164.574,6.4
		z"/>
</g>
</svg>