<!-- Generator: Adobe Illustrator 21.0.0, SVG Export Plug-In  -->
<svg version="1.1"
	 xmlns="http://www.w3.org/2000/svg" xmlns:xlink="http://www.w3.org/1999/xlink" xmlns:a="http://ns.adobe.com/AdobeSVGViewerExtensions/3.0/"
	 x="0px" y="0px" width="164.883px" height="30px" viewBox="0 0 164.883 30" style="enable-background:new 0 0 164.883 30;"
	 xml:space="preserve">
<style type="text/css">
	.st0{fill:#FFFFFF;}
	.st1{fill:#FF0000;}
</style>
<defs>
	<symbol  id="New_Symbol_3" viewBox="-415.944 -75.68 831.887 151.359">
		<path class="st0" d="M-164.887,73.138c-2.624-2.056-5.546-5.279-5.546-8.806c0-37.527,0-75.054,0-112.581
			c-3.794,10.192-7.588,20.384-11.383,30.576c-8.074,21.688-16.148,43.376-24.222,65.064c-3.274,8.793-7.925,17.989-18.732,18.657
			c0,2.765,0,5.53,0,8.294c0,3.354-6.146-0.578-6.945-1.204c-2.624-2.056-5.546-5.279-5.546-8.806c0-40.4,0-80.799,0-121.199
			c0-5.776,0-11.553,0-17.329c0-3.354,6.145,0.578,6.945,1.204c2.624,2.056,5.546,5.279,5.546,8.806c0,37.666,0,75.333,0,112.999
			c2.756-2.974,4.58-6.973,6.071-10.976c3.468-9.315,6.935-18.629,10.403-27.944c8.396-22.553,16.792-45.107,25.188-67.66
			c2.551-6.852,4.719-17.67,13.915-17.67c4.961,0,11.25,6.298,11.25,11.25c0,40.4,0,80.799,0,121.199c0,5.776,0,11.553,0,17.329
			C-157.943,77.696-164.088,73.764-164.887,73.138z"/>
		<path class="st0" d="M-277.637,59.705c-0.957,4.327-1.368,14.325-6.729,15.718c-7.324,1.902-14.929-7.394-16.563-13.5
			c-0.51-1.905-0.856-3.871-1.282-5.796c-5.113-23.12-10.226-46.24-15.339-69.361c-4.409-19.939-8.819-39.878-13.229-59.818
			c-0.808-3.653,3.695-2.028,5.285-1.1c3.052,1.781,6.356,5.254,7.144,8.819c1.8,8.138,3.6,16.276,5.399,24.415
			c10.968,0,21.936,0,32.904,0c3.492,0,6.673,2.861,8.746,5.473c2.857-12.917,5.713-25.834,8.57-38.752
			c0.974-4.405,13.548,5.23,12.491,10.01C-259.371-22.889-268.504,18.408-277.637,59.705z M-310.186-28.426
			c6.097,27.569,12.194,55.138,18.291,82.708c0.125,0.566,0.266,1.142,0.414,1.724c0.334-1.552,0.646-3.11,0.987-4.654
			c5.13-23.198,10.261-46.396,15.391-69.594c0.75-3.395,1.501-6.789,2.252-10.183C-285.296-28.426-297.741-28.426-310.186-28.426z"
			/>
		<path class="st0" d="M-92.642,59.705c-0.957,4.327-1.368,14.325-6.729,15.718c-7.324,1.902-14.929-7.394-16.563-13.5
			c-0.51-1.905-0.856-3.871-1.282-5.796c-5.113-23.12-10.226-46.24-15.339-69.361c-4.41-19.939-8.819-39.878-13.229-59.818
			c-0.808-3.653,3.695-2.028,5.285-1.1c3.052,1.781,6.356,5.254,7.144,8.819c1.8,8.138,3.6,16.276,5.399,24.415
			c10.783,0,21.566,0,32.349,0c3.525,0,6.735,2.915,8.806,5.546c0.077,0.098,0.205,0.28,0.364,0.522
			c2.901-13.116,5.801-26.232,8.702-39.348c0.974-4.405,13.548,5.23,12.491,10.01C-74.376-22.889-83.509,18.408-92.642,59.705z
			 M-125.191-28.426c6.097,27.569,12.194,55.138,18.291,82.708c0.125,0.566,0.266,1.142,0.414,1.723
			c0.334-1.552,0.646-3.11,0.987-4.654c5.13-23.198,10.261-46.396,15.391-69.594c0.751-3.395,1.501-6.789,2.252-10.183
			C-100.301-28.426-112.746-28.426-125.191-28.426z"/>
		<path class="st0" d="M110.887-64.187c-9.133,41.297-18.266,82.594-27.399,123.892c-0.957,4.327-1.368,14.325-6.729,15.718
			c-7.324,1.902-14.929-7.394-16.563-13.5c-0.51-1.905-0.856-3.871-1.282-5.796c-5.113-23.12-10.226-46.24-15.339-69.361
			c-4.409-19.939-8.819-39.878-13.229-59.818c-0.808-3.653,3.695-2.028,5.285-1.1c3.052,1.781,6.356,5.254,7.145,8.819
			c1.8,8.138,3.6,16.276,5.399,24.415c10.487,0,20.974,0,31.46,0c3.525,0,6.735,2.915,8.806,5.546
			c0.167,0.212,0.575,0.824,1.014,1.596c2.98-13.474,5.959-26.948,8.939-40.421C99.37-78.602,111.944-68.967,110.887-64.187z
			 M50.939-28.426C57.035-0.857,63.133,26.712,69.23,54.281c0.125,0.566,0.266,1.142,0.414,1.724
			c0.334-1.552,0.646-3.11,0.987-4.654c5.13-23.198,10.261-46.396,15.391-69.594c0.751-3.395,1.501-6.789,2.252-10.183
			C75.829-28.426,63.384-28.426,50.939-28.426z"/>
		<path class="st0" d="M-342.276,73.138c-2.1-1.646-4.387-4.04-5.218-6.738c-10.786,9.291-26.993,12.089-41.291,4.912
			c-12.307-6.177-22.339-17.666-25.923-31.045c-1.499-5.593-1.194-11.438-1.194-17.175c0-17.033,0-34.066,0-51.099
			c0-4.28-0.102-8.573,0.014-12.851c0.343-12.653,7.599-24.447,18.794-30.367c27.988-14.803,61.171,11.859,61.762,41.079
			c0.068,3.355-6.179-0.604-6.945-1.204c-2.671-2.093-5.474-5.255-5.546-8.806c-0.201-9.906-4.739-18.452-14.455-21.482
			c-10.171-3.172-21.655-0.391-29.659,6.475c-7.486,6.422-11.308,15.393-11.475,25.183c-0.059,3.488,0,6.982,0,10.47
			c0,14.809,0,29.619,0,44.428c0,10.341-1.897,24.109,6.058,32.116c7.787,7.838,21.907,7.339,31.191,2.843
			c11.389-5.515,18.088-17.128,18.34-29.584c0.068-3.351,6.11,0.55,6.945,1.204c2.624,2.056,5.546,5.279,5.546,8.806
			c0,11.347,0,22.693,0,34.04C-335.331,77.696-341.477,73.764-342.276,73.138z"/>
		<path class="st0" d="M28.76,42.438C28.74,51.61,25.858,60.349,19.1,66.826c-8.022,7.689-17.79,8.756-28.302,8.756
			c-5.225,0-10.22,0.004-15.24-1.745c-4.939-1.721-9.465-4.659-13.328-8.27c0,2.925,0,5.85,0,8.775c0,3.354-6.145-0.578-6.945-1.204
			c-2.624-2.056-5.546-5.279-5.546-8.806c0-11.198,0-22.395,0-33.593c0-0.802,0-1.607,0-2.422c0-28.395,0-56.79,0-85.185
			c0-5.776,0-11.553,0-17.329c0.136-0.691,0.549-1.105,1.241-1.24c7.244,0,14.619-0.395,21.846,0.202
			c13.351,1.103,25.756,7.563,35.489,16.566c9.829,9.093,17.231,21.15,19.62,34.425c1.093,6.074,0.827,12.317,0.827,18.466
			C28.76,10.294,28.796,26.366,28.76,42.438z M16.128-27.221c-1.6-20.035-15.548-33.985-35.585-35.585
			c-5.831-0.466-12.109,0.835-17.835-0.141c-0.056-0.01-0.194,0-0.36,0.014c-0.012,0.62-0.119,1.399-0.119,1.678
			c0,23.276,0,46.551,0,69.827c0,13.886,0,27.773,0,41.659c0.225,2.426,0.725,4.776,1.755,6.906
			c3.005,6.216,10.834,5.954,16.803,5.954c7.772,0,15.295,0.05,22.131-4.358c8.457-5.453,13.156-14.447,13.351-24.424
			c0.196-10.072,0-20.166,0-30.239C16.269-6.283,16.954-16.888,16.128-27.221z"/>
		<g>
			<path class="st1" d="M175.455,75.649h-25.133c-19.299,0-35-15.701-35-35V17.767c0-12.638,6.734-23.732,16.801-29.885
				c-5.56-6.917-8.383-15.051-8.383-24.249c0-10.754,3.854-20.066,11.467-27.694c7.615-7.601,16.928-11.454,27.681-11.454
				s20.066,3.854,27.694,11.468c7.601,7.614,11.455,16.928,11.455,27.681c0,9.196-2.822,17.328-8.384,24.248
				c10.068,6.153,16.802,17.247,16.802,29.886v22.882C210.455,59.948,194.754,75.649,175.455,75.649z M135.322,40.649
				c0,8.271,6.729,15,15,15h25.133c8.271,0,15-6.729,15-15V17.767c0-8.271-6.729-15-15-15h-25.133c-8.271,0-15,6.729-15,15V40.649z
				 M176.44-49.906c-3.834-3.827-8.14-5.609-13.551-5.609s-9.718,1.782-13.539,5.597c-3.827,3.834-5.609,8.14-5.609,13.552
				c0,5.419,1.78,9.724,5.596,13.539c3.686,3.679,7.796,5.458,12.929,5.595h1.26c5.123-0.137,9.229-1.916,12.908-5.588
				c3.823-3.823,5.604-8.127,5.604-13.546C182.037-41.778,180.254-46.085,176.44-49.906z"/>
			<path class="st1" d="M281.654,75.649h-25.133c-19.299,0-35-15.701-35-35V-40.68c0-19.299,15.701-35,35-35h25.133
				c19.299,0,35,15.701,35,35v81.329C316.654,59.948,300.952,75.649,281.654,75.649z M296.654-40.68c0-8.271-6.729-15-15-15h-25.133
				c-8.271,0-15,6.729-15,15v81.329c0,8.271,6.729,15,15,15h25.133c8.271,0,15-6.729,15-15V-40.68z"/>
			<path class="st1" d="M405.944,75.649h-75c-5.523,0-10-4.477-10-10s4.477-10,10-10h27.5V-40.68c0-19.299,15.701-35,35-35
				c5.523,0,10,4.478,10,10s-4.477,10-10,10c-8.271,0-15,6.729-15,15v96.329h27.5c5.523,0,10,4.477,10,10
				S411.467,75.649,405.944,75.649z"/>
		</g>
	</symbol>
</defs>
<use xlink:href="#New_Symbol_3"  width="831.887" height="151.359" x="-415.944" y="-75.68" transform="matrix(0.1982 0 0 -0.1982 82.4417 15)" style="overflow:visible;"/>
</svg>