<!-- Generator: Adobe Illustrator 21.0.0, SVG Export Plug-In  -->
<svg version="1.1"
	 xmlns="http://www.w3.org/2000/svg" xmlns:xlink="http://www.w3.org/1999/xlink" xmlns:a="http://ns.adobe.com/AdobeSVGViewerExtensions/3.0/"
	 x="0px" y="0px" width="293.573px" height="52.8px" viewBox="0 0 293.573 52.8" style="enable-background:new 0 0 293.573 52.8;"
	 xml:space="preserve">
<style type="text/css">
	.st0{fill:#3F3F3F;}
</style>
<defs>
</defs>
<g>
	<path class="st0" d="M0,0.96C0,0.321,0.339,0,1.02,0h0.9c0.68,0,1.02,0.321,1.02,0.96v38.22h16.2c0.68,0,1.021,0.36,1.021,1.08
		v0.72c0,0.681-0.341,1.02-1.021,1.02H1.02C0.339,42,0,41.68,0,41.04V0.96z"/>
	<path class="st0" d="M41.879,33.36c0-0.6,0.3-0.9,0.9-0.9h0.899c0.64,0,0.961,0.321,0.961,0.96c0,1.401-0.231,2.67-0.69,3.81
		c-0.46,1.14-1.11,2.11-1.95,2.91c-0.84,0.8-1.83,1.42-2.97,1.86s-2.391,0.66-3.75,0.66c-1.4,0-2.69-0.21-3.87-0.63
		c-1.181-0.42-2.2-1.05-3.06-1.89c-0.861-0.84-1.541-1.89-2.04-3.15c-0.501-1.26-0.75-2.73-0.75-4.41V19.8
		c0-1.68,0.249-3.15,0.75-4.41c0.499-1.26,1.179-2.31,2.04-3.15c0.859-0.84,1.879-1.47,3.06-1.89c1.18-0.42,2.47-0.63,3.87-0.63
		c1.359,0,2.63,0.21,3.81,0.63s2.21,1.05,3.09,1.89c0.88,0.84,1.561,1.89,2.04,3.15c0.48,1.26,0.721,2.73,0.721,4.41v5.7
		c0,0.64-0.321,0.96-0.96,0.96H28.379v5.94c0,1.401,0.181,2.59,0.54,3.57c0.36,0.98,0.85,1.77,1.471,2.37
		c0.619,0.6,1.35,1.041,2.189,1.32c0.84,0.28,1.74,0.42,2.7,0.42c1.839,0,3.399-0.59,4.68-1.77
		C41.239,37.131,41.879,35.48,41.879,33.36z M28.379,23.88h13.8v-3.9c0-1.4-0.18-2.589-0.539-3.57c-0.36-0.98-0.861-1.77-1.5-2.37
		c-0.641-0.6-1.371-1.04-2.19-1.32c-0.82-0.28-1.71-0.42-2.67-0.42s-1.86,0.141-2.7,0.42c-0.84,0.28-1.57,0.72-2.189,1.32
		c-0.621,0.6-1.11,1.39-1.471,2.37c-0.359,0.98-0.54,2.17-0.54,3.57V23.88z"/>
	<path class="st0" d="M63.959,42c-0.801,0.159-1.681,0.24-2.641,0.24c-2.439,0-4.36-0.56-5.76-1.68c-1.4-1.12-2.1-3.1-2.1-5.94V3.6
		c0-0.64,0.319-0.96,0.96-0.96h0.899c0.64,0,0.96,0.32,0.96,0.96v6.78h7.62c0.64,0,0.96,0.321,0.96,0.96V12
		c0,0.64-0.32,0.96-0.96,0.96h-7.62v21.48c0,2.04,0.44,3.42,1.32,4.14c0.88,0.72,2.22,1.08,4.021,1.08
		c0.359,0,0.729-0.02,1.109-0.06c0.38-0.04,0.77-0.1,1.17-0.18c0.64-0.12,0.96,0.18,0.96,0.9v0.66
		C64.858,41.541,64.559,41.88,63.959,42z"/>
	<path class="st0" d="M72.838,11.82c-0.12,0.48-0.42,0.72-0.9,0.72h-0.66c-0.561,0-0.779-0.26-0.659-0.78l1.859-10.8
		C72.518,0.321,72.877,0,73.558,0h1.5c0.64,0,0.88,0.381,0.72,1.14L72.838,11.82z"/>
	<path class="st0" d="M99.719,18.12c0-2-0.621-3.47-1.86-4.41c-1.24-0.939-2.721-1.41-4.44-1.41s-3.2,0.46-4.439,1.38
		c-1.24,0.92-1.86,2.38-1.86,4.38v0.12c0,1.48,0.391,2.64,1.17,3.48c0.78,0.84,1.75,1.54,2.91,2.1c1.16,0.561,2.43,1.061,3.811,1.5
		c1.38,0.441,2.649,1.011,3.81,1.71c1.16,0.7,2.13,1.63,2.91,2.79c0.78,1.161,1.17,2.7,1.17,4.62c0,1.32-0.24,2.49-0.72,3.51
		c-0.48,1.02-1.141,1.89-1.98,2.61s-1.83,1.26-2.97,1.62c-1.141,0.36-2.391,0.54-3.75,0.54c-1.36,0-2.61-0.19-3.75-0.57
		c-1.141-0.379-2.13-0.93-2.97-1.65c-0.841-0.72-1.491-1.59-1.95-2.61c-0.461-1.02-0.69-2.169-0.69-3.45V34.2
		c0-0.64,0.32-0.96,0.96-0.96h0.9c0.6,0,0.899,0.3,0.899,0.9v0.06c0,1.041,0.181,1.93,0.54,2.67c0.36,0.741,0.841,1.35,1.44,1.83
		s1.3,0.831,2.1,1.05c0.8,0.22,1.64,0.33,2.521,0.33c0.879,0,1.719-0.11,2.52-0.33c0.8-0.219,1.5-0.56,2.101-1.02
		c0.6-0.459,1.08-1.05,1.439-1.77c0.36-0.72,0.54-1.599,0.54-2.64V34.2c0-1.479-0.39-2.64-1.17-3.48c-0.78-0.84-1.75-1.53-2.91-2.07
		s-2.42-1.029-3.779-1.47c-1.36-0.44-2.621-1.01-3.78-1.71c-1.161-0.7-2.13-1.62-2.91-2.76s-1.17-2.689-1.17-4.65
		c0-1.32,0.229-2.5,0.69-3.54c0.459-1.04,1.089-1.91,1.89-2.61c0.8-0.7,1.76-1.24,2.88-1.62c1.119-0.38,2.319-0.57,3.6-0.57
		s2.47,0.19,3.57,0.57c1.1,0.38,2.06,0.93,2.88,1.65c0.819,0.72,1.46,1.59,1.92,2.61s0.69,2.151,0.69,3.39v0.18
		c0,0.64-0.32,0.96-0.96,0.96h-0.9c-0.6,0-0.899-0.3-0.899-0.9V18.12z"/>
	<path class="st0" d="M139.737,35.82c-0.761,1.401-1.78,2.43-3.06,3.09c-1.281,0.66-2.761,0.99-4.44,0.99c-1.28,0-2.48-0.2-3.6-0.6
		c-1.121-0.399-2.091-1.009-2.91-1.83c-0.82-0.82-1.461-1.85-1.92-3.09c-0.461-1.239-0.69-2.7-0.69-4.38V19.8
		c0-1.68,0.25-3.15,0.75-4.41c0.5-1.26,1.18-2.31,2.04-3.15c0.859-0.84,1.88-1.47,3.061-1.89c1.179-0.42,2.469-0.63,3.869-0.63
		c1.359,0,2.63,0.21,3.811,0.63c1.18,0.42,2.21,1.05,3.09,1.89c0.88,0.84,1.56,1.89,2.04,3.15c0.48,1.26,0.72,2.73,0.72,4.41v23.04
		c0,1.68-0.239,3.15-0.72,4.41s-1.16,2.3-2.04,3.12c-0.88,0.819-1.91,1.43-3.09,1.83c-1.181,0.399-2.451,0.6-3.811,0.6
		c-2.88,0-5.17-0.771-6.869-2.31c-1.701-1.541-2.551-3.531-2.551-5.97c0-0.64,0.32-0.96,0.96-0.96h0.96c0.601,0,0.9,0.3,0.9,0.9
		c0,1.8,0.6,3.219,1.8,4.26c1.2,1.04,2.8,1.56,4.8,1.56c0.96,0,1.851-0.13,2.671-0.39c0.819-0.261,1.549-0.681,2.189-1.26
		c0.64-0.58,1.14-1.35,1.5-2.31s0.54-2.14,0.54-3.54V35.82z M139.737,19.98c0-1.4-0.18-2.589-0.54-3.57
		c-0.36-0.98-0.86-1.77-1.5-2.37c-0.641-0.6-1.37-1.04-2.189-1.32c-0.82-0.28-1.711-0.42-2.671-0.42s-1.859,0.141-2.699,0.42
		c-0.841,0.28-1.57,0.72-2.19,1.32s-1.11,1.39-1.47,2.37c-0.36,0.98-0.54,2.17-0.54,3.57v9.66c0,1.4,0.18,2.59,0.54,3.57
		c0.359,0.98,0.85,1.77,1.47,2.37s1.35,1.041,2.19,1.32c0.84,0.28,1.739,0.42,2.699,0.42s1.851-0.14,2.671-0.42
		c0.819-0.279,1.549-0.72,2.189-1.32c0.64-0.6,1.14-1.39,1.5-2.37c0.36-0.979,0.54-2.169,0.54-3.57V19.98z"/>
	<path class="st0" d="M167.277,33.36c0-0.6,0.3-0.9,0.9-0.9h0.899c0.64,0,0.961,0.321,0.961,0.96c0,1.401-0.231,2.67-0.69,3.81
		c-0.46,1.14-1.11,2.11-1.95,2.91c-0.84,0.8-1.83,1.42-2.97,1.86s-2.391,0.66-3.75,0.66c-1.4,0-2.69-0.21-3.87-0.63
		c-1.181-0.42-2.2-1.05-3.06-1.89c-0.861-0.84-1.541-1.89-2.04-3.15c-0.501-1.26-0.75-2.73-0.75-4.41V19.8
		c0-1.68,0.249-3.15,0.75-4.41c0.499-1.26,1.179-2.31,2.04-3.15c0.859-0.84,1.879-1.47,3.06-1.89c1.18-0.42,2.47-0.63,3.87-0.63
		c1.359,0,2.63,0.21,3.81,0.63s2.21,1.05,3.09,1.89c0.88,0.84,1.561,1.89,2.04,3.15c0.48,1.26,0.721,2.73,0.721,4.41v5.7
		c0,0.64-0.321,0.96-0.96,0.96h-15.601v5.94c0,1.401,0.181,2.59,0.54,3.57c0.36,0.98,0.85,1.77,1.471,2.37
		c0.619,0.6,1.35,1.041,2.189,1.32c0.84,0.28,1.74,0.42,2.7,0.42c1.839,0,3.399-0.59,4.68-1.77
		C166.637,37.131,167.277,35.48,167.277,33.36z M153.777,23.88h13.8v-3.9c0-1.4-0.18-2.589-0.539-3.57
		c-0.36-0.98-0.861-1.77-1.5-2.37c-0.641-0.6-1.371-1.04-2.19-1.32c-0.82-0.28-1.71-0.42-2.67-0.42s-1.86,0.141-2.7,0.42
		c-0.84,0.28-1.57,0.72-2.189,1.32c-0.621,0.6-1.11,1.39-1.471,2.37c-0.359,0.98-0.54,2.17-0.54,3.57V23.88z"/>
	<path class="st0" d="M189.357,42c-0.801,0.159-1.681,0.24-2.641,0.24c-2.439,0-4.36-0.56-5.76-1.68c-1.4-1.12-2.1-3.1-2.1-5.94V3.6
		c0-0.64,0.319-0.96,0.96-0.96h0.899c0.64,0,0.96,0.32,0.96,0.96v6.78h7.62c0.64,0,0.96,0.321,0.96,0.96V12
		c0,0.64-0.32,0.96-0.96,0.96h-7.62v21.48c0,2.04,0.44,3.42,1.32,4.14c0.88,0.72,2.22,1.08,4.021,1.08
		c0.359,0,0.729-0.02,1.109-0.06c0.38-0.04,0.77-0.1,1.17-0.18c0.64-0.12,0.96,0.18,0.96,0.9v0.66
		C190.256,41.541,189.957,41.88,189.357,42z"/>
	<path class="st0" d="M221.036,42c-0.801,0.159-1.681,0.24-2.641,0.24c-2.439,0-4.36-0.56-5.76-1.68c-1.4-1.12-2.1-3.1-2.1-5.94V3.6
		c0-0.64,0.319-0.96,0.96-0.96h0.899c0.64,0,0.96,0.32,0.96,0.96v6.78h7.62c0.64,0,0.96,0.321,0.96,0.96V12
		c0,0.64-0.32,0.96-0.96,0.96h-7.62v21.48c0,2.04,0.44,3.42,1.32,4.14c0.88,0.72,2.22,1.08,4.021,1.08
		c0.359,0,0.729-0.02,1.109-0.06c0.38-0.04,0.77-0.1,1.17-0.18c0.64-0.12,0.96,0.18,0.96,0.9v0.66
		C221.935,41.541,221.635,41.88,221.036,42z"/>
	<path class="st0" d="M247.615,32.58c0,1.68-0.24,3.15-0.721,4.41c-0.479,1.26-1.16,2.31-2.04,3.15c-0.88,0.84-1.91,1.47-3.09,1.89
		c-1.18,0.42-2.45,0.63-3.81,0.63c-1.4,0-2.69-0.21-3.87-0.63c-1.181-0.42-2.2-1.05-3.06-1.89c-0.861-0.84-1.541-1.89-2.04-3.15
		c-0.501-1.26-0.75-2.73-0.75-4.41V19.8c0-1.68,0.249-3.15,0.75-4.41c0.499-1.26,1.179-2.31,2.04-3.15
		c0.859-0.84,1.879-1.47,3.06-1.89c1.18-0.42,2.47-0.63,3.87-0.63c1.359,0,2.63,0.21,3.81,0.63s2.21,1.05,3.09,1.89
		c0.88,0.84,1.561,1.89,2.04,3.15c0.48,1.26,0.721,2.73,0.721,4.41V32.58z M244.854,19.98c0-1.4-0.18-2.589-0.539-3.57
		c-0.36-0.98-0.861-1.77-1.5-2.37c-0.641-0.6-1.371-1.04-2.19-1.32c-0.82-0.28-1.71-0.42-2.67-0.42s-1.86,0.141-2.7,0.42
		c-0.84,0.28-1.57,0.72-2.189,1.32c-0.621,0.6-1.11,1.39-1.471,2.37c-0.359,0.98-0.54,2.17-0.54,3.57V32.4
		c0,1.401,0.181,2.59,0.54,3.57c0.36,0.98,0.85,1.77,1.471,2.37c0.619,0.6,1.35,1.041,2.189,1.32c0.84,0.28,1.74,0.42,2.7,0.42
		s1.85-0.14,2.67-0.42c0.819-0.279,1.55-0.72,2.19-1.32c0.639-0.6,1.14-1.389,1.5-2.37c0.359-0.98,0.539-2.169,0.539-3.57V19.98z"/>
	<path class="st0" d="M269.634,0.96c0-0.639,0.319-0.96,0.96-0.96h0.899c0.64,0,0.96,0.321,0.96,0.96V4.2
		c0,0.64-0.32,0.96-0.96,0.96h-0.899c-0.641,0-0.96-0.32-0.96-0.96V0.96z M269.634,11.34c0-0.639,0.319-0.96,0.96-0.96h0.899
		c0.64,0,0.96,0.321,0.96,0.96v29.7c0,0.64-0.32,0.96-0.96,0.96h-0.899c-0.641,0-0.96-0.32-0.96-0.96V11.34z"/>
	<path class="st0" d="M292.673,42c-0.801,0.159-1.681,0.24-2.641,0.24c-2.439,0-4.36-0.56-5.76-1.68c-1.4-1.12-2.1-3.1-2.1-5.94V3.6
		c0-0.64,0.319-0.96,0.96-0.96h0.899c0.64,0,0.96,0.32,0.96,0.96v6.78h7.62c0.64,0,0.96,0.321,0.96,0.96V12
		c0,0.64-0.32,0.96-0.96,0.96h-7.62v21.48c0,2.04,0.44,3.42,1.32,4.14c0.88,0.72,2.22,1.08,4.021,1.08
		c0.359,0,0.729-0.02,1.109-0.06c0.38-0.04,0.77-0.1,1.17-0.18c0.64-0.12,0.96,0.18,0.96,0.9v0.66
		C293.573,41.541,293.273,41.88,292.673,42z"/>
</g>
</svg>