<!-- Generator: Adobe Illustrator 21.0.0, SVG Export Plug-In  -->
<svg version="1.1"
	 xmlns="http://www.w3.org/2000/svg" xmlns:xlink="http://www.w3.org/1999/xlink" xmlns:a="http://ns.adobe.com/AdobeSVGViewerExtensions/3.0/"
	 x="0px" y="0px" width="115.646px" height="17.6px" viewBox="0 0 115.646 17.6" style="enable-background:new 0 0 115.646 17.6;"
	 xml:space="preserve">
<style type="text/css">
	.st0{fill:#7F7F7F;}
	.st1{font-family:'YummoW03-Bold';}
	.st2{font-size:16px;}
</style>
<defs>
</defs>
<g>
	<path class="st0" d="M2.8,4.144H0.929c-0.406,0-0.608-0.203-0.608-0.608V3.008c0-0.405,0.202-0.608,0.608-0.608h5.584
		c0.405,0,0.607,0.203,0.607,0.608v0.528c0,0.405-0.202,0.608-0.607,0.608H4.641v8.848c0,0.405-0.203,0.608-0.608,0.608H3.408
		c-0.405,0-0.608-0.203-0.608-0.608V4.144z"/>
	<path class="st0" d="M11.647,11.264c0-0.331,0.166-0.496,0.496-0.496H12.8c0.384,0,0.576,0.192,0.576,0.576
		c0,0.726-0.248,1.312-0.744,1.76c-0.496,0.448-1.154,0.672-1.976,0.672c-0.406,0-0.779-0.059-1.12-0.176
		c-0.342-0.117-0.635-0.293-0.88-0.528c-0.246-0.235-0.44-0.531-0.584-0.888c-0.145-0.357-0.217-0.771-0.217-1.24v-3.12
		c0-0.469,0.072-0.883,0.217-1.24C8.216,6.227,8.41,5.93,8.656,5.696c0.245-0.235,0.538-0.411,0.88-0.528
		c0.341-0.117,0.714-0.176,1.12-0.176c0.395,0,0.765,0.059,1.111,0.176c0.347,0.118,0.643,0.293,0.889,0.528
		c0.245,0.234,0.439,0.531,0.584,0.888c0.144,0.357,0.216,0.771,0.216,1.24v1.36c0,0.384-0.192,0.576-0.576,0.576H9.584v1.072
		c0,0.512,0.104,0.861,0.312,1.048c0.208,0.187,0.462,0.28,0.761,0.28c0.309,0,0.552-0.08,0.728-0.24
		C11.56,11.76,11.647,11.541,11.647,11.264z M9.584,8.463h2.144V7.936c0-0.512-0.104-0.861-0.312-1.048s-0.462-0.28-0.76-0.28
		c-0.299,0-0.553,0.094-0.761,0.28S9.584,7.424,9.584,7.936V8.463z"/>
	<path class="st0" d="M17.68,12.048c0.086,0,0.157-0.003,0.216-0.008s0.137-0.019,0.232-0.04c0.192-0.032,0.336,0.005,0.432,0.112
		c0.097,0.106,0.145,0.256,0.145,0.448v0.464c0,0.192-0.046,0.328-0.136,0.408c-0.091,0.08-0.217,0.136-0.376,0.168
		c-0.15,0.032-0.291,0.05-0.425,0.056c-0.133,0.005-0.259,0.008-0.376,0.008c-0.31,0-0.589-0.038-0.84-0.112
		c-0.251-0.075-0.467-0.197-0.647-0.368c-0.182-0.17-0.32-0.397-0.416-0.68c-0.097-0.282-0.145-0.626-0.145-1.032V2.815
		c0-0.384,0.192-0.576,0.576-0.576h0.576c0.384,0,0.576,0.192,0.576,0.576v8.528c0,0.277,0.063,0.464,0.191,0.56
		C17.392,12,17.53,12.048,17.68,12.048z"/>
	<path class="st0" d="M22.304,12.048c0.085,0,0.157-0.003,0.216-0.008s0.136-0.019,0.232-0.04c0.191-0.032,0.336,0.005,0.432,0.112
		c0.096,0.106,0.144,0.256,0.144,0.448v0.464c0,0.192-0.045,0.328-0.136,0.408s-0.216,0.136-0.376,0.168
		c-0.149,0.032-0.291,0.05-0.424,0.056c-0.134,0.005-0.259,0.008-0.376,0.008c-0.31,0-0.59-0.038-0.84-0.112
		c-0.251-0.075-0.467-0.197-0.648-0.368c-0.182-0.17-0.32-0.397-0.416-0.68c-0.096-0.282-0.144-0.626-0.144-1.032V2.815
		c0-0.384,0.191-0.576,0.576-0.576h0.575c0.385,0,0.576,0.192,0.576,0.576v8.528c0,0.277,0.064,0.464,0.192,0.56
		C22.016,12,22.154,12.048,22.304,12.048z"/>
	<path class="st0" d="M37.327,13.023c0,0.384-0.191,0.576-0.576,0.576h-0.576c-0.384,0-0.575-0.192-0.575-0.576V7.855
		c0-0.48-0.099-0.808-0.296-0.984c-0.198-0.176-0.436-0.264-0.713-0.264s-0.515,0.088-0.712,0.264
		c-0.197,0.176-0.296,0.504-0.296,0.984v5.168c0,0.384-0.191,0.576-0.576,0.576h-0.575c-0.385,0-0.576-0.192-0.576-0.576V7.855
		c0-0.48-0.099-0.808-0.296-0.984c-0.198-0.176-0.435-0.264-0.712-0.264c-0.278,0-0.515,0.088-0.712,0.264
		c-0.198,0.176-0.297,0.504-0.297,0.984v5.168c0,0.384-0.191,0.576-0.575,0.576h-0.576c-0.384,0-0.576-0.192-0.576-0.576V7.536
		c0-0.427,0.063-0.797,0.192-1.112c0.128-0.315,0.304-0.579,0.527-0.792c0.225-0.213,0.488-0.374,0.792-0.48
		c0.305-0.106,0.638-0.16,1-0.16c0.48,0,0.898,0.104,1.256,0.312s0.638,0.504,0.841,0.888c0.202-0.384,0.482-0.68,0.84-0.888
		s0.775-0.312,1.256-0.312c0.362,0,0.696,0.053,1,0.16c0.304,0.107,0.567,0.267,0.792,0.48c0.224,0.213,0.399,0.477,0.528,0.792
		c0.128,0.314,0.191,0.685,0.191,1.112V13.023z"/>
	<path class="st0" d="M42.991,11.264c0-0.331,0.165-0.496,0.496-0.496h0.656c0.384,0,0.575,0.192,0.575,0.576
		c0,0.726-0.247,1.312-0.743,1.76c-0.496,0.448-1.155,0.672-1.977,0.672c-0.405,0-0.778-0.059-1.12-0.176
		c-0.341-0.117-0.635-0.293-0.88-0.528c-0.245-0.235-0.439-0.531-0.584-0.888c-0.144-0.357-0.216-0.771-0.216-1.24v-3.12
		c0-0.469,0.072-0.883,0.216-1.24c0.145-0.357,0.339-0.653,0.584-0.888c0.245-0.235,0.539-0.411,0.88-0.528
		c0.342-0.117,0.715-0.176,1.12-0.176c0.395,0,0.766,0.059,1.112,0.176c0.347,0.118,0.643,0.293,0.888,0.528
		c0.245,0.234,0.44,0.531,0.584,0.888c0.145,0.357,0.216,0.771,0.216,1.24v1.36c0,0.384-0.191,0.576-0.575,0.576h-3.297v1.072
		c0,0.512,0.104,0.861,0.312,1.048c0.208,0.187,0.461,0.28,0.76,0.28c0.31,0,0.552-0.08,0.729-0.24
		C42.903,11.76,42.991,11.541,42.991,11.264z M40.927,8.463h2.145V7.936c0-0.512-0.104-0.861-0.312-1.048s-0.461-0.28-0.76-0.28
		s-0.552,0.094-0.76,0.28s-0.312,0.536-0.312,1.048V8.463z"/>
	<path class="st0" d="M53.854,11.264c0-0.331,0.166-0.496,0.496-0.496h0.656c0.384,0,0.576,0.192,0.576,0.576
		c0,0.726-0.248,1.312-0.744,1.76c-0.496,0.448-1.154,0.672-1.976,0.672c-0.406,0-0.779-0.059-1.12-0.176
		c-0.342-0.117-0.635-0.293-0.88-0.528c-0.246-0.235-0.44-0.531-0.584-0.888c-0.145-0.357-0.217-0.771-0.217-1.24v-3.12
		c0-0.469,0.072-0.883,0.217-1.24c0.144-0.357,0.338-0.653,0.584-0.888c0.245-0.235,0.538-0.411,0.88-0.528
		c0.341-0.117,0.714-0.176,1.12-0.176c0.395,0,0.765,0.059,1.111,0.176c0.347,0.118,0.643,0.293,0.889,0.528
		c0.245,0.234,0.439,0.531,0.584,0.888c0.144,0.357,0.216,0.771,0.216,1.24v1.36c0,0.384-0.192,0.576-0.576,0.576h-3.296v1.072
		c0,0.512,0.104,0.861,0.312,1.048c0.208,0.187,0.462,0.28,0.761,0.28c0.309,0,0.552-0.08,0.728-0.24
		C53.767,11.76,53.854,11.541,53.854,11.264z M51.791,8.463h2.144V7.936c0-0.512-0.104-0.861-0.312-1.048s-0.462-0.28-0.76-0.28
		c-0.299,0-0.553,0.094-0.761,0.28s-0.312,0.536-0.312,1.048V8.463z"/>
	<path class="st0" d="M56.99,5.775c-0.054-0.181-0.037-0.328,0.048-0.44c0.086-0.112,0.219-0.168,0.4-0.168h0.672
		c0.362,0,0.581,0.155,0.656,0.464L60.158,12l1.393-6.368c0.074-0.31,0.293-0.464,0.655-0.464h0.624c0.182,0,0.314,0.056,0.4,0.168
		c0.085,0.112,0.102,0.259,0.048,0.44l-1.775,7.008c-0.15,0.544-0.491,0.816-1.024,0.816H59.79c-0.544,0-0.885-0.272-1.023-0.816
		L56.99,5.775z"/>
	<path class="st0" d="M68.286,11.264c0-0.331,0.166-0.496,0.496-0.496h0.656c0.384,0,0.576,0.192,0.576,0.576
		c0,0.726-0.248,1.312-0.744,1.76c-0.496,0.448-1.154,0.672-1.976,0.672c-0.406,0-0.779-0.059-1.12-0.176
		c-0.342-0.117-0.635-0.293-0.88-0.528c-0.246-0.235-0.44-0.531-0.584-0.888c-0.145-0.357-0.217-0.771-0.217-1.24v-3.12
		c0-0.469,0.072-0.883,0.217-1.24c0.144-0.357,0.338-0.653,0.584-0.888c0.245-0.235,0.538-0.411,0.88-0.528
		c0.341-0.117,0.714-0.176,1.12-0.176c0.395,0,0.765,0.059,1.111,0.176c0.347,0.118,0.643,0.293,0.889,0.528
		c0.245,0.234,0.439,0.531,0.584,0.888c0.144,0.357,0.216,0.771,0.216,1.24v1.36c0,0.384-0.192,0.576-0.576,0.576h-3.296v1.072
		c0,0.512,0.104,0.861,0.312,1.048c0.208,0.187,0.462,0.28,0.761,0.28c0.309,0,0.552-0.08,0.728-0.24
		C68.198,11.76,68.286,11.541,68.286,11.264z M66.223,8.463h2.144V7.936c0-0.512-0.104-0.861-0.312-1.048s-0.462-0.28-0.76-0.28
		c-0.299,0-0.553,0.094-0.761,0.28s-0.312,0.536-0.312,1.048V8.463z"/>
	<path class="st0" d="M74.718,6.704c-0.373,0-0.64,0.075-0.8,0.224s-0.24,0.411-0.24,0.784v5.312c0,0.384-0.191,0.576-0.575,0.576
		h-0.576c-0.384,0-0.576-0.192-0.576-0.576v-5.44c0-0.917,0.222-1.562,0.664-1.936c0.442-0.373,1.063-0.56,1.864-0.56
		c0.117,0,0.242,0.003,0.376,0.008c0.133,0.005,0.279,0.024,0.439,0.056c0.149,0.032,0.27,0.088,0.36,0.168
		c0.091,0.08,0.136,0.216,0.136,0.408v0.464c0,0.192-0.048,0.342-0.144,0.448c-0.097,0.107-0.24,0.144-0.433,0.112
		C75.022,6.72,74.856,6.704,74.718,6.704z"/>
	<path class="st0" d="M80.878,5.744c0-0.384,0.192-0.576,0.576-0.576h0.576c0.384,0,0.575,0.192,0.575,0.576v7.984
		c0,0.469-0.071,0.877-0.216,1.224c-0.144,0.347-0.339,0.632-0.584,0.856s-0.541,0.392-0.888,0.504
		c-0.347,0.112-0.718,0.168-1.112,0.168c-0.427,0-0.808-0.062-1.144-0.184s-0.622-0.288-0.856-0.496s-0.413-0.451-0.536-0.728
		c-0.122-0.278-0.184-0.576-0.184-0.896c0-0.384,0.192-0.576,0.576-0.576h0.656c0.33,0,0.495,0.165,0.495,0.496
		c0,0.234,0.08,0.435,0.24,0.6c0.16,0.165,0.411,0.248,0.752,0.248c0.299,0,0.553-0.08,0.76-0.24
		c0.208-0.16,0.312-0.496,0.312-1.008v-1.424c-0.373,0.448-0.901,0.672-1.584,0.672c-0.661,0-1.208-0.216-1.64-0.648
		c-0.433-0.432-0.648-1.096-0.648-1.992v-4.56c0-0.384,0.192-0.576,0.576-0.576h0.576c0.384,0,0.576,0.192,0.576,0.576V10
		c0,0.512,0.104,0.862,0.312,1.048s0.461,0.28,0.76,0.28s0.553-0.093,0.76-0.28c0.208-0.187,0.312-0.536,0.312-1.048V5.744z"/>
	<path class="st0" d="M87.918,13.6c-0.16,0.032-0.307,0.05-0.44,0.056c-0.134,0.005-0.259,0.008-0.376,0.008
		c-0.768,0-1.354-0.178-1.76-0.536c-0.405-0.357-0.608-0.968-0.608-1.832V3.68c0-0.384,0.192-0.576,0.576-0.576h0.576
		c0.384,0,0.576,0.192,0.576,0.576v1.488h1.376c0.384,0,0.576,0.192,0.576,0.576v0.464c0,0.384-0.192,0.576-0.576,0.576h-1.376
		v4.384c0,0.331,0.063,0.56,0.191,0.688s0.357,0.192,0.688,0.192c0.139,0,0.304-0.016,0.496-0.048
		c0.191-0.032,0.336,0.005,0.432,0.112c0.096,0.106,0.145,0.256,0.145,0.448v0.464c0,0.192-0.046,0.328-0.137,0.408
		S88.067,13.567,87.918,13.6z"/>
	<path class="st0" d="M91.758,13.023c0,0.384-0.192,0.576-0.576,0.576h-0.576c-0.384,0-0.576-0.192-0.576-0.576V2.815
		c0-0.384,0.192-0.576,0.576-0.576h0.576c0.384,0,0.576,0.192,0.576,0.576v2.848c0.373-0.448,0.901-0.672,1.584-0.672
		c0.33,0,0.634,0.053,0.912,0.16c0.277,0.107,0.517,0.27,0.72,0.488c0.202,0.219,0.362,0.494,0.479,0.824
		c0.117,0.331,0.177,0.72,0.177,1.168v5.392c0,0.384-0.192,0.576-0.576,0.576h-0.576c-0.384,0-0.576-0.192-0.576-0.576V7.936
		c0-0.512-0.104-0.861-0.312-1.048s-0.462-0.28-0.761-0.28c-0.298,0-0.552,0.094-0.76,0.28s-0.312,0.536-0.312,1.048V13.023z"/>
	<path class="st0" d="M97.741,2.976c0-0.384,0.192-0.576,0.576-0.576h0.576c0.384,0,0.576,0.192,0.576,0.576V3.52
		c0,0.384-0.192,0.576-0.576,0.576h-0.576c-0.384,0-0.576-0.192-0.576-0.576V2.976z M97.741,5.744c0-0.384,0.192-0.576,0.576-0.576
		h0.576c0.384,0,0.576,0.192,0.576,0.576v7.28c0,0.384-0.192,0.576-0.576,0.576h-0.576c-0.384,0-0.576-0.192-0.576-0.576V5.744z"/>
	<path class="st0" d="M106.605,13.6h-0.576c-0.385,0-0.576-0.192-0.576-0.576V7.936c0-0.512-0.104-0.861-0.312-1.048
		s-0.461-0.28-0.76-0.28s-0.552,0.094-0.76,0.28s-0.312,0.536-0.312,1.048v5.088c0,0.384-0.191,0.576-0.575,0.576h-0.576
		c-0.384,0-0.576-0.192-0.576-0.576v-5.2c0-0.469,0.072-0.883,0.216-1.24c0.145-0.357,0.339-0.653,0.584-0.888
		c0.245-0.235,0.539-0.411,0.88-0.528c0.342-0.117,0.715-0.176,1.12-0.176c0.395,0,0.766,0.059,1.112,0.176
		c0.347,0.118,0.643,0.293,0.888,0.528c0.245,0.234,0.44,0.531,0.584,0.888c0.145,0.357,0.216,0.771,0.216,1.24v5.2
		C107.181,13.408,106.989,13.6,106.605,13.6z"/>
	<path class="st0" d="M112.909,12.271c-0.373,0.448-0.901,0.672-1.584,0.672c-0.661,0-1.208-0.216-1.64-0.648
		c-0.433-0.432-0.648-1.096-0.648-1.992v-2.48c0-0.469,0.072-0.883,0.216-1.24c0.145-0.357,0.339-0.653,0.584-0.888
		c0.245-0.235,0.539-0.411,0.88-0.528c0.342-0.117,0.715-0.176,1.12-0.176c0.395,0,0.766,0.059,1.112,0.176
		c0.347,0.118,0.643,0.293,0.888,0.528c0.245,0.234,0.44,0.531,0.584,0.888c0.145,0.357,0.217,0.771,0.217,1.24v5.904
		c0,0.469-0.072,0.877-0.217,1.224c-0.144,0.347-0.339,0.632-0.584,0.856s-0.541,0.392-0.888,0.504
		c-0.347,0.112-0.718,0.168-1.112,0.168c-0.427,0-0.808-0.062-1.144-0.184s-0.622-0.288-0.856-0.496s-0.413-0.451-0.536-0.728
		c-0.122-0.278-0.184-0.576-0.184-0.896c0-0.384,0.192-0.576,0.576-0.576h0.656c0.33,0,0.495,0.165,0.495,0.496
		c0,0.234,0.08,0.435,0.24,0.6c0.16,0.165,0.411,0.248,0.752,0.248c0.299,0,0.553-0.08,0.761-0.24s0.312-0.496,0.312-1.008V12.271z
		 M112.909,7.936c0-0.512-0.104-0.861-0.312-1.048s-0.462-0.28-0.761-0.28s-0.552,0.094-0.76,0.28s-0.312,0.536-0.312,1.048V10
		c0,0.512,0.104,0.862,0.312,1.048s0.461,0.28,0.76,0.28s0.553-0.093,0.761-0.28s0.312-0.536,0.312-1.048V7.936z"/>
</g>
</svg>