<!-- Generator: Adobe Illustrator 21.0.0, SVG Export Plug-In  -->
<svg version="1.1"
	 xmlns="http://www.w3.org/2000/svg" xmlns:xlink="http://www.w3.org/1999/xlink" xmlns:a="http://ns.adobe.com/AdobeSVGViewerExtensions/3.0/"
	 x="0px" y="0px" width="241.509px" height="686.294px" viewBox="0 0 241.509 686.294"
	 style="enable-background:new 0 0 241.509 686.294;" xml:space="preserve">
<style type="text/css">
	.st0{fill:#FFFFFF;}
	.st1{fill:#DCDDDE;}
</style>
<defs>
</defs>
<g id="New_Symbol_7_copy">
	<g>
		<g>
			<g>
				<path class="st0" d="M10.54,428.77c-1.976,0.027-3.747,0.508-5.311,1.441c-1.592,0.933-2.855,2.196-3.788,3.788
					c-0.933,1.565-1.414,3.321-1.441,5.27c0.027,1.976,0.508,3.747,1.441,5.311c0.933,1.592,2.196,2.855,3.788,3.788
					c1.564,0.933,3.335,1.414,5.311,1.441c1.949-0.027,3.705-0.508,5.27-1.441c1.592-0.933,2.855-2.196,3.788-3.788
					c0.933-1.565,1.414-3.335,1.441-5.311c-0.027-1.949-0.508-3.705-1.441-5.27c-0.933-1.592-2.196-2.854-3.788-3.788
					C14.245,429.278,12.489,428.797,10.54,428.77 M168.925,669.332c1.125-0.878,2.223-1.825,3.294-2.841H69.332
					c1.098,1.016,2.21,1.976,3.335,2.882c13.696,11.281,29.725,16.921,48.088,16.921
					C139.144,686.294,155.201,680.64,168.925,669.332 M221.953,444.58c0.933,1.592,2.182,2.855,3.747,3.788
					c1.592,0.933,3.362,1.414,5.311,1.441c1.949-0.027,3.719-0.508,5.311-1.441c1.564-0.933,2.827-2.196,3.788-3.788
					c0.933-1.565,1.4-3.335,1.4-5.311c0-1.949-0.467-3.705-1.4-5.27c-0.961-1.592-2.223-2.854-3.788-3.788
					c-1.592-0.933-3.362-1.414-5.311-1.441c-1.949,0.027-3.719,0.508-5.311,1.441c-1.564,0.933-2.813,2.196-3.747,3.788
					c-0.933,1.565-1.414,3.321-1.441,5.27C220.539,441.245,221.02,443.015,221.953,444.58 M190.086,357.75
					c-5.215-2.223-10.828-3.362-16.839-3.417H68.303c-6.038,0.055-11.665,1.194-16.88,3.417c-5.242,2.251-9.84,5.352-13.792,9.305
					c-3.952,3.952-7.054,8.536-9.305,13.751c-2.223,5.242-3.349,10.869-3.376,16.88v83.165c0.027,6.038,1.153,11.665,3.376,16.88
					c2.251,5.215,5.352,9.812,9.305,13.792c3.952,3.952,8.55,7.054,13.792,9.305c4.941,2.113,10.265,3.239,15.974,3.376
					c0.302,0,0.604,0,0.906,0h7.287c1.894,0.027,3.609,0.494,5.146,1.4c1.537,0.906,2.745,2.127,3.623,3.664
					c0.906,1.51,1.372,3.211,1.4,5.105c0,0.055,0,0.11,0,0.165c-0.027,1.976-0.48,3.774-1.359,5.393
					c-0.027,0.027-0.055,0.069-0.082,0.124c-0.137,0.247-0.274,0.48-0.412,0.7c-0.082,0.11-0.165,0.206-0.247,0.288
					c-0.137,0.22-0.274,0.412-0.412,0.576c-0.082,0.082-0.151,0.178-0.206,0.288c-0.247,0.247-0.494,0.508-0.741,0.782
					c-0.302,0.274-0.59,0.535-0.865,0.782c-0.302,0.247-0.59,0.48-0.865,0.7c-0.274,0.137-0.549,0.302-0.823,0.494
					c-4.639,3.019-9.03,6.601-13.175,10.746c-0.741,0.741-1.455,1.482-2.141,2.223c-13.559,14.52-20.338,31.853-20.338,51.999
					c0,19.268,6.203,35.97,18.609,50.105c0.027,0.055,0.082,0.096,0.165,0.123c0.741,0.851,1.619,1.51,2.635,1.976
					c1.043,0.439,2.141,0.672,3.294,0.7l104.121-0.082c1.125,0,2.182-0.233,3.17-0.7c1.043-0.467,1.921-1.112,2.635-1.935
					l0.124-0.123c12.379-14.135,18.568-30.823,18.568-50.064c0-21.189-7.479-39.263-22.438-54.222
					c-4.117-4.117-8.481-7.672-13.092-10.663c-0.384-0.274-0.755-0.521-1.112-0.741c-0.576-0.384-1.112-0.837-1.606-1.359
					c-1.784-1.784-2.868-3.829-3.253-6.134h-0.041c0-0.055,0-0.261,0-0.618c0-0.329-0.014-0.768-0.041-1.318
					c-0.027-1.921,0.412-3.664,1.317-5.229c0.906-1.565,2.127-2.8,3.664-3.705c1.537-0.933,3.266-1.414,5.188-1.441h7.246
					c6.011-0.027,11.624-1.153,16.839-3.376c5.242-2.251,9.84-5.352,13.792-9.305c3.952-3.98,7.054-8.577,9.305-13.792
					c2.223-5.215,3.362-10.842,3.417-16.88v-83.165c-0.055-6.011-1.194-11.638-3.417-16.88c-2.251-5.215-5.352-9.799-9.305-13.751
					C199.926,363.102,195.329,360.001,190.086,357.75 M197.456,439.269c0,21.189-7.493,39.25-22.479,54.181
					c-14.959,14.986-33.033,22.479-54.222,22.479c-13.12,0-25.059-2.868-35.819-8.605c-6.587-3.541-12.736-8.166-18.445-13.875
					c-14.904-14.931-22.356-32.992-22.356-54.181c0-21.189,7.452-39.277,22.356-54.263c14.986-14.904,33.074-22.356,54.263-22.356
					c21.189-0.027,39.263,7.424,54.222,22.356C189.963,399.991,197.456,418.079,197.456,439.269 M153.527,576.985
					c8.975,8.975,13.463,19.844,13.463,32.607c0,12.736-4.488,23.618-13.463,32.649c-9.058,9.003-19.954,13.504-32.69,13.504
					c-12.763,0-23.646-4.501-32.649-13.504c-8.975-9.003-13.463-19.886-13.463-32.649c0-12.736,4.488-23.605,13.463-32.607
					c3.513-3.541,7.328-6.382,11.446-8.522c6.368-3.349,13.435-5.023,21.203-5.023C133.572,563.44,144.469,567.955,153.527,576.985
					 M162.955,609.552c0-11.638-4.09-21.56-12.269-29.767c-8.289-8.262-18.252-12.393-29.89-12.392
					c-5.517,0-10.663,0.947-15.439,2.841c-5.242,2.031-10.018,5.215-14.328,9.552c-8.234,8.207-12.351,18.129-12.351,29.767
					c0,11.638,4.117,21.587,12.351,29.849c8.234,8.207,18.156,12.324,29.767,12.351c11.638-0.027,21.601-4.145,29.89-12.351
					C158.865,631.139,162.955,621.189,162.955,609.552 M132.529,603.294c0.137,0.137,0.343,0.178,0.618,0.124l5.064-1.07
					l-1.317,5.023c-0.11,0.357-0.192,0.659-0.247,0.906c-0.055,0.275-0.055,0.48,0,0.618c0.082,0.137,0.261,0.274,0.535,0.412
					l1.812,0.865l-8.769,7.37c-0.165,0.137-0.275,0.329-0.329,0.576c-0.11,0.192-0.11,0.412,0,0.659l0.741,2.635
					c-1.016-0.137-1.99-0.261-2.923-0.371c-0.988-0.11-1.949-0.233-2.882-0.371c-0.933-0.11-1.88-0.22-2.841-0.329l0.7,9.181h-3.541
					l0.618-9.181c-0.027,0-0.055,0-0.082,0c-0.988,0.11-1.963,0.22-2.923,0.329c-0.933,0.137-1.88,0.261-2.841,0.371
					c-0.933,0.11-1.908,0.233-2.923,0.371l0.823-2.635c0.027-0.247,0-0.467-0.082-0.659c-0.082-0.247-0.192-0.439-0.329-0.576
					l-8.769-7.37l1.811-0.865c0.247-0.137,0.412-0.274,0.494-0.412c0.055-0.137,0.055-0.343,0-0.618
					c-0.055-0.247-0.124-0.549-0.206-0.906l-1.359-5.023l5.105,1.07c0.22,0.055,0.412,0.014,0.576-0.124
					c0.165-0.11,0.274-0.247,0.329-0.412l0.659-2.388l3.994,4.694c0.137,0.165,0.302,0.302,0.494,0.412
					c0.192,0.082,0.371,0.082,0.535,0c0.165-0.055,0.274-0.192,0.329-0.412c0.082-0.22,0.069-0.549-0.041-0.988l-1.647-9.469
					l2.264,1.235c0.357,0.22,0.673,0.329,0.947,0.329c0.274-0.055,0.494-0.233,0.659-0.535l3.211-6.217l3.211,6.217
					c0.165,0.302,0.398,0.48,0.7,0.535c0.275,0,0.59-0.11,0.947-0.329l2.306-1.235l-1.729,9.469
					c-0.11,0.439-0.124,0.769-0.041,0.988c0.082,0.22,0.206,0.357,0.371,0.412c0.165,0.082,0.329,0.082,0.494,0
					c0.192-0.11,0.371-0.247,0.535-0.412l3.994-4.694l0.7,2.388C132.31,603.047,132.392,603.184,132.529,603.294"/>
			</g>
		</g>
		<g>
			<path class="st0" d="M80.079,350.257h81.312c2.655,0,5.136-1.323,6.615-3.528l8.586-12.801l-5.934-1.075
				c-0.823-0.133-1.42-0.412-1.792-0.836c-0.239-0.319-0.398-0.903-0.478-1.752c0-0.717,0-1.646,0-2.788l-0.119-15.533l-13.78,7.049
				c-0.77,0.345-1.367,0.385-1.792,0.12c-0.558-0.212-0.943-0.531-1.155-0.956l-3.943-6.173l-6.169,12.202
				c-0.822,1.626-3.288,0.822-2.994-0.976l3.507-21.421l-6.811,3.744c-1.035,0.558-1.951,0.836-2.748,0.836
				c-0.956-0.08-1.673-0.597-2.151-1.553l-9.559-18.52l-9.559,18.52c-0.558,0.956-1.234,1.474-2.031,1.553
				c-0.876,0-1.832-0.279-2.868-0.836l-6.651-3.744l3.537,21.903c0.29,1.797-2.175,2.597-2.995,0.972l-6.317-12.519l-3.784,6.492
				c-0.292,0.398-0.69,0.704-1.195,0.916c-0.558,0.266-1.155,0.226-1.792-0.119l-13.82-7.049l-0.159,15.572
				c0.026,1.168,0.04,2.111,0.04,2.828c-0.08,0.823-0.279,1.381-0.597,1.673c-0.266,0.425-0.823,0.704-1.673,0.836l-5.894,1.115
				l8.617,12.425C75.021,348.977,77.467,350.257,80.079,350.257z"/>
		</g>
		<g>
			<g>
				<path class="st0" d="M189.221,444.28c-2.75,0-4.979-2.229-4.979-4.979c0-4.845-1.678-8.878-5.13-12.329
					c-3.378-3.399-7.366-5.047-12.205-5.047c-4.828,0-8.836,1.639-12.251,5.01c-0.458,0.483-0.895,0.965-1.31,1.447
					c-2.567,3.135-3.815,6.707-3.815,10.919c0,2.75-2.229,4.979-4.979,4.979s-4.979-2.229-4.979-4.979
					c0-6.54,2.058-12.356,6.116-17.286c0.021-0.025,0.043-0.052,0.064-0.077c0.549-0.639,1.127-1.278,1.736-1.919
					c0.032-0.034,0.065-0.067,0.099-0.101c5.312-5.277,11.811-7.952,19.319-7.952c7.521,0,14.001,2.683,19.259,7.975
					c5.328,5.328,8.035,11.846,8.035,19.36C194.2,442.051,191.971,444.28,189.221,444.28z"/>
			</g>
			<g>
				<path class="st0" d="M121.043,484.915c-5.102,0-9.535-1.828-13.178-5.434c-3.614-3.651-5.429-8.058-5.429-13.132
					c0-2.75,2.229-4.979,4.979-4.979s4.979,2.229,4.979,4.979c0,2.423,0.798,4.358,2.512,6.09c1.724,1.705,3.685,2.517,6.136,2.517
					c2.441,0,4.384-0.806,6.112-2.535c1.74-1.739,2.559-3.68,2.576-6.107c0.02-2.738,2.246-4.943,4.979-4.943
					c0.013,0,0.024,0,0.037,0c2.75,0.021,4.964,2.266,4.943,5.016c-0.037,5.07-1.885,9.471-5.492,13.078
					C130.58,483.081,126.154,484.915,121.043,484.915z"/>
			</g>
			<g>
				<path class="st0" d="M97,444.28c-2.75,0-4.979-2.229-4.979-4.979c0-4.845-1.678-8.878-5.13-12.329
					c-3.396-3.396-7.401-5.047-12.246-5.047c-4.805,0-8.785,1.624-12.164,4.964l-1.4,1.549c-2.564,3.122-3.812,6.677-3.812,10.863
					c0,2.75-2.229,4.979-4.979,4.979s-4.979-2.229-4.979-4.979c0-6.548,2.076-12.369,6.17-17.302
					c0.046-0.055,0.093-0.108,0.14-0.161l1.562-1.727c0.056-0.062,0.114-0.123,0.174-0.183c5.285-5.284,11.774-7.963,19.289-7.963
					s14.005,2.679,19.289,7.963c5.339,5.34,8.046,11.857,8.046,19.372C101.979,442.051,99.75,444.28,97,444.28z"/>
			</g>
		</g>
	</g>
</g>
<g>
	<path class="st0" d="M122.199,226.477c-0.009,0-0.017,0-0.025,0c-2.439,0-4.91-0.079-7.342-0.234
		c-1.653-0.106-2.908-1.532-2.803-3.186c0.105-1.654,1.533-2.894,3.186-2.803c2.305,0.147,4.646,0.223,6.96,0.223
		c0.008,0,0.017,0,0.024,0c4.151,0,8.336-0.24,12.438-0.716c1.645-0.186,3.134,0.989,3.325,2.636
		c0.19,1.646-0.989,3.135-2.636,3.325C130.997,226.223,126.58,226.477,122.199,226.477z M105.096,225.161
		c-0.146,0-0.292-0.01-0.44-0.032c-0.033-0.005-0.165-0.025-0.199-0.032c-1.63-0.296-2.711-1.857-2.414-3.488
		c0.296-1.631,1.863-2.71,3.488-2.414c1.639,0.24,2.771,1.765,2.53,3.403C107.842,224.089,106.559,225.161,105.096,225.161z
		 M144.844,224.144c-1.395,0-2.644-0.978-2.936-2.396c-0.334-1.622,0.711-3.209,2.334-3.543c1.615-0.334,3.252,0.696,3.59,2.314
		s-0.647,3.195-2.266,3.538c-0.006,0.001-0.109,0.023-0.115,0.024C145.248,224.123,145.044,224.144,144.844,224.144z
		 M95.201,223.153c-0.242,0-0.488-0.03-0.733-0.092c-6.629-1.667-13.144-3.955-19.36-6.801c-1.507-0.689-2.169-2.47-1.479-3.976
		c0.688-1.509,2.47-2.171,3.976-1.479c5.886,2.693,12.052,4.859,18.327,6.438c1.607,0.403,2.582,2.034,2.178,3.641
		C97.766,222.245,96.544,223.153,95.201,223.153z M154.619,221.625c-1.283,0-2.47-0.829-2.866-2.119
		c-0.487-1.584,0.402-3.263,1.985-3.749c6.179-1.899,12.223-4.382,17.965-7.377c1.473-0.765,3.282-0.195,4.048,1.272
		c0.766,1.469,0.196,3.281-1.272,4.048c-6.065,3.163-12.45,5.785-18.977,7.791C155.208,221.582,154.911,221.625,154.619,221.625z
		 M67.444,211.962c-0.494,0-0.995-0.124-1.459-0.387l-0.125-0.072c-1.429-0.838-1.908-2.676-1.07-4.105
		c0.838-1.429,2.674-1.908,4.105-1.07c1.441,0.816,1.972,2.661,1.155,4.103C69.496,211.408,68.486,211.962,67.444,211.962z
		 M181.716,209.041c-0.96,0-1.901-0.466-2.483-1.324c-0.931-1.371-0.556-3.248,0.815-4.179c0.034-0.022,0.152-0.099,0.187-0.12
		c1.407-0.875,3.257-0.441,4.131,0.967c0.874,1.407,0.441,3.257-0.967,4.131l-1.582-2.549l1.564,2.56
		C182.868,208.875,182.289,209.041,181.716,209.041z M58.94,206.552c-0.595,0-1.195-0.176-1.72-0.544
		c-5.591-3.921-10.86-8.377-15.661-13.245c-1.163-1.18-1.15-3.079,0.029-4.242c1.178-1.163,3.078-1.152,4.242,0.029
		c4.548,4.61,9.539,8.832,14.835,12.546c1.356,0.951,1.685,2.822,0.733,4.179C60.815,206.106,59.886,206.552,58.94,206.552z
		 M189.965,203.179c-0.893,0-1.775-0.396-2.366-1.154c-1.021-1.306-0.788-3.19,0.519-4.21c5.099-3.981,9.867-8.451,14.174-13.287
		c1.103-1.236,2.997-1.349,4.235-0.245c1.237,1.102,1.347,2.998,0.245,4.235c-4.546,5.104-9.58,9.823-14.963,14.025
		C191.261,202.972,190.61,203.179,189.965,203.179z M37.016,186.238c-0.856,0-1.709-0.364-2.305-1.068
		c-0.026-0.031-0.116-0.141-0.142-0.173c-1.018-1.308-0.781-3.192,0.526-4.21c1.309-1.018,3.191-0.782,4.21,0.526
		c1.07,1.265,0.905,3.148-0.359,4.219C38.386,186.007,37.7,186.238,37.016,186.238z M210.834,181.765
		c-0.627,0-1.259-0.195-1.798-0.6c-1.325-0.994-1.595-2.875-0.601-4.2c0.992-1.323,2.896-1.636,4.223-0.646
		c1.326,0.988,1.632,2.822,0.648,4.151c-0.004,0.004-0.067,0.089-0.07,0.094C212.646,181.351,211.746,181.765,210.834,181.765z
		 M30.953,178.153c-0.96,0-1.903-0.459-2.483-1.312c-3.848-5.658-7.195-11.691-9.95-17.935c-0.668-1.516,0.019-3.287,1.534-3.956
		c1.516-0.665,3.287,0.019,3.956,1.534c2.607,5.911,5.777,11.624,9.421,16.981c0.932,1.37,0.576,3.236-0.793,4.168
		C32.121,177.985,31.533,178.153,30.953,178.153z M216.463,173.386c-0.53,0-1.067-0.141-1.555-0.436
		c-1.416-0.86-1.866-2.706-1.007-4.122c3.365-5.539,6.237-11.41,8.536-17.45c0.59-1.548,2.319-2.327,3.871-1.736
		c1.549,0.59,2.326,2.322,1.736,3.871c-2.429,6.379-5.462,12.58-9.015,18.431C218.466,172.872,217.476,173.386,216.463,173.386z
		 M17.62,151.352c-1.234,0-2.38-0.759-2.805-1.995l-0.041-0.122c-0.524-1.571,0.325-3.271,1.897-3.794
		c1.572-0.524,3.271,0.325,3.794,1.897c0.539,1.566-0.283,3.308-1.85,3.846C18.286,151.297,17.95,151.352,17.62,151.352z
		 M228.368,145.954c-0.262,0-0.527-0.034-0.791-0.106c-1.599-0.437-2.541-2.085-2.105-3.684l0.026-0.097
		c0.437-1.599,2.091-2.544,3.684-2.105c1.599,0.437,2.541,2.085,2.105,3.684l-0.026,0.097
		C230.896,145.076,229.687,145.954,228.368,145.954z M14.878,141.677c-1.359,0-2.591-0.931-2.917-2.312
		c-1.564-6.625-2.535-13.456-2.884-20.304c-0.084-1.654,1.188-3.064,2.844-3.148c1.639-0.098,3.063,1.188,3.148,2.844
		c0.33,6.485,1.249,12.955,2.731,19.229c0.381,1.612-0.618,3.229-2.23,3.609C15.339,141.65,15.106,141.677,14.878,141.677z
		 M230.635,136.118c-0.179,0-0.359-0.017-0.541-0.05c-1.631-0.297-2.711-1.858-2.414-3.488c1.154-6.338,1.739-12.848,1.739-19.348
		c0-3.649-0.186-7.328-0.55-10.935c-0.167-1.648,1.034-3.119,2.683-3.286c1.641-0.178,3.119,1.034,3.286,2.683
		c0.386,3.806,0.581,7.688,0.581,11.538c0,6.86-0.618,13.731-1.837,20.422C233.318,135.103,232.055,136.118,230.635,136.118z
		 M12.013,111.866c-0.043,0-0.086-0.001-0.129-0.003c-1.639-0.072-2.917-1.396-2.869-3.035c0.001-0.029,0.007-0.158,0.008-0.188
		c0.098-1.654,1.54-2.905,3.171-2.819c1.654,0.098,2.916,1.518,2.819,3.171C14.919,110.586,13.595,111.866,12.013,111.866z
		 M12.864,101.858c-0.129,0-0.26-0.008-0.392-0.025c-1.643-0.214-2.801-1.719-2.587-3.362c0.884-6.786,2.394-13.521,4.487-20.016
		c0.509-1.577,2.198-2.442,3.776-1.935c1.576,0.509,2.442,2.199,1.935,3.776c-1.982,6.148-3.412,12.523-4.249,18.949
		C15.638,100.758,14.348,101.858,12.864,101.858z M230.393,95.111c-1.422,0-2.685-1.016-2.947-2.464
		c-0.335-1.623,0.707-3.225,2.33-3.559c1.617-0.333,3.206,0.694,3.54,2.318l0.032,0.166c0.297,1.631-0.784,3.192-2.414,3.488
		C230.753,95.095,230.572,95.111,230.393,95.111z M228.019,85.303c-1.3,0-2.497-0.851-2.879-2.161
		c-1.811-6.205-4.204-12.284-7.117-18.069c-0.745-1.479-0.149-3.283,1.331-4.028c1.478-0.744,3.282-0.149,4.028,1.331
		c3.076,6.11,5.605,12.532,7.518,19.087c0.464,1.591-0.449,3.256-2.04,3.72C228.58,85.264,228.297,85.303,228.019,85.303z
		 M20.722,73.001c-0.374,0-0.755-0.07-1.122-0.22c-1.535-0.623-2.278-2.363-1.654-3.898l0.07-0.166
		c0.663-1.518,2.431-2.212,3.95-1.546c1.519,0.664,2.21,2.433,1.546,3.95C23.039,72.289,21.911,73.001,20.722,73.001z
		 M25.108,63.918c-0.481,0-0.97-0.116-1.423-0.361c-1.458-0.787-2.001-2.607-1.214-4.065c3.244-6.007,7.061-11.758,11.343-17.093
		c1.038-1.292,2.927-1.498,4.218-0.462c1.292,1.037,1.499,2.926,0.462,4.218c-4.057,5.053-7.671,10.499-10.743,16.188
		C27.208,63.347,26.176,63.918,25.108,63.918z M215.811,58.012c-1.004,0-1.983-0.503-2.552-1.418c-0.874-1.407-0.468-3.3,0.94-4.174
		c1.406-0.873,3.23-0.482,4.104,0.925l0.053,0.085c0.874,1.407,0.441,3.257-0.967,4.131
		C216.898,57.866,216.351,58.012,215.811,58.012z M210.087,49.697c-0.906,0-1.803-0.409-2.393-1.188
		c-3.91-5.158-8.312-9.99-13.084-14.362c-1.222-1.119-1.305-3.018-0.186-4.238c1.12-1.223,3.019-1.305,4.238-0.186
		c5.037,4.615,9.685,9.717,13.812,15.161c1.001,1.32,0.742,3.202-0.578,4.203C211.355,49.499,210.719,49.697,210.087,49.697z
		 M42.756,39.772c-0.748,0-1.496-0.277-2.077-0.836c-1.195-1.147-1.234-3.047-0.087-4.241l0.067-0.071
		c1.146-1.196,3.045-1.237,4.242-0.09c1.195,1.146,1.236,3.046,0.09,4.242L44.92,38.85C44.331,39.464,43.544,39.772,42.756,39.772z
		 M50.083,32.827c-0.841,0-1.677-0.352-2.27-1.037c-1.084-1.253-0.947-3.147,0.306-4.231c5.172-4.475,10.776-8.5,16.658-11.965
		c1.426-0.839,3.267-0.366,4.107,1.062c0.841,1.427,0.365,3.267-1.062,4.107c-5.57,3.281-10.879,7.095-15.777,11.332
		C51.477,32.587,50.778,32.827,50.083,32.827z M188.986,28.526c-0.61,0-1.227-0.184-1.759-0.563l-0.178-0.134
		c-1.308-1.018-1.544-2.902-0.526-4.21c1.018-1.31,2.9-1.544,4.21-0.526l-1.842,2.368l1.858-2.355
		c1.348,0.963,1.643,2.824,0.68,4.172C190.846,28.094,189.924,28.526,188.986,28.526z M180.67,22.771
		c-0.544,0-1.096-0.147-1.591-0.458c-5.494-3.445-11.324-6.401-17.326-8.785c-1.54-0.611-2.292-2.355-1.681-3.896
		c0.61-1.539,2.354-2.294,3.896-1.681c6.34,2.519,12.496,5.64,18.299,9.277c1.403,0.881,1.828,2.731,0.948,4.136
		C182.644,22.273,181.669,22.771,180.67,22.771z M75.196,16.464c-1.129,0-2.221-0.621-2.731-1.695
		c-0.707-1.489-0.126-3.249,1.358-3.967c0.013-0.007,0.115-0.056,0.128-0.062c1.502-0.699,3.286-0.051,3.987,1.45
		c0.7,1.501,0.052,3.286-1.45,3.987C76.073,16.371,75.632,16.464,75.196,16.464z M84.442,12.617c-1.225,0-2.375-0.756-2.818-1.974
		c-0.567-1.557,0.234-3.279,1.791-3.846c6.417-2.338,13.09-4.099,19.835-5.233c1.629-0.273,3.182,0.825,3.456,2.46
		c0.275,1.634-0.826,3.182-2.46,3.456c-6.386,1.075-12.703,2.741-18.776,4.954C85.131,12.559,84.783,12.617,84.442,12.617z
		 M153.413,10.479c-0.268,0-0.54-0.037-0.812-0.113c-0.02-0.005-0.134-0.039-0.153-0.045c-1.586-0.48-2.481-2.155-2.001-3.741
		c0.479-1.587,2.153-2.482,3.741-2.001l-0.87,2.871l0.91-2.859c1.588,0.459,2.515,2.118,2.062,3.708
		C155.914,9.617,154.719,10.479,153.413,10.479z M143.615,8.073c-0.192,0-0.387-0.019-0.583-0.058
		C136.711,6.77,130.211,6.092,123.713,6c-1.657-0.023-2.981-1.386-2.958-3.042C120.778,1.315,122.117,0,123.754,0
		c0.015,0,0.029,0,0.043,0c6.859,0.097,13.721,0.813,20.396,2.129c1.626,0.32,2.684,1.898,2.363,3.523
		C146.273,7.082,145.019,8.073,143.615,8.073z M113.763,6.305c-1.563,0-2.923-1.201-3.039-2.776
		c-0.12-1.635,1.045-3.061,2.679-3.204c0.029-0.003,0.158-0.013,0.188-0.015c1.63-0.096,3.073,1.164,3.171,2.819
		c0.097,1.653-1.165,3.073-2.819,3.171C113.882,6.303,113.821,6.305,113.763,6.305z"/>
</g>
<g>
	<path class="st1" d="M82.784,75.944c0.811,0,1.216,0.406,1.216,1.216v0.097c0,0.96-0.165,1.84-0.496,2.64s-0.795,1.488-1.392,2.064
		c-0.598,0.575-1.312,1.023-2.145,1.344s-1.738,0.479-2.72,0.479c-1.003,0-1.925-0.144-2.769-0.432
		c-0.842-0.288-1.572-0.725-2.191-1.312s-1.104-1.317-1.456-2.192s-0.528-1.898-0.528-3.072v-9.088c0-1.173,0.176-2.197,0.528-3.072
		c0.353-0.874,0.837-1.604,1.456-2.191s1.35-1.024,2.191-1.312c0.844-0.288,1.766-0.432,2.769-0.432c0.981,0,1.888,0.16,2.72,0.479
		c0.832,0.32,1.547,0.769,2.145,1.345c0.597,0.576,1.061,1.264,1.392,2.063S84,66.249,84,67.209v0.096
		c0,0.811-0.405,1.216-1.216,1.216h-1.376c-0.726,0-1.089-0.362-1.089-1.088c0-0.96-0.266-1.744-0.799-2.352
		c-0.534-0.608-1.28-0.912-2.24-0.912c-0.448,0-0.869,0.063-1.264,0.191c-0.396,0.128-0.748,0.342-1.057,0.641
		c-0.31,0.299-0.549,0.698-0.72,1.199c-0.171,0.502-0.257,1.126-0.257,1.872v8.32c0,0.747,0.086,1.371,0.257,1.872
		c0.171,0.502,0.41,0.901,0.72,1.2c0.309,0.299,0.661,0.512,1.057,0.64c0.395,0.128,0.815,0.192,1.264,0.192
		c0.96,0,1.706-0.305,2.24-0.912c0.533-0.608,0.799-1.393,0.799-2.353c0-0.725,0.363-1.088,1.089-1.088H82.784z"/>
	<path class="st1" d="M92.351,80.329c0.171,0,0.314-0.006,0.433-0.017c0.116-0.011,0.271-0.037,0.463-0.08
		c0.385-0.063,0.672,0.011,0.865,0.225c0.191,0.213,0.287,0.512,0.287,0.896v0.928c0,0.385-0.091,0.656-0.271,0.816
		c-0.182,0.16-0.432,0.271-0.752,0.336c-0.299,0.064-0.582,0.101-0.848,0.112c-0.268,0.01-0.518,0.016-0.753,0.016
		c-0.618,0-1.179-0.075-1.68-0.224c-0.501-0.149-0.934-0.395-1.296-0.736c-0.363-0.341-0.641-0.795-0.832-1.36
		c-0.192-0.564-0.288-1.253-0.288-2.063V61.864c0-0.768,0.384-1.151,1.151-1.151h1.152c0.768,0,1.152,0.384,1.152,1.151v17.057
		c0,0.555,0.128,0.928,0.384,1.12C91.775,80.232,92.053,80.329,92.351,80.329z"/>
	<path class="st1" d="M97.055,62.185c0-0.768,0.383-1.152,1.151-1.152h1.152c0.768,0,1.151,0.385,1.151,1.152v1.088
		c0,0.769-0.384,1.152-1.151,1.152h-1.152c-0.769,0-1.151-0.384-1.151-1.152V62.185z M97.055,67.721
		c0-0.769,0.383-1.152,1.151-1.152h1.152c0.768,0,1.151,0.384,1.151,1.152v14.56c0,0.769-0.384,1.152-1.151,1.152h-1.152
		c-0.769,0-1.151-0.384-1.151-1.152V67.721z"/>
	<path class="st1" d="M107.903,77.896c0,1.024,0.207,1.723,0.623,2.096c0.416,0.374,0.923,0.561,1.521,0.561
		c0.618,0,1.104-0.192,1.456-0.576s0.527-0.896,0.527-1.536c0-0.661,0.331-0.992,0.992-0.992h1.312c0.768,0,1.152,0.385,1.152,1.152
		c0,0.789-0.135,1.504-0.4,2.144c-0.268,0.641-0.641,1.185-1.12,1.633c-0.479,0.447-1.056,0.795-1.728,1.04
		c-0.672,0.244-1.403,0.367-2.192,0.367c-0.812,0-1.558-0.117-2.24-0.352s-1.27-0.587-1.76-1.056
		c-0.491-0.47-0.88-1.062-1.168-1.776s-0.433-1.541-0.433-2.479v-6.24c0-0.938,0.145-1.766,0.433-2.48
		c0.288-0.714,0.677-1.307,1.168-1.775c0.49-0.47,1.077-0.821,1.76-1.057c0.683-0.234,1.429-0.352,2.24-0.352
		c0.789,0,1.521,0.123,2.192,0.368s1.248,0.592,1.728,1.04c0.479,0.447,0.853,0.991,1.12,1.632c0.266,0.64,0.4,1.354,0.4,2.144
		c0,0.769-0.385,1.152-1.152,1.152h-1.312c-0.661,0-0.992-0.331-0.992-0.992c0-0.64-0.176-1.152-0.527-1.536
		s-0.838-0.576-1.456-0.576c-0.598,0-1.104,0.188-1.521,0.561s-0.623,1.072-0.623,2.096V77.896z"/>
	<path class="st1" d="M123.966,76.265l-1.375,1.792v4.224c0,0.769-0.385,1.152-1.152,1.152h-1.152c-0.768,0-1.152-0.384-1.152-1.152
		V61.833c0-0.769,0.385-1.152,1.152-1.152h1.152c0.768,0,1.152,0.384,1.152,1.152V73.48l4.096-6.048
		c0.191-0.299,0.4-0.517,0.623-0.656c0.225-0.139,0.55-0.208,0.977-0.208h1.633c0.404,0,0.655,0.149,0.752,0.448
		c0.096,0.299,0.036,0.576-0.177,0.832l-4.319,5.536l4.479,8.8c0.171,0.299,0.192,0.582,0.063,0.848
		c-0.127,0.268-0.383,0.4-0.768,0.4h-1.473c-0.426,0-0.74-0.069-0.943-0.208s-0.379-0.357-0.527-0.656L123.966,76.265z"/>
	<path class="st1" d="M159.358,82.28c0,0.769-0.385,1.152-1.152,1.152h-1.152c-0.768,0-1.152-0.384-1.152-1.152V71.944
		c0-0.96-0.197-1.615-0.592-1.968c-0.395-0.352-0.869-0.528-1.424-0.528s-1.029,0.177-1.424,0.528
		c-0.395,0.353-0.592,1.008-0.592,1.968V82.28c0,0.769-0.385,1.152-1.152,1.152h-1.152c-0.768,0-1.152-0.384-1.152-1.152V71.944
		c0-0.96-0.197-1.615-0.592-1.968c-0.395-0.352-0.869-0.528-1.424-0.528s-1.029,0.177-1.424,0.528
		c-0.395,0.353-0.592,1.008-0.592,1.968V82.28c0,0.769-0.385,1.152-1.152,1.152h-1.152c-0.768,0-1.151-0.384-1.151-1.152V71.305
		c0-0.854,0.128-1.595,0.384-2.224c0.256-0.63,0.607-1.157,1.057-1.584c0.447-0.427,0.976-0.747,1.584-0.961
		c0.607-0.213,1.273-0.319,2-0.319c0.959,0,1.797,0.208,2.512,0.624s1.274,1.008,1.68,1.775c0.405-0.768,0.965-1.359,1.68-1.775
		s1.553-0.624,2.512-0.624c0.726,0,1.393,0.106,2,0.319c0.609,0.214,1.137,0.534,1.584,0.961c0.449,0.427,0.801,0.954,1.057,1.584
		c0.256,0.629,0.385,1.37,0.385,2.224V82.28z"/>
	<path class="st1" d="M170.685,78.761c0-0.661,0.331-0.992,0.992-0.992h1.312c0.768,0,1.152,0.384,1.152,1.152
		c0,1.451-0.496,2.624-1.488,3.52c-0.992,0.896-2.309,1.344-3.951,1.344c-0.812,0-1.559-0.117-2.24-0.352
		c-0.684-0.234-1.27-0.587-1.76-1.056c-0.492-0.47-0.881-1.062-1.168-1.776c-0.289-0.715-0.433-1.541-0.433-2.479v-6.24
		c0-0.938,0.144-1.766,0.433-2.48c0.287-0.714,0.676-1.307,1.168-1.775c0.49-0.47,1.076-0.821,1.76-1.057
		c0.682-0.234,1.429-0.352,2.24-0.352c0.789,0,1.529,0.117,2.223,0.352c0.693,0.235,1.285,0.587,1.777,1.057
		c0.49,0.469,0.879,1.062,1.168,1.775c0.287,0.715,0.432,1.542,0.432,2.48v2.72c0,0.768-0.385,1.152-1.152,1.152h-6.592v2.144
		c0,1.024,0.208,1.723,0.624,2.096c0.416,0.374,0.923,0.561,1.521,0.561c0.617,0,1.104-0.16,1.455-0.48
		C170.51,79.753,170.685,79.315,170.685,78.761z M166.557,73.16h4.288v-1.056c0-1.023-0.208-1.723-0.624-2.096
		s-0.924-0.561-1.52-0.561c-0.598,0-1.104,0.188-1.521,0.561s-0.624,1.072-0.624,2.096V73.16z"/>
	<path class="st1" d="M51.009,108.121c0,0.938-0.144,1.765-0.432,2.479s-0.678,1.307-1.168,1.776
		c-0.491,0.469-1.083,0.821-1.775,1.056c-0.694,0.234-1.436,0.352-2.225,0.352c-0.811,0-1.558-0.117-2.24-0.352
		s-1.275-0.565-1.775-0.992c-0.502-0.427-0.892-0.954-1.168-1.584c-0.277-0.629-0.416-1.349-0.416-2.16v-0.063
		c0-1.601,0.479-2.849,1.439-3.744c0.96-0.896,2.347-1.344,4.16-1.344h2.145v-1.44c0-1.023-0.209-1.723-0.625-2.096
		s-0.922-0.561-1.52-0.561c-0.619,0-1.078,0.166-1.376,0.496c-0.299,0.331-0.448,0.731-0.448,1.2c0,0.661-0.331,0.992-0.992,0.992
		h-1.312c-0.769,0-1.152-0.384-1.152-1.152c0-0.683,0.122-1.312,0.368-1.888c0.245-0.576,0.598-1.077,1.057-1.504
		c0.458-0.427,1.012-0.763,1.664-1.008c0.65-0.245,1.381-0.368,2.191-0.368c0.789,0,1.53,0.117,2.225,0.352
		c0.692,0.235,1.284,0.587,1.775,1.057c0.49,0.469,0.88,1.062,1.168,1.775c0.288,0.715,0.432,1.542,0.432,2.48V108.121z
		 M45.409,110.553c0.598,0,1.104-0.187,1.52-0.561c0.416-0.373,0.625-1.071,0.625-2.096v-1.76h-2.145
		c-0.598,0-1.104,0.165-1.52,0.496s-0.625,0.901-0.625,1.712s0.209,1.382,0.625,1.712C44.305,110.388,44.811,110.553,45.409,110.553
		z"/>
	<path class="st1" d="M64.801,113.433h-1.151c-0.769,0-1.152-0.384-1.152-1.152v-10.176c0-1.023-0.209-1.723-0.624-2.096
		c-0.416-0.373-0.923-0.561-1.521-0.561s-1.104,0.188-1.52,0.561s-0.624,1.072-0.624,2.096v10.176c0,0.769-0.384,1.152-1.152,1.152
		h-1.151c-0.769,0-1.152-0.384-1.152-1.152v-10.399c0-0.938,0.145-1.766,0.432-2.48c0.288-0.714,0.678-1.307,1.168-1.775
		c0.49-0.47,1.077-0.821,1.76-1.057c0.684-0.234,1.43-0.352,2.24-0.352c0.789,0,1.531,0.117,2.225,0.352
		c0.693,0.235,1.285,0.587,1.775,1.057c0.49,0.469,0.881,1.062,1.168,1.775c0.288,0.715,0.432,1.542,0.432,2.48v10.399
		C65.952,113.049,65.569,113.433,64.801,113.433z"/>
	<path class="st1" d="M69.696,101.497c0-1.792,0.433-3.12,1.297-3.984c0.863-0.864,1.957-1.296,3.279-1.296
		c0.641,0,1.232,0.106,1.776,0.319c0.544,0.214,1.008,0.556,1.392,1.024v-5.696c0-0.768,0.385-1.151,1.152-1.151h1.152
		c0.768,0,1.152,0.384,1.152,1.151v16.257c0,0.96-0.145,1.797-0.433,2.512s-0.678,1.302-1.168,1.76
		c-0.491,0.459-1.083,0.806-1.776,1.04s-1.435,0.352-2.224,0.352c-0.812,0-1.558-0.117-2.24-0.352s-1.27-0.581-1.76-1.04
		c-0.491-0.458-0.88-1.045-1.168-1.76s-0.433-1.552-0.433-2.512V101.497z M73.153,107.896c0,1.024,0.207,1.723,0.623,2.096
		c0.416,0.374,0.923,0.561,1.521,0.561c0.597,0,1.104-0.187,1.521-0.561c0.416-0.373,0.623-1.071,0.623-2.096v-5.792
		c0-1.023-0.207-1.723-0.623-2.096s-0.924-0.561-1.521-0.561c-0.598,0-1.104,0.188-1.521,0.561s-0.623,1.072-0.623,2.096V107.896z"
		/>
	<path class="st1" d="M95.231,107.896c0,1.024,0.209,1.723,0.625,2.096c0.416,0.374,0.922,0.561,1.52,0.561
		c0.618,0,1.104-0.192,1.456-0.576s0.528-0.896,0.528-1.536c0-0.661,0.33-0.992,0.992-0.992h1.312c0.768,0,1.151,0.385,1.151,1.152
		c0,0.789-0.133,1.504-0.399,2.144c-0.267,0.641-0.64,1.185-1.12,1.633c-0.48,0.447-1.057,0.795-1.729,1.04
		c-0.672,0.244-1.402,0.367-2.191,0.367c-0.811,0-1.558-0.117-2.24-0.352c-0.684-0.234-1.27-0.587-1.76-1.056
		c-0.491-0.47-0.88-1.062-1.168-1.776s-0.432-1.541-0.432-2.479v-6.24c0-0.938,0.144-1.766,0.432-2.48
		c0.288-0.714,0.677-1.307,1.168-1.775c0.49-0.47,1.076-0.821,1.76-1.057c0.683-0.234,1.43-0.352,2.24-0.352
		c0.789,0,1.52,0.123,2.191,0.368s1.248,0.592,1.729,1.04c0.48,0.447,0.854,0.991,1.12,1.632c0.267,0.64,0.399,1.354,0.399,2.144
		c0,0.769-0.384,1.152-1.151,1.152h-1.312c-0.662,0-0.992-0.331-0.992-0.992c0-0.64-0.176-1.152-0.528-1.536
		s-0.838-0.576-1.456-0.576c-0.598,0-1.104,0.188-1.52,0.561s-0.625,1.072-0.625,2.096V107.896z"/>
	<path class="st1" d="M116.895,108.121c0,0.938-0.145,1.765-0.432,2.479c-0.289,0.715-0.678,1.307-1.168,1.776
		c-0.492,0.469-1.084,0.821-1.776,1.056c-0.694,0.234-1.435,0.352-2.224,0.352c-0.812,0-1.559-0.117-2.24-0.352
		c-0.684-0.234-1.275-0.565-1.776-0.992s-0.892-0.954-1.168-1.584c-0.277-0.629-0.416-1.349-0.416-2.16v-0.063
		c0-1.601,0.479-2.849,1.44-3.744c0.959-0.896,2.346-1.344,4.16-1.344h2.144v-1.44c0-1.023-0.208-1.723-0.624-2.096
		s-0.923-0.561-1.52-0.561c-0.619,0-1.078,0.166-1.377,0.496c-0.299,0.331-0.447,0.731-0.447,1.2c0,0.661-0.332,0.992-0.992,0.992
		h-1.312c-0.768,0-1.152-0.384-1.152-1.152c0-0.683,0.123-1.312,0.369-1.888c0.244-0.576,0.597-1.077,1.056-1.504
		c0.458-0.427,1.013-0.763,1.664-1.008c0.65-0.245,1.381-0.368,2.192-0.368c0.789,0,1.529,0.117,2.224,0.352
		c0.692,0.235,1.284,0.587,1.776,1.057c0.49,0.469,0.879,1.062,1.168,1.775c0.287,0.715,0.432,1.542,0.432,2.48V108.121z
		 M111.296,110.553c0.597,0,1.104-0.187,1.52-0.561c0.416-0.373,0.624-1.071,0.624-2.096v-1.76h-2.144
		c-0.598,0-1.104,0.165-1.521,0.496s-0.624,0.901-0.624,1.712s0.208,1.382,0.624,1.712
		C110.191,110.388,110.698,110.553,111.296,110.553z"/>
	<path class="st1" d="M125.375,110.329c0.171,0,0.314-0.006,0.433-0.017c0.116-0.011,0.271-0.037,0.463-0.08
		c0.385-0.063,0.672,0.011,0.865,0.225c0.191,0.213,0.287,0.512,0.287,0.896v0.928c0,0.385-0.091,0.656-0.271,0.816
		c-0.182,0.16-0.432,0.271-0.752,0.336c-0.299,0.064-0.582,0.101-0.848,0.112c-0.268,0.01-0.518,0.016-0.753,0.016
		c-0.618,0-1.179-0.075-1.68-0.224c-0.501-0.149-0.934-0.395-1.296-0.736c-0.363-0.341-0.641-0.795-0.832-1.36
		c-0.192-0.564-0.288-1.253-0.288-2.063V91.864c0-0.768,0.384-1.151,1.151-1.151h1.152c0.768,0,1.152,0.384,1.152,1.151v17.057
		c0,0.555,0.128,0.928,0.384,1.12C124.799,110.232,125.076,110.329,125.375,110.329z"/>
	<path class="st1" d="M133.054,107.896c0,1.024,0.208,1.723,0.624,2.096c0.416,0.374,0.922,0.561,1.52,0.561
		c0.619,0,1.104-0.192,1.457-0.576c0.352-0.384,0.527-0.896,0.527-1.536c0-0.661,0.33-0.992,0.992-0.992h1.312
		c0.768,0,1.151,0.385,1.151,1.152c0,0.789-0.134,1.504-0.399,2.144c-0.268,0.641-0.641,1.185-1.121,1.633
		c-0.479,0.447-1.056,0.795-1.728,1.04c-0.672,0.244-1.403,0.367-2.192,0.367c-0.811,0-1.557-0.117-2.24-0.352
		c-0.683-0.234-1.27-0.587-1.76-1.056c-0.49-0.47-0.879-1.062-1.168-1.776c-0.287-0.715-0.432-1.541-0.432-2.479v-6.24
		c0-0.938,0.145-1.766,0.432-2.48c0.289-0.714,0.678-1.307,1.168-1.775c0.49-0.47,1.077-0.821,1.76-1.057
		c0.684-0.234,1.43-0.352,2.24-0.352c0.789,0,1.521,0.123,2.192,0.368s1.248,0.592,1.728,1.04c0.48,0.447,0.854,0.991,1.121,1.632
		c0.266,0.64,0.399,1.354,0.399,2.144c0,0.769-0.384,1.152-1.151,1.152h-1.312c-0.662,0-0.992-0.331-0.992-0.992
		c0-0.64-0.176-1.152-0.527-1.536c-0.353-0.384-0.838-0.576-1.457-0.576c-0.598,0-1.104,0.188-1.52,0.561s-0.624,1.072-0.624,2.096
		V107.896z"/>
	<path class="st1" d="M145.246,96.568h1.151c0.769,0,1.152,0.384,1.152,1.152v10.176c0,1.024,0.209,1.723,0.625,2.096
		c0.416,0.374,0.922,0.561,1.52,0.561c0.597,0,1.104-0.187,1.52-0.561c0.416-0.373,0.624-1.071,0.624-2.096V97.721
		c0-0.769,0.384-1.152,1.152-1.152h1.151c0.769,0,1.152,0.384,1.152,1.152v10.4c0,0.938-0.145,1.765-0.432,2.479
		c-0.288,0.715-0.678,1.307-1.168,1.776c-0.491,0.469-1.083,0.821-1.776,1.056s-1.435,0.352-2.224,0.352
		c-0.811,0-1.558-0.117-2.24-0.352c-0.684-0.234-1.27-0.587-1.76-1.056c-0.491-0.47-0.881-1.062-1.168-1.776
		c-0.288-0.715-0.432-1.541-0.432-2.479v-10.4C144.095,96.952,144.477,96.568,145.246,96.568z"/>
	<path class="st1" d="M164.061,110.329c0.171,0,0.314-0.006,0.433-0.017c0.116-0.011,0.272-0.037,0.464-0.08
		c0.385-0.063,0.672,0.011,0.864,0.225c0.192,0.213,0.288,0.512,0.288,0.896v0.928c0,0.385-0.092,0.656-0.272,0.816
		s-0.432,0.271-0.752,0.336c-0.299,0.064-0.581,0.101-0.848,0.112c-0.267,0.01-0.518,0.016-0.753,0.016
		c-0.618,0-1.178-0.075-1.68-0.224c-0.501-0.149-0.934-0.395-1.295-0.736c-0.363-0.341-0.641-0.795-0.832-1.36
		c-0.193-0.564-0.289-1.253-0.289-2.063V91.864c0-0.768,0.385-1.151,1.152-1.151h1.152c0.768,0,1.152,0.384,1.152,1.151v17.057
		c0,0.555,0.127,0.928,0.383,1.12C163.485,110.232,163.762,110.329,164.061,110.329z"/>
	<path class="st1" d="M179.198,108.121c0,0.938-0.145,1.765-0.433,2.479s-0.678,1.307-1.168,1.776
		c-0.491,0.469-1.083,0.821-1.776,1.056s-1.435,0.352-2.224,0.352c-0.812,0-1.558-0.117-2.24-0.352s-1.274-0.565-1.776-0.992
		c-0.501-0.427-0.891-0.954-1.168-1.584c-0.277-0.629-0.416-1.349-0.416-2.16v-0.063c0-1.601,0.48-2.849,1.44-3.744
		c0.96-0.896,2.347-1.344,4.16-1.344h2.144v-1.44c0-1.023-0.207-1.723-0.623-2.096s-0.924-0.561-1.521-0.561
		c-0.619,0-1.077,0.166-1.376,0.496c-0.299,0.331-0.448,0.731-0.448,1.2c0,0.661-0.331,0.992-0.991,0.992h-1.312
		c-0.768,0-1.152-0.384-1.152-1.152c0-0.683,0.123-1.312,0.368-1.888s0.597-1.077,1.056-1.504s1.014-0.763,1.664-1.008
		s1.381-0.368,2.192-0.368c0.789,0,1.53,0.117,2.224,0.352c0.693,0.235,1.285,0.587,1.776,1.057c0.49,0.469,0.88,1.062,1.168,1.775
		c0.288,0.715,0.433,1.542,0.433,2.48V108.121z M173.597,110.553c0.597,0,1.104-0.187,1.521-0.561
		c0.416-0.373,0.623-1.071,0.623-2.096v-1.76h-2.144c-0.598,0-1.104,0.165-1.521,0.496s-0.623,0.901-0.623,1.712
		s0.207,1.382,0.623,1.712C172.493,110.388,173,110.553,173.597,110.553z"/>
	<path class="st1" d="M189.341,113.433c-0.319,0.064-0.613,0.101-0.879,0.112c-0.268,0.01-0.518,0.016-0.752,0.016
		c-1.537,0-2.71-0.356-3.521-1.072c-0.812-0.714-1.216-1.936-1.216-3.664V93.593c0-0.769,0.384-1.152,1.152-1.152h1.151
		c0.769,0,1.151,0.384,1.151,1.152v2.976h2.752c0.769,0,1.152,0.384,1.152,1.152v0.928c0,0.769-0.384,1.152-1.152,1.152h-2.752
		v8.768c0,0.662,0.129,1.12,0.385,1.376s0.715,0.385,1.376,0.385c0.276,0,0.608-0.032,0.991-0.097
		c0.385-0.063,0.673,0.011,0.865,0.225c0.191,0.213,0.287,0.512,0.287,0.896v0.928c0,0.385-0.091,0.656-0.271,0.816
		C189.88,113.257,189.639,113.368,189.341,113.433z"/>
	<path class="st1" d="M200.669,108.761c0-0.661,0.33-0.992,0.992-0.992h1.312c0.768,0,1.151,0.384,1.151,1.152
		c0,1.451-0.496,2.624-1.488,3.52c-0.991,0.896-2.31,1.344-3.952,1.344c-0.811,0-1.557-0.117-2.24-0.352
		c-0.683-0.234-1.27-0.587-1.76-1.056c-0.49-0.47-0.879-1.062-1.168-1.776c-0.287-0.715-0.432-1.541-0.432-2.479v-6.24
		c0-0.938,0.145-1.766,0.432-2.48c0.289-0.714,0.678-1.307,1.168-1.775c0.49-0.47,1.077-0.821,1.76-1.057
		c0.684-0.234,1.43-0.352,2.24-0.352c0.789,0,1.531,0.117,2.225,0.352c0.693,0.235,1.285,0.587,1.775,1.057
		c0.49,0.469,0.881,1.062,1.168,1.775c0.289,0.715,0.433,1.542,0.433,2.48v2.72c0,0.768-0.384,1.152-1.152,1.152h-6.592v2.144
		c0,1.024,0.208,1.723,0.624,2.096c0.416,0.374,0.922,0.561,1.52,0.561c0.619,0,1.104-0.16,1.457-0.48
		C200.493,109.753,200.669,109.315,200.669,108.761z M196.541,103.16h4.288v-1.056c0-1.023-0.208-1.723-0.624-2.096
		s-0.923-0.561-1.521-0.561s-1.104,0.188-1.52,0.561s-0.624,1.072-0.624,2.096V103.16z"/>
	<path class="st1" d="M60.032,127.721c0-0.769,0.384-1.152,1.152-1.152h1.152c0.768,0,1.151,0.384,1.151,1.152v15.968
		c0,0.938-0.144,1.755-0.433,2.448c-0.287,0.693-0.677,1.264-1.168,1.712c-0.49,0.448-1.082,0.784-1.775,1.008
		c-0.693,0.225-1.436,0.336-2.225,0.336c-0.854,0-1.615-0.123-2.287-0.368s-1.243-0.575-1.713-0.991
		c-0.469-0.416-0.826-0.902-1.071-1.456c-0.245-0.556-0.368-1.152-0.368-1.792c0-0.769,0.384-1.152,1.152-1.152h1.312
		c0.661,0,0.992,0.33,0.992,0.992c0,0.469,0.159,0.869,0.479,1.2c0.32,0.33,0.821,0.496,1.504,0.496c0.598,0,1.104-0.16,1.521-0.48
		s0.624-0.992,0.624-2.016v-2.849c-0.747,0.896-1.803,1.345-3.168,1.345c-1.323,0-2.416-0.433-3.28-1.297
		c-0.864-0.863-1.296-2.191-1.296-3.983v-9.12c0-0.769,0.385-1.152,1.152-1.152h1.152c0.768,0,1.151,0.384,1.151,1.152v8.512
		c0,1.024,0.208,1.724,0.624,2.097s0.922,0.56,1.52,0.56s1.104-0.187,1.521-0.56s0.624-1.072,0.624-2.097V127.721z"/>
	<path class="st1" d="M78.624,138.121c0,0.96-0.145,1.797-0.432,2.512c-0.289,0.715-0.678,1.302-1.168,1.76
		c-0.492,0.459-1.084,0.806-1.777,1.04s-1.434,0.352-2.223,0.352c-0.812,0-1.559-0.117-2.24-0.352
		c-0.684-0.234-1.27-0.581-1.76-1.04c-0.492-0.458-0.881-1.045-1.168-1.76c-0.289-0.715-0.433-1.552-0.433-2.512v-6.24
		c0-0.938,0.144-1.766,0.433-2.48c0.287-0.714,0.676-1.307,1.168-1.775c0.49-0.47,1.076-0.821,1.76-1.057
		c0.682-0.234,1.429-0.352,2.24-0.352c0.789,0,1.529,0.117,2.223,0.352c0.693,0.235,1.285,0.587,1.777,1.057
		c0.49,0.469,0.879,1.062,1.168,1.775c0.287,0.715,0.432,1.542,0.432,2.48V138.121z M75.168,132.104
		c0-1.023-0.208-1.723-0.624-2.096s-0.924-0.561-1.52-0.561c-0.598,0-1.104,0.188-1.521,0.561s-0.624,1.072-0.624,2.096v5.792
		c0,1.024,0.208,1.723,0.624,2.096c0.416,0.374,0.923,0.561,1.521,0.561c0.596,0,1.104-0.187,1.52-0.561
		c0.416-0.373,0.624-1.071,0.624-2.096V132.104z"/>
	<path class="st1" d="M83.519,126.568h1.151c0.769,0,1.152,0.384,1.152,1.152v10.176c0,1.024,0.209,1.723,0.625,2.096
		c0.416,0.374,0.922,0.561,1.52,0.561c0.597,0,1.104-0.187,1.52-0.561c0.416-0.373,0.624-1.071,0.624-2.096v-10.176
		c0-0.769,0.384-1.152,1.152-1.152h1.151c0.769,0,1.152,0.384,1.152,1.152v10.4c0,0.938-0.145,1.765-0.432,2.479
		c-0.288,0.715-0.678,1.307-1.168,1.776c-0.491,0.469-1.083,0.821-1.776,1.056s-1.435,0.352-2.224,0.352
		c-0.811,0-1.558-0.117-2.24-0.352c-0.684-0.234-1.27-0.587-1.76-1.056c-0.491-0.47-0.881-1.062-1.168-1.776
		c-0.288-0.715-0.432-1.541-0.432-2.479v-10.4C82.368,126.952,82.751,126.568,83.519,126.568z"/>
	<path class="st1" d="M103.136,129.641c-0.747,0-1.28,0.149-1.6,0.448c-0.32,0.299-0.48,0.821-0.48,1.567v10.624
		c0,0.769-0.385,1.152-1.152,1.152h-1.152c-0.768,0-1.151-0.384-1.151-1.152V131.4c0-1.834,0.442-3.125,1.328-3.872
		c0.885-0.746,2.128-1.12,3.728-1.12c0.234,0,0.485,0.006,0.752,0.017s0.561,0.048,0.881,0.111c0.298,0.064,0.538,0.177,0.719,0.337
		c0.182,0.159,0.272,0.432,0.272,0.815v0.928c0,0.385-0.096,0.684-0.288,0.896c-0.191,0.214-0.479,0.288-0.863,0.224
		C103.743,129.673,103.413,129.641,103.136,129.641z"/>
	<path class="st1" d="M121.471,130.921c0-0.47-0.16-0.832-0.479-1.088c-0.32-0.257-0.758-0.385-1.312-0.385
		s-0.992,0.128-1.312,0.385c-0.32,0.256-0.479,0.661-0.479,1.216v0.063c0,0.556,0.181,0.992,0.544,1.312
		c0.362,0.319,0.811,0.603,1.344,0.848c0.533,0.246,1.12,0.491,1.76,0.736c0.641,0.245,1.227,0.565,1.76,0.96
		s0.981,0.907,1.345,1.536c0.362,0.629,0.544,1.456,0.544,2.479c0,0.769-0.139,1.451-0.416,2.048
		c-0.277,0.598-0.656,1.1-1.137,1.504c-0.479,0.406-1.055,0.716-1.728,0.929c-0.672,0.213-1.403,0.319-2.192,0.319
		c-0.811,0-1.547-0.117-2.207-0.352c-0.662-0.234-1.232-0.549-1.713-0.944c-0.479-0.395-0.854-0.869-1.119-1.424
		c-0.268-0.555-0.4-1.151-0.4-1.792v-0.191c0-0.769,0.385-1.152,1.152-1.152h1.312c0.661,0,0.992,0.331,0.992,0.992
		c0,0.555,0.181,0.965,0.544,1.231c0.363,0.268,0.843,0.4,1.439,0.4c0.598,0,1.083-0.128,1.457-0.384
		c0.373-0.256,0.56-0.693,0.56-1.312v-0.063c0-0.555-0.182-0.987-0.544-1.296c-0.363-0.31-0.811-0.581-1.344-0.816
		c-0.533-0.234-1.12-0.469-1.76-0.704c-0.641-0.234-1.228-0.549-1.761-0.944c-0.533-0.395-0.981-0.9-1.344-1.52
		c-0.363-0.618-0.544-1.44-0.544-2.464c0-1.536,0.484-2.726,1.456-3.568c0.97-0.843,2.234-1.264,3.792-1.264
		c0.789,0,1.504,0.117,2.145,0.352c0.639,0.235,1.188,0.561,1.647,0.977c0.458,0.416,0.815,0.896,1.071,1.439
		s0.385,1.137,0.385,1.776c0,0.768-0.385,1.152-1.152,1.152h-1.312C121.802,131.913,121.471,131.582,121.471,130.921z"/>
	<path class="st1" d="M131.806,137.896c0,1.024,0.208,1.723,0.624,2.096c0.416,0.374,0.922,0.561,1.52,0.561
		c0.619,0,1.104-0.192,1.457-0.576c0.352-0.384,0.527-0.896,0.527-1.536c0-0.661,0.33-0.992,0.992-0.992h1.312
		c0.768,0,1.151,0.385,1.151,1.152c0,0.789-0.134,1.504-0.399,2.144c-0.268,0.641-0.641,1.185-1.121,1.633
		c-0.479,0.447-1.056,0.795-1.728,1.04c-0.672,0.244-1.403,0.367-2.192,0.367c-0.811,0-1.557-0.117-2.24-0.352
		c-0.683-0.234-1.27-0.587-1.76-1.056c-0.49-0.47-0.879-1.062-1.168-1.776c-0.287-0.715-0.432-1.541-0.432-2.479v-6.24
		c0-0.938,0.145-1.766,0.432-2.48c0.289-0.714,0.678-1.307,1.168-1.775c0.49-0.47,1.077-0.821,1.76-1.057
		c0.684-0.234,1.43-0.352,2.24-0.352c0.789,0,1.521,0.123,2.192,0.368s1.248,0.592,1.728,1.04c0.48,0.447,0.854,0.991,1.121,1.632
		c0.266,0.64,0.399,1.354,0.399,2.144c0,0.769-0.384,1.152-1.151,1.152h-1.312c-0.662,0-0.992-0.331-0.992-0.992
		c0-0.64-0.176-1.152-0.527-1.536c-0.353-0.384-0.838-0.576-1.457-0.576c-0.598,0-1.104,0.188-1.52,0.561s-0.624,1.072-0.624,2.096
		V137.896z"/>
	<path class="st1" d="M153.759,138.121c0,0.96-0.145,1.797-0.433,2.512s-0.678,1.302-1.168,1.76
		c-0.491,0.459-1.083,0.806-1.776,1.04s-1.435,0.352-2.224,0.352c-0.812,0-1.558-0.117-2.24-0.352s-1.27-0.581-1.76-1.04
		c-0.491-0.458-0.88-1.045-1.168-1.76s-0.433-1.552-0.433-2.512v-6.24c0-0.938,0.145-1.766,0.433-2.48
		c0.288-0.714,0.677-1.307,1.168-1.775c0.49-0.47,1.077-0.821,1.76-1.057c0.683-0.234,1.429-0.352,2.24-0.352
		c0.789,0,1.53,0.117,2.224,0.352c0.693,0.235,1.285,0.587,1.776,1.057c0.49,0.469,0.88,1.062,1.168,1.775
		c0.288,0.715,0.433,1.542,0.433,2.48V138.121z M150.302,132.104c0-1.023-0.207-1.723-0.623-2.096s-0.924-0.561-1.521-0.561
		c-0.598,0-1.104,0.188-1.521,0.561s-0.623,1.072-0.623,2.096v5.792c0,1.024,0.207,1.723,0.623,2.096
		c0.416,0.374,0.923,0.561,1.521,0.561c0.597,0,1.104-0.187,1.521-0.561c0.416-0.373,0.623-1.071,0.623-2.096V132.104z"/>
	<path class="st1" d="M163.038,129.641c-0.747,0-1.28,0.149-1.6,0.448c-0.32,0.299-0.48,0.821-0.48,1.567v10.624
		c0,0.769-0.385,1.152-1.152,1.152h-1.152c-0.768,0-1.151-0.384-1.151-1.152V131.4c0-1.834,0.442-3.125,1.328-3.872
		c0.885-0.746,2.128-1.12,3.728-1.12c0.234,0,0.485,0.006,0.752,0.017s0.561,0.048,0.881,0.111c0.298,0.064,0.538,0.177,0.719,0.337
		c0.182,0.159,0.272,0.432,0.272,0.815v0.928c0,0.385-0.096,0.684-0.288,0.896c-0.191,0.214-0.479,0.288-0.863,0.224
		C163.645,129.673,163.315,129.641,163.038,129.641z"/>
	<path class="st1" d="M174.941,138.761c0-0.661,0.331-0.992,0.992-0.992h1.312c0.768,0,1.152,0.384,1.152,1.152
		c0,1.451-0.496,2.624-1.488,3.52c-0.992,0.896-2.309,1.344-3.951,1.344c-0.812,0-1.559-0.117-2.24-0.352
		c-0.684-0.234-1.27-0.587-1.76-1.056c-0.492-0.47-0.881-1.062-1.168-1.776c-0.289-0.715-0.433-1.541-0.433-2.479v-6.24
		c0-0.938,0.144-1.766,0.433-2.48c0.287-0.714,0.676-1.307,1.168-1.775c0.49-0.47,1.076-0.821,1.76-1.057
		c0.682-0.234,1.429-0.352,2.24-0.352c0.789,0,1.529,0.117,2.223,0.352c0.693,0.235,1.285,0.587,1.777,1.057
		c0.49,0.469,0.879,1.062,1.168,1.775c0.287,0.715,0.432,1.542,0.432,2.48v2.72c0,0.768-0.385,1.152-1.152,1.152h-6.592v2.144
		c0,1.024,0.208,1.723,0.624,2.096c0.416,0.374,0.923,0.561,1.521,0.561c0.617,0,1.104-0.16,1.455-0.48
		C174.765,139.753,174.941,139.315,174.941,138.761z M170.813,133.16h4.288v-1.056c0-1.023-0.208-1.723-0.624-2.096
		s-0.924-0.561-1.52-0.561c-0.598,0-1.104,0.188-1.521,0.561s-0.624,1.072-0.624,2.096V133.16z"/>
	<path class="st1" d="M188.893,130.921c0-0.47-0.16-0.832-0.48-1.088c-0.32-0.257-0.758-0.385-1.312-0.385s-0.992,0.128-1.312,0.385
		c-0.32,0.256-0.479,0.661-0.479,1.216v0.063c0,0.556,0.18,0.992,0.543,1.312c0.363,0.319,0.811,0.603,1.344,0.848
		c0.533,0.246,1.121,0.491,1.761,0.736s1.227,0.565,1.76,0.96s0.981,0.907,1.345,1.536c0.361,0.629,0.543,1.456,0.543,2.479
		c0,0.769-0.139,1.451-0.416,2.048c-0.277,0.598-0.656,1.1-1.136,1.504c-0.479,0.406-1.056,0.716-1.728,0.929
		s-1.403,0.319-2.192,0.319c-0.812,0-1.547-0.117-2.208-0.352s-1.232-0.549-1.712-0.944c-0.479-0.395-0.854-0.869-1.12-1.424
		s-0.4-1.151-0.4-1.792v-0.191c0-0.769,0.385-1.152,1.152-1.152h1.312c0.66,0,0.992,0.331,0.992,0.992
		c0,0.555,0.181,0.965,0.543,1.231c0.363,0.268,0.844,0.4,1.44,0.4s1.083-0.128,1.456-0.384s0.561-0.693,0.561-1.312v-0.063
		c0-0.555-0.182-0.987-0.545-1.296c-0.363-0.31-0.811-0.581-1.344-0.816c-0.533-0.234-1.119-0.469-1.76-0.704
		c-0.641-0.234-1.227-0.549-1.76-0.944c-0.533-0.395-0.982-0.9-1.344-1.52c-0.363-0.618-0.545-1.44-0.545-2.464
		c0-1.536,0.485-2.726,1.457-3.568c0.97-0.843,2.234-1.264,3.791-1.264c0.789,0,1.504,0.117,2.145,0.352
		c0.64,0.235,1.189,0.561,1.648,0.977c0.458,0.416,0.815,0.896,1.071,1.439s0.384,1.137,0.384,1.776
		c0,0.768-0.384,1.152-1.152,1.152h-1.312C189.223,131.913,188.893,131.582,188.893,130.921z"/>
	<path class="st1" d="M108.063,173.433h-1.152c-0.768,0-1.152-0.384-1.152-1.152v-10.176c0-1.023-0.208-1.723-0.623-2.096
		c-0.416-0.373-0.924-0.561-1.521-0.561c-0.598,0-1.104,0.188-1.521,0.561s-0.623,1.072-0.623,2.096v10.176
		c0,0.769-0.385,1.152-1.152,1.152h-1.152c-0.768,0-1.152-0.384-1.152-1.152v-10.399c0-0.938,0.145-1.766,0.433-2.48
		c0.288-0.714,0.677-1.307,1.168-1.775c0.49-0.47,1.077-0.821,1.76-1.057c0.683-0.234,1.429-0.352,2.24-0.352
		c0.788,0,1.53,0.117,2.224,0.352c0.693,0.235,1.285,0.587,1.776,1.057c0.49,0.469,0.88,1.062,1.168,1.775
		c0.288,0.715,0.432,1.542,0.432,2.48v10.399C109.215,173.049,108.831,173.433,108.063,173.433z"/>
	<path class="st1" d="M124.159,168.121c0,0.96-0.145,1.797-0.432,2.512c-0.289,0.715-0.678,1.302-1.168,1.76
		c-0.492,0.459-1.084,0.806-1.777,1.04s-1.434,0.352-2.223,0.352c-0.812,0-1.559-0.117-2.24-0.352
		c-0.684-0.234-1.27-0.581-1.76-1.04c-0.492-0.458-0.881-1.045-1.168-1.76c-0.289-0.715-0.433-1.552-0.433-2.512v-6.24
		c0-0.938,0.144-1.766,0.433-2.48c0.287-0.714,0.676-1.307,1.168-1.775c0.49-0.47,1.076-0.821,1.76-1.057
		c0.682-0.234,1.429-0.352,2.24-0.352c0.789,0,1.529,0.117,2.223,0.352c0.693,0.235,1.285,0.587,1.777,1.057
		c0.49,0.469,0.879,1.062,1.168,1.775c0.287,0.715,0.432,1.542,0.432,2.48V168.121z M120.703,162.104
		c0-1.023-0.208-1.723-0.624-2.096s-0.924-0.561-1.52-0.561c-0.598,0-1.104,0.188-1.521,0.561s-0.624,1.072-0.624,2.096v5.792
		c0,1.024,0.208,1.723,0.624,2.096c0.416,0.374,0.923,0.561,1.521,0.561c0.596,0,1.104-0.187,1.52-0.561
		c0.416-0.373,0.624-1.071,0.624-2.096V162.104z"/>
	<path class="st1" d="M127.903,157.721c0-0.769,0.383-1.152,1.151-1.152h1.151c0.769,0,1.152,0.384,1.152,1.152v10.336
		c0,0.96,0.197,1.616,0.592,1.968c0.395,0.353,0.869,0.528,1.424,0.528s1.029-0.176,1.425-0.528
		c0.395-0.352,0.592-1.008,0.592-1.968v-10.336c0-0.769,0.384-1.152,1.151-1.152h1.152c0.769,0,1.152,0.384,1.152,1.152v10.336
		c0,0.96,0.197,1.616,0.592,1.968c0.395,0.353,0.869,0.528,1.424,0.528s1.029-0.176,1.424-0.528
		c0.395-0.352,0.593-1.008,0.593-1.968v-10.336c0-0.769,0.384-1.152,1.151-1.152h1.152c0.768,0,1.152,0.384,1.152,1.152v10.976
		c0,0.854-0.129,1.596-0.385,2.225s-0.607,1.157-1.056,1.584s-0.976,0.747-1.584,0.96s-1.274,0.319-2,0.319
		c-0.96,0-1.798-0.202-2.512-0.607c-0.716-0.405-1.274-1.003-1.681-1.792c-0.404,0.789-0.965,1.387-1.68,1.792
		s-1.552,0.607-2.512,0.607c-0.726,0-1.393-0.106-2-0.319s-1.137-0.533-1.584-0.96c-0.448-0.427-0.801-0.955-1.057-1.584
		s-0.383-1.371-0.383-2.225V157.721z"/>
</g>
<g>
	<path class="st0" d="M204.907,352.422c-0.703,0-1.408-0.245-1.978-0.745c-1.245-1.093-1.369-2.988-0.276-4.233
		c0.594-0.677,1.176-1.355,1.747-2.035c1.067-1.267,2.96-1.429,4.228-0.364c1.268,1.066,1.431,2.959,0.364,4.228
		c-0.599,0.711-1.208,1.421-1.829,2.129C206.57,352.076,205.74,352.422,204.907,352.422z M212.833,342.45
		c-0.621,0-1.247-0.191-1.784-0.589c-1.331-0.986-1.61-2.865-0.625-4.197c0.964-1.348,2.852-1.678,4.199-0.717
		c1.349,0.963,1.675,2.817,0.712,4.166l-0.089,0.123C214.657,342.03,213.751,342.45,212.833,342.45z M218.367,334.009
		c-0.522,0-1.052-0.136-1.533-0.423c-1.424-0.849-1.889-2.69-1.041-4.113c3.361-5.638,6.195-11.527,8.423-17.507
		c0.579-1.553,2.308-2.338,3.859-1.764c1.552,0.579,2.342,2.307,1.764,3.859c-2.354,6.317-5.346,12.536-8.892,18.483
		C220.386,333.486,219.389,334.009,218.367,334.009z M230.072,306.475c-0.24,0-0.484-0.029-0.727-0.091
		c-1.597-0.402-2.575-1.996-2.188-3.596c0.007-0.027,0.04-0.151,0.047-0.179c0.437-1.599,2.089-2.544,3.684-2.105
		c1.599,0.437,2.541,2.085,2.105,3.684l-2.895-0.789l2.887,0.817C232.632,305.566,231.408,306.475,230.072,306.475z
		 M232.234,296.632c-0.167,0-0.336-0.014-0.506-0.042c-1.634-0.277-2.733-1.826-2.456-3.46c0.999-5.888,1.506-11.984,1.506-18.12
		c-0.001-0.416-0.003-0.836-0.008-1.256c-0.019-1.657,1.309-3.015,2.966-3.034c0.012,0,0.023,0,0.035,0
		c1.641,0,2.98,1.32,2.999,2.966c0.005,0.438,0.007,0.877,0.008,1.317c0,6.478-0.535,12.912-1.59,19.131
		C234.939,295.598,233.67,296.632,232.234,296.632z M233.232,266.715c-1.5,0-2.789-1.105-2.969-2.629l-0.019-0.187
		c-0.146-1.65,1.074-3.106,2.725-3.252c1.643-0.134,3.106,1.074,3.252,2.725l-2.988,0.264l2.991-0.235
		c0.16,1.638-1.026,3.12-2.662,3.297C233.451,266.709,233.341,266.715,233.232,266.715z M231.894,256.727
		c-1.432,0-2.698-1.027-2.952-2.486c-1.089-6.269-2.679-12.658-4.726-18.991c-0.51-1.577,0.355-3.268,1.932-3.777
		c1.575-0.514,3.268,0.355,3.777,1.932c2.133,6.6,3.791,13.265,4.929,19.81c0.283,1.633-0.81,3.186-2.442,3.47
		C232.238,256.713,232.065,256.727,231.894,256.727z M223.688,227.911c-1.203,0-2.338-0.729-2.799-1.918
		c-0.595-1.536,0.142-3.311,1.673-3.918c1.532-0.608,3.247,0.087,3.867,1.613c0.006,0.015,0.05,0.123,0.056,0.139
		c0.598,1.545-0.17,3.282-1.715,3.881C224.415,227.846,224.048,227.911,223.688,227.911z M219.674,218.638
		c-1.126,0-2.204-0.637-2.716-1.723c-4.972-10.553-9.457-16.963-9.502-17.026c-0.953-1.354-0.63-3.226,0.725-4.18
		c1.354-0.958,3.226-0.631,4.179,0.722c0.194,0.274,4.812,6.861,10.026,17.928c0.706,1.498,0.063,3.286-1.436,3.992
		C220.537,218.545,220.102,218.638,219.674,218.638z"/>
</g>
</svg>