<!-- Generator: Adobe Illustrator 21.0.0, SVG Export Plug-In  -->
<svg version="1.1"
	 xmlns="http://www.w3.org/2000/svg" xmlns:xlink="http://www.w3.org/1999/xlink" xmlns:a="http://ns.adobe.com/AdobeSVGViewerExtensions/3.0/"
	 x="0px" y="0px" width="211.75px" height="350.712px" viewBox="0 0 211.75 350.712"
	 style="enable-background:new 0 0 211.75 350.712;" xml:space="preserve">
<style type="text/css">
	.st0{fill:#FF0000;}
</style>
<defs>
	<symbol  id="New_Symbol_7" viewBox="-183.635 -300.61 363 601.22">
		<g>
			<g>
				<path class="st0" d="M-167.793,86.462c-2.97-0.041-5.631-0.763-7.983-2.166c-2.393-1.403-4.29-3.3-5.693-5.693
					c-1.403-2.352-2.125-4.992-2.166-7.921c0.041-2.97,0.763-5.631,2.166-7.983c1.403-2.393,3.3-4.29,5.693-5.693
					c2.352-1.403,5.012-2.125,7.983-2.166c2.929,0.041,5.569,0.763,7.921,2.166c2.393,1.403,4.29,3.3,5.693,5.693
					c1.403,2.352,2.125,5.012,2.166,7.983c-0.041,2.929-0.763,5.569-2.166,7.921c-1.403,2.393-3.3,4.29-5.693,5.693
					C-162.224,85.699-164.864,86.421-167.793,86.462 M70.267-275.115c1.691,1.32,3.342,2.743,4.951,4.27H-79.426
					c1.65-1.526,3.321-2.97,5.012-4.332c20.586-16.956,44.679-25.434,72.278-25.434C25.506-300.61,49.64-292.112,70.267-275.115
					 M149.971,62.699c1.403-2.393,3.28-4.29,5.631-5.693c2.393-1.403,5.054-2.125,7.983-2.166c2.929,0.041,5.59,0.763,7.983,2.166
					c2.351,1.403,4.249,3.3,5.693,5.693c1.403,2.352,2.104,5.012,2.104,7.983c0,2.929-0.701,5.569-2.104,7.921
					c-1.444,2.393-3.342,4.29-5.693,5.693c-2.393,1.403-5.054,2.125-7.983,2.166c-2.929-0.041-5.59-0.763-7.983-2.166
					c-2.351-1.403-4.229-3.3-5.631-5.693c-1.403-2.352-2.125-4.992-2.166-7.921C147.846,67.712,148.568,65.051,149.971,62.699
					 M102.074,193.209c-7.838,3.342-16.275,5.054-25.31,5.136H-80.973c-9.076-0.082-17.533-1.795-25.372-5.136
					c-7.88-3.383-14.79-8.045-20.73-13.985c-5.941-5.941-10.602-12.83-13.985-20.669c-3.342-7.88-5.033-16.337-5.074-25.372V8.181
					c0.041-9.076,1.733-17.533,5.074-25.372c3.383-7.838,8.045-14.749,13.985-20.73c5.941-5.941,12.851-10.602,20.73-13.985
					c7.426-3.177,15.429-4.868,24.01-5.074c0.454,0,0.908,0,1.361,0h10.953c2.847-0.041,5.425-0.743,7.735-2.104
					c2.31-1.361,4.125-3.197,5.446-5.508c1.361-2.269,2.063-4.827,2.104-7.673c0-0.083,0-0.165,0-0.248
					c-0.041-2.97-0.722-5.672-2.042-8.107c-0.041-0.041-0.082-0.103-0.124-0.186c-0.206-0.371-0.413-0.722-0.619-1.052
					c-0.124-0.165-0.248-0.309-0.371-0.433c-0.206-0.33-0.413-0.619-0.619-0.866c-0.124-0.124-0.227-0.268-0.309-0.433
					c-0.371-0.371-0.743-0.763-1.114-1.176c-0.454-0.413-0.887-0.804-1.3-1.176c-0.454-0.371-0.887-0.722-1.3-1.052
					c-0.413-0.206-0.825-0.454-1.238-0.743c-6.972-4.538-13.573-9.922-19.802-16.151c-1.114-1.114-2.186-2.228-3.218-3.342
					c-20.38-21.824-30.57-47.876-30.57-78.157c0-28.961,9.324-54.064,27.971-75.31c0.041-0.082,0.124-0.144,0.247-0.186
					c1.114-1.279,2.434-2.269,3.96-2.97c1.568-0.66,3.218-1.011,4.951-1.052l156.5,0.124c1.691,0,3.28,0.351,4.765,1.052
					c1.568,0.701,2.888,1.671,3.96,2.909l0.186,0.186c18.606,21.246,27.909,46.329,27.909,75.249
					c0,31.849-11.242,59.015-33.726,81.499c-6.188,6.188-12.748,11.531-19.679,16.027c-0.578,0.413-1.134,0.784-1.671,1.114
					c-0.866,0.578-1.671,1.258-2.413,2.042c-2.682,2.682-4.311,5.755-4.889,9.22H50.65c0,0.083,0,0.392,0,0.928
					c0,0.495-0.021,1.155-0.062,1.98c-0.041,2.888,0.619,5.508,1.98,7.859c1.361,2.352,3.197,4.208,5.508,5.569
					c2.31,1.403,4.909,2.125,7.797,2.166h10.891c9.035,0.041,17.471,1.733,25.31,5.074c7.88,3.383,14.79,8.045,20.73,13.985
					c5.941,5.982,10.603,12.892,13.985,20.73c3.342,7.838,5.054,16.296,5.136,25.372v125.002
					c-0.082,9.035-1.795,17.492-5.136,25.372c-3.383,7.838-8.045,14.728-13.985,20.669
					C116.864,185.164,109.954,189.826,102.074,193.209 M113.151,70.682c0-31.849-11.262-58.994-33.788-81.437
					C56.88-33.28,29.714-44.542-2.135-44.542c-19.72,0-37.666,4.311-53.837,12.933c-9.901,5.322-19.142,12.273-27.723,20.854
					c-22.401,22.443-33.602,49.588-33.602,81.437c0,31.849,11.201,59.035,33.602,81.561c22.525,22.401,49.712,33.602,81.561,33.602
					c31.849,0.041,59.015-11.159,81.499-33.602C101.889,129.718,113.151,102.531,113.151,70.682 M47.123-136.313
					c13.49-13.49,20.235-29.827,20.235-49.011c0-19.142-6.745-35.5-20.235-49.072c-13.614-13.531-29.992-20.297-49.134-20.297
					c-19.183,0-35.541,6.766-49.072,20.297c-13.49,13.532-20.235,29.889-20.235,49.072c0,19.142,6.745,35.479,20.235,49.011
					c5.281,5.322,11.015,9.592,17.203,12.81c9.571,5.033,20.194,7.55,31.869,7.55C17.131-115.954,33.509-122.74,47.123-136.313
					 M61.294-185.262c0,17.492-6.147,32.406-18.441,44.741c-12.459,12.418-27.434,18.627-44.926,18.627
					c-8.292,0-16.027-1.423-23.206-4.27c-7.88-3.053-15.058-7.838-21.535-14.357c-12.376-12.335-18.565-27.249-18.565-44.741
					s6.188-32.447,18.565-44.864c12.376-12.335,27.29-18.523,44.741-18.565c17.492,0.041,32.467,6.229,44.926,18.565
					C55.147-217.709,61.294-202.754,61.294-185.262 M15.563-175.856c0.206-0.206,0.516-0.268,0.928-0.186l7.611,1.609l-1.98-7.55
					c-0.165-0.536-0.289-0.99-0.371-1.361c-0.083-0.413-0.083-0.722,0-0.928c0.124-0.206,0.392-0.413,0.804-0.619l2.723-1.3
					l-13.181-11.077c-0.248-0.206-0.413-0.495-0.495-0.866c-0.165-0.289-0.165-0.619,0-0.99l1.114-3.96
					c-1.526,0.206-2.991,0.392-4.394,0.557c-1.485,0.165-2.929,0.351-4.332,0.557c-1.403,0.165-2.826,0.33-4.27,0.495l1.052-13.8
					h-5.322l0.928,13.8c-0.041,0-0.082,0-0.124,0c-1.485-0.165-2.95-0.33-4.394-0.495c-1.403-0.206-2.826-0.392-4.27-0.557
					c-1.403-0.165-2.867-0.351-4.394-0.557l1.238,3.96c0.041,0.371,0,0.701-0.124,0.99c-0.124,0.371-0.289,0.66-0.495,0.866
					l-13.181,11.077l2.723,1.3c0.371,0.206,0.619,0.413,0.743,0.619c0.082,0.206,0.082,0.516,0,0.928
					c-0.083,0.371-0.186,0.825-0.309,1.361l-2.042,7.55l7.673-1.609c0.33-0.083,0.619-0.021,0.866,0.186
					c0.247,0.165,0.413,0.371,0.495,0.619l0.99,3.589l6.003-7.055c0.206-0.248,0.454-0.454,0.743-0.619
					c0.289-0.124,0.557-0.124,0.804,0c0.248,0.083,0.413,0.289,0.495,0.619c0.124,0.33,0.103,0.825-0.062,1.485l-2.475,14.233
					l3.404-1.856c0.536-0.33,1.011-0.495,1.423-0.495c0.413,0.082,0.743,0.351,0.99,0.804l4.827,9.344l4.827-9.344
					c0.248-0.454,0.598-0.722,1.052-0.804c0.413,0,0.887,0.165,1.423,0.495l3.465,1.856l-2.599-14.233
					c-0.165-0.66-0.186-1.155-0.062-1.485s0.309-0.536,0.557-0.619c0.247-0.124,0.495-0.124,0.743,0
					c0.289,0.165,0.557,0.371,0.804,0.619l6.003,7.055l1.052-3.589C15.233-175.485,15.357-175.691,15.563-175.856"/>
			</g>
			<g id="Layer0_0_1_STROKES_4_">
				<path class="st0" d="M-2.135,2.043c-7.671,0-14.339,2.749-19.817,8.171c-5.437,5.493-8.166,12.119-8.166,19.75
					c0,4.143,3.358,7.5,7.5,7.5s7.5-3.357,7.5-7.5c0-3.638,1.199-6.543,3.772-9.144c2.587-2.56,5.531-3.777,9.211-3.777
					c3.665,0,6.581,1.209,9.178,3.806c2.611,2.611,3.84,5.526,3.867,9.171c0.031,4.123,3.383,7.444,7.499,7.444
					c0.019,0,0.038,0,0.057,0c4.142-0.031,7.475-3.413,7.444-7.556c-0.057-7.624-2.836-14.24-8.261-19.666
					C12.207,4.801,5.551,2.043-2.135,2.043z M66.981,29.643c-11.336-0.072-21.178,3.945-29.212,11.878
					c-0.054,0.054-0.108,0.108-0.161,0.164c-0.914,0.958-1.794,1.933-2.618,2.894c-0.032,0.037-0.063,0.075-0.094,0.112
					c-6.103,7.414-9.197,16.139-9.197,25.93c0,9.833,3.094,18.577,9.197,25.992c0.032,0.038,0.064,0.077,0.097,0.115
					c0.822,0.958,1.701,1.93,2.612,2.888c0.048,0.051,0.097,0.101,0.147,0.15c7.985,7.935,17.759,11.957,29.049,11.957
					c11.309,0,21.052-4.034,28.959-11.99c8.011-8.013,12.081-17.812,12.081-29.112c0-11.26-4.07-21.039-12.098-29.066
					C87.894,33.655,78.212,29.643,66.981,29.643z M48.388,52.116c5.129-5.028,11.154-7.474,18.414-7.474
					c7.264-0.058,13.271,2.421,18.319,7.502c5.201,5.2,7.721,11.238,7.721,18.476c0,7.278-2.52,13.337-7.705,18.522
					c-5.074,5.105-11.066,7.58-18.335,7.58c-7.252,0-13.274-2.462-18.403-7.525c-0.688-0.726-1.349-1.456-1.967-2.175
					c-3.857-4.71-5.732-10.076-5.732-16.402c0-6.285,1.875-11.631,5.733-16.341C47.047,53.563,47.704,52.837,48.388,52.116z
					 M-71.697,29.643c-0.072,0-0.142,0-0.213,0c-11.257,0-21.009,4.002-28.953,11.895c-0.094,0.094-0.186,0.189-0.275,0.288
					l-2.353,2.602c-0.071,0.079-0.141,0.159-0.208,0.24c-6.156,7.419-9.278,16.15-9.278,25.953c0,9.844,3.122,18.597,9.278,26.016
					c0.069,0.082,0.139,0.164,0.211,0.243l2.347,2.595c0.085,0.094,0.172,0.186,0.262,0.275
					c7.946,7.945,17.705,11.974,29.003,11.974c11.299,0,21.058-4.028,29.004-11.974c8.028-8.029,12.098-17.829,12.098-29.129
					c0-11.26-4.07-21.039-12.098-29.066C-50.778,33.649-60.475,29.643-71.697,29.643z M-90.157,52.045
					c5.075-4.98,11.057-7.402,18.28-7.402c0.048,0,0.097,0,0.145,0c7.233,0,13.194,2.46,18.254,7.519
					c5.184,5.184,7.704,11.222,7.704,18.459c0,7.278-2.52,13.337-7.705,18.522c-5.101,5.101-11.119,7.58-18.397,7.58
					c-7.218,0-13.197-2.439-18.271-7.456l-2.105-2.326c-3.852-4.692-5.725-10.032-5.725-16.32c0-6.246,1.873-11.565,5.725-16.258
					L-90.157,52.045z"/>
			</g>
			<path class="st0" d="M-63.273,204.471H58.944c3.991,0,7.72,1.989,9.943,5.303l12.905,19.24l-8.92,1.616
				c-1.237,0.199-2.135,0.619-2.694,1.257c-0.359,0.479-0.599,1.357-0.718,2.634c0,1.078,0,2.474,0,4.19l-0.179,23.346
				l-20.712-10.596c-1.157-0.519-2.055-0.579-2.694-0.18c-0.838,0.319-1.417,0.798-1.736,1.437l-5.926,9.279l-9.272-18.34
				c-1.236-2.444-4.942-1.235-4.5,1.467l5.272,32.197l-10.237-5.627c-1.556-0.838-2.933-1.257-4.13-1.257
				c-1.437,0.12-2.514,0.898-3.233,2.335L-2.255,300.61l-14.367-27.836c-0.838-1.437-1.855-2.215-3.053-2.335
				c-1.317,0-2.754,0.419-4.31,1.257l-9.997,5.627l5.316-32.921c0.436-2.701-3.269-3.903-4.501-1.46l-9.495,18.817l-5.687-9.758
				c-0.439-0.599-1.038-1.058-1.796-1.377c-0.838-0.399-1.736-0.339-2.694,0.18L-73.611,261.4l-0.239-23.406
				c0.04-1.756,0.06-3.173,0.06-4.25c-0.12-1.237-0.419-2.075-0.898-2.514c-0.399-0.639-1.237-1.058-2.514-1.257l-8.86-1.676
				l12.951-18.675C-70.874,206.395-67.198,204.471-63.273,204.471z"/>
		</g>
	</symbol>
</defs>
<use xlink:href="#New_Symbol_7"  width="363" height="601.22" id="XMLID_1_" x="-183.635" y="-300.61" transform="matrix(0.5833 0 0 -0.5833 107.1204 175.3559)" style="overflow:visible;"/>
</svg>