<!-- Generator: Adobe Illustrator 21.0.0, SVG Export Plug-In  -->
<svg version="1.1"
	 xmlns="http://www.w3.org/2000/svg" xmlns:xlink="http://www.w3.org/1999/xlink" xmlns:a="http://ns.adobe.com/AdobeSVGViewerExtensions/3.0/"
	 x="0px" y="0px" width="198.217px" height="246.4px" viewBox="0 0 198.217 246.4"
	 style="enable-background:new 0 0 198.217 246.4;" xml:space="preserve">
<style type="text/css">
	.st0{fill:#FFFFFF;}
</style>
<defs>
</defs>
<g>
	<path class="st0" d="M47.656,0.88c0-0.586,0.312-0.88,0.936-0.88h17.984c0.623,0,0.936,0.312,0.936,0.935v0.66
		c0,0.66-0.312,0.99-0.936,0.99H50.352v15.07h13.2c0.623,0,0.935,0.312,0.935,0.935v0.66c0,0.66-0.312,0.99-0.935,0.99h-13.2v15.675
		h16.225c0.623,0,0.936,0.33,0.936,0.99v0.66c0,0.624-0.312,0.935-0.936,0.935H48.592c-0.624,0-0.936-0.293-0.936-0.88V0.88z"/>
	<path class="st0" d="M90.941,29.865c0,1.54-0.22,2.887-0.66,4.042c-0.439,1.155-1.063,2.117-1.87,2.887s-1.751,1.348-2.832,1.732
		c-1.082,0.385-2.247,0.578-3.493,0.578c-1.174,0-2.301-0.174-3.382-0.522c-1.082-0.348-2.035-0.88-2.86-1.595
		c-0.825-0.715-1.477-1.595-1.952-2.64c-0.478-1.045-0.715-2.264-0.715-3.658v-0.275c0-1.393,0.237-2.612,0.715-3.658
		c0.476-1.045,1.118-1.925,1.925-2.64c0.806-0.715,1.751-1.246,2.832-1.595C79.729,22.174,80.876,22,82.086,22h6.325v-3.685
		c0-1.283-0.165-2.374-0.495-3.272c-0.33-0.898-0.779-1.623-1.347-2.172c-0.569-0.55-1.238-0.953-2.008-1.21
		c-0.771-0.256-1.595-0.385-2.476-0.385c-1.687,0-3.089,0.542-4.207,1.623c-1.119,1.082-1.678,2.595-1.678,4.538
		c0,0.55-0.274,0.825-0.825,0.825h-0.824c-0.587,0-0.881-0.293-0.881-0.88c0-2.603,0.788-4.666,2.365-6.188
		c1.576-1.521,3.594-2.282,6.05-2.282c1.246,0,2.411,0.192,3.493,0.577c1.081,0.385,2.025,0.963,2.832,1.733s1.431,1.732,1.87,2.887
		c0.44,1.155,0.66,2.502,0.66,4.042V29.865z M82.086,36.74c0.881,0,1.696-0.128,2.448-0.385c0.751-0.256,1.42-0.66,2.007-1.21
		s1.045-1.273,1.375-2.172c0.33-0.898,0.495-1.989,0.495-3.272v-5.335h-6.325c-1.76,0-3.254,0.514-4.482,1.54
		c-1.229,1.027-1.842,2.567-1.842,4.62v0.055c0,2.054,0.613,3.594,1.842,4.62C78.832,36.227,80.326,36.74,82.086,36.74z"/>
	<path class="st0" d="M111.842,16.61c0-1.833-0.569-3.18-1.705-4.042c-1.137-0.861-2.494-1.292-4.07-1.292
		c-1.577,0-2.934,0.422-4.069,1.265c-1.138,0.844-1.705,2.182-1.705,4.015v0.11c0,1.357,0.357,2.42,1.072,3.19
		s1.604,1.412,2.667,1.925c1.063,0.514,2.228,0.972,3.493,1.375c1.265,0.404,2.429,0.927,3.492,1.568
		c1.063,0.642,1.952,1.494,2.668,2.557c0.715,1.064,1.072,2.475,1.072,4.235c0,1.21-0.221,2.282-0.66,3.217
		c-0.44,0.935-1.045,1.732-1.815,2.393c-0.77,0.66-1.677,1.155-2.722,1.485c-1.046,0.33-2.191,0.495-3.438,0.495
		c-1.247,0-2.393-0.174-3.438-0.522c-1.046-0.348-1.953-0.853-2.723-1.513c-0.771-0.66-1.367-1.458-1.788-2.392
		c-0.422-0.935-0.632-1.989-0.632-3.163V31.35c0-0.586,0.293-0.88,0.88-0.88h0.825c0.55,0,0.824,0.275,0.824,0.825v0.055
		c0,0.954,0.165,1.77,0.495,2.447c0.33,0.679,0.771,1.238,1.32,1.678s1.191,0.761,1.925,0.962c0.733,0.202,1.503,0.303,2.311,0.303
		c0.806,0,1.575-0.101,2.31-0.303c0.733-0.201,1.375-0.513,1.925-0.935c0.55-0.421,0.99-0.962,1.32-1.623
		c0.33-0.66,0.495-1.466,0.495-2.42v-0.11c0-1.356-0.357-2.42-1.073-3.19c-0.715-0.77-1.604-1.403-2.667-1.897
		c-1.063-0.495-2.219-0.944-3.465-1.348c-1.247-0.403-2.402-0.926-3.465-1.567c-1.064-0.641-1.953-1.485-2.668-2.53
		s-1.072-2.465-1.072-4.262c0-1.21,0.21-2.292,0.633-3.245c0.421-0.953,0.998-1.75,1.732-2.393c0.732-0.641,1.612-1.136,2.64-1.485
		c1.026-0.348,2.126-0.522,3.3-0.522c1.173,0,2.264,0.174,3.272,0.522c1.008,0.349,1.889,0.853,2.641,1.512
		c0.751,0.66,1.338,1.458,1.76,2.393c0.421,0.935,0.633,1.972,0.633,3.107v0.165c0,0.587-0.294,0.88-0.881,0.88h-0.824
		c-0.551,0-0.825-0.275-0.825-0.825V16.61z"/>
	<path class="st0" d="M137.03,10.395c0-0.586,0.293-0.88,0.88-0.88h0.825c0.586,0,0.88,0.294,0.88,0.88V39.27
		c0,1.54-0.229,2.888-0.688,4.042c-0.459,1.155-1.082,2.108-1.87,2.86c-0.788,0.751-1.732,1.311-2.832,1.678
		c-1.1,0.366-2.273,0.55-3.52,0.55c-2.604,0-4.685-0.707-6.243-2.117c-1.559-1.412-2.337-3.237-2.337-5.473
		c0-0.587,0.293-0.88,0.88-0.88h0.825c0.55,0,0.824,0.275,0.824,0.825c0,1.65,0.559,2.951,1.678,3.905
		c1.118,0.953,2.575,1.43,4.373,1.43c0.88,0,1.704-0.119,2.475-0.357c0.77-0.239,1.438-0.624,2.008-1.155
		c0.567-0.532,1.018-1.238,1.347-2.118c0.33-0.88,0.495-1.962,0.495-3.245V32.89c-0.733,1.247-1.677,2.172-2.832,2.777
		s-2.484,0.908-3.987,0.908c-1.174,0-2.274-0.183-3.301-0.55c-1.026-0.366-1.916-0.925-2.667-1.677
		c-0.752-0.751-1.339-1.696-1.76-2.833c-0.422-1.136-0.633-2.475-0.633-4.015V10.395c0-0.586,0.293-0.88,0.88-0.88h0.771
		c0.586,0,0.88,0.294,0.88,0.88V27.17c0,1.284,0.165,2.375,0.495,3.272c0.33,0.899,0.788,1.623,1.375,2.173
		c0.586,0.55,1.255,0.954,2.007,1.21c0.751,0.257,1.567,0.385,2.448,0.385c0.88,0,1.704-0.128,2.475-0.385
		c0.77-0.256,1.438-0.66,2.008-1.21c0.567-0.55,1.018-1.274,1.347-2.173c0.33-0.898,0.495-1.988,0.495-3.272V10.395z"/>
	<path class="st0" d="M152.211,37.62c0,0.587-0.294,0.88-0.88,0.88h-1.926c-0.587,0-0.88-0.293-0.88-0.88v-2.695
		c0-0.586,0.293-0.88,0.88-0.88h1.926c0.586,0,0.88,0.294,0.88,0.88V37.62z"/>
	<path class="st0" d="M38.719,76.78c0-1.906,0.275-3.565,0.825-4.977c0.55-1.411,1.311-2.594,2.282-3.548
		c0.971-0.953,2.126-1.668,3.465-2.145c1.338-0.476,2.796-0.715,4.373-0.715c1.576,0,3.033,0.239,4.372,0.715
		c1.338,0.477,2.493,1.192,3.465,2.145c0.972,0.954,1.732,2.137,2.283,3.548c0.55,1.412,0.824,3.071,0.824,4.977v16.94
		c0,3.117-0.706,5.583-2.117,7.397c-1.412,1.815-3.255,2.998-5.527,3.547v2.035c0,1.723,0.348,2.942,1.045,3.657
		c0.696,0.715,1.815,1.073,3.354,1.073c0.587,0,1.046-0.055,1.375-0.165c0.587-0.147,0.881,0.11,0.881,0.77v0.715
		c0,0.513-0.294,0.843-0.881,0.99c-0.329,0.11-0.844,0.165-1.539,0.165c-2.018,0-3.667-0.514-4.95-1.54
		c-1.284-1.027-1.925-2.805-1.925-5.335v-1.925h-0.66c-1.577,0-3.035-0.239-4.373-0.715c-1.339-0.476-2.494-1.191-3.465-2.145
		c-0.972-0.953-1.732-2.136-2.282-3.548c-0.55-1.411-0.825-3.07-0.825-4.977V76.78z M41.414,93.39c0,1.65,0.22,3.062,0.66,4.235
		c0.439,1.174,1.035,2.118,1.787,2.833c0.751,0.715,1.622,1.237,2.612,1.567s2.053,0.495,3.19,0.495
		c1.136,0,2.199-0.165,3.189-0.495s1.86-0.853,2.612-1.567s1.348-1.659,1.788-2.833c0.439-1.173,0.66-2.585,0.66-4.235V77.11
		c0-1.65-0.221-3.061-0.66-4.235c-0.44-1.173-1.036-2.118-1.788-2.833s-1.622-1.237-2.612-1.567S50.8,67.98,49.664,67.98
		c-1.138,0-2.2,0.165-3.19,0.495s-1.861,0.853-2.612,1.567c-0.752,0.715-1.348,1.66-1.787,2.833c-0.44,1.174-0.66,2.585-0.66,4.235
		V93.39z"/>
	<path class="st0" d="M69.793,75.515h0.771c0.586,0,0.88,0.294,0.88,0.88V95.7c0,1.284,0.165,2.374,0.495,3.272
		c0.33,0.899,0.788,1.623,1.375,2.172c0.586,0.55,1.256,0.954,2.008,1.21c0.751,0.257,1.567,0.385,2.447,0.385
		s1.705-0.128,2.475-0.385c0.771-0.256,1.438-0.66,2.008-1.21c0.568-0.55,1.018-1.273,1.348-2.172
		c0.33-0.898,0.495-1.989,0.495-3.272V76.395c0-0.586,0.293-0.88,0.88-0.88h0.825c0.586,0,0.88,0.294,0.88,0.88v19.47
		c0,1.54-0.229,2.887-0.688,4.042c-0.459,1.155-1.082,2.117-1.87,2.887c-0.789,0.77-1.732,1.348-2.833,1.732
		c-1.1,0.385-2.273,0.578-3.52,0.578c-1.284,0-2.457-0.192-3.521-0.578c-1.063-0.385-1.999-0.962-2.805-1.732
		c-0.807-0.77-1.43-1.732-1.87-2.887c-0.439-1.155-0.66-2.503-0.66-4.042v-19.47C68.913,75.809,69.206,75.515,69.793,75.515z"/>
	<path class="st0" d="M95.368,66.88c0-0.586,0.293-0.88,0.88-0.88h0.824c0.587,0,0.881,0.294,0.881,0.88v2.97
		c0,0.587-0.294,0.88-0.881,0.88h-0.824c-0.587,0-0.88-0.293-0.88-0.88V66.88z M95.368,76.395c0-0.586,0.293-0.88,0.88-0.88h0.824
		c0.587,0,0.881,0.294,0.881,0.88v27.225c0,0.587-0.294,0.88-0.881,0.88h-0.824c-0.587,0-0.88-0.293-0.88-0.88V76.395z"/>
	<path class="st0" d="M108.678,95.7c0,1.284,0.165,2.374,0.495,3.272c0.33,0.899,0.778,1.623,1.348,2.172
		c0.567,0.55,1.237,0.954,2.007,1.21c0.771,0.257,1.596,0.385,2.476,0.385c1.649,0,3.07-0.55,4.262-1.65
		c1.191-1.1,1.788-2.64,1.788-4.62c0-0.55,0.274-0.825,0.825-0.825h0.824c0.587,0,0.881,0.294,0.881,0.88
		c0,1.32-0.221,2.512-0.66,3.575c-0.44,1.064-1.045,1.962-1.815,2.695c-0.77,0.734-1.678,1.302-2.723,1.705
		s-2.172,0.605-3.382,0.605c-1.284,0-2.467-0.192-3.548-0.578c-1.082-0.385-2.017-0.962-2.805-1.732
		c-0.789-0.77-1.412-1.732-1.87-2.887c-0.459-1.155-0.688-2.503-0.688-4.042V84.15c0-1.54,0.229-2.887,0.688-4.042
		c0.458-1.155,1.081-2.117,1.87-2.887c0.788-0.77,1.723-1.348,2.805-1.733c1.081-0.385,2.264-0.577,3.548-0.577
		c1.21,0,2.337,0.202,3.382,0.605c1.045,0.404,1.953,0.972,2.723,1.705c0.771,0.734,1.375,1.632,1.815,2.695
		c0.439,1.064,0.66,2.255,0.66,3.575c0,0.587-0.294,0.88-0.881,0.88h-0.824c-0.551,0-0.825-0.275-0.825-0.825
		c0-1.98-0.597-3.52-1.788-4.62c-1.191-1.1-2.612-1.65-4.262-1.65c-0.88,0-1.705,0.129-2.476,0.385
		c-0.77,0.257-1.439,0.66-2.007,1.21c-0.569,0.55-1.018,1.274-1.348,2.172c-0.33,0.899-0.495,1.989-0.495,3.272V95.7z"/>
	<path class="st0" d="M138.652,89.265l-4.675,5.555v8.8c0,0.587-0.294,0.88-0.881,0.88h-0.824c-0.587,0-0.88-0.293-0.88-0.88V66.275
		c0-0.586,0.293-0.88,0.88-0.88h0.824c0.587,0,0.881,0.294,0.881,0.88V91.52l12.54-15.4c0.256-0.403,0.678-0.605,1.265-0.605h1.21
		c0.293,0,0.476,0.129,0.55,0.385c0.073,0.257,0.019,0.477-0.165,0.66l-9.075,10.725l9.351,16.17
		c0.183,0.257,0.22,0.495,0.109,0.715c-0.109,0.22-0.329,0.33-0.659,0.33h-1.101c-0.55,0-0.917-0.22-1.1-0.66L138.652,89.265z"/>
	<path class="st0" d="M160.047,103.62c0,0.587-0.294,0.88-0.88,0.88h-1.926c-0.587,0-0.88-0.293-0.88-0.88v-2.695
		c0-0.586,0.293-0.88,0.88-0.88h1.926c0.586,0,0.88,0.294,0.88,0.88V103.62z"/>
	<path class="st0" d="M19.167,132h0.825c0.623,0,0.935,0.294,0.935,0.88v16.775h16.5V132.88c0-0.586,0.312-0.88,0.936-0.88h0.824
		c0.66,0,0.99,0.294,0.99,0.88v36.74c0,0.587-0.33,0.88-0.99,0.88h-0.824c-0.624,0-0.936-0.293-0.936-0.88v-17.38h-16.5v17.38
		c0,0.587-0.312,0.88-0.935,0.88h-0.825c-0.624,0-0.936-0.293-0.936-0.88v-36.74C18.231,132.294,18.543,132,19.167,132z"/>
	<path class="st0" d="M66.687,161.865c0,1.54-0.22,2.887-0.66,4.042c-0.439,1.155-1.063,2.117-1.87,2.887s-1.751,1.348-2.832,1.732
		c-1.082,0.385-2.246,0.578-3.492,0.578c-1.284,0-2.467-0.192-3.548-0.578c-1.082-0.385-2.017-0.962-2.805-1.732
		c-0.789-0.77-1.412-1.732-1.87-2.887c-0.459-1.155-0.688-2.503-0.688-4.042V150.15c0-1.54,0.229-2.887,0.688-4.042
		c0.458-1.155,1.081-2.117,1.87-2.887c0.788-0.77,1.723-1.348,2.805-1.733c1.081-0.385,2.264-0.577,3.548-0.577
		c1.246,0,2.41,0.192,3.492,0.577c1.081,0.385,2.025,0.963,2.832,1.733s1.431,1.732,1.87,2.887c0.44,1.155,0.66,2.502,0.66,4.042
		V161.865z M64.156,150.315c0-1.283-0.165-2.374-0.494-3.272c-0.33-0.898-0.789-1.623-1.375-2.172
		c-0.587-0.55-1.257-0.953-2.008-1.21c-0.752-0.256-1.567-0.385-2.447-0.385s-1.705,0.129-2.476,0.385
		c-0.77,0.257-1.439,0.66-2.007,1.21c-0.569,0.55-1.018,1.274-1.348,2.172c-0.33,0.899-0.495,1.989-0.495,3.272V161.7
		c0,1.284,0.165,2.374,0.495,3.272c0.33,0.899,0.778,1.623,1.348,2.172c0.567,0.55,1.237,0.954,2.007,1.21
		c0.771,0.257,1.596,0.385,2.476,0.385s1.695-0.128,2.447-0.385c0.751-0.256,1.421-0.66,2.008-1.21
		c0.586-0.55,1.045-1.273,1.375-2.172c0.329-0.898,0.494-1.989,0.494-3.272V150.315z"/>
	<path class="st0" d="M103.866,169.62c0,0.587-0.294,0.88-0.881,0.88h-0.77c-0.587,0-0.88-0.293-0.88-0.88v-20.295
		c0-2.2-0.522-3.758-1.567-4.675c-1.045-0.916-2.338-1.375-3.878-1.375s-2.832,0.459-3.877,1.375
		c-1.046,0.917-1.568,2.475-1.568,4.675v20.295c0,0.587-0.294,0.88-0.88,0.88h-0.824c-0.588,0-0.881-0.293-0.881-0.88v-20.295
		c0-1.1-0.146-2.035-0.439-2.805c-0.294-0.77-0.688-1.393-1.183-1.87c-0.495-0.476-1.072-0.825-1.732-1.045s-1.375-0.33-2.146-0.33
		c-1.54,0-2.823,0.459-3.85,1.375c-1.027,0.917-1.54,2.475-1.54,4.675v20.295c0,0.587-0.294,0.88-0.88,0.88H75.32
		c-0.587,0-0.88-0.293-0.88-0.88v-20.68c0-2.713,0.733-4.73,2.2-6.05c1.466-1.32,3.318-1.98,5.555-1.98
		c1.65,0,3.089,0.395,4.318,1.182c1.228,0.789,2.099,1.972,2.612,3.548c0.513-1.576,1.384-2.759,2.612-3.548
		c1.228-0.788,2.686-1.182,4.372-1.182c2.2,0,4.043,0.66,5.528,1.98c1.484,1.32,2.228,3.337,2.228,6.05V169.62z"/>
	<path class="st0" d="M126.581,162.58c0-0.55,0.274-0.825,0.825-0.825h0.824c0.587,0,0.881,0.294,0.881,0.88
		c0,1.284-0.212,2.448-0.633,3.493c-0.422,1.045-1.018,1.935-1.788,2.667c-0.77,0.734-1.677,1.302-2.722,1.705
		s-2.191,0.605-3.438,0.605c-1.284,0-2.467-0.192-3.548-0.578c-1.082-0.385-2.017-0.962-2.805-1.732
		c-0.789-0.77-1.412-1.732-1.87-2.887c-0.459-1.155-0.688-2.503-0.688-4.042V150.15c0-1.54,0.229-2.887,0.688-4.042
		c0.458-1.155,1.081-2.117,1.87-2.887c0.788-0.77,1.723-1.348,2.805-1.733c1.081-0.385,2.264-0.577,3.548-0.577
		c1.246,0,2.41,0.192,3.492,0.577c1.081,0.385,2.025,0.963,2.832,1.733s1.431,1.732,1.87,2.887c0.44,1.155,0.66,2.502,0.66,4.042
		v5.225c0,0.587-0.294,0.88-0.88,0.88h-14.3v5.445c0,1.284,0.165,2.374,0.495,3.272c0.33,0.899,0.778,1.623,1.348,2.172
		c0.567,0.55,1.237,0.954,2.007,1.21c0.771,0.257,1.596,0.385,2.476,0.385c1.686,0,3.116-0.541,4.29-1.623
		C125.994,166.037,126.581,164.524,126.581,162.58z M114.206,153.89h12.649v-3.575c0-1.283-0.165-2.374-0.494-3.272
		c-0.33-0.898-0.789-1.623-1.375-2.172c-0.587-0.55-1.257-0.953-2.008-1.21c-0.752-0.256-1.567-0.385-2.447-0.385
		s-1.705,0.129-2.476,0.385c-0.77,0.257-1.439,0.66-2.007,1.21c-0.569,0.55-1.018,1.274-1.348,2.172
		c-0.33,0.899-0.495,1.989-0.495,3.272V153.89z"/>
	<path class="st0" d="M166.234,161.865c0,1.54-0.22,2.887-0.66,4.042c-0.439,1.155-1.063,2.117-1.87,2.887s-1.751,1.348-2.832,1.732
		c-1.082,0.385-2.246,0.578-3.492,0.578c-1.284,0-2.467-0.192-3.548-0.578c-1.082-0.385-2.017-0.962-2.805-1.732
		c-0.789-0.77-1.412-1.732-1.87-2.887c-0.459-1.155-0.688-2.503-0.688-4.042V150.15c0-1.54,0.229-2.887,0.688-4.042
		c0.458-1.155,1.081-2.117,1.87-2.887c0.788-0.77,1.723-1.348,2.805-1.733c1.081-0.385,2.264-0.577,3.548-0.577
		c1.246,0,2.41,0.192,3.492,0.577c1.081,0.385,2.025,0.963,2.832,1.733s1.431,1.732,1.87,2.887c0.44,1.155,0.66,2.502,0.66,4.042
		V161.865z M163.704,150.315c0-1.283-0.165-2.374-0.494-3.272c-0.33-0.898-0.789-1.623-1.375-2.172
		c-0.587-0.55-1.257-0.953-2.008-1.21c-0.752-0.256-1.567-0.385-2.447-0.385s-1.705,0.129-2.476,0.385
		c-0.77,0.257-1.439,0.66-2.007,1.21c-0.569,0.55-1.018,1.274-1.348,2.172c-0.33,0.899-0.495,1.989-0.495,3.272V161.7
		c0,1.284,0.165,2.374,0.495,3.272c0.33,0.899,0.778,1.623,1.348,2.172c0.567,0.55,1.237,0.954,2.007,1.21
		c0.771,0.257,1.596,0.385,2.476,0.385s1.695-0.128,2.447-0.385c0.751-0.256,1.421-0.66,2.008-1.21
		c0.586-0.55,1.045-1.273,1.375-2.172c0.329-0.898,0.494-1.989,0.494-3.272V150.315z"/>
	<path class="st0" d="M182.02,143.605c-1.797,0-3.162,0.357-4.098,1.073c-0.935,0.715-1.402,2.136-1.402,4.262v20.68
		c0,0.587-0.294,0.88-0.88,0.88h-0.771c-0.587,0-0.88-0.293-0.88-0.88v-20.955c0-1.393,0.174-2.566,0.522-3.52
		c0.349-0.953,0.853-1.713,1.513-2.283c0.66-0.568,1.466-0.98,2.42-1.237c0.953-0.256,2.017-0.385,3.19-0.385
		c0.403,0,0.815,0.019,1.237,0.055c0.421,0.037,0.853,0.092,1.293,0.165c0.55,0.11,0.824,0.422,0.824,0.935V143
		c0,0.66-0.294,0.935-0.88,0.825c-0.367-0.073-0.725-0.128-1.072-0.165C182.688,143.624,182.35,143.605,182.02,143.605z"/>
	<path class="st0" d="M17.765,227.865c0,1.54-0.22,2.887-0.66,4.042c-0.439,1.155-1.063,2.117-1.87,2.887s-1.751,1.348-2.832,1.732
		c-1.082,0.385-2.246,0.578-3.492,0.578c-1.284,0-2.467-0.192-3.548-0.578c-1.082-0.385-2.017-0.962-2.805-1.732
		c-0.789-0.77-1.412-1.732-1.87-2.887C0.229,230.752,0,229.405,0,227.865V216.15c0-1.54,0.229-2.887,0.688-4.042
		c0.458-1.155,1.081-2.117,1.87-2.887c0.788-0.77,1.723-1.348,2.805-1.733c1.081-0.385,2.264-0.577,3.548-0.577
		c1.246,0,2.41,0.192,3.492,0.577c1.081,0.385,2.025,0.963,2.832,1.733s1.431,1.732,1.87,2.887c0.44,1.155,0.66,2.502,0.66,4.042
		V227.865z M15.234,216.315c0-1.283-0.165-2.374-0.494-3.272c-0.33-0.898-0.789-1.623-1.375-2.172
		c-0.587-0.55-1.257-0.953-2.008-1.21c-0.752-0.256-1.567-0.385-2.447-0.385s-1.705,0.129-2.476,0.385
		c-0.77,0.257-1.439,0.66-2.007,1.21c-0.569,0.55-1.018,1.274-1.348,2.172c-0.33,0.899-0.495,1.989-0.495,3.272V227.7
		c0,1.284,0.165,2.374,0.495,3.272c0.33,0.899,0.778,1.623,1.348,2.172c0.567,0.55,1.237,0.954,2.007,1.21
		c0.771,0.257,1.596,0.385,2.476,0.385s1.695-0.128,2.447-0.385c0.751-0.256,1.421-0.66,2.008-1.21
		c0.586-0.55,1.045-1.273,1.375-2.172c0.329-0.898,0.494-1.989,0.494-3.272V216.315z"/>
	<path class="st0" d="M42.404,236.5h-0.825c-0.587,0-0.88-0.293-0.88-0.88v-19.305c0-1.283-0.165-2.374-0.495-3.272
		c-0.33-0.898-0.779-1.623-1.348-2.172c-0.569-0.55-1.237-0.953-2.008-1.21c-0.77-0.256-1.595-0.385-2.475-0.385
		s-1.696,0.129-2.447,0.385c-0.752,0.257-1.422,0.66-2.008,1.21c-0.587,0.55-1.045,1.274-1.375,2.172
		c-0.33,0.899-0.495,1.989-0.495,3.272v19.305c0,0.587-0.294,0.88-0.88,0.88h-0.771c-0.587,0-0.88-0.293-0.88-0.88v-19.47
		c0-1.54,0.221-2.887,0.66-4.042c0.44-1.155,1.063-2.117,1.87-2.887c0.806-0.77,1.741-1.348,2.805-1.733
		c1.063-0.385,2.236-0.577,3.521-0.577c1.246,0,2.42,0.192,3.52,0.577c1.101,0.385,2.044,0.963,2.833,1.733
		c0.788,0.77,1.411,1.732,1.87,2.887c0.458,1.155,0.688,2.502,0.688,4.042v19.47C43.284,236.207,42.99,236.5,42.404,236.5z"/>
	<path class="st0" d="M73.424,236.5c-0.733,0.146-1.54,0.22-2.42,0.22c-2.236,0-3.997-0.513-5.28-1.54
		c-1.283-1.026-1.925-2.841-1.925-5.445V201.3c0-0.586,0.293-0.88,0.88-0.88h0.825c0.586,0,0.88,0.294,0.88,0.88v6.215h6.985
		c0.586,0,0.88,0.294,0.88,0.88V209c0,0.587-0.294,0.88-0.88,0.88h-6.985v19.69c0,1.87,0.403,3.135,1.21,3.795
		c0.807,0.66,2.035,0.99,3.686,0.99c0.33,0,0.668-0.018,1.018-0.055c0.348-0.036,0.705-0.091,1.072-0.165
		c0.586-0.11,0.88,0.165,0.88,0.825v0.605C74.249,236.079,73.974,236.39,73.424,236.5z"/>
	<path class="st0" d="M83.599,235.62c0,0.587-0.294,0.88-0.881,0.88h-0.824c-0.587,0-0.88-0.293-0.88-0.88v-37.29
		c0-0.586,0.293-0.88,0.88-0.88h0.824c0.587,0,0.881,0.294,0.881,0.88v12.32c0.695-1.246,1.631-2.181,2.805-2.805
		c1.173-0.623,2.511-0.935,4.015-0.935c1.173,0,2.273,0.192,3.3,0.577c1.026,0.385,1.916,0.954,2.668,1.705
		c0.751,0.752,1.338,1.696,1.76,2.833c0.421,1.137,0.633,2.457,0.633,3.96v19.635c0,0.587-0.294,0.88-0.88,0.88h-0.771
		c-0.587,0-0.88-0.293-0.88-0.88v-19.305c0-1.283-0.165-2.374-0.495-3.272c-0.33-0.898-0.789-1.623-1.375-2.172
		c-0.587-0.55-1.256-0.953-2.007-1.21c-0.752-0.256-1.567-0.385-2.448-0.385c-0.88,0-1.705,0.129-2.475,0.385
		c-0.77,0.257-1.439,0.66-2.008,1.21c-0.568,0.55-1.018,1.274-1.348,2.172c-0.329,0.899-0.494,1.989-0.494,3.272V235.62z"/>
	<path class="st0" d="M121.493,228.58c0-0.55,0.274-0.825,0.825-0.825h0.824c0.587,0,0.881,0.294,0.881,0.88
		c0,1.284-0.212,2.448-0.633,3.493c-0.422,1.045-1.018,1.935-1.788,2.667c-0.77,0.734-1.677,1.302-2.722,1.705
		s-2.191,0.605-3.438,0.605c-1.284,0-2.467-0.192-3.548-0.578c-1.082-0.385-2.017-0.962-2.805-1.732
		c-0.789-0.77-1.412-1.732-1.87-2.887c-0.459-1.155-0.688-2.503-0.688-4.042V216.15c0-1.54,0.229-2.887,0.688-4.042
		c0.458-1.155,1.081-2.117,1.87-2.887c0.788-0.77,1.723-1.348,2.805-1.733c1.081-0.385,2.264-0.577,3.548-0.577
		c1.246,0,2.41,0.192,3.492,0.577c1.081,0.385,2.025,0.963,2.832,1.733s1.431,1.732,1.87,2.887c0.44,1.155,0.66,2.502,0.66,4.042
		v5.225c0,0.587-0.294,0.88-0.88,0.88h-14.3v5.445c0,1.284,0.165,2.374,0.495,3.272c0.33,0.899,0.778,1.623,1.348,2.172
		c0.567,0.55,1.237,0.954,2.007,1.21c0.771,0.257,1.596,0.385,2.476,0.385c1.686,0,3.116-0.541,4.29-1.623
		C120.906,232.037,121.493,230.524,121.493,228.58z M109.118,219.89h12.649v-3.575c0-1.283-0.165-2.374-0.494-3.272
		c-0.33-0.898-0.789-1.623-1.375-2.172c-0.587-0.55-1.257-0.953-2.008-1.21c-0.752-0.256-1.567-0.385-2.447-0.385
		s-1.705,0.129-2.476,0.385c-0.77,0.257-1.439,0.66-2.007,1.21c-0.569,0.55-1.018,1.274-1.348,2.172
		c-0.33,0.899-0.495,1.989-0.495,3.272V219.89z"/>
	<path class="st0" d="M158.562,230.835c-0.697,1.284-1.632,2.228-2.805,2.833c-1.174,0.605-2.53,0.908-4.07,0.908
		c-1.174,0-2.273-0.183-3.3-0.55c-1.027-0.366-1.916-0.925-2.668-1.677c-0.752-0.751-1.339-1.696-1.76-2.833
		c-0.422-1.136-0.633-2.475-0.633-4.015v-9.35c0-1.54,0.229-2.887,0.688-4.042c0.459-1.155,1.082-2.117,1.87-2.887
		s1.724-1.348,2.806-1.733c1.081-0.385,2.264-0.577,3.547-0.577c1.246,0,2.411,0.192,3.493,0.577
		c1.081,0.385,2.025,0.963,2.832,1.733s1.43,1.732,1.87,2.887c0.44,1.155,0.66,2.502,0.66,4.042v21.12c0,1.54-0.22,2.888-0.66,4.042
		s-1.063,2.108-1.87,2.86c-0.807,0.751-1.751,1.311-2.832,1.678c-1.082,0.366-2.247,0.55-3.493,0.55
		c-2.64,0-4.739-0.707-6.297-2.117c-1.56-1.412-2.338-3.237-2.338-5.473c0-0.587,0.293-0.88,0.88-0.88h0.88
		c0.551,0,0.825,0.275,0.825,0.825c0,1.65,0.55,2.951,1.65,3.905c1.1,0.953,2.565,1.43,4.399,1.43c0.88,0,1.696-0.119,2.448-0.357
		c0.751-0.239,1.42-0.624,2.007-1.155c0.586-0.532,1.045-1.238,1.375-2.118s0.495-1.962,0.495-3.245V230.835z M158.562,216.315
		c0-1.283-0.165-2.374-0.495-3.272c-0.33-0.898-0.789-1.623-1.375-2.172c-0.587-0.55-1.256-0.953-2.007-1.21
		c-0.752-0.256-1.568-0.385-2.448-0.385s-1.705,0.129-2.475,0.385c-0.771,0.257-1.439,0.66-2.008,1.21
		c-0.568,0.55-1.018,1.274-1.348,2.172c-0.33,0.899-0.494,1.989-0.494,3.272v8.855c0,1.284,0.164,2.375,0.494,3.272
		c0.33,0.899,0.779,1.623,1.348,2.173c0.568,0.55,1.237,0.954,2.008,1.21c0.77,0.257,1.595,0.385,2.475,0.385
		s1.696-0.128,2.448-0.385c0.751-0.256,1.42-0.66,2.007-1.21c0.586-0.55,1.045-1.274,1.375-2.173
		c0.33-0.898,0.495-1.988,0.495-3.272V216.315z"/>
	<path class="st0" d="M186.611,227.865c0,1.54-0.22,2.887-0.66,4.042c-0.439,1.155-1.063,2.117-1.87,2.887s-1.751,1.348-2.832,1.732
		c-1.082,0.385-2.246,0.578-3.492,0.578c-1.284,0-2.467-0.192-3.548-0.578c-1.082-0.385-2.017-0.962-2.805-1.732
		c-0.789-0.77-1.412-1.732-1.87-2.887c-0.459-1.155-0.688-2.503-0.688-4.042V216.15c0-1.54,0.229-2.887,0.688-4.042
		c0.458-1.155,1.081-2.117,1.87-2.887c0.788-0.77,1.723-1.348,2.805-1.733c1.081-0.385,2.264-0.577,3.548-0.577
		c1.246,0,2.41,0.192,3.492,0.577c1.081,0.385,2.025,0.963,2.832,1.733s1.431,1.732,1.87,2.887c0.44,1.155,0.66,2.502,0.66,4.042
		V227.865z M184.081,216.315c0-1.283-0.165-2.374-0.494-3.272c-0.33-0.898-0.789-1.623-1.375-2.172
		c-0.587-0.55-1.257-0.953-2.008-1.21c-0.752-0.256-1.567-0.385-2.447-0.385s-1.705,0.129-2.476,0.385
		c-0.77,0.257-1.439,0.66-2.007,1.21c-0.569,0.55-1.018,1.274-1.348,2.172c-0.33,0.899-0.495,1.989-0.495,3.272V227.7
		c0,1.284,0.165,2.374,0.495,3.272c0.33,0.899,0.778,1.623,1.348,2.172c0.567,0.55,1.237,0.954,2.007,1.21
		c0.771,0.257,1.596,0.385,2.476,0.385s1.695-0.128,2.447-0.385c0.751-0.256,1.421-0.66,2.008-1.21
		c0.586-0.55,1.045-1.273,1.375-2.172c0.329-0.898,0.494-1.989,0.494-3.272V216.315z"/>
	<path class="st0" d="M198.217,235.62c0,0.587-0.294,0.88-0.88,0.88h-1.926c-0.587,0-0.88-0.293-0.88-0.88v-2.695
		c0-0.586,0.293-0.88,0.88-0.88h1.926c0.586,0,0.88,0.294,0.88,0.88V235.62z"/>
</g>
</svg>