<!-- Generator: Adobe Illustrator 21.0.0, SVG Export Plug-In  -->
<svg version="1.1"
	 xmlns="http://www.w3.org/2000/svg" xmlns:xlink="http://www.w3.org/1999/xlink" xmlns:a="http://ns.adobe.com/AdobeSVGViewerExtensions/3.0/"
	 x="0px" y="0px" width="582.134px" height="506.356px" viewBox="0 0 582.134 506.356"
	 style="enable-background:new 0 0 582.134 506.356;" xml:space="preserve">
<style type="text/css">
	.st0{fill:#FFFFFF;}
</style>
<defs>
</defs>
<g id="New_Symbol_8_copy">
	<g>
		<g>
			<g>
				<path class="st0" d="M194.377,280.564c-1.733,0.024-3.285,0.445-4.657,1.263c-1.396,0.818-2.503,1.925-3.321,3.321
					c-0.818,1.372-1.239,2.912-1.263,4.621c0.024,1.733,0.445,3.285,1.263,4.657c0.818,1.396,1.925,2.503,3.321,3.321
					c1.372,0.818,2.924,1.239,4.657,1.263c1.709-0.024,3.249-0.445,4.621-1.263c1.396-0.818,2.503-1.925,3.321-3.321
					c0.818-1.372,1.239-2.924,1.263-4.657c-0.024-1.709-0.445-3.249-1.263-4.621c-0.818-1.396-1.925-2.503-3.321-3.321
					C197.626,281.009,196.085,280.588,194.377,280.564 M333.245,491.484c0.987-0.77,1.949-1.6,2.888-2.491h-90.209
					c0.963,0.89,1.937,1.733,2.924,2.527c12.009,9.891,26.063,14.836,42.162,14.836
					C307.134,506.356,321.213,501.398,333.245,491.484 M379.739,294.425c0.818,1.396,1.913,2.503,3.285,3.321
					c1.396,0.818,2.948,1.239,4.657,1.263c1.709-0.024,3.261-0.445,4.657-1.263c1.372-0.818,2.479-1.925,3.321-3.321
					c0.818-1.372,1.227-2.924,1.227-4.657c0-1.709-0.409-3.249-1.227-4.621c-0.842-1.396-1.949-2.503-3.321-3.321
					c-1.396-0.818-2.948-1.239-4.657-1.263c-1.709,0.024-3.261,0.445-4.657,1.263c-1.372,0.818-2.467,1.925-3.285,3.321
					c-0.818,1.372-1.239,2.912-1.263,4.621C378.5,291.502,378.921,293.054,379.739,294.425 M351.8,218.295
					c-4.572-1.949-9.494-2.948-14.764-2.996h-92.013c-5.294,0.048-10.228,1.047-14.8,2.996c-4.596,1.973-8.627,4.693-12.093,8.158
					c-3.465,3.465-6.185,7.484-8.158,12.057c-1.949,4.596-2.936,9.53-2.96,14.8v72.918c0.024,5.294,1.011,10.228,2.96,14.8
					c1.973,4.572,4.693,8.603,8.158,12.093c3.465,3.465,7.496,6.185,12.093,8.158c4.332,1.853,9,2.84,14.006,2.96
					c0.265,0,0.529,0,0.794,0h6.389c1.661,0.024,3.165,0.433,4.512,1.227c1.348,0.794,2.406,1.865,3.177,3.213
					c0.794,1.324,1.203,2.816,1.227,4.476c0,0.048,0,0.096,0,0.144c-0.024,1.733-0.421,3.309-1.191,4.729
					c-0.024,0.024-0.048,0.06-0.072,0.108c-0.12,0.217-0.241,0.421-0.361,0.614c-0.072,0.096-0.144,0.18-0.217,0.253
					c-0.12,0.193-0.241,0.361-0.361,0.505c-0.072,0.072-0.132,0.156-0.181,0.253c-0.217,0.217-0.433,0.445-0.65,0.686
					c-0.265,0.241-0.517,0.469-0.758,0.686c-0.265,0.217-0.517,0.421-0.758,0.614c-0.241,0.12-0.481,0.265-0.722,0.433
					c-4.067,2.647-7.917,5.788-11.551,9.422c-0.65,0.65-1.275,1.3-1.877,1.949c-11.888,12.73-17.832,27.928-17.832,45.592
					c0,16.894,5.439,31.538,16.316,43.931c0.024,0.048,0.072,0.084,0.144,0.108c0.65,0.746,1.42,1.324,2.31,1.733
					c0.914,0.385,1.877,0.59,2.888,0.614l91.291-0.072c0.987,0,1.913-0.205,2.78-0.614c0.915-0.409,1.685-0.975,2.31-1.697
					l0.108-0.108c10.853-12.394,16.28-27.025,16.28-43.895c0-18.578-6.558-34.425-19.673-47.541
					c-3.61-3.61-7.436-6.726-11.479-9.349c-0.337-0.241-0.662-0.457-0.975-0.65c-0.505-0.337-0.975-0.734-1.408-1.191
					c-1.564-1.564-2.515-3.357-2.852-5.379h-0.036c0-0.048,0-0.229,0-0.541c0-0.289-0.012-0.674-0.036-1.155
					c-0.024-1.685,0.361-3.213,1.155-4.584c0.794-1.372,1.865-2.455,3.213-3.249c1.348-0.818,2.864-1.239,4.548-1.263h6.353
					c5.27-0.024,10.192-1.011,14.764-2.96c4.596-1.973,8.627-4.693,12.093-8.158c3.465-3.489,6.185-7.52,8.158-12.093
					c1.949-4.572,2.948-9.506,2.996-14.8V253.31c-0.048-5.27-1.047-10.204-2.996-14.8c-1.973-4.572-4.693-8.591-8.158-12.057
					C360.427,222.988,356.396,220.268,351.8,218.295 M358.261,289.769c0,18.578-6.57,34.413-19.709,47.505
					c-13.116,13.14-28.962,19.709-47.541,19.709c-11.503,0-21.972-2.515-31.405-7.544c-5.776-3.104-11.166-7.159-16.172-12.165
					c-13.067-13.091-19.601-28.926-19.601-47.505c0-18.578,6.534-34.437,19.601-47.577c13.14-13.067,28.999-19.601,47.577-19.601
					c18.578-0.024,34.425,6.51,47.541,19.601C351.691,255.331,358.261,271.19,358.261,289.769 M319.745,410.516
					c7.869,7.869,11.804,17.399,11.804,28.59c0,11.166-3.935,20.708-11.804,28.626c-7.942,7.893-17.495,11.84-28.662,11.84
					c-11.19,0-20.732-3.947-28.626-11.84c-7.869-7.893-11.804-17.435-11.804-28.626c0-11.166,3.935-20.696,11.804-28.59
					c3.08-3.104,6.425-5.595,10.035-7.472c5.583-2.936,11.78-4.404,18.59-4.404C302.249,398.64,311.803,402.599,319.745,410.516
					 M328.011,439.07c0-10.204-3.586-18.903-10.757-26.099c-7.268-7.244-16.003-10.865-26.207-10.865
					c-4.837,0-9.349,0.83-13.537,2.491c-4.596,1.781-8.784,4.572-12.562,8.375c-7.22,7.195-10.829,15.895-10.829,26.099
					s3.61,18.927,10.829,26.171c7.22,7.196,15.919,10.805,26.099,10.829c10.204-0.024,18.939-3.634,26.207-10.829
					C324.425,457.997,328.011,449.273,328.011,439.07 M301.335,433.583c0.12,0.12,0.301,0.156,0.541,0.108l4.44-0.939l-1.155,4.404
					c-0.096,0.313-0.168,0.578-0.217,0.794c-0.048,0.241-0.048,0.421,0,0.541c0.072,0.12,0.229,0.241,0.469,0.361l1.588,0.758
					l-7.689,6.462c-0.144,0.12-0.241,0.289-0.289,0.505c-0.096,0.168-0.096,0.361,0,0.578l0.65,2.31
					c-0.89-0.12-1.745-0.229-2.563-0.325c-0.866-0.096-1.709-0.205-2.527-0.325c-0.818-0.096-1.648-0.193-2.491-0.289l0.614,8.05
					h-3.104l0.541-8.05c-0.024,0-0.048,0-0.072,0c-0.866,0.096-1.721,0.193-2.563,0.289c-0.818,0.12-1.648,0.229-2.491,0.325
					c-0.818,0.096-1.672,0.205-2.563,0.325l0.722-2.31c0.024-0.217,0-0.409-0.072-0.578c-0.072-0.217-0.169-0.385-0.289-0.505
					l-7.689-6.462l1.588-0.758c0.217-0.12,0.361-0.241,0.433-0.361c0.048-0.12,0.048-0.301,0-0.541
					c-0.048-0.217-0.108-0.481-0.18-0.794l-1.191-4.404l4.476,0.939c0.193,0.048,0.361,0.012,0.505-0.108
					c0.144-0.096,0.241-0.217,0.289-0.361l0.578-2.094l3.501,4.115c0.12,0.144,0.265,0.265,0.433,0.361
					c0.168,0.072,0.325,0.072,0.469,0c0.144-0.048,0.241-0.168,0.289-0.361c0.072-0.193,0.06-0.481-0.036-0.866l-1.444-8.303
					l1.985,1.083c0.313,0.193,0.59,0.289,0.83,0.289c0.241-0.048,0.433-0.205,0.578-0.469l2.816-5.451l2.816,5.451
					c0.144,0.265,0.349,0.421,0.614,0.469c0.241,0,0.517-0.096,0.83-0.289l2.022-1.083l-1.516,8.303
					c-0.096,0.385-0.108,0.674-0.036,0.866c0.072,0.193,0.181,0.313,0.325,0.361c0.144,0.072,0.289,0.072,0.433,0
					c0.169-0.096,0.325-0.217,0.469-0.361l3.501-4.115l0.614,2.094C301.142,433.366,301.214,433.486,301.335,433.583"/>
			</g>
		</g>
		<g id="Layer0_0_1_STROKES_1_">
			<g>
				<path class="st0" d="M291.011,329.808c-4.475,0-8.364-1.604-11.56-4.766c-3.172-3.204-4.763-7.069-4.763-11.521
					c0-2.417,1.959-4.375,4.375-4.375c2.416,0,4.375,1.958,4.375,4.375c0,2.122,0.699,3.817,2.2,5.334
					c1.509,1.493,3.227,2.203,5.373,2.203c2.138,0,3.839-0.705,5.354-2.22c1.523-1.523,2.24-3.224,2.256-5.35
					c0.018-2.405,1.973-4.343,4.374-4.343c0.011,0,0.022,0,0.033,0c2.416,0.018,4.36,1.991,4.343,4.407
					c-0.033,4.447-1.654,8.307-4.819,11.472C299.377,328.2,295.494,329.808,291.011,329.808z M331.329,313.709
					c-6.613,0.042-12.354-2.301-17.04-6.929c-0.032-0.031-0.063-0.063-0.094-0.096c-0.533-0.559-1.047-1.127-1.527-1.688
					c-0.018-0.022-0.037-0.044-0.055-0.066c-3.56-4.325-5.365-9.414-5.365-15.126c0-5.736,1.805-10.837,5.365-15.162
					c0.019-0.022,0.037-0.045,0.056-0.067c0.479-0.559,0.992-1.126,1.524-1.684c0.028-0.03,0.057-0.059,0.086-0.088
					c4.658-4.629,10.359-6.975,16.945-6.975c6.597,0,12.28,2.353,16.893,6.994c4.673,4.674,7.047,10.391,7.047,16.982
					c0,6.568-2.374,12.273-7.057,16.955C343.528,311.368,337.88,313.709,331.329,313.709z M320.482,300.599
					c2.992,2.933,6.507,4.36,10.741,4.36c4.237,0.034,7.741-1.412,10.686-4.376c3.034-3.033,4.504-6.556,4.504-10.777
					c0-4.246-1.47-7.78-4.494-10.805c-2.96-2.978-6.455-4.422-10.696-4.422c-4.231,0-7.743,1.436-10.735,4.39
					c-0.401,0.423-0.787,0.849-1.147,1.269c-2.25,2.747-3.344,5.878-3.344,9.568c0,3.666,1.094,6.785,3.344,9.532
					C319.7,299.755,320.083,300.179,320.482,300.599z M250.433,313.709c-0.042,0-0.083,0-0.124,0
					c-6.566,0-12.255-2.334-16.889-6.938c-0.055-0.055-0.109-0.111-0.161-0.168l-1.373-1.518c-0.042-0.046-0.082-0.093-0.122-0.14
					c-3.591-4.328-5.412-9.421-5.412-15.139c0-5.742,1.821-10.848,5.412-15.176c0.04-0.048,0.081-0.096,0.123-0.142l1.369-1.514
					c0.05-0.055,0.1-0.108,0.153-0.161c4.635-4.635,10.328-6.985,16.919-6.985c6.591,0,12.284,2.35,16.919,6.985
					c4.683,4.684,7.057,10.4,7.057,16.992c0,6.568-2.374,12.273-7.057,16.955C262.636,311.371,256.979,313.709,250.433,313.709z
					 M239.665,300.641c2.96,2.905,6.45,4.318,10.663,4.318c0.028,0,0.056,0,0.084,0c4.219,0,7.697-1.435,10.648-4.386
					c3.024-3.024,4.494-6.546,4.494-10.768c0-4.246-1.47-7.78-4.494-10.805c-2.976-2.975-6.486-4.422-10.732-4.422
					c-4.21,0-7.698,1.423-10.658,4.349l-1.228,1.357c-2.247,2.737-3.34,5.852-3.34,9.52c0,3.644,1.093,6.746,3.34,9.484
					L239.665,300.641z"/>
			</g>
		</g>
		<g>
			<path class="st0" d="M255.347,211.725h71.293c2.328,0,4.503-1.16,5.8-3.094l7.528-11.223l-5.203-0.943
				c-0.722-0.116-1.245-0.361-1.571-0.733c-0.209-0.279-0.349-0.792-0.419-1.536c0-0.629,0-1.443,0-2.444l-0.105-13.619
				l-12.082,6.181c-0.675,0.303-1.199,0.338-1.571,0.105c-0.489-0.186-0.827-0.466-1.013-0.838l-3.457-5.413l-5.409,10.698
				c-0.721,1.426-2.883,0.72-2.625-0.856l3.075-18.782l-5.971,3.282c-0.908,0.489-1.711,0.733-2.409,0.733
				c-0.838-0.07-1.467-0.524-1.886-1.362l-8.381-16.238l-8.381,16.238c-0.489,0.838-1.082,1.292-1.781,1.362
				c-0.768,0-1.606-0.244-2.514-0.733l-5.832-3.282l3.101,19.204c0.254,1.576-1.907,2.277-2.626,0.852l-5.539-10.977l-3.317,5.692
				c-0.256,0.349-0.605,0.617-1.048,0.803c-0.489,0.233-1.013,0.198-1.571-0.105l-12.117-6.181l-0.139,13.654
				c0.023,1.024,0.035,1.851,0.035,2.479c-0.07,0.722-0.245,1.211-0.524,1.467c-0.233,0.372-0.722,0.617-1.467,0.733l-5.168,0.978
				l7.555,10.894C250.913,210.603,253.057,211.725,255.347,211.725z"/>
		</g>
	</g>
</g>
<g>
	<path class="st0" d="M52.766,32.161h1.17c0.76,0,1.14,0.38,1.14,1.14v18.721c0,0.76-0.38,1.14-1.14,1.14h-1.17
		c-0.761,0-1.14-0.38-1.14-1.14V33.301C51.626,32.541,52.005,32.161,52.766,32.161z"/>
	<path class="st0" d="M69.234,38.281c0.7-0.84,1.69-1.26,2.97-1.26c0.62,0,1.19,0.1,1.71,0.3c0.52,0.2,0.97,0.505,1.35,0.915
		s0.68,0.925,0.9,1.545c0.22,0.62,0.33,1.35,0.33,2.189v6.21c0,0.9-0.135,1.686-0.405,2.355c-0.27,0.67-0.635,1.22-1.095,1.65
		c-0.46,0.43-1.015,0.755-1.665,0.975s-1.345,0.33-2.085,0.33c-0.76,0-1.46-0.11-2.1-0.33s-1.19-0.545-1.65-0.975
		c-0.46-0.431-0.825-0.98-1.095-1.65c-0.27-0.67-0.405-1.455-0.405-2.355V32.941c0-0.721,0.36-1.08,1.08-1.08h1.08
		c0.72,0,1.08,0.359,1.08,1.08V38.281z M69.234,47.971c0,0.96,0.195,1.616,0.585,1.966s0.865,0.524,1.425,0.524
		s1.035-0.175,1.425-0.524c0.39-0.35,0.585-1.006,0.585-1.966v-5.43c0-0.96-0.195-1.614-0.585-1.965
		c-0.39-0.35-0.865-0.525-1.425-0.525s-1.035,0.176-1.425,0.525c-0.39,0.351-0.585,1.005-0.585,1.965V47.971z"/>
	<path class="st0" d="M86.845,48.781c0-0.62,0.31-0.93,0.93-0.93h1.23c0.72,0,1.08,0.359,1.08,1.079c0,1.36-0.465,2.461-1.395,3.301
		s-2.165,1.26-3.705,1.26c-0.76,0-1.46-0.11-2.1-0.33c-0.641-0.22-1.19-0.55-1.65-0.99c-0.46-0.439-0.825-0.994-1.095-1.665
		c-0.271-0.67-0.405-1.444-0.405-2.325v-5.85c0-0.88,0.135-1.654,0.405-2.325c0.27-0.67,0.635-1.225,1.095-1.665
		c0.46-0.439,1.01-0.77,1.65-0.989c0.64-0.221,1.339-0.33,2.1-0.33c0.74,0,1.435,0.109,2.085,0.33c0.65,0.22,1.205,0.55,1.665,0.989
		c0.46,0.44,0.825,0.995,1.095,1.665c0.27,0.671,0.405,1.445,0.405,2.325v2.55c0,0.721-0.36,1.08-1.08,1.08h-6.18v2.01
		c0,0.96,0.195,1.616,0.585,1.966c0.39,0.35,0.865,0.524,1.425,0.524c0.58,0,1.035-0.149,1.365-0.45
		C86.68,49.711,86.845,49.302,86.845,48.781z M82.975,43.531h4.02v-0.99c0-0.96-0.194-1.614-0.585-1.965
		c-0.39-0.35-0.865-0.525-1.425-0.525c-0.56,0-1.035,0.176-1.425,0.525c-0.39,0.351-0.585,1.005-0.585,1.965V43.531z"/>
	<path class="st0" d="M98.154,50.251c0.159,0,0.294-0.005,0.405-0.015c0.11-0.01,0.255-0.035,0.435-0.075
		c0.36-0.06,0.63,0.011,0.81,0.21c0.18,0.2,0.271,0.48,0.271,0.84v0.87c0,0.36-0.085,0.615-0.255,0.765
		c-0.17,0.15-0.405,0.256-0.705,0.315c-0.28,0.06-0.545,0.095-0.795,0.105c-0.251,0.01-0.485,0.015-0.705,0.015
		c-0.581,0-1.105-0.07-1.575-0.21c-0.47-0.14-0.875-0.37-1.215-0.69c-0.341-0.319-0.601-0.744-0.78-1.274s-0.27-1.175-0.27-1.936
		V32.941c0-0.721,0.36-1.08,1.08-1.08h1.08c0.72,0,1.08,0.359,1.08,1.08v15.989c0,0.521,0.12,0.87,0.36,1.051
		C97.614,50.161,97.874,50.251,98.154,50.251z"/>
	<path class="st0" d="M102.564,33.241c0-0.72,0.36-1.08,1.08-1.08h1.08c0.72,0,1.08,0.36,1.08,1.08v1.02
		c0,0.721-0.36,1.08-1.08,1.08h-1.08c-0.72,0-1.08-0.359-1.08-1.08V33.241z M102.564,38.431c0-0.72,0.36-1.079,1.08-1.079h1.08
		c0.72,0,1.08,0.359,1.08,1.079v13.65c0,0.72-0.36,1.08-1.08,1.08h-1.08c-0.72,0-1.08-0.36-1.08-1.08V38.431z"/>
	<path class="st0" d="M116.604,48.781c0-0.62,0.31-0.93,0.93-0.93h1.23c0.72,0,1.08,0.359,1.08,1.079
		c0,1.36-0.465,2.461-1.395,3.301s-2.165,1.26-3.705,1.26c-0.76,0-1.46-0.11-2.1-0.33c-0.641-0.22-1.19-0.55-1.65-0.99
		c-0.46-0.439-0.825-0.994-1.095-1.665c-0.271-0.67-0.405-1.444-0.405-2.325v-5.85c0-0.88,0.135-1.654,0.405-2.325
		c0.27-0.67,0.635-1.225,1.095-1.665c0.46-0.439,1.01-0.77,1.65-0.989c0.64-0.221,1.339-0.33,2.1-0.33
		c0.74,0,1.435,0.109,2.085,0.33c0.65,0.22,1.205,0.55,1.665,0.989c0.46,0.44,0.825,0.995,1.095,1.665
		c0.27,0.671,0.405,1.445,0.405,2.325v2.55c0,0.721-0.36,1.08-1.08,1.08h-6.18v2.01c0,0.96,0.195,1.616,0.585,1.966
		c0.39,0.35,0.865,0.524,1.425,0.524c0.58,0,1.035-0.149,1.365-0.45C116.439,49.711,116.604,49.302,116.604,48.781z M112.733,43.531
		h4.02v-0.99c0-0.96-0.194-1.614-0.585-1.965c-0.39-0.35-0.865-0.525-1.425-0.525c-0.56,0-1.035,0.176-1.425,0.525
		c-0.39,0.351-0.585,1.005-0.585,1.965V43.531z"/>
	<path class="st0" d="M122.482,38.491c-0.1-0.34-0.07-0.615,0.09-0.825c0.16-0.21,0.41-0.314,0.75-0.314h1.26
		c0.68,0,1.09,0.29,1.229,0.869l2.61,11.94l2.61-11.94c0.14-0.579,0.55-0.869,1.23-0.869h1.17c0.34,0,0.59,0.104,0.75,0.314
		s0.19,0.485,0.09,0.825l-3.33,13.14c-0.281,1.021-0.92,1.53-1.92,1.53h-1.29c-1.02,0-1.66-0.51-1.92-1.53L122.482,38.491z"/>
	<path class="st0" d="M143.663,48.781c0-0.62,0.31-0.93,0.93-0.93h1.229c0.721,0,1.08,0.359,1.08,1.079
		c0,1.36-0.465,2.461-1.395,3.301c-0.93,0.84-2.165,1.26-3.705,1.26c-0.761,0-1.46-0.11-2.1-0.33s-1.19-0.55-1.65-0.99
		c-0.46-0.439-0.825-0.994-1.095-1.665c-0.27-0.67-0.405-1.444-0.405-2.325v-5.85c0-0.88,0.135-1.654,0.405-2.325
		c0.27-0.67,0.635-1.225,1.095-1.665c0.46-0.439,1.01-0.77,1.65-0.989c0.64-0.221,1.339-0.33,2.1-0.33
		c0.739,0,1.435,0.109,2.085,0.33c0.649,0.22,1.205,0.55,1.665,0.989c0.46,0.44,0.825,0.995,1.095,1.665
		c0.271,0.671,0.405,1.445,0.405,2.325v2.55c0,0.721-0.36,1.08-1.08,1.08h-6.18v2.01c0,0.96,0.194,1.616,0.585,1.966
		c0.39,0.35,0.864,0.524,1.425,0.524c0.58,0,1.035-0.149,1.365-0.45C143.498,49.711,143.663,49.302,143.663,48.781z M139.793,43.531
		h4.02v-0.99c0-0.96-0.195-1.614-0.585-1.965c-0.39-0.35-0.865-0.525-1.425-0.525c-0.561,0-1.035,0.176-1.425,0.525
		c-0.391,0.351-0.585,1.005-0.585,1.965V43.531z"/>
	<path class="st0" d="M157.372,33.241c0-0.72,0.359-1.08,1.08-1.08h1.08c0.72,0,1.08,0.36,1.08,1.08v1.02
		c0,0.721-0.36,1.08-1.08,1.08h-1.08c-0.72,0-1.08-0.359-1.08-1.08V33.241z M157.372,38.431c0-0.72,0.359-1.079,1.08-1.079h1.08
		c0.72,0,1.08,0.359,1.08,1.079v13.65c0,0.72-0.36,1.08-1.08,1.08h-1.08c-0.72,0-1.08-0.36-1.08-1.08V38.431z"/>
	<path class="st0" d="M173.991,53.161h-1.08c-0.72,0-1.08-0.36-1.08-1.08v-9.54c0-0.96-0.195-1.614-0.585-1.965
		c-0.39-0.35-0.865-0.525-1.425-0.525c-0.56,0-1.035,0.176-1.425,0.525c-0.39,0.351-0.585,1.005-0.585,1.965v9.54
		c0,0.72-0.36,1.08-1.08,1.08h-1.08c-0.72,0-1.08-0.36-1.08-1.08v-9.75c0-0.88,0.135-1.654,0.405-2.325
		c0.27-0.67,0.635-1.225,1.095-1.665c0.459-0.439,1.01-0.77,1.65-0.989c0.64-0.221,1.34-0.33,2.1-0.33
		c0.74,0,1.435,0.109,2.085,0.33c0.649,0.22,1.205,0.55,1.665,0.989c0.459,0.44,0.825,0.995,1.095,1.665
		c0.27,0.671,0.405,1.445,0.405,2.325v9.75C175.071,52.801,174.711,53.161,173.991,53.161z"/>
	<path class="st0" d="M185.241,41.971c0-1.68,0.405-2.925,1.215-3.734c0.81-0.811,1.835-1.215,3.075-1.215
		c0.6,0,1.155,0.1,1.665,0.3c0.51,0.2,0.945,0.521,1.305,0.96v-5.34c0-0.721,0.36-1.08,1.08-1.08h1.08c0.72,0,1.08,0.359,1.08,1.08
		v15.239c0,0.9-0.135,1.686-0.405,2.355s-0.635,1.22-1.095,1.65c-0.46,0.43-1.016,0.755-1.665,0.975
		c-0.65,0.22-1.345,0.33-2.085,0.33c-0.76,0-1.46-0.11-2.1-0.33c-0.64-0.22-1.19-0.545-1.65-0.975
		c-0.46-0.431-0.825-0.98-1.095-1.65s-0.405-1.455-0.405-2.355V41.971z M188.481,47.971c0,0.96,0.195,1.616,0.585,1.966
		c0.39,0.35,0.865,0.524,1.425,0.524c0.56,0,1.035-0.175,1.425-0.524s0.585-1.006,0.585-1.966v-5.43c0-0.96-0.195-1.614-0.585-1.965
		c-0.39-0.35-0.865-0.525-1.425-0.525c-0.56,0-1.035,0.176-1.425,0.525c-0.39,0.351-0.585,1.005-0.585,1.965V47.971z"/>
	<path class="st0" d="M199.73,33.241c0-0.72,0.36-1.08,1.08-1.08h1.08c0.72,0,1.08,0.36,1.08,1.08v1.02c0,0.721-0.36,1.08-1.08,1.08
		h-1.08c-0.72,0-1.08-0.359-1.08-1.08V33.241z M199.73,38.431c0-0.72,0.36-1.079,1.08-1.079h1.08c0.72,0,1.08,0.359,1.08,1.079
		v13.65c0,0.72-0.36,1.08-1.08,1.08h-1.08c-0.72,0-1.08-0.36-1.08-1.08V38.431z"/>
	<path class="st0" d="M205.94,38.491c-0.1-0.34-0.07-0.615,0.09-0.825c0.16-0.21,0.41-0.314,0.75-0.314h1.26
		c0.68,0,1.09,0.29,1.23,0.869l2.61,11.94l2.61-11.94c0.14-0.579,0.55-0.869,1.23-0.869h1.17c0.34,0,0.589,0.104,0.75,0.314
		c0.16,0.21,0.19,0.485,0.09,0.825l-3.33,13.14c-0.28,1.021-0.92,1.53-1.92,1.53h-1.29c-1.02,0-1.66-0.51-1.92-1.53L205.94,38.491z"
		/>
	<path class="st0" d="M227.12,48.781c0-0.62,0.31-0.93,0.93-0.93h1.23c0.72,0,1.08,0.359,1.08,1.079c0,1.36-0.465,2.461-1.395,3.301
		c-0.93,0.84-2.166,1.26-3.705,1.26c-0.76,0-1.46-0.11-2.1-0.33c-0.64-0.22-1.19-0.55-1.65-0.99
		c-0.46-0.439-0.825-0.994-1.095-1.665c-0.27-0.67-0.405-1.444-0.405-2.325v-5.85c0-0.88,0.135-1.654,0.405-2.325
		c0.27-0.67,0.635-1.225,1.095-1.665c0.46-0.439,1.01-0.77,1.65-0.989c0.64-0.221,1.34-0.33,2.1-0.33c0.74,0,1.435,0.109,2.085,0.33
		c0.649,0.22,1.205,0.55,1.665,0.989c0.46,0.44,0.825,0.995,1.095,1.665c0.27,0.671,0.405,1.445,0.405,2.325v2.55
		c0,0.721-0.36,1.08-1.08,1.08h-6.18v2.01c0,0.96,0.195,1.616,0.585,1.966c0.39,0.35,0.865,0.524,1.425,0.524
		c0.58,0,1.035-0.149,1.365-0.45C226.955,49.711,227.12,49.302,227.12,48.781z M223.25,43.531h4.02v-0.99
		c0-0.96-0.195-1.614-0.585-1.965c-0.39-0.35-0.865-0.525-1.425-0.525c-0.56,0-1.035,0.176-1.425,0.525
		c-0.39,0.351-0.585,1.005-0.585,1.965V43.531z"/>
	<path class="st0" d="M239.179,40.231c-0.7,0-1.2,0.14-1.5,0.42c-0.3,0.28-0.45,0.77-0.45,1.47v9.96c0,0.72-0.36,1.08-1.08,1.08
		h-1.08c-0.72,0-1.08-0.36-1.08-1.08v-10.2c0-1.72,0.415-2.93,1.245-3.63c0.83-0.699,1.995-1.05,3.495-1.05
		c0.22,0,0.455,0.005,0.705,0.015c0.25,0.011,0.525,0.045,0.825,0.105c0.28,0.06,0.505,0.165,0.675,0.314
		c0.17,0.15,0.255,0.405,0.255,0.766v0.87c0,0.359-0.09,0.64-0.27,0.84c-0.18,0.2-0.45,0.27-0.81,0.21
		C239.749,40.261,239.439,40.231,239.179,40.231z"/>
	<path class="st0" d="M249.709,41.431c0-0.439-0.15-0.779-0.45-1.02c-0.3-0.24-0.71-0.36-1.23-0.36s-0.93,0.12-1.23,0.36
		c-0.3,0.24-0.45,0.62-0.45,1.14v0.061c0,0.521,0.169,0.93,0.51,1.229c0.34,0.301,0.76,0.565,1.26,0.795
		c0.5,0.23,1.05,0.461,1.65,0.69c0.6,0.23,1.15,0.53,1.65,0.9c0.5,0.37,0.919,0.85,1.26,1.439c0.34,0.59,0.51,1.365,0.51,2.325
		c0,0.72-0.13,1.36-0.39,1.92c-0.26,0.561-0.615,1.03-1.065,1.41s-0.99,0.67-1.62,0.87c-0.63,0.199-1.315,0.3-2.055,0.3
		c-0.761,0-1.451-0.11-2.07-0.33c-0.62-0.22-1.155-0.515-1.605-0.885c-0.45-0.37-0.8-0.814-1.05-1.335
		c-0.25-0.521-0.375-1.08-0.375-1.681v-0.18c0-0.72,0.36-1.08,1.08-1.08h1.23c0.62,0,0.93,0.311,0.93,0.93
		c0,0.521,0.17,0.905,0.51,1.155c0.34,0.251,0.79,0.375,1.35,0.375c0.56,0,1.015-0.12,1.365-0.359c0.35-0.24,0.525-0.65,0.525-1.23
		v-0.06c0-0.521-0.17-0.925-0.51-1.216c-0.34-0.289-0.76-0.544-1.26-0.765c-0.5-0.22-1.05-0.439-1.65-0.66
		c-0.6-0.22-1.15-0.515-1.65-0.885c-0.5-0.37-0.92-0.845-1.26-1.425s-0.51-1.351-0.51-2.311c0-1.439,0.455-2.555,1.365-3.345
		c0.91-0.79,2.095-1.185,3.555-1.185c0.74,0,1.41,0.109,2.01,0.33c0.6,0.22,1.115,0.524,1.545,0.915
		c0.43,0.39,0.765,0.84,1.005,1.35c0.24,0.51,0.36,1.064,0.36,1.665c0,0.72-0.36,1.08-1.08,1.08h-1.23
		C250.019,42.361,249.709,42.052,249.709,41.431z"/>
	<path class="st0" d="M256.609,33.241c0-0.72,0.36-1.08,1.08-1.08h1.08c0.72,0,1.08,0.36,1.08,1.08v1.02
		c0,0.721-0.36,1.08-1.08,1.08h-1.08c-0.72,0-1.08-0.359-1.08-1.08V33.241z M256.609,38.431c0-0.72,0.36-1.079,1.08-1.079h1.08
		c0.72,0,1.08,0.359,1.08,1.079v13.65c0,0.72-0.36,1.08-1.08,1.08h-1.08c-0.72,0-1.08-0.36-1.08-1.08V38.431z"/>
	<path class="st0" d="M269.809,53.161c-0.3,0.06-0.575,0.095-0.825,0.105c-0.25,0.01-0.485,0.015-0.705,0.015
		c-1.44,0-2.54-0.335-3.3-1.005c-0.76-0.67-1.14-1.815-1.14-3.436V34.562c0-0.721,0.36-1.08,1.08-1.08h1.08
		c0.72,0,1.08,0.359,1.08,1.08v2.79h2.58c0.72,0,1.08,0.359,1.08,1.079v0.87c0,0.721-0.36,1.08-1.08,1.08h-2.58v8.221
		c0,0.62,0.12,1.05,0.36,1.29c0.24,0.239,0.67,0.359,1.29,0.359c0.26,0,0.57-0.03,0.93-0.09c0.36-0.06,0.63,0.011,0.81,0.21
		c0.18,0.2,0.27,0.48,0.27,0.84v0.87c0,0.36-0.085,0.615-0.255,0.765C270.314,52.996,270.088,53.102,269.809,53.161z"/>
	<path class="st0" d="M280.818,38.431c0-0.72,0.36-1.079,1.08-1.079h1.08c0.72,0,1.08,0.359,1.08,1.079v14.971
		c0,0.88-0.135,1.645-0.405,2.295c-0.27,0.649-0.635,1.185-1.095,1.604s-1.015,0.735-1.665,0.945s-1.345,0.315-2.085,0.315
		c-0.8,0-1.515-0.115-2.145-0.346c-0.63-0.229-1.165-0.54-1.605-0.93s-0.775-0.845-1.005-1.365c-0.23-0.521-0.345-1.08-0.345-1.68
		c0-0.72,0.36-1.08,1.08-1.08h1.23c0.62,0,0.93,0.31,0.93,0.93c0,0.44,0.15,0.815,0.45,1.125c0.3,0.311,0.77,0.465,1.41,0.465
		c0.56,0,1.035-0.149,1.425-0.449c0.39-0.301,0.585-0.931,0.585-1.891v-2.67c-0.7,0.84-1.69,1.26-2.97,1.26
		c-1.24,0-2.265-0.404-3.075-1.215c-0.81-0.81-1.215-2.055-1.215-3.734v-8.551c0-0.72,0.36-1.079,1.08-1.079h1.08
		c0.72,0,1.08,0.359,1.08,1.079v7.98c0,0.96,0.195,1.615,0.585,1.965c0.39,0.351,0.865,0.525,1.425,0.525s1.035-0.175,1.425-0.525
		c0.39-0.35,0.585-1.005,0.585-1.965V38.431z"/>
	<path class="st0" d="M291.708,52.081c0,0.72-0.36,1.08-1.08,1.08h-1.74c-0.72,0-1.08-0.36-1.08-1.08v-1.77
		c0-0.721,0.36-1.08,1.08-1.08h1.74c0.72,0,1.08,0.359,1.08,1.08V52.081z"/>
	<path class="st0" d="M304.997,47.581c0,0.94,0.279,1.615,0.84,2.025c0.56,0.41,1.24,0.614,2.04,0.614s1.479-0.199,2.04-0.6
		c0.56-0.399,0.84-1.069,0.84-2.01v-0.03c0-0.56-0.131-1.029-0.391-1.41c-0.26-0.38-0.6-0.709-1.02-0.99
		c-0.42-0.279-0.9-0.524-1.439-0.734c-0.541-0.21-1.096-0.436-1.666-0.675c-0.569-0.24-1.125-0.515-1.664-0.825
		c-0.54-0.31-1.021-0.7-1.44-1.17s-0.761-1.045-1.021-1.726c-0.26-0.68-0.389-1.5-0.389-2.46v-0.029c0-0.9,0.149-1.705,0.449-2.415
		c0.301-0.71,0.721-1.31,1.26-1.801c0.541-0.489,1.186-0.864,1.936-1.125c0.75-0.259,1.574-0.39,2.475-0.39s1.725,0.131,2.475,0.39
		c0.75,0.261,1.396,0.641,1.936,1.141s0.96,1.105,1.26,1.814c0.301,0.711,0.45,1.516,0.45,2.415v0.061c0,0.76-0.38,1.14-1.14,1.14
		h-1.29c-0.681,0-1.021-0.34-1.021-1.02v-0.091c0-0.84-0.25-1.479-0.75-1.92c-0.5-0.439-1.14-0.659-1.92-0.659
		c-0.779,0-1.42,0.22-1.92,0.659c-0.5,0.44-0.75,1.08-0.75,1.92v0.03c0,0.761,0.225,1.355,0.676,1.785
		c0.449,0.431,1.004,0.806,1.664,1.125c0.66,0.32,1.385,0.63,2.176,0.93c0.789,0.301,1.515,0.69,2.174,1.17
		c0.66,0.48,1.216,1.115,1.666,1.905c0.449,0.79,0.675,1.825,0.675,3.105v0.029c0,0.921-0.155,1.735-0.466,2.445
		c-0.31,0.71-0.75,1.311-1.319,1.8c-0.569,0.49-1.25,0.86-2.04,1.11s-1.655,0.375-2.595,0.375c-0.9,0-1.73-0.131-2.49-0.39
		c-0.761-0.26-1.421-0.641-1.979-1.141c-0.561-0.499-0.996-1.104-1.306-1.814s-0.465-1.516-0.465-2.415v-0.12
		c0-0.76,0.38-1.141,1.14-1.141h1.291c0.68,0,1.02,0.341,1.02,1.021V47.581z"/>
	<path class="st0" d="M327.797,48.181c0,0.9-0.136,1.686-0.405,2.355s-0.635,1.22-1.095,1.65c-0.46,0.43-1.016,0.755-1.665,0.975
		c-0.65,0.22-1.346,0.33-2.085,0.33c-0.761,0-1.46-0.11-2.101-0.33c-0.64-0.22-1.189-0.545-1.649-0.975
		c-0.46-0.431-0.825-0.98-1.095-1.65c-0.271-0.67-0.405-1.455-0.405-2.355v-5.85c0-0.88,0.135-1.654,0.405-2.325
		c0.27-0.67,0.635-1.225,1.095-1.665c0.46-0.439,1.01-0.77,1.649-0.989c0.641-0.221,1.34-0.33,2.101-0.33
		c0.739,0,1.435,0.109,2.085,0.33c0.649,0.22,1.205,0.55,1.665,0.989c0.46,0.44,0.825,0.995,1.095,1.665
		c0.27,0.671,0.405,1.445,0.405,2.325V48.181z M324.557,42.541c0-0.96-0.194-1.614-0.585-1.965c-0.391-0.35-0.865-0.525-1.425-0.525
		s-1.035,0.176-1.425,0.525c-0.391,0.351-0.586,1.005-0.586,1.965v5.43c0,0.96,0.195,1.616,0.586,1.966
		c0.39,0.35,0.865,0.524,1.425,0.524s1.034-0.175,1.425-0.524s0.585-1.006,0.585-1.966V42.541z"/>
	<path class="st0" d="M339.556,32.161h1.17c0.76,0,1.141,0.38,1.141,1.14v18.721c0,0.76-0.381,1.14-1.141,1.14h-1.17
		c-0.76,0-1.14-0.38-1.14-1.14V33.301C338.416,32.541,338.796,32.161,339.556,32.161z"/>
	<path class="st0" d="M356.176,52.081c0,0.72-0.36,1.08-1.08,1.08h-1.08c-0.72,0-1.08-0.36-1.08-1.08v-19.14
		c0-0.721,0.36-1.08,1.08-1.08h1.08c0.72,0,1.08,0.359,1.08,1.08v5.34c0.7-0.84,1.69-1.26,2.97-1.26c0.62,0,1.189,0.1,1.711,0.3
		c0.52,0.2,0.969,0.505,1.35,0.915c0.379,0.41,0.68,0.925,0.9,1.545c0.219,0.62,0.329,1.35,0.329,2.189v10.11
		c0,0.72-0.36,1.08-1.079,1.08h-1.08c-0.721,0-1.08-0.36-1.08-1.08v-9.54c0-0.96-0.195-1.614-0.586-1.965
		c-0.39-0.35-0.865-0.525-1.425-0.525s-1.034,0.176-1.425,0.525c-0.391,0.351-0.585,1.005-0.585,1.965V52.081z"/>
	<path class="st0" d="M374.056,48.781c0-0.62,0.31-0.93,0.93-0.93h1.23c0.719,0,1.08,0.359,1.08,1.079
		c0,1.36-0.466,2.461-1.396,3.301c-0.931,0.84-2.165,1.26-3.705,1.26c-0.761,0-1.46-0.11-2.101-0.33
		c-0.64-0.22-1.189-0.55-1.649-0.99c-0.46-0.439-0.825-0.994-1.095-1.665c-0.271-0.67-0.405-1.444-0.405-2.325v-5.85
		c0-0.88,0.135-1.654,0.405-2.325c0.27-0.67,0.635-1.225,1.095-1.665c0.46-0.439,1.01-0.77,1.649-0.989
		c0.641-0.221,1.34-0.33,2.101-0.33c0.739,0,1.435,0.109,2.085,0.33c0.649,0.22,1.205,0.55,1.665,0.989
		c0.46,0.44,0.825,0.995,1.095,1.665c0.27,0.671,0.405,1.445,0.405,2.325v2.55c0,0.721-0.36,1.08-1.08,1.08h-6.181v2.01
		c0,0.96,0.195,1.616,0.586,1.966c0.39,0.35,0.865,0.524,1.425,0.524c0.579,0,1.034-0.149,1.364-0.45
		C373.89,49.711,374.056,49.302,374.056,48.781z M370.185,43.531h4.021v-0.99c0-0.96-0.194-1.614-0.585-1.965
		c-0.391-0.35-0.865-0.525-1.425-0.525s-1.035,0.176-1.425,0.525c-0.391,0.351-0.586,1.005-0.586,1.965V43.531z"/>
	<path class="st0" d="M385.365,50.251c0.159,0,0.295-0.005,0.405-0.015c0.109-0.01,0.255-0.035,0.435-0.075
		c0.36-0.06,0.63,0.011,0.81,0.21c0.181,0.2,0.271,0.48,0.271,0.84v0.87c0,0.36-0.085,0.615-0.255,0.765
		c-0.17,0.15-0.405,0.256-0.705,0.315c-0.28,0.06-0.545,0.095-0.795,0.105c-0.25,0.01-0.485,0.015-0.705,0.015
		c-0.58,0-1.105-0.07-1.575-0.21s-0.875-0.37-1.215-0.69c-0.341-0.319-0.601-0.744-0.78-1.274s-0.27-1.175-0.27-1.936V32.941
		c0-0.721,0.359-1.08,1.08-1.08h1.08c0.72,0,1.08,0.359,1.08,1.08v15.989c0,0.521,0.119,0.87,0.359,1.051
		C384.825,50.161,385.085,50.251,385.365,50.251z"/>
	<path class="st0" d="M400.124,48.541c0,0.84-0.109,1.57-0.33,2.19c-0.22,0.62-0.52,1.135-0.899,1.545s-0.83,0.715-1.351,0.915
		c-0.52,0.199-1.09,0.3-1.709,0.3c-1.281,0-2.271-0.42-2.971-1.26v4.92c0,0.72-0.359,1.08-1.08,1.08h-1.08
		c-0.72,0-1.08-0.36-1.08-1.08v-14.82c0-0.9,0.136-1.685,0.406-2.354c0.27-0.67,0.634-1.22,1.094-1.65
		c0.461-0.43,1.01-0.755,1.65-0.975c0.641-0.221,1.34-0.33,2.1-0.33c0.74,0,1.436,0.109,2.086,0.33
		c0.649,0.22,1.204,0.545,1.664,0.975c0.461,0.431,0.826,0.98,1.096,1.65s0.404,1.454,0.404,2.354V48.541z M396.885,42.541
		c0-0.96-0.195-1.614-0.585-1.965c-0.391-0.35-0.865-0.525-1.426-0.525c-0.56,0-1.035,0.176-1.424,0.525
		c-0.391,0.351-0.586,1.005-0.586,1.965v5.43c0,0.96,0.195,1.616,0.586,1.966c0.389,0.35,0.864,0.524,1.424,0.524
		c0.561,0,1.035-0.175,1.426-0.524c0.39-0.35,0.585-1.006,0.585-1.966V42.541z"/>
	<path class="st0" d="M410.474,33.241c0-0.72,0.36-1.08,1.08-1.08h1.08c0.721,0,1.08,0.36,1.08,1.08v1.02
		c0,0.721-0.359,1.08-1.08,1.08h-1.08c-0.72,0-1.08-0.359-1.08-1.08V33.241z M410.474,38.431c0-0.72,0.36-1.079,1.08-1.079h1.08
		c0.721,0,1.08,0.359,1.08,1.079v13.65c0,0.72-0.359,1.08-1.08,1.08h-1.08c-0.72,0-1.08-0.36-1.08-1.08V38.431z"/>
	<path class="st0" d="M434.953,52.081c0,0.72-0.36,1.08-1.08,1.08h-1.08c-0.72,0-1.079-0.36-1.079-1.08v-9.689
		c0-0.9-0.186-1.516-0.556-1.846s-0.815-0.495-1.335-0.495c-0.521,0-0.965,0.165-1.335,0.495s-0.556,0.945-0.556,1.846v9.689
		c0,0.72-0.359,1.08-1.08,1.08h-1.079c-0.72,0-1.08-0.36-1.08-1.08v-9.689c0-0.9-0.186-1.516-0.556-1.846
		c-0.369-0.33-0.814-0.495-1.334-0.495c-0.521,0-0.966,0.165-1.336,0.495s-0.555,0.945-0.555,1.846v9.689
		c0,0.72-0.359,1.08-1.08,1.08h-1.08c-0.72,0-1.08-0.36-1.08-1.08v-10.29c0-0.8,0.12-1.495,0.36-2.085s0.569-1.085,0.99-1.485
		c0.42-0.399,0.915-0.699,1.485-0.899c0.569-0.2,1.194-0.3,1.875-0.3c0.899,0,1.684,0.194,2.354,0.585
		c0.67,0.39,1.194,0.944,1.575,1.665c0.379-0.721,0.904-1.275,1.574-1.665c0.67-0.391,1.455-0.585,2.355-0.585
		c0.68,0,1.305,0.1,1.875,0.3s1.064,0.5,1.484,0.899c0.421,0.4,0.75,0.896,0.99,1.485s0.36,1.285,0.36,2.085V52.081z"/>
	<path class="st0" d="M456.013,52.081c0,0.72-0.359,1.08-1.08,1.08h-1.08c-0.719,0-1.079-0.36-1.079-1.08v-9.689
		c0-0.9-0.186-1.516-0.556-1.846c-0.369-0.33-0.814-0.495-1.334-0.495c-0.521,0-0.966,0.165-1.336,0.495s-0.555,0.945-0.555,1.846
		v9.689c0,0.72-0.359,1.08-1.08,1.08h-1.08c-0.72,0-1.08-0.36-1.08-1.08v-9.689c0-0.9-0.186-1.516-0.555-1.846
		c-0.37-0.33-0.814-0.495-1.335-0.495s-0.966,0.165-1.335,0.495c-0.371,0.33-0.555,0.945-0.555,1.846v9.689
		c0,0.72-0.36,1.08-1.08,1.08h-1.08c-0.721,0-1.08-0.36-1.08-1.08v-10.29c0-0.8,0.119-1.495,0.359-2.085s0.57-1.085,0.99-1.485
		c0.42-0.399,0.915-0.699,1.485-0.899c0.569-0.2,1.194-0.3,1.875-0.3c0.899,0,1.685,0.194,2.354,0.585
		c0.67,0.39,1.195,0.944,1.575,1.665c0.38-0.721,0.905-1.275,1.575-1.665c0.67-0.391,1.455-0.585,2.355-0.585
		c0.68,0,1.305,0.1,1.875,0.3c0.569,0.2,1.064,0.5,1.484,0.899c0.42,0.4,0.75,0.896,0.99,1.485s0.359,1.285,0.359,2.085V52.081z"/>
	<path class="st0" d="M459.974,33.241c0-0.72,0.359-1.08,1.08-1.08h1.08c0.72,0,1.08,0.36,1.08,1.08v1.02
		c0,0.721-0.36,1.08-1.08,1.08h-1.08c-0.721,0-1.08-0.359-1.08-1.08V33.241z M459.974,38.431c0-0.72,0.359-1.079,1.08-1.079h1.08
		c0.72,0,1.08,0.359,1.08,1.079v13.65c0,0.72-0.36,1.08-1.08,1.08h-1.08c-0.721,0-1.08-0.36-1.08-1.08V38.431z"/>
	<path class="st0" d="M474.133,50.671c-0.7,0.84-1.69,1.26-2.97,1.26c-1.24,0-2.266-0.404-3.075-1.215
		c-0.81-0.81-1.216-2.055-1.216-3.734v-4.65c0-0.88,0.136-1.654,0.406-2.325c0.27-0.67,0.635-1.225,1.094-1.665
		c0.461-0.439,1.01-0.77,1.65-0.989c0.641-0.221,1.34-0.33,2.1-0.33c0.74,0,1.436,0.109,2.086,0.33
		c0.649,0.22,1.205,0.55,1.664,0.989c0.461,0.44,0.826,0.995,1.096,1.665c0.27,0.671,0.404,1.445,0.404,2.325v11.07
		c0,0.88-0.135,1.645-0.404,2.295c-0.27,0.649-0.635,1.185-1.096,1.604c-0.459,0.42-1.015,0.735-1.664,0.945
		c-0.65,0.21-1.346,0.315-2.086,0.315c-0.799,0-1.514-0.115-2.145-0.346c-0.63-0.229-1.165-0.54-1.605-0.93
		c-0.439-0.39-0.775-0.845-1.004-1.365c-0.23-0.521-0.346-1.08-0.346-1.68c0-0.72,0.36-1.08,1.08-1.08h1.23
		c0.619,0,0.93,0.31,0.93,0.93c0,0.44,0.15,0.815,0.45,1.125c0.3,0.311,0.77,0.465,1.409,0.465c0.561,0,1.035-0.149,1.426-0.449
		c0.39-0.301,0.585-0.931,0.585-1.891V50.671z M474.133,42.541c0-0.96-0.195-1.614-0.585-1.965c-0.391-0.35-0.865-0.525-1.426-0.525
		c-0.56,0-1.034,0.176-1.424,0.525c-0.391,0.351-0.586,1.005-0.586,1.965v3.87c0,0.96,0.195,1.615,0.586,1.965
		c0.39,0.351,0.864,0.525,1.424,0.525c0.561,0,1.035-0.175,1.426-0.525c0.39-0.35,0.585-1.005,0.585-1.965V42.541z"/>
	<path class="st0" d="M486.343,40.231c-0.701,0-1.201,0.14-1.5,0.42c-0.301,0.28-0.451,0.77-0.451,1.47v9.96
		c0,0.72-0.359,1.08-1.08,1.08h-1.079c-0.72,0-1.08-0.36-1.08-1.08v-10.2c0-1.72,0.415-2.93,1.245-3.63
		c0.83-0.699,1.994-1.05,3.494-1.05c0.221,0,0.455,0.005,0.705,0.015c0.25,0.011,0.525,0.045,0.826,0.105
		c0.279,0.06,0.504,0.165,0.674,0.314c0.17,0.15,0.256,0.405,0.256,0.766v0.87c0,0.359-0.09,0.64-0.271,0.84
		c-0.18,0.2-0.45,0.27-0.81,0.21C486.912,40.261,486.603,40.231,486.343,40.231z"/>
	<path class="st0" d="M500.622,48.181c0,0.881-0.135,1.655-0.405,2.325c-0.271,0.671-0.635,1.226-1.095,1.665
		c-0.461,0.44-1.016,0.771-1.665,0.99c-0.65,0.22-1.345,0.33-2.085,0.33c-0.76,0-1.461-0.11-2.1-0.33
		c-0.641-0.22-1.195-0.529-1.666-0.93c-0.47-0.4-0.835-0.896-1.094-1.485c-0.261-0.59-0.391-1.265-0.391-2.025v-0.06
		c0-1.5,0.449-2.67,1.35-3.51s2.2-1.26,3.9-1.26h2.01v-1.351c0-0.96-0.195-1.614-0.585-1.965c-0.39-0.35-0.865-0.525-1.425-0.525
		c-0.58,0-1.01,0.155-1.29,0.466c-0.28,0.31-0.42,0.685-0.42,1.125c0,0.62-0.311,0.93-0.931,0.93h-1.229
		c-0.72,0-1.08-0.36-1.08-1.08c0-0.64,0.114-1.23,0.345-1.771s0.561-1.009,0.99-1.409s0.949-0.715,1.561-0.945
		c0.609-0.229,1.295-0.345,2.055-0.345c0.74,0,1.435,0.109,2.085,0.33c0.649,0.22,1.204,0.55,1.665,0.989
		c0.46,0.44,0.824,0.995,1.095,1.665c0.271,0.671,0.405,1.445,0.405,2.325V48.181z M495.372,50.461c0.56,0,1.035-0.175,1.425-0.524
		s0.585-1.006,0.585-1.966v-1.649h-2.01c-0.561,0-1.035,0.155-1.426,0.465c-0.389,0.311-0.584,0.845-0.584,1.605
		c0,0.76,0.195,1.295,0.584,1.604C494.337,50.307,494.812,50.461,495.372,50.461z"/>
	<path class="st0" d="M513.552,53.161h-1.08c-0.721,0-1.08-0.36-1.08-1.08v-9.54c0-0.96-0.195-1.614-0.585-1.965
		c-0.39-0.35-0.865-0.525-1.425-0.525c-0.561,0-1.035,0.176-1.426,0.525c-0.389,0.351-0.584,1.005-0.584,1.965v9.54
		c0,0.72-0.36,1.08-1.08,1.08h-1.08c-0.721,0-1.08-0.36-1.08-1.08v-9.75c0-0.88,0.135-1.654,0.404-2.325
		c0.271-0.67,0.635-1.225,1.096-1.665c0.459-0.439,1.01-0.77,1.65-0.989c0.639-0.221,1.34-0.33,2.1-0.33
		c0.74,0,1.435,0.109,2.085,0.33c0.649,0.22,1.204,0.55,1.665,0.989c0.459,0.44,0.824,0.995,1.095,1.665
		c0.271,0.671,0.405,1.445,0.405,2.325v9.75C514.632,52.801,514.272,53.161,513.552,53.161z"/>
	<path class="st0" d="M524.411,53.161c-0.3,0.06-0.574,0.095-0.824,0.105c-0.251,0.01-0.485,0.015-0.705,0.015
		c-1.44,0-2.541-0.335-3.301-1.005s-1.14-1.815-1.14-3.436V34.562c0-0.721,0.36-1.08,1.08-1.08h1.08c0.72,0,1.08,0.359,1.08,1.08
		v2.79h2.58c0.72,0,1.079,0.359,1.079,1.079v0.87c0,0.721-0.359,1.08-1.079,1.08h-2.58v8.221c0,0.62,0.12,1.05,0.36,1.29
		c0.239,0.239,0.67,0.359,1.289,0.359c0.26,0,0.57-0.03,0.931-0.09s0.63,0.011,0.81,0.21c0.18,0.2,0.27,0.48,0.27,0.84v0.87
		c0,0.36-0.084,0.615-0.254,0.765C524.917,52.996,524.691,53.102,524.411,53.161z"/>
	<path class="st0" d="M534.401,41.431c0-0.439-0.15-0.779-0.45-1.02s-0.71-0.36-1.229-0.36c-0.521,0-0.93,0.12-1.23,0.36
		c-0.3,0.24-0.449,0.62-0.449,1.14v0.061c0,0.521,0.169,0.93,0.51,1.229c0.34,0.301,0.76,0.565,1.26,0.795
		c0.5,0.23,1.05,0.461,1.65,0.69c0.6,0.23,1.149,0.53,1.649,0.9c0.499,0.37,0.919,0.85,1.26,1.439
		c0.34,0.59,0.511,1.365,0.511,2.325c0,0.72-0.131,1.36-0.391,1.92c-0.26,0.561-0.615,1.03-1.064,1.41
		c-0.451,0.38-0.99,0.67-1.621,0.87c-0.629,0.199-1.314,0.3-2.055,0.3c-0.76,0-1.45-0.11-2.07-0.33
		c-0.619-0.22-1.154-0.515-1.604-0.885s-0.8-0.814-1.05-1.335s-0.375-1.08-0.375-1.681v-0.18c0-0.72,0.359-1.08,1.08-1.08h1.23
		c0.619,0,0.93,0.311,0.93,0.93c0,0.521,0.17,0.905,0.51,1.155c0.34,0.251,0.789,0.375,1.35,0.375s1.016-0.12,1.365-0.359
		c0.35-0.24,0.525-0.65,0.525-1.23v-0.06c0-0.521-0.17-0.925-0.51-1.216c-0.341-0.289-0.761-0.544-1.261-0.765
		c-0.5-0.22-1.05-0.439-1.649-0.66c-0.601-0.22-1.15-0.515-1.65-0.885s-0.92-0.845-1.26-1.425s-0.51-1.351-0.51-2.311
		c0-1.439,0.454-2.555,1.365-3.345c0.909-0.79,2.094-1.185,3.555-1.185c0.739,0,1.41,0.109,2.01,0.33
		c0.6,0.22,1.115,0.524,1.545,0.915c0.43,0.39,0.766,0.84,1.005,1.35c0.24,0.51,0.36,1.064,0.36,1.665c0,0.72-0.36,1.08-1.08,1.08
		h-1.23C534.711,42.361,534.401,42.052,534.401,41.431z"/>
	<path class="st0" d="M59.11,89.161c-0.3,0.06-0.575,0.095-0.825,0.105c-0.25,0.01-0.485,0.015-0.705,0.015
		c-1.44,0-2.54-0.335-3.3-1.005c-0.76-0.67-1.14-1.815-1.14-3.436V70.562c0-0.721,0.36-1.08,1.08-1.08h1.08
		c0.72,0,1.08,0.359,1.08,1.08v2.79h2.58c0.72,0,1.08,0.359,1.08,1.079v0.87c0,0.721-0.36,1.08-1.08,1.08h-2.58v8.221
		c0,0.62,0.12,1.05,0.36,1.29c0.24,0.239,0.67,0.359,1.29,0.359c0.26,0,0.57-0.03,0.93-0.09c0.36-0.06,0.63,0.011,0.811,0.21
		c0.18,0.2,0.27,0.48,0.27,0.84v0.87c0,0.36-0.085,0.615-0.255,0.765C59.615,88.996,59.39,89.102,59.11,89.161z"/>
	<path class="st0" d="M73.12,84.181c0,0.9-0.135,1.686-0.405,2.355c-0.27,0.67-0.635,1.22-1.095,1.65
		c-0.46,0.43-1.016,0.755-1.665,0.975c-0.65,0.22-1.346,0.33-2.085,0.33c-0.761,0-1.46-0.11-2.1-0.33s-1.19-0.545-1.65-0.975
		c-0.46-0.431-0.825-0.98-1.095-1.65s-0.405-1.455-0.405-2.355v-5.85c0-0.88,0.135-1.654,0.405-2.325
		c0.27-0.67,0.635-1.225,1.095-1.665c0.46-0.439,1.01-0.77,1.65-0.989c0.64-0.221,1.339-0.33,2.1-0.33
		c0.739,0,1.435,0.109,2.085,0.33c0.649,0.22,1.205,0.55,1.665,0.989c0.46,0.44,0.825,0.995,1.095,1.665
		c0.271,0.671,0.405,1.445,0.405,2.325V84.181z M69.88,78.541c0-0.96-0.195-1.614-0.585-1.965c-0.39-0.35-0.865-0.525-1.425-0.525
		c-0.561,0-1.035,0.176-1.425,0.525c-0.391,0.351-0.585,1.005-0.585,1.965v5.43c0,0.96,0.194,1.616,0.585,1.966
		c0.39,0.35,0.864,0.524,1.425,0.524c0.56,0,1.035-0.175,1.425-0.524c0.39-0.35,0.585-1.006,0.585-1.966V78.541z"/>
	<path class="st0" d="M86.259,83.971c0,0.96,0.195,1.616,0.585,1.966s0.865,0.524,1.425,0.524c0.58,0,1.035-0.18,1.365-0.54
		c0.33-0.359,0.495-0.84,0.495-1.439c0-0.62,0.31-0.931,0.93-0.931h1.23c0.72,0,1.08,0.36,1.08,1.08c0,0.74-0.125,1.41-0.375,2.011
		c-0.25,0.6-0.6,1.109-1.05,1.529s-0.99,0.745-1.62,0.976c-0.63,0.229-1.315,0.345-2.055,0.345c-0.761,0-1.46-0.11-2.101-0.33
		s-1.19-0.55-1.649-0.99c-0.461-0.439-0.825-0.994-1.096-1.665c-0.27-0.67-0.404-1.444-0.404-2.325v-5.85
		c0-0.88,0.135-1.654,0.404-2.325c0.271-0.67,0.635-1.225,1.096-1.665c0.459-0.439,1.009-0.77,1.649-0.989
		c0.64-0.221,1.34-0.33,2.101-0.33c0.739,0,1.425,0.115,2.055,0.345c0.63,0.23,1.17,0.555,1.62,0.975s0.8,0.931,1.05,1.53
		s0.375,1.271,0.375,2.01c0,0.721-0.36,1.08-1.08,1.08h-1.23c-0.62,0-0.93-0.31-0.93-0.93c0-0.601-0.165-1.08-0.495-1.44
		c-0.33-0.359-0.785-0.54-1.365-0.54c-0.561,0-1.035,0.176-1.425,0.525c-0.39,0.351-0.585,1.005-0.585,1.965V83.971z"/>
	<path class="st0" d="M106.839,84.181c0,0.9-0.135,1.686-0.405,2.355c-0.27,0.67-0.635,1.22-1.095,1.65
		c-0.46,0.43-1.016,0.755-1.665,0.975c-0.65,0.22-1.346,0.33-2.085,0.33c-0.761,0-1.46-0.11-2.1-0.33s-1.19-0.545-1.65-0.975
		c-0.46-0.431-0.825-0.98-1.095-1.65s-0.405-1.455-0.405-2.355v-5.85c0-0.88,0.135-1.654,0.405-2.325
		c0.27-0.67,0.635-1.225,1.095-1.665c0.46-0.439,1.01-0.77,1.65-0.989c0.64-0.221,1.339-0.33,2.1-0.33
		c0.739,0,1.435,0.109,2.085,0.33c0.649,0.22,1.205,0.55,1.665,0.989c0.46,0.44,0.825,0.995,1.095,1.665
		c0.271,0.671,0.405,1.445,0.405,2.325V84.181z M103.599,78.541c0-0.96-0.195-1.614-0.585-1.965c-0.39-0.35-0.865-0.525-1.425-0.525
		c-0.561,0-1.035,0.176-1.425,0.525c-0.391,0.351-0.585,1.005-0.585,1.965v5.43c0,0.96,0.194,1.616,0.585,1.966
		c0.39,0.35,0.864,0.524,1.425,0.524c0.56,0,1.035-0.175,1.425-0.524c0.39-0.35,0.585-1.006,0.585-1.966V78.541z"/>
	<path class="st0" d="M127.628,88.081c0,0.72-0.36,1.08-1.08,1.08h-1.08c-0.72,0-1.08-0.36-1.08-1.08v-9.689
		c0-0.9-0.186-1.516-0.555-1.846c-0.371-0.33-0.815-0.495-1.335-0.495s-0.965,0.165-1.335,0.495
		c-0.371,0.33-0.555,0.945-0.555,1.846v9.689c0,0.72-0.36,1.08-1.08,1.08h-1.08c-0.72,0-1.08-0.36-1.08-1.08v-9.689
		c0-0.9-0.185-1.516-0.555-1.846s-0.815-0.495-1.335-0.495c-0.521,0-0.965,0.165-1.335,0.495s-0.555,0.945-0.555,1.846v9.689
		c0,0.72-0.36,1.08-1.08,1.08h-1.08c-0.72,0-1.08-0.36-1.08-1.08v-10.29c0-0.8,0.12-1.495,0.36-2.085s0.57-1.085,0.99-1.485
		c0.42-0.399,0.915-0.699,1.485-0.899c0.57-0.2,1.195-0.3,1.875-0.3c0.9,0,1.685,0.194,2.355,0.585
		c0.669,0.39,1.195,0.944,1.575,1.665c0.38-0.721,0.905-1.275,1.575-1.665c0.67-0.391,1.455-0.585,2.355-0.585
		c0.68,0,1.305,0.1,1.875,0.3s1.065,0.5,1.485,0.899c0.42,0.4,0.75,0.896,0.99,1.485s0.36,1.285,0.36,2.085V88.081z"/>
	<path class="st0" d="M138.248,84.781c0-0.62,0.31-0.93,0.93-0.93h1.23c0.72,0,1.08,0.359,1.08,1.079
		c0,1.36-0.465,2.461-1.395,3.301s-2.165,1.26-3.705,1.26c-0.761,0-1.46-0.11-2.101-0.33s-1.19-0.55-1.649-0.99
		c-0.461-0.439-0.825-0.994-1.096-1.665c-0.27-0.67-0.404-1.444-0.404-2.325v-5.85c0-0.88,0.135-1.654,0.404-2.325
		c0.271-0.67,0.635-1.225,1.096-1.665c0.459-0.439,1.009-0.77,1.649-0.989c0.64-0.221,1.34-0.33,2.101-0.33
		c0.739,0,1.435,0.109,2.085,0.33c0.649,0.22,1.204,0.55,1.665,0.989c0.459,0.44,0.825,0.995,1.095,1.665
		c0.27,0.671,0.405,1.445,0.405,2.325v2.55c0,0.721-0.36,1.08-1.08,1.08h-6.18v2.01c0,0.96,0.195,1.616,0.585,1.966
		s0.865,0.524,1.425,0.524c0.58,0,1.035-0.149,1.365-0.45C138.083,85.711,138.248,85.302,138.248,84.781z M134.378,79.531h4.02
		v-0.99c0-0.96-0.195-1.614-0.585-1.965c-0.39-0.35-0.865-0.525-1.425-0.525c-0.561,0-1.035,0.176-1.425,0.525
		c-0.39,0.351-0.585,1.005-0.585,1.965V79.531z"/>
	<path class="st0" d="M161.737,84.181c0,0.881-0.135,1.655-0.405,2.325c-0.27,0.671-0.635,1.226-1.095,1.665
		c-0.46,0.44-1.015,0.771-1.665,0.99s-1.345,0.33-2.085,0.33c-0.76,0-1.46-0.11-2.1-0.33c-0.641-0.22-1.195-0.529-1.665-0.93
		c-0.471-0.4-0.835-0.896-1.095-1.485c-0.26-0.59-0.39-1.265-0.39-2.025v-0.06c0-1.5,0.45-2.67,1.35-3.51s2.2-1.26,3.9-1.26h2.01
		v-1.351c0-0.96-0.195-1.614-0.585-1.965c-0.39-0.35-0.865-0.525-1.425-0.525c-0.58,0-1.01,0.155-1.29,0.466
		c-0.28,0.31-0.42,0.685-0.42,1.125c0,0.62-0.311,0.93-0.93,0.93h-1.23c-0.72,0-1.08-0.36-1.08-1.08c0-0.64,0.115-1.23,0.346-1.771
		c0.229-0.54,0.56-1.009,0.99-1.409c0.43-0.4,0.95-0.715,1.56-0.945c0.609-0.229,1.294-0.345,2.055-0.345
		c0.74,0,1.435,0.109,2.085,0.33c0.65,0.22,1.205,0.55,1.665,0.989c0.46,0.44,0.825,0.995,1.095,1.665
		c0.27,0.671,0.405,1.445,0.405,2.325V84.181z M156.487,86.461c0.56,0,1.035-0.175,1.425-0.524c0.391-0.35,0.585-1.006,0.585-1.966
		v-1.649h-2.01c-0.56,0-1.035,0.155-1.425,0.465c-0.39,0.311-0.585,0.845-0.585,1.605c0,0.76,0.195,1.295,0.585,1.604
		C155.452,86.307,155.927,86.461,156.487,86.461z"/>
	<path class="st0" d="M174.667,89.161h-1.08c-0.72,0-1.08-0.36-1.08-1.08v-9.54c0-0.96-0.194-1.614-0.585-1.965
		c-0.39-0.35-0.865-0.525-1.425-0.525s-1.035,0.176-1.425,0.525c-0.39,0.351-0.585,1.005-0.585,1.965v9.54
		c0,0.72-0.36,1.08-1.08,1.08h-1.08c-0.72,0-1.08-0.36-1.08-1.08v-9.75c0-0.88,0.135-1.654,0.405-2.325
		c0.27-0.67,0.635-1.225,1.095-1.665c0.46-0.439,1.01-0.77,1.65-0.989c0.64-0.221,1.34-0.33,2.1-0.33c0.74,0,1.435,0.109,2.085,0.33
		c0.649,0.22,1.205,0.55,1.665,0.989c0.46,0.44,0.825,0.995,1.095,1.665c0.271,0.671,0.405,1.445,0.405,2.325v9.75
		C175.747,88.801,175.387,89.161,174.667,89.161z"/>
	<path class="st0" d="M179.257,77.971c0-1.68,0.405-2.925,1.215-3.734c0.81-0.811,1.835-1.215,3.075-1.215
		c0.6,0,1.155,0.1,1.665,0.3c0.51,0.2,0.945,0.521,1.305,0.96v-5.34c0-0.721,0.36-1.08,1.08-1.08h1.08c0.72,0,1.08,0.359,1.08,1.08
		v15.239c0,0.9-0.135,1.686-0.405,2.355s-0.635,1.22-1.095,1.65c-0.46,0.43-1.016,0.755-1.665,0.975
		c-0.65,0.22-1.345,0.33-2.085,0.33c-0.76,0-1.46-0.11-2.1-0.33c-0.64-0.22-1.19-0.545-1.65-0.975
		c-0.46-0.431-0.825-0.98-1.095-1.65s-0.405-1.455-0.405-2.355V77.971z M182.497,83.971c0,0.96,0.195,1.616,0.585,1.966
		c0.39,0.35,0.865,0.524,1.425,0.524c0.56,0,1.035-0.175,1.425-0.524s0.585-1.006,0.585-1.966v-5.43c0-0.96-0.195-1.614-0.585-1.965
		c-0.39-0.35-0.865-0.525-1.425-0.525c-0.56,0-1.035,0.176-1.425,0.525c-0.39,0.351-0.585,1.005-0.585,1.965V83.971z"/>
	<path class="st0" d="M203.497,74.281c0.7-0.84,1.689-1.26,2.97-1.26c0.62,0,1.19,0.1,1.71,0.3s0.97,0.505,1.35,0.915
		s0.68,0.925,0.9,1.545s0.33,1.35,0.33,2.189v6.21c0,0.9-0.135,1.686-0.405,2.355s-0.635,1.22-1.095,1.65
		c-0.46,0.43-1.015,0.755-1.665,0.975s-1.345,0.33-2.085,0.33c-0.76,0-1.46-0.11-2.1-0.33s-1.19-0.545-1.65-0.975
		c-0.46-0.431-0.825-0.98-1.095-1.65s-0.405-1.455-0.405-2.355V68.941c0-0.721,0.36-1.08,1.08-1.08h1.08
		c0.72,0,1.08,0.359,1.08,1.08V74.281z M203.497,83.971c0,0.96,0.195,1.616,0.585,1.966c0.39,0.35,0.865,0.524,1.425,0.524
		c0.56,0,1.035-0.175,1.425-0.524c0.39-0.35,0.585-1.006,0.585-1.966v-5.43c0-0.96-0.195-1.614-0.585-1.965
		c-0.39-0.35-0.866-0.525-1.425-0.525c-0.56,0-1.035,0.176-1.425,0.525c-0.39,0.351-0.585,1.005-0.585,1.965V83.971z"/>
	<path class="st0" d="M219.456,76.231c-0.7,0-1.2,0.14-1.5,0.42c-0.3,0.28-0.45,0.77-0.45,1.47v9.96c0,0.72-0.36,1.08-1.08,1.08
		h-1.08c-0.72,0-1.08-0.36-1.08-1.08v-10.2c0-1.72,0.415-2.93,1.245-3.63c0.83-0.699,1.995-1.05,3.495-1.05
		c0.22,0,0.455,0.005,0.705,0.015c0.25,0.011,0.525,0.045,0.825,0.105c0.28,0.06,0.505,0.165,0.675,0.314
		c0.17,0.15,0.255,0.405,0.255,0.766v0.87c0,0.359-0.09,0.64-0.27,0.84c-0.18,0.2-0.45,0.27-0.81,0.21
		C220.026,76.261,219.716,76.231,219.456,76.231z"/>
	<path class="st0" d="M223.956,69.241c0-0.72,0.36-1.08,1.08-1.08h1.08c0.72,0,1.08,0.36,1.08,1.08v1.02
		c0,0.721-0.36,1.08-1.08,1.08h-1.08c-0.72,0-1.08-0.359-1.08-1.08V69.241z M223.956,74.431c0-0.72,0.36-1.079,1.08-1.079h1.08
		c0.72,0,1.08,0.359,1.08,1.079v13.65c0,0.72-0.36,1.08-1.08,1.08h-1.08c-0.72,0-1.08-0.36-1.08-1.08V74.431z"/>
	<path class="st0" d="M240.575,89.161h-1.08c-0.72,0-1.08-0.36-1.08-1.08v-9.54c0-0.96-0.195-1.614-0.585-1.965
		c-0.39-0.35-0.865-0.525-1.425-0.525c-0.56,0-1.035,0.176-1.425,0.525c-0.39,0.351-0.585,1.005-0.585,1.965v9.54
		c0,0.72-0.36,1.08-1.08,1.08h-1.08c-0.72,0-1.08-0.36-1.08-1.08v-9.75c0-0.88,0.135-1.654,0.405-2.325
		c0.27-0.67,0.635-1.225,1.095-1.665c0.459-0.439,1.01-0.77,1.65-0.989c0.64-0.221,1.34-0.33,2.1-0.33
		c0.74,0,1.435,0.109,2.085,0.33c0.649,0.22,1.205,0.55,1.665,0.989c0.459,0.44,0.825,0.995,1.095,1.665
		c0.27,0.671,0.405,1.445,0.405,2.325v9.75C241.655,88.801,241.295,89.161,240.575,89.161z"/>
	<path class="st0" d="M252.395,86.671c-0.7,0.84-1.69,1.26-2.97,1.26c-1.24,0-2.265-0.404-3.075-1.215
		c-0.81-0.81-1.215-2.055-1.215-3.734v-4.65c0-0.88,0.135-1.654,0.405-2.325c0.27-0.67,0.635-1.225,1.095-1.665
		c0.46-0.439,1.01-0.77,1.65-0.989c0.64-0.221,1.339-0.33,2.1-0.33c0.74,0,1.435,0.109,2.085,0.33c0.65,0.22,1.205,0.55,1.665,0.989
		c0.46,0.44,0.825,0.995,1.095,1.665c0.27,0.671,0.405,1.445,0.405,2.325v11.07c0,0.88-0.135,1.645-0.405,2.295
		c-0.27,0.649-0.635,1.185-1.095,1.604s-1.015,0.735-1.665,0.945s-1.345,0.315-2.085,0.315c-0.8,0-1.515-0.115-2.145-0.346
		c-0.63-0.229-1.165-0.54-1.605-0.93s-0.775-0.845-1.005-1.365c-0.23-0.521-0.345-1.08-0.345-1.68c0-0.72,0.36-1.08,1.08-1.08h1.23
		c0.62,0,0.93,0.31,0.93,0.93c0,0.44,0.15,0.815,0.45,1.125c0.3,0.311,0.77,0.465,1.41,0.465c0.56,0,1.035-0.149,1.425-0.449
		c0.39-0.301,0.585-0.931,0.585-1.891V86.671z M252.395,78.541c0-0.96-0.195-1.614-0.585-1.965c-0.39-0.35-0.865-0.525-1.425-0.525
		s-1.035,0.176-1.425,0.525c-0.39,0.351-0.585,1.005-0.585,1.965v3.87c0,0.96,0.195,1.615,0.585,1.965
		c0.39,0.351,0.865,0.525,1.425,0.525s1.035-0.175,1.425-0.525c0.39-0.35,0.585-1.005,0.585-1.965V78.541z"/>
	<path class="st0" d="M272.074,89.161c-0.3,0.06-0.575,0.095-0.825,0.105c-0.25,0.01-0.485,0.015-0.705,0.015
		c-1.44,0-2.54-0.335-3.3-1.005c-0.76-0.67-1.14-1.815-1.14-3.436V70.562c0-0.721,0.36-1.08,1.08-1.08h1.08
		c0.72,0,1.08,0.359,1.08,1.08v2.79h2.58c0.72,0,1.08,0.359,1.08,1.079v0.87c0,0.721-0.36,1.08-1.08,1.08h-2.58v8.221
		c0,0.62,0.12,1.05,0.36,1.29c0.24,0.239,0.67,0.359,1.29,0.359c0.26,0,0.57-0.03,0.93-0.09c0.36-0.06,0.63,0.011,0.81,0.21
		c0.18,0.2,0.27,0.48,0.27,0.84v0.87c0,0.36-0.085,0.615-0.255,0.765C272.579,88.996,272.354,89.102,272.074,89.161z"/>
	<path class="st0" d="M279.274,88.081c0,0.72-0.36,1.08-1.08,1.08h-1.08c-0.72,0-1.08-0.36-1.08-1.08v-19.14
		c0-0.721,0.36-1.08,1.08-1.08h1.08c0.72,0,1.08,0.359,1.08,1.08v5.34c0.7-0.84,1.69-1.26,2.97-1.26c0.62,0,1.19,0.1,1.71,0.3
		c0.52,0.2,0.97,0.505,1.35,0.915s0.68,0.925,0.9,1.545c0.22,0.62,0.33,1.35,0.33,2.189v10.11c0,0.72-0.36,1.08-1.08,1.08h-1.08
		c-0.72,0-1.08-0.36-1.08-1.08v-9.54c0-0.96-0.195-1.614-0.585-1.965c-0.39-0.35-0.865-0.525-1.425-0.525s-1.035,0.176-1.425,0.525
		c-0.39,0.351-0.585,1.005-0.585,1.965V88.081z"/>
	<path class="st0" d="M297.153,84.781c0-0.62,0.311-0.93,0.931-0.93h1.229c0.721,0,1.08,0.359,1.08,1.079
		c0,1.36-0.465,2.461-1.395,3.301s-2.166,1.26-3.705,1.26c-0.76,0-1.461-0.11-2.1-0.33c-0.641-0.22-1.19-0.55-1.65-0.99
		c-0.46-0.439-0.825-0.994-1.095-1.665c-0.27-0.67-0.405-1.444-0.405-2.325v-5.85c0-0.88,0.135-1.654,0.405-2.325
		c0.27-0.67,0.635-1.225,1.095-1.665c0.46-0.439,1.01-0.77,1.65-0.989c0.639-0.221,1.34-0.33,2.1-0.33
		c0.74,0,1.435,0.109,2.085,0.33c0.649,0.22,1.204,0.55,1.665,0.989c0.46,0.44,0.824,0.995,1.095,1.665
		c0.271,0.671,0.405,1.445,0.405,2.325v2.55c0,0.721-0.36,1.08-1.08,1.08h-6.18v2.01c0,0.96,0.195,1.616,0.584,1.966
		c0.391,0.35,0.865,0.524,1.426,0.524c0.58,0,1.035-0.149,1.365-0.45C296.989,85.711,297.153,85.302,297.153,84.781z
		 M293.284,79.531h4.02v-0.99c0-0.96-0.195-1.614-0.585-1.965c-0.39-0.35-0.865-0.525-1.425-0.525c-0.561,0-1.035,0.176-1.426,0.525
		c-0.389,0.351-0.584,1.005-0.584,1.965V79.531z"/>
	<path class="st0" d="M304.203,69.241c0-0.72,0.36-1.08,1.08-1.08h1.08c0.72,0,1.08,0.36,1.08,1.08v1.02
		c0,0.721-0.36,1.08-1.08,1.08h-1.08c-0.72,0-1.08-0.359-1.08-1.08V69.241z M304.203,74.431c0-0.72,0.36-1.079,1.08-1.079h1.08
		c0.72,0,1.08,0.359,1.08,1.079v13.65c0,0.72-0.36,1.08-1.08,1.08h-1.08c-0.72,0-1.08-0.36-1.08-1.08V74.431z"/>
	<path class="st0" d="M316.593,76.231c-0.7,0-1.2,0.14-1.5,0.42c-0.301,0.28-0.45,0.77-0.45,1.47v9.96c0,0.72-0.36,1.08-1.08,1.08
		h-1.079c-0.721,0-1.08-0.36-1.08-1.08v-10.2c0-1.72,0.414-2.93,1.244-3.63c0.83-0.699,1.995-1.05,3.495-1.05
		c0.22,0,0.454,0.005,0.705,0.015c0.25,0.011,0.524,0.045,0.825,0.105c0.279,0.06,0.505,0.165,0.675,0.314
		c0.17,0.15,0.255,0.405,0.255,0.766v0.87c0,0.359-0.09,0.64-0.27,0.84s-0.45,0.27-0.811,0.21
		C317.163,76.261,316.853,76.231,316.593,76.231z"/>
	<path class="st0" d="M333.572,89.161c-0.3,0.06-0.575,0.095-0.825,0.105c-0.25,0.01-0.484,0.015-0.705,0.015
		c-1.439,0-2.54-0.335-3.3-1.005c-0.761-0.67-1.14-1.815-1.14-3.436V70.562c0-0.721,0.359-1.08,1.08-1.08h1.08
		c0.719,0,1.08,0.359,1.08,1.08v2.79h2.58c0.719,0,1.079,0.359,1.079,1.079v0.87c0,0.721-0.36,1.08-1.079,1.08h-2.58v8.221
		c0,0.62,0.119,1.05,0.359,1.29c0.24,0.239,0.67,0.359,1.29,0.359c0.26,0,0.569-0.03,0.931-0.09c0.359-0.06,0.629,0.011,0.809,0.21
		c0.181,0.2,0.271,0.48,0.271,0.84v0.87c0,0.36-0.085,0.615-0.255,0.765C334.077,88.996,333.853,89.102,333.572,89.161z"/>
	<path class="st0" d="M347.312,84.181c0,0.881-0.135,1.655-0.404,2.325c-0.271,0.671-0.635,1.226-1.096,1.665
		c-0.46,0.44-1.016,0.771-1.664,0.99c-0.65,0.22-1.346,0.33-2.086,0.33c-0.76,0-1.46-0.11-2.1-0.33
		c-0.641-0.22-1.195-0.529-1.665-0.93s-0.835-0.896-1.095-1.485s-0.391-1.265-0.391-2.025v-0.06c0-1.5,0.45-2.67,1.351-3.51
		c0.899-0.84,2.2-1.26,3.899-1.26h2.01v-1.351c0-0.96-0.194-1.614-0.584-1.965c-0.391-0.35-0.865-0.525-1.426-0.525
		c-0.58,0-1.01,0.155-1.289,0.466c-0.281,0.31-0.42,0.685-0.42,1.125c0,0.62-0.311,0.93-0.931,0.93h-1.229
		c-0.721,0-1.08-0.36-1.08-1.08c0-0.64,0.114-1.23,0.345-1.771c0.229-0.54,0.56-1.009,0.989-1.409c0.431-0.4,0.95-0.715,1.561-0.945
		c0.609-0.229,1.295-0.345,2.055-0.345c0.74,0,1.436,0.109,2.086,0.33c0.648,0.22,1.204,0.55,1.664,0.989
		c0.461,0.44,0.825,0.995,1.096,1.665c0.27,0.671,0.404,1.445,0.404,2.325V84.181z M342.062,86.461c0.561,0,1.035-0.175,1.426-0.524
		c0.39-0.35,0.584-1.006,0.584-1.966v-1.649h-2.01c-0.56,0-1.035,0.155-1.425,0.465c-0.39,0.311-0.585,0.845-0.585,1.605
		c0,0.76,0.195,1.295,0.585,1.604C341.026,86.307,341.502,86.461,342.062,86.461z"/>
	<path class="st0" d="M355.262,86.251c0.159,0,0.295-0.005,0.405-0.015c0.109-0.01,0.255-0.035,0.435-0.075
		c0.36-0.06,0.63,0.011,0.81,0.21c0.181,0.2,0.271,0.48,0.271,0.84v0.87c0,0.36-0.085,0.615-0.255,0.765
		c-0.17,0.15-0.405,0.256-0.705,0.315c-0.28,0.06-0.545,0.095-0.795,0.105c-0.25,0.01-0.485,0.015-0.705,0.015
		c-0.58,0-1.105-0.07-1.575-0.21s-0.875-0.37-1.215-0.69c-0.341-0.319-0.601-0.744-0.78-1.274s-0.27-1.175-0.27-1.936V68.941
		c0-0.721,0.359-1.08,1.08-1.08h1.08c0.72,0,1.08,0.359,1.08,1.08v15.989c0,0.521,0.119,0.87,0.359,1.051
		C354.722,86.161,354.982,86.251,355.262,86.251z"/>
	<path class="st0" d="M366.331,84.781c0-0.62,0.311-0.93,0.93-0.93h1.23c0.72,0,1.08,0.359,1.08,1.079
		c0,1.36-0.465,2.461-1.395,3.301c-0.931,0.84-2.166,1.26-3.705,1.26c-0.761,0-1.461-0.11-2.101-0.33s-1.19-0.55-1.649-0.99
		c-0.461-0.439-0.826-0.994-1.096-1.665c-0.27-0.67-0.404-1.444-0.404-2.325v-5.85c0-0.88,0.135-1.654,0.404-2.325
		c0.27-0.67,0.635-1.225,1.096-1.665c0.459-0.439,1.01-0.77,1.649-0.989c0.64-0.221,1.34-0.33,2.101-0.33
		c0.739,0,1.434,0.109,2.084,0.33c0.65,0.22,1.205,0.55,1.666,0.989c0.459,0.44,0.824,0.995,1.094,1.665
		c0.271,0.671,0.406,1.445,0.406,2.325v2.55c0,0.721-0.361,1.08-1.08,1.08h-6.181v2.01c0,0.96,0.195,1.616,0.585,1.966
		c0.391,0.35,0.865,0.524,1.426,0.524c0.579,0,1.034-0.149,1.364-0.45C366.166,85.711,366.331,85.302,366.331,84.781z
		 M362.461,79.531h4.021v-0.99c0-0.96-0.195-1.614-0.586-1.965c-0.39-0.35-0.865-0.525-1.424-0.525
		c-0.561,0-1.035,0.176-1.426,0.525c-0.39,0.351-0.585,1.005-0.585,1.965V79.531z"/>
	<path class="st0" d="M382.62,89.161h-1.08c-0.72,0-1.08-0.36-1.08-1.08v-9.54c0-0.96-0.194-1.614-0.584-1.965
		c-0.391-0.35-0.865-0.525-1.426-0.525c-0.56,0-1.035,0.176-1.425,0.525c-0.39,0.351-0.585,1.005-0.585,1.965v9.54
		c0,0.72-0.359,1.08-1.08,1.08h-1.08c-0.72,0-1.08-0.36-1.08-1.08v-9.75c0-0.88,0.135-1.654,0.405-2.325
		c0.271-0.67,0.635-1.225,1.095-1.665c0.46-0.439,1.01-0.77,1.65-0.989c0.64-0.221,1.34-0.33,2.1-0.33
		c0.74,0,1.436,0.109,2.086,0.33c0.648,0.22,1.204,0.55,1.664,0.989c0.46,0.44,0.825,0.995,1.096,1.665
		c0.27,0.671,0.404,1.445,0.404,2.325v9.75C383.7,88.801,383.341,89.161,382.62,89.161z"/>
	<path class="st0" d="M393.481,89.161c-0.3,0.06-0.575,0.095-0.825,0.105c-0.25,0.01-0.484,0.015-0.705,0.015
		c-1.439,0-2.54-0.335-3.3-1.005c-0.761-0.67-1.14-1.815-1.14-3.436V70.562c0-0.721,0.359-1.08,1.08-1.08h1.08
		c0.719,0,1.08,0.359,1.08,1.08v2.79h2.58c0.719,0,1.079,0.359,1.079,1.079v0.87c0,0.721-0.36,1.08-1.079,1.08h-2.58v8.221
		c0,0.62,0.119,1.05,0.359,1.29c0.24,0.239,0.67,0.359,1.29,0.359c0.26,0,0.569-0.03,0.931-0.09c0.359-0.06,0.629,0.011,0.809,0.21
		c0.181,0.2,0.271,0.48,0.271,0.84v0.87c0,0.36-0.085,0.615-0.255,0.765C393.985,88.996,393.761,89.102,393.481,89.161z"/>
	<path class="st0" d="M403.47,77.431c0-0.439-0.149-0.779-0.449-1.02c-0.301-0.24-0.711-0.36-1.23-0.36s-0.93,0.12-1.23,0.36
		c-0.299,0.24-0.449,0.62-0.449,1.14v0.061c0,0.521,0.17,0.93,0.51,1.229c0.34,0.301,0.76,0.565,1.26,0.795
		c0.5,0.23,1.051,0.461,1.65,0.69c0.6,0.23,1.15,0.53,1.65,0.9c0.499,0.37,0.919,0.85,1.26,1.439c0.34,0.59,0.51,1.365,0.51,2.325
		c0,0.72-0.131,1.36-0.391,1.92c-0.26,0.561-0.614,1.03-1.064,1.41s-0.99,0.67-1.62,0.87c-0.63,0.199-1.315,0.3-2.055,0.3
		c-0.761,0-1.45-0.11-2.07-0.33s-1.155-0.515-1.604-0.885c-0.45-0.37-0.801-0.814-1.051-1.335s-0.375-1.08-0.375-1.681v-0.18
		c0-0.72,0.36-1.08,1.08-1.08h1.23c0.619,0,0.93,0.311,0.93,0.93c0,0.521,0.17,0.905,0.51,1.155c0.34,0.251,0.79,0.375,1.351,0.375
		c0.56,0,1.015-0.12,1.364-0.359c0.35-0.24,0.525-0.65,0.525-1.23v-0.06c0-0.521-0.17-0.925-0.51-1.216
		c-0.34-0.289-0.76-0.544-1.26-0.765c-0.5-0.22-1.051-0.439-1.65-0.66c-0.6-0.22-1.15-0.515-1.65-0.885s-0.92-0.845-1.26-1.425
		s-0.51-1.351-0.51-2.311c0-1.439,0.455-2.555,1.365-3.345s2.095-1.185,3.555-1.185c0.74,0,1.41,0.109,2.01,0.33
		c0.6,0.22,1.115,0.524,1.545,0.915c0.43,0.39,0.766,0.84,1.006,1.35s0.359,1.064,0.359,1.665c0,0.72-0.359,1.08-1.08,1.08h-1.23
		C403.78,78.361,403.47,78.052,403.47,77.431z"/>
	<path class="st0" d="M422.85,89.161c-0.3,0.06-0.575,0.095-0.825,0.105c-0.25,0.01-0.484,0.015-0.705,0.015
		c-1.439,0-2.54-0.335-3.3-1.005c-0.761-0.67-1.14-1.815-1.14-3.436V70.562c0-0.721,0.359-1.08,1.08-1.08h1.08
		c0.719,0,1.08,0.359,1.08,1.08v2.79h2.58c0.719,0,1.079,0.359,1.079,1.079v0.87c0,0.721-0.36,1.08-1.079,1.08h-2.58v8.221
		c0,0.62,0.119,1.05,0.359,1.29c0.24,0.239,0.67,0.359,1.29,0.359c0.26,0,0.569-0.03,0.931-0.09c0.359-0.06,0.629,0.011,0.809,0.21
		c0.181,0.2,0.271,0.48,0.271,0.84v0.87c0,0.36-0.085,0.615-0.255,0.765C423.355,88.996,423.13,89.102,422.85,89.161z"/>
	<path class="st0" d="M436.859,84.181c0,0.9-0.136,1.686-0.405,2.355s-0.635,1.22-1.095,1.65c-0.46,0.43-1.016,0.755-1.665,0.975
		c-0.65,0.22-1.346,0.33-2.085,0.33c-0.761,0-1.46-0.11-2.101-0.33c-0.64-0.22-1.189-0.545-1.649-0.975
		c-0.46-0.431-0.825-0.98-1.095-1.65c-0.271-0.67-0.405-1.455-0.405-2.355v-5.85c0-0.88,0.135-1.654,0.405-2.325
		c0.27-0.67,0.635-1.225,1.095-1.665c0.46-0.439,1.01-0.77,1.649-0.989c0.641-0.221,1.34-0.33,2.101-0.33
		c0.739,0,1.435,0.109,2.085,0.33c0.649,0.22,1.205,0.55,1.665,0.989c0.46,0.44,0.825,0.995,1.095,1.665
		c0.27,0.671,0.405,1.445,0.405,2.325V84.181z M433.619,78.541c0-0.96-0.194-1.614-0.585-1.965c-0.391-0.35-0.865-0.525-1.425-0.525
		s-1.035,0.176-1.425,0.525c-0.391,0.351-0.586,1.005-0.586,1.965v5.43c0,0.96,0.195,1.616,0.586,1.966
		c0.39,0.35,0.865,0.524,1.425,0.524s1.034-0.175,1.425-0.524s0.585-1.006,0.585-1.966V78.541z"/>
	<path class="st0" d="M458.669,82.142c0.76,0,1.14,0.38,1.14,1.14v0.09c0,0.9-0.155,1.725-0.465,2.475
		c-0.311,0.75-0.745,1.396-1.306,1.936c-0.56,0.54-1.229,0.96-2.01,1.26c-0.779,0.3-1.63,0.45-2.55,0.45
		c-0.94,0-1.806-0.135-2.595-0.405c-0.791-0.27-1.475-0.68-2.055-1.229s-1.035-1.235-1.365-2.056
		c-0.33-0.819-0.495-1.779-0.495-2.88v-8.52c0-1.1,0.165-2.06,0.495-2.88s0.785-1.505,1.365-2.056c0.58-0.55,1.264-0.96,2.055-1.229
		c0.789-0.271,1.654-0.405,2.595-0.405c0.92,0,1.771,0.15,2.55,0.45c0.78,0.3,1.45,0.72,2.01,1.26
		c0.561,0.54,0.995,1.186,1.306,1.936c0.31,0.75,0.465,1.574,0.465,2.475v0.09c0,0.761-0.38,1.14-1.14,1.14h-1.29
		c-0.681,0-1.021-0.34-1.021-1.02c0-0.9-0.25-1.635-0.75-2.205s-1.199-0.854-2.1-0.854c-0.42,0-0.815,0.06-1.186,0.18
		s-0.699,0.32-0.99,0.6c-0.289,0.28-0.515,0.655-0.674,1.125c-0.16,0.471-0.24,1.056-0.24,1.755v7.801c0,0.7,0.08,1.285,0.24,1.755
		c0.159,0.47,0.385,0.845,0.674,1.125c0.291,0.28,0.62,0.479,0.99,0.6s0.766,0.18,1.186,0.18c0.9,0,1.6-0.284,2.1-0.854
		s0.75-1.305,0.75-2.205c0-0.68,0.34-1.02,1.021-1.02H458.669z"/>
	<path class="st0" d="M473.158,84.181c0,0.881-0.136,1.655-0.405,2.325c-0.27,0.671-0.635,1.226-1.095,1.665
		c-0.46,0.44-1.016,0.771-1.665,0.99c-0.65,0.22-1.346,0.33-2.085,0.33c-0.761,0-1.46-0.11-2.101-0.33
		c-0.64-0.22-1.195-0.529-1.664-0.93c-0.471-0.4-0.836-0.896-1.096-1.485s-0.39-1.265-0.39-2.025v-0.06c0-1.5,0.45-2.67,1.351-3.51
		c0.899-0.84,2.199-1.26,3.899-1.26h2.01v-1.351c0-0.96-0.194-1.614-0.585-1.965c-0.391-0.35-0.865-0.525-1.425-0.525
		c-0.581,0-1.011,0.155-1.29,0.466c-0.28,0.31-0.42,0.685-0.42,1.125c0,0.62-0.311,0.93-0.93,0.93h-1.23
		c-0.721,0-1.08-0.36-1.08-1.08c0-0.64,0.115-1.23,0.346-1.771c0.229-0.54,0.559-1.009,0.989-1.409s0.95-0.715,1.56-0.945
		c0.61-0.229,1.295-0.345,2.056-0.345c0.739,0,1.435,0.109,2.085,0.33c0.649,0.22,1.205,0.55,1.665,0.989
		c0.46,0.44,0.825,0.995,1.095,1.665c0.27,0.671,0.405,1.445,0.405,2.325V84.181z M467.908,86.461c0.56,0,1.034-0.175,1.425-0.524
		s0.585-1.006,0.585-1.966v-1.649h-2.01c-0.56,0-1.035,0.155-1.425,0.465c-0.391,0.311-0.586,0.845-0.586,1.605
		c0,0.76,0.195,1.295,0.586,1.604C466.873,86.307,467.349,86.461,467.908,86.461z"/>
	<path class="st0" d="M486.088,89.161h-1.08c-0.72,0-1.08-0.36-1.08-1.08v-9.54c0-0.96-0.194-1.614-0.585-1.965
		c-0.391-0.35-0.865-0.525-1.425-0.525s-1.035,0.176-1.425,0.525c-0.391,0.351-0.586,1.005-0.586,1.965v9.54
		c0,0.72-0.359,1.08-1.08,1.08h-1.079c-0.72,0-1.08-0.36-1.08-1.08v-9.75c0-0.88,0.135-1.654,0.405-2.325
		c0.27-0.67,0.635-1.225,1.095-1.665c0.46-0.439,1.01-0.77,1.649-0.989c0.641-0.221,1.34-0.33,2.101-0.33
		c0.739,0,1.435,0.109,2.085,0.33c0.649,0.22,1.205,0.55,1.665,0.989c0.46,0.44,0.825,0.995,1.095,1.665
		c0.27,0.671,0.405,1.445,0.405,2.325v9.75C487.168,88.801,486.808,89.161,486.088,89.161z"/>
	<path class="st0" d="M500.908,84.181c0,0.881-0.136,1.655-0.405,2.325c-0.27,0.671-0.635,1.226-1.095,1.665
		c-0.46,0.44-1.016,0.771-1.665,0.99c-0.65,0.22-1.346,0.33-2.085,0.33c-0.761,0-1.46-0.11-2.101-0.33
		c-0.64-0.22-1.195-0.529-1.664-0.93c-0.471-0.4-0.836-0.896-1.096-1.485s-0.39-1.265-0.39-2.025v-0.06c0-1.5,0.45-2.67,1.351-3.51
		c0.899-0.84,2.199-1.26,3.899-1.26h2.01v-1.351c0-0.96-0.194-1.614-0.585-1.965c-0.391-0.35-0.865-0.525-1.425-0.525
		c-0.581,0-1.011,0.155-1.29,0.466c-0.28,0.31-0.42,0.685-0.42,1.125c0,0.62-0.311,0.93-0.93,0.93h-1.23
		c-0.721,0-1.08-0.36-1.08-1.08c0-0.64,0.115-1.23,0.346-1.771c0.229-0.54,0.559-1.009,0.989-1.409s0.95-0.715,1.56-0.945
		c0.61-0.229,1.295-0.345,2.056-0.345c0.739,0,1.435,0.109,2.085,0.33c0.649,0.22,1.205,0.55,1.665,0.989
		c0.46,0.44,0.825,0.995,1.095,1.665c0.27,0.671,0.405,1.445,0.405,2.325V84.181z M495.658,86.461c0.56,0,1.034-0.175,1.425-0.524
		s0.585-1.006,0.585-1.966v-1.649h-2.01c-0.56,0-1.035,0.155-1.425,0.465c-0.391,0.311-0.586,0.845-0.586,1.605
		c0,0.76,0.195,1.295,0.586,1.604C494.623,86.307,495.099,86.461,495.658,86.461z"/>
	<path class="st0" d="M504.148,77.971c0-1.68,0.404-2.925,1.215-3.734c0.811-0.811,1.835-1.215,3.075-1.215
		c0.6,0,1.155,0.1,1.665,0.3s0.945,0.521,1.305,0.96v-5.34c0-0.721,0.36-1.08,1.08-1.08h1.08c0.72,0,1.08,0.359,1.08,1.08v15.239
		c0,0.9-0.135,1.686-0.405,2.355s-0.635,1.22-1.095,1.65c-0.461,0.43-1.016,0.755-1.665,0.975c-0.65,0.22-1.345,0.33-2.085,0.33
		c-0.76,0-1.461-0.11-2.1-0.33c-0.641-0.22-1.19-0.545-1.65-0.975c-0.461-0.431-0.825-0.98-1.096-1.65
		c-0.27-0.67-0.404-1.455-0.404-2.355V77.971z M507.388,83.971c0,0.96,0.195,1.616,0.584,1.966c0.391,0.35,0.865,0.524,1.426,0.524
		c0.56,0,1.035-0.175,1.425-0.524s0.585-1.006,0.585-1.966v-5.43c0-0.96-0.195-1.614-0.585-1.965
		c-0.39-0.35-0.865-0.525-1.425-0.525c-0.561,0-1.035,0.176-1.426,0.525c-0.389,0.351-0.584,1.005-0.584,1.965V83.971z"/>
	<path class="st0" d="M528.417,84.181c0,0.881-0.135,1.655-0.404,2.325c-0.271,0.671-0.635,1.226-1.096,1.665
		c-0.46,0.44-1.016,0.771-1.664,0.99c-0.65,0.22-1.346,0.33-2.086,0.33c-0.76,0-1.46-0.11-2.1-0.33
		c-0.641-0.22-1.195-0.529-1.665-0.93s-0.835-0.896-1.095-1.485s-0.391-1.265-0.391-2.025v-0.06c0-1.5,0.45-2.67,1.351-3.51
		c0.899-0.84,2.2-1.26,3.899-1.26h2.01v-1.351c0-0.96-0.194-1.614-0.584-1.965c-0.391-0.35-0.865-0.525-1.426-0.525
		c-0.58,0-1.01,0.155-1.289,0.466c-0.281,0.31-0.42,0.685-0.42,1.125c0,0.62-0.311,0.93-0.931,0.93h-1.229
		c-0.721,0-1.08-0.36-1.08-1.08c0-0.64,0.114-1.23,0.345-1.771c0.229-0.54,0.56-1.009,0.989-1.409c0.431-0.4,0.95-0.715,1.561-0.945
		c0.609-0.229,1.295-0.345,2.055-0.345c0.74,0,1.436,0.109,2.086,0.33c0.648,0.22,1.204,0.55,1.664,0.989
		c0.461,0.44,0.825,0.995,1.096,1.665c0.27,0.671,0.404,1.445,0.404,2.325V84.181z M523.167,86.461c0.561,0,1.035-0.175,1.426-0.524
		c0.39-0.35,0.584-1.006,0.584-1.966v-1.649h-2.01c-0.56,0-1.035,0.155-1.425,0.465c-0.39,0.311-0.585,0.845-0.585,1.605
		c0,0.76,0.195,1.295,0.585,1.604C522.132,86.307,522.607,86.461,523.167,86.461z"/>
	<path class="st0" d="M535.617,88.081c0,0.72-0.36,1.08-1.08,1.08h-1.74c-0.72,0-1.079-0.36-1.079-1.08v-1.77
		c0-0.721,0.359-1.08,1.079-1.08h1.74c0.72,0,1.08,0.359,1.08,1.08V88.081z"/>
</g>
<g>
	<g>
		<path class="st0" d="M471.738,122h-10c-1.657,0-3-1.343-3-3s1.343-3,3-3h10c1.657,0,3,1.343,3,3S473.396,122,471.738,122z"/>
	</g>
	<g>
		<path class="st0" d="M451.591,122h-0.102c-1.657,0-3-1.343-3-3s1.343-3,3-3h0.102c1.657,0,3,1.343,3,3S453.248,122,451.591,122z"
			/>
	</g>
	<g>
		<path class="st0" d="M515.622,122h-0.102c-1.657,0-3-1.343-3-3s1.343-3,3-3h0.102c1.657,0,3,1.343,3,3S517.279,122,515.622,122z
			 M441.341,122h-20.296c-1.657,0-3-1.343-3-3s1.343-3,3-3h20.296c1.657,0,3,1.343,3,3S442.998,122,441.341,122z M410.898,122
			h-0.102c-1.657,0-3-1.343-3-3s1.343-3,3-3h0.102c1.657,0,3,1.343,3,3S412.555,122,410.898,122z M400.648,122h-20.296
			c-1.657,0-3-1.343-3-3s1.343-3,3-3h20.296c1.657,0,3,1.343,3,3S402.305,122,400.648,122z M370.204,122h-0.102
			c-1.657,0-3-1.343-3-3s1.343-3,3-3h0.102c1.657,0,3,1.343,3,3S371.861,122,370.204,122z M359.954,122h-20.296
			c-1.657,0-3-1.343-3-3s1.343-3,3-3h20.296c1.657,0,3,1.343,3,3S361.611,122,359.954,122z M329.511,122h-0.102
			c-1.657,0-3-1.343-3-3s1.343-3,3-3h0.102c1.657,0,3,1.343,3,3S331.168,122,329.511,122z M319.262,122h-20.296
			c-1.657,0-3-1.343-3-3s1.343-3,3-3h20.296c1.657,0,3,1.343,3,3S320.919,122,319.262,122z M288.817,122h-0.102
			c-1.657,0-3-1.343-3-3s1.343-3,3-3h0.102c1.657,0,3,1.343,3,3S290.474,122,288.817,122z M278.568,122h-20.295
			c-1.657,0-3-1.343-3-3s1.343-3,3-3h20.295c1.657,0,3,1.343,3,3S280.225,122,278.568,122z M248.125,122h-0.102
			c-1.657,0-3-1.343-3-3s1.343-3,3-3h0.102c1.657,0,3,1.343,3,3S249.781,122,248.125,122z M237.875,122h-20.296
			c-1.657,0-3-1.343-3-3s1.343-3,3-3h20.296c1.657,0,3,1.343,3,3S239.532,122,237.875,122z M207.431,122h-0.102
			c-1.657,0-3-1.343-3-3s1.343-3,3-3h0.102c1.657,0,3,1.343,3,3S209.088,122,207.431,122z M197.182,122h-20.296
			c-1.657,0-3-1.343-3-3s1.343-3,3-3h20.296c1.657,0,3,1.343,3,3S198.838,122,197.182,122z M166.738,122h-0.102
			c-1.657,0-3-1.343-3-3s1.343-3,3-3h0.102c1.657,0,3,1.343,3,3S168.395,122,166.738,122z M156.488,122h-20.296
			c-1.657,0-3-1.343-3-3s1.343-3,3-3h20.296c1.657,0,3,1.343,3,3S158.145,122,156.488,122z M126.045,122h-0.102
			c-1.657,0-3-1.343-3-3s1.343-3,3-3h0.102c1.657,0,3,1.343,3,3S127.702,122,126.045,122z M115.795,122H95.5c-1.657,0-3-1.343-3-3
			s1.343-3,3-3h20.296c1.657,0,3,1.343,3,3S117.452,122,115.795,122z M85.352,122H85.25c-1.657,0-3-1.343-3-3s1.343-3,3-3h0.102
			c1.657,0,3,1.343,3,3S87.008,122,85.352,122z M75.102,122H60.887c-2.13,0-4.277-0.112-6.381-0.334
			c-1.648-0.173-2.843-1.65-2.669-3.297s1.647-2.837,3.297-2.669c1.897,0.2,3.833,0.301,5.753,0.301h14.215c1.657,0,3,1.343,3,3
			S76.759,122,75.102,122z M525.761,121.815c-1.548,0-2.861-1.191-2.986-2.761c-0.132-1.651,1.1-3.097,2.751-3.229
			c6.425-0.513,12.651-2.145,18.506-4.849c1.504-0.694,3.286-0.038,3.981,1.465c0.694,1.504,0.039,3.287-1.466,3.982
			c-6.499,3.002-13.411,4.813-20.543,5.383C525.922,121.812,525.842,121.815,525.761,121.815z M44.872,119.739
			c-0.268,0-0.541-0.037-0.813-0.114l-0.138-0.04c-1.588-0.474-2.491-2.145-2.017-3.732c0.473-1.588,2.146-2.491,3.732-2.017
			c1.594,0.452,2.549,2.119,2.097,3.713C47.359,118.871,46.175,119.739,44.872,119.739z M35.333,116.031
			c-0.447,0-0.9-0.1-1.328-0.312c-6.393-3.163-12.149-7.39-17.11-12.564c-1.146-1.196-1.106-3.095,0.089-4.242
			c1.196-1.147,3.094-1.107,4.242,0.089c4.478,4.67,9.672,8.485,15.44,11.338c1.485,0.735,2.093,2.534,1.358,4.02
			C37.501,115.418,36.438,116.031,35.333,116.031z M554.083,111.666c-0.953,0-1.891-0.453-2.473-1.297
			c-0.94-1.364-0.598-3.232,0.767-4.173c1.348-0.962,3.242-0.665,4.206,0.683c0.963,1.348,0.672,3.207-0.676,4.17l-0.124,0.086
			C555.264,111.493,554.67,111.666,554.083,111.666z M561.943,105.115c-0.771,0-1.542-0.295-2.129-0.886
			c-1.167-1.176-1.16-3.075,0.016-4.243c4.593-4.561,8.316-9.821,11.066-15.634c0.709-1.497,2.495-2.137,3.995-1.429
			c1.497,0.708,2.137,2.497,1.429,3.995c-3.049,6.445-7.175,12.274-12.264,17.327C563.472,104.825,562.708,105.115,561.943,105.115z
			 M12.65,96.16c-0.936,0-1.848-0.44-2.421-1.278c-0.005-0.007-0.053-0.078-0.058-0.085c-0.923-1.375-0.563-3.249,0.811-4.172
			c1.375-0.924,3.23-0.569,4.156,0.806c0.922,1.371,0.59,3.271-0.777,4.199C13.834,95.986,13.237,96.16,12.65,96.16z M7.771,87.227
			c-1.153,0-2.252-0.668-2.747-1.791C2.138,78.887,0.45,71.944,0.006,64.8c-0.103-1.654,1.154-3.078,2.808-3.18
			c1.638-0.104,3.077,1.154,3.18,2.808c0.4,6.435,1.921,12.689,4.521,18.588c0.668,1.516-0.019,3.287-1.535,3.955
			C8.586,87.145,8.175,87.227,7.771,87.227z M577.123,79.128c-0.254,0-0.513-0.032-0.77-0.101c-1.602-0.424-2.557-2.066-2.133-3.667
			l0.029-0.109c0.431-1.601,2.076-2.549,3.676-2.119c1.601,0.43,2.549,2.076,2.119,3.676l-0.023,0.088
			C579.665,78.24,578.451,79.128,577.123,79.128z M578.918,69.053c-0.088,0-0.176-0.003-0.265-0.011
			c-1.651-0.145-2.872-1.599-2.728-3.25c0.138-1.583,0.208-3.195,0.208-4.792c0-4.833-0.636-9.634-1.89-14.271
			c-0.433-1.599,0.513-3.247,2.112-3.679c1.591-0.433,3.246,0.513,3.679,2.113c1.393,5.147,2.099,10.475,2.099,15.837
			c0,1.771-0.078,3.559-0.231,5.314C581.767,67.876,580.456,69.053,578.918,69.053z M3.257,57.486c-0.116,0-0.232-0.007-0.35-0.021
			c-1.646-0.191-2.825-1.68-2.634-3.326l0.006-0.058c0.167-1.648,1.64-2.844,3.288-2.682c1.648,0.167,2.849,1.639,2.682,3.288
			l-0.016,0.144C6.056,56.359,4.759,57.486,3.257,57.486z M5.306,47.461c-0.285,0-0.575-0.041-0.862-0.127
			c-1.587-0.476-2.488-2.147-2.012-3.735c2.046-6.829,5.261-13.208,9.556-18.962c0.991-1.328,2.872-1.601,4.199-0.61
			c1.328,0.991,1.601,2.871,0.61,4.199c-3.874,5.19-6.773,10.942-8.618,17.096C7.789,46.622,6.597,47.461,5.306,47.461z
			 M573.645,39.438c-1.149,0-2.246-0.665-2.743-1.783c-0.722-1.491-0.099-3.287,1.393-4.008c1.489-0.723,3.284-0.1,4.006,1.392
			l0.084,0.18c0.673,1.514-0.009,3.287-1.522,3.959C574.465,39.354,574.051,39.438,573.645,39.438z M568.485,30.603
			c-0.94,0-1.866-0.44-2.45-1.266c-3.731-5.265-8.308-9.805-13.602-13.493c-1.359-0.947-1.693-2.817-0.747-4.176
			c0.948-1.359,2.817-1.694,4.177-0.747c5.864,4.086,10.934,9.115,15.066,14.947c0.958,1.352,0.639,3.224-0.713,4.182
			C569.69,30.424,569.085,30.603,568.485,30.603z M21.154,21.811c-0.792,0-1.579-0.304-2.16-0.915
			c-1.137-1.196-1.131-3.052,0.06-4.196c0.007-0.007,0.084-0.08,0.091-0.086c1.207-1.136,3.108-1.079,4.243,0.126
			c1.135,1.207,1.08,3.103-0.126,4.239C22.674,21.533,21.912,21.811,21.154,21.811z M29.16,15.514c-0.976,0-1.933-0.476-2.509-1.352
			c-0.911-1.384-0.527-3.244,0.857-4.155c5.996-3.945,12.557-6.773,19.501-8.404c1.614-0.38,3.228,0.622,3.606,2.234
			c0.379,1.613-0.622,3.228-2.234,3.606c-6.256,1.47-12.169,4.019-17.576,7.576C30.298,15.354,29.726,15.514,29.16,15.514z
			 M545.358,11.334c-0.426,0-0.858-0.091-1.27-0.283c-1.509-0.684-2.208-2.475-1.523-3.984c0.684-1.509,2.431-2.193,3.94-1.508
			l0.126,0.058c1.5,0.702,2.147,2.487,1.446,3.988C547.568,10.695,546.487,11.334,545.358,11.334z M535.729,7.872
			c-0.251,0-0.507-0.032-0.761-0.098C530.469,6.597,525.815,6,521.134,6h-5.538c-1.657,0-3-1.343-3-3s1.343-3,3-3h5.538
			c5.192,0,10.357,0.663,15.352,1.969c1.604,0.419,2.562,2.059,2.144,3.662C538.276,6.979,537.061,7.872,535.729,7.872z
			 M57.778,6.083c-1.579,0-2.928-1.23-3.021-2.825c-0.096-1.654,1.139-3.071,2.792-3.167l0.145-0.007
			c1.675-0.08,3.055,1.212,3.127,2.867c0.072,1.655-1.211,3.056-2.867,3.127C57.896,6.081,57.837,6.083,57.778,6.083z M505.448,6
			h-0.102c-1.657,0-3-1.343-3-3s1.343-3,3-3h0.102c1.657,0,3,1.343,3,3S507.106,6,505.448,6z M495.199,6h-20.296
			c-1.657,0-3-1.343-3-3s1.343-3,3-3h20.296c1.657,0,3,1.343,3,3S496.857,6,495.199,6z M464.755,6h-0.102c-1.657,0-3-1.343-3-3
			s1.343-3,3-3h0.102c1.657,0,3,1.343,3,3S466.412,6,464.755,6z M454.506,6H434.21c-1.657,0-3-1.343-3-3s1.343-3,3-3h20.296
			c1.657,0,3,1.343,3,3S456.163,6,454.506,6z M424.062,6h-0.102c-1.657,0-3-1.343-3-3s1.343-3,3-3h0.102c1.657,0,3,1.343,3,3
			S425.719,6,424.062,6z M413.813,6h-20.296c-1.657,0-3-1.343-3-3s1.343-3,3-3h20.296c1.657,0,3,1.343,3,3S415.47,6,413.813,6z
			 M383.368,6h-0.101c-1.657,0-3-1.343-3-3s1.343-3,3-3h0.101c1.657,0,3,1.343,3,3S385.025,6,383.368,6z M373.119,6h-20.296
			c-1.657,0-3-1.343-3-3s1.343-3,3-3h20.296c1.657,0,3,1.343,3,3S374.776,6,373.119,6z M342.676,6h-0.102c-1.657,0-3-1.343-3-3
			s1.343-3,3-3h0.102c1.657,0,3,1.343,3,3S344.333,6,342.676,6z M332.426,6H312.13c-1.657,0-3-1.343-3-3s1.343-3,3-3h20.296
			c1.657,0,3,1.343,3,3S334.083,6,332.426,6z M301.982,6h-0.102c-1.657,0-3-1.343-3-3s1.343-3,3-3h0.102c1.657,0,3,1.343,3,3
			S303.64,6,301.982,6z M291.733,6h-20.296c-1.657,0-3-1.343-3-3s1.343-3,3-3h20.296c1.657,0,3,1.343,3,3S293.39,6,291.733,6z
			 M261.289,6h-0.102c-1.657,0-3-1.343-3-3s1.343-3,3-3h0.102c1.657,0,3,1.343,3,3S262.946,6,261.289,6z M251.04,6h-20.296
			c-1.657,0-3-1.343-3-3s1.343-3,3-3h20.296c1.657,0,3,1.343,3,3S252.696,6,251.04,6z M220.596,6h-0.101c-1.657,0-3-1.343-3-3
			s1.343-3,3-3h0.101c1.657,0,3,1.343,3,3S222.252,6,220.596,6z M210.347,6h-20.296c-1.657,0-3-1.343-3-3s1.343-3,3-3h20.296
			c1.657,0,3,1.343,3,3S212.003,6,210.347,6z M179.903,6h-0.102c-1.657,0-3-1.343-3-3s1.343-3,3-3h0.102c1.657,0,3,1.343,3,3
			S181.56,6,179.903,6z M169.653,6h-20.296c-1.657,0-3-1.343-3-3s1.343-3,3-3h20.296c1.657,0,3,1.343,3,3S171.31,6,169.653,6z
			 M139.21,6h-0.102c-1.657,0-3-1.343-3-3s1.343-3,3-3h0.102c1.657,0,3,1.343,3,3S140.866,6,139.21,6z M128.96,6h-20.296
			c-1.657,0-3-1.343-3-3s1.343-3,3-3h20.296c1.657,0,3,1.343,3,3S130.617,6,128.96,6z M98.516,6h-0.101c-1.657,0-3-1.343-3-3
			s1.343-3,3-3h0.101c1.657,0,3,1.343,3,3S100.173,6,98.516,6z M88.267,6H67.971c-1.657,0-3-1.343-3-3s1.343-3,3-3h20.296
			c1.657,0,3,1.343,3,3S89.924,6,88.267,6z"/>
	</g>
	<g>
		<path class="st0" d="M505.154,122h-10c-1.657,0-3-1.343-3-3s1.343-3,3-3h10c1.657,0,3,1.343,3,3S506.812,122,505.154,122z"/>
	</g>
</g>
<g>
	<path class="st0" d="M405.07,240.68c-1.129,0-2.21-0.64-2.72-1.729c-0.701-1.5-0.054-3.287,1.446-3.988
		c0.013-0.006,0.115-0.053,0.128-0.058c1.512-0.685,3.287-0.01,3.969,1.499c0.682,1.51,0.011,3.287-1.5,3.969l-1.234-2.734
		l1.181,2.759C405.929,240.589,405.496,240.68,405.07,240.68z M414.105,236.192c-1.068,0-2.102-0.571-2.644-1.577
		c-0.786-1.458-0.241-3.278,1.217-4.064c5.821-3.138,11.376-6.654,16.509-10.45c1.332-0.984,3.209-0.705,4.196,0.628
		c0.985,1.332,0.704,3.21-0.628,4.196c-5.362,3.965-11.159,7.635-17.229,10.907C415.072,236.077,414.585,236.192,414.105,236.192z
		 M438.773,219.274c-0.832,0-1.66-0.344-2.253-1.018c-1.095-1.244-0.974-3.14,0.271-4.234c0.006-0.006,0.087-0.077,0.094-0.082
		c1.252-1.083,3.145-0.949,4.231,0.306c1.084,1.252,0.947,3.147-0.306,4.231l-1.963-2.269l1.906,2.317
		C440.184,219.028,439.477,219.274,438.773,219.274z M446.141,212.381c-0.762,0-1.523-0.288-2.107-0.865
		c-1.18-1.164-1.191-3.063-0.027-4.242c4.561-4.62,8.785-9.637,12.557-14.913c0.964-1.348,2.836-1.66,4.186-0.696
		c1.348,0.963,1.659,2.837,0.695,4.185c-3.955,5.533-8.386,10.794-13.168,15.639C447.689,212.083,446.915,212.381,446.141,212.381z
		 M464.487,188.726c-0.517,0-1.038-0.133-1.512-0.414c-1.413-0.837-1.903-2.635-1.083-4.058c0.017-0.028,0.085-0.142,0.103-0.169
		c0.874-1.409,2.724-1.84,4.131-0.967c1.408,0.874,1.841,2.723,0.967,4.131l-2.549-1.582l2.535,1.604
		C466.512,188.203,465.51,188.726,464.487,188.726z M469.365,179.909c-0.453,0-0.912-0.103-1.344-0.319
		c-1.48-0.743-2.079-2.546-1.336-4.027c2.891-5.759,5.398-11.84,7.454-18.076c0.52-1.574,2.214-2.429,3.789-1.91
		c1.573,0.519,2.429,2.215,1.91,3.789c-2.147,6.514-4.769,12.869-7.79,18.889C471.522,179.303,470.464,179.909,469.365,179.909z
		 M479.785,151.818c-0.262,0-0.527-0.035-0.791-0.106c-1.599-0.436-2.541-2.085-2.105-3.684c0.433-1.582,2.062-2.575,3.655-2.164
		c1.588,0.409,2.565,1.97,2.18,3.564c-0.007,0.027-0.039,0.151-0.046,0.179C482.314,150.941,481.105,151.818,479.785,151.818z
		 M481.912,141.935c-0.175,0-0.352-0.015-0.529-0.047c-1.631-0.29-2.719-1.848-2.429-3.479c1.738-9.769,1.873-16.79,1.873-18.709
		c0-0.383-0.005-0.594-0.006-0.617c-0.044-1.654,1.26-3.031,2.914-3.079c0.028,0,0.058-0.001,0.087-0.001
		c1.615,0,2.948,1.286,2.997,2.911c0,0,0.008,0.269,0.008,0.785c0,2.619-0.191,9.787-1.965,19.76
		C484.604,140.913,483.338,141.935,481.912,141.935z"/>
</g>
</svg>