<!-- Generator: Adobe Illustrator 21.0.0, SVG Export Plug-In  -->
<svg version="1.1"
	 xmlns="http://www.w3.org/2000/svg" xmlns:xlink="http://www.w3.org/1999/xlink" xmlns:a="http://ns.adobe.com/AdobeSVGViewerExtensions/3.0/"
	 x="0px" y="0px" width="285.188px" height="792.715px" viewBox="0 0 285.188 792.715"
	 style="enable-background:new 0 0 285.188 792.715;" xml:space="preserve">
<style type="text/css">
	.st0{fill:#FF0000;}
</style>
<defs>
</defs>
<g>
	<path class="st0" d="M84.663,101.579c1.192,0,1.789,0.597,1.789,1.789v0.141c0,1.412-0.244,2.706-0.729,3.883
		c-0.487,1.177-1.169,2.188-2.047,3.035c-0.878,0.848-1.929,1.506-3.153,1.977s-2.558,0.706-4,0.706
		c-1.475,0-2.832-0.212-4.071-0.635c-1.24-0.424-2.314-1.066-3.224-1.93c-0.91-0.863-1.624-1.938-2.141-3.224
		c-0.518-1.286-0.777-2.792-0.777-4.519V89.438c0-1.726,0.259-3.231,0.777-4.518c0.518-1.286,1.231-2.36,2.141-3.224
		c0.91-0.863,1.984-1.507,3.224-1.93c1.239-0.424,2.596-0.636,4.071-0.636c1.443,0,2.777,0.235,4,0.706s2.274,1.13,3.153,1.977
		c0.878,0.847,1.561,1.859,2.047,3.035c0.486,1.177,0.729,2.471,0.729,3.883v0.142c0,1.192-0.596,1.788-1.789,1.788h-2.023
		c-1.067,0-1.6-0.533-1.6-1.601c0-1.411-0.393-2.564-1.177-3.459c-0.785-0.894-1.882-1.341-3.294-1.341
		c-0.659,0-1.279,0.094-1.859,0.282c-0.581,0.188-1.099,0.502-1.553,0.941c-0.455,0.439-0.808,1.028-1.059,1.765
		c-0.251,0.737-0.376,1.655-0.376,2.753v12.236c0,1.099,0.125,2.017,0.376,2.753c0.251,0.737,0.604,1.326,1.059,1.765
		c0.455,0.44,0.972,0.753,1.553,0.941c0.58,0.188,1.2,0.282,1.859,0.282c1.412,0,2.509-0.447,3.294-1.341
		c0.784-0.895,1.177-2.047,1.177-3.459c0-1.066,0.533-1.601,1.6-1.601H84.663z"/>
	<path class="st0" d="M98.734,108.026c0.25,0,0.462-0.007,0.635-0.023c0.172-0.015,0.4-0.054,0.682-0.117
		c0.565-0.094,0.988,0.016,1.271,0.329c0.282,0.314,0.423,0.753,0.423,1.318v1.364c0,0.564-0.134,0.965-0.4,1.2
		c-0.267,0.235-0.635,0.4-1.106,0.494c-0.44,0.094-0.855,0.148-1.247,0.165c-0.393,0.015-0.761,0.023-1.106,0.023
		c-0.911,0-1.734-0.11-2.471-0.33c-0.738-0.219-1.373-0.58-1.906-1.082c-0.534-0.502-0.941-1.168-1.224-2
		c-0.282-0.831-0.423-1.843-0.423-3.035V80.872c0-1.129,0.564-1.694,1.694-1.694h1.694c1.13,0,1.694,0.565,1.694,1.694v25.084
		c0,0.816,0.188,1.365,0.565,1.647S98.294,108.026,98.734,108.026z"/>
	<path class="st0" d="M105.651,81.343c0-1.129,0.565-1.694,1.694-1.694h1.694c1.129,0,1.694,0.565,1.694,1.694v1.601
		c0,1.129-0.565,1.694-1.694,1.694h-1.694c-1.129,0-1.694-0.565-1.694-1.694V81.343z M105.651,89.484
		c0-1.129,0.565-1.694,1.694-1.694h1.694c1.129,0,1.694,0.565,1.694,1.694v21.413c0,1.13-0.565,1.694-1.694,1.694h-1.694
		c-1.129,0-1.694-0.564-1.694-1.694V89.484z"/>
	<path class="st0" d="M121.604,104.45c0,1.506,0.306,2.534,0.917,3.082c0.612,0.55,1.357,0.824,2.236,0.824
		c0.909,0,1.624-0.282,2.141-0.848c0.518-0.564,0.776-1.317,0.776-2.259c0-0.972,0.486-1.459,1.459-1.459h1.93
		c1.129,0,1.694,0.565,1.694,1.694c0,1.161-0.196,2.212-0.588,3.153c-0.393,0.941-0.941,1.741-1.647,2.4
		c-0.706,0.658-1.553,1.169-2.541,1.529s-2.063,0.541-3.224,0.541c-1.193,0-2.291-0.173-3.294-0.518
		c-1.004-0.345-1.867-0.862-2.588-1.553c-0.722-0.69-1.294-1.561-1.718-2.612c-0.424-1.051-0.635-2.267-0.635-3.647v-9.177
		c0-1.38,0.211-2.596,0.635-3.647c0.423-1.051,0.996-1.921,1.718-2.611c0.721-0.69,1.584-1.208,2.588-1.554
		c1.003-0.345,2.102-0.518,3.294-0.518c1.16,0,2.235,0.181,3.224,0.541c0.988,0.361,1.835,0.871,2.541,1.53
		c0.706,0.658,1.255,1.459,1.647,2.399c0.392,0.941,0.588,1.993,0.588,3.153c0,1.13-0.564,1.694-1.694,1.694h-1.93
		c-0.973,0-1.459-0.486-1.459-1.459c0-0.941-0.259-1.694-0.776-2.259s-1.232-0.847-2.141-0.847c-0.879,0-1.624,0.274-2.236,0.823
		s-0.917,1.576-0.917,3.082V104.45z"/>
	<path class="st0" d="M145.229,102.05l-2.023,2.636v6.212c0,1.13-0.565,1.694-1.694,1.694h-1.694c-1.129,0-1.694-0.564-1.694-1.694
		V80.825c0-1.13,0.565-1.694,1.694-1.694h1.694c1.129,0,1.694,0.564,1.694,1.694v17.131l6.024-8.896
		c0.282-0.438,0.588-0.76,0.917-0.964s0.808-0.307,1.436-0.307h2.4c0.596,0,0.965,0.22,1.106,0.659s0.055,0.847-0.259,1.224
		l-6.354,8.142l6.589,12.942c0.25,0.439,0.282,0.854,0.094,1.247c-0.188,0.393-0.565,0.588-1.129,0.588h-2.165
		c-0.628,0-1.09-0.102-1.388-0.306c-0.299-0.204-0.558-0.525-0.777-0.965L145.229,102.05z"/>
	<path class="st0" d="M197.277,110.897c0,1.13-0.564,1.694-1.694,1.694h-1.694c-1.13,0-1.694-0.564-1.694-1.694V95.696
		c0-1.411-0.291-2.376-0.871-2.894c-0.581-0.518-1.279-0.776-2.094-0.776c-0.816,0-1.514,0.259-2.094,0.776
		c-0.581,0.518-0.871,1.482-0.871,2.894v15.201c0,1.13-0.565,1.694-1.694,1.694h-1.694c-1.129,0-1.694-0.564-1.694-1.694V95.696
		c0-1.411-0.29-2.376-0.871-2.894s-1.278-0.776-2.094-0.776s-1.514,0.259-2.094,0.776s-0.871,1.482-0.871,2.894v15.201
		c0,1.13-0.564,1.694-1.694,1.694h-1.694c-1.129,0-1.694-0.564-1.694-1.694V94.756c0-1.255,0.188-2.346,0.565-3.271
		c0.376-0.925,0.894-1.701,1.553-2.329c0.659-0.627,1.436-1.098,2.33-1.412c0.894-0.313,1.875-0.471,2.941-0.471
		c1.412,0,2.643,0.306,3.694,0.918c1.051,0.611,1.875,1.482,2.471,2.612c0.596-1.13,1.419-2.001,2.471-2.612
		c1.051-0.612,2.283-0.918,3.694-0.918c1.066,0,2.047,0.157,2.941,0.471c0.894,0.314,1.671,0.785,2.33,1.412
		c0.659,0.628,1.177,1.404,1.553,2.329c0.376,0.926,0.564,2.017,0.564,3.271V110.897z"/>
	<path class="st0" d="M213.937,105.721c0-0.972,0.486-1.459,1.459-1.459h1.93c1.129,0,1.694,0.564,1.694,1.694
		c0,2.134-0.729,3.859-2.188,5.177s-3.396,1.977-5.812,1.977c-1.193,0-2.291-0.173-3.294-0.518
		c-1.004-0.345-1.867-0.862-2.588-1.553c-0.722-0.69-1.294-1.561-1.718-2.612c-0.424-1.051-0.635-2.267-0.635-3.647v-9.177
		c0-1.38,0.211-2.596,0.635-3.647c0.423-1.051,0.996-1.921,1.718-2.611c0.721-0.69,1.584-1.208,2.588-1.554
		c1.003-0.345,2.102-0.518,3.294-0.518c1.16,0,2.25,0.173,3.271,0.518c1.019,0.346,1.89,0.863,2.612,1.554
		c0.722,0.69,1.294,1.561,1.718,2.611c0.424,1.052,0.635,2.268,0.635,3.647v4c0,1.13-0.564,1.694-1.694,1.694h-9.695v3.153
		c0,1.506,0.306,2.534,0.917,3.082c0.612,0.55,1.357,0.824,2.236,0.824c0.909,0,1.624-0.235,2.141-0.706
		S213.937,106.537,213.937,105.721z M207.866,97.485h6.306v-1.554c0-1.506-0.306-2.533-0.917-3.082s-1.357-0.823-2.235-0.823
		c-0.879,0-1.624,0.274-2.236,0.823s-0.917,1.576-0.917,3.082V97.485z"/>
	<path class="st0" d="M58.662,148.899c0,1.381-0.212,2.597-0.635,3.647c-0.424,1.052-0.997,1.922-1.718,2.612
		c-0.722,0.69-1.593,1.208-2.612,1.553c-1.02,0.345-2.111,0.518-3.271,0.518c-1.193,0-2.291-0.173-3.294-0.518
		c-1.004-0.345-1.875-0.831-2.612-1.459c-0.737-0.627-1.311-1.403-1.718-2.329c-0.408-0.926-0.612-1.984-0.612-3.177v-0.095
		c0-2.353,0.706-4.188,2.118-5.506c1.412-1.317,3.451-1.977,6.118-1.977h3.153v-2.118c0-1.506-0.306-2.533-0.918-3.082
		s-1.357-0.823-2.235-0.823c-0.91,0-1.584,0.243-2.023,0.729c-0.44,0.487-0.659,1.075-0.659,1.766c0,0.973-0.487,1.459-1.459,1.459
		h-1.929c-1.129,0-1.694-0.565-1.694-1.694c0-1.004,0.18-1.93,0.541-2.777c0.36-0.847,0.878-1.584,1.553-2.212
		c0.674-0.627,1.49-1.121,2.447-1.482c0.957-0.36,2.031-0.541,3.224-0.541c1.16,0,2.251,0.173,3.271,0.518
		c1.019,0.346,1.89,0.863,2.612,1.554c0.721,0.69,1.294,1.561,1.718,2.611c0.423,1.052,0.635,2.268,0.635,3.647V148.899z
		 M50.426,152.477c0.878,0,1.624-0.274,2.235-0.824c0.612-0.548,0.918-1.576,0.918-3.082v-2.589h-3.153
		c-0.879,0-1.624,0.244-2.235,0.729c-0.612,0.487-0.918,1.326-0.918,2.519s0.306,2.031,0.918,2.518S49.547,152.477,50.426,152.477z"
		/>
	<path class="st0" d="M78.945,156.712h-1.694c-1.129,0-1.694-0.564-1.694-1.694v-14.966c0-1.506-0.306-2.533-0.918-3.082
		s-1.357-0.823-2.235-0.823c-0.879,0-1.624,0.274-2.235,0.823s-0.918,1.576-0.918,3.082v14.966c0,1.13-0.564,1.694-1.694,1.694
		h-1.694c-1.129,0-1.694-0.564-1.694-1.694v-15.295c0-1.38,0.212-2.596,0.635-3.647c0.424-1.051,0.996-1.921,1.718-2.611
		c0.722-0.69,1.584-1.208,2.588-1.554c1.004-0.345,2.102-0.518,3.294-0.518c1.16,0,2.251,0.173,3.271,0.518
		c1.019,0.346,1.89,0.863,2.612,1.554c0.721,0.69,1.294,1.561,1.718,2.611c0.423,1.052,0.635,2.268,0.635,3.647v15.295
		C80.64,156.147,80.075,156.712,78.945,156.712z"/>
	<path class="st0" d="M86.146,139.158c0-2.636,0.635-4.589,1.906-5.859s2.878-1.906,4.824-1.906c0.941,0,1.812,0.157,2.612,0.471
		c0.8,0.314,1.483,0.816,2.047,1.506v-8.377c0-1.129,0.565-1.694,1.694-1.694h1.694c1.129,0,1.694,0.565,1.694,1.694v23.907
		c0,1.412-0.211,2.644-0.635,3.694c-0.423,1.052-0.996,1.914-1.718,2.589c-0.722,0.675-1.593,1.185-2.612,1.529
		c-1.02,0.345-2.11,0.518-3.271,0.518c-1.193,0-2.291-0.173-3.294-0.518c-1.004-0.345-1.867-0.854-2.588-1.529
		c-0.722-0.675-1.294-1.537-1.718-2.589c-0.424-1.051-0.635-2.282-0.635-3.694V139.158z M91.228,148.57
		c0,1.506,0.306,2.534,0.917,3.082c0.612,0.55,1.357,0.824,2.236,0.824c0.878,0,1.624-0.274,2.235-0.824
		c0.612-0.548,0.917-1.576,0.917-3.082v-8.519c0-1.506-0.306-2.533-0.917-3.082s-1.357-0.823-2.235-0.823
		c-0.879,0-1.624,0.274-2.236,0.823s-0.917,1.576-0.917,3.082V148.57z"/>
	<path class="st0" d="M128.452,156.712c-0.47,0.094-0.902,0.148-1.294,0.165c-0.393,0.015-0.761,0.023-1.106,0.023
		c-2.259,0-3.985-0.525-5.177-1.577c-1.193-1.051-1.789-2.847-1.789-5.389v-22.4c0-1.13,0.565-1.694,1.694-1.694h1.694
		c1.129,0,1.694,0.564,1.694,1.694v4.376h4.047c1.129,0,1.694,0.565,1.694,1.694v1.365c0,1.129-0.564,1.694-1.694,1.694h-4.047
		v12.895c0,0.973,0.188,1.647,0.564,2.023c0.376,0.377,1.051,0.564,2.024,0.564c0.407,0,0.894-0.047,1.459-0.141
		c0.564-0.094,0.988,0.016,1.271,0.329c0.282,0.314,0.423,0.753,0.423,1.318v1.364c0,0.564-0.134,0.965-0.4,1.2
		C129.244,156.453,128.892,156.618,128.452,156.712z"/>
	<path class="st0" d="M145.112,149.841c0-0.972,0.486-1.459,1.459-1.459h1.93c1.129,0,1.694,0.564,1.694,1.694
		c0,2.134-0.729,3.859-2.188,5.177s-3.396,1.977-5.812,1.977c-1.193,0-2.291-0.173-3.294-0.518
		c-1.004-0.345-1.867-0.862-2.588-1.553c-0.722-0.69-1.294-1.561-1.718-2.612c-0.424-1.051-0.635-2.267-0.635-3.647v-9.177
		c0-1.38,0.211-2.596,0.635-3.647c0.423-1.051,0.996-1.921,1.718-2.611c0.721-0.69,1.584-1.208,2.588-1.554
		c1.003-0.345,2.102-0.518,3.294-0.518c1.16,0,2.25,0.173,3.271,0.518c1.019,0.346,1.89,0.863,2.612,1.554
		c0.722,0.69,1.294,1.561,1.718,2.611c0.424,1.052,0.635,2.268,0.635,3.647v4c0,1.13-0.564,1.694-1.694,1.694h-9.695v3.153
		c0,1.506,0.306,2.534,0.917,3.082c0.612,0.55,1.357,0.824,2.236,0.824c0.909,0,1.624-0.235,2.141-0.706
		S145.112,150.657,145.112,149.841z M139.041,141.605h6.306v-1.554c0-1.506-0.306-2.533-0.917-3.082s-1.357-0.823-2.235-0.823
		c-0.879,0-1.624,0.274-2.236,0.823s-0.917,1.576-0.917,3.082V141.605z"/>
	<path class="st0" d="M162.854,152.146c0.25,0,0.462-0.007,0.635-0.023c0.172-0.015,0.4-0.054,0.682-0.117
		c0.565-0.094,0.988,0.016,1.271,0.329c0.282,0.314,0.423,0.753,0.423,1.318v1.364c0,0.564-0.134,0.965-0.4,1.2
		c-0.267,0.235-0.635,0.4-1.106,0.494c-0.44,0.094-0.855,0.148-1.247,0.165c-0.393,0.015-0.761,0.023-1.106,0.023
		c-0.911,0-1.734-0.11-2.471-0.33c-0.738-0.219-1.373-0.58-1.906-1.082c-0.534-0.502-0.941-1.168-1.224-2
		c-0.282-0.831-0.423-1.843-0.423-3.035v-25.461c0-1.129,0.564-1.694,1.694-1.694h1.694c1.13,0,1.694,0.565,1.694,1.694v25.084
		c0,0.816,0.188,1.365,0.565,1.647S162.414,152.146,162.854,152.146z"/>
	<path class="st0" d="M176.454,152.146c0.25,0,0.462-0.007,0.635-0.023c0.172-0.015,0.4-0.054,0.682-0.117
		c0.565-0.094,0.988,0.016,1.271,0.329c0.282,0.314,0.423,0.753,0.423,1.318v1.364c0,0.564-0.134,0.965-0.4,1.2
		c-0.267,0.235-0.635,0.4-1.106,0.494c-0.44,0.094-0.855,0.148-1.247,0.165c-0.393,0.015-0.761,0.023-1.106,0.023
		c-0.911,0-1.734-0.11-2.471-0.33c-0.738-0.219-1.373-0.58-1.906-1.082c-0.534-0.502-0.941-1.168-1.224-2
		c-0.282-0.831-0.423-1.843-0.423-3.035v-25.461c0-1.129,0.564-1.694,1.694-1.694h1.694c1.13,0,1.694,0.565,1.694,1.694v25.084
		c0,0.816,0.188,1.365,0.565,1.647S176.014,152.146,176.454,152.146z"/>
	<path class="st0" d="M220.643,155.018c0,1.13-0.564,1.694-1.694,1.694h-1.694c-1.13,0-1.694-0.564-1.694-1.694v-15.201
		c0-1.411-0.291-2.376-0.871-2.894c-0.581-0.518-1.279-0.776-2.094-0.776c-0.816,0-1.514,0.259-2.094,0.776
		c-0.581,0.518-0.871,1.482-0.871,2.894v15.201c0,1.13-0.565,1.694-1.694,1.694h-1.694c-1.129,0-1.694-0.564-1.694-1.694v-15.201
		c0-1.411-0.29-2.376-0.871-2.894s-1.278-0.776-2.094-0.776s-1.514,0.259-2.094,0.776s-0.871,1.482-0.871,2.894v15.201
		c0,1.13-0.564,1.694-1.694,1.694h-1.694c-1.129,0-1.694-0.564-1.694-1.694v-16.142c0-1.255,0.188-2.346,0.565-3.271
		c0.376-0.925,0.894-1.701,1.553-2.329c0.659-0.627,1.436-1.098,2.33-1.412c0.894-0.313,1.875-0.471,2.941-0.471
		c1.412,0,2.643,0.306,3.694,0.918c1.051,0.611,1.875,1.482,2.471,2.612c0.596-1.13,1.419-2.001,2.471-2.612
		c1.051-0.612,2.283-0.918,3.694-0.918c1.066,0,2.047,0.157,2.941,0.471c0.894,0.314,1.671,0.785,2.33,1.412
		c0.659,0.628,1.177,1.404,1.553,2.329c0.376,0.926,0.564,2.017,0.564,3.271V155.018z"/>
	<path class="st0" d="M237.302,149.841c0-0.972,0.486-1.459,1.459-1.459h1.93c1.129,0,1.694,0.564,1.694,1.694
		c0,2.134-0.729,3.859-2.188,5.177s-3.396,1.977-5.812,1.977c-1.193,0-2.291-0.173-3.294-0.518
		c-1.004-0.345-1.867-0.862-2.588-1.553c-0.722-0.69-1.294-1.561-1.718-2.612c-0.424-1.051-0.635-2.267-0.635-3.647v-9.177
		c0-1.38,0.211-2.596,0.635-3.647c0.423-1.051,0.996-1.921,1.718-2.611c0.721-0.69,1.584-1.208,2.588-1.554
		c1.003-0.345,2.102-0.518,3.294-0.518c1.16,0,2.25,0.173,3.271,0.518c1.019,0.346,1.89,0.863,2.612,1.554
		c0.722,0.69,1.294,1.561,1.718,2.611c0.424,1.052,0.635,2.268,0.635,3.647v4c0,1.13-0.564,1.694-1.694,1.694h-9.695v3.153
		c0,1.506,0.306,2.534,0.917,3.082c0.612,0.55,1.357,0.824,2.236,0.824c0.909,0,1.624-0.235,2.141-0.706
		S237.302,150.657,237.302,149.841z M231.231,141.605h6.306v-1.554c0-1.506-0.306-2.533-0.917-3.082s-1.357-0.823-2.235-0.823
		c-0.879,0-1.624,0.274-2.236,0.823s-0.917,1.576-0.917,3.082V141.605z"/>
	<path class="st0" d="M58.567,193.961c0-0.972,0.486-1.459,1.459-1.459h1.93c1.129,0,1.694,0.564,1.694,1.694
		c0,2.134-0.729,3.859-2.188,5.177s-3.396,1.977-5.812,1.977c-1.193,0-2.291-0.173-3.294-0.518
		c-1.004-0.345-1.867-0.862-2.588-1.553c-0.722-0.69-1.294-1.561-1.718-2.612c-0.424-1.051-0.635-2.267-0.635-3.647v-9.177
		c0-1.38,0.211-2.596,0.635-3.647c0.423-1.051,0.996-1.921,1.718-2.611c0.721-0.69,1.584-1.208,2.588-1.554
		c1.003-0.345,2.102-0.518,3.294-0.518c1.16,0,2.25,0.173,3.271,0.518c1.019,0.346,1.89,0.863,2.612,1.554
		c0.722,0.69,1.294,1.561,1.718,2.611c0.424,1.052,0.635,2.268,0.635,3.647v4c0,1.13-0.564,1.694-1.694,1.694h-9.695v3.153
		c0,1.506,0.306,2.534,0.917,3.082c0.612,0.55,1.357,0.824,2.236,0.824c0.909,0,1.624-0.235,2.141-0.706
		S58.567,194.777,58.567,193.961z M52.497,185.726h6.306v-1.554c0-1.506-0.306-2.533-0.917-3.082s-1.357-0.823-2.235-0.823
		c-0.879,0-1.624,0.274-2.236,0.823s-0.917,1.576-0.917,3.082V185.726z"/>
	<path class="st0" d="M67.791,177.819c-0.157-0.533-0.11-0.965,0.142-1.295c0.25-0.329,0.643-0.494,1.176-0.494h1.977
		c1.066,0,1.71,0.455,1.93,1.365l4.094,18.73l4.094-18.73c0.219-0.91,0.863-1.365,1.93-1.365h1.835c0.533,0,0.925,0.165,1.176,0.494
		c0.251,0.33,0.298,0.762,0.142,1.295l-5.224,20.612c-0.439,1.601-1.443,2.4-3.012,2.4h-2.024c-1.6,0-2.604-0.8-3.012-2.4
		L67.791,177.819z"/>
	<path class="st0" d="M101.016,193.961c0-0.972,0.486-1.459,1.459-1.459h1.93c1.129,0,1.694,0.564,1.694,1.694
		c0,2.134-0.729,3.859-2.188,5.177s-3.396,1.977-5.812,1.977c-1.193,0-2.291-0.173-3.294-0.518
		c-1.004-0.345-1.867-0.862-2.588-1.553c-0.722-0.69-1.294-1.561-1.718-2.612c-0.424-1.051-0.635-2.267-0.635-3.647v-9.177
		c0-1.38,0.211-2.596,0.635-3.647c0.423-1.051,0.996-1.921,1.718-2.611c0.721-0.69,1.584-1.208,2.588-1.554
		c1.003-0.345,2.102-0.518,3.294-0.518c1.16,0,2.25,0.173,3.271,0.518c1.019,0.346,1.89,0.863,2.612,1.554
		c0.722,0.69,1.294,1.561,1.718,2.611c0.424,1.052,0.635,2.268,0.635,3.647v4c0,1.13-0.564,1.694-1.694,1.694h-9.695v3.153
		c0,1.506,0.306,2.534,0.917,3.082c0.612,0.55,1.357,0.824,2.236,0.824c0.909,0,1.624-0.235,2.141-0.706
		S101.016,194.777,101.016,193.961z M94.945,185.726h6.306v-1.554c0-1.506-0.306-2.533-0.917-3.082s-1.357-0.823-2.235-0.823
		c-0.879,0-1.624,0.274-2.236,0.823s-0.917,1.576-0.917,3.082V185.726z"/>
	<path class="st0" d="M119.934,180.549c-1.099,0-1.882,0.22-2.353,0.658c-0.471,0.44-0.706,1.208-0.706,2.307v15.624
		c0,1.13-0.564,1.694-1.694,1.694h-1.694c-1.129,0-1.694-0.564-1.694-1.694v-16.001c0-2.698,0.651-4.596,1.953-5.694
		c1.301-1.098,3.129-1.647,5.482-1.647c0.345,0,0.713,0.009,1.106,0.023c0.392,0.017,0.824,0.071,1.294,0.165
		c0.439,0.095,0.792,0.259,1.059,0.494c0.266,0.235,0.4,0.636,0.4,1.2v1.365c0,0.564-0.141,1.004-0.424,1.317
		c-0.282,0.313-0.706,0.424-1.271,0.329C120.828,180.596,120.341,180.549,119.934,180.549z"/>
	<path class="st0" d="M138.052,177.725c0-1.129,0.565-1.694,1.694-1.694h1.694c1.129,0,1.694,0.565,1.694,1.694v23.484
		c0,1.38-0.211,2.58-0.635,3.6c-0.423,1.02-0.996,1.859-1.718,2.518c-0.722,0.659-1.593,1.153-2.612,1.482
		c-1.02,0.33-2.11,0.494-3.271,0.494c-1.255,0-2.377-0.181-3.365-0.541c-0.988-0.361-1.828-0.847-2.518-1.459
		c-0.69-0.611-1.216-1.325-1.577-2.141c-0.361-0.816-0.541-1.694-0.541-2.636c0-1.13,0.564-1.694,1.694-1.694h1.93
		c0.972,0,1.459,0.486,1.459,1.459c0,0.689,0.235,1.278,0.706,1.765c0.47,0.486,1.207,0.729,2.212,0.729
		c0.878,0,1.624-0.235,2.235-0.706s0.917-1.459,0.917-2.965v-4.188c-1.099,1.317-2.651,1.977-4.659,1.977
		c-1.945,0-3.553-0.635-4.824-1.906c-1.271-1.271-1.906-3.224-1.906-5.858v-13.413c0-1.129,0.564-1.694,1.694-1.694h1.694
		c1.129,0,1.694,0.565,1.694,1.694v12.519c0,1.506,0.306,2.534,0.917,3.083s1.357,0.823,2.236,0.823
		c0.878,0,1.624-0.274,2.235-0.823s0.917-1.577,0.917-3.083V177.725z"/>
	<path class="st0" d="M158.758,200.832c-0.47,0.094-0.902,0.148-1.294,0.165c-0.393,0.015-0.761,0.023-1.106,0.023
		c-2.259,0-3.985-0.525-5.177-1.577c-1.193-1.051-1.789-2.847-1.789-5.389v-22.4c0-1.13,0.565-1.694,1.694-1.694h1.694
		c1.129,0,1.694,0.564,1.694,1.694v4.376h4.047c1.129,0,1.694,0.565,1.694,1.694v1.365c0,1.129-0.564,1.694-1.694,1.694h-4.047
		v12.895c0,0.973,0.188,1.647,0.564,2.023c0.376,0.377,1.051,0.564,2.024,0.564c0.407,0,0.894-0.047,1.459-0.141
		c0.564-0.094,0.988,0.016,1.271,0.329c0.282,0.314,0.423,0.753,0.423,1.318v1.364c0,0.564-0.134,0.965-0.4,1.2
		C159.55,200.573,159.198,200.738,158.758,200.832z"/>
	<path class="st0" d="M170.053,199.138c0,1.13-0.565,1.694-1.694,1.694h-1.694c-1.129,0-1.694-0.564-1.694-1.694v-30.025
		c0-1.129,0.565-1.694,1.694-1.694h1.694c1.129,0,1.694,0.565,1.694,1.694v8.377c1.098-1.317,2.651-1.977,4.659-1.977
		c0.972,0,1.867,0.157,2.683,0.471c0.815,0.314,1.521,0.793,2.118,1.436c0.596,0.644,1.066,1.451,1.412,2.424
		c0.345,0.973,0.518,2.117,0.518,3.436v15.859c0,1.13-0.564,1.694-1.694,1.694h-1.694c-1.13,0-1.694-0.564-1.694-1.694v-14.966
		c0-1.506-0.306-2.533-0.918-3.082s-1.357-0.823-2.235-0.823c-0.878,0-1.624,0.274-2.235,0.823s-0.917,1.576-0.917,3.082V199.138z"
		/>
	<path class="st0" d="M187.653,169.583c0-1.129,0.565-1.694,1.694-1.694h1.694c1.129,0,1.694,0.565,1.694,1.694v1.601
		c0,1.129-0.565,1.694-1.694,1.694h-1.694c-1.129,0-1.694-0.565-1.694-1.694V169.583z M187.653,177.725
		c0-1.129,0.565-1.694,1.694-1.694h1.694c1.129,0,1.694,0.565,1.694,1.694v21.413c0,1.13-0.565,1.694-1.694,1.694h-1.694
		c-1.129,0-1.694-0.564-1.694-1.694V177.725z"/>
	<path class="st0" d="M213.725,200.832h-1.694c-1.129,0-1.694-0.564-1.694-1.694v-14.966c0-1.506-0.306-2.533-0.918-3.082
		s-1.357-0.823-2.235-0.823c-0.879,0-1.624,0.274-2.235,0.823s-0.918,1.576-0.918,3.082v14.966c0,1.13-0.564,1.694-1.694,1.694
		h-1.694c-1.129,0-1.694-0.564-1.694-1.694v-15.295c0-1.38,0.212-2.596,0.635-3.647c0.424-1.051,0.996-1.921,1.718-2.611
		c0.722-0.69,1.584-1.208,2.588-1.554c1.004-0.345,2.102-0.518,3.294-0.518c1.16,0,2.251,0.173,3.271,0.518
		c1.019,0.346,1.89,0.863,2.612,1.554c0.721,0.69,1.294,1.561,1.718,2.611c0.423,1.052,0.635,2.268,0.635,3.647v15.295
		C215.419,200.268,214.854,200.832,213.725,200.832z"/>
	<path class="st0" d="M232.268,196.926c-1.099,1.317-2.652,1.977-4.659,1.977c-1.946,0-3.553-0.635-4.824-1.906
		c-1.271-1.271-1.906-3.224-1.906-5.858v-7.295c0-1.38,0.212-2.596,0.635-3.647c0.424-1.051,0.996-1.921,1.718-2.611
		c0.722-0.69,1.584-1.208,2.588-1.554c1.004-0.345,2.102-0.518,3.294-0.518c1.161,0,2.251,0.173,3.271,0.518
		c1.019,0.346,1.89,0.863,2.612,1.554c0.721,0.69,1.294,1.561,1.718,2.611c0.423,1.052,0.635,2.268,0.635,3.647v17.366
		c0,1.38-0.212,2.58-0.635,3.6c-0.424,1.02-0.997,1.859-1.718,2.518c-0.722,0.659-1.593,1.153-2.612,1.482
		c-1.02,0.33-2.11,0.494-3.271,0.494c-1.255,0-2.376-0.181-3.365-0.541c-0.988-0.361-1.828-0.847-2.518-1.459
		c-0.69-0.611-1.216-1.325-1.576-2.141c-0.361-0.816-0.542-1.694-0.542-2.636c0-1.13,0.565-1.694,1.694-1.694h1.93
		c0.972,0,1.458,0.486,1.458,1.459c0,0.689,0.235,1.278,0.706,1.765s1.208,0.729,2.212,0.729c0.878,0,1.624-0.235,2.235-0.706
		s0.918-1.459,0.918-2.965V196.926z M232.268,184.172c0-1.506-0.306-2.533-0.918-3.082s-1.357-0.823-2.235-0.823
		c-0.879,0-1.624,0.274-2.235,0.823s-0.917,1.576-0.917,3.082v6.071c0,1.506,0.306,2.534,0.917,3.083s1.356,0.823,2.235,0.823
		c0.878,0,1.624-0.274,2.235-0.823s0.918-1.577,0.918-3.083V184.172z"/>
</g>
<g>
	<path class="st0" d="M138.695,285.133c-0.03,0-0.06,0-0.09-0.001l-0.233-0.007c-2.435-0.096-4.33-2.148-4.234-4.583
		c0.097-2.434,2.155-4.326,4.583-4.233c2.436,0.049,4.402,2.063,4.353,4.5C143.026,283.214,141.09,285.133,138.695,285.133z
		 M153.38,284.772c-2.282,0-4.215-1.758-4.394-4.072c-0.188-2.429,1.629-4.551,4.059-4.738c9.478-0.733,18.875-2.479,27.931-5.187
		c2.335-0.699,4.793,0.63,5.491,2.964s-0.628,4.793-2.963,5.491c-9.657,2.887-19.676,4.747-29.779,5.528
		C153.61,284.769,153.495,284.772,153.38,284.772z M123.907,283.935c-0.197,0-0.396-0.013-0.597-0.04
		c-10.03-1.356-19.929-3.793-29.42-7.242c-2.29-0.832-3.472-3.363-2.64-5.653c0.833-2.29,3.36-3.474,5.654-2.64
		c8.9,3.233,18.183,5.519,27.589,6.791c2.415,0.326,4.107,2.549,3.781,4.964C127.975,282.328,126.081,283.935,123.907,283.935z
		 M196.086,274.453c-1.708,0-3.334-0.994-4.054-2.658c-0.967-2.233,0.051-4.825,2.283-5.796l0.209-0.089
		c2.25-0.931,4.832,0.141,5.762,2.394c0.931,2.252-0.141,4.832-2.393,5.763l-0.061,0.025
		C197.264,274.337,196.67,274.453,196.086,274.453z M81.866,271.166c-0.65,0-1.311-0.145-1.935-0.449l-0.115-0.057
		c-2.194-1.061-3.112-3.698-2.052-5.893c1.061-2.192,3.699-3.114,5.893-2.051l0.15,0.072c2.189,1.07,3.096,3.713,2.026,5.901
		C85.068,270.256,83.499,271.166,81.866,271.166z M209.428,267.982c-1.553,0-3.059-0.821-3.864-2.276
		c-1.18-2.132-0.409-4.816,1.723-5.997c8.282-4.584,16.106-10.075,23.257-16.32c1.835-1.604,4.623-1.414,6.226,0.421
		c1.603,1.836,1.414,4.623-0.421,6.226c-7.621,6.655-15.96,12.507-24.788,17.395C210.884,267.804,210.15,267.982,209.428,267.982z
		 M68.904,263.924c-0.805,0-1.62-0.22-2.352-0.682c-8.535-5.391-16.526-11.713-23.751-18.792c-1.741-1.705-1.77-4.498-0.064-6.239
		c1.705-1.74,4.498-1.771,6.239-0.063c6.781,6.643,14.28,12.576,22.289,17.634c2.06,1.302,2.675,4.026,1.375,6.087
		C71.8,263.196,70.368,263.924,68.904,263.924z M243.989,240.886c-1.067,0-2.137-0.385-2.984-1.163
		c-1.794-1.649-1.912-4.44-0.263-6.234l0.1-0.108c1.649-1.793,4.44-1.911,6.234-0.264c1.794,1.649,1.912,4.44,0.263,6.234
		l-0.1,0.108C246.369,240.405,245.18,240.886,243.989,240.886z M35.953,234.883c-1.275,0-2.541-0.551-3.413-1.613l-0.079-0.097
		c-1.555-1.876-1.295-4.657,0.581-6.212c1.876-1.556,4.658-1.296,6.212,0.581l0.107,0.13c1.546,1.884,1.271,4.664-0.612,6.21
		C37.929,234.555,36.938,234.883,35.953,234.883z M253.479,229.471c-0.917,0-1.84-0.284-2.632-0.874
		c-1.955-1.455-2.359-4.22-0.903-6.174c5.673-7.616,10.539-15.847,14.461-24.462c1.01-2.218,3.628-3.195,5.844-2.188
		c2.218,1.01,3.197,3.626,2.188,5.844c-4.182,9.185-9.368,17.958-15.415,26.077C256.154,228.856,254.825,229.471,253.479,229.471z
		 M27.136,222.946c-1.434,0-2.84-0.697-3.688-1.984c-5.571-8.453-10.242-17.512-13.884-26.924c-0.879-2.272,0.25-4.827,2.522-5.707
		s4.828,0.251,5.707,2.523c3.415,8.826,7.796,17.322,13.022,25.252c1.341,2.034,0.778,4.771-1.256,6.111
		C28.812,222.711,27.969,222.946,27.136,222.946z M273.787,190.518c-0.449,0-0.906-0.069-1.357-0.215
		c-2.318-0.748-3.591-3.235-2.843-5.554l0.06-0.181c0.771-2.312,3.268-3.56,5.581-2.79c2.312,0.771,3.561,3.27,2.791,5.581
		l-0.033,0.101C277.381,189.328,275.65,190.518,273.787,190.518z M9.114,182.89c-1.944,0-3.724-1.294-4.256-3.26l-0.044-0.163
		c-0.625-2.355,0.778-4.771,3.133-5.396c2.354-0.623,4.771,0.778,5.396,3.133l0.032,0.12c0.637,2.352-0.753,4.775-3.105,5.412
		C9.884,182.84,9.496,182.89,9.114,182.89z M277.692,176.19c-0.307,0-0.619-0.032-0.932-0.1c-2.382-0.513-3.898-2.858-3.386-5.241
		c1.983-9.224,2.989-18.73,2.989-28.256c0-2.437,1.976-4.412,4.412-4.412s4.412,1.976,4.412,4.412
		c0,10.147-1.072,20.278-3.187,30.111C281.556,174.774,279.727,176.19,277.692,176.19z M6.047,168.368
		c-2.138,0-4.016-1.558-4.354-3.736C0.569,157.392,0,149.977,0,142.594c0-2.729,0.078-5.49,0.232-8.205
		c0.138-2.434,2.206-4.295,4.655-4.155c2.433,0.139,4.293,2.223,4.155,4.655c-0.145,2.549-0.218,5.142-0.218,7.705
		c0,6.932,0.534,13.891,1.588,20.685c0.374,2.408-1.275,4.663-3.683,5.036C6.5,168.351,6.272,168.368,6.047,168.368z
		 M280.122,133.528c-2.245,0-4.165-1.706-4.386-3.986c-0.916-9.455-2.844-18.816-5.731-27.824c-0.744-2.32,0.535-4.805,2.855-5.548
		c2.32-0.745,4.804,0.533,5.548,2.854c3.079,9.605,5.135,19.587,6.111,29.666c0.235,2.426-1.541,4.582-3.966,4.817
		C280.408,133.521,280.264,133.528,280.122,133.528z M6.243,124.401c-0.228,0-0.457-0.018-0.688-0.055
		c-2.406-0.385-4.052-2.604-3.667-5.01l0.033-0.202c0.417-2.401,2.704-4.013,5.101-3.593c2.401,0.416,4.01,2.7,3.593,5.101
		C10.268,122.817,8.379,124.401,6.243,124.401z M9.439,109.952c-0.391,0-0.788-0.052-1.183-0.162
		c-2.348-0.651-3.723-3.084-3.07-5.432c2.702-9.732,6.465-19.206,11.183-28.158c1.136-2.157,3.804-2.983,5.96-1.847
		c2.156,1.137,2.982,3.805,1.846,5.96c-4.425,8.396-7.954,17.28-10.488,26.406C13.146,108.673,11.372,109.952,9.439,109.952z
		 M268.979,91.05c-1.69,0-3.303-0.977-4.034-2.621l-0.058-0.13c-0.992-2.226,0.008-4.834,2.234-5.826
		c2.225-0.991,4.833,0.008,5.826,2.234l0.062,0.138c0.99,2.227-0.013,4.834-2.24,5.824C270.186,90.928,269.577,91.05,268.979,91.05z
		 M262.243,77.83c-1.522,0-3.003-0.789-3.821-2.201c-4.746-8.191-10.389-15.908-16.771-22.937c-1.638-1.804-1.504-4.594,0.3-6.232
		c1.805-1.636,4.595-1.503,6.232,0.301c6.801,7.489,12.814,15.713,17.873,24.444c1.222,2.108,0.503,4.808-1.605,6.029
		C263.754,77.638,262.994,77.83,262.243,77.83z M27.803,69.995c-0.833,0-1.673-0.234-2.415-0.729
		c-2.028-1.353-2.603-4.051-1.251-6.078l0.109-0.163c1.375-2.013,4.12-2.528,6.132-1.155c2.012,1.374,2.529,4.119,1.155,6.132
		C30.677,69.288,29.25,69.995,27.803,69.995z M36.732,58.187c-1.001,0-2.008-0.339-2.835-1.034c-1.866-1.566-2.108-4.35-0.541-6.216
		c6.499-7.736,13.838-14.803,21.816-21.002c1.923-1.496,4.695-1.148,6.191,0.776c1.495,1.924,1.147,4.695-0.776,6.19
		C53.1,42.72,46.212,49.352,40.113,56.612C39.241,57.651,37.991,58.187,36.732,58.187z M234.474,43.796
		c-1.057,0-2.117-0.378-2.962-1.144c-1.83-1.609-2.038-4.425-0.428-6.254c1.61-1.83,4.368-2.034,6.196-0.425l0.159,0.142
		c1.805,1.637,1.942,4.427,0.305,6.232C236.874,43.308,235.676,43.796,234.474,43.796z M222.875,34.527
		c-0.888,0-1.785-0.267-2.562-0.823c-7.728-5.524-16.051-10.228-24.74-13.979c-2.237-0.966-3.268-3.562-2.301-5.8
		c0.966-2.237,3.564-3.27,5.799-2.302c9.264,4,18.137,9.015,26.374,14.903c1.982,1.417,2.44,4.173,1.023,6.155
		C225.607,33.886,224.251,34.527,222.875,34.527z M69.949,29.442c-1.486,0-2.936-0.751-3.768-2.11
		c-1.271-2.079-0.617-4.795,1.461-6.066l0.061-0.037c2.057-1.306,4.783-0.698,6.09,1.358c1.306,2.057,0.698,4.782-1.358,6.089
		l-0.188,0.117C71.529,29.232,70.734,29.442,69.949,29.442z M82.965,22.319c-1.645,0-3.224-0.924-3.982-2.507
		c-1.053-2.197-0.125-4.832,2.072-5.885c9.117-4.369,18.727-7.766,28.562-10.095c2.368-0.561,4.749,0.905,5.31,3.276
		c0.562,2.371-0.905,4.748-3.276,5.31c-9.223,2.185-18.234,5.369-26.783,9.466C84.253,22.18,83.604,22.319,82.965,22.319z
		 M183.536,14.991c-0.432,0-0.871-0.063-1.305-0.198l-0.153-0.048c-2.326-0.727-3.622-3.201-2.895-5.527
		c0.727-2.325,3.202-3.62,5.527-2.895l0.129,0.04c2.328,0.72,3.631,3.19,2.911,5.519C187.164,13.775,185.419,14.991,183.536,14.991z
		 M169.14,11.371c-0.279,0-0.563-0.027-0.847-0.082c-8.407-1.636-17.054-2.465-25.699-2.465c-0.873,0.008-1.745,0.008-2.612,0.024
		c-2.423,0.072-4.45-1.89-4.498-4.325s1.889-4.449,4.325-4.497c0.928-0.018,1.852-0.024,2.79-0.026
		c9.205,0,18.417,0.884,27.378,2.627c2.392,0.466,3.954,2.781,3.489,5.174C173.056,9.908,171.209,11.371,169.14,11.371z
		 M125.089,9.922c-2.202,0-4.106-1.646-4.375-3.887c-0.291-2.419,1.436-4.615,3.854-4.906l0.059-0.007
		c2.405-0.327,4.638,1.364,4.969,3.771c0.331,2.407-1.332,4.627-3.738,4.967l-0.238,0.031
		C125.441,9.912,125.264,9.922,125.089,9.922z"/>
</g>
<g>
	<g id="Layer0_0_FILL_1_">
		<g>
			<path class="st0" d="M17.343,503c-2.223,0.031-4.215,0.571-5.975,1.621c-1.791,1.05-3.211,2.47-4.261,4.261
				c-1.05,1.76-1.59,3.736-1.621,5.929c0.031,2.223,0.571,4.215,1.621,5.975c1.05,1.791,2.47,3.211,4.261,4.261
				c1.76,1.05,3.752,1.59,5.975,1.621c2.192-0.031,4.169-0.571,5.929-1.621c1.791-1.05,3.211-2.47,4.261-4.261
				c1.05-1.76,1.59-3.752,1.621-5.975c-0.031-2.192-0.571-4.169-1.621-5.929c-1.05-1.791-2.47-3.211-4.261-4.261
				C21.511,503.571,19.535,503.031,17.343,503 M195.526,773.632c1.266-0.988,2.501-2.053,3.705-3.196H83.484
				c1.235,1.143,2.486,2.223,3.752,3.242c15.408,12.691,33.441,19.036,54.099,19.036
				C162.023,792.715,180.086,786.354,195.526,773.632 M255.182,520.786c1.05,1.791,2.455,3.211,4.215,4.261
				c1.791,1.05,3.783,1.59,5.975,1.621c2.192-0.031,4.184-0.571,5.975-1.621c1.76-1.05,3.18-2.47,4.261-4.261
				c1.05-1.76,1.575-3.752,1.575-5.975c0-2.192-0.525-4.169-1.575-5.929c-1.081-1.791-2.501-3.211-4.261-4.261
				c-1.791-1.05-3.783-1.59-5.975-1.621c-2.192,0.031-4.184,0.571-5.975,1.621c-1.76,1.05-3.165,2.47-4.215,4.261
				c-1.05,1.76-1.59,3.736-1.621,5.929C253.592,517.034,254.133,519.026,255.182,520.786 M219.333,423.103
				c-5.867-2.501-12.181-3.783-18.944-3.844H82.326c-6.793,0.062-13.123,1.343-18.99,3.844c-5.898,2.532-11.07,6.021-15.516,10.468
				c-4.447,4.446-7.936,9.603-10.468,15.47c-2.501,5.898-3.767,12.228-3.798,18.99v93.561c0.031,6.793,1.297,13.123,3.798,18.99
				c2.532,5.867,6.021,11.039,10.468,15.516c4.446,4.446,9.619,7.936,15.516,10.468c5.558,2.378,11.548,3.644,17.971,3.798
				c0.34,0,0.679,0,1.019,0h8.198c2.131,0.031,4.061,0.556,5.79,1.575c1.729,1.019,3.088,2.393,4.076,4.122
				c1.019,1.698,1.544,3.613,1.575,5.743c0,0.062,0,0.124,0,0.185c-0.031,2.223-0.54,4.246-1.528,6.068
				c-0.031,0.031-0.062,0.077-0.093,0.139c-0.154,0.278-0.309,0.54-0.463,0.787c-0.093,0.124-0.185,0.232-0.278,0.324
				c-0.154,0.247-0.309,0.463-0.463,0.648c-0.093,0.093-0.17,0.201-0.232,0.324c-0.278,0.278-0.556,0.571-0.834,0.88
				c-0.34,0.309-0.664,0.602-0.973,0.88c-0.34,0.278-0.664,0.54-0.973,0.787c-0.309,0.154-0.618,0.34-0.926,0.556
				c-5.218,3.397-10.159,7.426-14.822,12.089c-0.834,0.834-1.637,1.667-2.408,2.501c-15.254,16.335-22.881,35.834-22.881,58.499
				c0,21.677,6.978,40.466,20.935,56.368c0.031,0.062,0.093,0.108,0.185,0.139c0.834,0.957,1.822,1.698,2.964,2.223
				c1.173,0.494,2.408,0.757,3.705,0.787l117.137-0.093c1.266,0,2.455-0.262,3.566-0.787c1.173-0.525,2.162-1.251,2.964-2.177
				l0.139-0.139c13.926-15.902,20.889-34.676,20.889-56.322c0-23.838-8.414-44.171-25.243-61c-4.632-4.632-9.541-8.63-14.729-11.996
				c-0.432-0.309-0.849-0.587-1.251-0.834c-0.648-0.432-1.251-0.942-1.806-1.528c-2.007-2.007-3.227-4.308-3.659-6.901h-0.046
				c0-0.062,0-0.293,0-0.695c0-0.371-0.015-0.865-0.046-1.482c-0.031-2.161,0.463-4.122,1.482-5.882
				c1.019-1.76,2.393-3.15,4.122-4.169c1.729-1.05,3.674-1.59,5.836-1.621h8.152c6.762-0.031,13.077-1.297,18.944-3.798
				c5.898-2.532,11.07-6.021,15.516-10.468c4.446-4.477,7.936-9.649,10.468-15.516c2.501-5.867,3.783-12.197,3.844-18.99V468.03
				c-0.062-6.762-1.343-13.092-3.844-18.99c-2.532-5.867-6.021-11.024-10.468-15.47C230.403,429.124,225.23,425.635,219.333,423.103
				 M227.624,514.811c0,23.838-8.43,44.156-25.289,60.954c-16.829,16.859-37.162,25.289-61,25.289
				c-14.76,0-28.192-3.227-40.296-9.68c-7.411-3.983-14.328-9.186-20.75-15.609c-16.767-16.798-25.15-37.116-25.15-60.954
				c0-23.838,8.383-44.187,25.15-61.046c16.86-16.767,37.208-25.15,61.046-25.15c23.838-0.031,44.171,8.353,61,25.15
				C219.194,470.624,227.624,490.973,227.624,514.811 M178.203,669.743c10.097,10.097,15.146,22.325,15.146,36.683
				c0,14.328-5.049,26.571-15.146,36.73c-10.19,10.128-22.448,15.192-36.776,15.192c-14.358,0-26.602-5.064-36.73-15.192
				c-10.097-10.128-15.146-22.371-15.146-36.73c0-14.327,5.049-26.555,15.146-36.683c3.952-3.983,8.245-7.179,12.876-9.588
				c7.164-3.767,15.115-5.651,23.853-5.651C155.754,654.504,168.013,659.584,178.203,669.743 M188.81,706.38
				c0-13.092-4.601-24.255-13.803-33.487c-9.325-9.294-20.534-13.942-33.626-13.942c-6.207,0-11.996,1.065-17.369,3.196
				c-5.898,2.285-11.271,5.867-16.118,10.746c-9.263,9.233-13.895,20.395-13.895,33.487c0,13.092,4.632,24.286,13.895,33.58
				c9.263,9.233,20.426,13.864,33.487,13.895c13.092-0.031,24.301-4.663,33.626-13.895
				C184.209,730.665,188.81,719.472,188.81,706.38 M154.581,699.339c0.154,0.154,0.386,0.201,0.695,0.139l5.697-1.204l-1.482,5.651
				c-0.124,0.401-0.216,0.741-0.278,1.019c-0.062,0.309-0.062,0.54,0,0.695c0.093,0.154,0.293,0.309,0.602,0.463l2.038,0.973
				l-9.866,8.291c-0.185,0.154-0.309,0.371-0.371,0.648c-0.124,0.216-0.124,0.463,0,0.741l0.834,2.964
				c-1.143-0.154-2.239-0.293-3.289-0.417c-1.112-0.124-2.192-0.263-3.242-0.417c-1.05-0.124-2.115-0.247-3.196-0.371l0.787,10.329
				h-3.983l0.695-10.329c-0.031,0-0.062,0-0.093,0c-1.112,0.123-2.208,0.247-3.289,0.371c-1.05,0.154-2.115,0.293-3.196,0.417
				c-1.05,0.123-2.146,0.262-3.289,0.417l0.926-2.964c0.031-0.278,0-0.525-0.093-0.741c-0.093-0.278-0.216-0.494-0.371-0.648
				l-9.866-8.291l2.038-0.973c0.278-0.154,0.463-0.309,0.556-0.463c0.062-0.154,0.062-0.386,0-0.695
				c-0.062-0.278-0.139-0.618-0.232-1.019l-1.528-5.651l5.743,1.204c0.247,0.062,0.463,0.015,0.648-0.139
				c0.185-0.123,0.309-0.278,0.371-0.463l0.741-2.686l4.493,5.28c0.154,0.185,0.34,0.34,0.556,0.463
				c0.216,0.093,0.417,0.093,0.602,0c0.185-0.062,0.309-0.216,0.371-0.463c0.093-0.247,0.077-0.618-0.046-1.112l-1.853-10.653
				l2.547,1.39c0.401,0.247,0.757,0.37,1.065,0.37c0.309-0.062,0.556-0.262,0.741-0.602l3.613-6.994l3.613,6.994
				c0.185,0.34,0.448,0.54,0.787,0.602c0.309,0,0.664-0.123,1.065-0.37l2.594-1.39l-1.945,10.653
				c-0.123,0.494-0.139,0.865-0.046,1.112s0.232,0.401,0.417,0.463c0.185,0.093,0.371,0.093,0.556,0
				c0.216-0.124,0.417-0.278,0.602-0.463l4.493-5.28l0.787,2.686C154.334,699.061,154.427,699.216,154.581,699.339"/>
		</g>
	</g>
	<g>
		<g id="Layer0_0_1_STROKES_1_">
			<g>
				<path class="st0" d="M141.334,566.186c-5.742,0-10.733-2.058-14.834-6.117c-4.068-4.11-6.111-9.069-6.111-14.781
					c0-3.1,2.513-5.614,5.614-5.614c3.101,0,5.614,2.513,5.614,5.614c0,2.723,0.897,4.897,2.823,6.843
					c1.937,1.917,4.141,2.828,6.895,2.828c2.743,0,4.926-0.905,6.869-2.848c1.955-1.955,2.876-4.136,2.895-6.863
					c0.023-3.086,2.532-5.573,5.613-5.573c0.014,0,0.028,0,0.042,0c3.101,0.023,5.595,2.554,5.573,5.655
					c-0.042,5.707-2.122,10.66-6.184,14.721C152.07,564.121,147.087,566.186,141.334,566.186z M89.266,545.529
					c-8.496,0.02-15.846-2.96-21.827-8.904c-0.071-0.07-0.14-0.142-0.206-0.216l-1.762-1.946c-0.053-0.059-0.105-0.119-0.156-0.18
					c-4.608-5.553-6.945-12.088-6.945-19.426c0-7.368,2.337-13.92,6.945-19.472c0.05-0.06,0.102-0.12,0.155-0.178l1.764-1.949
					c0.062-0.069,0.126-0.136,0.192-0.201c5.946-5.947,13.25-8.963,21.709-8.963s15.763,3.015,21.71,8.962
					c6.008,6.009,9.055,13.344,9.055,21.802c0,8.427-3.047,15.746-9.055,21.755C104.926,542.53,97.667,545.529,89.266,545.529z
					 M75.452,528.76c3.823,3.752,8.335,5.542,13.788,5.542c5.416,0,9.878-1.842,13.665-5.628c3.88-3.881,5.766-8.4,5.766-13.816
					c0-5.448-1.887-9.982-5.767-13.863c-3.818-3.818-8.322-5.674-13.77-5.674c-5.404,0-9.879,1.826-13.676,5.58l-1.576,1.742
					c-2.883,3.511-4.285,7.509-4.285,12.215c0,4.675,1.402,8.657,4.285,12.169L75.452,528.76z M193.063,545.529
					c-0.052,0-0.104,0-0.156,0c-8.419,0-15.73-2.991-21.705-8.891c-0.041-0.041-0.082-0.082-0.121-0.124
					c-0.678-0.712-1.335-1.439-1.955-2.161c-0.025-0.029-0.05-0.058-0.074-0.088c-4.568-5.55-6.883-12.079-6.883-19.408
					c0-7.359,2.316-13.905,6.883-19.454c0.024-0.029,0.048-0.058,0.073-0.087c0.621-0.724,1.279-1.452,1.957-2.164
					c0.036-0.037,0.072-0.073,0.107-0.11c5.976-5.939,13.292-8.95,21.743-8.95c8.466,0,15.758,3.02,21.675,8.975
					c5.996,5.995,9.042,13.33,9.042,21.789c0,8.428-3.047,15.747-9.056,21.756C208.719,542.525,201.472,545.529,193.063,545.529z
					 M179.151,528.708c3.864,3.787,8.393,5.596,13.887,5.593c5.408,0,9.851-1.837,13.605-5.615c3.893-3.893,5.78-8.412,5.78-13.829
					c0-5.448-1.887-9.983-5.766-13.863c-3.798-3.822-8.283-5.674-13.724-5.674c-5.43,0-9.937,1.843-13.776,5.634
					c-0.51,0.538-1.004,1.084-1.471,1.626c-2.886,3.526-4.29,7.543-4.29,12.277c0,4.703,1.403,8.704,4.289,12.23
					C178.149,527.627,178.642,528.172,179.151,528.708z"/>
			</g>
		</g>
	</g>
	<g>
		<path class="st0" d="M95.574,414.673h91.477c2.987,0,5.778-1.489,7.442-3.969l9.659-14.401l-6.676-1.21
			c-0.926-0.149-1.598-0.463-2.016-0.941c-0.269-0.358-0.448-1.016-0.538-1.971c0-0.807,0-1.852,0-3.136l-0.134-17.474
			l-15.503,7.931c-0.866,0.388-1.538,0.433-2.016,0.134c-0.627-0.239-1.061-0.597-1.3-1.075l-4.436-6.945l-6.94,13.727
			c-0.925,1.829-3.699,0.924-3.368-1.098l3.946-24.099l-7.662,4.212c-1.165,0.627-2.195,0.941-3.091,0.941
			c-1.076-0.09-1.882-0.672-2.42-1.747l-10.753-20.835l-10.753,20.835c-0.627,1.075-1.389,1.658-2.285,1.747
			c-0.986,0-2.061-0.314-3.226-0.941l-7.483-4.212l3.979,24.64c0.326,2.022-2.447,2.922-3.369,1.093l-7.107-14.084l-4.257,7.303
			c-0.329,0.448-0.777,0.792-1.344,1.03c-0.627,0.299-1.3,0.254-2.016-0.134l-15.548-7.931l-0.179,17.519
			c0.03,1.314,0.045,2.375,0.045,3.181c-0.09,0.926-0.314,1.553-0.672,1.882c-0.299,0.478-0.926,0.792-1.882,0.941l-6.631,1.255
			l9.694,13.978C89.884,413.233,92.636,414.673,95.574,414.673z"/>
	</g>
</g>
<g>
	<path class="st0" d="M261.855,404.173c-0.7,0-1.411-0.167-2.072-0.521c-2.15-1.146-2.963-3.818-1.817-5.969l0.071-0.132
		c1.148-2.15,3.821-2.961,5.97-1.813s2.961,3.82,1.813,5.97l-0.068,0.128C264.958,403.325,263.433,404.173,261.855,404.173z
		 M268.267,390.78c-0.574,0-1.157-0.112-1.719-0.351c-2.244-0.95-3.292-3.539-2.342-5.783c3.765-8.89,6.636-18.038,8.534-27.191
		c0.495-2.386,2.831-3.918,5.216-3.425c2.386,0.495,3.919,2.83,3.424,5.216c-2.016,9.718-5.061,19.422-9.05,28.842
		C271.619,389.77,269.986,390.78,268.267,390.78z M279.31,348.235c-0.147,0-0.295-0.007-0.444-0.022
		c-2.425-0.242-4.194-2.404-3.951-4.829l0.015-0.146c0.243-2.424,2.406-4.201,4.829-3.95c2.425,0.242,4.194,2.404,3.951,4.829
		l-0.015,0.146C283.467,346.537,281.548,348.235,279.31,348.235z M280.039,333.408c-2.432,0-4.406-1.969-4.412-4.401
		c-0.022-9.394-1.008-18.929-2.929-28.34c-0.487-2.388,1.053-4.719,3.44-5.206c2.389-0.489,4.718,1.053,5.205,3.44
		c2.038,9.984,3.083,20.106,3.107,30.084c0.006,2.437-1.965,4.417-4.402,4.423C280.046,333.408,280.042,333.408,280.039,333.408z
		 M273.398,289.943c-1.878,0-3.62-1.209-4.209-3.097l-0.056-0.182c-0.705-2.332,0.615-4.794,2.948-5.499
		c2.332-0.703,4.795,0.615,5.5,2.948l0.03,0.1c0.727,2.326-0.569,4.801-2.895,5.527
		C274.278,289.878,273.834,289.943,273.398,289.943z M268.417,275.949c-1.738,0-3.385-1.033-4.084-2.741
		c-6.411-15.658-13.188-24.922-13.256-25.014c-1.447-1.961-1.031-4.723,0.93-6.17c1.96-1.448,4.723-1.031,6.17,0.93
		c0.303,0.411,7.5,10.248,14.322,26.91c0.923,2.255-0.156,4.832-2.411,5.755C269.54,275.843,268.973,275.949,268.417,275.949z"/>
</g>
</svg>