<!-- Generator: Adobe Illustrator 21.0.0, SVG Export Plug-In  -->
<svg version="1.1"
	 xmlns="http://www.w3.org/2000/svg" xmlns:xlink="http://www.w3.org/1999/xlink" xmlns:a="http://ns.adobe.com/AdobeSVGViewerExtensions/3.0/"
	 x="0px" y="0px" width="649.086px" height="698.411px" viewBox="0 0 649.086 698.411"
	 style="enable-background:new 0 0 649.086 698.411;" xml:space="preserve">
<style type="text/css">
	.st0{fill:#E6E7E8;}
	.st1{fill:#FFFFFF;}
	.st2{fill:#FF0000;}
</style>
<defs>
</defs>
<g>
	<path class="st0" d="M596.696,442.329H52.39C23.502,442.329,0,418.827,0,389.938s23.502-52.391,52.39-52.391h544.306
		c28.888,0,52.39,23.502,52.39,52.391S625.584,442.329,596.696,442.329z M52.39,339.897c-27.592,0-50.041,22.448-50.041,50.041
		s22.448,50.041,50.041,50.041h544.306c27.592,0,50.041-22.448,50.041-50.041s-22.448-50.041-50.041-50.041H52.39z"/>
</g>
<g>
	<path class="st0" d="M596.696,570.515H52.39C23.502,570.515,0,547.013,0,518.124s23.502-52.391,52.39-52.391h544.306
		c28.888,0,52.39,23.502,52.39,52.391S625.584,570.515,596.696,570.515z M52.39,468.083c-27.592,0-50.041,22.448-50.041,50.041
		s22.448,50.041,50.041,50.041h544.306c27.592,0,50.041-22.448,50.041-50.041s-22.448-50.041-50.041-50.041H52.39z"/>
</g>
<g>
	<path class="st1" d="M293.269,398.353h-2.25v-15h2.22v1.05c1.62-0.899,3.17-1.35,4.65-1.35c2,0,3.345,0.54,4.035,1.62
		s1.035,3,1.035,5.76v7.92h-2.22v-7.86c0-2.079-0.205-3.505-0.615-4.274c-0.41-0.77-1.286-1.155-2.625-1.155
		c-0.641,0-1.315,0.095-2.025,0.285c-0.71,0.19-1.255,0.375-1.635,0.555l-0.57,0.271V398.353z"/>
	<path class="st1" d="M317.718,387.884v7.68c0.06,0.74,0.64,1.181,1.74,1.32l-0.09,1.77c-1.58,0-2.77-0.399-3.57-1.2
		c-1.8,0.801-3.6,1.2-5.4,1.2c-1.38,0-2.43-0.39-3.15-1.17c-0.72-0.78-1.08-1.899-1.08-3.36c0-1.459,0.37-2.534,1.11-3.225
		c0.74-0.689,1.9-1.114,3.48-1.275l4.71-0.449v-1.29c0-1.021-0.22-1.75-0.66-2.19c-0.44-0.439-1.04-0.66-1.8-0.66
		c-1.601,0-3.26,0.101-4.98,0.301l-0.93,0.09l-0.09-1.71c2.2-0.44,4.15-0.66,5.85-0.66c1.7,0,2.935,0.39,3.705,1.17
		C317.333,385.004,317.718,386.224,317.718,387.884z M308.478,394.004c0,1.84,0.76,2.76,2.28,2.76c1.36,0,2.7-0.229,4.02-0.69
		l0.69-0.239v-4.95l-4.44,0.42c-0.9,0.08-1.55,0.34-1.95,0.78C308.677,392.523,308.478,393.163,308.478,394.004z"/>
	<path class="st1" d="M324.408,398.353h-2.25v-15h2.22v1.05c1.5-0.899,2.96-1.35,4.38-1.35c1.86,0,3.16,0.51,3.9,1.53
		c0.66-0.4,1.515-0.755,2.565-1.065c1.05-0.31,1.975-0.465,2.775-0.465c2,0,3.345,0.535,4.035,1.604
		c0.69,1.07,1.035,2.996,1.035,5.775v7.92h-2.25v-7.86c0-2.079-0.2-3.505-0.6-4.274c-0.4-0.77-1.25-1.155-2.55-1.155
		c-0.66,0-1.34,0.095-2.04,0.285s-1.24,0.375-1.62,0.555l-0.57,0.271c0.26,0.66,0.39,2.12,0.39,4.38v7.8h-2.25v-7.74
		c0-2.16-0.195-3.625-0.585-4.395c-0.39-0.77-1.245-1.155-2.565-1.155c-0.641,0-1.295,0.095-1.965,0.285s-1.185,0.375-1.545,0.555
		l-0.51,0.271V398.353z"/>
	<path class="st1" d="M357.438,396.493l0.87-0.09l0.06,1.771c-2.28,0.319-4.23,0.479-5.85,0.479c-2.16,0-3.69-0.625-4.59-1.875
		c-0.9-1.249-1.35-3.194-1.35-5.835c0-5.26,2.09-7.89,6.27-7.89c2.02,0,3.53,0.565,4.53,1.694c1,1.131,1.5,2.906,1.5,5.325
		l-0.12,1.71h-9.9c0,1.66,0.3,2.891,0.9,3.69c0.6,0.8,1.645,1.2,3.135,1.2C354.382,396.674,355.897,396.613,357.438,396.493z
		 M356.627,389.983c0-1.84-0.295-3.14-0.885-3.899c-0.59-0.761-1.55-1.141-2.88-1.141c-1.331,0-2.33,0.4-3,1.2
		c-0.67,0.8-1.016,2.08-1.035,3.84H356.627z"/>
</g>
<g>
	<path class="st1" d="M302.523,524.679l0.87-0.09l0.06,1.771c-2.28,0.319-4.23,0.479-5.85,0.479c-2.16,0-3.69-0.625-4.59-1.875
		c-0.9-1.249-1.35-3.194-1.35-5.835c0-5.26,2.09-7.89,6.27-7.89c2.02,0,3.53,0.565,4.53,1.694c1,1.131,1.5,2.906,1.5,5.325
		l-0.12,1.71h-9.9c0,1.66,0.3,2.891,0.9,3.69c0.6,0.8,1.645,1.2,3.135,1.2C299.468,524.859,300.983,524.799,302.523,524.679z
		 M301.713,518.169c0-1.84-0.295-3.14-0.885-3.899c-0.59-0.761-1.55-1.141-2.88-1.141c-1.331,0-2.33,0.4-3,1.2
		c-0.67,0.8-1.016,2.08-1.035,3.84H301.713z"/>
	<path class="st1" d="M309.724,526.539h-2.25v-15h2.22v1.05c1.5-0.899,2.96-1.35,4.38-1.35c1.86,0,3.16,0.51,3.9,1.53
		c0.66-0.4,1.515-0.755,2.565-1.065c1.05-0.31,1.975-0.465,2.775-0.465c2,0,3.345,0.535,4.035,1.604
		c0.69,1.07,1.035,2.996,1.035,5.775v7.92h-2.25v-7.86c0-2.079-0.2-3.505-0.6-4.274c-0.4-0.77-1.25-1.155-2.55-1.155
		c-0.66,0-1.34,0.095-2.04,0.285s-1.24,0.375-1.62,0.555l-0.57,0.271c0.26,0.66,0.39,2.12,0.39,4.38v7.8h-2.25v-7.74
		c0-2.16-0.195-3.625-0.585-4.395c-0.39-0.77-1.245-1.155-2.565-1.155c-0.641,0-1.295,0.095-1.965,0.285s-1.185,0.375-1.545,0.555
		l-0.51,0.271V526.539z"/>
	<path class="st1" d="M343.143,516.069v7.68c0.06,0.74,0.64,1.181,1.74,1.32l-0.09,1.77c-1.58,0-2.77-0.399-3.57-1.2
		c-1.8,0.801-3.6,1.2-5.4,1.2c-1.38,0-2.43-0.39-3.15-1.17c-0.72-0.78-1.08-1.899-1.08-3.36c0-1.459,0.37-2.534,1.11-3.225
		c0.74-0.689,1.9-1.114,3.48-1.275l4.71-0.449v-1.29c0-1.021-0.22-1.75-0.66-2.19c-0.44-0.439-1.04-0.66-1.8-0.66
		c-1.601,0-3.26,0.101-4.98,0.301l-0.93,0.09l-0.09-1.71c2.2-0.44,4.15-0.66,5.85-0.66c1.7,0,2.935,0.39,3.705,1.17
		C342.758,513.189,343.143,514.409,343.143,516.069z M333.903,522.189c0,1.84,0.76,2.76,2.28,2.76c1.36,0,2.7-0.229,4.02-0.69
		l0.69-0.239v-4.95l-4.44,0.42c-0.9,0.08-1.55,0.34-1.95,0.78C334.103,520.709,333.903,521.349,333.903,522.189z"/>
	<path class="st1" d="M347.583,508.149v-2.61h2.25v2.61H347.583z M347.583,526.539v-15h2.25v15H347.583z"/>
	<path class="st1" d="M354.333,526.539v-21.54h2.25v21.54H354.333z"/>
</g>
<path class="st1" d="M596.696,698.411H52.39c-28.169,0-51.216-23.047-51.216-51.216v0c0-28.169,23.047-51.216,51.216-51.216h544.305
	c28.169,0,51.216,23.047,51.216,51.216v0C647.911,675.364,624.864,698.411,596.696,698.411z"/>
<g>
	<path class="st1" d="M128.62,257.127v-20.76h12.63v2.04h-10.32v7.17h8.52v2.01h-8.52v7.5h10.32v2.04H128.62z"/>
	<path class="st1" d="M147.07,257.127h-2.25v-15h2.22v1.05c1.62-0.899,3.17-1.35,4.65-1.35c2,0,3.345,0.54,4.035,1.62
		s1.035,3,1.035,5.76v7.92h-2.22v-7.86c0-2.079-0.205-3.505-0.615-4.274c-0.41-0.77-1.286-1.155-2.625-1.155
		c-0.641,0-1.315,0.095-2.025,0.285c-0.71,0.19-1.255,0.375-1.635,0.555l-0.57,0.271V257.127z"/>
	<path class="st1" d="M168.61,244.077h-4.77v7.17c0,1.72,0.125,2.85,0.375,3.39c0.25,0.54,0.845,0.811,1.785,0.811l2.67-0.181
		l0.15,1.86c-1.34,0.22-2.36,0.33-3.06,0.33c-1.56,0-2.64-0.38-3.24-1.14c-0.6-0.761-0.9-2.21-0.9-4.351v-7.89h-2.13v-1.95h2.13
		v-4.59h2.22v4.59h4.77V244.077z"/>
	<path class="st1" d="M181.569,255.267l0.87-0.09l0.06,1.771c-2.28,0.319-4.23,0.479-5.85,0.479c-2.16,0-3.69-0.625-4.59-1.875
		c-0.9-1.249-1.35-3.194-1.35-5.835c0-5.26,2.09-7.89,6.27-7.89c2.02,0,3.53,0.565,4.53,1.694c1,1.131,1.5,2.906,1.5,5.325
		l-0.12,1.71h-9.9c0,1.66,0.3,2.891,0.9,3.69c0.6,0.8,1.645,1.2,3.135,1.2C178.514,255.447,180.029,255.387,181.569,255.267z
		 M180.759,248.757c0-1.84-0.295-3.14-0.885-3.899c-0.59-0.761-1.55-1.141-2.88-1.141c-1.331,0-2.33,0.4-3,1.2
		c-0.67,0.8-1.016,2.08-1.035,3.84H180.759z"/>
	<path class="st1" d="M186.52,257.127v-15h2.22v2.04c1.74-1.2,3.57-1.99,5.49-2.37v2.28c-0.84,0.16-1.715,0.41-2.625,0.75
		c-0.911,0.34-1.605,0.64-2.085,0.899l-0.75,0.391v11.01H186.52z"/>
	<path class="st1" d="M202.089,242.127h2.25l3.75,13.05h0.99l3.78-13.05h2.25l-6.24,21.66h-2.25l1.95-6.66h-2.22L202.089,242.127z"
		/>
	<path class="st1" d="M217.059,249.597c0-2.739,0.49-4.72,1.47-5.939c0.979-1.22,2.635-1.83,4.965-1.83c2.33,0,3.979,0.61,4.95,1.83
		s1.455,3.2,1.455,5.939c0,2.74-0.46,4.73-1.38,5.971s-2.6,1.859-5.04,1.859c-2.44,0-4.12-0.619-5.04-1.859
		S217.059,252.337,217.059,249.597z M219.369,249.552c0,2.19,0.265,3.726,0.795,4.605c0.53,0.88,1.64,1.319,3.33,1.319
		c1.69,0,2.794-0.435,3.315-1.305c0.52-0.87,0.78-2.404,0.78-4.604s-0.29-3.715-0.87-4.546c-0.581-0.829-1.655-1.244-3.225-1.244
		c-1.57,0-2.65,0.415-3.24,1.244C219.664,245.852,219.369,247.362,219.369,249.552z"/>
	<path class="st1" d="M242.919,242.127h2.25v15h-2.25v-1.05c-1.5,0.899-2.98,1.35-4.44,1.35c-2.04,0-3.395-0.529-4.065-1.59
		c-0.67-1.06-1.005-3.02-1.005-5.88v-7.83h2.25v7.8c0,2.181,0.19,3.641,0.57,4.38c0.379,0.74,1.24,1.11,2.58,1.11
		c0.66,0,1.33-0.095,2.01-0.285c0.68-0.189,1.2-0.375,1.56-0.555l0.54-0.271V242.127z"/>
	<path class="st1" d="M249.489,257.127v-15h2.22v2.04c1.74-1.2,3.57-1.99,5.49-2.37v2.28c-0.84,0.16-1.715,0.41-2.625,0.75
		c-0.911,0.34-1.605,0.64-2.085,0.899l-0.75,0.391v11.01H249.489z"/>
	<path class="st1" d="M276.668,255.267l0.87-0.09l0.06,1.771c-2.28,0.319-4.23,0.479-5.85,0.479c-2.16,0-3.69-0.625-4.59-1.875
		c-0.9-1.249-1.35-3.194-1.35-5.835c0-5.26,2.09-7.89,6.27-7.89c2.02,0,3.53,0.565,4.53,1.694c1,1.131,1.5,2.906,1.5,5.325
		l-0.12,1.71h-9.9c0,1.66,0.3,2.891,0.9,3.69c0.6,0.8,1.645,1.2,3.135,1.2C273.613,255.447,275.128,255.387,276.668,255.267z
		 M275.858,248.757c0-1.84-0.295-3.14-0.885-3.899c-0.59-0.761-1.55-1.141-2.88-1.141c-1.331,0-2.33,0.4-3,1.2
		c-0.67,0.8-1.016,2.08-1.035,3.84H275.858z"/>
	<path class="st1" d="M281.498,249.927v-2.1h9.09v2.1H281.498z"/>
	<path class="st1" d="M297.008,257.127h-2.25v-15h2.22v1.05c1.5-0.899,2.96-1.35,4.38-1.35c1.86,0,3.16,0.51,3.9,1.53
		c0.66-0.4,1.515-0.755,2.565-1.065c1.05-0.31,1.975-0.465,2.775-0.465c2,0,3.345,0.535,4.035,1.604
		c0.69,1.07,1.035,2.996,1.035,5.775v7.92h-2.25v-7.86c0-2.079-0.2-3.505-0.6-4.274c-0.4-0.77-1.25-1.155-2.55-1.155
		c-0.66,0-1.34,0.095-2.04,0.285s-1.24,0.375-1.62,0.555l-0.57,0.271c0.26,0.66,0.39,2.12,0.39,4.38v7.8h-2.25v-7.74
		c0-2.16-0.195-3.625-0.585-4.395c-0.39-0.77-1.245-1.155-2.565-1.155c-0.641,0-1.295,0.095-1.965,0.285s-1.185,0.375-1.545,0.555
		l-0.51,0.271V257.127z"/>
	<path class="st1" d="M330.428,246.657v7.68c0.06,0.74,0.64,1.181,1.74,1.32l-0.09,1.77c-1.58,0-2.77-0.399-3.57-1.2
		c-1.8,0.801-3.6,1.2-5.4,1.2c-1.38,0-2.43-0.39-3.15-1.17c-0.72-0.78-1.08-1.899-1.08-3.36c0-1.459,0.37-2.534,1.11-3.225
		c0.74-0.689,1.9-1.114,3.48-1.275l4.71-0.449v-1.29c0-1.021-0.22-1.75-0.66-2.19c-0.44-0.439-1.04-0.66-1.8-0.66
		c-1.601,0-3.26,0.101-4.98,0.301l-0.93,0.09l-0.09-1.71c2.2-0.44,4.15-0.66,5.85-0.66c1.7,0,2.935,0.39,3.705,1.17
		C330.042,243.777,330.428,244.997,330.428,246.657z M321.188,252.777c0,1.84,0.76,2.76,2.28,2.76c1.36,0,2.7-0.229,4.02-0.69
		l0.69-0.239v-4.95l-4.44,0.42c-0.9,0.08-1.55,0.34-1.95,0.78C321.387,251.297,321.188,251.936,321.188,252.777z"/>
	<path class="st1" d="M334.868,238.737v-2.61h2.25v2.61H334.868z M334.868,257.127v-15h2.25v15H334.868z"/>
	<path class="st1" d="M341.617,257.127v-21.54h2.25v21.54H341.617z"/>
	<path class="st1" d="M362.737,244.077h-4.77v7.17c0,1.72,0.125,2.85,0.375,3.39c0.25,0.54,0.845,0.811,1.785,0.811l2.67-0.181
		l0.15,1.86c-1.34,0.22-2.36,0.33-3.06,0.33c-1.56,0-2.64-0.38-3.24-1.14c-0.6-0.761-0.9-2.21-0.9-4.351v-7.89h-2.13v-1.95h2.13
		v-4.59h2.22v4.59h4.77V244.077z"/>
	<path class="st1" d="M364.836,249.597c0-2.739,0.49-4.72,1.47-5.939c0.979-1.22,2.635-1.83,4.965-1.83c2.33,0,3.979,0.61,4.95,1.83
		s1.455,3.2,1.455,5.939c0,2.74-0.46,4.73-1.38,5.971s-2.6,1.859-5.04,1.859c-2.44,0-4.12-0.619-5.04-1.859
		S364.836,252.337,364.836,249.597z M367.146,249.552c0,2.19,0.265,3.726,0.795,4.605c0.53,0.88,1.64,1.319,3.33,1.319
		c1.69,0,2.794-0.435,3.315-1.305c0.52-0.87,0.78-2.404,0.78-4.604s-0.29-3.715-0.87-4.546c-0.581-0.829-1.655-1.244-3.225-1.244
		c-1.57,0-2.65,0.415-3.24,1.244C367.441,245.852,367.146,247.362,367.146,249.552z"/>
	<path class="st1" d="M394.566,241.827c2.02,0,3.435,0.575,4.245,1.725c0.81,1.15,1.215,3.165,1.215,6.045s-0.505,4.905-1.515,6.075
		c-1.01,1.17-2.865,1.755-5.565,1.755c-0.84,0-2.23-0.08-4.17-0.24l-0.84-0.09v-21.51h2.22v7.29
		C391.676,242.177,393.146,241.827,394.566,241.827z M392.916,255.417c1.959,0,3.255-0.445,3.885-1.335s0.945-2.395,0.945-4.515
		s-0.25-3.605-0.75-4.455c-0.5-0.851-1.391-1.275-2.67-1.275c-1.16,0-2.35,0.221-3.57,0.66l-0.6,0.21v10.56
		C391.456,255.367,392.376,255.417,392.916,255.417z"/>
	<path class="st1" d="M413.916,255.267l0.87-0.09l0.06,1.771c-2.28,0.319-4.23,0.479-5.85,0.479c-2.16,0-3.69-0.625-4.59-1.875
		c-0.9-1.249-1.35-3.194-1.35-5.835c0-5.26,2.09-7.89,6.27-7.89c2.02,0,3.53,0.565,4.53,1.694c1,1.131,1.5,2.906,1.5,5.325
		l-0.12,1.71h-9.9c0,1.66,0.3,2.891,0.9,3.69c0.6,0.8,1.645,1.2,3.135,1.2C410.86,255.447,412.375,255.387,413.916,255.267z
		 M413.105,248.757c0-1.84-0.295-3.14-0.885-3.899c-0.59-0.761-1.55-1.141-2.88-1.141c-1.331,0-2.33,0.4-3,1.2
		c-0.67,0.8-1.016,2.08-1.035,3.84H413.105z"/>
	<path class="st1" d="M427.715,257.127h-2.25v-15h2.22v1.05c1.62-0.899,3.17-1.35,4.65-1.35c2,0,3.345,0.54,4.035,1.62
		s1.035,3,1.035,5.76v7.92h-2.22v-7.86c0-2.079-0.205-3.505-0.615-4.274c-0.41-0.77-1.286-1.155-2.625-1.155
		c-0.641,0-1.315,0.095-2.025,0.285c-0.71,0.19-1.255,0.375-1.635,0.555l-0.57,0.271V257.127z"/>
	<path class="st1" d="M440.915,249.597c0-2.739,0.49-4.72,1.47-5.939c0.979-1.22,2.635-1.83,4.965-1.83c2.33,0,3.979,0.61,4.95,1.83
		s1.455,3.2,1.455,5.939c0,2.74-0.46,4.73-1.38,5.971s-2.6,1.859-5.04,1.859c-2.44,0-4.12-0.619-5.04-1.859
		S440.915,252.337,440.915,249.597z M443.225,249.552c0,2.19,0.265,3.726,0.795,4.605c0.53,0.88,1.64,1.319,3.33,1.319
		c1.69,0,2.794-0.435,3.315-1.305c0.52-0.87,0.78-2.404,0.78-4.604s-0.29-3.715-0.87-4.546c-0.581-0.829-1.655-1.244-3.225-1.244
		c-1.57,0-2.65,0.415-3.24,1.244C443.52,245.852,443.225,247.362,443.225,249.552z"/>
	<path class="st1" d="M465.065,244.077h-4.77v7.17c0,1.72,0.125,2.85,0.375,3.39c0.25,0.54,0.845,0.811,1.785,0.811l2.67-0.181
		l0.15,1.86c-1.34,0.22-2.36,0.33-3.06,0.33c-1.56,0-2.64-0.38-3.24-1.14c-0.6-0.761-0.9-2.21-0.9-4.351v-7.89h-2.13v-1.95h2.13
		v-4.59h2.22v4.59h4.77V244.077z"/>
	<path class="st1" d="M467.825,238.737v-2.61h2.25v2.61H467.825z M467.825,257.127v-15h2.25v15H467.825z"/>
	<path class="st1" d="M477.274,244.077v13.05h-2.25v-13.05h-1.89v-1.95h1.89v-1.35c0-2.12,0.3-3.565,0.9-4.335
		c0.6-0.771,1.65-1.155,3.15-1.155l3.03,0.21l-0.03,1.86c-1.12-0.04-2.045-0.061-2.774-0.061c-0.731,0-1.25,0.24-1.561,0.72
		c-0.31,0.48-0.465,1.41-0.465,2.79v1.32h4.35v1.95H477.274z"/>
	<path class="st1" d="M484.324,238.737v-2.61h2.25v2.61H484.324z M484.324,257.127v-15h2.25v15H484.324z"/>
	<path class="st1" d="M501.094,255.267l0.87-0.09l0.06,1.771c-2.28,0.319-4.23,0.479-5.85,0.479c-2.16,0-3.69-0.625-4.591-1.875
		c-0.899-1.249-1.35-3.194-1.35-5.835c0-5.26,2.09-7.89,6.27-7.89c2.021,0,3.53,0.565,4.53,1.694c1,1.131,1.5,2.906,1.5,5.325
		l-0.12,1.71h-9.899c0,1.66,0.3,2.891,0.899,3.69c0.601,0.8,1.646,1.2,3.136,1.2C498.038,255.447,499.553,255.387,501.094,255.267z
		 M500.283,248.757c0-1.84-0.295-3.14-0.885-3.899c-0.59-0.761-1.55-1.141-2.88-1.141s-2.33,0.4-3,1.2
		c-0.671,0.8-1.016,2.08-1.035,3.84H500.283z"/>
	<path class="st1" d="M517.562,235.587v21.54h-2.22v-1.02c-1.54,0.88-3.06,1.319-4.56,1.319c-0.801,0-1.5-0.101-2.101-0.3
		c-0.6-0.199-1.16-0.56-1.68-1.08c-1.08-1.08-1.62-3.075-1.62-5.985c0-2.909,0.484-5.01,1.455-6.3
		c0.97-1.29,2.575-1.935,4.814-1.935c1.16,0,2.391,0.13,3.69,0.39v-6.63H517.562z M509.763,255.207c0.36,0.14,0.825,0.21,1.396,0.21
		c0.569,0,1.209-0.095,1.92-0.285c0.709-0.189,1.265-0.375,1.665-0.555l0.6-0.271v-10.17c-1.28-0.24-2.471-0.359-3.57-0.359
		c-1.52,0-2.58,0.484-3.18,1.455c-0.6,0.97-0.9,2.475-0.9,4.515c0,2.32,0.351,3.88,1.051,4.68
		C509.062,254.807,509.402,255.067,509.763,255.207z"/>
	<path class="st1" d="M185.544,282.657v7.68c0.06,0.74,0.64,1.181,1.74,1.32l-0.09,1.77c-1.58,0-2.77-0.399-3.57-1.2
		c-1.8,0.801-3.6,1.2-5.4,1.2c-1.38,0-2.43-0.39-3.15-1.17c-0.72-0.78-1.08-1.899-1.08-3.36c0-1.459,0.37-2.534,1.11-3.225
		c0.74-0.689,1.9-1.114,3.48-1.275l4.71-0.449v-1.29c0-1.021-0.22-1.75-0.66-2.19c-0.44-0.439-1.04-0.66-1.8-0.66
		c-1.601,0-3.26,0.101-4.98,0.301l-0.93,0.09l-0.09-1.71c2.2-0.44,4.15-0.66,5.85-0.66c1.7,0,2.935,0.39,3.705,1.17
		C185.159,279.777,185.544,280.997,185.544,282.657z M176.304,288.777c0,1.84,0.76,2.76,2.28,2.76c1.36,0,2.7-0.229,4.02-0.69
		l0.69-0.239v-4.95l-4.44,0.42c-0.9,0.08-1.55,0.34-1.95,0.78C176.503,287.297,176.304,287.936,176.304,288.777z"/>
	<path class="st1" d="M196.614,277.827c2.02,0,3.435,0.575,4.245,1.725c0.81,1.15,1.215,3.165,1.215,6.045s-0.505,4.905-1.515,6.075
		c-1.01,1.17-2.865,1.755-5.565,1.755c-0.84,0-2.23-0.08-4.17-0.24l-0.84-0.09v-21.51h2.22v7.29
		C193.724,278.177,195.193,277.827,196.614,277.827z M194.964,291.417c1.959,0,3.255-0.445,3.885-1.335s0.945-2.395,0.945-4.515
		s-0.25-3.605-0.75-4.455c-0.5-0.851-1.391-1.275-2.67-1.275c-1.16,0-2.35,0.221-3.57,0.66l-0.6,0.21v10.56
		C193.503,291.367,194.424,291.417,194.964,291.417z"/>
	<path class="st1" d="M205.104,285.597c0-2.739,0.49-4.72,1.47-5.939c0.979-1.22,2.635-1.83,4.965-1.83c2.33,0,3.979,0.61,4.95,1.83
		s1.455,3.2,1.455,5.939c0,2.74-0.46,4.73-1.38,5.971s-2.6,1.859-5.04,1.859c-2.44,0-4.12-0.619-5.04-1.859
		S205.104,288.337,205.104,285.597z M207.414,285.552c0,2.19,0.265,3.726,0.795,4.605c0.53,0.88,1.64,1.319,3.33,1.319
		c1.69,0,2.794-0.435,3.315-1.305c0.52-0.87,0.78-2.404,0.78-4.604s-0.29-3.715-0.87-4.546c-0.581-0.829-1.655-1.244-3.225-1.244
		c-1.57,0-2.65,0.415-3.24,1.244C207.708,281.852,207.414,283.362,207.414,285.552z"/>
	<path class="st1" d="M230.963,278.127h2.25v15h-2.25v-1.05c-1.5,0.899-2.98,1.35-4.44,1.35c-2.04,0-3.395-0.529-4.065-1.59
		c-0.67-1.06-1.005-3.02-1.005-5.88v-7.83h2.25v7.8c0,2.181,0.19,3.641,0.57,4.38c0.379,0.74,1.24,1.11,2.58,1.11
		c0.66,0,1.33-0.095,2.01-0.285c0.68-0.189,1.2-0.375,1.56-0.555l0.54-0.271V278.127z"/>
	<path class="st1" d="M236.123,278.127h2.25l3.75,13.05h0.99l3.78-13.05h2.25l-6.24,21.66h-2.25l1.95-6.66h-2.22L236.123,278.127z"
		/>
	<path class="st1" d="M260.873,293.127h-2.25v-15h2.22v1.05c1.5-0.899,2.96-1.35,4.38-1.35c1.86,0,3.16,0.51,3.9,1.53
		c0.66-0.4,1.515-0.755,2.565-1.065c1.05-0.31,1.975-0.465,2.775-0.465c2,0,3.345,0.535,4.035,1.604
		c0.69,1.07,1.035,2.996,1.035,5.775v7.92h-2.25v-7.86c0-2.079-0.2-3.505-0.6-4.274c-0.4-0.77-1.25-1.155-2.55-1.155
		c-0.66,0-1.34,0.095-2.04,0.285s-1.24,0.375-1.62,0.555l-0.57,0.271c0.26,0.66,0.39,2.12,0.39,4.38v7.8h-2.25v-7.74
		c0-2.16-0.195-3.625-0.585-4.395c-0.39-0.77-1.245-1.155-2.565-1.155c-0.641,0-1.295,0.095-1.965,0.285s-1.185,0.375-1.545,0.555
		l-0.51,0.271V293.127z"/>
	<path class="st1" d="M282.113,278.127h2.25l3.75,13.05h0.99l3.78-13.05h2.25l-6.24,21.66h-2.25l1.95-6.66h-2.22L282.113,278.127z"
		/>
	<path class="st1" d="M306.862,293.127h-2.25v-15h2.22v1.05c1.62-0.899,3.17-1.35,4.65-1.35c2,0,3.345,0.54,4.035,1.62
		s1.035,3,1.035,5.76v7.92h-2.22v-7.86c0-2.079-0.205-3.505-0.615-4.274c-0.41-0.77-1.286-1.155-2.625-1.155
		c-0.641,0-1.315,0.095-2.025,0.285c-0.71,0.19-1.255,0.375-1.635,0.555l-0.57,0.271V293.127z"/>
	<path class="st1" d="M330.921,291.267l0.87-0.09l0.06,1.771c-2.28,0.319-4.23,0.479-5.85,0.479c-2.16,0-3.69-0.625-4.59-1.875
		c-0.9-1.249-1.35-3.194-1.35-5.835c0-5.26,2.09-7.89,6.27-7.89c2.02,0,3.53,0.565,4.53,1.694c1,1.131,1.5,2.906,1.5,5.325
		l-0.12,1.71h-9.9c0,1.66,0.3,2.891,0.9,3.69c0.6,0.8,1.645,1.2,3.135,1.2C327.866,291.447,329.381,291.387,330.921,291.267z
		 M330.111,284.757c0-1.84-0.295-3.14-0.885-3.899c-0.59-0.761-1.55-1.141-2.88-1.141c-1.331,0-2.33,0.4-3,1.2
		c-0.67,0.8-1.016,2.08-1.035,3.84H330.111z"/>
	<path class="st1" d="M334.251,278.127h2.46l3.66,5.88l3.66-5.88h2.46l-4.77,7.44l4.74,7.56h-2.46l-3.63-5.85l-3.66,5.85h-2.46
		l4.71-7.5L334.251,278.127z"/>
	<path class="st1" d="M357.082,280.077h-4.77v7.17c0,1.72,0.125,2.85,0.375,3.39c0.25,0.54,0.845,0.811,1.785,0.811l2.67-0.181
		l0.15,1.86c-1.34,0.22-2.36,0.33-3.06,0.33c-1.56,0-2.64-0.38-3.24-1.14c-0.6-0.761-0.9-2.21-0.9-4.351v-7.89h-2.13v-1.95h2.13
		v-4.59h2.22v4.59h4.77V280.077z"/>
	<path class="st1" d="M375.801,278.127h2.25v15h-2.25v-1.05c-1.5,0.899-2.98,1.35-4.44,1.35c-2.04,0-3.395-0.529-4.065-1.59
		c-0.67-1.06-1.005-3.02-1.005-5.88v-7.83h2.25v7.8c0,2.181,0.19,3.641,0.57,4.38c0.379,0.74,1.24,1.11,2.58,1.11
		c0.66,0,1.33-0.095,2.01-0.285c0.68-0.189,1.2-0.375,1.56-0.555l0.54-0.271V278.127z"/>
	<path class="st1" d="M382.371,299.787v-21.66h2.22v1.08c1.52-0.92,3.02-1.38,4.5-1.38c1.9,0,3.28,0.604,4.14,1.814
		c0.86,1.211,1.29,3.206,1.29,5.985c0,2.78-0.505,4.775-1.515,5.985c-1.01,1.21-2.685,1.814-5.025,1.814
		c-1.22,0-2.34-0.11-3.36-0.33v6.69H382.371z M388.76,279.837c-0.6,0-1.245,0.101-1.935,0.3c-0.69,0.2-1.235,0.4-1.635,0.601
		l-0.57,0.3v10.109c1.42,0.221,2.5,0.33,3.24,0.33c1.62,0,2.755-0.459,3.405-1.38c0.649-0.919,0.975-2.419,0.975-4.5
		c0-2.079-0.295-3.56-0.885-4.439C390.765,280.277,389.9,279.837,388.76,279.837z"/>
	<path class="st1" d="M409.7,271.587v21.54h-2.22v-1.02c-1.54,0.88-3.06,1.319-4.56,1.319c-0.8,0-1.5-0.101-2.1-0.3
		c-0.6-0.199-1.16-0.56-1.68-1.08c-1.08-1.08-1.62-3.075-1.62-5.985c0-2.909,0.485-5.01,1.455-6.3
		c0.97-1.29,2.575-1.935,4.815-1.935c1.16,0,2.39,0.13,3.69,0.39v-6.63H409.7z M401.9,291.207c0.36,0.14,0.825,0.21,1.395,0.21
		c0.57,0,1.21-0.095,1.92-0.285c0.71-0.189,1.265-0.375,1.665-0.555l0.6-0.271v-10.17c-1.28-0.24-2.47-0.359-3.57-0.359
		c-1.521,0-2.58,0.484-3.18,1.455c-0.6,0.97-0.9,2.475-0.9,4.515c0,2.32,0.35,3.88,1.05,4.68
		C401.2,290.807,401.54,291.067,401.9,291.207z"/>
	<path class="st1" d="M424.64,282.657v7.68c0.06,0.74,0.64,1.181,1.74,1.32l-0.09,1.77c-1.58,0-2.77-0.399-3.57-1.2
		c-1.8,0.801-3.6,1.2-5.4,1.2c-1.38,0-2.43-0.39-3.15-1.17c-0.72-0.78-1.08-1.899-1.08-3.36c0-1.459,0.37-2.534,1.11-3.225
		c0.74-0.689,1.9-1.114,3.48-1.275l4.71-0.449v-1.29c0-1.021-0.22-1.75-0.66-2.19c-0.44-0.439-1.04-0.66-1.8-0.66
		c-1.601,0-3.26,0.101-4.98,0.301l-0.93,0.09l-0.09-1.71c2.2-0.44,4.15-0.66,5.85-0.66c1.7,0,2.935,0.39,3.705,1.17
		C424.254,279.777,424.64,280.997,424.64,282.657z M415.399,288.777c0,1.84,0.76,2.76,2.28,2.76c1.36,0,2.7-0.229,4.02-0.69
		l0.69-0.239v-4.95l-4.44,0.42c-0.9,0.08-1.55,0.34-1.95,0.78C415.599,287.297,415.399,287.936,415.399,288.777z"/>
	<path class="st1" d="M436.85,280.077h-4.77v7.17c0,1.72,0.125,2.85,0.375,3.39c0.25,0.54,0.845,0.811,1.785,0.811l2.67-0.181
		l0.15,1.86c-1.34,0.22-2.36,0.33-3.06,0.33c-1.56,0-2.64-0.38-3.24-1.14c-0.6-0.761-0.9-2.21-0.9-4.351v-7.89h-2.13v-1.95h2.13
		v-4.59h2.22v4.59h4.77V280.077z"/>
	<path class="st1" d="M449.809,291.267l0.87-0.09l0.06,1.771c-2.28,0.319-4.23,0.479-5.85,0.479c-2.16,0-3.69-0.625-4.59-1.875
		c-0.9-1.249-1.35-3.194-1.35-5.835c0-5.26,2.09-7.89,6.27-7.89c2.02,0,3.53,0.565,4.53,1.694c1,1.131,1.5,2.906,1.5,5.325
		l-0.12,1.71h-9.9c0,1.66,0.3,2.891,0.9,3.69c0.6,0.8,1.645,1.2,3.135,1.2C446.754,291.447,448.269,291.387,449.809,291.267z
		 M448.999,284.757c0-1.84-0.295-3.14-0.885-3.899c-0.59-0.761-1.55-1.141-2.88-1.141c-1.331,0-2.33,0.4-3,1.2
		c-0.67,0.8-1.016,2.08-1.035,3.84H448.999z"/>
	<path class="st1" d="M459.469,279.837c-2.18,0-3.27,0.761-3.27,2.28c0,0.7,0.25,1.195,0.75,1.484c0.5,0.291,1.64,0.591,3.42,0.9
		c1.78,0.311,3.04,0.745,3.78,1.305c0.74,0.561,1.11,1.61,1.11,3.15s-0.495,2.67-1.485,3.39c-0.99,0.721-2.435,1.08-4.335,1.08
		c-1.24,0-2.7-0.14-4.38-0.42l-0.9-0.149l0.12-1.95c2.28,0.34,4,0.51,5.16,0.51c1.16,0,2.045-0.185,2.655-0.555
		c0.61-0.37,0.915-0.99,0.915-1.86s-0.26-1.46-0.78-1.77c-0.52-0.311-1.66-0.605-3.42-0.886c-1.76-0.279-3.01-0.689-3.75-1.229
		c-0.74-0.54-1.11-1.54-1.11-3s0.515-2.54,1.545-3.24c1.03-0.7,2.314-1.05,3.855-1.05c1.22,0,2.75,0.14,4.59,0.42l0.84,0.149
		l-0.06,1.921C462.499,279.997,460.749,279.837,459.469,279.837z"/>
	<path class="st1" d="M468.559,293.127v-3.42h2.46v3.42H468.559z"/>
</g>
<g>
	<path class="st2" d="M248.986,639.248c0-1.518,0.228-2.842,0.683-3.974c0.456-1.131,1.083-2.076,1.883-2.835
		s1.745-1.325,2.835-1.697c1.09-0.373,2.283-0.559,3.58-0.559c1.269,0,2.456,0.186,3.56,0.559c1.103,0.372,2.055,0.938,2.856,1.697
		c0.8,0.759,1.428,1.704,1.883,2.835c0.455,1.132,0.683,2.456,0.683,3.974v18.791c0,1.05-0.524,1.573-1.573,1.573h-1.614
		c-1.049,0-1.573-0.523-1.573-1.573v-18.295c0-0.965-0.111-1.772-0.331-2.421c-0.221-0.648-0.524-1.165-0.911-1.552
		c-0.387-0.387-0.835-0.663-1.345-0.828c-0.511-0.166-1.056-0.248-1.635-0.248c-0.579,0-1.125,0.082-1.635,0.248
		c-0.511,0.165-0.959,0.441-1.345,0.828c-0.387,0.387-0.69,0.903-0.911,1.552c-0.221,0.648-0.331,1.456-0.331,2.421v18.295
		c0,1.05-0.524,1.573-1.573,1.573h-1.614c-1.049,0-1.573-0.523-1.573-1.573V639.248z"/>
	<path class="st2" d="M286.61,652.741c0,1.242-0.187,2.325-0.559,3.249c-0.373,0.925-0.876,1.684-1.511,2.277
		c-0.635,0.593-1.401,1.041-2.297,1.345c-0.897,0.304-1.856,0.455-2.877,0.455c-1.049,0-2.015-0.151-2.897-0.455
		c-0.883-0.304-1.642-0.752-2.276-1.345c-0.635-0.594-1.138-1.353-1.511-2.277c-0.373-0.924-0.559-2.007-0.559-3.249v-8.071
		c0-1.214,0.186-2.283,0.559-3.208c0.373-0.924,0.875-1.689,1.511-2.297c0.634-0.606,1.393-1.062,2.276-1.366
		c0.883-0.303,1.849-0.455,2.897-0.455c1.021,0,1.979,0.152,2.877,0.455c0.896,0.305,1.662,0.76,2.297,1.366
		c0.635,0.607,1.138,1.373,1.511,2.297c0.373,0.925,0.559,1.994,0.559,3.208V652.741z M282.14,644.96
		c0-1.324-0.269-2.229-0.807-2.711s-1.194-0.725-1.966-0.725c-0.773,0-1.428,0.242-1.966,0.725s-0.807,1.387-0.807,2.711v7.491
		c0,1.325,0.269,2.229,0.807,2.712s1.193,0.724,1.966,0.724c0.772,0,1.428-0.241,1.966-0.724s0.807-1.387,0.807-2.712V644.96z"/>
	<path class="st2" d="M299.73,659.612c-0.414,0.083-0.793,0.131-1.138,0.145c-0.345,0.014-0.669,0.021-0.973,0.021
		c-1.987,0-3.505-0.462-4.553-1.387c-1.049-0.925-1.573-2.505-1.573-4.739V633.95c0-0.994,0.497-1.49,1.49-1.49h1.49
		c0.993,0,1.49,0.496,1.49,1.49v3.849h3.56c0.994,0,1.49,0.497,1.49,1.49v1.2c0,0.994-0.497,1.49-1.49,1.49h-3.56v11.342
		c0,0.855,0.166,1.448,0.497,1.779c0.331,0.331,0.924,0.497,1.78,0.497c0.358,0,0.786-0.042,1.283-0.124
		c0.497-0.083,0.87,0.014,1.118,0.289c0.249,0.276,0.373,0.662,0.373,1.159v1.2c0,0.497-0.118,0.849-0.352,1.056
		C300.427,659.385,300.117,659.529,299.73,659.612z"/>
	<path class="st2" d="M305.194,632.129c0-0.994,0.497-1.49,1.49-1.49h1.49c0.994,0,1.49,0.496,1.49,1.49v1.407
		c0,0.993-0.497,1.49-1.49,1.49h-1.49c-0.994,0-1.49-0.497-1.49-1.49V632.129z M305.194,639.289c0-0.993,0.497-1.49,1.49-1.49h1.49
		c0.994,0,1.49,0.497,1.49,1.49v18.833c0,0.993-0.497,1.49-1.49,1.49h-1.49c-0.994,0-1.49-0.497-1.49-1.49V639.289z"/>
	<path class="st2" d="M321.791,630.059c0.303,0,0.642,0.008,1.014,0.021s0.766,0.062,1.18,0.145
		c0.386,0.083,0.697,0.228,0.931,0.435s0.352,0.559,0.352,1.056v1.2c0,0.497-0.124,0.884-0.373,1.159
		c-0.249,0.276-0.621,0.372-1.118,0.289c-0.497-0.082-0.952-0.124-1.366-0.124c-0.966,0-1.642,0.193-2.028,0.58
		c-0.387,0.387-0.58,1.062-0.58,2.028v0.951h3.974c0.994,0,1.49,0.497,1.49,1.49v1.2c0,0.994-0.497,1.49-1.49,1.49h-3.974v16.143
		c0,0.993-0.497,1.49-1.49,1.49h-1.49c-0.993,0-1.49-0.497-1.49-1.49v-21.606c0-2.372,0.559-4.042,1.676-5.008
		C318.128,630.542,319.722,630.059,321.791,630.059z"/>
	<path class="st2" d="M338.555,639.289c0-0.993,0.497-1.49,1.49-1.49h1.49c0.994,0,1.49,0.497,1.49,1.49v20.654
		c0,1.214-0.187,2.27-0.559,3.166c-0.372,0.896-0.876,1.636-1.511,2.215s-1.401,1.014-2.297,1.304
		c-0.897,0.29-1.856,0.435-2.877,0.435c-1.104,0-2.09-0.159-2.959-0.476c-0.869-0.317-1.607-0.745-2.214-1.283
		c-0.607-0.538-1.07-1.166-1.387-1.884c-0.317-0.718-0.476-1.489-0.476-2.317c0-0.993,0.497-1.49,1.49-1.49h1.697
		c0.855,0,1.283,0.428,1.283,1.283c0,0.606,0.207,1.124,0.621,1.552s1.062,0.642,1.945,0.642c0.772,0,1.428-0.207,1.966-0.62
		c0.538-0.414,0.807-1.283,0.807-2.608v-3.684c-0.966,1.159-2.332,1.738-4.098,1.738c-1.711,0-3.125-0.559-4.243-1.676
		c-1.118-1.118-1.676-2.836-1.676-5.153v-11.797c0-0.993,0.497-1.49,1.49-1.49h1.49c0.994,0,1.49,0.497,1.49,1.49v11.01
		c0,1.325,0.269,2.229,0.807,2.712s1.193,0.724,1.966,0.724c0.772,0,1.428-0.241,1.966-0.724s0.807-1.387,0.807-2.712V639.289z"/>
	<path class="st2" d="M381.517,658.122c0,0.993-0.497,1.49-1.49,1.49h-1.49c-0.993,0-1.49-0.497-1.49-1.49v-13.369
		c0-1.242-0.255-2.09-0.766-2.546c-0.511-0.455-1.125-0.683-1.842-0.683c-0.718,0-1.332,0.228-1.842,0.683
		c-0.511,0.456-0.766,1.304-0.766,2.546v13.369c0,0.993-0.497,1.49-1.49,1.49h-1.49c-0.993,0-1.49-0.497-1.49-1.49v-13.369
		c0-1.242-0.255-2.09-0.766-2.546c-0.511-0.455-1.125-0.683-1.842-0.683c-0.718,0-1.332,0.228-1.842,0.683
		c-0.511,0.456-0.766,1.304-0.766,2.546v13.369c0,0.993-0.497,1.49-1.49,1.49h-1.49c-0.993,0-1.49-0.497-1.49-1.49v-14.197
		c0-1.104,0.166-2.062,0.497-2.876c0.331-0.814,0.786-1.497,1.366-2.049s1.263-0.966,2.049-1.242
		c0.787-0.275,1.648-0.414,2.587-0.414c1.242,0,2.325,0.27,3.25,0.808c0.924,0.538,1.648,1.304,2.173,2.297
		c0.524-0.993,1.248-1.759,2.173-2.297c0.924-0.538,2.008-0.808,3.25-0.808c0.938,0,1.8,0.139,2.587,0.414
		c0.786,0.276,1.469,0.69,2.049,1.242s1.035,1.234,1.366,2.049c0.331,0.813,0.497,1.772,0.497,2.876V658.122z"/>
	<path class="st2" d="M396.17,653.569c0-0.855,0.427-1.283,1.283-1.283h1.697c0.994,0,1.49,0.497,1.49,1.49
		c0,1.877-0.642,3.394-1.925,4.553s-2.987,1.738-5.112,1.738c-1.049,0-2.015-0.151-2.897-0.455
		c-0.883-0.304-1.642-0.759-2.276-1.366c-0.635-0.606-1.138-1.372-1.511-2.297c-0.373-0.924-0.559-1.993-0.559-3.208v-8.071
		c0-1.214,0.186-2.283,0.559-3.208c0.373-0.924,0.875-1.689,1.511-2.297c0.634-0.606,1.393-1.062,2.276-1.366
		c0.883-0.303,1.849-0.455,2.897-0.455c1.021,0,1.979,0.152,2.877,0.455c0.896,0.305,1.662,0.76,2.297,1.366
		c0.635,0.607,1.138,1.373,1.511,2.297c0.373,0.925,0.559,1.994,0.559,3.208v3.519c0,0.993-0.497,1.49-1.49,1.49h-8.526v2.772
		c0,1.325,0.269,2.229,0.807,2.712s1.193,0.724,1.966,0.724c0.8,0,1.428-0.207,1.883-0.62
		C395.942,654.852,396.17,654.287,396.17,653.569z M390.831,646.326h5.546v-1.366c0-1.324-0.269-2.229-0.807-2.711
		s-1.194-0.725-1.966-0.725c-0.773,0-1.428,0.242-1.966,0.725s-0.807,1.387-0.807,2.711V646.326z"/>
</g>
<g>
	<path class="st1" d="M61.437,84.474c0-0.789,0.419-1.185,1.258-1.185h1.11c0.838,0,1.258,0.396,1.258,1.185v47.138h19.98
		c0.838,0,1.258,0.444,1.258,1.332v0.888c0,0.84-0.42,1.258-1.258,1.258H62.695c-0.839,0-1.258-0.394-1.258-1.184V84.474z"/>
	<path class="st1" d="M113.089,124.434c0-0.74,0.37-1.11,1.11-1.11h1.11c0.789,0,1.184,0.396,1.184,1.184
		c0,1.728-0.284,3.294-0.851,4.699c-0.568,1.406-1.369,2.604-2.405,3.59c-1.036,0.987-2.257,1.751-3.663,2.293
		c-1.406,0.543-2.948,0.814-4.625,0.814c-1.727,0-3.318-0.259-4.773-0.777c-1.456-0.518-2.713-1.295-3.774-2.33
		c-1.062-1.036-1.9-2.332-2.516-3.886c-0.617-1.554-0.925-3.367-0.925-5.438v-15.763c0-2.071,0.308-3.885,0.925-5.438
		c0.616-1.555,1.455-2.85,2.516-3.885c1.061-1.036,2.318-1.813,3.774-2.331c1.455-0.519,3.046-0.777,4.773-0.777
		c1.677,0,3.244,0.259,4.699,0.777c1.455,0.518,2.725,1.295,3.811,2.331c1.084,1.035,1.924,2.33,2.516,3.885
		c0.592,1.554,0.888,3.367,0.888,5.438v7.03c0,0.79-0.396,1.184-1.184,1.184h-19.24v7.326c0,1.728,0.222,3.195,0.666,4.403
		c0.444,1.21,1.047,2.183,1.813,2.923c0.764,0.74,1.665,1.283,2.701,1.628c1.036,0.346,2.146,0.519,3.33,0.519
		c2.269,0,4.193-0.728,5.772-2.184C112.299,129.084,113.089,127.049,113.089,124.434z M96.439,112.741h17.02v-4.81
		c0-1.727-0.222-3.194-0.666-4.403c-0.444-1.208-1.062-2.183-1.85-2.923c-0.79-0.74-1.69-1.282-2.701-1.628
		c-1.012-0.345-2.109-0.519-3.293-0.519s-2.294,0.174-3.33,0.519c-1.036,0.346-1.937,0.888-2.701,1.628
		c-0.766,0.74-1.369,1.715-1.813,2.923c-0.444,1.209-0.666,2.677-0.666,4.403V112.741z"/>
	<path class="st1" d="M140.32,135.089c-0.987,0.197-2.072,0.297-3.256,0.297c-3.01,0-5.378-0.69-7.104-2.072
		c-1.728-1.381-2.59-3.822-2.59-7.326V87.729c0-0.789,0.394-1.184,1.184-1.184h1.11c0.789,0,1.184,0.395,1.184,1.184v8.361h9.398
		c0.789,0,1.184,0.396,1.184,1.185v0.813c0,0.79-0.395,1.185-1.184,1.185h-9.398v26.492c0,2.516,0.542,4.218,1.628,5.105
		c1.084,0.889,2.738,1.332,4.958,1.332c0.444,0,0.899-0.024,1.369-0.073c0.468-0.049,0.95-0.123,1.443-0.223
		c0.789-0.147,1.184,0.223,1.184,1.11v0.813C141.43,134.522,141.06,134.941,140.32,135.089z"/>
	<path class="st1" d="M151.271,97.867c-0.148,0.592-0.518,0.888-1.11,0.888h-0.814c-0.691,0-0.962-0.32-0.814-0.962l2.294-13.319
		c0.048-0.789,0.493-1.185,1.332-1.185h1.85c0.789,0,1.084,0.47,0.888,1.406L151.271,97.867z"/>
	<path class="st1" d="M184.423,105.638c0-2.467-0.766-4.279-2.294-5.439c-1.53-1.158-3.355-1.739-5.476-1.739
		c-2.122,0-3.947,0.568-5.476,1.702c-1.53,1.136-2.294,2.936-2.294,5.402v0.147c0,1.826,0.481,3.257,1.443,4.292
		c0.962,1.036,2.158,1.9,3.589,2.591c1.431,0.691,2.997,1.308,4.699,1.85c1.702,0.544,3.268,1.246,4.699,2.109
		c1.43,0.863,2.627,2.011,3.589,3.44c0.962,1.432,1.443,3.33,1.443,5.698c0,1.628-0.296,3.071-0.888,4.329
		c-0.592,1.258-1.406,2.331-2.442,3.219c-1.036,0.888-2.257,1.554-3.663,1.998c-1.406,0.444-2.948,0.666-4.625,0.666
		c-1.677,0-3.219-0.234-4.625-0.703c-1.406-0.468-2.627-1.146-3.663-2.035c-1.036-0.888-1.838-1.961-2.405-3.219
		c-0.567-1.258-0.851-2.676-0.851-4.255v-0.222c0-0.789,0.395-1.185,1.184-1.185h1.11c0.74,0,1.11,0.37,1.11,1.11v0.074
		c0,1.283,0.222,2.381,0.666,3.293c0.444,0.913,1.036,1.665,1.776,2.257c0.74,0.592,1.603,1.024,2.59,1.295
		c0.986,0.271,2.022,0.407,3.108,0.407c1.085,0,2.121-0.136,3.108-0.407c0.986-0.271,1.85-0.69,2.59-1.258
		c0.74-0.567,1.332-1.295,1.776-2.184c0.444-0.888,0.666-1.973,0.666-3.256v-0.147c0-1.825-0.481-3.256-1.443-4.292
		s-2.159-1.888-3.589-2.554c-1.432-0.666-2.986-1.27-4.662-1.812c-1.678-0.543-3.232-1.245-4.662-2.109
		c-1.431-0.862-2.627-1.998-3.589-3.404c-0.962-1.405-1.443-3.316-1.443-5.734c0-1.628,0.283-3.083,0.851-4.366
		c0.567-1.282,1.344-2.355,2.331-3.219c0.986-0.862,2.17-1.528,3.552-1.998c1.38-0.469,2.86-0.703,4.44-0.703
		c1.578,0,3.045,0.234,4.403,0.703c1.356,0.47,2.541,1.146,3.552,2.035c1.01,0.888,1.8,1.961,2.368,3.219
		c0.567,1.258,0.851,2.652,0.851,4.181v0.223c0,0.789-0.396,1.184-1.184,1.184h-1.11c-0.74,0-1.11-0.37-1.11-1.11V105.638z"/>
	<path class="st1" d="M231.856,105.638c0-2.467-0.766-4.279-2.294-5.439c-1.53-1.158-3.355-1.739-5.476-1.739
		c-2.122,0-3.947,0.568-5.476,1.702c-1.53,1.136-2.294,2.936-2.294,5.402v0.147c0,1.826,0.481,3.257,1.443,4.292
		c0.962,1.036,2.158,1.9,3.589,2.591c1.431,0.691,2.997,1.308,4.699,1.85c1.702,0.544,3.268,1.246,4.699,2.109
		c1.43,0.863,2.627,2.011,3.589,3.44c0.962,1.432,1.443,3.33,1.443,5.698c0,1.628-0.296,3.071-0.888,4.329
		c-0.592,1.258-1.406,2.331-2.442,3.219c-1.036,0.888-2.257,1.554-3.663,1.998c-1.406,0.444-2.948,0.666-4.625,0.666
		c-1.677,0-3.219-0.234-4.625-0.703c-1.406-0.468-2.627-1.146-3.663-2.035c-1.036-0.888-1.838-1.961-2.405-3.219
		c-0.567-1.258-0.851-2.676-0.851-4.255v-0.222c0-0.789,0.395-1.185,1.184-1.185h1.11c0.74,0,1.11,0.37,1.11,1.11v0.074
		c0,1.283,0.222,2.381,0.666,3.293c0.444,0.913,1.036,1.665,1.776,2.257c0.74,0.592,1.603,1.024,2.59,1.295
		c0.986,0.271,2.022,0.407,3.108,0.407c1.085,0,2.121-0.136,3.108-0.407c0.986-0.271,1.85-0.69,2.59-1.258
		c0.74-0.567,1.332-1.295,1.776-2.184c0.444-0.888,0.666-1.973,0.666-3.256v-0.147c0-1.825-0.481-3.256-1.443-4.292
		s-2.159-1.888-3.589-2.554c-1.432-0.666-2.986-1.27-4.662-1.812c-1.678-0.543-3.232-1.245-4.662-2.109
		c-1.431-0.862-2.627-1.998-3.589-3.404c-0.962-1.405-1.443-3.316-1.443-5.734c0-1.628,0.283-3.083,0.851-4.366
		c0.567-1.282,1.344-2.355,2.331-3.219c0.986-0.862,2.17-1.528,3.552-1.998c1.38-0.469,2.86-0.703,4.44-0.703
		c1.578,0,3.045,0.234,4.403,0.703c1.356,0.47,2.541,1.146,3.552,2.035c1.01,0.888,1.8,1.961,2.368,3.219
		c0.567,1.258,0.851,2.652,0.851,4.181v0.223c0,0.789-0.396,1.184-1.184,1.184h-1.11c-0.74,0-1.11-0.37-1.11-1.11V105.638z"/>
	<path class="st1" d="M258.57,135.089c-0.987,0.197-2.072,0.297-3.256,0.297c-3.01,0-5.378-0.69-7.104-2.072
		c-1.728-1.381-2.59-3.822-2.59-7.326V87.729c0-0.789,0.394-1.184,1.184-1.184h1.11c0.789,0,1.184,0.395,1.184,1.184v8.361h9.398
		c0.789,0,1.184,0.396,1.184,1.185v0.813c0,0.79-0.395,1.185-1.184,1.185h-9.398v26.492c0,2.516,0.542,4.218,1.628,5.105
		c1.084,0.889,2.738,1.332,4.958,1.332c0.444,0,0.899-0.024,1.369-0.073c0.468-0.049,0.95-0.123,1.443-0.223
		c0.789-0.147,1.184,0.223,1.184,1.11v0.813C259.68,134.522,259.311,134.941,258.57,135.089z"/>
	<path class="st1" d="M290.612,123.472c0,2.071-0.296,3.885-0.888,5.438c-0.592,1.554-1.432,2.85-2.516,3.886
		c-1.085,1.035-2.356,1.812-3.811,2.33c-1.456,0.519-3.022,0.777-4.699,0.777c-1.58,0-3.097-0.234-4.551-0.703
		c-1.456-0.468-2.738-1.184-3.848-2.146c-1.11-0.962-1.987-2.146-2.627-3.553c-0.642-1.405-0.962-3.045-0.962-4.921v-0.37
		c0-1.874,0.32-3.515,0.962-4.921c0.64-1.405,1.504-2.59,2.59-3.552c1.084-0.962,2.355-1.677,3.811-2.146
		c1.455-0.469,2.997-0.703,4.625-0.703h8.51v-4.958c0-1.727-0.222-3.194-0.666-4.403c-0.444-1.208-1.048-2.183-1.813-2.923
		c-0.765-0.74-1.665-1.282-2.701-1.628c-1.036-0.345-2.146-0.519-3.33-0.519c-2.27,0-4.157,0.729-5.661,2.184
		c-1.505,1.455-2.257,3.49-2.257,6.104c0,0.74-0.37,1.11-1.11,1.11h-1.11c-0.79,0-1.184-0.395-1.184-1.185
		c0-3.502,1.061-6.276,3.182-8.324c2.121-2.047,4.834-3.071,8.14-3.071c1.676,0,3.243,0.259,4.699,0.777
		c1.455,0.518,2.726,1.295,3.811,2.331c1.084,1.035,1.924,2.33,2.516,3.885c0.592,1.554,0.888,3.367,0.888,5.438V123.472z
		 M278.698,132.722c1.184,0,2.281-0.173,3.293-0.519c1.01-0.345,1.911-0.888,2.701-1.628c0.789-0.74,1.406-1.713,1.85-2.923
		c0.444-1.208,0.666-2.676,0.666-4.403v-7.178h-8.51c-2.368,0-4.379,0.691-6.031,2.072c-1.653,1.382-2.479,3.453-2.479,6.216v0.074
		c0,2.763,0.826,4.835,2.479,6.216C274.319,132.031,276.33,132.722,278.698,132.722z"/>
	<path class="st1" d="M321.395,97.275c0-0.788,0.394-1.185,1.184-1.185h1.11c0.789,0,1.184,0.396,1.184,1.185v38.85
		c0,2.072-0.309,3.886-0.925,5.439c-0.617,1.554-1.456,2.836-2.516,3.848c-1.062,1.011-2.331,1.764-3.811,2.257
		s-3.06,0.74-4.736,0.74c-3.503,0-6.303-0.95-8.399-2.849c-2.097-1.899-3.145-4.354-3.145-7.363c0-0.79,0.395-1.184,1.184-1.184
		h1.11c0.74,0,1.11,0.37,1.11,1.109c0,2.221,0.751,3.971,2.257,5.254c1.504,1.282,3.465,1.925,5.883,1.925
		c1.184,0,2.294-0.161,3.33-0.481c1.036-0.321,1.936-0.839,2.701-1.554c0.764-0.716,1.369-1.665,1.813-2.85
		c0.444-1.184,0.666-2.64,0.666-4.365v-8.511c-0.988,1.678-2.257,2.923-3.811,3.737c-1.554,0.814-3.343,1.221-5.365,1.221
		c-1.579,0-3.059-0.246-4.44-0.739c-1.382-0.493-2.578-1.246-3.589-2.258c-1.012-1.01-1.801-2.281-2.368-3.811
		c-0.567-1.528-0.851-3.33-0.851-5.402V97.275c0-0.788,0.395-1.185,1.184-1.185h1.036c0.789,0,1.184,0.396,1.184,1.185v22.57
		c0,1.728,0.222,3.194,0.666,4.402c0.444,1.21,1.06,2.184,1.85,2.923c0.789,0.74,1.689,1.284,2.701,1.629
		c1.011,0.346,2.109,0.518,3.293,0.518s2.294-0.172,3.33-0.518c1.036-0.345,1.936-0.889,2.701-1.629
		c0.764-0.739,1.369-1.713,1.813-2.923c0.444-1.208,0.666-2.675,0.666-4.402V97.275z"/>
	<path class="st1" d="M353.362,84.474c0-0.789,0.394-1.185,1.184-1.185h1.11c0.789,0,1.184,0.396,1.184,1.185v3.996
		c0,0.789-0.396,1.184-1.184,1.184h-1.11c-0.79,0-1.184-0.395-1.184-1.184V84.474z M353.362,97.275c0-0.788,0.394-1.185,1.184-1.185
		h1.11c0.789,0,1.184,0.396,1.184,1.185v36.63c0,0.79-0.396,1.184-1.184,1.184h-1.11c-0.79,0-1.184-0.394-1.184-1.184V97.275z"/>
	<path class="st1" d="M391.323,135.089h-1.11c-0.79,0-1.184-0.394-1.184-1.184v-25.974c0-1.727-0.222-3.194-0.666-4.403
		c-0.444-1.208-1.048-2.183-1.813-2.923c-0.765-0.74-1.665-1.282-2.701-1.628c-1.036-0.345-2.146-0.519-3.33-0.519
		s-2.283,0.174-3.293,0.519c-1.012,0.346-1.913,0.888-2.701,1.628c-0.79,0.74-1.406,1.715-1.85,2.923
		c-0.444,1.209-0.666,2.677-0.666,4.403v25.974c0,0.79-0.396,1.184-1.184,1.184h-1.036c-0.79,0-1.184-0.394-1.184-1.184v-26.196
		c0-2.071,0.296-3.885,0.888-5.438c0.592-1.555,1.43-2.85,2.516-3.885c1.085-1.036,2.343-1.813,3.774-2.331
		c1.431-0.519,3.009-0.777,4.736-0.777c1.676,0,3.256,0.259,4.736,0.777c1.48,0.518,2.75,1.295,3.811,2.331
		c1.061,1.035,1.898,2.33,2.516,3.885c0.616,1.554,0.925,3.367,0.925,5.438v26.196C392.507,134.695,392.112,135.089,391.323,135.089
		z"/>
	<path class="st1" d="M433.059,135.089c-0.987,0.197-2.072,0.297-3.256,0.297c-3.01,0-5.378-0.69-7.104-2.072
		c-1.728-1.381-2.59-3.822-2.59-7.326V87.729c0-0.789,0.394-1.184,1.184-1.184h1.11c0.789,0,1.184,0.395,1.184,1.184v8.361h9.398
		c0.789,0,1.184,0.396,1.184,1.185v0.813c0,0.79-0.395,1.185-1.184,1.185h-9.398v26.492c0,2.516,0.542,4.218,1.628,5.105
		c1.084,0.889,2.738,1.332,4.958,1.332c0.444,0,0.899-0.024,1.369-0.073c0.468-0.049,0.95-0.123,1.443-0.223
		c0.789-0.147,1.184,0.223,1.184,1.11v0.813C434.168,134.522,433.799,134.941,433.059,135.089z"/>
	<path class="st1" d="M465.84,123.472c0,2.071-0.296,3.885-0.888,5.438c-0.592,1.554-1.432,2.85-2.516,3.886
		c-1.086,1.035-2.356,1.812-3.811,2.33c-1.456,0.519-3.022,0.777-4.699,0.777c-1.727,0-3.318-0.259-4.773-0.777
		c-1.456-0.518-2.713-1.295-3.774-2.33c-1.062-1.036-1.9-2.332-2.516-3.886c-0.617-1.554-0.925-3.367-0.925-5.438v-15.763
		c0-2.071,0.308-3.885,0.925-5.438c0.616-1.555,1.455-2.85,2.516-3.885c1.061-1.036,2.318-1.813,3.774-2.331
		c1.455-0.519,3.046-0.777,4.773-0.777c1.677,0,3.244,0.259,4.699,0.777c1.455,0.518,2.725,1.295,3.811,2.331
		c1.084,1.035,1.924,2.33,2.516,3.885c0.592,1.554,0.888,3.367,0.888,5.438V123.472z M462.437,107.932
		c0-1.727-0.222-3.194-0.666-4.403c-0.444-1.208-1.062-2.183-1.85-2.923c-0.79-0.74-1.69-1.282-2.701-1.628
		c-1.012-0.345-2.109-0.519-3.293-0.519s-2.294,0.174-3.33,0.519c-1.036,0.346-1.937,0.888-2.701,1.628
		c-0.766,0.74-1.369,1.715-1.813,2.923c-0.444,1.209-0.666,2.677-0.666,4.403v15.317c0,1.728,0.222,3.195,0.666,4.403
		c0.444,1.21,1.047,2.183,1.813,2.923c0.764,0.74,1.665,1.283,2.701,1.628c1.036,0.346,2.146,0.519,3.33,0.519
		s2.281-0.173,3.293-0.519c1.011-0.345,1.912-0.888,2.701-1.628c0.789-0.74,1.406-1.713,1.85-2.923
		c0.444-1.208,0.666-2.676,0.666-4.403V107.932z"/>
	<path class="st1" d="M477.458,96.091h1.036c0.788,0,1.184,0.396,1.184,1.185v25.974c0,1.728,0.222,3.195,0.666,4.403
		c0.444,1.21,1.061,2.183,1.85,2.923c0.789,0.74,1.689,1.283,2.701,1.628c1.01,0.346,2.109,0.519,3.293,0.519
		s2.294-0.173,3.33-0.519c1.036-0.345,1.936-0.888,2.701-1.628c0.765-0.74,1.369-1.713,1.813-2.923
		c0.444-1.208,0.666-2.676,0.666-4.403V97.275c0-0.788,0.395-1.185,1.184-1.185h1.11c0.789,0,1.184,0.396,1.184,1.185v26.196
		c0,2.071-0.309,3.885-0.925,5.438c-0.618,1.554-1.456,2.85-2.516,3.886c-1.062,1.035-2.331,1.812-3.811,2.33
		c-1.48,0.519-3.06,0.777-4.736,0.777c-1.728,0-3.306-0.259-4.736-0.777c-1.431-0.518-2.689-1.295-3.774-2.33
		c-1.085-1.036-1.924-2.332-2.516-3.886c-0.592-1.554-0.888-3.367-0.888-5.438V97.275C476.273,96.487,476.667,96.091,477.458,96.091
		z"/>
	<path class="st1" d="M514.013,123.249c0,1.728,0.222,3.195,0.666,4.403c0.444,1.21,1.047,2.183,1.813,2.923
		c0.764,0.74,1.665,1.283,2.701,1.628c1.036,0.346,2.146,0.519,3.33,0.519c2.22,0,4.131-0.74,5.735-2.221
		c1.603-1.479,2.405-3.552,2.405-6.216c0-0.739,0.37-1.109,1.11-1.109h1.11c0.789,0,1.184,0.396,1.184,1.184
		c0,1.776-0.296,3.38-0.888,4.81c-0.592,1.432-1.406,2.641-2.442,3.627c-1.036,0.987-2.257,1.751-3.663,2.293
		c-1.406,0.543-2.923,0.814-4.551,0.814c-1.727,0-3.318-0.259-4.773-0.777c-1.456-0.518-2.713-1.295-3.774-2.33
		c-1.062-1.036-1.9-2.332-2.516-3.886c-0.617-1.554-0.925-3.367-0.925-5.438v-15.763c0-2.071,0.308-3.885,0.925-5.438
		c0.616-1.555,1.455-2.85,2.516-3.885c1.061-1.036,2.318-1.813,3.774-2.331c1.455-0.519,3.046-0.777,4.773-0.777
		c1.628,0,3.145,0.271,4.551,0.813c1.406,0.544,2.627,1.309,3.663,2.295c1.036,0.987,1.85,2.195,2.442,3.626
		c0.592,1.431,0.888,3.034,0.888,4.81c0,0.79-0.395,1.184-1.184,1.184h-1.11c-0.74,0-1.11-0.369-1.11-1.109
		c0-2.664-0.802-4.736-2.405-6.216c-1.604-1.48-3.515-2.221-5.735-2.221c-1.184,0-2.294,0.174-3.33,0.519
		c-1.036,0.346-1.937,0.888-2.701,1.628c-0.766,0.74-1.369,1.715-1.813,2.923c-0.444,1.209-0.666,2.677-0.666,4.403V123.249z"/>
	<path class="st1" d="M548.052,133.905c0,0.79-0.396,1.184-1.184,1.184h-1.11c-0.79,0-1.184-0.394-1.184-1.184V83.733
		c0-0.789,0.394-1.184,1.184-1.184h1.11c0.789,0,1.184,0.395,1.184,1.184v16.576c0.937-1.677,2.194-2.935,3.774-3.774
		c1.578-0.838,3.378-1.258,5.402-1.258c1.579,0,3.059,0.259,4.44,0.777c1.381,0.518,2.578,1.283,3.589,2.294
		c1.01,1.012,1.8,2.282,2.368,3.811c0.567,1.53,0.851,3.306,0.851,5.328v26.418c0,0.79-0.396,1.184-1.184,1.184h-1.036
		c-0.79,0-1.184-0.394-1.184-1.184v-25.974c0-1.727-0.222-3.194-0.666-4.403c-0.444-1.208-1.062-2.183-1.85-2.923
		c-0.79-0.74-1.69-1.282-2.701-1.628c-1.012-0.345-2.109-0.519-3.293-0.519s-2.294,0.174-3.33,0.519
		c-1.036,0.346-1.937,0.888-2.701,1.628c-0.766,0.74-1.369,1.715-1.813,2.923c-0.444,1.209-0.666,2.677-0.666,4.403V133.905z"/>
	<path class="st1" d="M585.2,133.905c0,0.79-0.396,1.184-1.184,1.184h-2.59c-0.79,0-1.184-0.394-1.184-1.184v-3.626
		c0-0.788,0.394-1.184,1.184-1.184h2.59c0.789,0,1.184,0.396,1.184,1.184V133.905z M580.76,84.474
		c-0.1-0.789,0.296-1.185,1.184-1.185h1.628c0.789,0,1.184,0.396,1.184,1.185l-0.444,36.26c0,0.79-0.37,1.184-1.11,1.184h-0.888
		c-0.74,0-1.135-0.394-1.184-1.184L580.76,84.474z"/>
</g>
<g>
	<path class="st1" d="M335.799,15.13c0.151,0.151,0.378,0.196,0.68,0.136l5.572-1.178l-1.45,5.527
		c-0.121,0.393-0.211,0.725-0.272,0.997c-0.06,0.302-0.06,0.529,0,0.68c0.091,0.151,0.287,0.302,0.589,0.453l1.993,0.951
		l-9.649,8.109c-0.181,0.151-0.302,0.362-0.362,0.634c-0.121,0.211-0.121,0.453,0,0.725l0.815,2.899
		c-1.117-0.151-2.19-0.287-3.216-0.408c-1.087-0.121-2.144-0.257-3.171-0.408c-1.027-0.121-2.069-0.242-3.126-0.362l0.77,10.102
		h-3.896l0.68-10.102c-0.03,0-0.06,0-0.091,0c-1.087,0.121-2.159,0.242-3.216,0.362c-1.027,0.151-2.069,0.287-3.126,0.408
		c-1.027,0.121-2.099,0.257-3.216,0.408l0.906-2.899c0.03-0.272,0-0.513-0.091-0.725c-0.091-0.272-0.211-0.483-0.362-0.634
		l-9.649-8.109l1.993-0.951c0.272-0.151,0.453-0.302,0.544-0.453c0.06-0.151,0.06-0.377,0-0.68c-0.06-0.272-0.136-0.604-0.227-0.997
		l-1.495-5.527l5.617,1.178c0.242,0.06,0.453,0.015,0.634-0.136c0.181-0.121,0.302-0.272,0.362-0.453l0.725-2.627l4.394,5.164
		c0.151,0.181,0.332,0.332,0.544,0.453c0.211,0.091,0.408,0.091,0.589,0c0.181-0.06,0.302-0.211,0.362-0.453
		c0.091-0.242,0.075-0.604-0.045-1.087l-1.812-10.419l2.492,1.359c0.393,0.242,0.74,0.362,1.042,0.362
		c0.302-0.06,0.544-0.257,0.725-0.589L322.889,0l3.533,6.84c0.181,0.332,0.438,0.529,0.77,0.589c0.302,0,0.649-0.121,1.042-0.362
		l2.537-1.359l-1.903,10.419c-0.121,0.483-0.136,0.846-0.045,1.087c0.091,0.242,0.227,0.393,0.408,0.453
		c0.181,0.091,0.362,0.091,0.544,0c0.211-0.121,0.408-0.272,0.589-0.453l4.394-5.164l0.77,2.627
		C335.558,14.858,335.648,15.009,335.799,15.13"/>
</g>
</svg>