<!-- Generator: Adobe Illustrator 21.0.0, SVG Export Plug-In  -->
<svg version="1.1"
	 xmlns="http://www.w3.org/2000/svg" xmlns:xlink="http://www.w3.org/1999/xlink" xmlns:a="http://ns.adobe.com/AdobeSVGViewerExtensions/3.0/"
	 x="0px" y="0px" width="56.959px" height="17.6px" viewBox="0 0 56.959 17.6" style="enable-background:new 0 0 56.959 17.6;"
	 xml:space="preserve">
<style type="text/css">
	.st0{fill:#7F7F7F;}
	.st1{font-family:'YummoW03-Bold';}
	.st2{font-size:16px;}
</style>
<defs>
</defs>
<g>
	<path class="st0" d="M2.8,4.144H0.929c-0.406,0-0.608-0.203-0.608-0.608V3.008c0-0.405,0.202-0.608,0.608-0.608h5.584
		c0.405,0,0.607,0.203,0.607,0.608v0.528c0,0.405-0.202,0.608-0.607,0.608H4.641v8.848c0,0.405-0.203,0.608-0.608,0.608H3.408
		c-0.405,0-0.608-0.203-0.608-0.608V4.144z"/>
	<path class="st0" d="M10.272,13.023c0,0.384-0.192,0.576-0.576,0.576H9.12c-0.384,0-0.576-0.192-0.576-0.576V2.815
		c0-0.384,0.192-0.576,0.576-0.576h0.576c0.384,0,0.576,0.192,0.576,0.576v2.848c0.373-0.448,0.901-0.672,1.584-0.672
		c0.33,0,0.634,0.053,0.912,0.16c0.277,0.107,0.517,0.27,0.72,0.488c0.202,0.219,0.362,0.494,0.479,0.824
		c0.117,0.331,0.177,0.72,0.177,1.168v5.392c0,0.384-0.192,0.576-0.576,0.576h-0.576c-0.384,0-0.576-0.192-0.576-0.576V7.936
		c0-0.512-0.104-0.861-0.312-1.048s-0.462-0.28-0.761-0.28c-0.298,0-0.552,0.094-0.76,0.28s-0.312,0.536-0.312,1.048V13.023z"/>
	<path class="st0" d="M19.808,11.264c0-0.331,0.166-0.496,0.496-0.496h0.656c0.384,0,0.576,0.192,0.576,0.576
		c0,0.726-0.248,1.312-0.744,1.76c-0.496,0.448-1.154,0.672-1.976,0.672c-0.406,0-0.779-0.059-1.12-0.176
		c-0.342-0.117-0.635-0.293-0.88-0.528c-0.246-0.235-0.44-0.531-0.584-0.888c-0.145-0.357-0.217-0.771-0.217-1.24v-3.12
		c0-0.469,0.072-0.883,0.217-1.24c0.144-0.357,0.338-0.653,0.584-0.888c0.245-0.235,0.538-0.411,0.88-0.528
		c0.341-0.117,0.714-0.176,1.12-0.176c0.395,0,0.765,0.059,1.111,0.176c0.347,0.118,0.643,0.293,0.889,0.528
		c0.245,0.234,0.439,0.531,0.584,0.888c0.144,0.357,0.216,0.771,0.216,1.24v1.36c0,0.384-0.192,0.576-0.576,0.576h-3.296v1.072
		c0,0.512,0.104,0.861,0.312,1.048c0.208,0.187,0.462,0.28,0.761,0.28c0.309,0,0.552-0.08,0.728-0.24
		C19.72,11.76,19.808,11.541,19.808,11.264z M17.744,8.463h2.144V7.936c0-0.512-0.104-0.861-0.312-1.048s-0.462-0.28-0.76-0.28
		c-0.299,0-0.553,0.094-0.761,0.28s-0.312,0.536-0.312,1.048V8.463z"/>
	<path class="st0" d="M30.224,13.6c-0.16,0.032-0.307,0.05-0.44,0.056c-0.134,0.005-0.259,0.008-0.376,0.008
		c-0.768,0-1.354-0.178-1.76-0.536c-0.405-0.357-0.608-0.968-0.608-1.832V3.68c0-0.384,0.192-0.576,0.576-0.576h0.576
		c0.384,0,0.576,0.192,0.576,0.576v1.488h1.376c0.384,0,0.576,0.192,0.576,0.576v0.464c0,0.384-0.192,0.576-0.576,0.576h-1.376
		v4.384c0,0.331,0.063,0.56,0.191,0.688s0.357,0.192,0.688,0.192c0.139,0,0.304-0.016,0.496-0.048
		c0.191-0.032,0.336,0.005,0.432,0.112c0.096,0.106,0.145,0.256,0.145,0.448v0.464c0,0.192-0.046,0.328-0.137,0.408
		S30.373,13.567,30.224,13.6z"/>
	<path class="st0" d="M35.887,11.264c0-0.331,0.166-0.496,0.496-0.496h0.656c0.384,0,0.576,0.192,0.576,0.576
		c0,0.726-0.248,1.312-0.744,1.76c-0.496,0.448-1.154,0.672-1.976,0.672c-0.406,0-0.779-0.059-1.12-0.176
		c-0.342-0.117-0.635-0.293-0.88-0.528c-0.246-0.235-0.44-0.531-0.584-0.888c-0.145-0.357-0.217-0.771-0.217-1.24v-3.12
		c0-0.469,0.072-0.883,0.217-1.24c0.144-0.357,0.338-0.653,0.584-0.888c0.245-0.235,0.538-0.411,0.88-0.528
		c0.341-0.117,0.714-0.176,1.12-0.176c0.395,0,0.765,0.059,1.111,0.176c0.347,0.118,0.643,0.293,0.889,0.528
		c0.245,0.234,0.439,0.531,0.584,0.888c0.144,0.357,0.216,0.771,0.216,1.24v1.36c0,0.384-0.192,0.576-0.576,0.576h-3.296v1.072
		c0,0.512,0.104,0.861,0.312,1.048c0.208,0.187,0.462,0.28,0.761,0.28c0.309,0,0.552-0.08,0.728-0.24
		C35.799,11.76,35.887,11.541,35.887,11.264z M33.823,8.463h2.144V7.936c0-0.512-0.104-0.861-0.312-1.048s-0.462-0.28-0.76-0.28
		c-0.299,0-0.553,0.094-0.761,0.28s-0.312,0.536-0.312,1.048V8.463z"/>
	<path class="st0" d="M44.863,10.944c0,0.469-0.072,0.882-0.216,1.24c-0.145,0.357-0.339,0.653-0.584,0.888
		c-0.246,0.234-0.542,0.411-0.889,0.528s-0.717,0.176-1.111,0.176c-0.406,0-0.779-0.059-1.12-0.176
		c-0.342-0.117-0.638-0.283-0.888-0.496c-0.251-0.213-0.446-0.477-0.584-0.792c-0.14-0.314-0.208-0.674-0.208-1.08V11.2
		c0-0.8,0.239-1.424,0.72-1.872c0.479-0.448,1.173-0.672,2.08-0.672h1.071v-0.72c0-0.512-0.104-0.861-0.312-1.048
		s-0.462-0.28-0.76-0.28c-0.31,0-0.539,0.083-0.688,0.248c-0.149,0.166-0.224,0.366-0.224,0.6c0,0.331-0.166,0.496-0.496,0.496
		h-0.656c-0.384,0-0.576-0.192-0.576-0.576c0-0.341,0.062-0.656,0.185-0.944c0.122-0.288,0.298-0.539,0.527-0.752
		s0.507-0.381,0.832-0.504s0.69-0.184,1.097-0.184c0.395,0,0.765,0.059,1.111,0.176c0.347,0.118,0.643,0.293,0.889,0.528
		c0.245,0.234,0.439,0.531,0.584,0.888c0.144,0.357,0.216,0.771,0.216,1.24V10.944z M42.063,12.16c0.298,0,0.552-0.093,0.76-0.28
		c0.208-0.187,0.312-0.536,0.312-1.048v-0.88h-1.071c-0.299,0-0.553,0.083-0.761,0.248s-0.312,0.451-0.312,0.856
		s0.104,0.691,0.312,0.856C41.511,12.077,41.765,12.16,42.063,12.16z"/>
	<path class="st0" d="M55.951,13.023c0,0.384-0.191,0.576-0.576,0.576h-0.576c-0.384,0-0.575-0.192-0.575-0.576V7.855
		c0-0.48-0.099-0.808-0.296-0.984c-0.198-0.176-0.436-0.264-0.713-0.264S52.7,6.696,52.503,6.872
		c-0.197,0.176-0.296,0.504-0.296,0.984v5.168c0,0.384-0.191,0.576-0.576,0.576h-0.575c-0.385,0-0.576-0.192-0.576-0.576V7.855
		c0-0.48-0.099-0.808-0.296-0.984c-0.198-0.176-0.435-0.264-0.712-0.264c-0.278,0-0.515,0.088-0.712,0.264
		c-0.198,0.176-0.297,0.504-0.297,0.984v5.168c0,0.384-0.191,0.576-0.575,0.576h-0.576c-0.384,0-0.576-0.192-0.576-0.576V7.536
		c0-0.427,0.063-0.797,0.192-1.112c0.128-0.315,0.304-0.579,0.527-0.792c0.225-0.213,0.488-0.374,0.792-0.48
		c0.305-0.106,0.638-0.16,1-0.16c0.48,0,0.898,0.104,1.256,0.312s0.638,0.504,0.841,0.888c0.202-0.384,0.482-0.68,0.84-0.888
		s0.775-0.312,1.256-0.312c0.362,0,0.696,0.053,1,0.16c0.304,0.107,0.567,0.267,0.792,0.48c0.224,0.213,0.399,0.477,0.528,0.792
		c0.128,0.314,0.191,0.685,0.191,1.112V13.023z"/>
</g>
</svg>