<!-- Generator: Adobe Illustrator 21.0.0, SVG Export Plug-In  -->
<svg version="1.1"
	 xmlns="http://www.w3.org/2000/svg" xmlns:xlink="http://www.w3.org/1999/xlink" xmlns:a="http://ns.adobe.com/AdobeSVGViewerExtensions/3.0/"
	 x="0px" y="0px" width="647.32px" height="329.683px" viewBox="0 0 647.32 329.683"
	 style="enable-background:new 0 0 647.32 329.683;" xml:space="preserve">
<style type="text/css">
	.st0{fill:#FFFFFF;}
</style>
<defs>
</defs>
<g id="New_Symbol_7_copy">
	<g>
		<g>
			<path class="st0" d="M10.195,217.498c-1.912,0.027-3.624,0.491-5.137,1.394c-1.54,0.903-2.761,2.124-3.664,3.664
				c-0.903,1.513-1.367,3.213-1.394,5.098c0.027,1.912,0.491,3.624,1.394,5.137c0.903,1.54,2.124,2.761,3.664,3.664
				c1.513,0.903,3.226,1.367,5.137,1.394c1.885-0.027,3.584-0.491,5.098-1.394c1.54-0.903,2.761-2.124,3.664-3.664
				c0.903-1.513,1.367-3.226,1.394-5.137c-0.027-1.885-0.491-3.584-1.394-5.098c-0.903-1.54-2.124-2.761-3.664-3.664
				C13.779,217.989,12.08,217.524,10.195,217.498 M214.693,232.79c0.903,1.54,2.111,2.761,3.624,3.664
				c1.54,0.903,3.252,1.367,5.137,1.394c1.885-0.027,3.597-0.491,5.137-1.394c1.513-0.903,2.735-2.124,3.664-3.664
				c0.903-1.513,1.354-3.226,1.354-5.137c0-1.885-0.451-3.584-1.354-5.098c-0.929-1.54-2.151-2.761-3.664-3.664
				c-1.54-0.903-3.252-1.367-5.137-1.394c-1.885,0.027-3.597,0.491-5.137,1.394c-1.513,0.903-2.721,2.124-3.624,3.664
				c-0.903,1.513-1.367,3.213-1.394,5.098C213.325,229.565,213.79,231.277,214.693,232.79 M183.869,148.801
				c-5.044-2.151-10.474-3.252-16.288-3.305H66.068c-5.841,0.053-11.284,1.155-16.328,3.305c-5.071,2.177-9.518,5.177-13.341,9
				c-3.823,3.823-6.823,8.257-9,13.301c-2.151,5.071-3.239,10.514-3.266,16.328v80.445c0.027,5.841,1.115,11.284,3.266,16.328
				c2.177,5.044,5.177,9.491,9,13.341c3.823,3.823,8.27,6.823,13.341,9c4.779,2.044,9.93,3.133,15.452,3.266
				c0.292,0,0.584,0,0.876,0h7.049c1.832,0.027,3.491,0.478,4.978,1.354c1.487,0.876,2.655,2.058,3.505,3.544
				c0.876,1.46,1.327,3.106,1.354,4.938c0,0.053,0,0.106,0,0.159c-0.027,1.912-0.465,3.651-1.314,5.217
				c-0.027,0.027-0.053,0.066-0.08,0.119c-0.133,0.239-0.265,0.465-0.398,0.677c-0.08,0.106-0.159,0.199-0.239,0.279
				c-0.133,0.212-0.265,0.398-0.398,0.558c-0.08,0.08-0.146,0.173-0.199,0.279c-0.239,0.239-0.478,0.491-0.717,0.757
				c-0.292,0.266-0.571,0.518-0.836,0.757c-0.292,0.239-0.571,0.465-0.836,0.677c-0.265,0.133-0.531,0.292-0.796,0.478l79.449,0.08
				c-0.372-0.266-0.73-0.504-1.075-0.717c-0.558-0.372-1.075-0.81-1.553-1.314c-1.726-1.726-2.774-3.704-3.146-5.934h-0.04
				c0-0.053,0-0.252,0-0.597c0-0.319-0.013-0.743-0.04-1.274c-0.027-1.858,0.398-3.544,1.274-5.058
				c0.876-1.513,2.058-2.708,3.544-3.584c1.487-0.903,3.159-1.367,5.018-1.394h7.009c5.814-0.027,11.244-1.115,16.288-3.266
				c5.071-2.177,9.518-5.177,13.341-9c3.823-3.85,6.823-8.297,9-13.341c2.151-5.044,3.252-10.487,3.305-16.328v-80.445
				c-0.053-5.814-1.155-11.257-3.305-16.328c-2.177-5.044-5.177-9.478-9-13.301C193.387,153.978,188.939,150.978,183.869,148.801
				 M190.997,227.653c0,20.496-7.248,37.966-21.744,52.409c-14.469,14.496-31.952,21.744-52.449,21.744
				c-12.691,0-24.24-2.774-34.647-8.323c-6.372-3.425-12.319-7.898-17.841-13.421c-14.416-14.443-21.625-31.912-21.625-52.409
				s7.208-37.992,21.625-52.488c14.496-14.416,31.992-21.625,52.488-21.625c20.496-0.027,37.979,7.182,52.449,21.625
				C183.749,189.661,190.997,207.157,190.997,227.653"/>
		</g>
		<g id="Layer0_0_1_STROKES_1_">
			<path class="st0" d="M116.804,271.826c-4.937,0-9.228-1.769-12.753-5.258c-3.499-3.535-5.255-7.799-5.255-12.71
				c0-2.666,2.161-4.827,4.827-4.827c2.666,0,4.827,2.161,4.827,4.827c0,2.341,0.771,4.211,2.427,5.884
				c1.665,1.647,3.56,2.431,5.928,2.431c2.358,0,4.235-0.778,5.906-2.449c1.681-1.681,2.471-3.556,2.489-5.902
				c0.02-2.653,2.177-4.791,4.826-4.791c0.012,0,0.025,0,0.037,0c2.665,0.02,4.81,2.197,4.791,4.862
				c-0.036,4.906-1.825,9.164-5.316,12.656C126.034,270.051,121.751,271.826,116.804,271.826z M161.284,254.064
				c-7.296,0.047-13.629-2.539-18.799-7.644c-0.035-0.035-0.069-0.07-0.103-0.106c-0.588-0.617-1.155-1.244-1.685-1.862
				c-0.02-0.024-0.041-0.048-0.061-0.072c-3.928-4.771-5.919-10.386-5.919-16.687c0-6.328,1.991-11.955,5.919-16.727
				c0.02-0.025,0.041-0.05,0.062-0.074c0.529-0.617,1.094-1.242,1.681-1.858c0.031-0.033,0.063-0.065,0.095-0.097
				c5.139-5.106,11.429-7.695,18.694-7.695c7.278,0,13.548,2.596,18.637,7.716c5.156,5.157,7.775,11.463,7.775,18.735
				c0,7.246-2.619,13.54-7.785,18.706C174.743,251.482,168.512,254.064,161.284,254.064z M149.319,239.601
				c3.301,3.236,7.178,4.81,11.85,4.81c4.675,0.037,8.54-1.558,11.789-4.828c3.347-3.347,4.969-7.232,4.969-11.89
				c0-4.684-1.622-8.583-4.958-11.92c-3.266-3.286-7.122-4.878-11.8-4.878c-4.667,0-8.542,1.584-11.843,4.843
				c-0.443,0.467-0.868,0.937-1.266,1.4c-2.482,3.031-3.689,6.485-3.689,10.556c0,4.045,1.207,7.485,3.689,10.516
				C148.455,238.67,148.878,239.137,149.319,239.601z M72.038,254.064c-0.046,0-0.091,0-0.137,0c-7.244,0-13.521-2.575-18.633-7.655
				c-0.061-0.06-0.12-0.122-0.177-0.185l-1.514-1.674c-0.046-0.051-0.09-0.102-0.134-0.155c-3.962-4.774-5.971-10.394-5.971-16.702
				c0-6.335,2.009-11.968,5.971-16.742c0.044-0.053,0.09-0.106,0.136-0.156l1.511-1.67c0.055-0.06,0.111-0.119,0.168-0.177
				c5.114-5.113,11.394-7.706,18.665-7.706c7.272,0,13.552,2.592,18.665,7.706c5.166,5.167,7.786,11.474,7.786,18.746
				c0,7.246-2.619,13.54-7.785,18.706C85.501,251.486,79.26,254.064,72.038,254.064z M60.158,239.647
				c3.266,3.205,7.116,4.764,11.764,4.764c0.031,0,0.062,0,0.093,0c4.655,0,8.491-1.583,11.747-4.839
				c3.336-3.336,4.958-7.222,4.958-11.879c0-4.684-1.622-8.583-4.958-11.92c-3.283-3.282-7.156-4.878-11.84-4.878
				c-4.645,0-8.493,1.57-11.759,4.798l-1.355,1.497c-2.479,3.02-3.684,6.456-3.684,10.503c0,4.02,1.205,7.443,3.684,10.463
				L60.158,239.647z"/>
		</g>
		<path class="st0" d="M77.459,141.553h78.653c2.568,0,4.968-1.28,6.399-3.413l8.305-12.382l-5.74-1.04
			c-0.796-0.128-1.374-0.398-1.734-0.809c-0.231-0.308-0.385-0.873-0.462-1.695c0-0.693,0-1.592,0-2.697l-0.115-15.025
			l-13.329,6.819c-0.745,0.334-1.323,0.372-1.734,0.116c-0.539-0.205-0.912-0.514-1.117-0.925l-3.814-5.971l-5.967,11.802
			c-0.795,1.573-3.181,0.795-2.896-0.944l3.393-20.72l-6.588,3.621c-1.001,0.539-1.887,0.809-2.658,0.809
			c-0.925-0.077-1.618-0.578-2.08-1.502l-9.246-17.914l-9.246,17.914c-0.539,0.925-1.194,1.425-1.965,1.502
			c-0.848,0-1.772-0.27-2.774-0.809l-6.434-3.621l3.421,21.186c0.281,1.738-2.104,2.512-2.897,0.94l-6.11-12.11l-3.66,6.28
			c-0.283,0.385-0.668,0.681-1.156,0.886c-0.539,0.257-1.117,0.218-1.734-0.116l-13.368-6.819l-0.154,15.063
			c0.026,1.13,0.038,2.042,0.038,2.735c-0.077,0.796-0.27,1.336-0.578,1.618c-0.257,0.411-0.796,0.681-1.618,0.809l-5.702,1.079
			l8.335,12.018C72.567,140.315,74.933,141.553,77.459,141.553z"/>
	</g>
	<g>
		<path class="st0" d="M396.103,68.843c0-1.064,0.532-1.597,1.596-1.597h7.182c1.288,0,2.492,0.168,3.612,0.504
			c1.12,0.337,2.085,0.861,2.898,1.575c0.812,0.714,1.449,1.617,1.911,2.709c0.462,1.093,0.693,2.409,0.693,3.948V87.91
			c0,1.541-0.231,2.856-0.693,3.948s-1.099,1.995-1.911,2.709c-0.812,0.714-1.778,1.239-2.898,1.575
			c-1.12,0.336-2.324,0.504-3.612,0.504h-7.182c-1.064,0-1.596-0.531-1.596-1.596V68.843z M409.165,76.486
			c0-0.979-0.119-1.771-0.357-2.373c-0.238-0.602-0.561-1.07-0.966-1.407c-0.406-0.336-0.875-0.566-1.407-0.692
			c-0.532-0.126-1.092-0.189-1.68-0.189h-3.822v20.244h3.822c0.588,0,1.147-0.062,1.68-0.188c0.532-0.126,1.001-0.357,1.407-0.693
			c0.405-0.336,0.728-0.805,0.966-1.407c0.238-0.602,0.357-1.393,0.357-2.373V76.486z"/>
		<path class="st0" d="M433.482,89.675c0,1.26-0.189,2.359-0.567,3.297c-0.378,0.938-0.889,1.708-1.533,2.31
			c-0.645,0.603-1.421,1.058-2.331,1.365c-0.91,0.308-1.884,0.462-2.919,0.462c-1.064,0-2.044-0.154-2.94-0.462
			c-0.896-0.308-1.667-0.763-2.31-1.365c-0.645-0.602-1.155-1.371-1.533-2.31c-0.378-0.938-0.567-2.037-0.567-3.297v-8.19
			c0-1.231,0.189-2.316,0.567-3.255c0.378-0.938,0.889-1.715,1.533-2.331c0.644-0.615,1.414-1.077,2.31-1.386
			c0.896-0.308,1.875-0.462,2.94-0.462c1.035,0,2.009,0.154,2.919,0.462c0.91,0.309,1.687,0.771,2.331,1.386
			c0.644,0.616,1.155,1.394,1.533,2.331c0.378,0.938,0.567,2.023,0.567,3.255V89.675z M428.947,81.778
			c0-1.344-0.273-2.261-0.819-2.751c-0.546-0.489-1.211-0.734-1.995-0.734c-0.784,0-1.449,0.245-1.995,0.734
			c-0.546,0.49-0.819,1.407-0.819,2.751v7.603c0,1.344,0.273,2.261,0.819,2.751s1.211,0.734,1.995,0.734
			c0.783,0,1.449-0.244,1.995-0.734c0.546-0.49,0.819-1.407,0.819-2.751V81.778z"/>
		<path class="st0" d="M451.585,96.646h-1.512c-1.008,0-1.512-0.504-1.512-1.512V81.778c0-1.344-0.273-2.261-0.819-2.751
			c-0.546-0.489-1.211-0.734-1.995-0.734c-0.784,0-1.449,0.245-1.995,0.734c-0.546,0.49-0.819,1.407-0.819,2.751v13.356
			c0,1.008-0.504,1.512-1.512,1.512h-1.512c-1.008,0-1.512-0.504-1.512-1.512v-13.65c0-1.231,0.189-2.316,0.567-3.255
			c0.378-0.938,0.889-1.715,1.533-2.331c0.644-0.615,1.414-1.077,2.31-1.386c0.896-0.308,1.875-0.462,2.94-0.462
			c1.036,0,2.009,0.154,2.919,0.462c0.91,0.309,1.687,0.771,2.331,1.386c0.644,0.616,1.155,1.394,1.533,2.331
			c0.378,0.938,0.567,2.023,0.567,3.255v13.65C453.097,96.143,452.592,96.646,451.585,96.646z"/>
		<path class="st0" d="M460.614,77.116c-0.084,0.28-0.231,0.519-0.441,0.714c-0.21,0.196-0.511,0.294-0.903,0.294h-1.092
			c-0.309,0-0.567-0.09-0.777-0.272c-0.21-0.182-0.288-0.469-0.231-0.861l1.344-8.231c0.168-1.009,0.742-1.513,1.722-1.513h1.932
			c0.448,0,0.784,0.147,1.008,0.441c0.224,0.294,0.237,0.722,0.042,1.281L460.614,77.116z"/>
		<path class="st0" d="M476.952,96.646c-0.42,0.084-0.805,0.133-1.155,0.147c-0.351,0.014-0.679,0.021-0.987,0.021
			c-2.016,0-3.556-0.469-4.62-1.407c-1.064-0.938-1.596-2.541-1.596-4.809V70.606c0-1.008,0.504-1.512,1.512-1.512h1.512
			c1.008,0,1.512,0.504,1.512,1.512v3.906h3.612c1.008,0,1.512,0.504,1.512,1.512v1.218c0,1.008-0.504,1.513-1.512,1.513h-3.612
			v11.508c0,0.868,0.168,1.47,0.504,1.806s0.938,0.504,1.806,0.504c0.363,0,0.798-0.042,1.302-0.126s0.882,0.015,1.134,0.294
			c0.252,0.28,0.378,0.672,0.378,1.176v1.219c0,0.504-0.12,0.86-0.357,1.07C477.659,96.415,477.344,96.562,476.952,96.646z"/>
		<path class="st0" d="M491.566,76.024c0-1.008,0.504-1.512,1.512-1.512h1.512c1.008,0,1.512,0.504,1.512,1.512v13.566
			c0,1.26,0.258,2.121,0.777,2.583c0.518,0.462,1.141,0.692,1.869,0.692c0.728,0,1.351-0.23,1.869-0.692s0.777-1.323,0.777-2.583
			V76.024c0-1.008,0.504-1.512,1.512-1.512h1.512c1.008,0,1.512,0.504,1.512,1.512v13.566c0,1.26,0.259,2.121,0.777,2.583
			c0.518,0.462,1.141,0.692,1.869,0.692s1.351-0.23,1.869-0.692c0.518-0.462,0.777-1.323,0.777-2.583V76.024
			c0-1.008,0.504-1.512,1.512-1.512h1.512c1.008,0,1.512,0.504,1.512,1.512v14.406c0,1.12-0.168,2.093-0.504,2.919
			s-0.798,1.52-1.386,2.079c-0.588,0.561-1.281,0.98-2.079,1.26c-0.798,0.279-1.673,0.42-2.625,0.42
			c-1.26,0-2.359-0.267-3.297-0.798s-1.673-1.315-2.205-2.353c-0.532,1.037-1.268,1.821-2.205,2.353
			c-0.938,0.531-2.037,0.798-3.297,0.798c-0.953,0-1.827-0.141-2.625-0.42c-0.798-0.279-1.491-0.699-2.079-1.26
			c-0.588-0.56-1.05-1.253-1.386-2.079s-0.504-1.799-0.504-2.919V76.024z"/>
		<path class="st0" d="M535.372,89.675c0,1.26-0.189,2.359-0.567,3.297c-0.378,0.938-0.889,1.708-1.533,2.31
			c-0.645,0.603-1.421,1.058-2.331,1.365c-0.91,0.308-1.884,0.462-2.919,0.462c-1.064,0-2.044-0.154-2.94-0.462
			c-0.896-0.308-1.667-0.763-2.31-1.365c-0.645-0.602-1.155-1.371-1.533-2.31c-0.378-0.938-0.567-2.037-0.567-3.297v-8.19
			c0-1.231,0.189-2.316,0.567-3.255c0.378-0.938,0.889-1.715,1.533-2.331c0.644-0.615,1.414-1.077,2.31-1.386
			c0.896-0.308,1.875-0.462,2.94-0.462c1.035,0,2.009,0.154,2.919,0.462c0.91,0.309,1.687,0.771,2.331,1.386
			c0.644,0.616,1.155,1.394,1.533,2.331c0.378,0.938,0.567,2.023,0.567,3.255V89.675z M530.836,81.778
			c0-1.344-0.273-2.261-0.819-2.751c-0.546-0.489-1.211-0.734-1.995-0.734c-0.784,0-1.449,0.245-1.995,0.734
			c-0.546,0.49-0.819,1.407-0.819,2.751v7.603c0,1.344,0.273,2.261,0.819,2.751s1.211,0.734,1.995,0.734
			c0.783,0,1.449-0.244,1.995-0.734c0.546-0.49,0.819-1.407,0.819-2.751V81.778z"/>
		<path class="st0" d="M547.552,78.545c-0.98,0-1.68,0.195-2.1,0.588s-0.63,1.078-0.63,2.058v13.944
			c0,1.008-0.504,1.512-1.512,1.512h-1.512c-1.008,0-1.512-0.504-1.512-1.512v-14.28c0-2.408,0.581-4.102,1.743-5.082
			c1.162-0.979,2.793-1.47,4.893-1.47c0.308,0,0.636,0.007,0.987,0.021c0.35,0.015,0.735,0.063,1.155,0.147
			c0.392,0.084,0.707,0.23,0.945,0.44c0.237,0.21,0.357,0.567,0.357,1.071V77.2c0,0.504-0.126,0.896-0.378,1.177
			c-0.252,0.279-0.63,0.378-1.134,0.294S547.916,78.545,547.552,78.545z"/>
		<path class="st0" d="M560.866,78.545c-0.98,0-1.68,0.195-2.1,0.588s-0.63,1.078-0.63,2.058v13.944
			c0,1.008-0.504,1.512-1.512,1.512h-1.512c-1.008,0-1.512-0.504-1.512-1.512v-14.28c0-2.408,0.581-4.102,1.743-5.082
			c1.162-0.979,2.793-1.47,4.893-1.47c0.308,0,0.636,0.007,0.987,0.021c0.35,0.015,0.735,0.063,1.155,0.147
			c0.392,0.084,0.707,0.23,0.945,0.44c0.237,0.21,0.357,0.567,0.357,1.071V77.2c0,0.504-0.126,0.896-0.378,1.177
			c-0.252,0.279-0.63,0.378-1.134,0.294S561.229,78.545,560.866,78.545z"/>
		<path class="st0" d="M577.035,76.024c0-1.008,0.504-1.512,1.512-1.512h1.512c1.008,0,1.512,0.504,1.512,1.512v20.958
			c0,1.231-0.189,2.303-0.567,3.213c-0.378,0.91-0.889,1.659-1.533,2.247c-0.645,0.588-1.421,1.029-2.331,1.323
			c-0.91,0.294-1.883,0.44-2.919,0.44c-1.12,0-2.121-0.161-3.003-0.482c-0.882-0.322-1.632-0.756-2.247-1.302
			c-0.616-0.547-1.085-1.184-1.407-1.911c-0.322-0.729-0.483-1.513-0.483-2.353c0-1.008,0.504-1.512,1.512-1.512h1.722
			c0.868,0,1.302,0.434,1.302,1.302c0,0.616,0.21,1.141,0.63,1.575c0.42,0.434,1.078,0.651,1.974,0.651
			c0.784,0,1.449-0.21,1.995-0.63c0.546-0.421,0.819-1.303,0.819-2.646V93.16c-0.98,1.177-2.367,1.765-4.158,1.765
			c-1.736,0-3.171-0.567-4.305-1.701c-1.134-1.134-1.701-2.877-1.701-5.229v-11.97c0-1.008,0.504-1.512,1.512-1.512h1.512
			c1.008,0,1.512,0.504,1.512,1.512v11.172c0,1.344,0.273,2.262,0.819,2.751c0.546,0.49,1.211,0.735,1.995,0.735
			c0.784,0,1.449-0.245,1.995-0.735c0.546-0.489,0.819-1.407,0.819-2.751V76.024z"/>
		<path class="st0" d="M589.341,101.015c-0.084,0.279-0.231,0.518-0.441,0.714c-0.21,0.195-0.511,0.294-0.903,0.294h-1.092
			c-0.309,0-0.567-0.091-0.777-0.273c-0.21-0.182-0.288-0.469-0.231-0.86l1.344-8.232c0.168-1.008,0.742-1.512,1.722-1.512h1.932
			c0.448,0,0.784,0.146,1.008,0.441c0.224,0.294,0.237,0.721,0.042,1.28L589.341,101.015z"/>
		<path class="st0" d="M398.833,107.246h1.638c1.064,0,1.596,0.532,1.596,1.597v26.208c0,1.064-0.532,1.596-1.596,1.596h-1.638
			c-1.064,0-1.596-0.531-1.596-1.596v-26.208C397.236,107.778,397.768,107.246,398.833,107.246z"/>
		<path class="st0" d="M417.312,116.024c0-1.008,0.504-1.512,1.512-1.512h1.512c1.008,0,1.512,0.504,1.512,1.512v13.566
			c0,1.26,0.258,2.121,0.777,2.583c0.518,0.462,1.141,0.692,1.869,0.692c0.728,0,1.351-0.23,1.869-0.692s0.777-1.323,0.777-2.583
			v-13.566c0-1.008,0.504-1.512,1.512-1.512h1.512c1.008,0,1.512,0.504,1.512,1.512v13.566c0,1.26,0.259,2.121,0.777,2.583
			c0.518,0.462,1.141,0.692,1.869,0.692s1.351-0.23,1.869-0.692c0.518-0.462,0.777-1.323,0.777-2.583v-13.566
			c0-1.008,0.504-1.512,1.512-1.512h1.512c1.008,0,1.512,0.504,1.512,1.512v14.406c0,1.12-0.168,2.093-0.504,2.919
			s-0.798,1.52-1.386,2.079c-0.588,0.561-1.281,0.98-2.079,1.26c-0.798,0.279-1.673,0.42-2.625,0.42
			c-1.26,0-2.359-0.267-3.297-0.798s-1.673-1.315-2.205-2.353c-0.532,1.037-1.268,1.821-2.205,2.353
			c-0.938,0.531-2.037,0.798-3.297,0.798c-0.953,0-1.827-0.141-2.625-0.42c-0.798-0.279-1.491-0.699-2.079-1.26
			c-0.588-0.56-1.05-1.253-1.386-2.079s-0.504-1.799-0.504-2.919V116.024z"/>
		<path class="st0" d="M461.117,129.675c0,1.26-0.189,2.359-0.567,3.297c-0.378,0.938-0.889,1.708-1.533,2.31
			c-0.645,0.603-1.421,1.058-2.331,1.365c-0.91,0.308-1.884,0.462-2.919,0.462c-1.064,0-2.044-0.154-2.94-0.462
			c-0.896-0.308-1.667-0.763-2.31-1.365c-0.645-0.602-1.155-1.371-1.533-2.31c-0.378-0.938-0.567-2.037-0.567-3.297v-8.19
			c0-1.231,0.189-2.316,0.567-3.255c0.378-0.938,0.889-1.715,1.533-2.331c0.644-0.615,1.414-1.077,2.31-1.386
			c0.896-0.308,1.875-0.462,2.94-0.462c1.035,0,2.009,0.154,2.919,0.462c0.91,0.309,1.687,0.771,2.331,1.386
			c0.644,0.616,1.155,1.394,1.533,2.331c0.378,0.938,0.567,2.023,0.567,3.255V129.675z M456.582,121.778
			c0-1.344-0.273-2.261-0.819-2.751c-0.546-0.489-1.211-0.734-1.995-0.734c-0.784,0-1.449,0.245-1.995,0.734
			c-0.546,0.49-0.819,1.407-0.819,2.751v7.603c0,1.344,0.273,2.261,0.819,2.751s1.211,0.734,1.995,0.734
			c0.783,0,1.449-0.244,1.995-0.734c0.546-0.49,0.819-1.407,0.819-2.751V121.778z"/>
		<path class="st0" d="M479.219,136.646h-1.512c-1.008,0-1.512-0.504-1.512-1.512v-13.356c0-1.344-0.273-2.261-0.819-2.751
			c-0.546-0.489-1.211-0.734-1.995-0.734c-0.784,0-1.449,0.245-1.995,0.734c-0.546,0.49-0.819,1.407-0.819,2.751v13.356
			c0,1.008-0.504,1.512-1.512,1.512h-1.512c-1.008,0-1.512-0.504-1.512-1.512v-13.65c0-1.231,0.189-2.316,0.567-3.255
			c0.378-0.938,0.889-1.715,1.533-2.331c0.644-0.615,1.414-1.077,2.31-1.386c0.896-0.308,1.875-0.462,2.94-0.462
			c1.036,0,2.009,0.154,2.919,0.462c0.91,0.309,1.687,0.771,2.331,1.386c0.644,0.616,1.155,1.394,1.533,2.331
			c0.378,0.938,0.567,2.023,0.567,3.255v13.65C480.732,136.143,480.227,136.646,479.219,136.646z"/>
		<path class="st0" d="M488.249,117.116c-0.084,0.28-0.231,0.519-0.441,0.714c-0.21,0.196-0.511,0.294-0.903,0.294h-1.092
			c-0.309,0-0.567-0.09-0.777-0.272c-0.21-0.182-0.288-0.469-0.231-0.861l1.344-8.231c0.168-1.009,0.742-1.513,1.722-1.513h1.932
			c0.448,0,0.784,0.147,1.008,0.441c0.224,0.294,0.237,0.722,0.042,1.281L488.249,117.116z"/>
		<path class="st0" d="M504.586,136.646c-0.42,0.084-0.805,0.133-1.155,0.147c-0.351,0.014-0.679,0.021-0.987,0.021
			c-2.016,0-3.556-0.469-4.62-1.407c-1.064-0.938-1.596-2.541-1.596-4.809v-19.992c0-1.008,0.504-1.512,1.512-1.512h1.512
			c1.008,0,1.512,0.504,1.512,1.512v3.906h3.612c1.008,0,1.512,0.504,1.512,1.512v1.218c0,1.008-0.504,1.513-1.512,1.513h-3.612
			v11.508c0,0.868,0.168,1.47,0.504,1.806s0.938,0.504,1.806,0.504c0.363,0,0.798-0.042,1.302-0.126s0.882,0.015,1.134,0.294
			c0.252,0.28,0.378,0.672,0.378,1.176v1.219c0,0.504-0.12,0.86-0.357,1.07C505.294,136.415,504.979,136.562,504.586,136.646z"/>
		<path class="st0" d="M527.895,120.225c0-0.615-0.21-1.092-0.63-1.428s-0.994-0.504-1.722-0.504s-1.302,0.168-1.722,0.504
			s-0.63,0.868-0.63,1.596v0.084c0,0.729,0.237,1.302,0.714,1.722c0.476,0.42,1.063,0.792,1.764,1.113
			c0.7,0.322,1.47,0.645,2.31,0.966c0.84,0.322,1.61,0.742,2.31,1.26c0.7,0.519,1.288,1.19,1.764,2.017
			c0.476,0.826,0.714,1.911,0.714,3.255c0,1.008-0.182,1.904-0.546,2.688c-0.364,0.784-0.861,1.442-1.491,1.975
			c-0.63,0.532-1.386,0.938-2.268,1.218c-0.882,0.279-1.842,0.42-2.877,0.42c-1.064,0-2.03-0.154-2.898-0.462
			c-0.868-0.308-1.617-0.721-2.247-1.239c-0.63-0.518-1.12-1.141-1.47-1.869c-0.351-0.728-0.525-1.512-0.525-2.352v-0.252
			c0-1.008,0.504-1.512,1.512-1.512h1.722c0.868,0,1.302,0.434,1.302,1.302c0,0.729,0.238,1.268,0.714,1.617
			c0.476,0.351,1.105,0.524,1.89,0.524c0.784,0,1.421-0.168,1.911-0.504c0.49-0.336,0.735-0.909,0.735-1.722v-0.084
			c0-0.728-0.238-1.295-0.714-1.701c-0.477-0.405-1.064-0.763-1.764-1.071c-0.701-0.308-1.47-0.615-2.31-0.924
			c-0.84-0.308-1.611-0.721-2.31-1.239c-0.7-0.518-1.289-1.183-1.764-1.994c-0.477-0.812-0.714-1.891-0.714-3.234
			c0-2.016,0.636-3.576,1.911-4.683c1.273-1.106,2.933-1.659,4.977-1.659c1.036,0,1.974,0.154,2.814,0.462
			c0.84,0.309,1.561,0.734,2.163,1.281c0.602,0.546,1.071,1.176,1.407,1.89s0.504,1.491,0.504,2.331
			c0,1.008-0.504,1.512-1.512,1.512h-1.722C528.329,121.526,527.895,121.093,527.895,120.225z"/>
		<path class="st0" d="M546.879,130.515c0-0.868,0.434-1.302,1.302-1.302h1.722c1.008,0,1.512,0.504,1.512,1.512
			c0,1.904-0.651,3.444-1.953,4.62c-1.302,1.176-3.031,1.764-5.187,1.764c-1.064,0-2.044-0.154-2.94-0.462
			c-0.896-0.308-1.667-0.77-2.31-1.386c-0.645-0.616-1.155-1.393-1.533-2.331c-0.378-0.938-0.567-2.022-0.567-3.255v-8.19
			c0-1.231,0.189-2.316,0.567-3.255c0.378-0.938,0.889-1.715,1.533-2.331c0.644-0.615,1.414-1.077,2.31-1.386
			c0.896-0.308,1.875-0.462,2.94-0.462c1.035,0,2.009,0.154,2.919,0.462c0.91,0.309,1.687,0.771,2.331,1.386
			c0.644,0.616,1.155,1.394,1.533,2.331c0.378,0.938,0.567,2.023,0.567,3.255v3.57c0,1.008-0.504,1.512-1.512,1.512h-8.652v2.814
			c0,1.344,0.273,2.261,0.819,2.751s1.211,0.734,1.995,0.734c0.812,0,1.449-0.21,1.911-0.63
			C546.648,131.816,546.879,131.243,546.879,130.515z M541.461,123.164h5.628v-1.386c0-1.344-0.273-2.261-0.819-2.751
			c-0.546-0.489-1.211-0.734-1.995-0.734c-0.784,0-1.449,0.245-1.995,0.734c-0.546,0.49-0.819,1.407-0.819,2.751V123.164z"/>
		<path class="st0" d="M569.685,136.646h-1.512c-1.008,0-1.512-0.504-1.512-1.512v-13.356c0-1.344-0.273-2.261-0.819-2.751
			c-0.546-0.489-1.211-0.734-1.995-0.734c-0.784,0-1.449,0.245-1.995,0.734c-0.546,0.49-0.819,1.407-0.819,2.751v13.356
			c0,1.008-0.504,1.512-1.512,1.512h-1.512c-1.008,0-1.512-0.504-1.512-1.512v-13.65c0-1.231,0.189-2.316,0.567-3.255
			c0.378-0.938,0.889-1.715,1.533-2.331c0.644-0.615,1.414-1.077,2.31-1.386c0.896-0.308,1.875-0.462,2.94-0.462
			c1.036,0,2.009,0.154,2.919,0.462c0.91,0.309,1.687,0.771,2.331,1.386c0.644,0.616,1.155,1.394,1.533,2.331
			c0.378,0.938,0.567,2.023,0.567,3.255v13.65C571.197,136.143,570.692,136.646,569.685,136.646z"/>
		<path class="st0" d="M576.11,120.98c0-2.352,0.567-4.095,1.701-5.229c1.134-1.135,2.568-1.701,4.305-1.701
			c0.84,0,1.617,0.141,2.331,0.42c0.714,0.28,1.323,0.729,1.827,1.344v-7.476c0-1.009,0.504-1.513,1.512-1.513h1.512
			c1.008,0,1.512,0.504,1.512,1.513v21.336c0,1.26-0.189,2.359-0.567,3.297c-0.378,0.938-0.889,1.708-1.533,2.31
			c-0.645,0.603-1.421,1.058-2.331,1.365c-0.91,0.308-1.884,0.462-2.919,0.462c-1.064,0-2.044-0.154-2.94-0.462
			c-0.896-0.308-1.667-0.763-2.31-1.365c-0.645-0.602-1.155-1.371-1.533-2.31c-0.378-0.938-0.567-2.037-0.567-3.297V120.98z
			 M580.647,129.381c0,1.344,0.273,2.261,0.819,2.751s1.211,0.734,1.995,0.734c0.783,0,1.449-0.244,1.995-0.734
			c0.546-0.49,0.819-1.407,0.819-2.751v-7.603c0-1.344-0.273-2.261-0.819-2.751c-0.546-0.489-1.211-0.734-1.995-0.734
			c-0.784,0-1.449,0.245-1.995,0.734c-0.546,0.49-0.819,1.407-0.819,2.751V129.381z"/>
		<path class="st0" d="M413.638,156.024c0-1.008,0.504-1.512,1.512-1.512h1.512c1.008,0,1.512,0.504,1.512,1.512v20.958
			c0,1.231-0.189,2.303-0.567,3.213c-0.378,0.91-0.889,1.659-1.533,2.247c-0.645,0.588-1.421,1.029-2.331,1.323
			c-0.91,0.294-1.883,0.44-2.919,0.44c-1.12,0-2.121-0.161-3.003-0.482c-0.882-0.322-1.632-0.756-2.247-1.302
			c-0.616-0.547-1.085-1.184-1.407-1.911c-0.322-0.729-0.483-1.513-0.483-2.353c0-1.008,0.504-1.512,1.512-1.512h1.722
			c0.868,0,1.302,0.434,1.302,1.302c0,0.616,0.21,1.141,0.63,1.575c0.42,0.434,1.078,0.651,1.974,0.651
			c0.784,0,1.449-0.21,1.995-0.63c0.546-0.421,0.819-1.303,0.819-2.646v-3.738c-0.98,1.177-2.367,1.765-4.158,1.765
			c-1.736,0-3.171-0.567-4.305-1.701c-1.134-1.134-1.701-2.877-1.701-5.229v-11.97c0-1.008,0.504-1.512,1.512-1.512h1.512
			c1.008,0,1.512,0.504,1.512,1.512v11.172c0,1.344,0.273,2.262,0.819,2.751c0.546,0.49,1.211,0.735,1.995,0.735
			c0.784,0,1.449-0.245,1.995-0.735c0.546-0.489,0.819-1.407,0.819-2.751V156.024z"/>
		<path class="st0" d="M438.039,169.675c0,1.26-0.189,2.359-0.567,3.297c-0.378,0.938-0.889,1.708-1.533,2.31
			c-0.645,0.603-1.421,1.058-2.331,1.365c-0.91,0.308-1.884,0.462-2.919,0.462c-1.064,0-2.044-0.154-2.94-0.462
			c-0.896-0.308-1.667-0.763-2.31-1.365c-0.645-0.602-1.155-1.371-1.533-2.31c-0.378-0.938-0.567-2.037-0.567-3.297v-8.19
			c0-1.231,0.189-2.316,0.567-3.255c0.378-0.938,0.889-1.715,1.533-2.331c0.644-0.615,1.414-1.077,2.31-1.386
			c0.896-0.308,1.875-0.462,2.94-0.462c1.035,0,2.009,0.154,2.919,0.462c0.91,0.309,1.687,0.771,2.331,1.386
			c0.644,0.616,1.155,1.394,1.533,2.331c0.378,0.938,0.567,2.023,0.567,3.255V169.675z M433.503,161.778
			c0-1.344-0.273-2.261-0.819-2.751c-0.546-0.489-1.211-0.734-1.995-0.734c-0.784,0-1.449,0.245-1.995,0.734
			c-0.546,0.49-0.819,1.407-0.819,2.751v7.603c0,1.344,0.273,2.261,0.819,2.751s1.211,0.734,1.995,0.734
			c0.783,0,1.449-0.244,1.995-0.734c0.546-0.49,0.819-1.407,0.819-2.751V161.778z"/>
		<path class="st0" d="M444.465,154.513h1.512c1.008,0,1.512,0.504,1.512,1.512v13.356c0,1.344,0.273,2.261,0.819,2.751
			s1.211,0.734,1.995,0.734c0.784,0,1.449-0.244,1.995-0.734c0.546-0.49,0.819-1.407,0.819-2.751v-13.356
			c0-1.008,0.504-1.512,1.512-1.512h1.512c1.008,0,1.512,0.504,1.512,1.512v13.65c0,1.232-0.189,2.317-0.567,3.255
			c-0.378,0.938-0.889,1.715-1.533,2.331c-0.645,0.616-1.421,1.078-2.331,1.386c-0.91,0.308-1.883,0.462-2.919,0.462
			c-1.064,0-2.044-0.154-2.94-0.462c-0.896-0.308-1.667-0.77-2.31-1.386c-0.645-0.616-1.155-1.393-1.533-2.331
			c-0.378-0.938-0.567-2.022-0.567-3.255v-13.65C442.953,155.017,443.457,154.513,444.465,154.513z"/>
		<path class="st0" d="M480.962,160.225c0-0.615-0.21-1.092-0.63-1.428s-0.994-0.504-1.722-0.504s-1.302,0.168-1.722,0.504
			s-0.63,0.868-0.63,1.596v0.084c0,0.729,0.237,1.302,0.714,1.722c0.476,0.42,1.063,0.792,1.764,1.113
			c0.7,0.322,1.47,0.645,2.31,0.966c0.84,0.322,1.61,0.742,2.31,1.26c0.7,0.519,1.288,1.19,1.764,2.017
			c0.476,0.826,0.714,1.911,0.714,3.255c0,1.008-0.182,1.904-0.546,2.688c-0.364,0.784-0.861,1.442-1.491,1.975
			c-0.63,0.532-1.386,0.938-2.268,1.218c-0.882,0.279-1.842,0.42-2.877,0.42c-1.064,0-2.03-0.154-2.898-0.462
			c-0.868-0.308-1.617-0.721-2.247-1.239c-0.63-0.518-1.12-1.141-1.47-1.869c-0.351-0.728-0.525-1.512-0.525-2.352v-0.252
			c0-1.008,0.504-1.512,1.512-1.512h1.722c0.868,0,1.302,0.434,1.302,1.302c0,0.729,0.238,1.268,0.714,1.617
			c0.476,0.351,1.105,0.524,1.89,0.524c0.784,0,1.421-0.168,1.911-0.504c0.49-0.336,0.735-0.909,0.735-1.722v-0.084
			c0-0.728-0.238-1.295-0.714-1.701c-0.477-0.405-1.064-0.763-1.764-1.071c-0.701-0.308-1.47-0.615-2.31-0.924
			c-0.84-0.308-1.611-0.721-2.31-1.239c-0.7-0.518-1.289-1.183-1.764-1.994c-0.477-0.812-0.714-1.891-0.714-3.234
			c0-2.016,0.636-3.576,1.911-4.683c1.273-1.106,2.933-1.659,4.977-1.659c1.036,0,1.974,0.154,2.814,0.462
			c0.84,0.309,1.561,0.734,2.163,1.281c0.602,0.546,1.071,1.176,1.407,1.89s0.504,1.491,0.504,2.331
			c0,1.008-0.504,1.512-1.512,1.512h-1.722C481.396,161.526,480.962,161.093,480.962,160.225z"/>
		<path class="st0" d="M505.112,170.179c0,1.176-0.154,2.198-0.462,3.065c-0.308,0.868-0.728,1.59-1.26,2.163
			c-0.532,0.574-1.162,1.002-1.89,1.281c-0.729,0.279-1.526,0.42-2.394,0.42c-1.792,0-3.178-0.588-4.158-1.764v6.888
			c0,1.008-0.504,1.512-1.512,1.512h-1.512c-1.008,0-1.512-0.504-1.512-1.512v-20.748c0-1.26,0.189-2.358,0.567-3.297
			c0.378-0.938,0.889-1.708,1.533-2.31c0.644-0.603,1.414-1.057,2.31-1.365c0.896-0.308,1.875-0.462,2.94-0.462
			c1.036,0,2.009,0.154,2.919,0.462c0.91,0.309,1.687,0.763,2.331,1.365c0.644,0.602,1.155,1.372,1.533,2.31
			c0.378,0.938,0.567,2.037,0.567,3.297V170.179z M500.576,161.778c0-1.344-0.273-2.261-0.819-2.751
			c-0.546-0.489-1.211-0.734-1.995-0.734c-0.784,0-1.449,0.245-1.995,0.734c-0.546,0.49-0.819,1.407-0.819,2.751v7.603
			c0,1.344,0.273,2.261,0.819,2.751s1.211,0.734,1.995,0.734c0.784,0,1.449-0.244,1.995-0.734c0.546-0.49,0.819-1.407,0.819-2.751
			V161.778z"/>
		<path class="st0" d="M523.969,169.675c0,1.232-0.189,2.317-0.567,3.255c-0.378,0.938-0.889,1.715-1.533,2.331
			c-0.645,0.616-1.422,1.078-2.331,1.386c-0.91,0.308-1.884,0.462-2.919,0.462c-1.064,0-2.044-0.154-2.94-0.462
			c-0.896-0.308-1.673-0.741-2.331-1.302c-0.659-0.56-1.169-1.253-1.533-2.079c-0.364-0.826-0.546-1.771-0.546-2.835v-0.084
			c0-2.101,0.63-3.738,1.89-4.914c1.26-1.176,3.08-1.764,5.46-1.764h2.814v-1.891c0-1.344-0.273-2.261-0.819-2.751
			c-0.546-0.489-1.211-0.734-1.995-0.734c-0.812,0-1.415,0.217-1.806,0.65c-0.393,0.435-0.588,0.96-0.588,1.575
			c0,0.868-0.435,1.302-1.302,1.302h-1.722c-1.008,0-1.512-0.504-1.512-1.512c0-0.896,0.161-1.722,0.483-2.479
			c0.322-0.756,0.784-1.413,1.386-1.974c0.602-0.56,1.33-1.001,2.184-1.323c0.854-0.321,1.813-0.482,2.877-0.482
			c1.035,0,2.009,0.154,2.919,0.462c0.909,0.309,1.687,0.771,2.331,1.386c0.644,0.616,1.155,1.394,1.533,2.331
			c0.378,0.938,0.567,2.023,0.567,3.255V169.675z M516.62,172.866c0.783,0,1.449-0.244,1.995-0.734s0.819-1.407,0.819-2.751v-2.311
			h-2.814c-0.785,0-1.449,0.218-1.995,0.651c-0.546,0.435-0.819,1.183-0.819,2.247s0.273,1.812,0.819,2.247
			S515.835,172.866,516.62,172.866z"/>
		<path class="st0" d="M553.075,175.135c0,1.008-0.504,1.512-1.512,1.512h-1.512c-1.008,0-1.512-0.504-1.512-1.512v-13.566
			c0-1.26-0.259-2.121-0.777-2.583c-0.519-0.462-1.141-0.692-1.869-0.692s-1.351,0.23-1.869,0.692
			c-0.519,0.462-0.777,1.323-0.777,2.583v13.566c0,1.008-0.504,1.512-1.512,1.512h-1.512c-1.008,0-1.512-0.504-1.512-1.512v-13.566
			c0-1.26-0.259-2.121-0.777-2.583s-1.141-0.692-1.869-0.692c-0.729,0-1.352,0.23-1.869,0.692c-0.519,0.462-0.777,1.323-0.777,2.583
			v13.566c0,1.008-0.504,1.512-1.512,1.512h-1.512c-1.008,0-1.512-0.504-1.512-1.512v-14.406c0-1.119,0.168-2.093,0.504-2.919
			c0.336-0.825,0.798-1.519,1.386-2.079c0.588-0.56,1.281-0.979,2.079-1.26c0.798-0.279,1.672-0.42,2.625-0.42
			c1.26,0,2.358,0.272,3.297,0.818c0.938,0.546,1.673,1.323,2.205,2.331c0.531-1.008,1.267-1.785,2.205-2.331
			s2.037-0.818,3.297-0.818c0.952,0,1.827,0.141,2.625,0.42c0.798,0.28,1.491,0.7,2.079,1.26c0.588,0.561,1.05,1.254,1.386,2.079
			c0.336,0.826,0.504,1.8,0.504,2.919V175.135z"/>
		<path class="st0" d="M563.533,175.135c0,1.008-0.504,1.512-1.512,1.512h-2.436c-1.008,0-1.512-0.504-1.512-1.512v-2.479
			c0-1.008,0.504-1.512,1.512-1.512h2.436c1.008,0,1.512,0.504,1.512,1.512V175.135z"/>
		<path class="st0" d="M580.08,147.246h1.638c1.064,0,1.596,0.532,1.596,1.597v26.208c0,1.064-0.532,1.596-1.596,1.596h-1.638
			c-1.064,0-1.596-0.531-1.596-1.596v-26.208C578.483,147.778,579.015,147.246,580.08,147.246z"/>
		<path class="st0" d="M402.698,200.98c0-2.352,0.567-4.095,1.701-5.229c1.134-1.135,2.568-1.701,4.305-1.701
			c0.84,0,1.617,0.141,2.331,0.42c0.714,0.28,1.323,0.729,1.827,1.344v-7.476c0-1.009,0.504-1.513,1.512-1.513h1.512
			c1.008,0,1.512,0.504,1.512,1.513v21.336c0,1.26-0.189,2.359-0.567,3.297c-0.378,0.938-0.889,1.708-1.533,2.31
			c-0.645,0.603-1.421,1.058-2.331,1.365c-0.91,0.308-1.884,0.462-2.919,0.462c-1.064,0-2.044-0.154-2.94-0.462
			c-0.896-0.308-1.667-0.763-2.31-1.365c-0.645-0.602-1.155-1.371-1.533-2.31c-0.378-0.938-0.567-2.037-0.567-3.297V200.98z
			 M407.234,209.381c0,1.344,0.273,2.261,0.819,2.751s1.211,0.734,1.995,0.734c0.783,0,1.449-0.244,1.995-0.734
			c0.546-0.49,0.819-1.407,0.819-2.751v-7.603c0-1.344-0.273-2.261-0.819-2.751c-0.546-0.489-1.211-0.734-1.995-0.734
			c-0.784,0-1.449,0.245-1.995,0.734c-0.546,0.49-0.819,1.407-0.819,2.751V209.381z"/>
		<path class="st0" d="M437.053,209.675c0,1.26-0.189,2.359-0.567,3.297c-0.378,0.938-0.889,1.708-1.533,2.31
			c-0.645,0.603-1.421,1.058-2.331,1.365c-0.91,0.308-1.884,0.462-2.919,0.462c-1.064,0-2.044-0.154-2.94-0.462
			c-0.896-0.308-1.667-0.763-2.31-1.365c-0.645-0.602-1.155-1.371-1.533-2.31c-0.378-0.938-0.567-2.037-0.567-3.297v-8.19
			c0-1.231,0.189-2.316,0.567-3.255c0.378-0.938,0.889-1.715,1.533-2.331c0.644-0.615,1.414-1.077,2.31-1.386
			c0.896-0.308,1.875-0.462,2.94-0.462c1.035,0,2.009,0.154,2.919,0.462c0.91,0.309,1.687,0.771,2.331,1.386
			c0.644,0.616,1.155,1.394,1.533,2.331c0.378,0.938,0.567,2.023,0.567,3.255V209.675z M432.517,201.778
			c0-1.344-0.273-2.261-0.819-2.751c-0.546-0.489-1.211-0.734-1.995-0.734c-0.784,0-1.449,0.245-1.995,0.734
			c-0.546,0.49-0.819,1.407-0.819,2.751v7.603c0,1.344,0.273,2.261,0.819,2.751s1.211,0.734,1.995,0.734
			c0.783,0,1.449-0.244,1.995-0.734c0.546-0.49,0.819-1.407,0.819-2.751V201.778z"/>
		<path class="st0" d="M455.155,216.646h-1.512c-1.008,0-1.512-0.504-1.512-1.512v-13.356c0-1.344-0.273-2.261-0.819-2.751
			c-0.546-0.489-1.211-0.734-1.995-0.734c-0.784,0-1.449,0.245-1.995,0.734c-0.546,0.49-0.819,1.407-0.819,2.751v13.356
			c0,1.008-0.504,1.512-1.512,1.512h-1.512c-1.008,0-1.512-0.504-1.512-1.512v-13.65c0-1.231,0.189-2.316,0.567-3.255
			c0.378-0.938,0.889-1.715,1.533-2.331c0.644-0.615,1.414-1.077,2.31-1.386c0.896-0.308,1.875-0.462,2.94-0.462
			c1.036,0,2.009,0.154,2.919,0.462c0.91,0.309,1.687,0.771,2.331,1.386c0.644,0.616,1.155,1.394,1.533,2.331
			c0.378,0.938,0.567,2.023,0.567,3.255v13.65C456.667,216.143,456.163,216.646,455.155,216.646z"/>
		<path class="st0" d="M464.185,197.116c-0.084,0.28-0.231,0.519-0.441,0.714c-0.21,0.196-0.511,0.294-0.903,0.294h-1.092
			c-0.309,0-0.567-0.09-0.777-0.272c-0.21-0.182-0.288-0.469-0.231-0.861l1.344-8.231c0.168-1.009,0.742-1.513,1.722-1.513h1.932
			c0.448,0,0.784,0.147,1.008,0.441c0.224,0.294,0.237,0.722,0.042,1.281L464.185,197.116z"/>
		<path class="st0" d="M480.522,216.646c-0.42,0.084-0.805,0.133-1.155,0.147c-0.351,0.014-0.679,0.021-0.987,0.021
			c-2.016,0-3.556-0.469-4.62-1.407c-1.064-0.938-1.596-2.541-1.596-4.809v-19.992c0-1.008,0.504-1.512,1.512-1.512h1.512
			c1.008,0,1.512,0.504,1.512,1.512v3.906h3.612c1.008,0,1.512,0.504,1.512,1.512v1.218c0,1.008-0.504,1.513-1.512,1.513H476.7
			v11.508c0,0.868,0.168,1.47,0.504,1.806s0.938,0.504,1.806,0.504c0.363,0,0.798-0.042,1.302-0.126s0.882,0.015,1.134,0.294
			c0.252,0.28,0.378,0.672,0.378,1.176v1.219c0,0.504-0.12,0.86-0.357,1.07C481.229,216.415,480.914,216.562,480.522,216.646z"/>
		<path class="st0" d="M501.353,212.572c0.224,0,0.413-0.006,0.567-0.021c0.153-0.014,0.357-0.049,0.609-0.105
			c0.504-0.084,0.882,0.015,1.134,0.294c0.252,0.28,0.378,0.672,0.378,1.176v1.219c0,0.504-0.119,0.86-0.357,1.07
			c-0.238,0.21-0.567,0.357-0.987,0.441c-0.393,0.084-0.763,0.133-1.113,0.147c-0.35,0.014-0.679,0.021-0.987,0.021
			c-0.812,0-1.547-0.099-2.205-0.294c-0.658-0.195-1.225-0.518-1.701-0.966c-0.477-0.448-0.84-1.043-1.092-1.785
			c-0.252-0.741-0.378-1.645-0.378-2.709v-22.722c0-1.009,0.504-1.513,1.512-1.513h1.512c1.008,0,1.512,0.504,1.512,1.513v22.386
			c0,0.729,0.168,1.218,0.504,1.47S500.961,212.572,501.353,212.572z"/>
		<path class="st0" d="M507.526,188.759c0-1.009,0.504-1.513,1.512-1.513h1.512c1.008,0,1.512,0.504,1.512,1.513v1.428
			c0,1.008-0.504,1.512-1.512,1.512h-1.512c-1.008,0-1.512-0.504-1.512-1.512V188.759z M507.526,196.024
			c0-1.008,0.504-1.512,1.512-1.512h1.512c1.008,0,1.512,0.504,1.512,1.512v19.11c0,1.008-0.504,1.512-1.512,1.512h-1.512
			c-1.008,0-1.512-0.504-1.512-1.512V196.024z"/>
		<path class="st0" d="M524.2,207.238l-1.806,2.353v5.544c0,1.008-0.504,1.512-1.512,1.512h-1.512c-1.008,0-1.512-0.504-1.512-1.512
			v-26.838c0-1.009,0.504-1.513,1.512-1.513h1.512c1.008,0,1.512,0.504,1.512,1.513v15.288l5.376-7.938
			c0.252-0.392,0.525-0.679,0.819-0.861c0.294-0.182,0.721-0.272,1.281-0.272h2.142c0.532,0,0.861,0.196,0.987,0.588
			c0.126,0.393,0.048,0.756-0.231,1.092l-5.67,7.266l5.88,11.551c0.224,0.393,0.252,0.763,0.084,1.112
			c-0.168,0.351-0.504,0.525-1.008,0.525h-1.932c-0.561,0-0.973-0.091-1.239-0.273c-0.266-0.182-0.497-0.468-0.693-0.86
			L524.2,207.238z"/>
		<path class="st0" d="M546.711,210.515c0-0.868,0.434-1.302,1.302-1.302h1.722c1.008,0,1.512,0.504,1.512,1.512
			c0,1.904-0.651,3.444-1.953,4.62c-1.302,1.176-3.031,1.764-5.187,1.764c-1.064,0-2.044-0.154-2.94-0.462
			c-0.896-0.308-1.667-0.77-2.31-1.386c-0.645-0.616-1.155-1.393-1.533-2.331c-0.378-0.938-0.567-2.022-0.567-3.255v-8.19
			c0-1.231,0.189-2.316,0.567-3.255c0.378-0.938,0.889-1.715,1.533-2.331c0.644-0.615,1.414-1.077,2.31-1.386
			c0.896-0.308,1.875-0.462,2.94-0.462c1.035,0,2.009,0.154,2.919,0.462c0.91,0.309,1.687,0.771,2.331,1.386
			c0.644,0.616,1.155,1.394,1.533,2.331c0.378,0.938,0.567,2.023,0.567,3.255v3.57c0,1.008-0.504,1.512-1.512,1.512h-8.652v2.814
			c0,1.344,0.273,2.261,0.819,2.751s1.211,0.734,1.995,0.734c0.812,0,1.449-0.21,1.911-0.63
			C546.481,211.816,546.711,211.243,546.711,210.515z M541.294,203.164h5.628v-1.386c0-1.344-0.273-2.261-0.819-2.751
			c-0.546-0.489-1.211-0.734-1.995-0.734c-0.784,0-1.449,0.245-1.995,0.734c-0.546,0.49-0.819,1.407-0.819,2.751V203.164z"/>
		<path class="st0" d="M565.904,188.759c0-1.009,0.504-1.513,1.512-1.513h1.512c1.008,0,1.512,0.504,1.512,1.513v1.428
			c0,1.008-0.504,1.512-1.512,1.512h-1.512c-1.008,0-1.512-0.504-1.512-1.512V188.759z M565.904,196.024
			c0-1.008,0.504-1.512,1.512-1.512h1.512c1.008,0,1.512,0.504,1.512,1.512v19.11c0,1.008-0.504,1.512-1.512,1.512h-1.512
			c-1.008,0-1.512-0.504-1.512-1.512V196.024z"/>
		<path class="st0" d="M584.383,216.646c-0.42,0.084-0.805,0.133-1.155,0.147c-0.351,0.014-0.679,0.021-0.987,0.021
			c-2.016,0-3.556-0.469-4.62-1.407c-1.064-0.938-1.596-2.541-1.596-4.809v-19.992c0-1.008,0.504-1.512,1.512-1.512h1.512
			c1.008,0,1.512,0.504,1.512,1.512v3.906h3.612c1.008,0,1.512,0.504,1.512,1.512v1.218c0,1.008-0.504,1.513-1.512,1.513h-3.612
			v11.508c0,0.868,0.168,1.47,0.504,1.806s0.938,0.504,1.806,0.504c0.363,0,0.798-0.042,1.302-0.126s0.882,0.015,1.134,0.294
			c0.252,0.28,0.378,0.672,0.378,1.176v1.219c0,0.504-0.12,0.86-0.357,1.07C585.09,216.415,584.775,216.562,584.383,216.646z"/>
		<path class="st0" d="M453.936,250.515c0-0.868,0.434-1.302,1.302-1.302h1.722c1.008,0,1.512,0.504,1.512,1.512
			c0,1.904-0.651,3.444-1.953,4.62c-1.302,1.176-3.031,1.764-5.187,1.764c-1.064,0-2.044-0.154-2.94-0.462
			c-0.896-0.308-1.667-0.77-2.31-1.386c-0.645-0.616-1.155-1.393-1.533-2.331c-0.378-0.938-0.567-2.022-0.567-3.255v-8.19
			c0-1.231,0.189-2.316,0.567-3.255c0.378-0.938,0.889-1.715,1.533-2.331c0.644-0.615,1.414-1.077,2.31-1.386
			c0.896-0.308,1.875-0.462,2.94-0.462c1.035,0,2.009,0.154,2.919,0.462c0.91,0.309,1.687,0.771,2.331,1.386
			c0.644,0.616,1.155,1.394,1.533,2.331c0.378,0.938,0.567,2.023,0.567,3.255v3.57c0,1.008-0.504,1.512-1.512,1.512h-8.652v2.814
			c0,1.344,0.273,2.261,0.819,2.751s1.211,0.734,1.995,0.734c0.812,0,1.449-0.21,1.911-0.63
			C453.705,251.816,453.936,251.243,453.936,250.515z M448.518,243.164h5.628v-1.386c0-1.344-0.273-2.261-0.819-2.751
			c-0.546-0.489-1.211-0.734-1.995-0.734c-0.784,0-1.449,0.245-1.995,0.734c-0.546,0.49-0.819,1.407-0.819,2.751V243.164z"/>
		<path class="st0" d="M463.805,228.759c0-1.009,0.504-1.513,1.512-1.513h1.512c1.008,0,1.512,0.504,1.512,1.513v1.428
			c0,1.008-0.504,1.512-1.512,1.512h-1.512c-1.008,0-1.512-0.504-1.512-1.512V228.759z M463.805,236.024
			c0-1.008,0.504-1.512,1.512-1.512h1.512c1.008,0,1.512,0.504,1.512,1.512v19.11c0,1.008-0.504,1.512-1.512,1.512h-1.512
			c-1.008,0-1.512-0.504-1.512-1.512V236.024z"/>
		<path class="st0" d="M482.285,256.646c-0.42,0.084-0.805,0.133-1.155,0.147c-0.351,0.014-0.679,0.021-0.987,0.021
			c-2.016,0-3.556-0.469-4.62-1.407c-1.064-0.938-1.596-2.541-1.596-4.809v-19.992c0-1.008,0.504-1.512,1.512-1.512h1.512
			c1.008,0,1.512,0.504,1.512,1.512v3.906h3.612c1.008,0,1.512,0.504,1.512,1.512v1.218c0,1.008-0.504,1.513-1.512,1.513h-3.612
			v11.508c0,0.868,0.168,1.47,0.504,1.806s0.938,0.504,1.806,0.504c0.363,0,0.798-0.042,1.302-0.126s0.882,0.015,1.134,0.294
			c0.252,0.28,0.378,0.672,0.378,1.176v1.219c0,0.504-0.12,0.86-0.357,1.07C482.992,256.415,482.677,256.562,482.285,256.646z"/>
		<path class="st0" d="M492.364,255.135c0,1.008-0.504,1.512-1.512,1.512h-1.512c-1.008,0-1.512-0.504-1.512-1.512v-26.796
			c0-1.009,0.504-1.513,1.512-1.513h1.512c1.008,0,1.512,0.504,1.512,1.513v7.476c0.979-1.176,2.366-1.764,4.158-1.764
			c0.868,0,1.666,0.141,2.394,0.42c0.728,0.28,1.358,0.707,1.89,1.281c0.532,0.574,0.952,1.295,1.26,2.162
			c0.308,0.868,0.462,1.891,0.462,3.066v14.154c0,1.008-0.504,1.512-1.512,1.512h-1.512c-1.008,0-1.512-0.504-1.512-1.512v-13.356
			c0-1.344-0.273-2.261-0.819-2.751c-0.546-0.489-1.211-0.734-1.995-0.734c-0.784,0-1.449,0.245-1.995,0.734
			c-0.546,0.49-0.819,1.407-0.819,2.751V255.135z"/>
		<path class="st0" d="M517.396,250.515c0-0.868,0.434-1.302,1.302-1.302h1.722c1.008,0,1.512,0.504,1.512,1.512
			c0,1.904-0.651,3.444-1.953,4.62c-1.302,1.176-3.031,1.764-5.187,1.764c-1.064,0-2.044-0.154-2.94-0.462
			c-0.896-0.308-1.667-0.77-2.31-1.386c-0.645-0.616-1.155-1.393-1.533-2.331c-0.378-0.938-0.567-2.022-0.567-3.255v-8.19
			c0-1.231,0.189-2.316,0.567-3.255c0.378-0.938,0.889-1.715,1.533-2.331c0.644-0.615,1.414-1.077,2.31-1.386
			c0.896-0.308,1.875-0.462,2.94-0.462c1.035,0,2.009,0.154,2.919,0.462c0.91,0.309,1.687,0.771,2.331,1.386
			c0.644,0.616,1.155,1.394,1.533,2.331c0.378,0.938,0.567,2.023,0.567,3.255v3.57c0,1.008-0.504,1.512-1.512,1.512h-8.652v2.814
			c0,1.344,0.273,2.261,0.819,2.751s1.211,0.734,1.995,0.734c0.812,0,1.449-0.21,1.911-0.63
			C517.165,251.816,517.396,251.243,517.396,250.515z M511.978,243.164h5.628v-1.386c0-1.344-0.273-2.261-0.819-2.751
			c-0.546-0.489-1.211-0.734-1.995-0.734c-0.784,0-1.449,0.245-1.995,0.734c-0.546,0.49-0.819,1.407-0.819,2.751V243.164z"/>
		<path class="st0" d="M534.279,238.545c-0.98,0-1.68,0.195-2.1,0.588s-0.63,1.078-0.63,2.058v13.944
			c0,1.008-0.504,1.512-1.512,1.512h-1.512c-1.008,0-1.512-0.504-1.512-1.512v-14.28c0-2.408,0.581-4.102,1.743-5.082
			c1.162-0.979,2.793-1.47,4.893-1.47c0.308,0,0.636,0.007,0.987,0.021c0.35,0.015,0.735,0.063,1.155,0.147
			c0.392,0.084,0.707,0.23,0.945,0.44c0.237,0.21,0.357,0.567,0.357,1.071v1.218c0,0.504-0.126,0.896-0.378,1.177
			c-0.252,0.279-0.63,0.378-1.134,0.294S534.643,238.545,534.279,238.545z"/>
		<path class="st0" d="M543.393,255.135c0,1.008-0.504,1.512-1.512,1.512h-2.436c-1.008,0-1.512-0.504-1.512-1.512v-2.479
			c0-1.008,0.504-1.512,1.512-1.512h2.436c1.008,0,1.512,0.504,1.512,1.512V255.135z"/>
	</g>
	<g>
		<path class="st0" d="M495.524,307.12c-1.657,0-3-1.343-3-3s1.343-3,3-3v3l0.028-3c0.01,0,0.02,0,0.029,0
			c1.633,0,2.989,1.306,3.021,2.941c0.032,1.646-1.246,3.009-2.891,3.057L495.524,307.12z M485.532,306.912
			c-0.054,0-0.108-0.001-0.164-0.004c-6.783-0.365-13.589-1.184-20.229-2.434c-1.628-0.307-2.7-1.875-2.394-3.503
			c0.307-1.629,1.874-2.699,3.503-2.394c6.381,1.201,12.922,1.987,19.442,2.338c1.654,0.089,2.923,1.503,2.834,3.157
			C488.44,305.673,487.115,306.912,485.532,306.912z M505.605,306.669c-1.551,0-2.865-1.194-2.987-2.767
			c-0.129-1.652,1.105-3.096,2.757-3.225c6.502-0.507,13.021-1.453,19.377-2.812c1.618-0.347,3.214,0.686,3.561,2.306
			c0.347,1.621-0.686,3.215-2.306,3.562c-6.614,1.415-13.399,2.399-20.165,2.928C505.762,306.666,505.683,306.669,505.605,306.669z
			 M455.938,302.35c-0.232,0-0.469-0.027-0.706-0.084c-0.027-0.007-0.151-0.04-0.179-0.047c-1.598-0.437-2.541-2.085-2.105-3.684
			c0.436-1.599,2.084-2.542,3.684-2.105l-0.79,2.895l0.818-2.887c1.592,0.418,2.57,2.045,2.167,3.641
			C458.485,301.438,457.277,302.35,455.938,302.35z M535.076,301.384c-1.319,0-2.528-0.877-2.893-2.212
			c-0.436-1.599,0.507-3.247,2.105-3.684l0.79,2.895l-0.764-2.901c1.582-0.45,3.25,0.455,3.715,2.032
			c0.464,1.576-0.402,3.226-1.972,3.709l-0.189,0.055C535.603,301.35,535.337,301.384,535.076,301.384z M446.258,299.496
			c-0.313,0-0.632-0.05-0.945-0.153c-6.427-2.133-12.776-4.723-18.872-7.698c-1.489-0.728-2.107-2.523-1.38-4.013
			c0.727-1.488,2.522-2.105,4.012-1.38c5.856,2.859,11.956,5.348,18.129,7.396c1.572,0.522,2.424,2.22,1.902,3.792
			C448.687,298.699,447.515,299.496,446.258,299.496z M544.687,298.291c-1.229,0-2.383-0.762-2.823-1.986
			c-0.561-1.559,0.249-3.277,1.808-3.838c6.127-2.203,12.167-4.842,17.951-7.845c1.472-0.759,3.281-0.188,4.044,1.281
			c0.763,1.471,0.19,3.281-1.281,4.045c-6.021,3.125-12.307,5.872-18.685,8.165C545.367,298.233,545.024,298.291,544.687,298.291z
			 M418.931,287.273c-0.508,0-1.023-0.13-1.495-0.401c-1.436-0.827-1.972-2.687-1.145-4.122c0.828-1.436,2.617-1.953,4.054-1.127
			l0.086,0.05c1.436,0.827,1.929,2.662,1.101,4.098C420.978,286.734,419.968,287.273,418.931,287.273z M571.78,285.34
			c-1.026,0-2.029-0.51-2.586-1.44c-0.841-1.405-0.442-3.2,0.95-4.063c0.028-0.018,0.141-0.086,0.169-0.103
			c1.436-0.827,3.27-0.335,4.097,1.102c0.828,1.436,0.334,3.271-1.101,4.098C572.831,285.208,572.302,285.34,571.78,285.34z
			 M410.352,281.964c-0.571,0-1.149-0.163-1.66-0.503c-5.635-3.753-11.076-7.922-16.171-12.39c-1.246-1.093-1.371-2.987-0.278-4.233
			c1.093-1.246,2.988-1.369,4.233-0.278c4.898,4.294,10.127,8.301,15.542,11.907c1.379,0.919,1.752,2.781,0.834,4.16
			C412.273,281.494,411.321,281.964,410.352,281.964z M580.185,279.857c-0.944,0-1.874-0.444-2.458-1.275
			c-0.952-1.356-0.625-3.228,0.731-4.18c5.326-3.741,10.458-7.877,15.25-12.292c1.219-1.123,3.116-1.046,4.239,0.174
			c1.123,1.218,1.045,3.116-0.174,4.238c-4.986,4.594-10.325,8.897-15.867,12.79C581.382,279.681,580.78,279.857,580.185,279.857z
			 M387.204,262.981c-0.758,0-1.516-0.285-2.099-0.857c-0.008-0.007-0.086-0.084-0.093-0.092c-1.172-1.171-1.172-3.071,0-4.242
			c1.171-1.172,3.071-1.172,4.242,0l-2.121,2.121l2.17-2.073c1.184,1.16,1.203,3.06,0.044,4.243
			C388.759,262.681,387.982,262.981,387.204,262.981z M602.879,260.251c-0.744,0-1.485-0.269-2.057-0.817
			c-1.187-1.139-1.27-2.985-0.144-4.184c0.014-0.015,0.097-0.102,0.111-0.116c1.16-1.184,3.059-1.202,4.242-0.045
			c1.184,1.159,1.204,3.059,0.045,4.242C604.481,259.94,603.679,260.251,602.879,260.251z M380.31,255.605
			c-0.836,0-1.667-0.347-2.26-1.025c-4.463-5.106-8.625-10.556-12.371-16.197c-0.916-1.38-0.54-3.242,0.84-4.158
			c1.38-0.917,3.243-0.541,4.159,0.84c3.599,5.421,7.6,10.659,11.889,15.566c1.09,1.248,0.963,3.143-0.285,4.233
			C381.713,255.361,381.01,255.605,380.31,255.605z M609.572,252.763c-0.676,0-1.356-0.228-1.917-0.693
			c-1.274-1.06-1.448-2.951-0.389-4.225c4.166-5.01,8.033-10.342,11.496-15.848c0.882-1.402,2.734-1.823,4.136-0.943
			c1.403,0.882,1.825,2.734,0.943,4.137c-3.603,5.73-7.627,11.278-11.961,16.49C611.287,252.394,610.433,252.763,609.572,252.763z
			 M362.929,231.212c-1.03,0-2.033-0.531-2.591-1.483l-0.072-0.125c-0.817-1.442-0.311-3.272,1.131-4.09
			c1.442-0.815,3.272-0.31,4.089,1.131l0.028,0.049c0.838,1.43,0.358,3.268-1.071,4.105
			C363.966,231.078,363.444,231.212,362.929,231.212z M626.326,227.913c-0.474,0-0.953-0.112-1.396-0.353
			c-1.45-0.785-2.018-2.55-1.242-4.006c0.006-0.011,0.06-0.11,0.066-0.121c0.798-1.451,2.624-1.981,4.074-1.184
			c1.452,0.799,1.981,2.623,1.183,4.074C628.46,227.329,627.405,227.913,626.326,227.913z M358.208,222.277
			c-1.112,0-2.181-0.622-2.7-1.689c-2.965-6.102-5.545-12.459-7.669-18.896c-0.519-1.573,0.336-3.27,1.909-3.788
			c1.574-0.524,3.27,0.335,3.789,1.909c2.04,6.184,4.518,12.291,7.367,18.152c0.724,1.49,0.104,3.285-1.387,4.01
			C359.095,222.18,358.648,222.277,358.208,222.277z M630.823,218.938c-0.416,0-0.839-0.087-1.242-0.271
			c-1.508-0.687-2.173-2.466-1.485-3.974c2.702-5.928,5.028-12.091,6.914-18.318c0.479-1.585,2.153-2.483,3.74-2.002
			c1.586,0.479,2.482,2.154,2.002,3.74c-1.962,6.482-4.384,12.898-7.196,19.068C633.052,218.286,631.962,218.938,630.823,218.938z
			 M347.874,194.161c-1.336,0-2.555-0.899-2.903-2.253c-0.413-1.604,0.54-3.288,2.145-3.701c1.605-0.418,3.228,0.503,3.641,2.108
			l0.025,0.097c0.413,1.604-0.552,3.24-2.157,3.653C348.374,194.13,348.122,194.161,347.874,194.161z M640.451,190.548
			c-0.215,0-0.434-0.023-0.652-0.073c-1.616-0.367-2.636-1.937-2.269-3.553l0.027-0.12c0.379-1.611,1.997-2.611,3.607-2.232
			c1.613,0.379,2.613,1.994,2.233,3.607C643.081,189.574,641.829,190.548,640.451,190.548z M345.69,184.307
			c-1.417,0-2.677-1.008-2.946-2.451c-1.238-6.643-2.044-13.45-2.396-20.234c-0.085-1.654,1.186-3.065,2.841-3.151
			c1.658-0.1,3.065,1.187,3.151,2.841c0.338,6.521,1.113,13.062,2.302,19.445c0.304,1.629-0.771,3.195-2.399,3.499
			C346.057,184.289,345.872,184.307,345.69,184.307z M642.399,180.681c-0.159,0-0.319-0.012-0.481-0.038
			c-1.636-0.264-2.749-1.804-2.485-3.439c1.033-6.409,1.648-12.969,1.829-19.497c0.023-0.814,0.369-1.545,0.911-2.071
			c-0.528-0.54-0.853-1.279-0.853-2.095c0-6.533-0.431-13.108-1.282-19.542c-0.217-1.643,0.938-3.15,2.581-3.368
			c1.645-0.22,3.15,0.938,3.367,2.581c0.885,6.694,1.333,13.534,1.333,20.329c0,0.845-0.35,1.608-0.912,2.154
			c0.547,0.561,0.875,1.333,0.852,2.178c-0.188,6.792-0.829,13.616-1.903,20.286C645.12,179.632,643.846,180.681,642.399,180.681z
			 M343.154,154.473c-0.015,0-0.03,0-0.045,0c-1.657-0.024-2.98-1.388-2.956-3.044c0.024-1.657,1.383-3.021,3.044-3.006
			c1.657,0.024,2.98,1.338,2.956,2.994l-0.001,0.1C346.128,153.158,344.79,154.473,343.154,154.473z M343.625,144.387
			c-0.081,0-0.161-0.003-0.242-0.01c-1.652-0.132-2.884-1.577-2.752-3.229c0.541-6.767,1.538-13.549,2.964-20.158
			c0.35-1.62,1.945-2.648,3.565-2.3c1.62,0.35,2.649,1.946,2.3,3.565c-1.371,6.351-2.329,12.867-2.849,19.371
			C346.486,143.196,345.173,144.387,343.625,144.387z M641.37,126.748c-1.404,0-2.658-0.991-2.94-2.421l2.943-0.58l-2.958,0.507
			c-0.334-1.622,0.711-3.209,2.333-3.543c1.628-0.337,3.209,0.712,3.543,2.334c0.001,0.008,0.023,0.114,0.024,0.122
			c0.32,1.626-0.738,3.203-2.364,3.523C641.757,126.729,641.562,126.748,641.37,126.748z M639.052,116.923
			c-1.32,0-2.53-0.878-2.893-2.214c-1.709-6.282-3.86-12.513-6.396-18.52c-0.644-1.526,0.071-3.286,1.598-3.93
			c1.529-0.645,3.287,0.071,3.931,1.598c2.638,6.251,4.878,12.737,6.657,19.277c0.435,1.599-0.509,3.247-2.107,3.682
			C639.578,116.889,639.313,116.923,639.052,116.923z M348.962,114.93c-0.283,0-0.57-0.04-0.855-0.125
			c-1.588-0.472-2.494-2.142-2.022-3.729c0.471-1.583,2.148-2.535,3.732-2.074c1.585,0.464,2.512,2.074,2.055,3.662
			c-0.002,0.008-0.032,0.111-0.035,0.119C351.45,114.086,350.256,114.93,348.962,114.93z M352.071,105.326
			c-0.339,0-0.683-0.058-1.02-0.18c-1.558-0.563-2.365-2.283-1.801-3.842c2.303-6.369,5.061-12.647,8.195-18.661
			c0.766-1.469,2.579-2.041,4.047-1.273c1.469,0.766,2.04,2.577,1.273,4.047c-3.012,5.777-5.66,11.81-7.873,17.929
			C354.451,104.566,353.299,105.326,352.071,105.326z M628.334,88.94c-1.101,0-2.16-0.608-2.686-1.659l-0.045-0.09
			c-0.741-1.482-0.141-3.284,1.341-4.025c1.484-0.737,3.285-0.139,4.025,1.342l0.045,0.09c0.741,1.482,0.141,3.284-1.341,4.025
			C629.243,88.838,628.785,88.94,628.334,88.94z M623.491,80.071c-1.026,0-2.026-0.526-2.586-1.475
			c-3.309-5.602-7.029-11.042-11.057-16.169c-1.024-1.303-0.797-3.188,0.505-4.213c1.302-1.024,3.188-0.797,4.212,0.506
			c4.192,5.335,8.062,10.996,11.505,16.825c0.843,1.427,0.369,3.266-1.058,4.108C624.535,79.937,624.01,80.071,623.491,80.071z
			 M365.011,78.333c-0.54,0-1.086-0.146-1.579-0.451c-1.408-0.874-1.841-2.724-0.967-4.131c0.87-1.4,2.735-1.88,4.141-1.02
			c1.407,0.861,1.881,2.654,1.028,4.066c-0.006,0.011-0.064,0.106-0.071,0.117C366.995,77.83,366.014,78.333,365.011,78.333z
			 M370.544,69.896c-0.597,0-1.2-0.178-1.726-0.548c-1.354-0.954-1.679-2.826-0.724-4.181c3.901-5.536,8.211-10.866,12.81-15.842
			c1.125-1.218,3.022-1.292,4.239-0.167c1.217,1.124,1.292,3.022,0.167,4.239c-4.419,4.782-8.562,9.905-12.312,15.227
			C372.415,69.453,371.486,69.896,370.544,69.896z M605.719,55.899c-0.789,0-1.572-0.315-2.154-0.948
			c-0.021-0.022-0.107-0.119-0.127-0.143c-1.084-1.253-0.947-3.147,0.305-4.231c1.253-1.085,3.148-0.946,4.232,0.306
			c1.073,1.239,0.985,3.147-0.238,4.238C607.155,55.64,606.435,55.899,605.719,55.899z M598.777,48.64
			c-0.754,0-1.509-0.283-2.092-0.851c-4.667-4.544-9.68-8.819-14.9-12.706c-1.329-0.989-1.604-2.869-0.615-4.198
			c0.99-1.329,2.869-1.603,4.198-0.614c5.432,4.045,10.647,8.492,15.502,13.22c1.187,1.156,1.212,3.056,0.057,4.242
			C600.339,48.336,599.559,48.64,598.777,48.64z M390.139,47.224c-0.789,0-1.575-0.306-2.16-0.917
			c-1.137-1.187-1.124-3.052,0.05-4.202c0.022-0.021,0.118-0.111,0.141-0.133c1.22-1.122,3.117-1.042,4.239,0.177
			c1.122,1.22,1.042,3.117-0.177,4.239l-2.031-2.208l2.012,2.226C391.631,46.951,390.884,47.224,390.139,47.224z M397.686,40.549
			c-0.862,0-1.718-0.369-2.311-1.085c-1.057-1.275-0.881-3.167,0.395-4.225c5.22-4.327,10.777-8.346,16.518-11.942
			c1.405-0.88,3.256-0.455,4.135,0.949c0.88,1.404,0.455,3.255-0.949,4.135c-5.517,3.457-10.857,7.318-15.874,11.478
			C399.039,40.322,398.36,40.549,397.686,40.549z M575.332,29.971c-0.533,0-1.073-0.146-1.563-0.456
			c-0.014-0.009-0.112-0.071-0.126-0.08c-1.386-0.908-1.773-2.768-0.865-4.154c0.907-1.386,2.767-1.772,4.153-0.865
			c1.378,0.903,1.812,2.774,0.921,4.16C577.274,29.473,576.315,29.971,575.332,29.971z M566.717,24.79
			c-0.492,0-0.992-0.122-1.453-0.378c-5.693-3.16-11.648-5.966-17.7-8.338c-1.542-0.604-2.303-2.345-1.698-3.888
			c0.604-1.542,2.345-2.302,3.888-1.698c6.299,2.469,12.498,5.389,18.423,8.678c1.449,0.805,1.971,2.631,1.167,4.079
			C568.795,24.232,567.772,24.79,566.717,24.79z M422.534,23.81c-1.054,0-2.078-0.556-2.625-1.542
			c-0.805-1.447-0.288-3.271,1.159-4.076l0.137-0.075c1.459-0.779,3.278-0.227,4.059,1.235c0.78,1.462,0.227,3.279-1.235,4.06
			l-1.412-2.647l1.372,2.668C423.527,23.688,423.027,23.81,422.534,23.81z M431.587,19.33c-1.141,0-2.231-0.654-2.734-1.762
			c-0.685-1.509-0.017-3.286,1.492-3.971c6.174-2.802,12.598-5.213,19.093-7.166c1.586-0.479,3.26,0.424,3.737,2.009
			c0.477,1.587-0.422,3.26-2.009,3.737c-6.239,1.876-12.41,4.191-18.341,6.883C432.423,19.243,432.002,19.33,431.587,19.33z
			 M539.224,12.946c-0.287,0-0.579-0.042-0.87-0.132c-0.026-0.008-0.148-0.047-0.175-0.056c-1.569-0.531-2.411-2.234-1.88-3.804
			c0.532-1.569,2.236-2.408,3.804-1.88c1.554,0.526,2.445,2.218,1.94,3.779C541.632,12.126,540.483,12.946,539.224,12.946z
			 M529.517,10.227c-0.235,0-0.474-0.028-0.713-0.086c-6.316-1.54-12.806-2.67-19.289-3.358c-1.647-0.175-2.841-1.652-2.667-3.3
			c0.175-1.647,1.649-2.85,3.3-2.667c6.747,0.717,13.501,1.893,20.076,3.495c1.61,0.393,2.597,2.016,2.204,3.626
			C532.095,9.308,530.868,10.227,529.517,10.227z M459.962,9.75c-1.387,0-2.632-0.968-2.932-2.379
			c-0.344-1.62,0.691-3.213,2.312-3.557c1.614-0.385,3.242,0.606,3.626,2.218c0.385,1.612-0.598,3.228-2.209,3.612l-0.172,0.039
			C460.378,9.728,460.169,9.75,459.962,9.75z M469.872,7.827c-1.449,0-2.724-1.052-2.959-2.528c-0.26-1.637,0.855-3.174,2.491-3.435
			c6.668-1.062,13.494-1.688,20.289-1.863c1.639-0.04,3.034,1.265,3.076,2.922c0.042,1.656-1.266,3.033-2.922,3.076
			c-6.531,0.168-13.092,0.771-19.5,1.791C470.188,7.815,470.028,7.827,469.872,7.827z M499.867,6.071c-0.03,0-0.06,0-0.09-0.001
			c-0.029-0.001-0.158-0.007-0.188-0.008c-1.654-0.098-2.916-1.518-2.818-3.171c0.097-1.655,1.521-2.887,3.171-2.819
			c1.637,0.097,2.943,1.491,2.871,3.129C502.742,4.809,501.464,6.071,499.867,6.071z"/>
	</g>
</g>
<g>
	<path class="st0" d="M190.994,134.497c-0.538,0-1.082-0.145-1.572-0.447c-1.409-0.87-1.848-2.716-0.979-4.126
		c0.174-0.282,4.365-7.029,12.839-16.14c1.13-1.214,3.027-1.282,4.24-0.153c1.213,1.128,1.282,3.026,0.153,4.239
		c-8.035,8.639-12.086,15.139-12.126,15.204C192.982,133.992,192,134.497,190.994,134.497z M210.538,111.73
		c-0.81,0-1.617-0.326-2.209-0.969c-1.122-1.22-1.042-3.117,0.177-4.239l2.031,2.208l-2.012-2.226c1.2-1.124,3.097-1.09,4.234,0.099
		c1.137,1.187,1.124,3.052-0.05,4.202c-0.022,0.021-0.118,0.111-0.141,0.133C211.992,111.469,211.263,111.73,210.538,111.73z
		 M218.121,105.049c-0.865,0-1.723-0.372-2.316-1.092c-1.054-1.279-0.872-3.17,0.407-4.224c5.263-4.338,10.834-8.342,16.559-11.903
		c1.406-0.874,3.256-0.443,4.132,0.963c0.875,1.407,0.444,3.257-0.963,4.133c-5.5,3.42-10.853,7.269-15.913,11.438
		C219.469,104.824,218.793,105.049,218.121,105.049z M243.071,88.357c-1.077,0-2.124-0.567-2.661-1.574
		c-0.78-1.462-0.262-3.261,1.2-4.041l0.106-0.056c1.466-0.77,3.279-0.205,4.05,1.263c0.77,1.467,0.204,3.28-1.263,4.05
		C244.05,88.242,243.557,88.357,243.071,88.357z M252.103,83.972c-1.15,0-2.247-0.665-2.744-1.784
		c-0.672-1.514,0.011-3.286,1.525-3.959c6.204-2.754,12.657-5.091,19.181-6.946c1.598-0.453,3.253,0.472,3.707,2.065
		c0.453,1.594-0.471,3.253-2.065,3.706c-6.254,1.778-12.44,4.019-18.388,6.659C252.923,83.889,252.509,83.972,252.103,83.972z
		 M349.836,76.002c-0.216,0-0.435-0.023-0.654-0.072c-6.393-1.421-12.79-2.503-19.014-3.217c-1.646-0.188-2.828-1.676-2.639-3.322
		c0.188-1.646,1.676-2.834,3.322-2.639c6.431,0.737,13.036,1.854,19.632,3.32c1.617,0.359,2.637,1.962,2.278,3.579
		C352.45,75.05,351.211,76.002,349.836,76.002z M280.584,74.774c-1.391,0-2.638-0.973-2.934-2.388
		c-0.339-1.621,0.701-3.211,2.323-3.55l0.614,2.937l-0.525-2.955c1.624-0.344,3.213,0.691,3.557,2.312
		c0.344,1.62-0.691,3.213-2.312,3.557c-0.003,0.001-0.104,0.021-0.106,0.022C280.994,74.753,280.787,74.774,280.584,74.774z
		 M290.525,73.046c-1.474,0-2.76-1.087-2.968-2.589c-0.227-1.641,0.919-3.155,2.561-3.383c6.625-0.917,13.461-1.404,20.316-1.447
		c0.006,0,0.013,0,0.02,0c1.648,0,2.989,1.331,3,2.981c0.01,1.656-1.324,3.008-2.981,3.019c-6.593,0.042-13.165,0.51-19.532,1.391
		C290.801,73.037,290.662,73.046,290.525,73.046z M320.55,71.88c-0.06,0-0.119-0.002-0.179-0.005
		c-1.654-0.098-2.966-1.521-2.868-3.174c0.097-1.654,1.458-2.888,3.121-2.822l0.1,0.006c1.654,0.098,2.916,1.518,2.818,3.171
		C323.448,70.65,322.127,71.88,320.55,71.88z"/>
</g>
</svg>