<!-- Generator: Adobe Illustrator 21.0.0, SVG Export Plug-In  -->
<svg version="1.1"
	 xmlns="http://www.w3.org/2000/svg" xmlns:xlink="http://www.w3.org/1999/xlink" xmlns:a="http://ns.adobe.com/AdobeSVGViewerExtensions/3.0/"
	 x="0px" y="0px" width="341.513px" height="43.32px" viewBox="0 0 341.513 43.32"
	 style="enable-background:new 0 0 341.513 43.32;" xml:space="preserve">
<style type="text/css">
	.st0{fill:#3F3F3F;}
</style>
<defs>
</defs>
<g>
	<path class="st0" d="M1.02,0.66h0.9c0.68,0,1.02,0.321,1.02,0.96v18.3h18V1.62c0-0.639,0.34-0.96,1.021-0.96h0.899
		c0.721,0,1.08,0.321,1.08,0.96V41.7c0,0.64-0.359,0.96-1.08,0.96H21.96c-0.681,0-1.021-0.32-1.021-0.96V22.74h-18V41.7
		c0,0.64-0.34,0.96-1.02,0.96h-0.9C0.339,42.66,0,42.34,0,41.7V1.62C0,0.981,0.339,0.66,1.02,0.66z"/>
	<path class="st0" d="M52.86,33.24c0,1.68-0.24,3.15-0.721,4.41c-0.479,1.26-1.16,2.31-2.04,3.15c-0.88,0.84-1.91,1.47-3.09,1.89
		c-1.18,0.42-2.45,0.63-3.81,0.63c-1.4,0-2.69-0.21-3.87-0.63c-1.181-0.42-2.2-1.05-3.06-1.89c-0.861-0.84-1.541-1.89-2.04-3.15
		c-0.501-1.26-0.75-2.73-0.75-4.41V20.46c0-1.68,0.249-3.15,0.75-4.41c0.499-1.26,1.179-2.31,2.04-3.15
		c0.859-0.84,1.879-1.47,3.06-1.89c1.18-0.42,2.47-0.63,3.87-0.63c1.359,0,2.63,0.21,3.81,0.63s2.21,1.05,3.09,1.89
		c0.88,0.84,1.561,1.89,2.04,3.15c0.48,1.26,0.721,2.73,0.721,4.41V33.24z M50.1,20.64c0-1.4-0.18-2.589-0.539-3.57
		c-0.36-0.98-0.861-1.77-1.5-2.37c-0.641-0.6-1.371-1.04-2.19-1.32c-0.82-0.28-1.71-0.42-2.67-0.42s-1.86,0.141-2.7,0.42
		c-0.84,0.28-1.57,0.72-2.189,1.32c-0.621,0.6-1.11,1.39-1.471,2.37c-0.359,0.98-0.54,2.17-0.54,3.57v12.42
		c0,1.401,0.181,2.59,0.54,3.57c0.36,0.98,0.85,1.77,1.471,2.37c0.619,0.6,1.35,1.041,2.189,1.32c0.84,0.28,1.74,0.42,2.7,0.42
		s1.85-0.14,2.67-0.42c0.819-0.279,1.55-0.72,2.19-1.32c0.639-0.6,1.14-1.389,1.5-2.37c0.359-0.98,0.539-2.169,0.539-3.57V20.64z"/>
	<path class="st0" d="M61.318,12c0-0.639,0.32-0.96,0.96-0.96h0.841c0.639,0,0.96,0.321,0.96,0.96v22.14c0,2.4,0.56,4.101,1.68,5.1
		c1.119,1,2.52,1.5,4.2,1.5c0.84,0,1.62-0.12,2.34-0.36c0.72-0.24,1.35-0.62,1.89-1.14c0.54-0.52,0.97-1.2,1.29-2.04
		s0.48-1.86,0.48-3.06V12c0-0.639,0.319-0.96,0.96-0.96h0.899c0.64,0,0.96,0.321,0.96,0.96v22.14c0,2.4,0.57,4.101,1.711,5.1
		c1.14,1,2.55,1.5,4.229,1.5s3.09-0.5,4.23-1.5c1.14-1,1.71-2.7,1.71-5.1V12c0-0.639,0.319-0.96,0.96-0.96h0.84
		c0.64,0,0.96,0.321,0.96,0.96v22.56c0,2.961-0.811,5.16-2.43,6.6c-1.62,1.44-3.631,2.16-6.03,2.16c-1.841,0-3.431-0.42-4.771-1.26
		c-1.34-0.84-2.29-2.12-2.85-3.84c-0.561,1.72-1.511,3-2.85,3.84c-1.341,0.84-2.91,1.26-4.711,1.26c-2.439,0-4.46-0.72-6.06-2.16
		c-1.601-1.44-2.4-3.639-2.4-6.6V12z"/>
	<path class="st0" d="M115.019,20.28c0-1.64,0.229-3.08,0.689-4.32c0.46-1.239,1.1-2.27,1.92-3.09c0.819-0.819,1.79-1.44,2.91-1.86
		c1.119-0.42,2.319-0.63,3.6-0.63c1.681,0,3.16,0.34,4.44,1.02c1.279,0.68,2.3,1.72,3.06,3.12V1.02c0-0.639,0.32-0.96,0.961-0.96
		h0.84c0.639,0,0.96,0.321,0.96,0.96v32.22c0,1.68-0.24,3.15-0.721,4.41c-0.479,1.26-1.16,2.31-2.04,3.15
		c-0.88,0.84-1.91,1.47-3.09,1.89c-1.18,0.42-2.45,0.63-3.81,0.63c-1.4,0-2.69-0.21-3.87-0.63c-1.181-0.42-2.2-1.05-3.06-1.89
		c-0.861-0.84-1.541-1.89-2.04-3.15c-0.501-1.26-0.75-2.73-0.75-4.41V20.28z M117.838,33.06c0,1.401,0.181,2.59,0.54,3.57
		c0.36,0.98,0.85,1.77,1.471,2.37c0.619,0.6,1.35,1.041,2.189,1.32c0.84,0.28,1.74,0.42,2.7,0.42s1.85-0.14,2.67-0.42
		c0.819-0.279,1.55-0.72,2.19-1.32c0.639-0.6,1.14-1.389,1.5-2.37c0.359-0.98,0.539-2.169,0.539-3.57V20.64
		c0-1.4-0.18-2.589-0.539-3.57c-0.36-0.98-0.861-1.77-1.5-2.37c-0.641-0.6-1.371-1.04-2.19-1.32c-0.82-0.28-1.71-0.42-2.67-0.42
		s-1.86,0.141-2.7,0.42c-0.84,0.28-1.57,0.72-2.189,1.32c-0.621,0.6-1.11,1.39-1.471,2.37c-0.359,0.98-0.54,2.17-0.54,3.57V33.06z"
		/>
	<path class="st0" d="M162.357,33.24c0,1.68-0.24,3.15-0.721,4.41c-0.479,1.26-1.16,2.31-2.04,3.15c-0.88,0.84-1.91,1.47-3.09,1.89
		c-1.18,0.42-2.45,0.63-3.81,0.63c-1.4,0-2.69-0.21-3.87-0.63c-1.181-0.42-2.2-1.05-3.06-1.89c-0.861-0.84-1.541-1.89-2.04-3.15
		c-0.501-1.26-0.75-2.73-0.75-4.41V20.46c0-1.68,0.249-3.15,0.75-4.41c0.499-1.26,1.179-2.31,2.04-3.15
		c0.859-0.84,1.879-1.47,3.06-1.89c1.18-0.42,2.47-0.63,3.87-0.63c1.359,0,2.63,0.21,3.81,0.63s2.21,1.05,3.09,1.89
		c0.88,0.84,1.561,1.89,2.04,3.15c0.48,1.26,0.721,2.73,0.721,4.41V33.24z M159.597,20.64c0-1.4-0.18-2.589-0.539-3.57
		c-0.36-0.98-0.861-1.77-1.5-2.37c-0.641-0.6-1.371-1.04-2.19-1.32c-0.82-0.28-1.71-0.42-2.67-0.42s-1.86,0.141-2.7,0.42
		c-0.84,0.28-1.57,0.72-2.189,1.32c-0.621,0.6-1.11,1.39-1.471,2.37c-0.359,0.98-0.54,2.17-0.54,3.57v12.42
		c0,1.401,0.181,2.59,0.54,3.57c0.36,0.98,0.85,1.77,1.471,2.37c0.619,0.6,1.35,1.041,2.189,1.32c0.84,0.28,1.74,0.42,2.7,0.42
		s1.85-0.14,2.67-0.42c0.819-0.279,1.55-0.72,2.19-1.32c0.639-0.6,1.14-1.389,1.5-2.37c0.359-0.98,0.539-2.169,0.539-3.57V20.64z"/>
	<path class="st0" d="M186.116,0.66h0.9c0.68,0,1.02,0.321,1.02,0.96V41.7c0,0.64-0.34,0.96-1.02,0.96h-0.9
		c-0.681,0-1.02-0.32-1.02-0.96V1.62C185.096,0.981,185.435,0.66,186.116,0.66z"/>
	<path class="st0" d="M211.435,12c0-0.639,0.32-0.96,0.96-0.96h0.841c0.639,0,0.96,0.321,0.96,0.96v22.14c0,2.4,0.56,4.101,1.68,5.1
		c1.119,1,2.52,1.5,4.2,1.5c0.84,0,1.62-0.12,2.34-0.36c0.72-0.24,1.35-0.62,1.89-1.14c0.54-0.52,0.97-1.2,1.29-2.04
		s0.48-1.86,0.48-3.06V12c0-0.639,0.319-0.96,0.96-0.96h0.899c0.64,0,0.96,0.321,0.96,0.96v22.14c0,2.4,0.57,4.101,1.711,5.1
		c1.14,1,2.55,1.5,4.229,1.5s3.09-0.5,4.23-1.5c1.14-1,1.71-2.7,1.71-5.1V12c0-0.639,0.319-0.96,0.96-0.96h0.84
		c0.64,0,0.96,0.321,0.96,0.96v22.56c0,2.961-0.811,5.16-2.43,6.6c-1.62,1.44-3.631,2.16-6.03,2.16c-1.841,0-3.431-0.42-4.771-1.26
		c-1.34-0.84-2.29-2.12-2.85-3.84c-0.561,1.72-1.511,3-2.85,3.84c-1.341,0.84-2.91,1.26-4.711,1.26c-2.439,0-4.46-0.72-6.06-2.16
		c-1.601-1.44-2.4-3.639-2.4-6.6V12z"/>
	<path class="st0" d="M271.375,33.24c0,1.68-0.24,3.15-0.721,4.41c-0.479,1.26-1.16,2.31-2.04,3.15c-0.88,0.84-1.91,1.47-3.09,1.89
		c-1.18,0.42-2.45,0.63-3.81,0.63c-1.4,0-2.69-0.21-3.87-0.63c-1.181-0.42-2.2-1.05-3.06-1.89c-0.861-0.84-1.541-1.89-2.04-3.15
		c-0.501-1.26-0.75-2.73-0.75-4.41V20.46c0-1.68,0.249-3.15,0.75-4.41c0.499-1.26,1.179-2.31,2.04-3.15
		c0.859-0.84,1.879-1.47,3.06-1.89c1.18-0.42,2.47-0.63,3.87-0.63c1.359,0,2.63,0.21,3.81,0.63s2.21,1.05,3.09,1.89
		c0.88,0.84,1.561,1.89,2.04,3.15c0.48,1.26,0.721,2.73,0.721,4.41V33.24z M268.615,20.64c0-1.4-0.18-2.589-0.539-3.57
		c-0.36-0.98-0.861-1.77-1.5-2.37c-0.641-0.6-1.371-1.04-2.19-1.32c-0.82-0.28-1.71-0.42-2.67-0.42s-1.86,0.141-2.7,0.42
		c-0.84,0.28-1.57,0.72-2.189,1.32c-0.621,0.6-1.11,1.39-1.471,2.37c-0.359,0.98-0.54,2.17-0.54,3.57v12.42
		c0,1.401,0.181,2.59,0.54,3.57c0.36,0.98,0.85,1.77,1.471,2.37c0.619,0.6,1.35,1.041,2.189,1.32c0.84,0.28,1.74,0.42,2.7,0.42
		s1.85-0.14,2.67-0.42c0.819-0.279,1.55-0.72,2.19-1.32c0.639-0.6,1.14-1.389,1.5-2.37c0.359-0.98,0.539-2.169,0.539-3.57V20.64z"/>
	<path class="st0" d="M288.595,13.32c-1.961,0-3.45,0.39-4.471,1.17c-1.02,0.78-1.529,2.331-1.529,4.65V41.7
		c0,0.64-0.321,0.96-0.96,0.96h-0.841c-0.64,0-0.96-0.32-0.96-0.96V18.84c0-1.52,0.189-2.799,0.57-3.84
		c0.38-1.04,0.93-1.869,1.65-2.49c0.72-0.62,1.599-1.07,2.64-1.35c1.04-0.279,2.199-0.42,3.48-0.42c0.439,0,0.89,0.021,1.35,0.06
		c0.459,0.04,0.93,0.1,1.41,0.18c0.6,0.12,0.899,0.46,0.899,1.02v0.66c0,0.72-0.32,1.02-0.96,0.9c-0.4-0.08-0.79-0.14-1.17-0.18
		C289.325,13.341,288.955,13.32,288.595,13.32z"/>
	<path class="st0" d="M305.875,26.04l-5.101,6.06v9.6c0,0.64-0.32,0.96-0.96,0.96h-0.899c-0.641,0-0.96-0.32-0.96-0.96V0.96
		c0-0.639,0.319-0.96,0.96-0.96h0.899c0.64,0,0.96,0.321,0.96,0.96V28.5l13.681-16.8c0.279-0.44,0.739-0.66,1.38-0.66h1.319
		c0.32,0,0.52,0.141,0.601,0.42c0.079,0.28,0.02,0.521-0.181,0.72l-9.899,11.7l10.2,17.64c0.199,0.28,0.239,0.54,0.119,0.78
		c-0.119,0.24-0.359,0.36-0.72,0.36h-1.2c-0.6,0-1-0.24-1.199-0.72L305.875,26.04z"/>
	<path class="st0" d="M324.954,9.66c0,0.6-0.32,0.9-0.96,0.9h-0.84c-0.641,0-0.96-0.32-0.96-0.96c0-1.399,0.229-2.689,0.689-3.87
		c0.46-1.179,1.12-2.19,1.98-3.03c0.859-0.84,1.88-1.5,3.06-1.98S330.414,0,331.854,0c1.359,0,2.629,0.21,3.81,0.63
		c1.18,0.42,2.21,1.05,3.09,1.89c0.88,0.84,1.561,1.9,2.04,3.18c0.48,1.281,0.72,2.76,0.72,4.44v0.06c0,1.6-0.25,2.98-0.75,4.14
		c-0.5,1.161-1.13,2.19-1.89,3.09s-1.57,1.73-2.43,2.49c-0.861,0.761-1.671,1.56-2.431,2.4c-0.76,0.84-1.39,1.75-1.89,2.73
		c-0.501,0.98-0.75,2.15-0.75,3.51v2.46c0,0.641-0.32,0.96-0.96,0.96h-0.66c-0.64,0-0.96-0.319-0.96-0.96v-2.4
		c0-1.56,0.25-2.91,0.75-4.05c0.5-1.14,1.11-2.169,1.83-3.09c0.72-0.919,1.52-1.759,2.4-2.52c0.879-0.759,1.68-1.56,2.399-2.4
		c0.721-0.84,1.33-1.76,1.83-2.76c0.5-1,0.75-2.18,0.75-3.54c0-1.4-0.18-2.589-0.54-3.57c-0.359-0.979-0.86-1.77-1.5-2.37
		c-0.64-0.6-1.37-1.04-2.189-1.32c-0.82-0.279-1.71-0.42-2.67-0.42c-2.16,0-3.851,0.66-5.07,1.98
		C325.563,5.88,324.954,7.581,324.954,9.66z M332.093,41.7c0,0.64-0.32,0.96-0.96,0.96h-2.1c-0.641,0-0.96-0.32-0.96-0.96v-2.94
		c0-0.64,0.319-0.96,0.96-0.96h2.1c0.64,0,0.96,0.32,0.96,0.96V41.7z"/>
</g>
</svg>