<!-- Generator: Adobe Illustrator 21.0.0, SVG Export Plug-In  -->
<svg version="1.1"
	 xmlns="http://www.w3.org/2000/svg" xmlns:xlink="http://www.w3.org/1999/xlink" xmlns:a="http://ns.adobe.com/AdobeSVGViewerExtensions/3.0/"
	 x="0px" y="0px" width="93.774px" height="17.6px" viewBox="0 0 93.774 17.6" style="enable-background:new 0 0 93.774 17.6;"
	 xml:space="preserve">
<style type="text/css">
	.st0{fill:#7F7F7F;}
	.st1{font-family:'YummoW03-Bold';}
	.st2{font-size:16px;}
</style>
<defs>
</defs>
<g>
	<path class="st0" d="M2.832,13.023c0,0.384-0.192,0.576-0.576,0.576H1.68c-0.384,0-0.576-0.192-0.576-0.576V2.815
		c0-0.384,0.192-0.576,0.576-0.576h0.576c0.384,0,0.576,0.192,0.576,0.576v2.848c0.373-0.448,0.901-0.672,1.584-0.672
		c0.331,0,0.634,0.053,0.912,0.16c0.277,0.107,0.517,0.27,0.72,0.488s0.363,0.494,0.48,0.824c0.117,0.331,0.176,0.72,0.176,1.168
		v5.392c0,0.384-0.192,0.576-0.576,0.576H5.552c-0.384,0-0.576-0.192-0.576-0.576V7.936c0-0.512-0.104-0.861-0.312-1.048
		s-0.461-0.28-0.76-0.28c-0.298,0-0.552,0.094-0.76,0.28S2.832,7.424,2.832,7.936V13.023z"/>
	<path class="st0" d="M14.176,10.944c0,0.48-0.072,0.898-0.216,1.256s-0.339,0.651-0.584,0.88c-0.246,0.229-0.542,0.403-0.888,0.52
		s-0.717,0.176-1.112,0.176c-0.406,0-0.779-0.059-1.12-0.176s-0.635-0.291-0.88-0.52c-0.246-0.229-0.44-0.522-0.584-0.88
		s-0.216-0.776-0.216-1.256v-3.12c0-0.469,0.072-0.883,0.216-1.24C8.936,6.227,9.13,5.93,9.376,5.696
		c0.245-0.235,0.539-0.411,0.88-0.528c0.341-0.117,0.714-0.176,1.12-0.176c0.395,0,0.765,0.059,1.112,0.176
		c0.347,0.118,0.643,0.293,0.888,0.528c0.245,0.234,0.44,0.531,0.584,0.888c0.144,0.357,0.216,0.771,0.216,1.24V10.944z
		 M12.448,7.936c0-0.512-0.104-0.861-0.312-1.048s-0.461-0.28-0.76-0.28c-0.299,0-0.552,0.094-0.76,0.28s-0.312,0.536-0.312,1.048
		v2.896c0,0.512,0.104,0.861,0.312,1.048c0.208,0.187,0.461,0.28,0.76,0.28c0.298,0,0.552-0.093,0.76-0.28
		c0.208-0.187,0.312-0.536,0.312-1.048V7.936z"/>
	<path class="st0" d="M16.048,5.744c0-0.384,0.192-0.576,0.576-0.576H17.2c0.384,0,0.576,0.192,0.576,0.576v5.168
		c0,0.48,0.099,0.808,0.296,0.984c0.197,0.176,0.434,0.264,0.712,0.264c0.277,0,0.514-0.088,0.712-0.264
		c0.197-0.176,0.296-0.504,0.296-0.984V5.744c0-0.384,0.192-0.576,0.576-0.576h0.576c0.384,0,0.576,0.192,0.576,0.576v5.168
		c0,0.48,0.099,0.808,0.296,0.984c0.197,0.176,0.435,0.264,0.712,0.264s0.515-0.088,0.712-0.264
		c0.197-0.176,0.296-0.504,0.296-0.984V5.744c0-0.384,0.192-0.576,0.576-0.576h0.576c0.384,0,0.576,0.192,0.576,0.576v5.488
		c0,0.427-0.064,0.798-0.192,1.112c-0.128,0.314-0.304,0.579-0.528,0.792s-0.488,0.374-0.792,0.48c-0.304,0.106-0.637,0.16-1,0.16
		c-0.48,0-0.898-0.101-1.256-0.304s-0.638-0.501-0.84-0.896c-0.203,0.395-0.483,0.693-0.84,0.896s-0.776,0.304-1.256,0.304
		c-0.363,0-0.696-0.053-1-0.16s-0.568-0.267-0.792-0.48s-0.4-0.478-0.528-0.792c-0.128-0.314-0.192-0.686-0.192-1.112V5.744z"/>
	<path class="st0" d="M30.687,7.632c0-0.896,0.216-1.56,0.648-1.992c0.432-0.432,0.979-0.648,1.64-0.648
		c0.32,0,0.616,0.053,0.888,0.16c0.272,0.107,0.504,0.278,0.696,0.512V2.815c0-0.384,0.192-0.576,0.576-0.576h0.576
		c0.384,0,0.576,0.192,0.576,0.576v8.128c0,0.48-0.072,0.898-0.216,1.256s-0.339,0.651-0.584,0.88
		c-0.246,0.229-0.542,0.403-0.888,0.52s-0.717,0.176-1.112,0.176c-0.406,0-0.779-0.059-1.12-0.176s-0.635-0.291-0.88-0.52
		c-0.246-0.229-0.44-0.522-0.584-0.88s-0.216-0.776-0.216-1.256V7.632z M32.415,10.832c0,0.512,0.104,0.861,0.312,1.048
		c0.208,0.187,0.461,0.28,0.76,0.28c0.298,0,0.552-0.093,0.76-0.28c0.208-0.187,0.312-0.536,0.312-1.048V7.936
		c0-0.512-0.104-0.861-0.312-1.048s-0.461-0.28-0.76-0.28c-0.299,0-0.552,0.094-0.76,0.28s-0.312,0.536-0.312,1.048V10.832z"/>
	<path class="st0" d="M43.775,10.944c0,0.48-0.072,0.898-0.216,1.256s-0.339,0.651-0.584,0.88c-0.246,0.229-0.542,0.403-0.888,0.52
		s-0.717,0.176-1.112,0.176c-0.406,0-0.779-0.059-1.12-0.176s-0.635-0.291-0.88-0.52c-0.246-0.229-0.44-0.522-0.584-0.88
		s-0.216-0.776-0.216-1.256v-3.12c0-0.469,0.072-0.883,0.216-1.24c0.144-0.357,0.338-0.653,0.584-0.888
		c0.245-0.235,0.539-0.411,0.88-0.528c0.341-0.117,0.714-0.176,1.12-0.176c0.395,0,0.765,0.059,1.112,0.176
		c0.347,0.118,0.643,0.293,0.888,0.528c0.245,0.234,0.44,0.531,0.584,0.888c0.144,0.357,0.216,0.771,0.216,1.24V10.944z
		 M42.047,7.936c0-0.512-0.104-0.861-0.312-1.048s-0.461-0.28-0.76-0.28c-0.299,0-0.552,0.094-0.76,0.28s-0.312,0.536-0.312,1.048
		v2.896c0,0.512,0.104,0.861,0.312,1.048c0.208,0.187,0.461,0.28,0.76,0.28c0.298,0,0.552-0.093,0.76-0.28
		c0.208-0.187,0.312-0.536,0.312-1.048V7.936z"/>
	<path class="st0" d="M50.047,2.399h0.624c0.405,0,0.608,0.203,0.608,0.608v9.984c0,0.405-0.203,0.608-0.608,0.608h-0.624
		c-0.405,0-0.608-0.203-0.608-0.608V3.008C49.439,2.603,49.642,2.399,50.047,2.399z"/>
	<path class="st0" d="M57.086,5.744c0-0.384,0.192-0.576,0.576-0.576h0.576c0.384,0,0.576,0.192,0.576,0.576v5.168
		c0,0.48,0.099,0.808,0.296,0.984c0.197,0.176,0.434,0.264,0.712,0.264c0.277,0,0.514-0.088,0.712-0.264
		c0.197-0.176,0.296-0.504,0.296-0.984V5.744c0-0.384,0.192-0.576,0.576-0.576h0.576c0.384,0,0.576,0.192,0.576,0.576v5.168
		c0,0.48,0.099,0.808,0.296,0.984c0.197,0.176,0.435,0.264,0.712,0.264s0.515-0.088,0.712-0.264
		c0.197-0.176,0.296-0.504,0.296-0.984V5.744c0-0.384,0.192-0.576,0.576-0.576h0.576c0.384,0,0.576,0.192,0.576,0.576v5.488
		c0,0.427-0.064,0.798-0.192,1.112c-0.128,0.314-0.304,0.579-0.528,0.792s-0.488,0.374-0.792,0.48c-0.304,0.106-0.637,0.16-1,0.16
		c-0.48,0-0.898-0.101-1.256-0.304s-0.638-0.501-0.84-0.896c-0.203,0.395-0.483,0.693-0.84,0.896s-0.776,0.304-1.256,0.304
		c-0.363,0-0.696-0.053-1-0.16s-0.568-0.267-0.792-0.48s-0.4-0.478-0.528-0.792c-0.128-0.314-0.192-0.686-0.192-1.112V5.744z"/>
	<path class="st0" d="M73.774,10.944c0,0.48-0.072,0.898-0.216,1.256s-0.339,0.651-0.584,0.88c-0.246,0.229-0.542,0.403-0.888,0.52
		s-0.717,0.176-1.112,0.176c-0.406,0-0.779-0.059-1.12-0.176s-0.635-0.291-0.88-0.52c-0.246-0.229-0.44-0.522-0.584-0.88
		s-0.216-0.776-0.216-1.256v-3.12c0-0.469,0.072-0.883,0.216-1.24c0.144-0.357,0.338-0.653,0.584-0.888
		c0.245-0.235,0.539-0.411,0.88-0.528c0.341-0.117,0.714-0.176,1.12-0.176c0.395,0,0.765,0.059,1.112,0.176
		c0.347,0.118,0.643,0.293,0.888,0.528c0.245,0.234,0.44,0.531,0.584,0.888c0.144,0.357,0.216,0.771,0.216,1.24V10.944z
		 M72.046,7.936c0-0.512-0.104-0.861-0.312-1.048s-0.461-0.28-0.76-0.28c-0.299,0-0.552,0.094-0.76,0.28s-0.312,0.536-0.312,1.048
		v2.896c0,0.512,0.104,0.861,0.312,1.048c0.208,0.187,0.461,0.28,0.76,0.28c0.298,0,0.552-0.093,0.76-0.28
		c0.208-0.187,0.312-0.536,0.312-1.048V7.936z"/>
	<path class="st0" d="M78.415,6.704c-0.374,0-0.64,0.075-0.8,0.224s-0.24,0.411-0.24,0.784v5.312c0,0.384-0.192,0.576-0.576,0.576
		h-0.576c-0.384,0-0.576-0.192-0.576-0.576v-5.44c0-0.917,0.222-1.562,0.664-1.936c0.442-0.373,1.064-0.56,1.864-0.56
		c0.117,0,0.242,0.003,0.376,0.008c0.133,0.005,0.28,0.024,0.44,0.056c0.149,0.032,0.269,0.088,0.36,0.168
		c0.091,0.08,0.136,0.216,0.136,0.408v0.464c0,0.192-0.048,0.342-0.144,0.448c-0.096,0.107-0.24,0.144-0.432,0.112
		C78.719,6.72,78.553,6.704,78.415,6.704z"/>
	<path class="st0" d="M83.23,10.016l-0.688,0.896v2.112c0,0.384-0.192,0.576-0.576,0.576H81.39c-0.384,0-0.576-0.192-0.576-0.576
		V2.8c0-0.384,0.192-0.576,0.576-0.576h0.576c0.384,0,0.576,0.192,0.576,0.576v5.824L84.59,5.6c0.096-0.149,0.2-0.258,0.312-0.328
		c0.112-0.069,0.274-0.104,0.488-0.104h0.816c0.203,0,0.328,0.075,0.376,0.224s0.019,0.288-0.088,0.416l-2.16,2.768l2.24,4.4
		c0.085,0.149,0.096,0.291,0.032,0.424c-0.064,0.134-0.192,0.2-0.384,0.2h-0.736c-0.213,0-0.371-0.035-0.472-0.104
		c-0.102-0.069-0.19-0.179-0.264-0.328L83.23,10.016z"/>
	<path class="st0" d="M89.247,4.976c0,0.331-0.192,0.496-0.576,0.496h-0.576c-0.384,0-0.576-0.192-0.576-0.576
		c0-0.395,0.064-0.754,0.192-1.08c0.128-0.325,0.314-0.605,0.56-0.84c0.245-0.234,0.539-0.418,0.88-0.552s0.73-0.2,1.168-0.2
		c0.395,0,0.765,0.059,1.112,0.176c0.347,0.118,0.643,0.293,0.888,0.528c0.245,0.235,0.44,0.531,0.584,0.888
		c0.144,0.358,0.216,0.771,0.216,1.24v0.096c0,0.438-0.061,0.811-0.184,1.12c-0.123,0.31-0.275,0.584-0.456,0.824
		c-0.182,0.24-0.382,0.456-0.6,0.648c-0.219,0.192-0.419,0.392-0.6,0.6c-0.182,0.208-0.333,0.432-0.456,0.672
		c-0.123,0.24-0.184,0.525-0.184,0.856v0.048c0,0.384-0.192,0.576-0.576,0.576h-0.416c-0.384,0-0.576-0.192-0.576-0.576V9.888
		c0-0.458,0.056-0.856,0.168-1.192c0.112-0.336,0.256-0.632,0.432-0.888s0.362-0.485,0.56-0.688c0.197-0.203,0.384-0.402,0.56-0.6
		c0.176-0.197,0.32-0.402,0.432-0.616c0.112-0.213,0.168-0.458,0.168-0.736V5.12c0-0.491-0.104-0.827-0.312-1.008
		c-0.208-0.182-0.462-0.272-0.76-0.272c-0.384,0-0.659,0.112-0.824,0.336C89.329,4.399,89.247,4.667,89.247,4.976z M90.895,13.023
		c0,0.384-0.192,0.576-0.576,0.576h-0.928c-0.384,0-0.576-0.192-0.576-0.576V12.08c0-0.384,0.192-0.576,0.576-0.576h0.928
		c0.384,0,0.576,0.192,0.576,0.576V13.023z"/>
</g>
</svg>