<!-- Generator: Adobe Illustrator 21.0.0, SVG Export Plug-In  -->
<svg version="1.1"
	 xmlns="http://www.w3.org/2000/svg" xmlns:xlink="http://www.w3.org/1999/xlink" xmlns:a="http://ns.adobe.com/AdobeSVGViewerExtensions/3.0/"
	 x="0px" y="0px" width="464.41px" height="308.982px" viewBox="0 0 464.41 308.982"
	 style="enable-background:new 0 0 464.41 308.982;" xml:space="preserve">
<style type="text/css">
	.st0{fill:#FF0000;}
</style>
<defs>
</defs>
<g id="New_Symbol_9_copy">
	<g>
		<g id="Layer0_0_FILL_1_">
			<g>
				<path class="st0" d="M7.905,115.838c-1.482,0.021-2.81,0.381-3.983,1.081c-1.194,0.7-2.141,1.647-2.841,2.841
					c-0.7,1.173-1.06,2.491-1.081,3.952c0.021,1.482,0.381,2.81,1.081,3.983c0.7,1.194,1.647,2.141,2.841,2.841
					c1.173,0.7,2.501,1.06,3.983,1.081c1.462-0.021,2.779-0.381,3.952-1.081c1.194-0.7,2.141-1.647,2.841-2.841
					c0.7-1.173,1.06-2.501,1.081-3.983c-0.021-1.462-0.381-2.779-1.081-3.952c-0.7-1.194-1.647-2.141-2.841-2.841
					C10.684,116.219,9.366,115.859,7.905,115.838 M126.693,296.26c0.844-0.659,1.667-1.369,2.47-2.131H51.999
					c0.823,0.762,1.657,1.482,2.501,2.161c10.272,8.461,22.294,12.691,36.066,12.691
					C104.358,308.982,116.401,304.741,126.693,296.26 M166.465,127.695c0.7,1.194,1.637,2.141,2.81,2.841
					c1.194,0.7,2.522,1.06,3.983,1.081c1.462-0.021,2.789-0.381,3.983-1.081c1.173-0.7,2.12-1.647,2.841-2.841
					c0.7-1.173,1.05-2.501,1.05-3.983c0-1.462-0.35-2.779-1.05-3.952c-0.721-1.194-1.667-2.141-2.841-2.841
					c-1.194-0.7-2.522-1.06-3.983-1.081c-1.462,0.021-2.789,0.381-3.983,1.081c-1.173,0.7-2.11,1.647-2.81,2.841
					c-0.7,1.173-1.06,2.491-1.081,3.952C165.404,125.194,165.765,126.522,166.465,127.695 M142.565,62.573
					c-3.911-1.667-8.121-2.522-12.629-2.563H51.227c-4.529,0.041-8.749,0.895-12.66,2.563c-3.932,1.688-7.38,4.014-10.344,6.978
					c-2.964,2.964-5.29,6.402-6.978,10.313c-1.667,3.932-2.511,8.152-2.532,12.66v62.374c0.021,4.529,0.865,8.749,2.532,12.66
					c1.688,3.911,4.014,7.359,6.978,10.344c2.964,2.964,6.412,5.29,10.344,6.978c3.705,1.585,7.699,2.429,11.981,2.532
					c0.226,0,0.453,0,0.679,0h5.465c1.42,0.021,2.707,0.371,3.86,1.05c1.153,0.679,2.059,1.595,2.717,2.748
					c0.679,1.132,1.029,2.409,1.05,3.829c0,0.041,0,0.082,0,0.123c-0.021,1.482-0.36,2.83-1.019,4.045
					c-0.021,0.021-0.041,0.051-0.062,0.093c-0.103,0.185-0.206,0.36-0.309,0.525c-0.062,0.082-0.124,0.154-0.185,0.216
					c-0.103,0.165-0.206,0.309-0.309,0.432c-0.062,0.062-0.113,0.134-0.154,0.216c-0.185,0.185-0.371,0.381-0.556,0.587
					c-0.226,0.206-0.443,0.401-0.648,0.587c-0.226,0.185-0.443,0.36-0.648,0.525c-0.206,0.103-0.412,0.226-0.618,0.371
					c-3.479,2.264-6.773,4.951-9.881,8.059c-0.556,0.556-1.091,1.112-1.606,1.667c-10.169,10.89-15.254,23.889-15.254,38.999
					c0,14.451,4.652,26.977,13.957,37.579c0.021,0.041,0.062,0.072,0.123,0.093c0.556,0.638,1.215,1.132,1.976,1.482
					c0.782,0.329,1.606,0.504,2.47,0.525l78.091-0.062c0.844,0,1.637-0.175,2.378-0.525c0.782-0.35,1.441-0.834,1.976-1.451
					l0.093-0.093c9.284-10.602,13.926-23.118,13.926-37.548c0-15.892-5.61-29.448-16.829-40.667
					c-3.088-3.088-6.361-5.754-9.819-7.997c-0.288-0.206-0.566-0.391-0.834-0.556c-0.432-0.288-0.834-0.628-1.204-1.019
					c-1.338-1.338-2.151-2.872-2.439-4.601h-0.031c0-0.041,0-0.196,0-0.463c0-0.247-0.01-0.576-0.031-0.988
					c-0.021-1.441,0.309-2.748,0.988-3.922c0.679-1.173,1.595-2.1,2.748-2.779c1.153-0.7,2.45-1.06,3.891-1.081h5.435
					c4.508-0.021,8.718-0.865,12.629-2.532c3.932-1.688,7.38-4.014,10.344-6.978c2.964-2.985,5.29-6.433,6.979-10.344
					c1.667-3.911,2.522-8.131,2.563-12.66V92.525c-0.041-4.508-0.895-8.728-2.563-12.66c-1.688-3.911-4.014-7.349-6.979-10.313
					C149.945,66.587,146.497,64.261,142.565,62.573 M148.092,123.712c0,15.892-5.62,29.437-16.859,40.636
					c-11.219,11.24-24.775,16.859-40.667,16.86c-9.84,0-18.795-2.151-26.864-6.454c-4.941-2.656-9.552-6.124-13.833-10.406
					c-11.178-11.199-16.767-24.744-16.767-40.636s5.589-29.458,16.767-40.698c11.24-11.178,24.806-16.767,40.698-16.767
					c15.892-0.021,29.448,5.568,40.667,16.767C142.472,94.254,148.092,107.82,148.092,123.712 M115.145,227
					c6.731,6.731,10.097,14.883,10.097,24.456c0,9.552-3.366,17.714-10.097,24.486c-6.793,6.752-14.966,10.128-24.517,10.128
					c-9.572,0-17.734-3.376-24.486-10.128c-6.731-6.752-10.097-14.914-10.097-24.486c0-9.552,3.366-17.704,10.097-24.456
					c2.635-2.656,5.496-4.786,8.584-6.392c4.776-2.511,10.077-3.767,15.902-3.767C100.179,216.841,108.352,220.227,115.145,227
					 M122.216,251.424c0-8.728-3.067-16.17-9.202-22.325c-6.217-6.196-13.689-9.294-22.418-9.294c-4.138,0-7.997,0.71-11.579,2.131
					c-3.932,1.523-7.514,3.911-10.746,7.164c-6.176,6.155-9.263,13.597-9.263,22.325s3.088,16.19,9.263,22.387
					c6.176,6.155,13.617,9.243,22.325,9.263c8.728-0.021,16.201-3.108,22.418-9.263
					C119.149,267.615,122.216,260.153,122.216,251.424 M99.397,246.731c0.103,0.103,0.257,0.134,0.463,0.093l3.798-0.803
					l-0.988,3.767c-0.082,0.268-0.144,0.494-0.185,0.679c-0.041,0.206-0.041,0.36,0,0.463c0.062,0.103,0.196,0.206,0.401,0.309
					l1.359,0.648l-6.577,5.527c-0.124,0.103-0.206,0.247-0.247,0.432c-0.082,0.144-0.082,0.309,0,0.494l0.556,1.976
					c-0.762-0.103-1.492-0.196-2.192-0.278c-0.741-0.082-1.462-0.175-2.161-0.278c-0.7-0.082-1.41-0.165-2.131-0.247l0.525,6.886
					h-2.656l0.463-6.886c-0.021,0-0.041,0-0.062,0c-0.741,0.082-1.472,0.165-2.192,0.247c-0.7,0.103-1.41,0.196-2.131,0.278
					c-0.7,0.082-1.431,0.175-2.192,0.278l0.618-1.976c0.021-0.185,0-0.35-0.062-0.494c-0.062-0.185-0.144-0.329-0.247-0.432
					l-6.577-5.527l1.359-0.648c0.185-0.103,0.309-0.206,0.371-0.309c0.041-0.103,0.041-0.257,0-0.463
					c-0.041-0.185-0.093-0.412-0.154-0.679l-1.019-3.767l3.829,0.803c0.165,0.041,0.309,0.01,0.432-0.093
					c0.123-0.082,0.206-0.185,0.247-0.309l0.494-1.791l2.995,3.52c0.103,0.124,0.226,0.226,0.371,0.309
					c0.144,0.062,0.278,0.062,0.401,0c0.124-0.041,0.206-0.144,0.247-0.309c0.062-0.165,0.051-0.412-0.031-0.741l-1.235-7.102
					l1.698,0.926c0.268,0.165,0.504,0.247,0.71,0.247c0.206-0.041,0.371-0.175,0.494-0.401l2.409-4.663l2.408,4.663
					c0.124,0.226,0.298,0.36,0.525,0.401c0.206,0,0.443-0.082,0.71-0.247l1.729-0.926l-1.297,7.102
					c-0.082,0.329-0.093,0.576-0.031,0.741c0.062,0.165,0.154,0.268,0.278,0.309c0.123,0.062,0.247,0.062,0.371,0
					c0.144-0.082,0.278-0.185,0.401-0.309l2.995-3.52l0.525,1.791C99.232,246.546,99.294,246.649,99.397,246.731"/>
			</g>
		</g>
		<g>
			<path class="st0" d="M60.059,56.953h60.984c1.991,0,3.852-0.992,4.961-2.646l6.439-9.601l-4.451-0.806
				c-0.617-0.1-1.065-0.309-1.344-0.627c-0.179-0.239-0.299-0.677-0.359-1.314c0-0.538,0-1.235,0-2.091l-0.09-11.649l-10.335,5.287
				c-0.578,0.259-1.026,0.289-1.344,0.09c-0.418-0.159-0.707-0.398-0.866-0.717l-2.957-4.63l-4.627,9.151
				c-0.617,1.219-2.466,0.616-2.246-0.732l2.631-16.066l-5.108,2.808c-0.777,0.418-1.463,0.627-2.061,0.627
				c-0.717-0.06-1.255-0.448-1.613-1.165l-7.169-13.89l-7.169,13.89c-0.418,0.717-0.926,1.105-1.523,1.165
				c-0.657,0-1.374-0.209-2.151-0.627l-4.988-2.808l2.653,16.427c0.218,1.348-1.631,1.948-2.246,0.729l-4.738-9.389l-2.838,4.869
				c-0.219,0.299-0.518,0.528-0.896,0.687c-0.418,0.199-0.866,0.169-1.344-0.09L54.9,28.547l-0.119,11.679
				c0.02,0.876,0.03,1.583,0.03,2.121c-0.06,0.617-0.209,1.036-0.448,1.255c-0.199,0.319-0.617,0.528-1.255,0.627l-4.421,0.836
				l6.462,9.319C56.266,55.993,58.1,56.953,60.059,56.953z"/>
		</g>
		<g>
			<g>
				<path class="st0" d="M141.244,127.245c-1.871,0-3.389-1.517-3.389-3.389c0-3.644-1.262-6.677-3.856-9.272
					c-2.541-2.557-5.542-3.796-9.182-3.796c-3.648,0-6.674,1.244-9.249,3.803c-0.298,0.315-0.643,0.696-0.97,1.077
					c-1.902,2.313-2.85,5.009-2.85,8.188c0,1.872-1.518,3.389-3.389,3.389s-3.389-1.517-3.389-3.389
					c0-4.748,1.493-8.97,4.439-12.549c0.446-0.521,0.869-0.989,1.315-1.457c3.919-3.897,8.638-5.84,14.091-5.84
					c5.461,0,10.164,1.948,13.981,5.789c3.868,3.868,5.834,8.6,5.834,14.057C144.632,125.728,143.115,127.245,141.244,127.245z"/>
			</g>
			<g>
				<path class="st0" d="M91.069,169.466c-7.24,0-12.91-7.49-17.334-22.898c-0.426-1.482,0.203-3.064,1.529-3.851
					s3.015-0.578,4.112,0.506c3.284,3.25,7.109,4.831,11.694,4.831c4.578,0,8.379-1.576,11.622-4.818
					c1.093-1.091,2.782-1.306,4.113-0.525c1.33,0.782,1.965,2.364,1.543,3.848C103.966,161.973,98.314,169.466,91.069,169.466z
					 M83.321,153.568c3.449,8.064,6.429,9.121,7.749,9.121c1.318,0,4.291-1.055,7.712-9.112c-2.406,0.835-4.98,1.255-7.712,1.255
					C88.329,154.832,85.742,154.409,83.321,153.568z"/>
			</g>
			<g>
				<path class="st0" d="M56.984,143.641c-5.436,0.012-10.223-1.908-14.082-5.743c-0.042-0.042-0.084-0.086-0.125-0.131l-1.15-1.271
					c-0.033-0.037-0.065-0.073-0.096-0.111c-2.971-3.581-4.478-7.796-4.478-12.529c0-4.753,1.507-8.979,4.478-12.56
					c0.031-0.038,0.063-0.074,0.096-0.111l1.15-1.271c0.038-0.042,0.077-0.083,0.117-0.123c3.836-3.836,8.547-5.781,14.004-5.781
					c5.456,0,10.167,1.945,14.003,5.781c3.876,3.876,5.842,8.608,5.842,14.064c0,5.436-1.965,10.158-5.842,14.034
					C67.085,141.707,62.403,143.641,56.984,143.641z M47.74,133.151c2.558,2.515,5.559,3.694,9.229,3.713
					c3.622,0,6.607-1.232,9.141-3.766c2.595-2.595,3.856-5.618,3.856-9.242c0-3.644-1.262-6.677-3.856-9.272
					c-2.555-2.554-5.567-3.796-9.211-3.796c-3.617,0-6.613,1.224-9.155,3.739l-1.041,1.15c-1.933,2.352-2.873,5.028-2.873,8.179
					c0,3.13,0.939,5.796,2.873,8.148L47.74,133.151z"/>
			</g>
		</g>
	</g>
</g>
<g>
	<path class="st0" d="M364.801,193.879c-0.029,0-0.06,0-0.089-0.001l-0.1-0.003c-1.656-0.048-2.96-1.431-2.911-3.087
		s1.458-2.949,3.087-2.91c1.656,0.048,3.01,1.432,2.961,3.088C367.702,192.592,366.416,193.879,364.801,193.879z M374.787,193.633
		c-1.553,0-2.866-1.196-2.988-2.769c-0.128-1.652,1.108-3.094,2.76-3.222c6.442-0.498,12.832-1.684,18.992-3.525
		c1.585-0.475,3.259,0.428,3.733,2.015s-0.427,3.259-2.015,3.734c-6.568,1.964-13.381,3.229-20.248,3.759
		C374.942,193.63,374.864,193.633,374.787,193.633z M354.746,193.064c-0.134,0-0.27-0.009-0.406-0.027
		c-6.82-0.922-13.551-2.58-20.004-4.924c-1.558-0.566-2.361-2.287-1.795-3.844c0.565-1.559,2.291-2.359,3.844-1.795
		c6.052,2.199,12.363,3.753,18.76,4.618c1.642,0.222,2.793,1.733,2.57,3.375C357.511,191.971,356.223,193.064,354.746,193.064z
		 M403.818,186.62c-1.17,0-2.281-0.689-2.765-1.835c-0.645-1.526,0.071-3.286,1.598-3.93c0.002-0.001,0.096-0.04,0.098-0.041
		c1.528-0.638,3.287,0.078,3.927,1.606c0.641,1.528-0.078,3.286-1.606,3.927l-1.16-2.767l1.074,2.803
		C404.602,186.544,404.206,186.62,403.818,186.62z M326.144,184.378c-0.432,0-0.871-0.095-1.289-0.297l-0.125-0.062
		c-1.481-0.741-2.082-2.543-1.342-4.025c0.742-1.482,2.546-2.081,4.025-1.341c1.491,0.722,2.143,2.529,1.421,4.021
		C328.315,183.747,327.254,184.378,326.144,184.378z M412.897,182.216c-1.056,0-2.08-0.558-2.628-1.547
		c-0.802-1.45-0.277-3.275,1.172-4.078c5.632-3.118,10.952-6.852,15.813-11.098c1.25-1.089,3.143-0.962,4.233,0.286
		c1.09,1.248,0.962,3.143-0.286,4.233c-5.182,4.525-10.852,8.504-16.854,11.827C413.886,182.095,413.388,182.216,412.897,182.216z
		 M317.346,179.457c-0.548,0-1.102-0.15-1.599-0.464c-5.804-3.666-11.238-7.965-16.151-12.778c-1.184-1.16-1.203-3.059-0.043-4.243
		c1.159-1.184,3.06-1.202,4.242-0.043c4.61,4.518,9.71,8.552,15.155,11.991c1.401,0.885,1.819,2.738,0.935,4.139
		C319.315,178.962,318.341,179.457,317.346,179.457z M436.397,163.791c-0.748,0-1.496-0.277-2.077-0.836
		c-1.195-1.147-1.234-3.046-0.087-4.242c1.122-1.22,3.033-1.312,4.251-0.19c1.22,1.122,1.311,3.006,0.189,4.226l-0.112,0.12
		C437.972,163.483,437.185,163.791,436.397,163.791z M294.884,159.688c-0.84,0-1.669-0.357-2.254-1.061
		c-0.008-0.011-0.08-0.098-0.089-0.109c-1.041-1.289-0.84-3.178,0.449-4.219c1.288-1.04,3.178-0.84,4.219,0.449
		c1.036,1.283,0.874,3.2-0.401,4.245C296.24,159.458,295.559,159.688,294.884,159.688z M442.849,156.031
		c-0.624,0-1.252-0.193-1.79-0.594c-1.329-0.99-1.604-2.87-0.613-4.198c3.857-5.179,7.166-10.775,9.833-16.633
		c0.687-1.507,2.466-2.173,3.974-1.487c1.508,0.687,2.174,2.465,1.487,3.973c-2.843,6.246-6.37,12.212-10.483,17.732
		C444.667,155.613,443.764,156.031,442.849,156.031z M288.946,151.594c-0.976,0-1.931-0.475-2.508-1.35
		c-3.788-5.747-6.964-11.906-9.441-18.307c-0.598-1.545,0.17-3.282,1.715-3.88c1.55-0.599,3.283,0.171,3.881,1.715
		c2.323,6.002,5.303,11.779,8.855,17.17c0.912,1.383,0.529,3.244-0.854,4.156C290.085,151.433,289.512,151.594,288.946,151.594z
		 M456.653,129.522c-0.298,0-0.6-0.045-0.897-0.14c-1.569-0.498-2.45-2.149-1.966-3.723l0.057-0.175
		c0.531-1.569,2.229-2.413,3.804-1.88c1.569,0.531,2.411,2.234,1.88,3.804l-2.842-0.962l2.832,0.991
		C459.105,128.704,457.921,129.522,456.653,129.522z M276.691,124.358c-1.319,0-2.528-0.877-2.893-2.211l-0.026-0.097
		c-0.436-1.599,0.507-3.248,2.105-3.684c1.591-0.436,3.246,0.506,3.684,2.105l0.026,0.097c0.436,1.599-0.507,3.248-2.105,3.684
		C277.218,124.323,276.953,124.358,276.691,124.358z M459.314,119.802c-0.209,0-0.421-0.022-0.634-0.067
		c-1.619-0.348-2.65-1.944-2.302-3.563c1.348-6.272,2.031-12.736,2.031-19.214c0-1.657,1.343-3,3-3s3,1.343,3,3
		c0,6.9-0.729,13.789-2.166,20.475C461.942,118.839,460.698,119.802,459.314,119.802z M274.605,114.483
		c-1.454,0-2.73-1.059-2.961-2.541c-0.764-4.922-1.15-9.963-1.15-14.985c0-1.853,0.053-3.729,0.158-5.578
		c0.095-1.654,1.521-2.924,3.165-2.825c1.654,0.094,2.919,1.511,2.825,3.165c-0.099,1.736-0.148,3.499-0.148,5.238
		c0,4.714,0.363,9.446,1.08,14.065c0.254,1.637-0.868,3.17-2.505,3.424C274.913,114.471,274.758,114.483,274.605,114.483z
		 M460.964,90.792c-1.526,0-2.832-1.16-2.982-2.71c-0.623-6.431-1.935-12.796-3.896-18.919c-0.506-1.578,0.363-3.267,1.94-3.772
		c1.576-0.505,3.267,0.363,3.772,1.941c2.093,6.529,3.491,13.316,4.156,20.171c0.159,1.649-1.048,3.116-2.697,3.275
		C461.16,90.788,461.062,90.792,460.964,90.792z M274.744,84.617c-0.176,0-0.354-0.016-0.533-0.047
		c-1.631-0.292-2.716-1.851-2.424-3.482l2.953,0.529l-2.948-0.555c0.276-1.621,1.817-2.738,3.431-2.484
		c1.624,0.257,2.741,1.75,2.502,3.376l-0.031,0.191C277.433,83.598,276.168,84.617,274.744,84.617z M276.913,74.763
		c-0.266,0-0.536-0.036-0.805-0.11c-1.597-0.443-2.531-2.097-2.088-3.693c1.837-6.618,4.396-13.06,7.605-19.147
		c0.772-1.465,2.586-2.028,4.053-1.255c1.465,0.772,2.027,2.587,1.254,4.053c-3.009,5.708-5.408,11.749-7.131,17.955
		C279.433,73.892,278.226,74.763,276.913,74.763z M453.387,61.909c-1.172,0-2.286-0.692-2.768-1.841
		c-0.635-1.513,0.045-3.301,1.549-3.956c1.503-0.656,3.235-0.026,3.912,1.47c0.011,0.025,0.062,0.141,0.072,0.166
		c0.641,1.528-0.078,3.286-1.606,3.927C454.167,61.834,453.774,61.909,453.387,61.909z M448.808,52.92
		c-1.035,0-2.042-0.536-2.599-1.497c-3.229-5.572-7.065-10.819-11.403-15.595c-1.114-1.227-1.022-3.124,0.204-4.238
		c1.227-1.113,3.125-1.022,4.237,0.204c4.623,5.09,8.712,10.683,12.153,16.622c0.831,1.434,0.342,3.269-1.092,4.1
		C449.835,52.789,449.319,52.92,448.808,52.92z M289.399,47.576c-0.568,0-1.14-0.16-1.643-0.498
		c-1.371-0.922-1.766-2.737-0.85-4.112c0.005-0.007,0.064-0.097,0.069-0.104c0.931-1.371,2.798-1.727,4.167-0.798
		c1.371,0.93,1.729,2.796,0.798,4.167C291.353,47.097,290.381,47.576,289.399,47.576z M295.47,39.564
		c-0.681,0-1.365-0.23-1.928-0.703c-1.269-1.066-1.434-2.958-0.367-4.227c4.419-5.262,9.41-10.067,14.834-14.282
		c1.309-1.015,3.192-0.78,4.21,0.528c1.017,1.309,0.78,3.193-0.528,4.21c-5.09,3.955-9.774,8.464-13.922,13.402
		C297.176,39.2,296.327,39.564,295.47,39.564z M429.927,29.778c-0.726,0-1.454-0.262-2.03-0.792
		c-1.253-1.084-1.394-2.982-0.309-4.235c1.083-1.251,2.974-1.393,4.228-0.308l0.144,0.127c1.22,1.122,1.298,3.02,0.177,4.239
		C431.544,29.452,430.737,29.778,429.927,29.778z M422.039,23.476c-0.604,0-1.213-0.182-1.742-0.56
		c-5.252-3.756-10.911-6.954-16.821-9.506c-1.521-0.657-2.222-2.422-1.564-3.944c0.657-1.521,2.426-2.219,3.943-1.565
		c6.301,2.721,12.334,6.13,17.933,10.134c1.348,0.964,1.659,2.838,0.695,4.186C423.896,23.04,422.974,23.476,422.039,23.476z
		 M318.104,19.973c-1.008,0-1.994-0.491-2.559-1.399c-0.873-1.408-0.483-3.231,0.925-4.104l0.085-0.053
		c1.406-0.875,3.256-0.441,4.131,0.967c0.874,1.408,0.441,3.257-0.967,4.131C319.219,19.825,318.659,19.973,318.104,19.973z
		 M326.906,15.175c-1.118,0-2.192-0.628-2.707-1.704c-0.717-1.495-0.085-3.286,1.409-4.002c6.2-2.971,12.734-5.28,19.421-6.864
		c1.609-0.38,3.229,0.615,3.61,2.228c0.382,1.612-0.615,3.229-2.228,3.611c-6.27,1.485-12.397,3.65-18.212,6.436
		C327.782,15.08,327.34,15.175,326.906,15.175z M395.289,10.193c-0.311,0-0.626-0.048-0.937-0.15
		c-1.585-0.48-2.496-2.16-2.016-3.746c0.48-1.586,2.138-2.485,3.726-2.006l0.161,0.05c1.574,0.517,2.432,2.211,1.915,3.786
		C397.724,9.39,396.55,10.193,395.289,10.193z M385.5,7.731c-0.189,0-0.382-0.018-0.576-0.056
		c-6.295-1.225-12.816-1.78-19.251-1.659c-1.645,0.043-3.025-1.286-3.057-2.942c-0.032-1.657,1.285-3.025,2.941-3.057
		c6.855-0.129,13.802,0.463,20.513,1.769c1.626,0.316,2.688,1.892,2.371,3.518C388.164,6.737,386.908,7.731,385.5,7.731z
		 M355.603,6.739c-1.485,0-2.797-1.095-2.997-2.603c-0.217-1.643,0.91-3.147,2.553-3.364l0.143-0.018
		c1.644-0.195,3.137,0.983,3.33,2.629s-0.983,3.136-2.629,3.33C355.869,6.73,355.735,6.739,355.603,6.739z"/>
</g>
<g>
	<path class="st0" d="M328.062,61.669c0.811,0,1.216,0.406,1.216,1.216v0.097c0,0.96-0.165,1.84-0.496,2.64
		s-0.795,1.488-1.392,2.064c-0.598,0.575-1.312,1.023-2.145,1.344s-1.738,0.479-2.72,0.479c-1.003,0-1.925-0.144-2.769-0.432
		c-0.842-0.288-1.572-0.725-2.191-1.312s-1.104-1.317-1.456-2.192s-0.528-1.898-0.528-3.072v-9.088c0-1.173,0.176-2.197,0.528-3.072
		c0.353-0.874,0.837-1.604,1.456-2.191s1.35-1.024,2.191-1.312c0.844-0.288,1.766-0.432,2.769-0.432c0.981,0,1.888,0.16,2.72,0.479
		c0.832,0.32,1.547,0.769,2.145,1.345c0.597,0.576,1.061,1.264,1.392,2.063s0.496,1.681,0.496,2.641v0.096
		c0,0.811-0.405,1.216-1.216,1.216h-1.376c-0.726,0-1.089-0.362-1.089-1.088c0-0.96-0.266-1.744-0.799-2.352
		c-0.534-0.608-1.28-0.912-2.24-0.912c-0.448,0-0.869,0.063-1.264,0.191c-0.396,0.128-0.748,0.342-1.057,0.641
		c-0.31,0.299-0.549,0.698-0.72,1.199c-0.171,0.502-0.257,1.126-0.257,1.872v8.32c0,0.747,0.086,1.371,0.257,1.872
		c0.171,0.502,0.41,0.901,0.72,1.2c0.309,0.299,0.661,0.512,1.057,0.64c0.395,0.128,0.815,0.192,1.264,0.192
		c0.96,0,1.706-0.305,2.24-0.912c0.533-0.608,0.799-1.393,0.799-2.353c0-0.725,0.363-1.088,1.089-1.088H328.062z"/>
	<path class="st0" d="M337.629,66.054c0.171,0,0.314-0.006,0.433-0.017c0.116-0.011,0.271-0.037,0.463-0.08
		c0.385-0.063,0.672,0.011,0.865,0.225c0.191,0.213,0.287,0.512,0.287,0.896v0.928c0,0.385-0.091,0.656-0.271,0.816
		c-0.182,0.16-0.432,0.271-0.752,0.336c-0.299,0.064-0.582,0.101-0.848,0.112c-0.268,0.01-0.518,0.016-0.753,0.016
		c-0.618,0-1.179-0.075-1.68-0.224c-0.501-0.149-0.934-0.395-1.296-0.736c-0.363-0.341-0.641-0.795-0.832-1.36
		c-0.192-0.564-0.288-1.253-0.288-2.063V47.589c0-0.768,0.384-1.151,1.151-1.151h1.152c0.768,0,1.152,0.384,1.152,1.151v17.057
		c0,0.555,0.128,0.928,0.384,1.12C337.053,65.957,337.331,66.054,337.629,66.054z"/>
	<path class="st0" d="M342.333,47.909c0-0.768,0.383-1.152,1.151-1.152h1.152c0.768,0,1.151,0.385,1.151,1.152v1.088
		c0,0.769-0.384,1.152-1.151,1.152h-1.152c-0.769,0-1.151-0.384-1.151-1.152V47.909z M342.333,53.445
		c0-0.769,0.383-1.152,1.151-1.152h1.152c0.768,0,1.151,0.384,1.151,1.152v14.56c0,0.769-0.384,1.152-1.151,1.152h-1.152
		c-0.769,0-1.151-0.384-1.151-1.152V53.445z"/>
	<path class="st0" d="M353.181,63.621c0,1.024,0.207,1.723,0.623,2.096c0.416,0.374,0.923,0.561,1.521,0.561
		c0.618,0,1.104-0.192,1.456-0.576s0.527-0.896,0.527-1.536c0-0.661,0.331-0.992,0.992-0.992h1.312c0.768,0,1.152,0.385,1.152,1.152
		c0,0.789-0.135,1.504-0.4,2.144c-0.268,0.641-0.641,1.185-1.12,1.633c-0.479,0.447-1.056,0.795-1.728,1.04
		c-0.672,0.244-1.403,0.367-2.192,0.367c-0.812,0-1.558-0.117-2.24-0.352s-1.27-0.587-1.76-1.056
		c-0.491-0.47-0.88-1.062-1.168-1.776s-0.433-1.541-0.433-2.479v-6.24c0-0.938,0.145-1.766,0.433-2.48
		c0.288-0.714,0.677-1.307,1.168-1.775c0.49-0.47,1.077-0.821,1.76-1.057c0.683-0.234,1.429-0.352,2.24-0.352
		c0.789,0,1.521,0.123,2.192,0.368s1.248,0.592,1.728,1.04c0.479,0.447,0.853,0.991,1.12,1.632c0.266,0.64,0.4,1.354,0.4,2.144
		c0,0.769-0.385,1.152-1.152,1.152H358.3c-0.661,0-0.992-0.331-0.992-0.992c0-0.64-0.176-1.152-0.527-1.536
		s-0.838-0.576-1.456-0.576c-0.598,0-1.104,0.188-1.521,0.561s-0.623,1.072-0.623,2.096V63.621z"/>
	<path class="st0" d="M369.244,61.989l-1.375,1.792v4.224c0,0.769-0.385,1.152-1.152,1.152h-1.152c-0.768,0-1.152-0.384-1.152-1.152
		V47.557c0-0.769,0.385-1.152,1.152-1.152h1.152c0.768,0,1.152,0.384,1.152,1.152v11.647l4.096-6.048
		c0.191-0.299,0.4-0.517,0.623-0.656c0.225-0.139,0.55-0.208,0.977-0.208h1.633c0.404,0,0.655,0.149,0.752,0.448
		c0.096,0.299,0.036,0.576-0.177,0.832l-4.319,5.536l4.479,8.8c0.171,0.299,0.192,0.582,0.063,0.848
		c-0.127,0.268-0.383,0.4-0.768,0.4h-1.473c-0.426,0-0.74-0.069-0.943-0.208s-0.379-0.357-0.527-0.656L369.244,61.989z"/>
	<path class="st0" d="M404.636,68.005c0,0.769-0.385,1.152-1.152,1.152h-1.152c-0.768,0-1.152-0.384-1.152-1.152V57.669
		c0-0.96-0.197-1.615-0.592-1.968c-0.395-0.352-0.869-0.528-1.424-0.528s-1.029,0.177-1.424,0.528
		c-0.395,0.353-0.592,1.008-0.592,1.968v10.336c0,0.769-0.385,1.152-1.152,1.152h-1.152c-0.768,0-1.152-0.384-1.152-1.152V57.669
		c0-0.96-0.197-1.615-0.592-1.968c-0.395-0.352-0.869-0.528-1.424-0.528s-1.029,0.177-1.424,0.528
		c-0.395,0.353-0.592,1.008-0.592,1.968v10.336c0,0.769-0.385,1.152-1.152,1.152h-1.152c-0.768,0-1.151-0.384-1.151-1.152V57.029
		c0-0.854,0.128-1.595,0.384-2.224c0.256-0.63,0.607-1.157,1.057-1.584c0.447-0.427,0.976-0.747,1.584-0.961
		c0.607-0.213,1.273-0.319,2-0.319c0.959,0,1.797,0.208,2.512,0.624s1.274,1.008,1.68,1.775c0.405-0.768,0.965-1.359,1.68-1.775
		s1.553-0.624,2.512-0.624c0.726,0,1.393,0.106,2,0.319c0.609,0.214,1.137,0.534,1.584,0.961c0.449,0.427,0.801,0.954,1.057,1.584
		c0.256,0.629,0.385,1.37,0.385,2.224V68.005z"/>
	<path class="st0" d="M415.963,64.485c0-0.661,0.331-0.992,0.992-0.992h1.312c0.768,0,1.152,0.384,1.152,1.152
		c0,1.451-0.496,2.624-1.488,3.52c-0.992,0.896-2.309,1.344-3.951,1.344c-0.812,0-1.559-0.117-2.24-0.352
		c-0.684-0.234-1.27-0.587-1.76-1.056c-0.492-0.47-0.881-1.062-1.168-1.776c-0.289-0.715-0.433-1.541-0.433-2.479v-6.24
		c0-0.938,0.144-1.766,0.433-2.48c0.287-0.714,0.676-1.307,1.168-1.775c0.49-0.47,1.076-0.821,1.76-1.057
		c0.682-0.234,1.429-0.352,2.24-0.352c0.789,0,1.529,0.117,2.223,0.352c0.693,0.235,1.285,0.587,1.777,1.057
		c0.49,0.469,0.879,1.062,1.168,1.775c0.287,0.715,0.432,1.542,0.432,2.48v2.72c0,0.768-0.385,1.152-1.152,1.152h-6.592v2.144
		c0,1.024,0.208,1.723,0.624,2.096c0.416,0.374,0.923,0.561,1.521,0.561c0.617,0,1.104-0.16,1.455-0.48
		C415.788,65.477,415.963,65.04,415.963,64.485z M411.835,58.885h4.288v-1.056c0-1.023-0.208-1.723-0.624-2.096
		s-0.924-0.561-1.52-0.561c-0.598,0-1.104,0.188-1.521,0.561s-0.624,1.072-0.624,2.096V58.885z"/>
	<path class="st0" d="M332.734,93.846c0,0.938-0.145,1.765-0.432,2.479c-0.289,0.715-0.678,1.307-1.168,1.776
		c-0.492,0.469-1.084,0.821-1.776,1.056c-0.694,0.234-1.435,0.352-2.224,0.352c-0.812,0-1.559-0.117-2.24-0.352
		c-0.684-0.234-1.275-0.565-1.776-0.992s-0.892-0.954-1.168-1.584c-0.277-0.629-0.416-1.349-0.416-2.16v-0.063
		c0-1.601,0.479-2.849,1.44-3.744c0.959-0.896,2.346-1.344,4.16-1.344h2.144v-1.44c0-1.023-0.208-1.723-0.624-2.096
		s-0.923-0.561-1.52-0.561c-0.619,0-1.078,0.166-1.377,0.496c-0.299,0.331-0.447,0.731-0.447,1.2c0,0.661-0.332,0.992-0.992,0.992
		h-1.312c-0.768,0-1.152-0.384-1.152-1.152c0-0.683,0.123-1.312,0.369-1.888c0.244-0.576,0.597-1.077,1.056-1.504
		c0.458-0.427,1.013-0.763,1.664-1.008c0.65-0.245,1.381-0.368,2.192-0.368c0.789,0,1.529,0.117,2.224,0.352
		c0.692,0.235,1.284,0.587,1.776,1.057c0.49,0.469,0.879,1.062,1.168,1.775c0.287,0.715,0.432,1.542,0.432,2.48V93.846z
		 M327.134,96.277c0.597,0,1.104-0.187,1.52-0.561c0.416-0.373,0.624-1.071,0.624-2.096v-1.76h-2.144
		c-0.598,0-1.104,0.165-1.521,0.496s-0.624,0.901-0.624,1.712s0.208,1.382,0.624,1.712C326.03,96.112,326.537,96.277,327.134,96.277
		z"/>
	<path class="st0" d="M346.525,99.157h-1.151c-0.769,0-1.152-0.384-1.152-1.152V87.829c0-1.023-0.208-1.723-0.624-2.096
		s-0.923-0.561-1.52-0.561c-0.598,0-1.104,0.188-1.52,0.561s-0.625,1.072-0.625,2.096v10.176c0,0.769-0.384,1.152-1.152,1.152
		h-1.151c-0.769,0-1.151-0.384-1.151-1.152V87.605c0-0.938,0.144-1.766,0.432-2.48c0.287-0.714,0.677-1.307,1.168-1.775
		c0.49-0.47,1.076-0.821,1.76-1.057c0.683-0.234,1.43-0.352,2.24-0.352c0.789,0,1.53,0.117,2.224,0.352
		c0.693,0.235,1.285,0.587,1.776,1.057c0.49,0.469,0.88,1.062,1.168,1.775c0.287,0.715,0.432,1.542,0.432,2.48v10.399
		C347.677,98.773,347.293,99.157,346.525,99.157z"/>
	<path class="st0" d="M351.421,87.221c0-1.792,0.432-3.12,1.296-3.984s1.957-1.296,3.28-1.296c0.64,0,1.232,0.106,1.775,0.319
		c0.545,0.214,1.008,0.556,1.393,1.024v-5.696c0-0.768,0.384-1.151,1.152-1.151h1.151c0.769,0,1.152,0.384,1.152,1.151v16.257
		c0,0.96-0.144,1.797-0.433,2.512c-0.287,0.715-0.678,1.302-1.168,1.76c-0.49,0.459-1.082,0.806-1.775,1.04
		s-1.436,0.352-2.225,0.352c-0.811,0-1.557-0.117-2.24-0.352c-0.683-0.234-1.27-0.581-1.76-1.04c-0.49-0.458-0.879-1.045-1.168-1.76
		c-0.287-0.715-0.432-1.552-0.432-2.512V87.221z M354.877,93.621c0,1.024,0.208,1.723,0.624,2.096
		c0.416,0.374,0.922,0.561,1.52,0.561s1.104-0.187,1.521-0.561c0.416-0.373,0.624-1.071,0.624-2.096v-5.792
		c0-1.023-0.208-1.723-0.624-2.096s-0.923-0.561-1.521-0.561s-1.104,0.188-1.52,0.561s-0.624,1.072-0.624,2.096V93.621z"/>
	<path class="st0" d="M380.413,86.645c0-0.47-0.16-0.832-0.479-1.088c-0.32-0.257-0.758-0.385-1.312-0.385s-0.992,0.128-1.312,0.385
		c-0.32,0.256-0.479,0.661-0.479,1.216v0.063c0,0.556,0.181,0.992,0.544,1.312c0.362,0.319,0.811,0.603,1.344,0.848
		c0.533,0.246,1.12,0.491,1.76,0.736c0.641,0.245,1.227,0.565,1.76,0.96s0.981,0.907,1.345,1.536
		c0.362,0.629,0.544,1.456,0.544,2.479c0,0.769-0.139,1.451-0.416,2.048c-0.277,0.598-0.656,1.1-1.137,1.504
		c-0.479,0.406-1.055,0.716-1.728,0.929c-0.672,0.213-1.403,0.319-2.192,0.319c-0.811,0-1.547-0.117-2.207-0.352
		c-0.662-0.234-1.232-0.549-1.713-0.944c-0.479-0.395-0.854-0.869-1.119-1.424c-0.268-0.555-0.4-1.151-0.4-1.792v-0.191
		c0-0.769,0.385-1.152,1.152-1.152h1.312c0.661,0,0.992,0.331,0.992,0.992c0,0.555,0.181,0.965,0.544,1.231
		c0.363,0.268,0.843,0.4,1.439,0.4c0.598,0,1.083-0.128,1.457-0.384c0.373-0.256,0.56-0.693,0.56-1.312v-0.063
		c0-0.555-0.182-0.987-0.544-1.296c-0.363-0.31-0.811-0.581-1.344-0.816c-0.533-0.234-1.12-0.469-1.76-0.704
		c-0.641-0.234-1.228-0.549-1.761-0.944c-0.533-0.395-0.981-0.9-1.344-1.52c-0.363-0.618-0.544-1.44-0.544-2.464
		c0-1.536,0.484-2.726,1.456-3.568c0.97-0.843,2.234-1.264,3.792-1.264c0.789,0,1.504,0.117,2.145,0.352
		c0.639,0.235,1.188,0.561,1.647,0.977c0.458,0.416,0.815,0.896,1.071,1.439s0.385,1.137,0.385,1.776
		c0,0.768-0.385,1.152-1.152,1.152h-1.312C380.744,87.638,380.413,87.306,380.413,86.645z"/>
	<path class="st0" d="M394.876,94.485c0-0.661,0.33-0.992,0.992-0.992h1.312c0.768,0,1.151,0.384,1.151,1.152
		c0,1.451-0.496,2.624-1.488,3.52c-0.991,0.896-2.31,1.344-3.952,1.344c-0.811,0-1.557-0.117-2.24-0.352
		c-0.683-0.234-1.27-0.587-1.76-1.056c-0.49-0.47-0.879-1.062-1.168-1.776c-0.287-0.715-0.432-1.541-0.432-2.479v-6.24
		c0-0.938,0.145-1.766,0.432-2.48c0.289-0.714,0.678-1.307,1.168-1.775c0.49-0.47,1.077-0.821,1.76-1.057
		c0.684-0.234,1.43-0.352,2.24-0.352c0.789,0,1.531,0.117,2.225,0.352c0.693,0.235,1.285,0.587,1.775,1.057
		c0.49,0.469,0.881,1.062,1.168,1.775c0.289,0.715,0.433,1.542,0.433,2.48v2.72c0,0.768-0.384,1.152-1.152,1.152h-6.592v2.144
		c0,1.024,0.208,1.723,0.624,2.096c0.416,0.374,0.922,0.561,1.52,0.561c0.619,0,1.104-0.16,1.457-0.48
		C394.701,95.477,394.876,95.04,394.876,94.485z M390.748,88.885h4.288v-1.056c0-1.023-0.208-1.723-0.624-2.096
		s-0.923-0.561-1.521-0.561s-1.104,0.188-1.52,0.561s-0.624,1.072-0.624,2.096V88.885z"/>
	<path class="st0" d="M409.499,94.485c0-0.661,0.331-0.992,0.992-0.992h1.312c0.768,0,1.152,0.384,1.152,1.152
		c0,1.451-0.496,2.624-1.488,3.52c-0.992,0.896-2.31,1.344-3.952,1.344c-0.812,0-1.558-0.117-2.24-0.352s-1.27-0.587-1.76-1.056
		c-0.491-0.47-0.88-1.062-1.168-1.776s-0.433-1.541-0.433-2.479v-6.24c0-0.938,0.145-1.766,0.433-2.48
		c0.288-0.714,0.677-1.307,1.168-1.775c0.49-0.47,1.077-0.821,1.76-1.057c0.683-0.234,1.429-0.352,2.24-0.352
		c0.789,0,1.53,0.117,2.224,0.352c0.693,0.235,1.285,0.587,1.776,1.057c0.49,0.469,0.88,1.062,1.168,1.775
		c0.288,0.715,0.433,1.542,0.433,2.48v2.72c0,0.768-0.385,1.152-1.152,1.152h-6.592v2.144c0,1.024,0.207,1.723,0.623,2.096
		c0.416,0.374,0.923,0.561,1.521,0.561c0.618,0,1.104-0.16,1.456-0.48C409.324,95.477,409.499,95.04,409.499,94.485z
		 M405.372,88.885h4.287v-1.056c0-1.023-0.207-1.723-0.623-2.096s-0.924-0.561-1.521-0.561c-0.598,0-1.104,0.188-1.521,0.561
		s-0.623,1.072-0.623,2.096V88.885z"/>
	<path class="st0" d="M316.91,128.005c0,0.769-0.384,1.152-1.151,1.152h-1.152c-0.769,0-1.151-0.384-1.151-1.152v-20.416
		c0-0.768,0.383-1.151,1.151-1.151h1.152c0.768,0,1.151,0.384,1.151,1.151v5.696c0.747-0.896,1.803-1.344,3.168-1.344
		c0.662,0,1.27,0.106,1.824,0.319c0.555,0.214,1.035,0.539,1.44,0.977s0.725,0.987,0.96,1.647c0.234,0.662,0.352,1.44,0.352,2.337
		v10.783c0,0.769-0.384,1.152-1.152,1.152h-1.151c-0.769,0-1.151-0.384-1.151-1.152v-10.176c0-1.023-0.209-1.723-0.625-2.096
		s-0.923-0.561-1.52-0.561c-0.598,0-1.104,0.188-1.52,0.561s-0.625,1.072-0.625,2.096V128.005z"/>
	<path class="st0" d="M339.598,123.846c0,0.96-0.144,1.797-0.433,2.512c-0.287,0.715-0.678,1.302-1.168,1.76
		c-0.49,0.459-1.082,0.806-1.775,1.04s-1.436,0.352-2.225,0.352c-0.811,0-1.557-0.117-2.24-0.352c-0.683-0.234-1.27-0.581-1.76-1.04
		c-0.49-0.458-0.879-1.045-1.168-1.76c-0.287-0.715-0.432-1.552-0.432-2.512v-6.24c0-0.938,0.145-1.766,0.432-2.48
		c0.289-0.714,0.678-1.307,1.168-1.775c0.49-0.47,1.077-0.821,1.76-1.057c0.684-0.234,1.43-0.352,2.24-0.352
		c0.789,0,1.531,0.117,2.225,0.352c0.693,0.235,1.285,0.587,1.775,1.057c0.49,0.469,0.881,1.062,1.168,1.775
		c0.289,0.715,0.433,1.542,0.433,2.48V123.846z M336.142,117.829c0-1.023-0.208-1.723-0.624-2.096s-0.923-0.561-1.521-0.561
		s-1.104,0.188-1.52,0.561s-0.624,1.072-0.624,2.096v5.792c0,1.024,0.208,1.723,0.624,2.096c0.416,0.374,0.922,0.561,1.52,0.561
		s1.104-0.187,1.521-0.561c0.416-0.373,0.624-1.071,0.624-2.096V117.829z"/>
	<path class="st0" d="M343.341,113.445c0-0.769,0.385-1.152,1.152-1.152h1.152c0.768,0,1.152,0.384,1.152,1.152v10.336
		c0,0.96,0.196,1.616,0.592,1.968c0.395,0.353,0.869,0.528,1.424,0.528s1.029-0.176,1.424-0.528
		c0.395-0.352,0.592-1.008,0.592-1.968v-10.336c0-0.769,0.385-1.152,1.152-1.152h1.152c0.768,0,1.151,0.384,1.151,1.152v10.336
		c0,0.96,0.197,1.616,0.592,1.968c0.395,0.353,0.869,0.528,1.425,0.528c0.554,0,1.028-0.176,1.424-0.528
		c0.395-0.352,0.592-1.008,0.592-1.968v-10.336c0-0.769,0.384-1.152,1.152-1.152h1.151c0.769,0,1.152,0.384,1.152,1.152v10.976
		c0,0.854-0.128,1.596-0.384,2.225s-0.608,1.157-1.057,1.584c-0.447,0.427-0.976,0.747-1.584,0.96c-0.607,0.213-1.275,0.319-2,0.319
		c-0.96,0-1.797-0.202-2.512-0.607s-1.275-1.003-1.68-1.792c-0.406,0.789-0.966,1.387-1.681,1.792s-1.552,0.607-2.512,0.607
		c-0.726,0-1.392-0.106-2-0.319s-1.136-0.533-1.584-0.96s-0.8-0.955-1.056-1.584s-0.385-1.371-0.385-2.225V113.445z"/>
	<path class="st0" d="M376.078,123.621c0,1.024,0.207,1.723,0.623,2.096c0.416,0.374,0.923,0.561,1.521,0.561
		c0.618,0,1.104-0.192,1.456-0.576s0.527-0.896,0.527-1.536c0-0.661,0.331-0.992,0.992-0.992h1.312c0.768,0,1.152,0.385,1.152,1.152
		c0,0.789-0.135,1.504-0.4,2.144c-0.268,0.641-0.641,1.185-1.12,1.633c-0.479,0.447-1.056,0.795-1.728,1.04
		c-0.672,0.244-1.403,0.367-2.192,0.367c-0.812,0-1.558-0.117-2.24-0.352s-1.27-0.587-1.76-1.056
		c-0.491-0.47-0.88-1.062-1.168-1.776s-0.433-1.541-0.433-2.479v-6.24c0-0.938,0.145-1.766,0.433-2.48
		c0.288-0.714,0.677-1.307,1.168-1.775c0.49-0.47,1.077-0.821,1.76-1.057c0.683-0.234,1.429-0.352,2.24-0.352
		c0.789,0,1.521,0.123,2.192,0.368s1.248,0.592,1.728,1.04c0.479,0.447,0.853,0.991,1.12,1.632c0.266,0.64,0.4,1.354,0.4,2.144
		c0,0.769-0.385,1.152-1.152,1.152h-1.312c-0.661,0-0.992-0.331-0.992-0.992c0-0.64-0.176-1.152-0.527-1.536
		s-0.838-0.576-1.456-0.576c-0.598,0-1.104,0.188-1.521,0.561s-0.623,1.072-0.623,2.096V123.621z"/>
	<path class="st0" d="M398.029,123.846c0,0.96-0.145,1.797-0.432,2.512c-0.289,0.715-0.678,1.302-1.168,1.76
		c-0.492,0.459-1.084,0.806-1.777,1.04s-1.434,0.352-2.223,0.352c-0.812,0-1.559-0.117-2.24-0.352
		c-0.684-0.234-1.27-0.581-1.76-1.04c-0.492-0.458-0.881-1.045-1.168-1.76c-0.289-0.715-0.433-1.552-0.433-2.512v-6.24
		c0-0.938,0.144-1.766,0.433-2.48c0.287-0.714,0.676-1.307,1.168-1.775c0.49-0.47,1.076-0.821,1.76-1.057
		c0.682-0.234,1.429-0.352,2.24-0.352c0.789,0,1.529,0.117,2.223,0.352c0.693,0.235,1.285,0.587,1.777,1.057
		c0.49,0.469,0.879,1.062,1.168,1.775c0.287,0.715,0.432,1.542,0.432,2.48V123.846z M394.573,117.829
		c0-1.023-0.208-1.723-0.624-2.096s-0.924-0.561-1.52-0.561c-0.598,0-1.104,0.188-1.521,0.561s-0.624,1.072-0.624,2.096v5.792
		c0,1.024,0.208,1.723,0.624,2.096c0.416,0.374,0.923,0.561,1.521,0.561c0.596,0,1.104-0.187,1.52-0.561
		c0.416-0.373,0.624-1.071,0.624-2.096V117.829z"/>
	<path class="st0" d="M412.685,123.846c0,0.96-0.145,1.797-0.433,2.512s-0.678,1.302-1.168,1.76
		c-0.491,0.459-1.083,0.806-1.776,1.04s-1.435,0.352-2.224,0.352c-0.812,0-1.558-0.117-2.24-0.352s-1.27-0.581-1.76-1.04
		c-0.491-0.458-0.88-1.045-1.168-1.76s-0.433-1.552-0.433-2.512v-6.24c0-0.938,0.145-1.766,0.433-2.48
		c0.288-0.714,0.677-1.307,1.168-1.775c0.49-0.47,1.077-0.821,1.76-1.057c0.683-0.234,1.429-0.352,2.24-0.352
		c0.789,0,1.53,0.117,2.224,0.352c0.693,0.235,1.285,0.587,1.776,1.057c0.49,0.469,0.88,1.062,1.168,1.775
		c0.288,0.715,0.433,1.542,0.433,2.48V123.846z M409.228,117.829c0-1.023-0.207-1.723-0.623-2.096s-0.924-0.561-1.521-0.561
		c-0.598,0-1.104,0.188-1.521,0.561s-0.623,1.072-0.623,2.096v5.792c0,1.024,0.207,1.723,0.623,2.096
		c0.416,0.374,0.923,0.561,1.521,0.561c0.597,0,1.104-0.187,1.521-0.561c0.416-0.373,0.623-1.071,0.623-2.096V117.829z"/>
	<path class="st0" d="M421.164,126.054c0.171,0,0.314-0.006,0.433-0.017c0.116-0.011,0.272-0.037,0.464-0.08
		c0.385-0.063,0.672,0.011,0.864,0.225c0.192,0.213,0.288,0.512,0.288,0.896v0.928c0,0.385-0.092,0.656-0.272,0.816
		s-0.432,0.271-0.752,0.336c-0.299,0.064-0.581,0.101-0.848,0.112c-0.267,0.01-0.518,0.016-0.753,0.016
		c-0.618,0-1.178-0.075-1.68-0.224c-0.501-0.149-0.934-0.395-1.295-0.736c-0.363-0.341-0.641-0.795-0.832-1.36
		c-0.193-0.564-0.289-1.253-0.289-2.063v-17.312c0-0.768,0.385-1.151,1.152-1.151h1.152c0.768,0,1.152,0.384,1.152,1.151v17.057
		c0,0.555,0.127,0.928,0.383,1.12C420.587,125.957,420.865,126.054,421.164,126.054z"/>
	<path class="st0" d="M344.861,136.757h1.248c0.811,0,1.217,0.406,1.217,1.217v19.968c0,0.811-0.406,1.216-1.217,1.216h-1.248
		c-0.811,0-1.215-0.405-1.215-1.216v-19.968C343.646,137.163,344.05,136.757,344.861,136.757z"/>
	<path class="st0" d="M369.565,153.846c0,0.938-0.144,1.765-0.433,2.479c-0.287,0.715-0.678,1.307-1.168,1.776
		c-0.49,0.469-1.082,0.821-1.775,1.056s-1.436,0.352-2.225,0.352c-0.811,0-1.557-0.117-2.24-0.352
		c-0.682-0.234-1.274-0.565-1.775-0.992c-0.502-0.427-0.891-0.954-1.168-1.584c-0.277-0.629-0.416-1.349-0.416-2.16v-0.063
		c0-1.601,0.48-2.849,1.439-3.744c0.961-0.896,2.348-1.344,4.16-1.344h2.145v-1.44c0-1.023-0.208-1.723-0.624-2.096
		s-0.923-0.561-1.521-0.561c-0.619,0-1.077,0.166-1.375,0.496c-0.299,0.331-0.449,0.731-0.449,1.2c0,0.661-0.33,0.992-0.991,0.992
		h-1.312c-0.769,0-1.152-0.384-1.152-1.152c0-0.683,0.122-1.312,0.367-1.888c0.246-0.576,0.598-1.077,1.057-1.504
		s1.013-0.763,1.664-1.008c0.65-0.245,1.381-0.368,2.191-0.368c0.789,0,1.531,0.117,2.225,0.352
		c0.693,0.235,1.285,0.587,1.775,1.057c0.49,0.469,0.881,1.062,1.168,1.775c0.289,0.715,0.433,1.542,0.433,2.48V153.846z
		 M363.964,156.277c0.598,0,1.104-0.187,1.521-0.561c0.416-0.373,0.624-1.071,0.624-2.096v-1.76h-2.145
		c-0.598,0-1.104,0.165-1.52,0.496s-0.624,0.901-0.624,1.712s0.208,1.382,0.624,1.712
		C362.861,156.112,363.367,156.277,363.964,156.277z"/>
	<path class="st0" d="M391.741,158.005c0,0.769-0.384,1.152-1.152,1.152h-1.151c-0.769,0-1.152-0.384-1.152-1.152v-10.336
		c0-0.96-0.197-1.615-0.592-1.968c-0.396-0.352-0.87-0.528-1.424-0.528c-0.556,0-1.03,0.177-1.425,0.528
		c-0.395,0.353-0.592,1.008-0.592,1.968v10.336c0,0.769-0.384,1.152-1.151,1.152h-1.152c-0.768,0-1.152-0.384-1.152-1.152v-10.336
		c0-0.96-0.197-1.615-0.592-1.968c-0.395-0.352-0.869-0.528-1.424-0.528s-1.029,0.177-1.424,0.528
		c-0.396,0.353-0.592,1.008-0.592,1.968v10.336c0,0.769-0.385,1.152-1.152,1.152h-1.152c-0.768,0-1.152-0.384-1.152-1.152v-10.976
		c0-0.854,0.129-1.595,0.385-2.224c0.256-0.63,0.607-1.157,1.056-1.584s0.976-0.747,1.584-0.961c0.608-0.213,1.274-0.319,2-0.319
		c0.96,0,1.797,0.208,2.512,0.624s1.274,1.008,1.681,1.775c0.404-0.768,0.965-1.359,1.68-1.775s1.552-0.624,2.512-0.624
		c0.725,0,1.393,0.106,2,0.319c0.608,0.214,1.137,0.534,1.584,0.961c0.448,0.427,0.801,0.954,1.057,1.584
		c0.256,0.629,0.384,1.37,0.384,2.224V158.005z"/>
</g>
<g>
	<path class="st0" d="M181.131,158.389c-1.231,0-2.387-0.765-2.825-1.991c-0.558-1.561,0.255-3.277,1.815-3.835l18.832-6.733
		c1.563-0.56,3.277,0.255,3.835,1.814c0.558,1.561-0.255,3.277-1.815,3.835l-18.832,6.733
		C181.808,158.333,181.466,158.389,181.131,158.389z M209.457,148.257c-1.238,0-2.415-0.751-2.854-1.972
		c-0.561-1.559,0.202-3.26,1.762-3.821l0.094-0.034c1.557-0.56,3.276,0.25,3.838,1.809c0.561,1.559-0.249,3.277-1.809,3.838
		C210.15,148.199,209.801,148.257,209.457,148.257z M218.89,144.888c-1.231,0-2.387-0.765-2.825-1.991
		c-0.558-1.56,0.255-3.277,1.815-3.834l18.833-6.733c1.56-0.558,3.277,0.255,3.835,1.815s-0.255,3.277-1.815,3.834l-18.833,6.733
		C219.567,144.832,219.225,144.888,218.89,144.888z M247.216,134.757c-1.238,0-2.415-0.751-2.854-1.972
		c-0.561-1.559,0.202-3.26,1.762-3.821l0.094-0.034c1.558-0.56,3.278,0.25,3.838,1.809c0.561,1.559-0.249,3.277-1.809,3.838
		C247.909,134.699,247.56,134.757,247.216,134.757z M256.649,131.388c-1.231,0-2.387-0.765-2.825-1.991
		c-0.558-1.561,0.255-3.277,1.815-3.835l10.25-3.665c1.559-0.559,3.277,0.255,3.835,1.814c0.558,1.561-0.255,3.277-1.815,3.835
		l-10.25,3.665C257.326,131.331,256.984,131.388,256.649,131.388z"/>
</g>
</svg>