<!-- Generator: Adobe Illustrator 21.0.0, SVG Export Plug-In  -->
<svg version="1.1"
	 xmlns="http://www.w3.org/2000/svg" xmlns:xlink="http://www.w3.org/1999/xlink" xmlns:a="http://ns.adobe.com/AdobeSVGViewerExtensions/3.0/"
	 x="0px" y="0px" width="454.221px" height="441.223px" viewBox="0 0 454.221 441.223"
	 style="enable-background:new 0 0 454.221 441.223;" xml:space="preserve">
<style type="text/css">
	.st0{fill:#FF0000;}
</style>
<defs>
</defs>
<g>
	<path class="st0" d="M354.614,193.88c-0.03,0-0.061,0-0.09-0.001l-0.1-0.003c-1.656-0.049-2.96-1.431-2.911-3.087
		s1.427-2.983,3.087-2.911c1.656,0.049,3.01,1.433,2.961,3.089C357.513,192.593,356.228,193.88,354.614,193.88z M364.598,193.634
		c-1.553,0-2.866-1.195-2.988-2.769c-0.128-1.652,1.108-3.095,2.76-3.223c6.442-0.497,12.832-1.684,18.992-3.524
		c1.592-0.477,3.259,0.428,3.733,2.015c0.475,1.588-0.428,3.259-2.015,3.733c-6.569,1.964-13.382,3.229-20.248,3.759
		C364.753,193.631,364.675,193.634,364.598,193.634z M344.557,193.065c-0.134,0-0.27-0.009-0.405-0.027
		c-6.82-0.922-13.551-2.578-20.005-4.924c-1.558-0.565-2.361-2.287-1.795-3.844c0.565-1.558,2.291-2.361,3.844-1.795
		c6.052,2.199,12.363,3.752,18.759,4.617c1.643,0.222,2.794,1.732,2.571,3.374C347.323,191.972,346.035,193.065,344.557,193.065z
		 M393.629,186.622c-1.156,0-2.258-0.672-2.75-1.799c-0.664-1.518,0.027-3.286,1.546-3.95c0.014-0.007,0.12-0.052,0.134-0.058
		c1.527-0.641,3.287,0.078,3.927,1.606c0.641,1.528-0.078,3.286-1.606,3.927l-1.16-2.767l1.11,2.787
		C394.439,186.541,394.031,186.622,393.629,186.622z M315.955,184.38c-0.432,0-0.871-0.096-1.289-0.298l-0.125-0.061
		c-1.481-0.741-2.082-2.543-1.342-4.025c0.743-1.481,2.547-2.079,4.025-1.342c1.491,0.722,2.143,2.529,1.421,4.021
		C318.126,183.749,317.066,184.38,315.955,184.38z M402.708,182.219c-1.056,0-2.08-0.559-2.628-1.548
		c-0.802-1.449-0.277-3.275,1.172-4.078c5.633-3.118,10.953-6.852,15.813-11.097c1.25-1.087,3.143-0.96,4.233,0.286
		c1.09,1.248,0.962,3.144-0.286,4.233c-5.181,4.524-10.851,8.503-16.854,11.827C403.698,182.098,403.199,182.219,402.708,182.219z
		 M307.158,179.458c-0.548,0-1.102-0.149-1.599-0.464c-5.806-3.666-11.239-7.965-16.151-12.778
		c-1.184-1.159-1.203-3.059-0.043-4.242c1.159-1.184,3.06-1.202,4.242-0.043c4.609,4.517,9.708,8.551,15.155,11.991
		c1.401,0.885,1.819,2.737,0.935,4.138C309.126,178.964,308.153,179.458,307.158,179.458z M426.207,163.793
		c-0.748,0-1.496-0.277-2.077-0.836c-1.195-1.147-1.234-3.047-0.087-4.241c1.121-1.22,3.033-1.313,4.251-0.19
		c1.22,1.122,1.311,3.006,0.189,4.226l-0.112,0.119C427.783,163.485,426.995,163.793,426.207,163.793z M284.765,159.718
		c-0.856,0-1.709-0.364-2.305-1.068c-0.026-0.031-0.116-0.141-0.142-0.173c-1.018-1.308-0.781-3.192,0.526-4.21
		c1.309-1.017,3.191-0.782,4.21,0.526c1.07,1.265,0.905,3.148-0.359,4.219C286.134,159.487,285.449,159.718,284.765,159.718z
		 M432.659,156.032c-0.624,0-1.252-0.193-1.79-0.595c-1.329-0.989-1.604-2.869-0.613-4.197c3.857-5.178,7.166-10.774,9.833-16.634
		c0.687-1.508,2.466-2.173,3.974-1.487c1.508,0.687,2.174,2.466,1.487,3.974c-2.844,6.247-6.371,12.213-10.483,17.731
		C434.478,155.615,433.574,156.032,432.659,156.032z M278.757,151.595c-0.976,0-1.931-0.474-2.508-1.349
		c-3.788-5.747-6.964-11.906-9.441-18.307c-0.598-1.546,0.17-3.283,1.715-3.881c1.551-0.599,3.283,0.171,3.881,1.715
		c2.323,6.003,5.303,11.78,8.855,17.17c0.912,1.384,0.529,3.244-0.854,4.156C279.897,151.435,279.324,151.595,278.757,151.595z
		 M446.467,129.538c-0.298,0-0.601-0.044-0.899-0.139c-1.577-0.497-2.456-2.171-1.963-3.749l0.049-0.149
		c0.524-1.572,2.225-2.423,3.794-1.897c1.572,0.523,2.422,2.223,1.897,3.794l-2.846-0.948l2.832,0.992
		C448.925,128.719,447.741,129.538,446.467,129.538z M266.502,124.359c-1.319,0-2.528-0.877-2.893-2.212l-0.026-0.097
		c-0.436-1.599,0.507-3.247,2.105-3.684c1.592-0.437,3.247,0.505,3.684,2.105l0.026,0.097c0.436,1.599-0.507,3.247-2.105,3.684
		C267.03,124.324,266.764,124.359,266.502,124.359z M449.125,119.805c-0.209,0-0.421-0.022-0.633-0.068
		c-1.62-0.348-2.651-1.943-2.303-3.562c1.348-6.273,2.031-12.738,2.031-19.215c0-1.657,1.343-3,3-3s3,1.343,3,3
		c0,6.899-0.729,13.788-2.166,20.475C451.753,118.842,450.509,119.805,449.125,119.805z M264.417,114.484
		c-1.454,0-2.73-1.059-2.961-2.54c-0.763-4.919-1.15-9.961-1.151-14.983c0-1.854,0.053-3.73,0.158-5.58
		c0.094-1.655,1.53-2.913,3.165-2.825c1.654,0.094,2.919,1.511,2.825,3.165c-0.099,1.736-0.148,3.5-0.148,5.239
		c0.001,4.716,0.364,9.448,1.081,14.064c0.254,1.638-0.867,3.171-2.505,3.425C264.725,114.472,264.571,114.484,264.417,114.484z
		 M450.777,90.796c-1.526,0-2.832-1.16-2.982-2.711c-0.623-6.431-1.935-12.796-3.896-18.919c-0.506-1.578,0.363-3.268,1.94-3.772
		c1.575-0.508,3.267,0.362,3.772,1.94c2.093,6.529,3.491,13.316,4.156,20.173c0.159,1.648-1.048,3.115-2.697,3.275
		C450.972,90.791,450.874,90.796,450.777,90.796z M264.555,84.62c-0.174,0-0.349-0.016-0.525-0.047
		c-1.632-0.288-2.721-1.844-2.433-3.476l2.954,0.521l-2.948-0.556c0.268-1.628,1.803-2.746,3.432-2.491
		c1.629,0.258,2.746,1.768,2.499,3.397l-0.028,0.171C267.248,83.596,265.983,84.62,264.555,84.62z M266.724,74.764
		c-0.266,0-0.536-0.036-0.805-0.11c-1.597-0.443-2.531-2.097-2.088-3.693c1.839-6.619,4.397-13.062,7.605-19.148
		c0.773-1.465,2.587-2.024,4.054-1.255c1.465,0.773,2.027,2.588,1.255,4.054c-3.01,5.707-5.409,11.749-7.133,17.955
		C269.243,73.894,268.037,74.764,266.724,74.764z M443.199,61.912c-1.172,0-2.286-0.691-2.768-1.841
		c-0.635-1.514,0.045-3.301,1.549-3.956c1.504-0.656,3.235-0.026,3.912,1.471c0.011,0.024,0.062,0.14,0.072,0.165
		c0.641,1.528-0.078,3.286-1.606,3.927C443.979,61.837,443.585,61.912,443.199,61.912z M438.62,52.922
		c-1.035,0-2.042-0.537-2.599-1.497c-3.229-5.57-7.064-10.817-11.403-15.596c-1.114-1.227-1.022-3.124,0.204-4.237
		c1.227-1.112,3.124-1.022,4.237,0.204c4.624,5.091,8.713,10.684,12.153,16.621c0.831,1.434,0.342,3.269-1.092,4.1
		C439.648,52.791,439.131,52.922,438.62,52.922z M279.211,47.63c-0.58,0-1.166-0.167-1.682-0.518
		c-1.371-0.931-1.729-2.796-0.798-4.167l2.482,1.685l-2.454-1.728c0.908-1.386,2.766-1.772,4.154-0.865
		c1.386,0.908,1.772,2.768,0.865,4.154c-0.009,0.013-0.074,0.109-0.083,0.123C281.116,47.169,280.172,47.63,279.211,47.63z
		 M285.282,39.565c-0.681,0-1.365-0.23-1.928-0.703c-1.269-1.065-1.434-2.958-0.367-4.227c4.42-5.263,9.411-10.067,14.834-14.28
		c1.31-1.016,3.192-0.779,4.21,0.528c1.017,1.309,0.779,3.193-0.528,4.21c-5.09,3.953-9.773,8.462-13.922,13.401
		C286.988,39.2,286.138,39.565,285.282,39.565z M419.739,29.78c-0.704,0-1.411-0.246-1.98-0.748l-0.081-0.071
		c-1.241-1.098-1.357-2.994-0.26-4.234c1.099-1.242,2.995-1.356,4.234-0.26l0.069,0.062c1.244,1.095,1.365,2.99,0.271,4.233
		C421.399,29.436,420.571,29.78,419.739,29.78z M411.851,23.479c-0.604,0-1.213-0.182-1.742-0.56
		c-5.253-3.757-10.912-6.955-16.821-9.507c-1.521-0.656-2.222-2.422-1.564-3.943c0.656-1.521,2.42-2.225,3.943-1.564
		c6.3,2.721,12.333,6.13,17.933,10.134c1.348,0.964,1.659,2.838,0.695,4.186C413.708,23.042,412.786,23.479,411.851,23.479z
		 M307.916,19.975c-1.008,0-1.994-0.491-2.559-1.399c-0.873-1.407-0.483-3.23,0.925-4.104l0.085-0.053
		c1.405-0.875,3.257-0.44,4.131,0.967s0.441,3.257-0.967,4.131C309.032,19.826,308.471,19.975,307.916,19.975z M316.718,15.178
		c-1.118,0-2.192-0.629-2.707-1.705c-0.717-1.494-0.085-3.285,1.409-4.001c6.201-2.972,12.735-5.28,19.422-6.863
		c1.606-0.389,3.229,0.614,3.61,2.228c0.382,1.612-0.615,3.229-2.228,3.61c-6.27,1.484-12.397,3.65-18.213,6.436
		C317.594,15.083,317.153,15.178,316.718,15.178z M385.102,10.195c-0.297,0-0.598-0.045-0.896-0.138
		c-1.586-0.48-2.518-2.166-2.037-3.752c0.481-1.586,2.121-2.489,3.706-2.012l0.12,0.037c1.582,0.494,2.463,2.177,1.969,3.758
		C387.563,9.372,386.379,10.195,385.102,10.195z M375.313,7.734c-0.189,0-0.382-0.019-0.575-0.057
		c-6.298-1.224-12.815-1.779-19.252-1.659c-1.63,0.076-3.025-1.285-3.057-2.941c-0.032-1.656,1.285-3.025,2.941-3.057
		c6.861-0.14,13.8,0.464,20.512,1.768c1.627,0.316,2.688,1.892,2.372,3.518C377.976,6.738,376.72,7.733,375.313,7.734z
		 M345.361,6.747c-1.5,0-2.796-1.123-2.976-2.649c-0.193-1.646,0.983-3.137,2.629-3.33l0.351,2.979l-0.322-2.982
		c1.644-0.205,3.149,0.935,3.373,2.564c0.224,1.631-0.887,3.134-2.515,3.373l-0.186,0.024C345.596,6.74,345.478,6.747,345.361,6.747
		z"/>
</g>
<g>
	<path class="st0" d="M317.873,67.67c0.811,0,1.216,0.406,1.216,1.216v0.097c0,0.96-0.165,1.84-0.496,2.64s-0.795,1.488-1.392,2.064
		c-0.598,0.575-1.312,1.023-2.145,1.344s-1.738,0.479-2.72,0.479c-1.003,0-1.925-0.144-2.769-0.432
		c-0.842-0.288-1.572-0.725-2.191-1.312s-1.104-1.317-1.456-2.192s-0.528-1.898-0.528-3.072v-9.088c0-1.173,0.176-2.197,0.528-3.072
		c0.353-0.874,0.837-1.604,1.456-2.191s1.35-1.024,2.191-1.312c0.844-0.288,1.766-0.432,2.769-0.432c0.981,0,1.888,0.16,2.72,0.479
		c0.832,0.32,1.547,0.769,2.145,1.345c0.597,0.576,1.061,1.264,1.392,2.063s0.496,1.681,0.496,2.641v0.096
		c0,0.811-0.405,1.216-1.216,1.216h-1.376c-0.726,0-1.089-0.362-1.089-1.088c0-0.96-0.266-1.744-0.799-2.352
		c-0.534-0.608-1.28-0.912-2.24-0.912c-0.448,0-0.869,0.063-1.264,0.191c-0.396,0.128-0.748,0.342-1.057,0.641
		c-0.31,0.299-0.549,0.698-0.72,1.199c-0.171,0.502-0.257,1.126-0.257,1.872v8.32c0,0.747,0.086,1.371,0.257,1.872
		c0.171,0.502,0.41,0.901,0.72,1.2c0.309,0.299,0.661,0.512,1.057,0.64c0.395,0.128,0.815,0.192,1.264,0.192
		c0.96,0,1.706-0.305,2.24-0.912c0.533-0.608,0.799-1.393,0.799-2.353c0-0.725,0.363-1.088,1.089-1.088H317.873z"/>
	<path class="st0" d="M327.441,72.055c0.171,0,0.314-0.006,0.433-0.017c0.116-0.011,0.271-0.037,0.463-0.08
		c0.385-0.063,0.672,0.011,0.865,0.225c0.191,0.213,0.287,0.512,0.287,0.896v0.928c0,0.385-0.091,0.656-0.271,0.816
		c-0.182,0.16-0.432,0.271-0.752,0.336c-0.299,0.064-0.582,0.101-0.848,0.112c-0.268,0.01-0.518,0.016-0.753,0.016
		c-0.618,0-1.179-0.075-1.68-0.224c-0.501-0.149-0.934-0.395-1.296-0.736c-0.363-0.341-0.641-0.795-0.832-1.36
		c-0.192-0.564-0.288-1.253-0.288-2.063V53.59c0-0.768,0.384-1.151,1.151-1.151h1.152c0.768,0,1.152,0.384,1.152,1.151v17.057
		c0,0.555,0.128,0.928,0.384,1.12C326.865,71.958,327.142,72.055,327.441,72.055z"/>
	<path class="st0" d="M332.145,53.91c0-0.768,0.383-1.152,1.151-1.152h1.152c0.768,0,1.151,0.385,1.151,1.152v1.088
		c0,0.769-0.384,1.152-1.151,1.152h-1.152c-0.769,0-1.151-0.384-1.151-1.152V53.91z M332.145,59.446
		c0-0.769,0.383-1.152,1.151-1.152h1.152c0.768,0,1.151,0.384,1.151,1.152v14.56c0,0.769-0.384,1.152-1.151,1.152h-1.152
		c-0.769,0-1.151-0.384-1.151-1.152V59.446z"/>
	<path class="st0" d="M342.992,69.622c0,1.024,0.207,1.723,0.623,2.096c0.416,0.374,0.923,0.561,1.521,0.561
		c0.618,0,1.104-0.192,1.456-0.576s0.527-0.896,0.527-1.536c0-0.661,0.331-0.992,0.992-0.992h1.312c0.768,0,1.152,0.385,1.152,1.152
		c0,0.789-0.135,1.504-0.4,2.144c-0.268,0.641-0.641,1.185-1.12,1.633c-0.479,0.447-1.056,0.795-1.728,1.04
		c-0.672,0.244-1.403,0.367-2.192,0.367c-0.812,0-1.558-0.117-2.24-0.352s-1.27-0.587-1.76-1.056
		c-0.491-0.47-0.88-1.062-1.168-1.776s-0.433-1.541-0.433-2.479v-6.24c0-0.938,0.145-1.766,0.433-2.48
		c0.288-0.714,0.677-1.307,1.168-1.775c0.49-0.47,1.077-0.821,1.76-1.057c0.683-0.234,1.429-0.352,2.24-0.352
		c0.789,0,1.521,0.123,2.192,0.368s1.248,0.592,1.728,1.04c0.479,0.447,0.853,0.991,1.12,1.632c0.266,0.64,0.4,1.354,0.4,2.144
		c0,0.769-0.385,1.152-1.152,1.152h-1.312c-0.661,0-0.992-0.331-0.992-0.992c0-0.64-0.176-1.152-0.527-1.536
		s-0.838-0.576-1.456-0.576c-0.598,0-1.104,0.188-1.521,0.561s-0.623,1.072-0.623,2.096V69.622z"/>
	<path class="st0" d="M359.055,67.99l-1.375,1.792v4.224c0,0.769-0.385,1.152-1.152,1.152h-1.152c-0.768,0-1.152-0.384-1.152-1.152
		V53.559c0-0.769,0.385-1.152,1.152-1.152h1.152c0.768,0,1.152,0.384,1.152,1.152v11.647l4.096-6.048
		c0.191-0.299,0.4-0.517,0.623-0.656c0.225-0.139,0.55-0.208,0.977-0.208h1.633c0.404,0,0.655,0.149,0.752,0.448
		c0.096,0.299,0.036,0.576-0.177,0.832l-4.319,5.536l4.479,8.8c0.171,0.299,0.192,0.582,0.063,0.848
		c-0.127,0.268-0.383,0.4-0.768,0.4h-1.473c-0.426,0-0.74-0.069-0.943-0.208s-0.379-0.357-0.527-0.656L359.055,67.99z"/>
	<path class="st0" d="M394.448,74.006c0,0.769-0.385,1.152-1.152,1.152h-1.152c-0.768,0-1.152-0.384-1.152-1.152V63.67
		c0-0.96-0.197-1.615-0.592-1.968c-0.395-0.352-0.869-0.528-1.424-0.528s-1.029,0.177-1.424,0.528
		c-0.395,0.353-0.592,1.008-0.592,1.968v10.336c0,0.769-0.385,1.152-1.152,1.152h-1.152c-0.768,0-1.152-0.384-1.152-1.152V63.67
		c0-0.96-0.197-1.615-0.592-1.968c-0.395-0.352-0.869-0.528-1.424-0.528s-1.029,0.177-1.424,0.528
		c-0.395,0.353-0.592,1.008-0.592,1.968v10.336c0,0.769-0.385,1.152-1.152,1.152h-1.152c-0.768,0-1.151-0.384-1.151-1.152V63.03
		c0-0.854,0.128-1.595,0.384-2.224c0.256-0.63,0.607-1.157,1.057-1.584c0.447-0.427,0.976-0.747,1.584-0.961
		c0.607-0.213,1.273-0.319,2-0.319c0.959,0,1.797,0.208,2.512,0.624s1.274,1.008,1.68,1.775c0.405-0.768,0.965-1.359,1.68-1.775
		s1.553-0.624,2.512-0.624c0.726,0,1.393,0.106,2,0.319c0.609,0.214,1.137,0.534,1.584,0.961c0.449,0.427,0.801,0.954,1.057,1.584
		c0.256,0.629,0.385,1.37,0.385,2.224V74.006z"/>
	<path class="st0" d="M405.775,70.487c0-0.661,0.331-0.992,0.992-0.992h1.312c0.768,0,1.152,0.384,1.152,1.152
		c0,1.451-0.496,2.624-1.488,3.52c-0.992,0.896-2.309,1.344-3.951,1.344c-0.812,0-1.559-0.117-2.24-0.352
		c-0.684-0.234-1.27-0.587-1.76-1.056c-0.492-0.47-0.881-1.062-1.168-1.776c-0.289-0.715-0.433-1.541-0.433-2.479v-6.24
		c0-0.938,0.144-1.766,0.433-2.48c0.287-0.714,0.676-1.307,1.168-1.775c0.49-0.47,1.076-0.821,1.76-1.057
		c0.682-0.234,1.429-0.352,2.24-0.352c0.789,0,1.529,0.117,2.223,0.352c0.693,0.235,1.285,0.587,1.777,1.057
		c0.49,0.469,0.879,1.062,1.168,1.775c0.287,0.715,0.432,1.542,0.432,2.48v2.72c0,0.768-0.385,1.152-1.152,1.152h-6.592v2.144
		c0,1.024,0.208,1.723,0.624,2.096c0.416,0.374,0.923,0.561,1.521,0.561c0.617,0,1.104-0.16,1.455-0.48
		C405.599,71.479,405.775,71.041,405.775,70.487z M401.647,64.886h4.288V63.83c0-1.023-0.208-1.723-0.624-2.096
		s-0.924-0.561-1.52-0.561c-0.598,0-1.104,0.188-1.521,0.561s-0.624,1.072-0.624,2.096V64.886z"/>
	<path class="st0" d="M300.194,99.847c0,0.938-0.144,1.765-0.432,2.479s-0.678,1.307-1.168,1.776
		c-0.491,0.469-1.083,0.821-1.775,1.056c-0.694,0.234-1.436,0.352-2.225,0.352c-0.811,0-1.558-0.117-2.24-0.352
		s-1.275-0.565-1.775-0.992c-0.502-0.427-0.892-0.954-1.168-1.584c-0.277-0.629-0.416-1.349-0.416-2.16v-0.063
		c0-1.601,0.479-2.849,1.439-3.744c0.96-0.896,2.347-1.344,4.16-1.344h2.145v-1.44c0-1.023-0.209-1.723-0.625-2.096
		s-0.922-0.561-1.52-0.561c-0.619,0-1.078,0.166-1.376,0.496c-0.299,0.331-0.448,0.731-0.448,1.2c0,0.661-0.331,0.992-0.992,0.992
		h-1.312c-0.769,0-1.152-0.384-1.152-1.152c0-0.683,0.122-1.312,0.368-1.888c0.245-0.576,0.598-1.077,1.057-1.504
		c0.458-0.427,1.012-0.763,1.664-1.008c0.65-0.245,1.381-0.368,2.191-0.368c0.789,0,1.53,0.117,2.225,0.352
		c0.692,0.235,1.284,0.587,1.775,1.057c0.49,0.469,0.88,1.062,1.168,1.775c0.288,0.715,0.432,1.542,0.432,2.48V99.847z
		 M294.594,102.279c0.598,0,1.104-0.187,1.52-0.561c0.416-0.373,0.625-1.071,0.625-2.096v-1.76h-2.145
		c-0.598,0-1.104,0.165-1.52,0.496s-0.625,0.901-0.625,1.712s0.209,1.382,0.625,1.712
		C293.491,102.113,293.996,102.279,294.594,102.279z"/>
	<path class="st0" d="M313.986,105.158h-1.151c-0.769,0-1.152-0.384-1.152-1.152V93.83c0-1.023-0.209-1.723-0.624-2.096
		c-0.416-0.373-0.923-0.561-1.521-0.561s-1.104,0.188-1.52,0.561s-0.624,1.072-0.624,2.096v10.176c0,0.769-0.384,1.152-1.152,1.152
		h-1.151c-0.769,0-1.152-0.384-1.152-1.152V93.607c0-0.938,0.145-1.766,0.432-2.48c0.288-0.714,0.678-1.307,1.168-1.775
		c0.49-0.47,1.077-0.821,1.76-1.057c0.684-0.234,1.43-0.352,2.24-0.352c0.789,0,1.531,0.117,2.225,0.352
		c0.693,0.235,1.285,0.587,1.775,1.057c0.49,0.469,0.881,1.062,1.168,1.775c0.288,0.715,0.432,1.542,0.432,2.48v10.399
		C315.137,104.775,314.754,105.158,313.986,105.158z"/>
	<path class="st0" d="M318.881,93.223c0-1.792,0.433-3.12,1.297-3.984c0.863-0.864,1.957-1.296,3.279-1.296
		c0.641,0,1.232,0.106,1.776,0.319c0.544,0.214,1.008,0.556,1.392,1.024V83.59c0-0.768,0.385-1.151,1.152-1.151h1.152
		c0.768,0,1.152,0.384,1.152,1.151v16.257c0,0.96-0.145,1.797-0.433,2.512s-0.678,1.302-1.168,1.76
		c-0.491,0.459-1.083,0.806-1.776,1.04s-1.435,0.352-2.224,0.352c-0.812,0-1.558-0.117-2.24-0.352s-1.27-0.581-1.76-1.04
		c-0.491-0.458-0.88-1.045-1.168-1.76s-0.433-1.552-0.433-2.512V93.223z M322.338,99.622c0,1.024,0.207,1.723,0.623,2.096
		c0.416,0.374,0.923,0.561,1.521,0.561c0.597,0,1.104-0.187,1.521-0.561c0.416-0.373,0.623-1.071,0.623-2.096V93.83
		c0-1.023-0.207-1.723-0.623-2.096s-0.924-0.561-1.521-0.561c-0.598,0-1.104,0.188-1.521,0.561s-0.623,1.072-0.623,2.096V99.622z"/>
	<path class="st0" d="M347.649,105.158c-0.32,0.064-0.613,0.101-0.88,0.112c-0.267,0.01-0.518,0.016-0.752,0.016
		c-1.536,0-2.71-0.356-3.521-1.072c-0.811-0.714-1.216-1.936-1.216-3.664V85.319c0-0.769,0.384-1.152,1.152-1.152h1.151
		c0.769,0,1.152,0.384,1.152,1.152v2.976h2.752c0.768,0,1.152,0.384,1.152,1.152v0.928c0,0.769-0.385,1.152-1.152,1.152h-2.752
		v8.768c0,0.662,0.128,1.12,0.385,1.376c0.256,0.256,0.714,0.385,1.375,0.385c0.277,0,0.608-0.032,0.992-0.097
		c0.385-0.063,0.672,0.011,0.864,0.225c0.192,0.213,0.288,0.512,0.288,0.896v0.928c0,0.385-0.092,0.656-0.271,0.816
		C348.188,104.983,347.948,105.094,347.649,105.158z"/>
	<path class="st0" d="M358.977,100.487c0-0.661,0.33-0.992,0.992-0.992h1.312c0.768,0,1.151,0.384,1.151,1.152
		c0,1.451-0.496,2.624-1.488,3.52c-0.991,0.896-2.309,1.344-3.951,1.344c-0.811,0-1.558-0.117-2.24-0.352
		c-0.684-0.234-1.27-0.587-1.76-1.056c-0.491-0.47-0.88-1.062-1.168-1.776s-0.432-1.541-0.432-2.479v-6.24
		c0-0.938,0.144-1.766,0.432-2.48c0.288-0.714,0.677-1.307,1.168-1.775c0.49-0.47,1.076-0.821,1.76-1.057
		c0.683-0.234,1.43-0.352,2.24-0.352c0.789,0,1.53,0.117,2.224,0.352c0.693,0.235,1.285,0.587,1.776,1.057
		c0.49,0.469,0.88,1.062,1.168,1.775c0.288,0.715,0.432,1.542,0.432,2.48v2.72c0,0.768-0.384,1.152-1.152,1.152h-6.592v2.144
		c0,1.024,0.209,1.723,0.625,2.096c0.416,0.374,0.922,0.561,1.52,0.561c0.618,0,1.104-0.16,1.456-0.48
		C358.801,101.479,358.977,101.041,358.977,100.487z M354.848,94.886h4.289V93.83c0-1.023-0.209-1.723-0.625-2.096
		s-0.923-0.561-1.52-0.561c-0.598,0-1.104,0.188-1.52,0.561s-0.625,1.072-0.625,2.096V94.886z"/>
	<path class="st0" d="M371.039,102.055c0.171,0,0.314-0.006,0.433-0.017c0.116-0.011,0.272-0.037,0.464-0.08
		c0.385-0.063,0.672,0.011,0.864,0.225c0.192,0.213,0.288,0.512,0.288,0.896v0.928c0,0.385-0.092,0.656-0.272,0.816
		s-0.432,0.271-0.752,0.336c-0.299,0.064-0.581,0.101-0.848,0.112c-0.267,0.01-0.518,0.016-0.753,0.016
		c-0.618,0-1.178-0.075-1.68-0.224c-0.501-0.149-0.934-0.395-1.295-0.736c-0.363-0.341-0.641-0.795-0.832-1.36
		c-0.193-0.564-0.289-1.253-0.289-2.063V83.59c0-0.768,0.385-1.151,1.152-1.151h1.152c0.768,0,1.152,0.384,1.152,1.151v17.057
		c0,0.555,0.127,0.928,0.383,1.12C370.463,101.958,370.741,102.055,371.039,102.055z"/>
	<path class="st0" d="M380.287,102.055c0.17,0,0.314-0.006,0.432-0.017s0.272-0.037,0.465-0.08c0.384-0.063,0.672,0.011,0.863,0.225
		c0.192,0.213,0.288,0.512,0.288,0.896v0.928c0,0.385-0.091,0.656-0.272,0.816c-0.181,0.16-0.432,0.271-0.752,0.336
		c-0.299,0.064-0.581,0.101-0.848,0.112c-0.267,0.01-0.518,0.016-0.752,0.016c-0.619,0-1.179-0.075-1.68-0.224
		c-0.502-0.149-0.934-0.395-1.296-0.736c-0.363-0.341-0.64-0.795-0.832-1.36c-0.192-0.564-0.288-1.253-0.288-2.063V83.59
		c0-0.768,0.384-1.151,1.152-1.151h1.151c0.769,0,1.152,0.384,1.152,1.151v17.057c0,0.555,0.128,0.928,0.384,1.12
		C379.711,101.958,379.989,102.055,380.287,102.055z"/>
	<path class="st0" d="M410.334,104.006c0,0.769-0.384,1.152-1.152,1.152h-1.151c-0.769,0-1.151-0.384-1.151-1.152V93.67
		c0-0.96-0.198-1.615-0.593-1.968c-0.396-0.352-0.87-0.528-1.424-0.528c-0.556,0-1.03,0.177-1.425,0.528
		c-0.395,0.353-0.592,1.008-0.592,1.968v10.336c0,0.769-0.383,1.152-1.151,1.152h-1.152c-0.768,0-1.151-0.384-1.151-1.152V93.67
		c0-0.96-0.197-1.615-0.592-1.968c-0.396-0.352-0.87-0.528-1.425-0.528s-1.029,0.177-1.424,0.528
		c-0.396,0.353-0.592,1.008-0.592,1.968v10.336c0,0.769-0.384,1.152-1.152,1.152h-1.151c-0.769,0-1.152-0.384-1.152-1.152V93.03
		c0-0.854,0.128-1.595,0.384-2.224c0.256-0.63,0.608-1.157,1.056-1.584c0.448-0.427,0.977-0.747,1.584-0.961
		c0.608-0.213,1.275-0.319,2-0.319c0.961,0,1.797,0.208,2.512,0.624s1.275,1.008,1.681,1.775c0.405-0.768,0.965-1.359,1.681-1.775
		c0.714-0.416,1.551-0.624,2.512-0.624c0.725,0,1.392,0.106,2,0.319c0.607,0.214,1.136,0.534,1.584,0.961
		c0.447,0.427,0.8,0.954,1.056,1.584c0.256,0.629,0.384,1.37,0.384,2.224V104.006z"/>
	<path class="st0" d="M421.662,100.487c0-0.661,0.33-0.992,0.992-0.992h1.312c0.768,0,1.151,0.384,1.151,1.152
		c0,1.451-0.496,2.624-1.488,3.52c-0.991,0.896-2.31,1.344-3.952,1.344c-0.811,0-1.557-0.117-2.24-0.352
		c-0.683-0.234-1.27-0.587-1.76-1.056c-0.49-0.47-0.879-1.062-1.168-1.776c-0.287-0.715-0.432-1.541-0.432-2.479v-6.24
		c0-0.938,0.145-1.766,0.432-2.48c0.289-0.714,0.678-1.307,1.168-1.775c0.49-0.47,1.077-0.821,1.76-1.057
		c0.684-0.234,1.43-0.352,2.24-0.352c0.789,0,1.531,0.117,2.225,0.352c0.693,0.235,1.285,0.587,1.775,1.057
		c0.49,0.469,0.881,1.062,1.168,1.775c0.289,0.715,0.433,1.542,0.433,2.48v2.72c0,0.768-0.384,1.152-1.152,1.152h-6.592v2.144
		c0,1.024,0.208,1.723,0.624,2.096c0.416,0.374,0.922,0.561,1.52,0.561c0.619,0,1.104-0.16,1.457-0.48
		C421.487,101.479,421.662,101.041,421.662,100.487z M417.534,94.886h4.288V93.83c0-1.023-0.208-1.723-0.624-2.096
		s-0.923-0.561-1.521-0.561s-1.104,0.188-1.52,0.561s-0.624,1.072-0.624,2.096V94.886z"/>
	<path class="st0" d="M300.129,130.487c0-0.661,0.331-0.992,0.992-0.992h1.312c0.768,0,1.152,0.384,1.152,1.152
		c0,1.451-0.496,2.624-1.488,3.52c-0.992,0.896-2.31,1.344-3.952,1.344c-0.812,0-1.558-0.117-2.24-0.352s-1.27-0.587-1.76-1.056
		c-0.491-0.47-0.88-1.062-1.168-1.776s-0.433-1.541-0.433-2.479v-6.24c0-0.938,0.145-1.766,0.433-2.48
		c0.288-0.714,0.677-1.307,1.168-1.775c0.49-0.47,1.077-0.821,1.76-1.057c0.683-0.234,1.429-0.352,2.24-0.352
		c0.789,0,1.53,0.117,2.224,0.352c0.693,0.235,1.285,0.587,1.776,1.057c0.49,0.469,0.88,1.062,1.168,1.775
		c0.288,0.715,0.433,1.542,0.433,2.48v2.72c0,0.768-0.385,1.152-1.152,1.152h-6.592v2.144c0,1.024,0.207,1.723,0.623,2.096
		c0.416,0.374,0.923,0.561,1.521,0.561c0.618,0,1.104-0.16,1.456-0.48C299.953,131.479,300.129,131.041,300.129,130.487z
		 M296.002,124.886h4.287v-1.056c0-1.023-0.207-1.723-0.623-2.096s-0.924-0.561-1.521-0.561c-0.598,0-1.104,0.188-1.521,0.561
		s-0.623,1.072-0.623,2.096V124.886z"/>
	<path class="st0" d="M306.401,119.51c-0.106-0.362-0.074-0.655,0.097-0.88c0.171-0.224,0.437-0.336,0.8-0.336h1.344
		c0.725,0,1.162,0.31,1.312,0.929l2.783,12.735l2.785-12.735c0.148-0.619,0.586-0.929,1.312-0.929h1.248
		c0.362,0,0.629,0.112,0.8,0.336c0.17,0.225,0.203,0.518,0.096,0.88l-3.552,14.017c-0.299,1.088-0.981,1.632-2.048,1.632h-1.376
		c-1.088,0-1.771-0.544-2.048-1.632L306.401,119.51z"/>
	<path class="st0" d="M328.992,130.487c0-0.661,0.331-0.992,0.992-0.992h1.312c0.768,0,1.152,0.384,1.152,1.152
		c0,1.451-0.496,2.624-1.488,3.52c-0.992,0.896-2.31,1.344-3.952,1.344c-0.812,0-1.558-0.117-2.24-0.352s-1.27-0.587-1.76-1.056
		c-0.491-0.47-0.88-1.062-1.168-1.776s-0.433-1.541-0.433-2.479v-6.24c0-0.938,0.145-1.766,0.433-2.48
		c0.288-0.714,0.677-1.307,1.168-1.775c0.49-0.47,1.077-0.821,1.76-1.057c0.683-0.234,1.429-0.352,2.24-0.352
		c0.789,0,1.53,0.117,2.224,0.352c0.693,0.235,1.285,0.587,1.776,1.057c0.49,0.469,0.88,1.062,1.168,1.775
		c0.288,0.715,0.433,1.542,0.433,2.48v2.72c0,0.768-0.385,1.152-1.152,1.152h-6.592v2.144c0,1.024,0.207,1.723,0.623,2.096
		c0.416,0.374,0.923,0.561,1.521,0.561c0.618,0,1.104-0.16,1.456-0.48C328.817,131.479,328.992,131.041,328.992,130.487z
		 M324.866,124.886h4.287v-1.056c0-1.023-0.207-1.723-0.623-2.096s-0.924-0.561-1.521-0.561c-0.598,0-1.104,0.188-1.521,0.561
		s-0.623,1.072-0.623,2.096V124.886z"/>
	<path class="st0" d="M341.856,121.366c-0.746,0-1.279,0.149-1.6,0.448s-0.479,0.821-0.479,1.567v10.624
		c0,0.769-0.384,1.152-1.152,1.152h-1.151c-0.769,0-1.152-0.384-1.152-1.152v-10.88c0-1.834,0.442-3.125,1.328-3.872
		c0.885-0.746,2.128-1.12,3.728-1.12c0.235,0,0.485,0.006,0.753,0.017c0.266,0.011,0.559,0.048,0.879,0.111
		c0.299,0.064,0.539,0.177,0.721,0.337c0.181,0.159,0.271,0.432,0.271,0.815v0.928c0,0.385-0.096,0.684-0.287,0.896
		c-0.193,0.214-0.48,0.288-0.865,0.224C342.465,121.399,342.133,121.366,341.856,121.366z"/>
	<path class="st0" d="M354.176,119.446c0-0.769,0.384-1.152,1.152-1.152h1.152c0.768,0,1.151,0.384,1.151,1.152v15.968
		c0,0.938-0.144,1.755-0.433,2.448c-0.287,0.693-0.677,1.264-1.168,1.712c-0.49,0.448-1.082,0.784-1.775,1.008
		c-0.693,0.225-1.436,0.336-2.225,0.336c-0.854,0-1.615-0.123-2.287-0.368s-1.243-0.575-1.713-0.991
		c-0.469-0.416-0.826-0.902-1.071-1.456c-0.245-0.556-0.368-1.152-0.368-1.792c0-0.769,0.384-1.152,1.152-1.152h1.312
		c0.661,0,0.992,0.33,0.992,0.992c0,0.469,0.159,0.869,0.479,1.2c0.32,0.33,0.821,0.496,1.504,0.496c0.598,0,1.104-0.16,1.521-0.48
		s0.624-0.992,0.624-2.016v-2.849c-0.747,0.896-1.803,1.345-3.168,1.345c-1.323,0-2.416-0.433-3.28-1.297
		c-0.864-0.863-1.296-2.191-1.296-3.983v-9.12c0-0.769,0.385-1.152,1.152-1.152h1.152c0.768,0,1.151,0.384,1.151,1.152v8.512
		c0,1.024,0.208,1.724,0.624,2.097s0.922,0.56,1.52,0.56s1.104-0.187,1.521-0.56s0.624-1.072,0.624-2.097V119.446z"/>
	<path class="st0" d="M368.256,135.158c-0.32,0.064-0.613,0.101-0.881,0.112c-0.267,0.01-0.518,0.016-0.752,0.016
		c-1.535,0-2.709-0.356-3.52-1.072c-0.811-0.714-1.217-1.936-1.217-3.664v-15.231c0-0.769,0.385-1.152,1.152-1.152h1.152
		c0.768,0,1.152,0.384,1.152,1.152v2.976h2.752c0.768,0,1.152,0.384,1.152,1.152v0.928c0,0.769-0.385,1.152-1.152,1.152h-2.752
		v8.768c0,0.662,0.127,1.12,0.384,1.376c0.256,0.256,0.714,0.385,1.376,0.385c0.277,0,0.607-0.032,0.992-0.097
		c0.384-0.063,0.672,0.011,0.863,0.225c0.192,0.213,0.289,0.512,0.289,0.896v0.928c0,0.385-0.092,0.656-0.272,0.816
		C368.794,134.983,368.554,135.094,368.256,135.158z"/>
	<path class="st0" d="M375.936,134.006c0,0.769-0.385,1.152-1.152,1.152h-1.152c-0.768,0-1.152-0.384-1.152-1.152V113.59
		c0-0.768,0.385-1.151,1.152-1.151h1.152c0.768,0,1.152,0.384,1.152,1.151v5.696c0.746-0.896,1.802-1.344,3.168-1.344
		c0.66,0,1.269,0.106,1.823,0.319c0.555,0.214,1.034,0.539,1.44,0.977c0.404,0.438,0.725,0.987,0.96,1.647
		c0.234,0.662,0.353,1.44,0.353,2.337v10.783c0,0.769-0.385,1.152-1.152,1.152h-1.152c-0.768,0-1.152-0.384-1.152-1.152V123.83
		c0-1.023-0.207-1.723-0.623-2.096s-0.924-0.561-1.521-0.561c-0.598,0-1.104,0.188-1.521,0.561s-0.623,1.072-0.623,2.096V134.006z"
		/>
	<path class="st0" d="M387.903,113.91c0-0.768,0.385-1.152,1.152-1.152h1.152c0.768,0,1.152,0.385,1.152,1.152v1.088
		c0,0.769-0.385,1.152-1.152,1.152h-1.152c-0.768,0-1.152-0.384-1.152-1.152V113.91z M387.903,119.446
		c0-0.769,0.385-1.152,1.152-1.152h1.152c0.768,0,1.152,0.384,1.152,1.152v14.56c0,0.769-0.385,1.152-1.152,1.152h-1.152
		c-0.768,0-1.152-0.384-1.152-1.152V119.446z"/>
	<path class="st0" d="M405.631,135.158h-1.152c-0.768,0-1.152-0.384-1.152-1.152V123.83c0-1.023-0.208-1.723-0.623-2.096
		c-0.416-0.373-0.924-0.561-1.521-0.561c-0.598,0-1.104,0.188-1.521,0.561s-0.623,1.072-0.623,2.096v10.176
		c0,0.769-0.385,1.152-1.152,1.152h-1.152c-0.768,0-1.152-0.384-1.152-1.152v-10.399c0-0.938,0.145-1.766,0.433-2.48
		c0.288-0.714,0.677-1.307,1.168-1.775c0.49-0.47,1.077-0.821,1.76-1.057c0.683-0.234,1.429-0.352,2.24-0.352
		c0.788,0,1.53,0.117,2.224,0.352c0.693,0.235,1.285,0.587,1.776,1.057c0.49,0.469,0.88,1.062,1.168,1.775
		c0.288,0.715,0.432,1.542,0.432,2.48v10.399C406.783,134.775,406.399,135.158,405.631,135.158z"/>
	<path class="st0" d="M418.239,132.502c-0.747,0.896-1.803,1.345-3.168,1.345c-1.322,0-2.416-0.433-3.279-1.297
		c-0.865-0.863-1.297-2.191-1.297-3.983v-4.96c0-0.938,0.145-1.766,0.432-2.48c0.289-0.714,0.678-1.307,1.168-1.775
		c0.491-0.47,1.078-0.821,1.761-1.057c0.683-0.234,1.429-0.352,2.239-0.352c0.789,0,1.531,0.117,2.225,0.352
		c0.693,0.235,1.285,0.587,1.775,1.057c0.491,0.469,0.881,1.062,1.168,1.775c0.289,0.715,0.433,1.542,0.433,2.48v11.808
		c0,0.938-0.144,1.755-0.433,2.448c-0.287,0.693-0.677,1.264-1.168,1.712c-0.49,0.448-1.082,0.784-1.775,1.008
		c-0.693,0.225-1.436,0.336-2.225,0.336c-0.854,0-1.615-0.123-2.287-0.368s-1.243-0.575-1.713-0.991
		c-0.469-0.416-0.826-0.902-1.071-1.456c-0.245-0.556-0.368-1.152-0.368-1.792c0-0.769,0.385-1.152,1.152-1.152h1.312
		c0.661,0,0.992,0.33,0.992,0.992c0,0.469,0.16,0.869,0.479,1.2c0.32,0.33,0.821,0.496,1.504,0.496c0.598,0,1.104-0.16,1.521-0.48
		s0.624-0.992,0.624-2.016V132.502z M418.239,123.83c0-1.023-0.208-1.723-0.624-2.096s-0.923-0.561-1.521-0.561
		c-0.597,0-1.104,0.188-1.52,0.561s-0.624,1.072-0.624,2.096v4.128c0,1.024,0.208,1.724,0.624,2.097s0.923,0.56,1.52,0.56
		c0.598,0,1.104-0.187,1.521-0.56s0.624-1.072,0.624-2.097V123.83z"/>
</g>
<g>
	<path class="st0" d="M186.255,224.963c-0.999,0-1.976-0.498-2.545-1.407c-0.88-1.404-0.455-3.256,0.949-4.135l16.948-10.618
		c1.404-0.881,3.256-0.454,4.135,0.949c0.88,1.404,0.455,3.256-0.949,4.135l-16.948,10.618
		C187.35,224.816,186.799,224.963,186.255,224.963z M211.727,208.99c-1.008,0-1.994-0.491-2.559-1.399
		c-0.873-1.407-0.483-3.23,0.925-4.104l0.085-0.053c1.407-0.874,3.257-0.441,4.131,0.967c0.874,1.407,0.441,3.257-0.967,4.131
		C212.842,208.842,212.282,208.99,211.727,208.99z M220.237,203.673c-0.999,0-1.976-0.498-2.545-1.407
		c-0.88-1.404-0.455-3.256,0.949-4.135l16.949-10.618c1.405-0.881,3.256-0.454,4.135,0.949c0.88,1.404,0.455,3.256-0.949,4.135
		l-16.949,10.618C221.331,203.526,220.781,203.673,220.237,203.673z M245.659,187.746c-0.995,0-1.968-0.494-2.539-1.396
		c-0.885-1.401-0.468-3.254,0.933-4.14l0.085-0.054c1.403-0.884,3.254-0.466,4.14,0.933c0.885,1.401,0.468,3.254-0.933,4.14
		l-0.085,0.054C246.762,187.597,246.207,187.746,245.659,187.746z M254.219,182.384c-0.999,0-1.976-0.498-2.545-1.407
		c-0.88-1.404-0.455-3.255,0.949-4.135l15.036-9.421c1.405-0.881,3.256-0.454,4.135,0.949c0.88,1.404,0.455,3.255-0.949,4.135
		l-15.036,9.421C255.314,182.237,254.763,182.384,254.219,182.384z"/>
</g>
<g id="New_Symbol_9_copy">
	<g>
		<g id="Layer0_0_FILL_1_">
			<g>
				<path class="st0" d="M7.905,248.08c-1.482,0.021-2.81,0.381-3.983,1.081c-1.194,0.7-2.141,1.647-2.841,2.841
					c-0.7,1.173-1.06,2.491-1.081,3.952c0.021,1.482,0.381,2.81,1.081,3.983c0.7,1.194,1.647,2.141,2.841,2.841
					c1.173,0.7,2.501,1.06,3.983,1.081c1.462-0.021,2.779-0.381,3.952-1.081c1.194-0.7,2.141-1.647,2.841-2.841
					c0.7-1.173,1.06-2.501,1.081-3.983c-0.021-1.462-0.381-2.779-1.081-3.952c-0.7-1.194-1.647-2.141-2.841-2.841
					C10.684,248.46,9.366,248.1,7.905,248.08 M126.693,428.501c0.844-0.659,1.667-1.369,2.47-2.131H51.999
					c0.823,0.762,1.657,1.482,2.501,2.161c10.272,8.461,22.294,12.691,36.066,12.691
					C104.358,441.223,116.401,436.982,126.693,428.501 M166.465,259.937c0.7,1.194,1.637,2.141,2.81,2.841
					c1.194,0.7,2.522,1.06,3.983,1.081c1.462-0.021,2.789-0.381,3.983-1.081c1.173-0.7,2.12-1.647,2.841-2.841
					c0.7-1.173,1.05-2.501,1.05-3.983c0-1.462-0.35-2.779-1.05-3.952c-0.721-1.194-1.667-2.141-2.841-2.841
					c-1.194-0.7-2.522-1.06-3.983-1.081c-1.462,0.021-2.789,0.381-3.983,1.081c-1.173,0.7-2.11,1.647-2.81,2.841
					c-0.7,1.173-1.06,2.491-1.081,3.952C165.404,257.436,165.765,258.763,166.465,259.937 M142.565,194.815
					c-3.911-1.667-8.121-2.522-12.629-2.563H51.227c-4.529,0.041-8.749,0.895-12.66,2.563c-3.932,1.688-7.38,4.014-10.344,6.978
					c-2.964,2.964-5.29,6.402-6.978,10.313c-1.667,3.932-2.511,8.152-2.532,12.66v62.374c0.021,4.529,0.865,8.749,2.532,12.66
					c1.688,3.911,4.014,7.359,6.978,10.344c2.964,2.964,6.412,5.29,10.344,6.978c3.705,1.585,7.699,2.429,11.981,2.532
					c0.226,0,0.453,0,0.679,0h5.465c1.42,0.021,2.707,0.371,3.86,1.05c1.153,0.679,2.059,1.595,2.717,2.748
					c0.679,1.132,1.029,2.409,1.05,3.829c0,0.041,0,0.082,0,0.124c-0.021,1.482-0.36,2.83-1.019,4.045
					c-0.021,0.021-0.041,0.051-0.062,0.093c-0.103,0.185-0.206,0.36-0.309,0.525c-0.062,0.082-0.124,0.154-0.185,0.216
					c-0.103,0.165-0.206,0.309-0.309,0.432c-0.062,0.062-0.113,0.134-0.154,0.216c-0.185,0.185-0.371,0.381-0.556,0.587
					c-0.226,0.206-0.443,0.401-0.648,0.587c-0.226,0.185-0.443,0.36-0.648,0.525c-0.206,0.103-0.412,0.226-0.618,0.371
					c-3.479,2.264-6.773,4.951-9.881,8.059c-0.556,0.556-1.091,1.112-1.606,1.667c-10.169,10.89-15.254,23.889-15.254,38.999
					c0,14.451,4.652,26.977,13.957,37.579c0.021,0.041,0.062,0.072,0.123,0.093c0.556,0.638,1.215,1.132,1.976,1.482
					c0.782,0.329,1.606,0.504,2.47,0.525l78.091-0.062c0.844,0,1.637-0.175,2.378-0.525c0.782-0.35,1.441-0.834,1.976-1.451
					l0.093-0.093c9.284-10.602,13.926-23.118,13.926-37.548c0-15.892-5.61-29.448-16.829-40.667
					c-3.088-3.088-6.361-5.754-9.819-7.997c-0.288-0.206-0.566-0.391-0.834-0.556c-0.432-0.288-0.834-0.628-1.204-1.019
					c-1.338-1.338-2.151-2.872-2.439-4.601h-0.031c0-0.041,0-0.196,0-0.463c0-0.247-0.01-0.576-0.031-0.988
					c-0.021-1.441,0.309-2.748,0.988-3.922c0.679-1.173,1.595-2.1,2.748-2.779c1.153-0.7,2.45-1.06,3.891-1.081h5.435
					c4.508-0.021,8.718-0.865,12.629-2.532c3.932-1.688,7.38-4.014,10.344-6.978c2.964-2.985,5.29-6.433,6.979-10.344
					c1.667-3.911,2.522-8.131,2.563-12.66v-62.374c-0.041-4.508-0.895-8.728-2.563-12.66c-1.688-3.911-4.014-7.349-6.979-10.313
					C149.945,198.829,146.497,196.503,142.565,194.815 M148.092,255.954c0,15.892-5.62,29.437-16.859,40.636
					c-11.219,11.24-24.775,16.859-40.667,16.859c-9.84,0-18.795-2.151-26.864-6.454c-4.941-2.656-9.552-6.124-13.833-10.406
					c-11.178-11.199-16.767-24.744-16.767-40.636s5.589-29.458,16.767-40.698c11.24-11.178,24.806-16.767,40.698-16.767
					c15.892-0.021,29.448,5.568,40.667,16.767C142.472,226.496,148.092,240.062,148.092,255.954 M115.145,359.241
					c6.731,6.731,10.097,14.883,10.097,24.456c0,9.552-3.366,17.714-10.097,24.486c-6.793,6.752-14.966,10.128-24.517,10.128
					c-9.572,0-17.734-3.376-24.486-10.128c-6.731-6.752-10.097-14.914-10.097-24.486c0-9.552,3.366-17.704,10.097-24.456
					c2.635-2.656,5.496-4.786,8.584-6.392c4.776-2.511,10.077-3.767,15.902-3.767C100.179,349.082,108.352,352.469,115.145,359.241
					 M122.216,383.666c0-8.728-3.067-16.17-9.202-22.325c-6.217-6.196-13.689-9.294-22.418-9.294c-4.138,0-7.997,0.71-11.579,2.131
					c-3.932,1.523-7.514,3.911-10.746,7.164c-6.176,6.155-9.263,13.597-9.263,22.325s3.088,16.19,9.263,22.387
					c6.176,6.155,13.617,9.243,22.325,9.263c8.728-0.021,16.201-3.108,22.418-9.263
					C119.149,399.856,122.216,392.394,122.216,383.666 M99.397,378.972c0.103,0.103,0.257,0.134,0.463,0.093l3.798-0.803
					l-0.988,3.767c-0.082,0.268-0.144,0.494-0.185,0.679c-0.041,0.206-0.041,0.36,0,0.463c0.062,0.103,0.196,0.206,0.401,0.309
					l1.359,0.648l-6.577,5.527c-0.124,0.103-0.206,0.247-0.247,0.432c-0.082,0.144-0.082,0.309,0,0.494l0.556,1.976
					c-0.762-0.103-1.492-0.196-2.192-0.278c-0.741-0.082-1.462-0.175-2.161-0.278c-0.7-0.082-1.41-0.165-2.131-0.247l0.525,6.886
					h-2.656l0.463-6.886c-0.021,0-0.041,0-0.062,0c-0.741,0.082-1.472,0.165-2.192,0.247c-0.7,0.103-1.41,0.196-2.131,0.278
					c-0.7,0.082-1.431,0.175-2.192,0.278l0.618-1.976c0.021-0.185,0-0.35-0.062-0.494c-0.062-0.185-0.144-0.329-0.247-0.432
					l-6.577-5.527l1.359-0.648c0.185-0.103,0.309-0.206,0.371-0.309c0.041-0.103,0.041-0.257,0-0.463
					c-0.041-0.185-0.093-0.412-0.154-0.679l-1.019-3.767l3.829,0.803c0.165,0.041,0.309,0.01,0.432-0.093
					c0.123-0.082,0.206-0.185,0.247-0.309l0.494-1.791l2.995,3.52c0.103,0.123,0.226,0.226,0.371,0.309
					c0.144,0.062,0.278,0.062,0.401,0c0.124-0.041,0.206-0.144,0.247-0.309c0.062-0.165,0.051-0.412-0.031-0.741l-1.235-7.102
					l1.698,0.926c0.268,0.165,0.504,0.247,0.71,0.247c0.206-0.041,0.371-0.175,0.494-0.401l2.409-4.663l2.408,4.663
					c0.124,0.226,0.298,0.36,0.525,0.401c0.206,0,0.443-0.082,0.71-0.247l1.729-0.926l-1.297,7.102
					c-0.082,0.329-0.093,0.576-0.031,0.741c0.062,0.165,0.154,0.268,0.278,0.309c0.123,0.062,0.247,0.062,0.371,0
					c0.144-0.082,0.278-0.185,0.401-0.309l2.995-3.52l0.525,1.791C99.232,378.787,99.294,378.89,99.397,378.972"/>
			</g>
		</g>
		<g>
			<g id="Layer0_0_1_STROKES_1_">
				<g>
					<path class="st0" d="M90.566,290.203c-3.828,0-7.155-1.372-9.889-4.078c-2.712-2.74-4.074-6.046-4.074-9.854
						c0-2.067,1.675-3.742,3.742-3.742s3.742,1.676,3.742,3.742c0,1.815,0.598,3.265,1.882,4.562
						c1.291,1.278,2.761,1.886,4.597,1.886c1.829,0,3.284-0.604,4.579-1.899c1.303-1.303,1.917-2.757,1.93-4.576
						c0.015-2.058,1.688-3.715,3.742-3.715c0.009,0,0.019,0,0.028,0c2.067,0.015,3.73,1.703,3.715,3.77
						c-0.028,3.805-1.415,7.107-4.122,9.814C97.723,288.827,94.401,290.203,90.566,290.203z M55.854,276.432
						c-5.664,0.014-10.564-1.973-14.551-5.936c-0.047-0.047-0.093-0.095-0.137-0.144l-1.174-1.298
						c-0.035-0.039-0.07-0.079-0.104-0.12c-3.072-3.702-4.63-8.059-4.63-12.95c0-4.912,1.558-9.28,4.63-12.981
						c0.034-0.04,0.068-0.08,0.103-0.119l1.176-1.3c0.041-0.046,0.084-0.091,0.128-0.134c3.964-3.965,8.834-5.975,14.473-5.975
						s10.508,2.01,14.473,5.975c4.006,4.006,6.037,8.896,6.037,14.534c0,5.618-2.031,10.497-6.037,14.503
						C66.294,274.433,61.455,276.432,55.854,276.432z M46.644,265.253c2.549,2.501,5.557,3.695,9.192,3.694
						c3.61,0,6.585-1.228,9.11-3.752c2.587-2.587,3.844-5.6,3.844-9.211c0-3.632-1.258-6.655-3.845-9.242
						c-2.545-2.545-5.548-3.783-9.18-3.783c-3.603,0-6.586,1.217-9.117,3.72l-1.051,1.161c-1.922,2.341-2.856,5.006-2.856,8.143
						c0,3.117,0.935,5.771,2.857,8.112L46.644,265.253z M125.052,276.432c-0.035,0-0.069,0-0.104,0
						c-5.613,0-10.486-1.994-14.47-5.927c-0.027-0.027-0.055-0.055-0.081-0.082c-0.452-0.474-0.89-0.959-1.304-1.441
						c-0.017-0.02-0.033-0.039-0.049-0.059c-3.045-3.7-4.589-8.053-4.589-12.939c0-4.906,1.544-9.27,4.589-12.969
						c0.016-0.02,0.032-0.039,0.049-0.058c0.414-0.482,0.853-0.968,1.304-1.442c0.024-0.025,0.048-0.049,0.072-0.073
						c3.984-3.959,8.861-5.967,14.495-5.967c5.644,0,10.505,2.013,14.45,5.983c3.997,3.997,6.028,8.887,6.028,14.526
						c0,5.618-2.031,10.498-6.037,14.504C135.489,274.43,130.658,276.432,125.052,276.432z M115.777,265.218
						c2.576,2.525,5.595,3.731,9.258,3.729c3.605,0,6.567-1.225,9.07-3.743c2.595-2.595,3.853-5.608,3.853-9.22
						c0-3.632-1.258-6.655-3.844-9.242c-2.532-2.548-5.522-3.783-9.149-3.783c-3.62,0-6.625,1.228-9.184,3.756
						c-0.34,0.358-0.67,0.723-0.98,1.084c-1.924,2.351-2.86,5.028-2.86,8.185c0,3.135,0.936,5.803,2.859,8.153
						C115.109,264.498,115.438,264.861,115.777,265.218z"/>
				</g>
			</g>
		</g>
		<g>
			<path class="st0" d="M60.059,189.195h60.984c1.991,0,3.852-0.992,4.961-2.646l6.439-9.601l-4.451-0.806
				c-0.617-0.1-1.065-0.309-1.344-0.627c-0.179-0.239-0.299-0.677-0.359-1.314c0-0.538,0-1.235,0-2.091l-0.09-11.649l-10.335,5.287
				c-0.578,0.259-1.026,0.289-1.344,0.09c-0.418-0.159-0.707-0.398-0.866-0.717l-2.957-4.63l-4.627,9.151
				c-0.617,1.219-2.466,0.616-2.246-0.732l2.631-16.066l-5.108,2.808c-0.777,0.418-1.463,0.627-2.061,0.627
				c-0.717-0.06-1.255-0.448-1.613-1.165l-7.169-13.89l-7.169,13.89c-0.418,0.717-0.926,1.105-1.523,1.165
				c-0.657,0-1.374-0.209-2.151-0.627l-4.988-2.808l2.653,16.427c0.218,1.348-1.631,1.948-2.246,0.729l-4.738-9.389l-2.838,4.869
				c-0.219,0.299-0.518,0.528-0.896,0.687c-0.418,0.199-0.866,0.169-1.344-0.09L54.9,160.788l-0.119,11.679
				c0.02,0.876,0.03,1.583,0.03,2.121c-0.06,0.617-0.209,1.036-0.448,1.255c-0.199,0.319-0.617,0.528-1.255,0.627l-4.421,0.836
				l6.462,9.319C56.266,188.235,58.1,189.195,60.059,189.195z"/>
		</g>
	</g>
</g>
</svg>