<!-- Generator: Adobe Illustrator 21.0.0, SVG Export Plug-In  -->
<svg version="1.1"
	 xmlns="http://www.w3.org/2000/svg" xmlns:xlink="http://www.w3.org/1999/xlink" xmlns:a="http://ns.adobe.com/AdobeSVGViewerExtensions/3.0/"
	 x="0px" y="0px" width="468.102px" height="106.355px" viewBox="0 0 468.102 106.355"
	 style="enable-background:new 0 0 468.102 106.355;" xml:space="preserve">
<style type="text/css">
	.st0{fill:#990000;}
	.st1{fill:#FF0000;}
	.st2{fill:#FFFFFF;}
	.st3{font-family:'TitilliumWeb-Bold';}
	.st4{font-size:60px;}
	.st5{letter-spacing:-4;}
</style>
<defs>
</defs>
<path class="st0" d="M417.797,106.355H50.304C22.637,106.355,0,83.718,0,56.051v0C0,28.384,22.637,5.747,50.304,5.747h367.493
	c27.667,0,50.304,22.637,50.304,50.304v0C468.102,83.718,445.465,106.355,417.797,106.355z"/>
<path class="st1" d="M417.797,100.608H50.304C22.637,100.608,0,77.971,0,50.304v0C0,22.637,22.637,0,50.304,0l367.493,0
	c27.667,0,50.304,22.637,50.304,50.304v0C468.102,77.971,445.465,100.608,417.797,100.608z"/>
<g>
	<g>
		<path class="st2" d="M93.383,34.57v-7.319h30v7.319h-10.8v33.48h-8.279V34.57H93.383z"/>
		<path class="st2" d="M146.543,47.411V59.89c0.08,0.96,0.24,1.631,0.48,2.01c0.239,0.381,0.739,0.651,1.5,0.811l-0.24,6.06
			c-2.04,0-3.671-0.141-4.891-0.42c-1.22-0.28-2.45-0.84-3.689-1.68c-2.88,1.399-5.82,2.1-8.82,2.1c-6.2,0-9.3-3.279-9.3-9.84
			c0-3.199,0.859-5.47,2.58-6.81c1.72-1.34,4.359-2.13,7.92-2.37l6.42-0.48v-1.859c0-1.239-0.28-2.09-0.84-2.551
			c-0.561-0.459-1.461-0.689-2.7-0.689l-11.28,0.479l-0.239-5.58c4.279-1.159,8.349-1.739,12.21-1.739
			c3.859,0,6.639,0.801,8.34,2.399C145.692,41.331,146.543,43.891,146.543,47.411z M133.043,55.331c-2.24,0.2-3.36,1.4-3.36,3.6
			c0,2.2,0.98,3.3,2.94,3.3c1.52,0,3.18-0.239,4.979-0.72l0.9-0.24v-6.42L133.043,55.331z"/>
		<path class="st2" d="M154.582,68.05v-42h8.04v42H154.582z"/>
		<path class="st2" d="M178.461,68.05h-8.039v-42h8.039v23.88l3.061-0.54l5.939-11.34h9l-7.8,14.22l8.221,15.78h-9.061l-6.06-11.7
			l-3.301,0.54V68.05z"/>
		<path class="st2" d="M231.141,44.89h-7.38v12.3c0,1.2,0.03,2.051,0.09,2.551s0.279,0.93,0.66,1.29
			c0.38,0.359,0.969,0.539,1.77,0.539l4.561-0.119l0.359,6.42c-2.68,0.6-4.72,0.899-6.12,0.899c-3.6,0-6.06-0.81-7.38-2.43
			c-1.319-1.62-1.979-4.609-1.979-8.97V44.89h-3.54v-6.84h3.54v-8.34h8.04v8.34h7.38V44.89z"/>
		<path class="st2" d="M237.98,41.44c2.119-2.739,5.659-4.109,10.62-4.109c4.959,0,8.499,1.37,10.62,4.109
			c2.119,2.74,3.18,6.591,3.18,11.551c0,10.521-4.601,15.779-13.8,15.779c-9.201,0-13.8-5.259-13.8-15.779
			C234.801,48.031,235.859,44.18,237.98,41.44z M244.19,59.77c0.819,1.44,2.289,2.16,4.41,2.16c2.119,0,3.59-0.72,4.41-2.16
			c0.819-1.439,1.229-3.699,1.229-6.779s-0.41-5.319-1.229-6.721c-0.82-1.399-2.291-2.1-4.41-2.1c-2.121,0-3.591,0.7-4.41,2.1
			c-0.82,1.401-1.23,3.641-1.23,6.721S243.37,58.331,244.19,59.77z"/>
		<path class="st2" d="M289.52,68.05h-8.04v-30h7.98v1.68c2.76-1.599,5.119-2.399,7.079-2.399c3.24,0,5.74,0.94,7.5,2.819
			c3.68-1.879,7.04-2.819,10.08-2.819c3.96,0,6.71,1.15,8.25,3.45s2.311,5.97,2.311,11.01v16.26h-8.04v-16.02
			c0-2.56-0.28-4.45-0.84-5.671c-0.561-1.22-1.681-1.829-3.36-1.829c-1.28,0-2.841,0.28-4.68,0.84l-0.9,0.3
			c0.159,3,0.24,5.28,0.24,6.84v15.54h-8.04v-15.42c0-2.96-0.261-5.05-0.78-6.271c-0.521-1.22-1.66-1.829-3.42-1.829
			c-1.56,0-3.101,0.28-4.62,0.84l-0.72,0.239V68.05z"/>
		<path class="st2" d="M339.889,60.461c0.939,0.82,2.29,1.229,4.05,1.229c3.721,0,7.04-0.12,9.96-0.359l1.681-0.181l0.12,5.94
			c-4.601,1.119-8.761,1.68-12.48,1.68c-4.521,0-7.8-1.2-9.84-3.6c-2.04-2.4-3.06-6.3-3.06-11.7c0-10.76,4.419-16.14,13.26-16.14
			c8.72,0,13.08,4.521,13.08,13.56l-0.601,5.58h-17.64C338.458,58.311,338.948,59.641,339.889,60.461z M348.739,50.35
			c0-2.399-0.381-4.069-1.141-5.01c-0.76-0.939-2.091-1.41-3.99-1.41s-3.239,0.49-4.02,1.47c-0.78,0.981-1.19,2.631-1.23,4.95
			H348.739z"/>
		<path class="st2" d="M363.559,53.05l-0.78-25.8h8.7l-0.84,25.8H363.559z M362.778,68.05v-9.66h8.641v9.66H362.778z"/>
	</g>
</g>
</svg>