<!-- Generator: Adobe Illustrator 21.0.0, SVG Export Plug-In  -->
<svg version="1.1"
	 xmlns="http://www.w3.org/2000/svg" xmlns:xlink="http://www.w3.org/1999/xlink" xmlns:a="http://ns.adobe.com/AdobeSVGViewerExtensions/3.0/"
	 x="0px" y="0px" width="285.188px" height="762.014px" viewBox="0 0 285.188 762.014"
	 style="enable-background:new 0 0 285.188 762.014;" xml:space="preserve">
<style type="text/css">
	.st0{fill:#FF0000;}
</style>
<defs>
</defs>
<g id="New_Symbol_9_copy">
	<g>
		<g id="Layer0_0_FILL_1_">
			<g>
				<path class="st0" d="M19.767,477.963c-2.18,0.03-4.132,0.56-5.858,1.589c-1.756,1.029-3.149,2.422-4.178,4.178
					c-1.029,1.726-1.559,3.663-1.589,5.813c0.03,2.18,0.56,4.132,1.589,5.858c1.029,1.756,2.422,3.149,4.178,4.178
					c1.726,1.029,3.678,1.559,5.858,1.589c2.149-0.03,4.087-0.56,5.813-1.589c1.756-1.029,3.149-2.422,4.178-4.178
					c1.029-1.726,1.559-3.678,1.589-5.858c-0.03-2.15-0.56-4.087-1.589-5.813c-1.029-1.756-2.422-3.149-4.178-4.178
					C23.854,478.523,21.917,477.994,19.767,477.963 M194.466,743.305c1.241-0.969,2.452-2.013,3.633-3.133H84.615
					c1.211,1.12,2.437,2.18,3.678,3.179c15.107,12.443,32.787,18.664,53.041,18.664
					C161.619,762.014,179.329,755.778,194.466,743.305 M252.957,495.402c1.029,1.756,2.407,3.149,4.132,4.178
					c1.756,1.029,3.709,1.559,5.858,1.589c2.15-0.03,4.102-0.56,5.858-1.589c1.726-1.029,3.118-2.422,4.178-4.178
					c1.029-1.726,1.544-3.678,1.544-5.858c0-2.15-0.515-4.087-1.544-5.813c-1.06-1.756-2.452-3.149-4.178-4.178
					c-1.756-1.029-3.709-1.559-5.858-1.589c-2.149,0.03-4.102,0.56-5.858,1.589c-1.726,1.029-3.103,2.422-4.132,4.178
					c-1.029,1.726-1.559,3.663-1.589,5.813C251.398,491.723,251.928,493.676,252.957,495.402 M217.808,399.628
					c-5.752-2.452-11.943-3.709-18.573-3.769H83.48c-6.66,0.061-12.867,1.317-18.619,3.769c-5.782,2.483-10.853,5.904-15.213,10.263
					c-4.36,4.36-7.781,9.415-10.263,15.168c-2.452,5.782-3.694,11.989-3.724,18.619v91.732c0.03,6.66,1.272,12.867,3.724,18.619
					c2.483,5.752,5.903,10.823,10.263,15.213c4.36,4.36,9.43,7.781,15.213,10.263c5.449,2.331,11.323,3.572,17.62,3.724
					c0.333,0,0.666,0,0.999,0h8.038c2.089,0.03,3.981,0.545,5.676,1.544c1.695,0.999,3.027,2.346,3.996,4.042
					c0.999,1.665,1.514,3.542,1.544,5.631c0,0.061,0,0.121,0,0.182c-0.03,2.18-0.53,4.163-1.499,5.949
					c-0.03,0.03-0.061,0.076-0.091,0.136c-0.151,0.272-0.303,0.53-0.454,0.772c-0.091,0.121-0.182,0.227-0.273,0.318
					c-0.151,0.242-0.303,0.454-0.454,0.636c-0.091,0.091-0.166,0.197-0.227,0.318c-0.272,0.272-0.545,0.56-0.817,0.863
					c-0.333,0.303-0.651,0.59-0.954,0.863c-0.333,0.273-0.651,0.53-0.954,0.772c-0.303,0.151-0.606,0.333-0.908,0.545
					c-5.116,3.33-9.96,7.281-14.532,11.852c-0.817,0.817-1.605,1.635-2.361,2.452c-14.956,16.015-22.433,35.134-22.433,57.355
					c0,21.253,6.842,39.675,20.526,55.266c0.03,0.06,0.091,0.106,0.182,0.136c0.817,0.939,1.786,1.665,2.906,2.18
					c1.15,0.484,2.361,0.742,3.633,0.772l114.847-0.091c1.241,0,2.407-0.257,3.497-0.772c1.15-0.515,2.119-1.226,2.906-2.134
					l0.136-0.136c13.654-15.591,20.481-33.998,20.481-55.221c0-23.372-8.25-43.308-24.749-59.807
					c-4.541-4.541-9.355-8.462-14.441-11.762c-0.424-0.303-0.833-0.575-1.226-0.817c-0.636-0.424-1.226-0.923-1.771-1.499
					c-1.968-1.968-3.164-4.223-3.588-6.766h-0.045c0-0.061,0-0.288,0-0.681c0-0.363-0.015-0.848-0.045-1.453
					c-0.03-2.119,0.454-4.042,1.453-5.767c0.999-1.726,2.346-3.088,4.042-4.087c1.695-1.029,3.603-1.559,5.722-1.589h7.993
					c6.63-0.03,12.821-1.272,18.573-3.724c5.782-2.482,10.853-5.904,15.213-10.263c4.36-4.39,7.781-9.461,10.263-15.213
					c2.452-5.752,3.709-11.958,3.769-18.619v-91.732c-0.061-6.63-1.317-12.836-3.769-18.619
					c-2.483-5.752-5.904-10.808-10.263-15.168C228.662,405.532,223.591,402.111,217.808,399.628 M225.937,489.543
					c0,23.372-8.265,43.293-24.795,59.762c-16.5,16.53-36.435,24.795-59.807,24.795c-14.471,0-27.641-3.164-39.508-9.491
					c-7.266-3.905-14.047-9.007-20.345-15.304c-16.439-16.469-24.659-36.39-24.659-59.762c0-23.372,8.22-43.323,24.659-59.853
					c16.53-16.439,36.481-24.659,59.853-24.659c23.372-0.03,43.308,8.189,59.807,24.659
					C217.672,446.221,225.937,466.171,225.937,489.543 M177.482,641.446c9.9,9.9,14.85,21.888,14.85,35.966
					c0,14.047-4.95,26.051-14.85,36.012c-9.991,9.93-22.01,14.895-36.057,14.895c-14.078,0-26.082-4.965-36.012-14.895
					c-9.9-9.93-14.85-21.934-14.85-36.012c0-14.047,4.95-26.036,14.85-35.966c3.875-3.905,8.083-7.039,12.625-9.4
					c7.024-3.693,14.819-5.54,23.387-5.54C155.473,626.505,167.492,631.486,177.482,641.446 M187.882,677.367
					c0-12.836-4.511-23.781-13.533-32.833c-9.143-9.113-20.133-13.669-32.969-13.669c-6.085,0-11.762,1.044-17.029,3.133
					c-5.782,2.24-11.05,5.752-15.803,10.536c-9.082,9.052-13.624,19.996-13.624,32.833s4.541,23.811,13.624,32.924
					c9.082,9.052,20.027,13.593,32.833,13.624c12.836-0.03,23.826-4.571,32.969-13.624
					C183.371,701.178,187.882,690.203,187.882,677.367 M154.322,670.464c0.151,0.151,0.378,0.197,0.681,0.136l5.586-1.181
					l-1.453,5.54c-0.121,0.394-0.212,0.727-0.272,0.999c-0.061,0.303-0.061,0.53,0,0.681c0.091,0.151,0.288,0.303,0.59,0.454
					l1.998,0.954l-9.673,8.129c-0.182,0.151-0.303,0.363-0.363,0.636c-0.121,0.212-0.121,0.454,0,0.727l0.817,2.906
					c-1.12-0.151-2.195-0.288-3.224-0.409c-1.09-0.121-2.149-0.257-3.179-0.409c-1.029-0.121-2.074-0.242-3.133-0.363l0.772,10.127
					h-3.905l0.681-10.127c-0.03,0-0.061,0-0.091,0c-1.09,0.121-2.165,0.242-3.224,0.363c-1.029,0.151-2.074,0.288-3.133,0.409
					c-1.029,0.121-2.104,0.257-3.224,0.409l0.908-2.906c0.03-0.272,0-0.515-0.091-0.727c-0.091-0.272-0.212-0.484-0.363-0.636
					l-9.673-8.129l1.998-0.954c0.272-0.151,0.454-0.303,0.545-0.454c0.061-0.151,0.061-0.378,0-0.681
					c-0.061-0.272-0.136-0.605-0.227-0.999l-1.499-5.54l5.631,1.181c0.242,0.061,0.454,0.015,0.636-0.136
					c0.182-0.121,0.303-0.272,0.363-0.454l0.727-2.634l4.405,5.177c0.151,0.182,0.333,0.333,0.545,0.454
					c0.212,0.091,0.409,0.091,0.59,0c0.182-0.061,0.303-0.212,0.363-0.454c0.091-0.242,0.076-0.605-0.045-1.09l-1.816-10.445
					l2.498,1.362c0.394,0.242,0.742,0.363,1.044,0.363c0.303-0.061,0.545-0.257,0.727-0.59l3.542-6.857l3.542,6.857
					c0.182,0.333,0.439,0.53,0.772,0.59c0.303,0,0.651-0.121,1.044-0.363l2.543-1.362l-1.907,10.445
					c-0.121,0.484-0.136,0.848-0.045,1.09c0.091,0.242,0.227,0.394,0.409,0.454c0.182,0.091,0.363,0.091,0.545,0
					c0.212-0.121,0.409-0.273,0.59-0.454l4.405-5.177l0.772,2.634C154.08,670.192,154.171,670.343,154.322,670.464"/>
			</g>
		</g>
		<g>
			<path class="st0" d="M96.469,391.363h89.688c2.929,0,5.665-1.459,7.297-3.892l9.47-14.119l-6.546-1.186
				c-0.908-0.146-1.567-0.454-1.977-0.923c-0.263-0.351-0.439-0.996-0.527-1.933c0-0.791,0-1.816,0-3.075l-0.132-17.133
				l-15.199,7.776c-0.849,0.381-1.508,0.425-1.977,0.132c-0.615-0.234-1.04-0.586-1.274-1.054l-4.349-6.809l-6.804,13.458
				c-0.907,1.793-3.627,0.906-3.302-1.077l3.869-23.628l-7.512,4.129c-1.142,0.615-2.152,0.923-3.031,0.923
				c-1.054-0.088-1.845-0.659-2.372-1.713l-10.543-20.427l-10.543,20.427c-0.615,1.054-1.362,1.625-2.24,1.713
				c-0.967,0-2.021-0.307-3.163-0.923l-7.336-4.129l3.901,24.159c0.32,1.982-2.399,2.865-3.303,1.072l-6.968-13.809l-4.173,7.161
				c-0.322,0.439-0.761,0.776-1.318,1.01c-0.615,0.293-1.274,0.249-1.977-0.132l-15.244-7.776l-0.175,17.176
				c0.029,1.289,0.044,2.328,0.044,3.119c-0.088,0.908-0.308,1.523-0.659,1.845c-0.293,0.469-0.908,0.776-1.845,0.923l-6.502,1.23
				l9.504,13.705C90.891,389.951,93.588,391.363,96.469,391.363z"/>
		</g>
		<g>
			<g>
				<path class="st0" d="M215.865,494.739c-2.752,0-4.983-2.231-4.983-4.984c0-5.359-1.855-9.82-5.672-13.636
					c-3.737-3.76-8.15-5.583-13.503-5.583c-5.343,0-9.778,1.815-13.555,5.547c-0.515,0.542-1.005,1.084-1.469,1.627
					c-2.802,3.405-4.195,7.37-4.195,12.046c0,2.752-2.231,4.984-4.983,4.984s-4.983-2.231-4.983-4.984
					c0-6.983,2.197-13.192,6.529-18.456c0.652-0.762,1.281-1.458,1.932-2.142c0.031-0.033,0.063-0.066,0.096-0.098
					c5.67-5.634,12.61-8.491,20.628-8.491c8.03,0,14.948,2.864,20.562,8.513c5.689,5.689,8.58,12.649,8.58,20.673
					C220.848,492.508,218.617,494.739,215.865,494.739z"/>
			</g>
			<g>
				<path class="st0" d="M142.075,556.833c-10.648,0-18.987-11.016-25.494-33.677c-0.626-2.179,0.298-4.506,2.249-5.663
					c1.95-1.156,4.435-0.85,6.047,0.745c4.83,4.781,10.455,7.104,17.198,7.104c6.732,0,12.323-2.318,17.091-7.086
					c1.604-1.605,4.092-1.922,6.048-0.773c1.957,1.15,2.89,3.476,2.27,5.66C161.041,545.813,152.73,556.833,142.075,556.833z
					 M130.68,533.452c5.071,11.861,9.455,13.414,11.396,13.414c1.938,0,6.31-1.551,11.342-13.401
					c-3.539,1.228-7.325,1.845-11.342,1.845C138.044,535.31,134.239,534.688,130.68,533.452z"/>
			</g>
			<g>
				<path class="st0" d="M91.948,518.853c-8.071-0.013-15.036-2.807-20.711-8.447c-0.062-0.062-0.123-0.125-0.182-0.19l-1.695-1.874
					c-0.047-0.052-0.094-0.106-0.139-0.16c-4.371-5.266-6.586-11.466-6.586-18.427c0-6.99,2.216-13.205,6.586-18.471
					c0.045-0.054,0.092-0.108,0.139-0.16l1.695-1.874c0.055-0.061,0.112-0.121,0.17-0.179c5.642-5.642,12.57-8.502,20.595-8.502
					s14.954,2.86,20.595,8.502c5.701,5.7,8.591,12.66,8.591,20.684c0,7.995-2.89,14.939-8.591,20.64
					C106.803,516.008,99.917,518.853,91.948,518.853z M78.352,503.425c3.763,3.698,8.24,5.455,13.573,5.461
					c5.326,0,9.717-1.812,13.443-5.538c3.816-3.816,5.672-8.262,5.672-13.592c0-5.359-1.855-9.82-5.672-13.636
					c-3.756-3.756-8.188-5.583-13.547-5.583c-5.319,0-9.725,1.799-13.463,5.499l-1.531,1.692c-2.843,3.459-4.225,7.394-4.225,12.028
					c0,4.604,1.382,8.524,4.225,11.983L78.352,503.425z"/>
			</g>
		</g>
	</g>
</g>
<g>
	<path class="st0" d="M138.696,285.133c-0.045,0-0.089-0.001-0.135-0.002l-0.124-0.003c-2.436-0.06-4.362-2.084-4.301-4.52
		c0.06-2.436,2.051-4.368,4.52-4.302l0.17,0.005c2.436,0.073,4.351,2.107,4.278,4.542
		C143.032,283.244,141.072,285.133,138.696,285.133z M153.381,284.772c-2.282,0-4.215-1.759-4.394-4.072
		c-0.188-2.43,1.63-4.551,4.059-4.739c9.475-0.732,18.872-2.476,27.931-5.185c2.337-0.698,4.793,0.629,5.491,2.963
		c0.698,2.334-0.628,4.793-2.963,5.491c-9.66,2.888-19.679,4.749-29.779,5.529C153.61,284.767,153.495,284.772,153.381,284.772z
		 M123.907,283.934c-0.197,0-0.396-0.013-0.597-0.04c-10.03-1.356-19.929-3.793-29.42-7.242c-2.29-0.832-3.472-3.364-2.64-5.654
		c0.832-2.29,3.36-3.472,5.653-2.64c8.9,3.234,18.183,5.519,27.589,6.791c2.415,0.327,4.107,2.549,3.781,4.964
		C127.975,282.327,126.082,283.934,123.907,283.934z M196.128,274.432c-1.726,0-3.374-1.003-4.084-2.684
		c-0.948-2.243,0.067-4.815,2.308-5.765l0.135-0.057c2.243-0.951,4.833,0.096,5.784,2.34c0.951,2.243-0.097,4.833-2.34,5.784
		c-0.003,0.001-0.074,0.031-0.077,0.032C197.292,274.319,196.706,274.432,196.128,274.432z M81.866,271.165
		c-0.657,0-1.324-0.147-1.952-0.458l-0.097-0.048c-2.194-1.061-3.112-3.699-2.052-5.893c1.061-2.193,3.699-3.113,5.893-2.052
		l0.167,0.082c2.184,1.08,3.08,3.726,2,5.911C85.055,270.263,83.492,271.165,81.866,271.165z M209.428,267.981
		c-1.553,0-3.059-0.821-3.864-2.276c-1.18-2.132-0.409-4.817,1.723-5.997c8.283-4.585,16.107-10.076,23.257-16.32
		c1.835-1.603,4.623-1.414,6.226,0.421c1.603,1.835,1.414,4.623-0.421,6.225c-7.62,6.654-15.959,12.506-24.788,17.394
		C210.884,267.803,210.151,267.981,209.428,267.981z M68.904,263.923c-0.805,0-1.62-0.22-2.352-0.682
		c-8.537-5.391-16.528-11.714-23.752-18.793c-1.74-1.705-1.769-4.499-0.063-6.239c1.705-1.74,4.497-1.77,6.239-0.063
		c6.779,6.643,14.278,12.576,22.288,17.635c2.06,1.301,2.676,4.026,1.375,6.086C71.8,263.196,70.368,263.923,68.904,263.923z
		 M243.989,240.884c-1.067,0-2.137-0.385-2.984-1.163c-1.794-1.649-1.912-4.44-0.263-6.234l0.109-0.119
		c1.655-1.788,4.447-1.897,6.235-0.242c1.789,1.655,1.897,4.446,0.243,6.235l-0.09,0.097
		C246.369,240.404,245.18,240.884,243.989,240.884z M35.953,234.883c-1.271,0-2.532-0.546-3.404-1.603l-0.106-0.129
		c-1.543-1.886-1.265-4.666,0.621-6.209c1.885-1.543,4.665-1.266,6.208,0.621l0.081,0.098c1.552,1.879,1.286,4.66-0.592,6.211
		C37.938,234.552,36.942,234.883,35.953,234.883z M253.479,229.471c-0.917,0-1.841-0.284-2.632-0.874
		c-1.955-1.455-2.359-4.219-0.903-6.174c5.674-7.617,10.539-15.848,14.461-24.462c1.009-2.217,3.625-3.198,5.844-2.187
		c2.218,1.01,3.197,3.626,2.188,5.844c-4.182,9.184-9.368,17.958-15.415,26.077C256.154,228.857,254.825,229.471,253.479,229.471z
		 M27.135,222.946c-1.434,0-2.84-0.698-3.688-1.985c-5.571-8.453-10.242-17.511-13.884-26.923c-0.879-2.272,0.25-4.827,2.522-5.707
		c2.273-0.879,4.828,0.25,5.707,2.523c3.416,8.827,7.797,17.323,13.022,25.251c1.341,2.035,0.778,4.771-1.256,6.112
		C28.812,222.71,27.969,222.946,27.135,222.946z M273.778,190.471c-0.442,0-0.891-0.068-1.334-0.211
		c-2.319-0.749-3.605-3.194-2.856-5.513l0.054-0.163c0.771-2.312,3.271-3.57,5.584-2.798c2.312,0.771,3.563,3.26,2.793,5.572
		c0,0-0.006,0.018-0.006,0.018C277.406,189.253,275.653,190.471,273.778,190.471z M9.114,182.889c-1.948,0-3.73-1.3-4.259-3.271
		l-0.038-0.142c-0.631-2.354,0.766-4.773,3.12-5.404c2.351-0.63,4.773,0.765,5.404,3.119l0.038,0.142
		c0.631,2.354-0.766,4.773-3.12,5.404C9.876,182.84,9.492,182.889,9.114,182.889z M277.692,176.19c-0.307,0-0.619-0.032-0.932-0.099
		c-2.382-0.512-3.898-2.859-3.386-5.241c1.983-9.225,2.989-18.732,2.989-28.257c0-2.437,1.976-4.412,4.412-4.412
		s4.412,1.975,4.412,4.412c0,10.147-1.072,20.279-3.187,30.112C281.556,174.775,279.727,176.19,277.692,176.19z M6.048,168.367
		c-2.138,0-4.016-1.557-4.354-3.736C0.57,157.391,0,149.977,0,142.593c0-2.729,0.078-5.49,0.232-8.204
		c0.138-2.433,2.206-4.292,4.655-4.155c2.433,0.138,4.293,2.222,4.155,4.655c-0.145,2.549-0.218,5.141-0.218,7.704
		c0,6.932,0.535,13.891,1.589,20.684c0.374,2.408-1.275,4.663-3.683,5.037C6.501,168.35,6.272,168.367,6.048,168.367z
		 M280.122,133.527c-2.245,0-4.165-1.706-4.386-3.987c-0.916-9.454-2.844-18.815-5.731-27.823c-0.744-2.32,0.535-4.804,2.855-5.548
		c2.32-0.744,4.804,0.534,5.548,2.855c3.079,9.605,5.135,19.587,6.111,29.666c0.235,2.425-1.541,4.582-3.966,4.817
		C280.408,133.52,280.264,133.527,280.122,133.527z M6.25,124.445c-0.234,0-0.471-0.019-0.709-0.057
		c-2.405-0.389-4.04-2.654-3.651-5.059l0.031-0.188c0.413-2.402,2.697-4.016,5.095-3.602c2.402,0.412,4.014,2.694,3.602,5.095
		l-0.017,0.102C10.25,122.904,8.376,124.445,6.25,124.445z M9.439,109.952c-0.391,0-0.788-0.052-1.183-0.162
		c-2.348-0.652-3.723-3.084-3.07-5.432c2.702-9.733,6.465-19.207,11.183-28.159c1.136-2.155,3.803-2.983,5.96-1.846
		c2.156,1.136,2.982,3.804,1.846,5.96c-4.425,8.395-7.954,17.28-10.488,26.406C13.146,108.672,11.372,109.952,9.439,109.952z
		 M268.979,91.049c-1.697,0-3.315-0.985-4.042-2.638l-0.047-0.105c-0.996-2.224-0.001-4.834,2.222-5.831
		c2.224-0.996,4.834-0.002,5.831,2.222l0.072,0.163c0.98,2.231-0.033,4.834-2.264,5.814
		C270.174,90.929,269.572,91.049,268.979,91.049z M262.243,77.829c-1.522,0-3.003-0.789-3.821-2.201
		c-4.747-8.192-10.39-15.909-16.771-22.936c-1.638-1.804-1.504-4.594,0.3-6.232c1.805-1.638,4.595-1.504,6.232,0.3
		c6.801,7.488,12.814,15.713,17.874,24.444c1.222,2.108,0.503,4.808-1.605,6.029C263.755,77.637,262.994,77.829,262.243,77.829z
		 M27.805,70.049c-0.845,0-1.699-0.242-2.454-0.748c-2.023-1.357-2.564-4.098-1.207-6.122l0.082-0.122
		c1.357-2.024,4.099-2.563,6.122-1.207c2.023,1.357,2.564,4.098,1.207,6.122l-0.082,0.122
		C30.622,69.363,29.226,70.049,27.805,70.049z M36.732,58.186c-1.001,0-2.008-0.339-2.835-1.034
		c-1.866-1.567-2.108-4.35-0.541-6.216c6.499-7.738,13.839-14.804,21.816-21.003c1.923-1.494,4.696-1.148,6.191,0.777
		c1.495,1.924,1.147,4.696-0.777,6.191c-7.486,5.817-14.375,12.449-20.474,19.711C39.241,57.65,37.991,58.186,36.732,58.186z
		 M234.438,43.784c-1.026,0-2.056-0.361-2.89-1.1l-0.11-0.098c-1.823-1.617-1.991-4.405-0.374-6.228
		c1.617-1.824,4.405-1.99,6.229-0.374c0.002,0.002,0.059,0.052,0.061,0.054c1.819,1.619,2.01,4.43,0.393,6.25
		C236.869,43.276,235.655,43.784,234.438,43.784z M222.875,34.527c-0.888,0-1.785-0.267-2.562-0.823
		c-7.725-5.524-16.049-10.228-24.74-13.98c-2.237-0.966-3.268-3.562-2.302-5.8c0.966-2.238,3.564-3.267,5.8-2.302
		c9.266,4.001,18.139,9.015,26.375,14.903c1.982,1.417,2.44,4.173,1.022,6.155C225.606,33.886,224.251,34.527,222.875,34.527z
		 M69.949,29.441c-1.479,0-2.924-0.743-3.758-2.094c-1.28-2.073-0.638-4.792,1.436-6.072l0.108-0.067
		c2.067-1.29,4.788-0.658,6.078,1.409c1.29,2.068,0.658,4.789-1.409,6.078l-0.141,0.087C71.541,29.228,70.74,29.441,69.949,29.441z
		 M82.964,22.319c-1.645,0-3.224-0.924-3.982-2.507c-1.053-2.198-0.125-4.832,2.073-5.885c9.12-4.369,18.729-7.766,28.562-10.094
		c2.369-0.562,4.748,0.905,5.31,3.277c0.562,2.371-0.906,4.749-3.277,5.31c-9.219,2.183-18.23,5.368-26.783,9.465
		C84.253,22.179,83.604,22.319,82.964,22.319z M183.524,14.989c-0.42,0-0.849-0.061-1.274-0.191
		c-0.007-0.002-0.101-0.031-0.107-0.033c-2.326-0.719-3.657-3.196-2.939-5.523s3.158-3.642,5.485-2.926
		c0.002,0.001,0.059,0.018,0.062,0.019c2.324,0.719,3.671,3.197,2.958,5.522C187.125,13.758,185.404,14.989,183.524,14.989z
		 M169.139,11.371c-0.279,0-0.563-0.027-0.847-0.082c-9.259-1.801-18.838-2.618-28.313-2.44c-2.424,0.063-4.448-1.891-4.495-4.327
		c-0.046-2.436,1.891-4.449,4.327-4.495c10.081-0.194,20.298,0.681,30.166,2.601c2.392,0.465,3.954,2.781,3.489,5.173
		C173.055,9.908,171.208,11.371,169.139,11.371z M125.088,9.922c-2.193,0-4.094-1.633-4.373-3.865
		c-0.302-2.418,1.413-4.623,3.831-4.925l0.119-0.015c2.422-0.319,4.632,1.385,4.949,3.8c0.317,2.416-1.384,4.632-3.8,4.949
		l-0.173,0.022C125.456,9.91,125.271,9.922,125.088,9.922z"/>
</g>
<g>
	<path class="st0" d="M84.664,90.694c1.192,0,1.789,0.596,1.789,1.788v0.141c0,1.412-0.244,2.706-0.729,3.883
		c-0.487,1.177-1.169,2.188-2.047,3.035c-0.878,0.847-1.929,1.506-3.153,1.977s-2.558,0.706-4,0.706
		c-1.475,0-2.832-0.212-4.071-0.635c-1.24-0.424-2.314-1.066-3.224-1.929c-0.91-0.863-1.624-1.937-2.141-3.224
		c-0.518-1.286-0.777-2.792-0.777-4.518V78.552c0-1.725,0.259-3.231,0.777-4.518c0.518-1.286,1.231-2.361,2.141-3.224
		c0.91-0.863,1.984-1.506,3.224-1.929c1.239-0.424,2.596-0.635,4.071-0.635c1.443,0,2.777,0.235,4,0.706s2.274,1.129,3.153,1.977
		c0.878,0.847,1.561,1.859,2.047,3.035c0.486,1.177,0.729,2.471,0.729,3.883v0.141c0,1.193-0.596,1.788-1.789,1.788h-2.023
		c-1.067,0-1.6-0.533-1.6-1.6c0-1.412-0.393-2.565-1.177-3.459c-0.785-0.894-1.882-1.341-3.294-1.341
		c-0.659,0-1.279,0.094-1.859,0.282c-0.581,0.188-1.099,0.502-1.553,0.941c-0.455,0.44-0.808,1.028-1.059,1.765
		c-0.251,0.738-0.376,1.655-0.376,2.753v12.236c0,1.099,0.125,2.016,0.376,2.753c0.251,0.738,0.604,1.326,1.059,1.765
		c0.455,0.44,0.972,0.753,1.553,0.941c0.58,0.188,1.2,0.282,1.859,0.282c1.412,0,2.509-0.447,3.294-1.341
		c0.784-0.894,1.177-2.047,1.177-3.459c0-1.066,0.533-1.6,1.6-1.6H84.664z"/>
	<path class="st0" d="M98.735,97.142c0.25,0,0.462-0.007,0.635-0.024c0.172-0.015,0.4-0.054,0.682-0.117
		c0.565-0.094,0.988,0.016,1.271,0.329c0.282,0.314,0.423,0.753,0.423,1.318v1.365c0,0.565-0.134,0.965-0.4,1.2
		c-0.267,0.235-0.635,0.4-1.106,0.494c-0.44,0.094-0.855,0.148-1.247,0.165c-0.393,0.015-0.761,0.023-1.106,0.023
		c-0.911,0-1.734-0.11-2.471-0.329c-0.738-0.219-1.373-0.58-1.906-1.083c-0.534-0.501-0.941-1.168-1.224-2
		c-0.282-0.831-0.423-1.843-0.423-3.036v-25.46c0-1.129,0.564-1.694,1.694-1.694h1.694c1.13,0,1.694,0.565,1.694,1.694v25.084
		c0,0.816,0.188,1.365,0.565,1.647S98.295,97.142,98.735,97.142z"/>
	<path class="st0" d="M105.652,70.458c0-1.13,0.565-1.694,1.694-1.694h1.694c1.129,0,1.694,0.565,1.694,1.694v1.6
		c0,1.129-0.565,1.694-1.694,1.694h-1.694c-1.129,0-1.694-0.565-1.694-1.694V70.458z M105.652,78.6c0-1.13,0.565-1.694,1.694-1.694
		h1.694c1.129,0,1.694,0.565,1.694,1.694v21.413c0,1.13-0.565,1.694-1.694,1.694h-1.694c-1.129,0-1.694-0.565-1.694-1.694V78.6z"/>
	<path class="st0" d="M121.605,93.565c0,1.506,0.306,2.534,0.917,3.083c0.612,0.549,1.357,0.823,2.236,0.823
		c0.909,0,1.624-0.282,2.141-0.847c0.518-0.565,0.776-1.318,0.776-2.259c0-0.972,0.486-1.459,1.459-1.459h1.93
		c1.129,0,1.694,0.565,1.694,1.694c0,1.161-0.196,2.212-0.588,3.153c-0.393,0.941-0.941,1.741-1.647,2.4
		c-0.706,0.659-1.553,1.169-2.541,1.53c-0.988,0.36-2.063,0.541-3.224,0.541c-1.193,0-2.291-0.173-3.294-0.518
		c-1.004-0.345-1.867-0.863-2.588-1.553c-0.722-0.69-1.294-1.561-1.718-2.612c-0.424-1.051-0.635-2.266-0.635-3.647v-9.177
		c0-1.38,0.211-2.596,0.635-3.647c0.423-1.051,0.996-1.921,1.718-2.612c0.721-0.69,1.584-1.207,2.588-1.553
		c1.003-0.345,2.102-0.518,3.294-0.518c1.16,0,2.235,0.181,3.224,0.541c0.988,0.361,1.835,0.871,2.541,1.529
		c0.706,0.659,1.255,1.459,1.647,2.4c0.392,0.941,0.588,1.993,0.588,3.153c0,1.129-0.564,1.694-1.694,1.694h-1.93
		c-0.973,0-1.459-0.486-1.459-1.459c0-0.941-0.259-1.694-0.776-2.259s-1.232-0.847-2.141-0.847c-0.879,0-1.624,0.275-2.236,0.823
		c-0.612,0.549-0.917,1.577-0.917,3.083V93.565z"/>
	<path class="st0" d="M145.23,91.165l-2.023,2.635v6.212c0,1.13-0.565,1.694-1.694,1.694h-1.694c-1.129,0-1.694-0.565-1.694-1.694
		V69.94c0-1.129,0.565-1.694,1.694-1.694h1.694c1.129,0,1.694,0.565,1.694,1.694v17.13l6.024-8.895
		c0.282-0.439,0.588-0.76,0.917-0.965c0.33-0.204,0.808-0.306,1.436-0.306h2.4c0.596,0,0.965,0.22,1.106,0.659
		c0.141,0.44,0.055,0.847-0.259,1.224l-6.354,8.142l6.589,12.942c0.25,0.44,0.282,0.855,0.094,1.247
		c-0.188,0.393-0.565,0.588-1.129,0.588h-2.165c-0.628,0-1.09-0.102-1.388-0.306c-0.299-0.204-0.558-0.525-0.777-0.965
		L145.23,91.165z"/>
	<path class="st0" d="M197.279,100.012c0,1.13-0.564,1.694-1.694,1.694h-1.694c-1.13,0-1.694-0.565-1.694-1.694V84.812
		c0-1.412-0.291-2.377-0.871-2.894c-0.581-0.518-1.279-0.777-2.094-0.777c-0.816,0-1.514,0.259-2.094,0.777
		c-0.581,0.518-0.871,1.482-0.871,2.894v15.201c0,1.13-0.565,1.694-1.694,1.694h-1.694c-1.129,0-1.694-0.565-1.694-1.694V84.812
		c0-1.412-0.29-2.377-0.871-2.894c-0.581-0.518-1.278-0.777-2.094-0.777s-1.514,0.259-2.094,0.777
		c-0.581,0.518-0.871,1.482-0.871,2.894v15.201c0,1.13-0.564,1.694-1.694,1.694h-1.694c-1.129,0-1.694-0.565-1.694-1.694V83.87
		c0-1.254,0.188-2.345,0.565-3.271c0.376-0.925,0.894-1.701,1.553-2.33c0.659-0.627,1.436-1.098,2.33-1.412
		c0.894-0.313,1.875-0.47,2.941-0.47c1.412,0,2.643,0.306,3.694,0.918c1.051,0.612,1.875,1.482,2.471,2.612
		c0.596-1.129,1.419-2,2.471-2.612c1.051-0.612,2.283-0.918,3.694-0.918c1.066,0,2.047,0.157,2.941,0.47
		c0.894,0.314,1.671,0.785,2.33,1.412c0.659,0.628,1.177,1.405,1.553,2.33c0.376,0.926,0.564,2.016,0.564,3.271V100.012z"/>
	<path class="st0" d="M213.938,94.836c0-0.972,0.486-1.459,1.459-1.459h1.93c1.129,0,1.694,0.565,1.694,1.694
		c0,2.134-0.729,3.859-2.188,5.177c-1.459,1.318-3.396,1.977-5.812,1.977c-1.193,0-2.291-0.173-3.294-0.518
		c-1.004-0.345-1.867-0.863-2.588-1.553c-0.722-0.69-1.294-1.561-1.718-2.612c-0.424-1.051-0.635-2.266-0.635-3.647v-9.177
		c0-1.38,0.211-2.596,0.635-3.647c0.423-1.051,0.996-1.921,1.718-2.612c0.721-0.69,1.584-1.207,2.588-1.553
		c1.003-0.345,2.102-0.518,3.294-0.518c1.16,0,2.25,0.173,3.271,0.518c1.019,0.346,1.89,0.863,2.612,1.553
		c0.722,0.691,1.294,1.561,1.718,2.612c0.424,1.052,0.635,2.267,0.635,3.647v4c0,1.129-0.564,1.694-1.694,1.694h-9.695v3.153
		c0,1.506,0.306,2.534,0.917,3.083c0.612,0.549,1.357,0.823,2.236,0.823c0.909,0,1.624-0.235,2.141-0.706
		C213.68,96.295,213.938,95.652,213.938,94.836z M207.868,86.6h6.306v-1.553c0-1.506-0.306-2.533-0.917-3.083
		c-0.612-0.549-1.357-0.823-2.235-0.823c-0.879,0-1.624,0.275-2.236,0.823c-0.612,0.549-0.917,1.577-0.917,3.083V86.6z"/>
	<path class="st0" d="M91.535,138.015c0,1.381-0.212,2.596-0.635,3.647c-0.424,1.052-0.997,1.922-1.718,2.612
		c-0.722,0.69-1.593,1.208-2.612,1.553c-1.02,0.345-2.111,0.518-3.271,0.518c-1.193,0-2.291-0.173-3.294-0.518
		c-1.004-0.345-1.875-0.831-2.612-1.459c-0.737-0.627-1.311-1.404-1.718-2.33c-0.408-0.925-0.612-1.984-0.612-3.177v-0.094
		c0-2.353,0.706-4.188,2.118-5.506c1.412-1.318,3.451-1.977,6.118-1.977h3.153v-2.118c0-1.506-0.306-2.533-0.918-3.083
		c-0.612-0.549-1.357-0.823-2.235-0.823c-0.91,0-1.584,0.243-2.023,0.729c-0.44,0.487-0.659,1.075-0.659,1.765
		c0,0.973-0.487,1.459-1.459,1.459h-1.929c-1.129,0-1.694-0.565-1.694-1.694c0-1.004,0.18-1.93,0.541-2.777
		c0.36-0.847,0.878-1.584,1.553-2.212c0.674-0.627,1.49-1.122,2.447-1.482c0.957-0.36,2.031-0.541,3.224-0.541
		c1.16,0,2.251,0.173,3.271,0.518c1.019,0.346,1.89,0.863,2.612,1.553c0.721,0.691,1.294,1.561,1.718,2.612
		c0.423,1.052,0.635,2.267,0.635,3.647V138.015z M83.299,141.591c0.878,0,1.624-0.274,2.235-0.823
		c0.612-0.549,0.918-1.577,0.918-3.083v-2.588h-3.153c-0.879,0-1.624,0.243-2.235,0.729c-0.612,0.487-0.918,1.326-0.918,2.518
		c0,1.193,0.306,2.032,0.918,2.518C81.675,141.349,82.42,141.591,83.299,141.591z"/>
	<path class="st0" d="M111.818,145.827h-1.694c-1.129,0-1.694-0.565-1.694-1.694v-14.966c0-1.506-0.306-2.533-0.918-3.083
		c-0.612-0.549-1.357-0.823-2.235-0.823c-0.879,0-1.624,0.275-2.235,0.823c-0.612,0.549-0.918,1.577-0.918,3.083v14.966
		c0,1.13-0.564,1.694-1.694,1.694h-1.694c-1.129,0-1.694-0.565-1.694-1.694v-15.295c0-1.38,0.212-2.596,0.635-3.647
		c0.424-1.051,0.996-1.921,1.718-2.612c0.722-0.69,1.584-1.207,2.588-1.553c1.004-0.345,2.102-0.518,3.294-0.518
		c1.16,0,2.251,0.173,3.271,0.518c1.019,0.346,1.89,0.863,2.612,1.553c0.721,0.691,1.294,1.561,1.718,2.612
		c0.423,1.052,0.635,2.267,0.635,3.647v15.295C113.512,145.262,112.947,145.827,111.818,145.827z"/>
	<path class="st0" d="M119.018,128.273c0-2.636,0.635-4.589,1.906-5.859c1.271-1.271,2.878-1.906,4.824-1.906
		c0.941,0,1.812,0.157,2.612,0.47c0.8,0.314,1.483,0.816,2.047,1.506v-8.377c0-1.129,0.565-1.694,1.694-1.694h1.694
		c1.129,0,1.694,0.565,1.694,1.694v23.907c0,1.412-0.211,2.644-0.635,3.694c-0.423,1.052-0.996,1.914-1.718,2.588
		c-0.722,0.675-1.593,1.185-2.612,1.53c-1.02,0.345-2.11,0.518-3.271,0.518c-1.193,0-2.291-0.173-3.294-0.518
		c-1.004-0.345-1.867-0.854-2.588-1.53c-0.722-0.674-1.294-1.537-1.718-2.588c-0.424-1.051-0.635-2.282-0.635-3.694V128.273z
		 M124.101,137.685c0,1.506,0.306,2.534,0.917,3.083c0.612,0.549,1.357,0.823,2.236,0.823c0.878,0,1.624-0.274,2.235-0.823
		c0.612-0.549,0.917-1.577,0.917-3.083v-8.518c0-1.506-0.306-2.533-0.917-3.083c-0.612-0.549-1.357-0.823-2.235-0.823
		c-0.879,0-1.624,0.275-2.236,0.823c-0.612,0.549-0.917,1.577-0.917,3.083V137.685z"/>
	<path class="st0" d="M161.654,127.426c0-0.69-0.235-1.224-0.706-1.6c-0.47-0.376-1.114-0.565-1.929-0.565
		c-0.816,0-1.459,0.188-1.93,0.565s-0.706,0.973-0.706,1.788v0.094c0,0.816,0.267,1.459,0.8,1.929
		c0.533,0.471,1.192,0.887,1.977,1.247c0.784,0.361,1.647,0.722,2.588,1.083c0.941,0.361,1.804,0.832,2.588,1.412
		c0.784,0.581,1.443,1.334,1.977,2.259c0.533,0.926,0.8,2.141,0.8,3.647c0,1.129-0.204,2.134-0.611,3.012
		c-0.408,0.879-0.965,1.616-1.671,2.212c-0.706,0.596-1.553,1.052-2.542,1.365s-2.063,0.47-3.224,0.47
		c-1.193,0-2.275-0.173-3.247-0.518c-0.973-0.345-1.812-0.807-2.518-1.388c-0.706-0.58-1.255-1.278-1.647-2.094
		c-0.393-0.815-0.588-1.694-0.588-2.635v-0.282c0-1.129,0.565-1.694,1.694-1.694h1.93c0.972,0,1.458,0.487,1.458,1.459
		c0,0.816,0.267,1.42,0.8,1.812c0.533,0.393,1.239,0.588,2.118,0.588c0.878,0,1.592-0.188,2.142-0.565
		c0.548-0.376,0.823-1.019,0.823-1.929v-0.094c0-0.815-0.267-1.451-0.8-1.906c-0.534-0.454-1.193-0.854-1.977-1.2
		c-0.785-0.345-1.647-0.69-2.588-1.035c-0.941-0.345-1.805-0.807-2.588-1.388c-0.785-0.58-1.444-1.325-1.977-2.235
		c-0.534-0.91-0.8-2.118-0.8-3.624c0-2.259,0.713-4.008,2.141-5.247c1.428-1.239,3.287-1.859,5.577-1.859
		c1.16,0,2.212,0.173,3.153,0.518c0.941,0.346,1.749,0.824,2.424,1.436c0.674,0.612,1.2,1.318,1.577,2.118s0.564,1.671,0.564,2.612
		c0,1.13-0.564,1.694-1.694,1.694h-1.93C162.141,128.885,161.654,128.399,161.654,127.426z"/>
	<path class="st0" d="M182.926,138.956c0-0.972,0.486-1.459,1.459-1.459h1.93c1.129,0,1.694,0.565,1.694,1.694
		c0,2.134-0.729,3.859-2.188,5.177c-1.459,1.318-3.396,1.977-5.812,1.977c-1.193,0-2.291-0.173-3.294-0.518
		c-1.004-0.345-1.867-0.863-2.588-1.553c-0.722-0.69-1.294-1.561-1.718-2.612c-0.424-1.051-0.635-2.266-0.635-3.647v-9.177
		c0-1.38,0.211-2.596,0.635-3.647c0.423-1.051,0.996-1.921,1.718-2.612c0.721-0.69,1.584-1.207,2.588-1.553
		c1.003-0.345,2.102-0.518,3.294-0.518c1.16,0,2.25,0.173,3.271,0.518c1.019,0.346,1.89,0.863,2.612,1.553
		c0.722,0.691,1.294,1.561,1.718,2.612c0.424,1.052,0.635,2.267,0.635,3.647v4c0,1.129-0.564,1.694-1.694,1.694h-9.695v3.153
		c0,1.506,0.306,2.534,0.917,3.083c0.612,0.549,1.357,0.823,2.236,0.823c0.909,0,1.624-0.235,2.141-0.706
		C182.667,140.415,182.926,139.772,182.926,138.956z M176.855,130.72h6.306v-1.553c0-1.506-0.306-2.533-0.917-3.083
		c-0.612-0.549-1.357-0.823-2.235-0.823c-0.879,0-1.624,0.275-2.236,0.823c-0.612,0.549-0.917,1.577-0.917,3.083V130.72z"/>
	<path class="st0" d="M204.433,138.956c0-0.972,0.486-1.459,1.459-1.459h1.93c1.129,0,1.694,0.565,1.694,1.694
		c0,2.134-0.729,3.859-2.188,5.177c-1.459,1.318-3.396,1.977-5.812,1.977c-1.193,0-2.291-0.173-3.294-0.518
		c-1.004-0.345-1.867-0.863-2.588-1.553c-0.722-0.69-1.294-1.561-1.718-2.612c-0.424-1.051-0.635-2.266-0.635-3.647v-9.177
		c0-1.38,0.211-2.596,0.635-3.647c0.423-1.051,0.996-1.921,1.718-2.612c0.721-0.69,1.584-1.207,2.588-1.553
		c1.003-0.345,2.102-0.518,3.294-0.518c1.16,0,2.25,0.173,3.271,0.518c1.019,0.346,1.89,0.863,2.612,1.553
		c0.722,0.691,1.294,1.561,1.718,2.612c0.424,1.052,0.635,2.267,0.635,3.647v4c0,1.129-0.564,1.694-1.694,1.694h-9.695v3.153
		c0,1.506,0.306,2.534,0.917,3.083c0.612,0.549,1.357,0.823,2.236,0.823c0.909,0,1.624-0.235,2.141-0.706
		C204.174,140.415,204.433,139.772,204.433,138.956z M198.362,130.72h6.306v-1.553c0-1.506-0.306-2.533-0.917-3.083
		c-0.612-0.549-1.357-0.823-2.235-0.823c-0.879,0-1.624,0.275-2.236,0.823c-0.612,0.549-0.917,1.577-0.917,3.083V130.72z"/>
	<path class="st0" d="M68.263,188.253c0,1.13-0.565,1.694-1.694,1.694h-1.694c-1.129,0-1.694-0.565-1.694-1.694v-30.025
		c0-1.129,0.565-1.694,1.694-1.694h1.694c1.129,0,1.694,0.565,1.694,1.694v8.377c1.098-1.318,2.651-1.977,4.659-1.977
		c0.972,0,1.867,0.157,2.683,0.47c0.815,0.314,1.521,0.793,2.118,1.436c0.596,0.643,1.066,1.451,1.412,2.424
		c0.345,0.973,0.518,2.118,0.518,3.436v15.86c0,1.13-0.564,1.694-1.694,1.694h-1.694c-1.13,0-1.694-0.565-1.694-1.694v-14.966
		c0-1.506-0.306-2.533-0.918-3.083c-0.612-0.549-1.357-0.823-2.235-0.823c-0.878,0-1.624,0.275-2.235,0.823
		c-0.612,0.549-0.917,1.577-0.917,3.083V188.253z"/>
	<path class="st0" d="M101.629,182.135c0,1.412-0.211,2.644-0.635,3.694c-0.423,1.052-0.996,1.914-1.718,2.588
		c-0.722,0.675-1.593,1.185-2.612,1.53c-1.02,0.345-2.11,0.518-3.271,0.518c-1.193,0-2.291-0.173-3.294-0.518
		c-1.004-0.345-1.867-0.854-2.588-1.53c-0.722-0.674-1.294-1.537-1.718-2.588c-0.424-1.051-0.635-2.282-0.635-3.694v-9.177
		c0-1.38,0.211-2.596,0.635-3.647c0.423-1.051,0.996-1.921,1.718-2.612c0.721-0.69,1.584-1.207,2.588-1.553
		c1.003-0.345,2.102-0.518,3.294-0.518c1.16,0,2.25,0.173,3.271,0.518c1.019,0.346,1.89,0.863,2.612,1.553
		c0.722,0.691,1.294,1.561,1.718,2.612c0.424,1.052,0.635,2.267,0.635,3.647V182.135z M96.547,173.287
		c0-1.506-0.306-2.533-0.917-3.083c-0.612-0.549-1.357-0.823-2.235-0.823c-0.879,0-1.624,0.275-2.236,0.823
		c-0.612,0.549-0.917,1.577-0.917,3.083v8.518c0,1.506,0.306,2.534,0.917,3.083c0.612,0.549,1.357,0.823,2.236,0.823
		c0.878,0,1.624-0.274,2.235-0.823c0.612-0.549,0.917-1.577,0.917-3.083V173.287z"/>
	<path class="st0" d="M107.135,166.84c0-1.13,0.565-1.694,1.694-1.694h1.694c1.129,0,1.694,0.565,1.694,1.694v15.201
		c0,1.412,0.29,2.376,0.871,2.894c0.581,0.518,1.278,0.776,2.094,0.776s1.514-0.259,2.094-0.776
		c0.581-0.518,0.871-1.482,0.871-2.894V166.84c0-1.13,0.565-1.694,1.694-1.694h1.694c1.129,0,1.694,0.565,1.694,1.694v15.201
		c0,1.412,0.29,2.376,0.871,2.894c0.58,0.518,1.278,0.776,2.094,0.776c0.815,0,1.513-0.259,2.094-0.776
		c0.58-0.518,0.871-1.482,0.871-2.894V166.84c0-1.13,0.564-1.694,1.694-1.694h1.694c1.13,0,1.694,0.565,1.694,1.694v16.142
		c0,1.255-0.188,2.346-0.564,3.271c-0.376,0.926-0.895,1.702-1.553,2.33c-0.659,0.628-1.436,1.099-2.33,1.412
		s-1.875,0.47-2.941,0.47c-1.412,0-2.644-0.298-3.694-0.894c-1.051-0.596-1.875-1.474-2.471-2.635
		c-0.596,1.161-1.42,2.04-2.471,2.635c-1.051,0.596-2.282,0.894-3.694,0.894c-1.067,0-2.047-0.157-2.941-0.47
		s-1.67-0.784-2.33-1.412c-0.659-0.627-1.176-1.404-1.553-2.33c-0.376-0.925-0.565-2.016-0.565-3.271V166.84z"/>
	<path class="st0" d="M155.278,181.806c0,1.506,0.306,2.534,0.917,3.083c0.612,0.549,1.357,0.823,2.236,0.823
		c0.909,0,1.624-0.282,2.141-0.847c0.518-0.565,0.776-1.318,0.776-2.259c0-0.972,0.486-1.459,1.459-1.459h1.93
		c1.129,0,1.694,0.565,1.694,1.694c0,1.161-0.196,2.212-0.588,3.153c-0.393,0.941-0.941,1.741-1.647,2.4
		c-0.706,0.659-1.553,1.169-2.541,1.53c-0.988,0.36-2.063,0.541-3.224,0.541c-1.193,0-2.291-0.173-3.294-0.518
		c-1.004-0.345-1.867-0.863-2.588-1.553c-0.722-0.69-1.294-1.561-1.718-2.612c-0.424-1.051-0.635-2.266-0.635-3.647v-9.177
		c0-1.38,0.211-2.596,0.635-3.647c0.423-1.051,0.996-1.921,1.718-2.612c0.721-0.69,1.584-1.207,2.588-1.553
		c1.003-0.345,2.102-0.518,3.294-0.518c1.16,0,2.235,0.181,3.224,0.541c0.988,0.361,1.835,0.871,2.541,1.529
		c0.706,0.659,1.255,1.459,1.647,2.4c0.392,0.941,0.588,1.993,0.588,3.153c0,1.129-0.564,1.694-1.694,1.694h-1.93
		c-0.973,0-1.459-0.486-1.459-1.459c0-0.941-0.259-1.694-0.776-2.259s-1.232-0.847-2.141-0.847c-0.879,0-1.624,0.275-2.236,0.823
		c-0.612,0.549-0.917,1.577-0.917,3.083V181.806z"/>
	<path class="st0" d="M187.562,182.135c0,1.412-0.211,2.644-0.635,3.694c-0.423,1.052-0.996,1.914-1.718,2.588
		c-0.722,0.675-1.593,1.185-2.612,1.53c-1.02,0.345-2.11,0.518-3.271,0.518c-1.193,0-2.291-0.173-3.294-0.518
		c-1.004-0.345-1.867-0.854-2.588-1.53c-0.722-0.674-1.294-1.537-1.718-2.588c-0.424-1.051-0.635-2.282-0.635-3.694v-9.177
		c0-1.38,0.211-2.596,0.635-3.647c0.423-1.051,0.996-1.921,1.718-2.612c0.721-0.69,1.584-1.207,2.588-1.553
		c1.003-0.345,2.102-0.518,3.294-0.518c1.16,0,2.25,0.173,3.271,0.518c1.019,0.346,1.89,0.863,2.612,1.553
		c0.722,0.691,1.294,1.561,1.718,2.612c0.424,1.052,0.635,2.267,0.635,3.647V182.135z M182.479,173.287
		c0-1.506-0.306-2.533-0.917-3.083c-0.612-0.549-1.357-0.823-2.235-0.823c-0.879,0-1.624,0.275-2.236,0.823
		c-0.612,0.549-0.917,1.577-0.917,3.083v8.518c0,1.506,0.306,2.534,0.917,3.083c0.612,0.549,1.357,0.823,2.236,0.823
		c0.878,0,1.624-0.274,2.235-0.823c0.612-0.549,0.917-1.577,0.917-3.083V173.287z"/>
	<path class="st0" d="M209.116,182.135c0,1.412-0.211,2.644-0.635,3.694c-0.423,1.052-0.996,1.914-1.718,2.588
		c-0.722,0.675-1.593,1.185-2.612,1.53c-1.02,0.345-2.11,0.518-3.271,0.518c-1.193,0-2.291-0.173-3.294-0.518
		c-1.004-0.345-1.867-0.854-2.588-1.53c-0.722-0.674-1.294-1.537-1.718-2.588c-0.424-1.051-0.635-2.282-0.635-3.694v-9.177
		c0-1.38,0.211-2.596,0.635-3.647c0.423-1.051,0.996-1.921,1.718-2.612c0.721-0.69,1.584-1.207,2.588-1.553
		c1.003-0.345,2.102-0.518,3.294-0.518c1.16,0,2.25,0.173,3.271,0.518c1.019,0.346,1.89,0.863,2.612,1.553
		c0.722,0.691,1.294,1.561,1.718,2.612c0.424,1.052,0.635,2.267,0.635,3.647V182.135z M204.033,173.287
		c0-1.506-0.306-2.533-0.917-3.083c-0.612-0.549-1.357-0.823-2.235-0.823c-0.879,0-1.624,0.275-2.236,0.823
		c-0.612,0.549-0.917,1.577-0.917,3.083v8.518c0,1.506,0.306,2.534,0.917,3.083c0.612,0.549,1.357,0.823,2.236,0.823
		c0.878,0,1.624-0.274,2.235-0.823c0.612-0.549,0.917-1.577,0.917-3.083V173.287z"/>
	<path class="st0" d="M221.587,185.382c0.25,0,0.462-0.007,0.635-0.024c0.172-0.015,0.4-0.054,0.682-0.117
		c0.565-0.094,0.988,0.016,1.271,0.329c0.282,0.314,0.423,0.753,0.423,1.318v1.365c0,0.565-0.134,0.965-0.4,1.2
		c-0.267,0.235-0.635,0.4-1.106,0.494c-0.44,0.094-0.855,0.148-1.247,0.165c-0.393,0.015-0.761,0.023-1.106,0.023
		c-0.911,0-1.734-0.11-2.471-0.329c-0.738-0.219-1.373-0.58-1.906-1.083c-0.534-0.501-0.941-1.168-1.224-2
		c-0.282-0.831-0.423-1.843-0.423-3.036v-25.46c0-1.129,0.564-1.694,1.694-1.694h1.694c1.13,0,1.694,0.565,1.694,1.694v25.084
		c0,0.816,0.188,1.365,0.565,1.647S221.147,185.382,221.587,185.382z"/>
	<path class="st0" d="M109.37,201.124h1.835c1.192,0,1.789,0.596,1.789,1.788v29.366c0,1.193-0.597,1.788-1.789,1.788h-1.835
		c-1.192,0-1.788-0.596-1.788-1.788v-29.366C107.582,201.721,108.178,201.124,109.37,201.124z"/>
	<path class="st0" d="M145.701,226.255c0,1.381-0.212,2.596-0.635,3.647c-0.424,1.052-0.997,1.922-1.718,2.612
		c-0.722,0.69-1.593,1.208-2.612,1.553c-1.02,0.345-2.111,0.518-3.271,0.518c-1.193,0-2.291-0.173-3.294-0.518
		c-1.004-0.345-1.875-0.831-2.612-1.459c-0.737-0.627-1.311-1.404-1.718-2.33c-0.408-0.925-0.612-1.984-0.612-3.177v-0.094
		c0-2.353,0.706-4.188,2.118-5.506c1.412-1.318,3.451-1.977,6.118-1.977h3.153v-2.118c0-1.506-0.306-2.533-0.918-3.083
		c-0.612-0.549-1.357-0.823-2.235-0.823c-0.91,0-1.584,0.243-2.023,0.729c-0.44,0.487-0.659,1.075-0.659,1.765
		c0,0.973-0.487,1.459-1.459,1.459h-1.929c-1.129,0-1.694-0.565-1.694-1.694c0-1.004,0.18-1.93,0.541-2.777
		c0.36-0.847,0.878-1.584,1.553-2.212c0.674-0.627,1.49-1.122,2.447-1.482c0.957-0.36,2.031-0.541,3.224-0.541
		c1.16,0,2.251,0.173,3.271,0.518c1.019,0.346,1.89,0.863,2.612,1.553c0.721,0.691,1.294,1.561,1.718,2.612
		c0.423,1.052,0.635,2.267,0.635,3.647V226.255z M137.465,229.832c0.878,0,1.624-0.274,2.235-0.823
		c0.612-0.549,0.918-1.577,0.918-3.083v-2.588h-3.153c-0.879,0-1.624,0.243-2.235,0.729c-0.612,0.487-0.918,1.326-0.918,2.518
		c0,1.193,0.306,2.032,0.918,2.518C135.842,229.589,136.586,229.832,137.465,229.832z"/>
	<path class="st0" d="M178.314,232.373c0,1.13-0.564,1.694-1.694,1.694h-1.694c-1.13,0-1.694-0.565-1.694-1.694v-15.201
		c0-1.412-0.291-2.377-0.871-2.894c-0.581-0.518-1.279-0.777-2.094-0.777c-0.816,0-1.514,0.259-2.094,0.777
		c-0.581,0.518-0.871,1.482-0.871,2.894v15.201c0,1.13-0.565,1.694-1.694,1.694h-1.694c-1.129,0-1.694-0.565-1.694-1.694v-15.201
		c0-1.412-0.29-2.377-0.871-2.894c-0.581-0.518-1.278-0.777-2.094-0.777s-1.514,0.259-2.094,0.777
		c-0.581,0.518-0.871,1.482-0.871,2.894v15.201c0,1.13-0.564,1.694-1.694,1.694h-1.694c-1.129,0-1.694-0.565-1.694-1.694v-16.142
		c0-1.254,0.188-2.345,0.565-3.271c0.376-0.925,0.894-1.701,1.553-2.33c0.659-0.627,1.436-1.098,2.33-1.412
		c0.894-0.313,1.875-0.47,2.941-0.47c1.412,0,2.643,0.306,3.694,0.918c1.051,0.612,1.875,1.482,2.471,2.612
		c0.596-1.129,1.419-2,2.471-2.612c1.051-0.612,2.283-0.918,3.694-0.918c1.066,0,2.047,0.157,2.941,0.47
		c0.894,0.314,1.671,0.785,2.33,1.412c0.659,0.628,1.177,1.405,1.553,2.33c0.376,0.926,0.564,2.016,0.564,3.271V232.373z"/>
</g>
<g>
	<path class="st0" d="M261.855,404.171c-0.71,0-1.431-0.172-2.1-0.534c-2.142-1.162-2.937-3.84-1.775-5.982l0.051-0.095
		c1.143-2.152,3.813-2.97,5.966-1.827c2.152,1.143,2.97,3.814,1.827,5.966l-0.087,0.164
		C264.938,403.335,263.422,404.171,261.855,404.171z M268.268,390.78c-0.574,0-1.157-0.113-1.719-0.35
		c-2.244-0.95-3.292-3.54-2.342-5.783c3.764-8.889,6.636-18.038,8.534-27.192c0.495-2.386,2.831-3.919,5.216-3.424
		c2.386,0.495,3.919,2.83,3.424,5.216c-2.016,9.718-5.06,19.421-9.049,28.841C271.62,389.769,269.986,390.78,268.268,390.78z
		 M279.31,348.236c-0.148,0-0.296-0.007-0.447-0.022c-2.424-0.244-4.192-2.406-3.949-4.831l0.015-0.144
		c0.243-2.425,2.406-4.193,4.829-3.951c2.425,0.242,4.194,2.405,3.951,4.829l-0.015,0.148
		C283.465,346.539,281.548,348.236,279.31,348.236z M280.04,333.407c-2.432,0-4.406-1.969-4.412-4.402
		c-0.022-9.394-1.008-18.928-2.929-28.339c-0.487-2.388,1.053-4.718,3.44-5.205c2.384-0.489,4.718,1.053,5.205,3.44
		c2.038,9.984,3.083,20.105,3.107,30.083c0.006,2.437-1.965,4.417-4.401,4.423C280.046,333.407,280.043,333.407,280.04,333.407z
		 M273.399,289.943c-1.878,0-3.62-1.209-4.21-3.097l-0.055-0.181c-0.705-2.333,0.615-4.795,2.948-5.5
		c2.334-0.705,4.794,0.615,5.5,2.948l0.031,0.101c0.727,2.326-0.57,4.8-2.896,5.527
		C274.278,289.878,273.835,289.943,273.399,289.943z M268.417,275.949c-1.738,0-3.385-1.033-4.084-2.741
		c-6.375-15.571-13.19-24.925-13.259-25.018c-1.442-1.962-1.023-4.723,0.938-6.167c1.961-1.443,4.719-1.028,6.165,0.931
		c0.303,0.411,7.5,10.248,14.322,26.911c0.923,2.255-0.156,4.832-2.411,5.755C269.54,275.843,268.974,275.949,268.417,275.949z"/>
</g>
</svg>