<!-- Generator: Adobe Illustrator 21.0.0, SVG Export Plug-In  -->
<svg version="1.1"
	 xmlns="http://www.w3.org/2000/svg" xmlns:xlink="http://www.w3.org/1999/xlink" xmlns:a="http://ns.adobe.com/AdobeSVGViewerExtensions/3.0/"
	 x="0px" y="0px" width="261px" height="61px" viewBox="0 0 261 61" style="enable-background:new 0 0 261 61;"
	 xml:space="preserve">
<style type="text/css">
	.st0{fill:#7F7F7F;}
</style>
<defs>
</defs>
<g>
	<g>
		<path class="st0" d="M230.5,61h-200C13.682,61,0,47.317,0,30.5S13.682,0,30.5,0h200C247.317,0,261,13.683,261,30.5
			S247.317,61,230.5,61z M30.5,1C14.233,1,1,14.233,1,30.5S14.233,60,30.5,60h200c16.267,0,29.5-13.233,29.5-29.5S246.767,1,230.5,1
			H30.5z"/>
	</g>
	<g>
		<path class="st0" d="M78.995,26.604c0.606-0.728,1.464-1.092,2.574-1.092c0.537,0,1.031,0.087,1.482,0.261
			c0.451,0.173,0.841,0.438,1.17,0.793c0.329,0.355,0.589,0.802,0.78,1.339c0.19,0.537,0.286,1.17,0.286,1.897v5.382
			c0,0.78-0.117,1.461-0.351,2.041c-0.234,0.581-0.551,1.058-0.949,1.431c-0.399,0.373-0.88,0.654-1.443,0.845
			c-0.563,0.19-1.166,0.286-1.807,0.286c-0.659,0-1.265-0.096-1.82-0.286c-0.555-0.19-1.032-0.472-1.43-0.845
			c-0.399-0.373-0.715-0.85-0.949-1.431c-0.234-0.58-0.351-1.261-0.351-2.041V21.976c0-0.624,0.312-0.936,0.936-0.936h0.936
			c0.624,0,0.936,0.312,0.936,0.936V26.604z M78.995,35.002c0,0.832,0.169,1.4,0.507,1.703c0.338,0.304,0.75,0.455,1.235,0.455
			s0.897-0.151,1.235-0.455c0.338-0.303,0.507-0.871,0.507-1.703v-4.706c0-0.832-0.169-1.399-0.507-1.703
			c-0.338-0.303-0.75-0.455-1.235-0.455s-0.897,0.152-1.235,0.455c-0.338,0.304-0.507,0.871-0.507,1.703V35.002z"/>
		<path class="st0" d="M96.96,35.184c0,0.764-0.117,1.435-0.351,2.016s-0.55,1.062-0.949,1.442c-0.399,0.382-0.88,0.668-1.443,0.858
			c-0.563,0.19-1.166,0.286-1.807,0.286c-0.659,0-1.266-0.096-1.82-0.286s-1.036-0.459-1.443-0.806
			c-0.408-0.347-0.724-0.775-0.949-1.287s-0.338-1.097-0.338-1.755V35.6c0-1.3,0.39-2.313,1.17-3.042
			c0.78-0.728,1.907-1.092,3.38-1.092h1.742v-1.17c0-0.832-0.169-1.399-0.507-1.703c-0.338-0.303-0.75-0.455-1.235-0.455
			c-0.503,0-0.875,0.135-1.118,0.403c-0.243,0.269-0.364,0.594-0.364,0.975c0,0.538-0.269,0.807-0.806,0.807h-1.066
			c-0.624,0-0.936-0.312-0.936-0.937c0-0.555,0.099-1.065,0.299-1.534c0.199-0.468,0.485-0.875,0.858-1.222
			c0.373-0.347,0.823-0.619,1.352-0.819c0.529-0.198,1.122-0.299,1.781-0.299c0.641,0,1.243,0.096,1.807,0.286
			c0.563,0.191,1.044,0.478,1.443,0.858c0.398,0.381,0.715,0.862,0.949,1.442c0.234,0.581,0.351,1.253,0.351,2.016V35.184z
			 M92.411,37.16c0.485,0,0.897-0.151,1.235-0.455c0.338-0.303,0.507-0.871,0.507-1.703v-1.43h-1.742
			c-0.486,0-0.897,0.134-1.235,0.402c-0.338,0.27-0.507,0.732-0.507,1.392s0.169,1.122,0.507,1.391
			C91.514,37.026,91.925,37.16,92.411,37.16z"/>
		<path class="st0" d="M102.576,35.002c0,0.832,0.169,1.4,0.507,1.703c0.338,0.304,0.75,0.455,1.235,0.455
			c0.502,0,0.897-0.156,1.183-0.468c0.286-0.312,0.429-0.729,0.429-1.248c0-0.537,0.269-0.807,0.806-0.807h1.066
			c0.624,0,0.936,0.312,0.936,0.937c0,0.642-0.108,1.222-0.325,1.742c-0.217,0.52-0.52,0.962-0.91,1.325
			c-0.39,0.364-0.858,0.646-1.404,0.846s-1.14,0.299-1.781,0.299c-0.659,0-1.266-0.096-1.82-0.286s-1.031-0.477-1.43-0.858
			c-0.399-0.381-0.715-0.861-0.949-1.442s-0.351-1.252-0.351-2.016v-5.069c0-0.763,0.117-1.435,0.351-2.016
			c0.234-0.58,0.55-1.062,0.949-1.442c0.398-0.381,0.875-0.667,1.43-0.858c0.555-0.19,1.161-0.286,1.82-0.286
			c0.641,0,1.235,0.101,1.781,0.299c0.546,0.2,1.014,0.481,1.404,0.846c0.39,0.363,0.693,0.806,0.91,1.326
			c0.217,0.52,0.325,1.101,0.325,1.741c0,0.624-0.312,0.937-0.936,0.937h-1.066c-0.538,0-0.806-0.269-0.806-0.807
			c0-0.52-0.143-0.936-0.429-1.247c-0.286-0.312-0.681-0.469-1.183-0.469c-0.485,0-0.897,0.152-1.235,0.455
			c-0.338,0.304-0.507,0.871-0.507,1.703V35.002z"/>
		<path class="st0" d="M115.628,33.676l-1.118,1.456v3.433c0,0.624-0.312,0.936-0.936,0.936h-0.936
			c-0.624,0-0.936-0.312-0.936-0.936V21.95c0-0.624,0.312-0.937,0.936-0.937h0.936c0.624,0,0.936,0.312,0.936,0.937v9.464
			l3.328-4.914c0.156-0.242,0.325-0.42,0.507-0.533c0.182-0.112,0.446-0.169,0.793-0.169h1.326c0.329,0,0.533,0.122,0.611,0.364
			c0.078,0.243,0.03,0.468-0.143,0.676l-3.51,4.498l3.64,7.15c0.139,0.242,0.156,0.472,0.052,0.688s-0.312,0.325-0.624,0.325h-1.196
			c-0.347,0-0.603-0.056-0.767-0.169c-0.165-0.112-0.308-0.29-0.429-0.533L115.628,33.676z"/>
		<path class="st0" d="M134.607,39.5c-0.26,0.052-0.498,0.082-0.715,0.091s-0.42,0.013-0.611,0.013c-1.248,0-2.201-0.29-2.86-0.87
			c-0.659-0.581-0.988-1.573-0.988-2.978V23.38c0-0.624,0.312-0.936,0.936-0.936h0.936c0.624,0,0.937,0.312,0.937,0.936v2.418h2.235
			c0.624,0,0.937,0.312,0.937,0.937v0.754c0,0.624-0.312,0.936-0.937,0.936h-2.235v7.124c0,0.538,0.104,0.91,0.312,1.118
			s0.581,0.312,1.118,0.312c0.225,0,0.494-0.025,0.806-0.077c0.312-0.053,0.546,0.009,0.702,0.182
			c0.156,0.174,0.234,0.416,0.234,0.728v0.755c0,0.312-0.074,0.532-0.222,0.662C135.045,39.357,134.85,39.448,134.607,39.5z"/>
		<path class="st0" d="M146.749,35.184c0,0.78-0.116,1.461-0.351,2.041c-0.234,0.581-0.551,1.058-0.949,1.431
			s-0.88,0.654-1.443,0.845c-0.562,0.19-1.166,0.286-1.807,0.286c-0.659,0-1.266-0.096-1.82-0.286s-1.031-0.472-1.43-0.845
			s-0.715-0.85-0.949-1.431c-0.234-0.58-0.352-1.261-0.352-2.041v-5.069c0-0.763,0.117-1.435,0.352-2.016
			c0.234-0.58,0.551-1.062,0.949-1.442s0.875-0.667,1.43-0.858c0.555-0.19,1.161-0.286,1.82-0.286c0.641,0,1.244,0.096,1.807,0.286
			c0.563,0.191,1.045,0.478,1.443,0.858s0.715,0.862,0.949,1.442c0.234,0.581,0.351,1.253,0.351,2.016V35.184z M143.941,30.296
			c0-0.832-0.17-1.399-0.508-1.703c-0.338-0.303-0.75-0.455-1.234-0.455c-0.485,0-0.896,0.152-1.234,0.455
			c-0.339,0.304-0.508,0.871-0.508,1.703v4.706c0,0.832,0.169,1.4,0.508,1.703c0.338,0.304,0.749,0.455,1.234,0.455
			c0.484,0,0.896-0.151,1.234-0.455c0.338-0.303,0.508-0.871,0.508-1.703V30.296z"/>
		<path class="st0" d="M160.763,39.5c-0.26,0.052-0.499,0.082-0.715,0.091c-0.217,0.009-0.421,0.013-0.61,0.013
			c-1.248,0-2.202-0.29-2.861-0.87c-0.658-0.581-0.987-1.573-0.987-2.978V23.38c0-0.624,0.312-0.936,0.937-0.936h0.936
			c0.624,0,0.936,0.312,0.936,0.936v2.418h2.236c0.624,0,0.936,0.312,0.936,0.937v0.754c0,0.624-0.312,0.936-0.936,0.936h-2.236
			v7.124c0,0.538,0.104,0.91,0.312,1.118s0.58,0.312,1.117,0.312c0.226,0,0.494-0.025,0.807-0.077
			c0.312-0.053,0.546,0.009,0.702,0.182c0.155,0.174,0.233,0.416,0.233,0.728v0.755c0,0.312-0.074,0.532-0.221,0.662
			C161.2,39.357,161.006,39.448,160.763,39.5z"/>
		<path class="st0" d="M172.904,35.184c0,0.78-0.117,1.461-0.352,2.041c-0.233,0.581-0.55,1.058-0.948,1.431
			c-0.399,0.373-0.88,0.654-1.442,0.845c-0.564,0.19-1.166,0.286-1.808,0.286c-0.659,0-1.266-0.096-1.82-0.286
			s-1.031-0.472-1.43-0.845c-0.399-0.373-0.716-0.85-0.949-1.431c-0.233-0.58-0.351-1.261-0.351-2.041v-5.069
			c0-0.763,0.117-1.435,0.351-2.016c0.233-0.58,0.55-1.062,0.949-1.442c0.398-0.381,0.875-0.667,1.43-0.858
			c0.555-0.19,1.161-0.286,1.82-0.286c0.642,0,1.243,0.096,1.808,0.286c0.562,0.191,1.043,0.478,1.442,0.858
			c0.398,0.381,0.715,0.862,0.948,1.442c0.234,0.581,0.352,1.253,0.352,2.016V35.184z M170.096,30.296
			c0-0.832-0.168-1.399-0.506-1.703c-0.338-0.303-0.75-0.455-1.235-0.455s-0.897,0.152-1.235,0.455
			c-0.338,0.304-0.507,0.871-0.507,1.703v4.706c0,0.832,0.169,1.4,0.507,1.703c0.338,0.304,0.75,0.455,1.235,0.455
			s0.897-0.151,1.235-0.455c0.338-0.303,0.506-0.871,0.506-1.703V30.296z"/>
		<path class="st0" d="M185.072,35.496c0,0.728-0.096,1.361-0.286,1.897c-0.19,0.538-0.451,0.984-0.78,1.34s-0.719,0.619-1.17,0.793
			c-0.451,0.173-0.945,0.26-1.482,0.26c-1.109,0-1.967-0.364-2.573-1.092v4.264c0,0.624-0.312,0.936-0.937,0.936h-0.936
			c-0.624,0-0.936-0.312-0.936-0.936V30.114c0-0.78,0.116-1.46,0.351-2.041c0.233-0.581,0.55-1.058,0.948-1.431
			c0.398-0.372,0.875-0.653,1.431-0.845c0.555-0.19,1.161-0.286,1.819-0.286c0.642,0,1.244,0.096,1.808,0.286
			c0.563,0.191,1.044,0.473,1.442,0.845c0.398,0.373,0.716,0.85,0.949,1.431c0.234,0.581,0.352,1.261,0.352,2.041V35.496z
			 M182.264,30.296c0-0.832-0.168-1.399-0.506-1.703c-0.339-0.303-0.75-0.455-1.236-0.455c-0.484,0-0.896,0.152-1.234,0.455
			c-0.338,0.304-0.507,0.871-0.507,1.703v4.706c0,0.832,0.169,1.4,0.507,1.703c0.338,0.304,0.75,0.455,1.234,0.455
			c0.486,0,0.897-0.151,1.236-0.455c0.338-0.303,0.506-0.871,0.506-1.703V30.296z"/>
	</g>
</g>
</svg>