<!-- Generator: Adobe Illustrator 21.0.0, SVG Export Plug-In  -->
<svg version="1.1"
	 xmlns="http://www.w3.org/2000/svg" xmlns:xlink="http://www.w3.org/1999/xlink" xmlns:a="http://ns.adobe.com/AdobeSVGViewerExtensions/3.0/"
	 x="0px" y="0px" width="307.595px" height="252.18px" viewBox="0 0 307.595 252.18"
	 style="enable-background:new 0 0 307.595 252.18;" xml:space="preserve">
<style type="text/css">
	.st0{fill:#7F7F7F;}
</style>
<defs>
</defs>
<g>
	<path class="st0" d="M50.36,19.841c0.64,0,0.96,0.293,0.96,0.88v0.12c0,1.253-0.2,2.373-0.6,3.359
		c-0.4,0.987-0.954,1.827-1.66,2.521c-0.707,0.693-1.547,1.227-2.52,1.6c-0.974,0.373-2.034,0.561-3.18,0.561
		c-1.174,0-2.26-0.174-3.26-0.521c-1-0.346-1.86-0.873-2.58-1.58c-0.72-0.706-1.287-1.58-1.7-2.62c-0.414-1.04-0.62-2.266-0.62-3.68
		V8.4c0-1.386,0.207-2.606,0.62-3.66c0.413-1.053,0.98-1.933,1.7-2.64c0.72-0.706,1.58-1.233,2.58-1.58S42.186,0,43.36,0
		c1.146,0,2.206,0.188,3.18,0.561c0.973,0.374,1.813,0.907,2.52,1.6c0.706,0.694,1.26,1.534,1.66,2.521s0.6,2.106,0.6,3.359v0.12
		c0,0.587-0.32,0.88-0.96,0.88h-0.92c-0.587,0-0.88-0.279-0.88-0.84c0-1.866-0.5-3.266-1.5-4.2c-1-0.933-2.234-1.399-3.7-1.399
		c-0.747,0-1.454,0.106-2.12,0.32c-0.667,0.213-1.247,0.566-1.74,1.06c-0.494,0.494-0.88,1.134-1.16,1.92
		c-0.28,0.787-0.42,1.74-0.42,2.86V20.12c0,1.12,0.14,2.074,0.42,2.86c0.28,0.787,0.667,1.427,1.16,1.92
		c0.493,0.494,1.073,0.847,1.74,1.06c0.667,0.214,1.373,0.32,2.12,0.32c1.466,0,2.7-0.466,3.7-1.399s1.5-2.334,1.5-4.2
		c0-0.561,0.293-0.84,0.88-0.84H50.36z"/>
	<path class="st0" d="M69.4,22.04c0,1.147-0.167,2.147-0.5,3c-0.334,0.854-0.8,1.567-1.4,2.141c-0.6,0.573-1.3,1-2.1,1.279
		c-0.8,0.28-1.68,0.421-2.64,0.421c-0.934,0-1.807-0.141-2.62-0.421c-0.813-0.279-1.514-0.706-2.1-1.279
		c-0.587-0.573-1.047-1.286-1.38-2.141c-0.333-0.853-0.5-1.853-0.5-3v-8.279c0-1.146,0.167-2.146,0.5-3
		c0.333-0.854,0.793-1.566,1.38-2.141c0.586-0.573,1.287-1,2.1-1.279c0.813-0.28,1.687-0.42,2.62-0.42c0.96,0,1.84,0.14,2.64,0.42
		c0.8,0.279,1.5,0.706,2.1,1.279c0.6,0.574,1.066,1.287,1.4,2.141c0.333,0.854,0.5,1.854,0.5,3V22.04z M66.8,13.921
		c0-1.681-0.394-2.867-1.18-3.561c-0.787-0.693-1.74-1.04-2.86-1.04c-0.56,0-1.08,0.08-1.56,0.24s-0.907,0.427-1.28,0.8
		c-0.374,0.374-0.667,0.854-0.88,1.44s-0.32,1.293-0.32,2.12v7.96c0,0.854,0.106,1.566,0.32,2.14s0.506,1.047,0.88,1.42
		c0.373,0.374,0.8,0.64,1.28,0.8s1,0.24,1.56,0.24c1.12,0,2.073-0.347,2.86-1.04c0.786-0.693,1.18-1.88,1.18-3.56V13.921z"/>
	<path class="st0" d="M96.639,27.561c0,0.587-0.293,0.88-0.88,0.88h-0.8c-0.587,0-0.88-0.293-0.88-0.88v-14.2
		c0-1.493-0.34-2.54-1.02-3.14c-0.68-0.601-1.514-0.9-2.5-0.9c-0.987,0-1.827,0.307-2.52,0.92c-0.694,0.614-1.04,1.654-1.04,3.12
		v14.2c0,0.587-0.294,0.88-0.88,0.88h-0.84c-0.587,0-0.88-0.293-0.88-0.88v-14.2c0-1.493-0.34-2.54-1.02-3.14
		c-0.68-0.601-1.527-0.9-2.54-0.9c-0.987,0-1.82,0.3-2.5,0.9c-0.68,0.6-1.02,1.646-1.02,3.14v14.2c0,0.587-0.28,0.88-0.84,0.88
		h-0.84c-0.586,0-0.88-0.293-0.88-0.88v-14.64c0-0.986,0.146-1.86,0.44-2.62c0.293-0.761,0.7-1.387,1.22-1.88s1.14-0.867,1.86-1.12
		c0.72-0.254,1.493-0.38,2.32-0.38c1.2,0,2.24,0.273,3.12,0.819c0.88,0.547,1.533,1.367,1.96,2.46
		c0.426-1.093,1.086-1.913,1.98-2.46c0.894-0.546,1.94-0.819,3.14-0.819c1.68,0,3.073,0.5,4.18,1.5c1.106,1,1.66,2.5,1.66,4.5
		V27.561z"/>
	<path class="st0" d="M115.679,22.28c0,2.214-0.567,3.867-1.7,4.96c-1.134,1.094-2.554,1.641-4.26,1.641
		c-1.014,0-1.92-0.194-2.72-0.58c-0.8-0.387-1.454-0.98-1.96-1.78v7.8c0,0.586-0.294,0.88-0.88,0.88h-0.84
		c-0.56,0-0.84-0.294-0.84-0.88v-20.56c0-1.146,0.167-2.146,0.5-3c0.333-0.854,0.793-1.566,1.38-2.141
		c0.586-0.573,1.287-1,2.1-1.279c0.813-0.28,1.687-0.42,2.62-0.42c0.933,0,1.806,0.14,2.62,0.42c0.813,0.279,1.513,0.706,2.1,1.279
		c0.586,0.574,1.046,1.287,1.38,2.141c0.333,0.854,0.5,1.854,0.5,3V22.28z M113.119,13.921c0-1.681-0.394-2.867-1.18-3.561
		c-0.787-0.693-1.74-1.04-2.86-1.04s-2.074,0.347-2.86,1.04c-0.787,0.693-1.18,1.88-1.18,3.561v7.96c0,1.68,0.393,2.866,1.18,3.56
		c0.786,0.693,1.74,1.04,2.86,1.04s2.073-0.347,2.86-1.04c0.786-0.693,1.18-1.88,1.18-3.56V13.921z"/>
	<path class="st0" d="M133.478,22.04c0,1.147-0.167,2.147-0.5,3c-0.333,0.854-0.793,1.567-1.38,2.141
		c-0.587,0.573-1.287,1-2.1,1.279c-0.813,0.28-1.687,0.421-2.62,0.421c-0.907,0-1.76-0.134-2.56-0.4c-0.8-0.267-1.5-0.66-2.1-1.18
		c-0.6-0.521-1.08-1.16-1.44-1.92c-0.36-0.761-0.54-1.646-0.54-2.66v-0.36c0-2,0.626-3.526,1.88-4.58
		c1.253-1.053,2.84-1.58,4.76-1.58h4.04v-2.279c0-1.681-0.394-2.867-1.18-3.561c-0.787-0.693-1.74-1.04-2.86-1.04
		c-1.094,0-1.98,0.34-2.66,1.021c-0.68,0.68-1.02,1.606-1.02,2.779c0,0.507-0.267,0.761-0.8,0.761h-0.92
		c-0.587,0-0.88-0.294-0.88-0.881c0-0.906,0.153-1.732,0.46-2.479c0.306-0.746,0.733-1.387,1.28-1.92
		c0.546-0.533,1.206-0.946,1.98-1.24c0.773-0.293,1.626-0.439,2.56-0.439c0.933,0,1.806,0.14,2.62,0.42
		c0.813,0.279,1.513,0.706,2.1,1.279c0.586,0.574,1.046,1.287,1.38,2.141s0.5,1.854,0.5,3V22.04z M126.878,26.48
		c0.56,0,1.08-0.08,1.56-0.24s0.906-0.426,1.28-0.8c0.373-0.373,0.666-0.847,0.88-1.42c0.213-0.573,0.32-1.286,0.32-2.14v-3.28
		h-4.04c-1.12,0-2.074,0.32-2.86,0.96s-1.18,1.64-1.18,3s0.393,2.354,1.18,2.979C124.805,26.167,125.758,26.48,126.878,26.48z"/>
	<path class="st0" d="M151.198,28.44h-0.84c-0.587,0-0.88-0.293-0.88-0.88v-13.64c0-1.681-0.394-2.867-1.18-3.561
		s-1.74-1.04-2.86-1.04c-0.56,0-1.08,0.08-1.56,0.24s-0.907,0.427-1.28,0.8c-0.374,0.374-0.667,0.854-0.88,1.44
		s-0.32,1.293-0.32,2.12v13.64c0,0.587-0.28,0.88-0.84,0.88h-0.84c-0.586,0-0.88-0.293-0.88-0.88v-13.8c0-1.146,0.167-2.146,0.5-3
		c0.333-0.854,0.793-1.566,1.38-2.141c0.586-0.573,1.287-1,2.1-1.279c0.813-0.28,1.687-0.42,2.62-0.42c0.96,0,1.84,0.14,2.64,0.42
		c0.8,0.279,1.5,0.706,2.1,1.279c0.6,0.574,1.066,1.287,1.4,2.141c0.333,0.854,0.5,1.854,0.5,3v13.8
		C152.078,28.147,151.784,28.44,151.198,28.44z"/>
	<path class="st0" d="M168.438,8.24c0-0.586,0.293-0.88,0.88-0.88h0.841c0.586,0,0.88,0.294,0.88,0.88v20.72
		c0,1.146-0.167,2.141-0.5,2.98c-0.334,0.84-0.801,1.533-1.4,2.08c-0.6,0.546-1.3,0.953-2.1,1.22c-0.801,0.267-1.681,0.4-2.641,0.4
		s-1.833-0.141-2.62-0.42c-0.786-0.28-1.46-0.667-2.02-1.16c-0.56-0.494-0.994-1.087-1.3-1.78c-0.307-0.693-0.46-1.439-0.46-2.24
		c0-0.587,0.293-0.88,0.88-0.88h0.92c0.506,0,0.76,0.267,0.76,0.8c0,1.014,0.347,1.834,1.04,2.461
		c0.693,0.626,1.626,0.939,2.8,0.939c0.561,0,1.087-0.073,1.58-0.22c0.493-0.147,0.92-0.394,1.28-0.74s0.646-0.807,0.86-1.38
		c0.213-0.574,0.319-1.287,0.319-2.14v-4.24c-0.507,0.8-1.16,1.394-1.96,1.78S164.771,27,163.758,27c-0.854,0-1.64-0.14-2.36-0.42
		c-0.72-0.279-1.347-0.692-1.88-1.239s-0.953-1.233-1.26-2.061c-0.307-0.826-0.46-1.786-0.46-2.88V8.24
		c0-0.586,0.293-0.88,0.88-0.88h0.84c0.561,0,0.84,0.294,0.84,0.88V20c0,0.854,0.106,1.567,0.32,2.141
		c0.213,0.573,0.506,1.04,0.88,1.399c0.373,0.36,0.8,0.62,1.28,0.78c0.479,0.16,1,0.24,1.56,0.24c1.12,0,2.073-0.34,2.86-1.021
		c0.786-0.68,1.18-1.859,1.18-3.54V8.24z"/>
	<path class="st0" d="M184.396,1.48c-0.08-0.293-0.06-0.54,0.061-0.74s0.34-0.3,0.66-0.3h1.12c0.586,0,0.933,0.267,1.039,0.8
		l6.44,24.561l6.48-24.561c0.105-0.533,0.453-0.8,1.04-0.8h1.039c0.294,0,0.5,0.1,0.62,0.3s0.141,0.447,0.061,0.74l-7,25.68
		c-0.214,0.854-0.76,1.28-1.641,1.28h-1.279c-0.854,0-1.4-0.426-1.641-1.28L184.396,1.48z"/>
	<path class="st0" d="M207.517,1.32c0-0.586,0.293-0.88,0.88-0.88h0.84c0.587,0,0.88,0.294,0.88,0.88v1.92
		c0,0.587-0.293,0.88-0.88,0.88h-0.84c-0.587,0-0.88-0.293-0.88-0.88V1.32z M207.517,8.24c0-0.586,0.293-0.88,0.88-0.88h0.84
		c0.587,0,0.88,0.294,0.88,0.88v19.32c0,0.587-0.293,0.88-0.88,0.88h-0.84c-0.587,0-0.88-0.293-0.88-0.88V8.24z"/>
	<path class="st0" d="M225.356,12.601c0-1.12-0.354-1.946-1.061-2.48c-0.707-0.533-1.566-0.8-2.58-0.8s-1.866,0.267-2.56,0.8
		c-0.694,0.534-1.04,1.36-1.04,2.48v0.08c0,0.906,0.246,1.613,0.74,2.12c0.493,0.507,1.113,0.934,1.859,1.279
		c0.746,0.348,1.561,0.674,2.44,0.98s1.693,0.7,2.439,1.18c0.747,0.48,1.366,1.107,1.86,1.88c0.493,0.774,0.74,1.814,0.74,3.12
		c0,1.813-0.607,3.207-1.82,4.181c-1.214,0.974-2.754,1.46-4.62,1.46c-0.934,0-1.794-0.134-2.58-0.4s-1.46-0.64-2.02-1.12
		c-0.561-0.479-1-1.06-1.32-1.74c-0.319-0.68-0.479-1.446-0.479-2.3v-0.16c0-0.586,0.293-0.88,0.88-0.88h0.88
		c0.533,0,0.8,0.267,0.8,0.8v0.04c0,1.2,0.38,2.061,1.14,2.58c0.761,0.521,1.66,0.78,2.7,0.78s1.946-0.253,2.721-0.76
		c0.772-0.507,1.159-1.36,1.159-2.561v-0.08c0-0.906-0.246-1.612-0.739-2.12c-0.494-0.506-1.12-0.926-1.88-1.26
		c-0.761-0.333-1.574-0.646-2.44-0.939c-0.867-0.293-1.68-0.681-2.44-1.16c-0.76-0.48-1.387-1.106-1.88-1.88
		s-0.739-1.813-0.739-3.12c0-0.88,0.152-1.673,0.46-2.38c0.306-0.706,0.739-1.307,1.3-1.8c0.56-0.493,1.22-0.867,1.979-1.12
		c0.761-0.254,1.58-0.38,2.46-0.38c0.906,0,1.74,0.133,2.5,0.399c0.761,0.267,1.413,0.647,1.96,1.14
		c0.547,0.494,0.974,1.08,1.28,1.761c0.307,0.68,0.46,1.434,0.46,2.26v0.08c0,0.587-0.294,0.88-0.88,0.88h-0.92
		c-0.507,0-0.76-0.267-0.76-0.8V12.601z"/>
	<path class="st0" d="M233.436,1.32c0-0.586,0.293-0.88,0.88-0.88h0.84c0.587,0,0.88,0.294,0.88,0.88v1.92
		c0,0.587-0.293,0.88-0.88,0.88h-0.84c-0.587,0-0.88-0.293-0.88-0.88V1.32z M233.436,8.24c0-0.586,0.293-0.88,0.88-0.88h0.84
		c0.587,0,0.88,0.294,0.88,0.88v19.32c0,0.587-0.293,0.88-0.88,0.88h-0.84c-0.587,0-0.88-0.293-0.88-0.88V8.24z"/>
	<path class="st0" d="M254.916,22.04c0,1.147-0.167,2.147-0.5,3c-0.334,0.854-0.801,1.567-1.4,2.141s-1.3,1-2.1,1.279
		c-0.801,0.28-1.681,0.421-2.641,0.421c-0.934,0-1.807-0.141-2.62-0.421c-0.813-0.279-1.514-0.706-2.1-1.279
		c-0.587-0.573-1.047-1.286-1.38-2.141c-0.334-0.853-0.5-1.853-0.5-3v-8.279c0-1.146,0.166-2.146,0.5-3
		c0.333-0.854,0.793-1.566,1.38-2.141c0.586-0.573,1.286-1,2.1-1.279c0.813-0.28,1.687-0.42,2.62-0.42c0.96,0,1.84,0.14,2.641,0.42
		c0.8,0.279,1.5,0.706,2.1,1.279c0.6,0.574,1.066,1.287,1.4,2.141c0.333,0.854,0.5,1.854,0.5,3V22.04z M252.315,13.921
		c0-1.681-0.394-2.867-1.18-3.561c-0.787-0.693-1.74-1.04-2.86-1.04c-0.56,0-1.08,0.08-1.56,0.24c-0.48,0.16-0.907,0.427-1.28,0.8
		c-0.374,0.374-0.667,0.854-0.88,1.44c-0.214,0.587-0.32,1.293-0.32,2.12v7.96c0,0.854,0.106,1.566,0.32,2.14
		c0.213,0.573,0.506,1.047,0.88,1.42c0.373,0.374,0.8,0.64,1.28,0.8c0.479,0.16,1,0.24,1.56,0.24c1.12,0,2.073-0.347,2.86-1.04
		c0.786-0.693,1.18-1.88,1.18-3.56V13.921z"/>
	<path class="st0" d="M272.635,28.44h-0.84c-0.587,0-0.88-0.293-0.88-0.88v-13.64c0-1.681-0.394-2.867-1.181-3.561
		c-0.786-0.693-1.739-1.04-2.859-1.04c-0.561,0-1.08,0.08-1.561,0.24c-0.479,0.16-0.906,0.427-1.279,0.8
		c-0.374,0.374-0.667,0.854-0.881,1.44c-0.213,0.587-0.319,1.293-0.319,2.12v13.64c0,0.587-0.28,0.88-0.84,0.88h-0.841
		c-0.586,0-0.88-0.293-0.88-0.88v-13.8c0-1.146,0.167-2.146,0.5-3s0.794-1.566,1.38-2.141c0.587-0.573,1.287-1,2.101-1.279
		c0.813-0.28,1.687-0.42,2.62-0.42c0.96,0,1.84,0.14,2.64,0.42c0.8,0.279,1.5,0.706,2.101,1.279c0.6,0.574,1.065,1.287,1.399,2.141
		c0.333,0.854,0.5,1.854,0.5,3v13.8C273.515,28.147,273.221,28.44,272.635,28.44z"/>
</g>
<g>
	<path class="st0" d="M6.64,226.339H0.92c-0.614,0-0.92-0.306-0.92-0.92v-0.76c0-0.613,0.306-0.92,0.92-0.92h14.2
		c0.586,0,0.88,0.307,0.88,0.92v0.76c0,0.614-0.293,0.92-0.88,0.92H9.4v24.48c0,0.613-0.32,0.92-0.96,0.92H7.56
		c-0.614,0-0.92-0.307-0.92-0.92V226.339z"/>
	<path class="st0" d="M28.8,245.939c0-0.533,0.266-0.8,0.8-0.8h0.92c0.586,0,0.88,0.293,0.88,0.88c0,0.934-0.16,1.779-0.48,2.54
		c-0.32,0.76-0.767,1.406-1.34,1.939c-0.574,0.534-1.254,0.947-2.04,1.24c-0.787,0.293-1.647,0.44-2.58,0.44
		c-0.934,0-1.807-0.141-2.62-0.421c-0.813-0.279-1.514-0.706-2.1-1.279c-0.587-0.573-1.047-1.286-1.38-2.141
		c-0.333-0.853-0.5-1.853-0.5-3v-8.279c0-1.146,0.167-2.146,0.5-3c0.333-0.854,0.793-1.566,1.38-2.141
		c0.586-0.573,1.287-1,2.1-1.279c0.813-0.28,1.687-0.42,2.62-0.42c0.96,0,1.84,0.14,2.64,0.42c0.8,0.279,1.5,0.706,2.1,1.279
		c0.6,0.574,1.066,1.287,1.4,2.141c0.333,0.854,0.5,1.854,0.5,3v3.8c0,0.587-0.294,0.88-0.88,0.88h-9.8v3.44
		c0,0.854,0.106,1.566,0.32,2.14s0.506,1.047,0.88,1.42c0.373,0.374,0.8,0.64,1.28,0.8s1,0.24,1.56,0.24
		c1.12,0,2.04-0.34,2.76-1.021C28.44,248.079,28.8,247.14,28.8,245.939z M20.92,239.339H29v-2.119c0-1.681-0.394-2.867-1.18-3.561
		c-0.787-0.693-1.74-1.04-2.86-1.04c-0.56,0-1.08,0.08-1.56,0.24s-0.907,0.427-1.28,0.8c-0.374,0.374-0.667,0.854-0.88,1.44
		s-0.32,1.293-0.32,2.12V239.339z"/>
	<path class="st0" d="M49.28,245.339c0,1.147-0.167,2.147-0.5,3c-0.333,0.854-0.793,1.567-1.38,2.141
		c-0.587,0.573-1.287,1-2.1,1.279c-0.813,0.28-1.687,0.421-2.62,0.421c-0.907,0-1.76-0.134-2.56-0.4c-0.8-0.267-1.5-0.66-2.1-1.18
		c-0.6-0.521-1.08-1.16-1.44-1.92c-0.36-0.761-0.54-1.646-0.54-2.66v-0.36c0-2,0.626-3.526,1.88-4.58
		c1.253-1.053,2.84-1.58,4.76-1.58h4.04v-2.279c0-1.681-0.394-2.867-1.18-3.561c-0.787-0.693-1.74-1.04-2.86-1.04
		c-1.094,0-1.98,0.34-2.66,1.021c-0.68,0.68-1.02,1.606-1.02,2.779c0,0.507-0.267,0.761-0.8,0.761h-0.92
		c-0.587,0-0.88-0.294-0.88-0.881c0-0.906,0.153-1.732,0.46-2.479c0.306-0.746,0.733-1.387,1.28-1.92
		c0.546-0.533,1.206-0.946,1.98-1.24c0.773-0.293,1.626-0.439,2.56-0.439c0.933,0,1.806,0.14,2.62,0.42
		c0.813,0.279,1.513,0.706,2.1,1.279c0.586,0.574,1.046,1.287,1.38,2.141s0.5,1.854,0.5,3V245.339z M42.68,249.779
		c0.56,0,1.08-0.08,1.56-0.24s0.906-0.426,1.28-0.8c0.373-0.373,0.666-0.847,0.88-1.42c0.213-0.573,0.32-1.286,0.32-2.14v-3.28
		h-4.04c-1.12,0-2.074,0.32-2.86,0.96s-1.18,1.64-1.18,3s0.393,2.354,1.18,2.979C40.606,249.466,41.56,249.779,42.68,249.779z"/>
	<path class="st0" d="M76.52,250.859c0,0.587-0.293,0.88-0.88,0.88h-0.8c-0.587,0-0.88-0.293-0.88-0.88v-14.2
		c0-1.493-0.34-2.54-1.02-3.14c-0.68-0.601-1.514-0.9-2.5-0.9c-0.987,0-1.827,0.307-2.52,0.92c-0.694,0.614-1.04,1.654-1.04,3.12
		v14.2c0,0.587-0.294,0.88-0.88,0.88h-0.84c-0.587,0-0.88-0.293-0.88-0.88v-14.2c0-1.493-0.34-2.54-1.02-3.14
		c-0.68-0.601-1.527-0.9-2.54-0.9c-0.987,0-1.82,0.3-2.5,0.9c-0.68,0.6-1.02,1.646-1.02,3.14v14.2c0,0.587-0.28,0.88-0.84,0.88
		h-0.84c-0.586,0-0.88-0.293-0.88-0.88v-14.64c0-0.986,0.146-1.86,0.44-2.62c0.293-0.761,0.7-1.387,1.22-1.88s1.14-0.867,1.86-1.12
		c0.72-0.254,1.493-0.38,2.32-0.38c1.2,0,2.24,0.273,3.12,0.819c0.88,0.547,1.533,1.367,1.96,2.46
		c0.426-1.093,1.086-1.913,1.98-2.46c0.894-0.546,1.94-0.819,3.14-0.819c1.68,0,3.073,0.5,4.18,1.5c1.106,1,1.66,2.5,1.66,4.5
		V250.859z"/>
	<path class="st0" d="M103.919,245.339c0,1.147-0.167,2.147-0.5,3c-0.334,0.854-0.8,1.567-1.4,2.141c-0.6,0.573-1.3,1-2.1,1.279
		c-0.8,0.28-1.68,0.421-2.64,0.421c-0.934,0-1.807-0.141-2.62-0.421c-0.813-0.279-1.514-0.706-2.1-1.279
		c-0.587-0.573-1.047-1.286-1.38-2.141c-0.333-0.853-0.5-1.853-0.5-3v-8.279c0-1.146,0.167-2.146,0.5-3
		c0.333-0.854,0.793-1.566,1.38-2.141c0.586-0.573,1.287-1,2.1-1.279c0.813-0.28,1.687-0.42,2.62-0.42c0.96,0,1.84,0.14,2.64,0.42
		c0.8,0.279,1.5,0.706,2.1,1.279c0.6,0.574,1.066,1.287,1.4,2.141c0.333,0.854,0.5,1.854,0.5,3V245.339z M101.319,237.22
		c0-1.681-0.394-2.867-1.18-3.561c-0.787-0.693-1.74-1.04-2.86-1.04c-0.56,0-1.08,0.08-1.56,0.24s-0.907,0.427-1.28,0.8
		c-0.374,0.374-0.667,0.854-0.88,1.44s-0.32,1.293-0.32,2.12v7.96c0,0.854,0.106,1.566,0.32,2.14s0.506,1.047,0.88,1.42
		c0.373,0.374,0.8,0.64,1.28,0.8s1,0.24,1.56,0.24c1.12,0,2.073-0.347,2.86-1.04c0.786-0.693,1.18-1.88,1.18-3.56V237.22z"/>
	<path class="st0" d="M115.318,223.18c0.667,0,1.306,0.054,1.92,0.159c0.506,0.08,0.76,0.374,0.76,0.881v0.68
		c0,0.294-0.067,0.52-0.2,0.68c-0.134,0.16-0.347,0.214-0.64,0.16c-0.267-0.053-0.527-0.093-0.78-0.12
		c-0.254-0.026-0.487-0.04-0.7-0.04c-1.2,0-2.094,0.24-2.68,0.72c-0.587,0.48-0.88,1.4-0.88,2.761v1.6h5.04
		c0.56,0,0.84,0.294,0.84,0.88v0.641c0,0.587-0.28,0.88-0.84,0.88h-5.04v17.8c0,0.587-0.294,0.88-0.88,0.88h-0.8
		c-0.587,0-0.88-0.293-0.88-0.88v-22.04c0-2.106,0.506-3.573,1.52-4.4C112.092,223.593,113.505,223.18,115.318,223.18z"/>
	<path class="st0" d="M128.957,224.779c-0.08-0.293-0.06-0.54,0.06-0.74s0.34-0.3,0.66-0.3h1.12c0.586,0,0.933,0.267,1.04,0.8
		l6.44,24.561l6.48-24.561c0.106-0.533,0.453-0.8,1.04-0.8h1.04c0.293,0,0.5,0.1,0.62,0.3s0.14,0.447,0.06,0.74l-7,25.68
		c-0.214,0.854-0.76,1.28-1.64,1.28h-1.28c-0.854,0-1.4-0.426-1.64-1.28L128.957,224.779z"/>
	<path class="st0" d="M163.598,245.339c0,1.147-0.167,2.147-0.5,3c-0.334,0.854-0.794,1.567-1.38,2.141
		c-0.587,0.573-1.287,1-2.101,1.279c-0.813,0.28-1.687,0.421-2.619,0.421c-0.907,0-1.761-0.134-2.561-0.4
		c-0.8-0.267-1.5-0.66-2.1-1.18c-0.6-0.521-1.08-1.16-1.44-1.92c-0.36-0.761-0.54-1.646-0.54-2.66v-0.36c0-2,0.626-3.526,1.88-4.58
		c1.253-1.053,2.84-1.58,4.761-1.58h4.039v-2.279c0-1.681-0.394-2.867-1.18-3.561c-0.787-0.693-1.74-1.04-2.859-1.04
		c-1.094,0-1.98,0.34-2.661,1.021c-0.68,0.68-1.02,1.606-1.02,2.779c0,0.507-0.267,0.761-0.8,0.761h-0.92
		c-0.587,0-0.88-0.294-0.88-0.881c0-0.906,0.153-1.732,0.46-2.479c0.306-0.746,0.733-1.387,1.28-1.92
		c0.546-0.533,1.206-0.946,1.98-1.24c0.773-0.293,1.626-0.439,2.561-0.439c0.933,0,1.806,0.14,2.619,0.42
		c0.813,0.279,1.514,0.706,2.101,1.279c0.586,0.574,1.046,1.287,1.38,2.141c0.333,0.854,0.5,1.854,0.5,3V245.339z M156.998,249.779
		c0.56,0,1.079-0.08,1.56-0.24c0.479-0.16,0.906-0.426,1.28-0.8c0.373-0.373,0.666-0.847,0.88-1.42
		c0.213-0.573,0.319-1.286,0.319-2.14v-3.28h-4.039c-1.12,0-2.074,0.32-2.861,0.96s-1.18,1.64-1.18,3s0.393,2.354,1.18,2.979
		C154.924,249.466,155.878,249.779,156.998,249.779z"/>
	<path class="st0" d="M181.317,251.739h-0.84c-0.587,0-0.88-0.293-0.88-0.88v-13.64c0-1.681-0.394-2.867-1.181-3.561
		c-0.786-0.693-1.739-1.04-2.859-1.04c-0.561,0-1.08,0.08-1.561,0.24c-0.479,0.16-0.906,0.427-1.279,0.8
		c-0.374,0.374-0.667,0.854-0.881,1.44c-0.213,0.587-0.319,1.293-0.319,2.12v13.64c0,0.587-0.28,0.88-0.84,0.88h-0.841
		c-0.586,0-0.88-0.293-0.88-0.88v-13.8c0-1.146,0.167-2.146,0.5-3s0.794-1.566,1.38-2.141c0.587-0.573,1.287-1,2.101-1.279
		c0.813-0.28,1.687-0.42,2.62-0.42c0.96,0,1.84,0.14,2.64,0.42c0.8,0.279,1.5,0.706,2.101,1.279c0.6,0.574,1.065,1.287,1.399,2.141
		c0.333,0.854,0.5,1.854,0.5,3v13.8C182.197,251.446,181.903,251.739,181.317,251.739z"/>
	<path class="st0" d="M189.597,223.739h0.88c0.613,0,0.92,0.307,0.92,0.92v11.561h10.881v-11.561c0-0.613,0.319-0.92,0.96-0.92h0.88
		c0.613,0,0.92,0.307,0.92,0.92v26.16c0,0.613-0.307,0.92-0.92,0.92h-0.88c-0.641,0-0.96-0.307-0.96-0.92v-12.04h-10.881v12.04
		c0,0.613-0.307,0.92-0.92,0.92h-0.88c-0.613,0-0.92-0.307-0.92-0.92v-26.16C188.677,224.046,188.983,223.739,189.597,223.739z"/>
	<path class="st0" d="M223.956,245.339c0,1.147-0.166,2.147-0.5,3c-0.333,0.854-0.793,1.567-1.38,2.141s-1.286,1-2.1,1.279
		c-0.813,0.28-1.687,0.421-2.62,0.421c-0.907,0-1.76-0.134-2.56-0.4c-0.801-0.267-1.5-0.66-2.101-1.18
		c-0.6-0.521-1.08-1.16-1.439-1.92c-0.36-0.761-0.54-1.646-0.54-2.66v-0.36c0-2,0.626-3.526,1.88-4.58
		c1.253-1.053,2.84-1.58,4.76-1.58h4.04v-2.279c0-1.681-0.394-2.867-1.18-3.561c-0.787-0.693-1.74-1.04-2.86-1.04
		c-1.094,0-1.979,0.34-2.66,1.021c-0.68,0.68-1.02,1.606-1.02,2.779c0,0.507-0.268,0.761-0.8,0.761h-0.921
		c-0.587,0-0.88-0.294-0.88-0.881c0-0.906,0.153-1.732,0.46-2.479c0.307-0.746,0.733-1.387,1.28-1.92
		c0.546-0.533,1.206-0.946,1.98-1.24c0.772-0.293,1.626-0.439,2.56-0.439s1.807,0.14,2.62,0.42c0.813,0.279,1.513,0.706,2.1,1.279
		c0.587,0.574,1.047,1.287,1.38,2.141c0.334,0.854,0.5,1.854,0.5,3V245.339z M217.356,249.779c0.56,0,1.08-0.08,1.56-0.24
		c0.48-0.16,0.906-0.426,1.28-0.8c0.373-0.373,0.666-0.847,0.88-1.42s0.32-1.286,0.32-2.14v-3.28h-4.04
		c-1.12,0-2.073,0.32-2.86,0.96c-0.786,0.64-1.18,1.64-1.18,3s0.394,2.354,1.18,2.979
		C215.283,249.466,216.236,249.779,217.356,249.779z"/>
	<path class="st0" d="M231.477,245.18c0,0.854,0.106,1.566,0.319,2.14c0.214,0.573,0.507,1.047,0.881,1.42
		c0.373,0.374,0.8,0.64,1.279,0.8c0.48,0.16,1,0.24,1.561,0.24c1.093,0,2.006-0.354,2.739-1.06c0.733-0.707,1.101-1.687,1.101-2.94
		c0-0.533,0.266-0.8,0.8-0.8h0.92c0.586,0,0.88,0.294,0.88,0.88c0,0.96-0.16,1.834-0.479,2.62c-0.32,0.787-0.774,1.453-1.36,2
		c-0.587,0.547-1.273,0.967-2.06,1.26c-0.787,0.293-1.634,0.44-2.54,0.44c-0.934,0-1.808-0.141-2.62-0.421
		c-0.813-0.279-1.514-0.706-2.101-1.279s-1.047-1.286-1.38-2.141c-0.333-0.853-0.5-1.853-0.5-3v-8.279c0-1.146,0.167-2.146,0.5-3
		s0.793-1.566,1.38-2.141c0.587-0.573,1.287-1,2.101-1.279c0.812-0.28,1.687-0.42,2.62-0.42c0.906,0,1.753,0.146,2.54,0.439
		c0.786,0.294,1.473,0.714,2.06,1.26c0.586,0.547,1.04,1.214,1.36,2c0.319,0.787,0.479,1.66,0.479,2.62
		c0,0.587-0.294,0.88-0.88,0.88h-0.92c-0.534,0-0.8-0.266-0.8-0.8c0-1.253-0.367-2.233-1.101-2.939
		c-0.733-0.707-1.646-1.061-2.739-1.061c-0.561,0-1.08,0.08-1.561,0.24c-0.479,0.16-0.906,0.427-1.279,0.8
		c-0.374,0.374-0.667,0.854-0.881,1.44c-0.213,0.587-0.319,1.293-0.319,2.12V245.18z"/>
	<path class="st0" d="M252.756,241.299l-2.881,3.521v6.04c0,0.587-0.293,0.88-0.88,0.88h-0.84c-0.587,0-0.88-0.293-0.88-0.88v-26.68
		c0-0.587,0.293-0.881,0.88-0.881h0.84c0.587,0,0.88,0.294,0.88,0.881v17.239l7.921-10.12c0.159-0.213,0.333-0.373,0.52-0.479
		s0.427-0.16,0.72-0.16h1.24c0.293,0,0.474,0.114,0.54,0.34c0.066,0.228,0.021,0.447-0.14,0.66l-6.24,7.6l6.439,11.48
		c0.134,0.24,0.153,0.467,0.061,0.68c-0.094,0.214-0.287,0.32-0.58,0.32h-1.12c-0.294,0-0.52-0.053-0.68-0.16
		c-0.16-0.106-0.307-0.266-0.44-0.479L252.756,241.299z"/>
	<path class="st0" d="M275.436,245.939c0-0.533,0.266-0.8,0.8-0.8h0.92c0.586,0,0.88,0.293,0.88,0.88c0,0.934-0.16,1.779-0.479,2.54
		c-0.32,0.76-0.768,1.406-1.34,1.939c-0.574,0.534-1.254,0.947-2.04,1.24c-0.787,0.293-1.647,0.44-2.58,0.44
		c-0.934,0-1.808-0.141-2.62-0.421c-0.813-0.279-1.514-0.706-2.101-1.279s-1.047-1.286-1.38-2.141c-0.333-0.853-0.5-1.853-0.5-3
		v-8.279c0-1.146,0.167-2.146,0.5-3s0.793-1.566,1.38-2.141c0.587-0.573,1.287-1,2.101-1.279c0.812-0.28,1.687-0.42,2.62-0.42
		c0.96,0,1.84,0.14,2.64,0.42c0.8,0.279,1.5,0.706,2.1,1.279c0.601,0.574,1.066,1.287,1.4,2.141c0.333,0.854,0.5,1.854,0.5,3v3.8
		c0,0.587-0.294,0.88-0.88,0.88h-9.8v3.44c0,0.854,0.106,1.566,0.319,2.14c0.214,0.573,0.507,1.047,0.881,1.42
		c0.373,0.374,0.8,0.64,1.279,0.8c0.48,0.16,1,0.24,1.561,0.24c1.12,0,2.04-0.34,2.76-1.021
		C275.075,248.079,275.436,247.14,275.436,245.939z M267.556,239.339h8.08v-2.119c0-1.681-0.395-2.867-1.181-3.561
		s-1.739-1.04-2.859-1.04c-0.561,0-1.08,0.08-1.561,0.24c-0.479,0.16-0.906,0.427-1.279,0.8c-0.374,0.374-0.667,0.854-0.881,1.44
		c-0.213,0.587-0.319,1.293-0.319,2.12V239.339z"/>
	<path class="st0" d="M289.635,232.859c-1.2,0-2.1,0.24-2.7,0.72c-0.6,0.48-0.899,1.4-0.899,2.76v14.521
		c0,0.587-0.28,0.88-0.84,0.88h-0.841c-0.586,0-0.88-0.293-0.88-0.88V236.1c0-1.04,0.134-1.92,0.4-2.641
		c0.267-0.72,0.646-1.3,1.14-1.739c0.493-0.44,1.101-0.761,1.82-0.961c0.72-0.199,1.533-0.3,2.44-0.3c0.64,0,1.266,0.054,1.88,0.16
		c0.533,0.08,0.8,0.374,0.8,0.88v0.681c0,0.293-0.074,0.52-0.22,0.68c-0.147,0.16-0.367,0.214-0.66,0.16
		c-0.268-0.054-0.521-0.094-0.76-0.12C290.075,232.873,289.848,232.859,289.635,232.859z"/>
	<path class="st0" d="M304.755,235.899c0-1.12-0.354-1.946-1.061-2.48c-0.707-0.533-1.566-0.8-2.58-0.8s-1.866,0.267-2.56,0.8
		c-0.694,0.534-1.04,1.36-1.04,2.48v0.08c0,0.906,0.246,1.613,0.74,2.12c0.493,0.507,1.113,0.934,1.859,1.279
		c0.746,0.348,1.561,0.674,2.44,0.98s1.693,0.7,2.439,1.18c0.747,0.48,1.366,1.107,1.86,1.88c0.493,0.774,0.74,1.814,0.74,3.12
		c0,1.813-0.607,3.207-1.82,4.181c-1.214,0.974-2.754,1.46-4.62,1.46c-0.934,0-1.794-0.134-2.58-0.4s-1.46-0.64-2.02-1.12
		c-0.561-0.479-1-1.06-1.32-1.74c-0.319-0.68-0.479-1.446-0.479-2.3v-0.16c0-0.586,0.293-0.88,0.88-0.88h0.88
		c0.533,0,0.8,0.267,0.8,0.8v0.04c0,1.2,0.38,2.061,1.14,2.58c0.761,0.521,1.66,0.78,2.7,0.78s1.946-0.253,2.721-0.76
		c0.772-0.507,1.159-1.36,1.159-2.561v-0.08c0-0.906-0.246-1.612-0.739-2.12c-0.494-0.506-1.12-0.926-1.88-1.26
		c-0.761-0.333-1.574-0.646-2.44-0.939c-0.867-0.293-1.68-0.681-2.44-1.16c-0.76-0.48-1.387-1.106-1.88-1.88
		s-0.739-1.813-0.739-3.12c0-0.88,0.152-1.673,0.46-2.38c0.306-0.706,0.739-1.307,1.3-1.8c0.56-0.493,1.22-0.867,1.979-1.12
		c0.761-0.254,1.58-0.38,2.46-0.38c0.906,0,1.74,0.133,2.5,0.399c0.761,0.267,1.413,0.647,1.96,1.14
		c0.547,0.494,0.974,1.08,1.28,1.761c0.307,0.68,0.46,1.434,0.46,2.26v0.08c0,0.587-0.294,0.88-0.88,0.88h-0.92
		c-0.507,0-0.76-0.267-0.76-0.8V235.899z"/>
</g>
</svg>