<!-- Generator: Adobe Illustrator 21.0.0, SVG Export Plug-In  -->
<svg version="1.1"
	 xmlns="http://www.w3.org/2000/svg" xmlns:xlink="http://www.w3.org/1999/xlink" xmlns:a="http://ns.adobe.com/AdobeSVGViewerExtensions/3.0/"
	 x="0px" y="0px" width="245.317px" height="745.083px" viewBox="0 0 245.317 745.083"
	 style="enable-background:new 0 0 245.317 745.083;" xml:space="preserve">
<style type="text/css">
	.st0{fill:#FFFFFF;}
</style>
<defs>
</defs>
<g id="New_Symbol_7_copy">
	<g>
		<g>
			<g>
				<path class="st0" d="M10.64,485.12c-1.995,0.028-3.782,0.513-5.361,1.455c-1.607,0.942-2.882,2.217-3.824,3.824
					c-0.942,1.579-1.427,3.353-1.455,5.32c0.028,1.995,0.513,3.782,1.455,5.361c0.942,1.607,2.217,2.882,3.824,3.824
					c1.579,0.942,3.366,1.427,5.361,1.455c1.967-0.028,3.741-0.513,5.32-1.455c1.607-0.942,2.882-2.217,3.824-3.824
					c0.942-1.579,1.427-3.366,1.455-5.361c-0.028-1.967-0.513-3.741-1.455-5.32c-0.942-1.607-2.217-2.882-3.824-3.824
					C14.38,485.632,12.607,485.147,10.64,485.12 M170.524,727.96c1.136-0.887,2.244-1.842,3.325-2.868H69.989
					c1.108,1.025,2.23,1.995,3.366,2.909c13.826,11.388,30.007,17.081,48.543,17.081
					C140.462,745.083,156.671,739.375,170.524,727.96 M224.055,501.079c0.942,1.607,2.203,2.882,3.782,3.824
					c1.607,0.942,3.394,1.427,5.361,1.455c1.967-0.028,3.754-0.513,5.361-1.455c1.579-0.942,2.854-2.217,3.824-3.824
					c0.942-1.579,1.413-3.366,1.413-5.361c0-1.967-0.471-3.741-1.413-5.32c-0.97-1.607-2.244-2.882-3.824-3.824
					c-1.607-0.942-3.394-1.427-5.361-1.455c-1.967,0.028-3.754,0.513-5.361,1.455c-1.579,0.942-2.84,2.217-3.782,3.824
					c-0.942,1.579-1.427,3.353-1.455,5.32C222.628,497.712,223.113,499.5,224.055,501.079 M191.887,413.427
					c-5.264-2.244-10.93-3.394-16.998-3.45H68.95c-6.096,0.055-11.776,1.205-17.04,3.45c-5.292,2.272-9.933,5.403-13.923,9.393
					c-3.99,3.99-7.121,8.617-9.393,13.881c-2.244,5.292-3.38,10.972-3.408,17.04v83.953c0.028,6.096,1.164,11.776,3.408,17.04
					c2.272,5.264,5.403,9.905,9.393,13.923c3.99,3.99,8.631,7.121,13.923,9.393c4.987,2.133,10.363,3.269,16.126,3.408
					c0.305,0,0.61,0,0.914,0h7.356c1.912,0.028,3.644,0.499,5.195,1.413c1.552,0.914,2.771,2.147,3.657,3.699
					c0.914,1.524,1.385,3.242,1.413,5.154c0,0.055,0,0.111,0,0.166c-0.028,1.995-0.485,3.81-1.372,5.445
					c-0.028,0.028-0.055,0.069-0.083,0.125c-0.139,0.249-0.277,0.485-0.416,0.707c-0.083,0.111-0.166,0.208-0.249,0.291
					c-0.139,0.222-0.277,0.416-0.416,0.582c-0.083,0.083-0.152,0.18-0.208,0.291c-0.249,0.249-0.499,0.513-0.748,0.79
					c-0.305,0.277-0.596,0.54-0.873,0.79c-0.305,0.249-0.596,0.485-0.873,0.707c-0.277,0.139-0.554,0.305-0.831,0.499
					c-4.682,3.048-9.116,6.664-13.299,10.847c-0.748,0.748-1.468,1.496-2.161,2.244c-13.687,14.657-20.531,32.154-20.531,52.491
					c0,19.451,6.262,36.31,18.786,50.58c0.028,0.055,0.083,0.097,0.166,0.125c0.748,0.859,1.635,1.524,2.66,1.995
					c1.053,0.443,2.161,0.679,3.325,0.707l105.107-0.083c1.136,0,2.203-0.235,3.2-0.706c1.053-0.471,1.94-1.122,2.66-1.953
					l0.125-0.125c12.496-14.269,18.744-31.115,18.744-50.538c0-21.39-7.55-39.635-22.651-54.736
					c-4.156-4.156-8.562-7.744-13.216-10.764c-0.388-0.277-0.762-0.526-1.122-0.748c-0.582-0.388-1.122-0.845-1.621-1.372
					c-1.801-1.801-2.895-3.865-3.283-6.193h-0.042c0-0.055,0-0.263,0-0.623c0-0.332-0.014-0.776-0.042-1.33
					c-0.028-1.94,0.416-3.699,1.33-5.278c0.914-1.579,2.147-2.826,3.699-3.74c1.552-0.942,3.297-1.427,5.237-1.455h7.315
					c6.068-0.028,11.734-1.164,16.998-3.408c5.292-2.272,9.933-5.403,13.923-9.393c3.99-4.018,7.121-8.659,9.393-13.923
					c2.244-5.264,3.394-10.944,3.45-17.04v-83.953c-0.055-6.068-1.205-11.748-3.45-17.04c-2.272-5.264-5.403-9.891-9.393-13.881
					C201.82,418.83,197.179,415.699,191.887,413.427 M199.326,495.718c0,21.39-7.564,39.621-22.692,54.694
					c-15.1,15.128-33.346,22.692-54.736,22.692c-13.244,0-25.297-2.895-36.158-8.686c-6.65-3.574-12.856-8.243-18.619-14.006
					c-15.045-15.073-22.568-33.304-22.568-54.694c0-21.39,7.523-39.649,22.568-54.777c15.128-15.045,33.387-22.568,54.777-22.568
					c21.39-0.028,39.635,7.495,54.736,22.568C191.762,456.068,199.326,474.328,199.326,495.718 M154.98,634.739
					c9.06,9.06,13.59,20.032,13.59,32.916c0,12.856-4.53,23.842-13.59,32.958c-9.143,9.088-20.143,13.632-32.999,13.632
					c-12.884,0-23.87-4.544-32.958-13.632c-9.06-9.088-13.59-20.074-13.59-32.958c0-12.856,4.53-23.828,13.59-32.916
					c3.547-3.574,7.398-6.442,11.554-8.603c6.428-3.38,13.563-5.07,21.404-5.07C134.837,621.065,145.837,625.623,154.98,634.739
					 M164.498,667.613c0-11.748-4.128-21.764-12.385-30.049c-8.368-8.34-18.425-12.51-30.173-12.51
					c-5.569,0-10.764,0.956-15.585,2.868c-5.292,2.05-10.113,5.264-14.463,9.642c-8.312,8.284-12.468,18.301-12.468,30.049
					s4.156,21.792,12.468,30.132c8.312,8.284,18.328,12.441,30.049,12.468c11.748-0.028,21.806-4.184,30.173-12.468
					C160.37,689.405,164.498,679.361,164.498,667.613 M133.784,661.296c0.139,0.139,0.346,0.18,0.623,0.125l5.112-1.081l-1.33,5.07
					c-0.111,0.36-0.194,0.665-0.249,0.914c-0.055,0.277-0.055,0.485,0,0.623c0.083,0.139,0.263,0.277,0.54,0.416l1.829,0.873
					l-8.852,7.439c-0.166,0.139-0.277,0.333-0.333,0.582c-0.111,0.194-0.111,0.416,0,0.665l0.748,2.66
					c-1.025-0.139-2.009-0.263-2.951-0.374c-0.997-0.111-1.967-0.236-2.909-0.374c-0.942-0.111-1.898-0.222-2.868-0.332l0.707,9.268
					h-3.574l0.623-9.268c-0.028,0-0.055,0-0.083,0c-0.997,0.111-1.981,0.222-2.951,0.332c-0.942,0.139-1.898,0.263-2.868,0.374
					c-0.942,0.111-1.926,0.235-2.951,0.374l0.831-2.66c0.028-0.249,0-0.471-0.083-0.665c-0.083-0.249-0.194-0.443-0.333-0.582
					l-8.852-7.439l1.829-0.873c0.249-0.139,0.416-0.277,0.499-0.416c0.055-0.138,0.055-0.346,0-0.623
					c-0.055-0.249-0.125-0.554-0.208-0.914l-1.372-5.07l5.154,1.081c0.222,0.055,0.416,0.014,0.582-0.125
					c0.166-0.111,0.277-0.249,0.332-0.416l0.665-2.411l4.031,4.738c0.139,0.166,0.305,0.305,0.499,0.416
					c0.194,0.083,0.374,0.083,0.54,0c0.166-0.055,0.277-0.194,0.333-0.416c0.083-0.222,0.069-0.554-0.042-0.997l-1.662-9.559
					l2.286,1.247c0.36,0.222,0.679,0.332,0.956,0.332c0.277-0.055,0.499-0.235,0.665-0.54l3.242-6.276l3.242,6.276
					c0.166,0.305,0.402,0.485,0.707,0.54c0.277,0,0.596-0.111,0.956-0.332l2.327-1.247l-1.746,9.559
					c-0.111,0.443-0.125,0.776-0.042,0.997c0.083,0.222,0.208,0.36,0.374,0.416c0.166,0.083,0.333,0.083,0.499,0
					c0.194-0.111,0.374-0.249,0.54-0.416l4.031-4.738l0.707,2.411C133.563,661.047,133.646,661.185,133.784,661.296"/>
			</g>
		</g>
		<g id="Layer0_0_1_STROKES_1_">
			<g>
				<path class="st0" d="M121.898,541.817c-5.152,0-9.63-1.846-13.31-5.488c-3.652-3.689-5.484-8.139-5.484-13.264
					c0-2.782,2.255-5.037,5.037-5.037s5.037,2.255,5.037,5.037c0,2.443,0.805,4.394,2.533,6.141
					c1.737,1.719,3.715,2.537,6.186,2.537c2.461,0,4.42-0.812,6.164-2.556c1.754-1.754,2.579-3.712,2.597-6.159
					c0.021-2.769,2.272-5,5.036-5c0.013,0,0.026,0,0.038,0c2.782,0.021,5.02,2.292,5,5.075c-0.038,5.12-1.905,9.564-5.548,13.208
					C131.53,539.964,127.06,541.817,121.898,541.817z M168.317,523.28c-7.614,0.049-14.224-2.65-19.619-7.977
					c-0.036-0.036-0.072-0.073-0.108-0.11c-0.614-0.643-1.205-1.298-1.758-1.943c-0.021-0.025-0.043-0.05-0.063-0.075
					c-4.099-4.979-6.177-10.839-6.177-17.415c0-6.604,2.078-12.477,6.177-17.457c0.021-0.026,0.043-0.052,0.065-0.077
					c0.552-0.643,1.142-1.296,1.754-1.939c0.032-0.034,0.065-0.068,0.099-0.101c5.363-5.329,11.927-8.031,19.51-8.031
					c7.595,0,14.139,2.709,19.449,8.053c5.38,5.381,8.114,11.963,8.114,19.552c0,7.562-2.734,14.13-8.125,19.521
					C182.363,520.585,175.86,523.28,168.317,523.28z M155.83,508.187c3.445,3.377,7.491,5.019,12.367,5.019
					c4.878,0.039,8.913-1.626,12.304-5.038c3.493-3.493,5.185-7.548,5.185-12.408c0-4.888-1.692-8.957-5.175-12.44
					c-3.408-3.429-7.432-5.091-12.314-5.091c-4.871,0-8.915,1.653-12.36,5.054c-0.462,0.487-0.906,0.978-1.321,1.461
					c-2.59,3.163-3.85,6.767-3.85,11.016c0,4.221,1.26,7.811,3.85,10.975C154.929,507.215,155.371,507.703,155.83,508.187z
					 M75.179,523.28c-0.048,0-0.095,0-0.143,0c-7.56,0-14.11-2.688-19.445-7.989c-0.063-0.063-0.125-0.127-0.185-0.193l-1.58-1.747
					c-0.048-0.053-0.094-0.107-0.14-0.161c-4.135-4.983-6.231-10.847-6.231-17.43c0-6.611,2.097-12.49,6.231-17.472
					c0.046-0.055,0.093-0.11,0.142-0.163l1.576-1.743c0.057-0.063,0.115-0.125,0.176-0.185c5.337-5.336,11.891-8.042,19.479-8.042
					c7.589,0,14.143,2.705,19.479,8.042c5.392,5.393,8.125,11.974,8.125,19.563c0,7.562-2.734,14.13-8.125,19.521
					C89.229,520.589,82.716,523.28,75.179,523.28z M62.782,508.235c3.408,3.345,7.426,4.972,12.277,4.972c0.032,0,0.065,0,0.097,0
					c4.858,0,8.862-1.652,12.26-5.05c3.481-3.481,5.174-7.537,5.174-12.397c0-4.888-1.692-8.957-5.175-12.44
					c-3.426-3.426-7.468-5.091-12.356-5.091c-4.848,0-8.863,1.638-12.271,5.008l-1.414,1.562c-2.587,3.151-3.845,6.738-3.845,10.961
					c0,4.195,1.258,7.768,3.845,10.919L62.782,508.235z"/>
			</g>
		</g>
		<g>
			<path class="st0" d="M80.837,405.863h82.083c2.68,0,5.185-1.336,6.678-3.562l8.667-12.922l-5.991-1.086
				c-0.831-0.134-1.434-0.415-1.809-0.844c-0.241-0.322-0.402-0.911-0.483-1.769c0-0.724,0-1.662,0-2.814l-0.121-15.68
				l-13.911,7.116c-0.777,0.348-1.38,0.389-1.809,0.121c-0.563-0.214-0.952-0.536-1.166-0.965l-3.98-6.232l-6.227,12.317
				c-0.83,1.641-3.319,0.83-3.022-0.985l3.541-21.624l-6.875,3.779c-1.045,0.563-1.97,0.844-2.774,0.844
				c-0.965-0.08-1.689-0.603-2.171-1.568l-9.649-18.695l-9.649,18.695c-0.563,0.965-1.246,1.488-2.05,1.568
				c-0.885,0-1.849-0.281-2.895-0.844l-6.714-3.779l3.57,22.11c0.293,1.814-2.196,2.622-3.023,0.981l-6.377-12.638l-3.819,6.553
				c-0.295,0.402-0.697,0.71-1.206,0.925c-0.563,0.268-1.166,0.228-1.809-0.121l-13.951-7.116l-0.161,15.72
				c0.027,1.179,0.04,2.131,0.04,2.855c-0.08,0.831-0.282,1.394-0.603,1.689c-0.268,0.429-0.831,0.71-1.689,0.844l-5.95,1.126
				l8.698,12.543C75.732,404.571,78.2,405.863,80.837,405.863z"/>
		</g>
	</g>
</g>
<g>
	<path class="st0" d="M131.421,227.838c-0.008,0-0.016,0-0.024,0c-2.077,0-4.183-0.057-6.256-0.17
		c-1.654-0.089-2.923-1.503-2.833-3.157c0.089-1.655,1.51-2.956,3.157-2.833c1.967,0.106,3.963,0.16,5.933,0.16
		c0.008,0,0.016,0,0.023,0c4.498,0,9.028-0.28,13.466-0.834c1.639-0.205,3.143,0.961,3.348,2.605
		c0.205,1.644-0.961,3.143-2.605,3.348C140.947,227.542,136.166,227.838,131.421,227.838z M115.36,226.687
		c-0.144,0-0.289-0.011-0.437-0.032c-0.004,0-0.107-0.016-0.111-0.017c-1.639-0.248-2.765-1.777-2.517-3.415
		c0.248-1.639,1.774-2.771,3.415-2.517c1.636,0.247,2.812,1.78,2.567,3.416C118.055,225.611,116.815,226.687,115.36,226.687z
		 M155.126,225.293c-1.368,0-2.61-0.937-2.931-2.323c-0.371-1.609,0.617-3.214,2.225-3.592c0.021-0.006,0.141-0.031,0.163-0.036
		c1.616-0.346,3.214,0.691,3.557,2.312c0.344,1.62-0.691,3.213-2.312,3.557l-0.622-2.935l0.587,2.942
		C155.569,225.27,155.346,225.293,155.126,225.293z M105.451,224.787c-0.232,0-0.467-0.027-0.702-0.084
		c-6.645-1.592-13.184-3.804-19.436-6.572c-1.515-0.671-2.199-2.443-1.528-3.958s2.438-2.201,3.958-1.528
		c5.921,2.622,12.112,4.716,18.404,6.225c1.611,0.386,2.604,2.005,2.218,3.616C108.036,223.861,106.806,224.787,105.451,224.787z
		 M164.86,222.701c-1.273,0-2.455-0.818-2.859-2.097c-0.499-1.58,0.377-3.266,1.956-3.765c6.162-1.947,12.189-4.474,17.915-7.508
		c1.464-0.777,3.28-0.219,4.056,1.245c0.776,1.464,0.219,3.28-1.245,4.056c-6.046,3.205-12.41,5.872-18.917,7.928
		C165.464,222.656,165.16,222.701,164.86,222.701z M77.577,213.931c-0.501,0-1.009-0.126-1.477-0.391l1.479-2.61l-1.508,2.594
		c-1.443-0.797-1.988-2.617-1.201-4.065c0.786-1.45,2.58-1.999,4.033-1.225l0.155,0.086c1.441,0.817,1.947,2.647,1.131,4.09
		C79.637,213.383,78.622,213.931,77.577,213.931z M191.888,209.909c-0.987,0-1.953-0.486-2.526-1.378
		c-0.896-1.394-0.492-3.25,0.901-4.146c1.388-0.907,3.277-0.54,4.185,0.845c0.908,1.386,0.552,3.226-0.834,4.134l-0.106,0.068
		C193.005,209.756,192.444,209.909,191.888,209.909z M68.985,208.628c-0.582,0-1.17-0.169-1.688-0.521
		c-5.64-3.846-10.969-8.228-15.84-13.025c-1.18-1.163-1.194-3.062-0.032-4.243c1.164-1.18,3.062-1.193,4.243-0.032
		c4.615,4.547,9.666,8.7,15.01,12.344c1.368,0.934,1.722,2.8,0.788,4.169C70.885,208.17,69.944,208.628,68.985,208.628z
		 M200.084,204.02c-0.887,0-1.764-0.391-2.356-1.141c-1.026-1.3-0.805-3.187,0.495-4.214c5.08-4.013,9.828-8.508,14.112-13.36
		c1.097-1.244,2.993-1.36,4.234-0.264c1.242,1.097,1.36,2.992,0.264,4.234c-4.521,5.121-9.53,9.864-14.892,14.099
		C201.391,203.809,200.736,204.02,200.084,204.02z M46.709,188.595c-0.831,0-1.651-0.35-2.236-1.041l-0.064-0.076
		c-1.07-1.265-0.912-3.157,0.353-4.228c1.266-1.07,3.158-0.913,4.228,0.353c1.07,1.265,0.945,3.195-0.32,4.266
		C48.095,188.354,47.399,188.595,46.709,188.595z M220.854,182.508c-0.644,0-1.292-0.206-1.84-0.632
		c-1.308-1.018-1.543-2.902-0.526-4.21c0.963-1.348,2.829-1.651,4.179-0.689c1.348,0.964,1.653,2.846,0.69,4.194l-0.133,0.179
		C222.632,182.11,221.748,182.508,220.854,182.508z M40.593,180.63c-0.944,0-1.873-0.444-2.457-1.274
		c-3.935-5.597-7.378-11.575-10.234-17.77c-0.693-1.504-0.036-3.286,1.469-3.98c1.503-0.695,3.285-0.037,3.98,1.469
		c2.705,5.866,5.967,11.529,9.693,16.83c0.953,1.355,0.627,3.227-0.729,4.18C41.79,180.453,41.189,180.63,40.593,180.63z
		 M226.454,174.107c-0.527,0-1.062-0.139-1.546-0.431c-1.419-0.855-1.876-2.699-1.021-4.118c3.347-5.554,6.203-11.435,8.489-17.479
		c0.585-1.55,2.316-2.333,3.867-1.744c1.55,0.586,2.331,2.317,1.744,3.867c-2.413,6.381-5.429,12.59-8.962,18.453
		C228.462,173.591,227.471,174.107,226.454,174.107z M26.856,154.078c-1.246,0-2.409-0.782-2.837-2.025l2.837-0.976l-2.847,0.947
		c-0.551-1.552,0.245-3.276,1.792-3.841c1.545-0.562,3.252,0.204,3.83,1.746c0.01,0.026,0.053,0.146,0.062,0.172
		c0.539,1.567-0.295,3.274-1.861,3.812C27.508,154.025,27.179,154.078,26.856,154.078z M238.291,146.645
		c-0.262,0-0.527-0.034-0.791-0.106c-1.599-0.437-2.541-2.085-2.105-3.684l0.026-0.097c0.437-1.599,2.09-2.544,3.684-2.105
		c1.599,0.437,2.541,2.085,2.105,3.684l-0.026,0.097C240.82,145.767,239.611,146.645,238.291,146.645z M23.914,144.424
		c-1.339,0-2.559-0.902-2.905-2.259c-1.684-6.601-2.778-13.413-3.253-20.247c-0.114-1.653,1.133-3.086,2.785-3.201
		c1.673-0.114,3.086,1.133,3.201,2.785c0.449,6.476,1.485,12.928,3.081,19.179c0.409,1.605-0.56,3.239-2.165,3.649
		C24.409,144.394,24.159,144.424,23.914,144.424z M240.543,136.805c-0.178,0-0.357-0.017-0.538-0.049
		c-1.631-0.295-2.713-1.856-2.418-3.486c1.147-6.339,1.729-12.849,1.729-19.351c0.001-5.029-0.349-10.089-1.039-15.04
		c-0.229-1.641,0.916-3.156,2.558-3.386c1.646-0.227,3.156,0.916,3.386,2.558c0.728,5.225,1.097,10.563,1.096,15.869
		c0,6.858-0.614,13.729-1.825,20.418C243.229,135.788,241.966,136.805,240.543,136.805z M20.502,114.719c-0.03,0-0.06,0-0.09-0.001
		c-1.656-0.049-2.96-1.431-2.911-3.087l2.999,0.088l-2.998-0.116c0.033-1.635,1.368-2.962,3-2.962c0.01,0,0.02,0,0.03,0
		c1.645,0.017,2.97,1.333,2.97,2.979c0,0.029-0.002,0.158-0.003,0.188C23.452,113.433,22.118,114.719,20.502,114.719z
		 M21.154,104.646c-0.11,0-0.221-0.006-0.332-0.018c-1.647-0.182-2.835-1.664-2.654-3.311c0.749-6.801,2.12-13.563,4.075-20.1
		c0.475-1.587,2.146-2.492,3.733-2.015c1.588,0.475,2.489,2.146,2.015,3.733c-1.851,6.19-3.149,12.596-3.858,19.037
		C23.962,103.51,22.664,104.646,21.154,104.646z M239.42,91.642c-1.395,0-2.644-0.978-2.936-2.396
		c-0.391-1.609,0.599-3.229,2.209-3.62c1.612-0.394,3.232,0.602,3.623,2.211l0.045,0.2c0.334,1.622-0.711,3.209-2.334,3.543
		C239.825,91.621,239.621,91.642,239.42,91.642z M236.685,81.928c-1.258,0-2.429-0.797-2.847-2.055
		c-2.038-6.134-4.651-12.122-7.767-17.799c-0.797-1.452-0.266-3.276,1.187-4.073c1.454-0.797,3.276-0.265,4.073,1.187
		c3.29,5.994,6.049,12.317,8.2,18.793c0.522,1.572-0.328,3.271-1.9,3.793C237.317,81.878,236.998,81.928,236.685,81.928z
		 M28.412,75.646c-0.376,0-0.758-0.071-1.128-0.222c-1.535-0.623-2.274-2.373-1.65-3.908l2.779,1.129l-2.761-1.176
		c0.601-1.544,2.34-2.31,3.882-1.712c1.544,0.6,2.312,2.334,1.714,3.878c-0.006,0.016-0.05,0.124-0.056,0.139
		C30.718,74.938,29.596,75.646,28.412,75.646z M32.593,66.457c-0.46,0-0.926-0.106-1.364-0.33c-1.475-0.755-2.059-2.562-1.304-4.038
		c3.111-6.077,6.796-11.912,10.952-17.342c1.006-1.316,2.891-1.565,4.205-0.559c1.315,1.007,1.566,2.89,0.559,4.205
		c-3.938,5.145-7.428,10.672-10.374,16.43C34.736,65.86,33.684,66.457,32.593,66.457z M223.506,55.096
		c-0.978,0-1.937-0.477-2.513-1.355c-0.902-1.379-0.553-3.269,0.817-4.182c1.372-0.913,3.193-0.593,4.119,0.77
		c0.009,0.014,0.074,0.11,0.083,0.123c0.907,1.387,0.521,3.246-0.865,4.154C224.64,54.938,224.07,55.096,223.506,55.096z
		 M217.498,46.983c-0.872,0-1.736-0.378-2.329-1.107c-4.085-5.021-8.647-9.704-13.562-13.918c-1.258-1.078-1.402-2.973-0.324-4.23
		c1.078-1.257,2.972-1.403,4.23-0.324c5.186,4.446,10.001,9.388,14.311,14.688c1.046,1.285,0.852,3.175-0.435,4.22
		C218.833,46.764,218.164,46.983,217.498,46.983z M49.698,41.859c-0.723,0-1.443-0.255-2.01-0.776
		c-1.22-1.121-1.332-2.982-0.211-4.202l0.067-0.073c1.122-1.219,3.021-1.298,4.239-0.177c1.22,1.122,1.298,3.02,0.177,4.239
		C51.36,41.522,50.528,41.859,49.698,41.859z M56.843,34.793c-0.816,0-1.63-0.331-2.222-0.983c-1.114-1.227-1.022-3.123,0.204-4.237
		c5.062-4.598,10.563-8.76,16.353-12.371c1.407-0.878,3.257-0.448,4.133,0.957c0.877,1.405,0.449,3.256-0.957,4.133
		c-5.484,3.422-10.698,7.366-15.495,11.723C58.285,34.535,57.563,34.793,56.843,34.793z M195.673,26.518
		c-0.575,0-1.156-0.166-1.67-0.515l-0.142-0.099c-1.348-0.963-1.66-2.837-0.697-4.186c0.964-1.348,2.835-1.659,4.186-0.697
		l-1.744,2.441l1.772-2.421c1.354,0.943,1.703,2.811,0.769,4.17C197.564,26.06,196.627,26.518,195.673,26.518z M187.206,21.042
		c-0.514,0-1.033-0.131-1.509-0.408c-5.596-3.265-11.518-6.035-17.599-8.234c-1.558-0.563-2.364-2.283-1.801-3.842
		c0.563-1.558,2.286-2.365,3.842-1.801c6.421,2.322,12.673,5.247,18.581,8.693c1.431,0.835,1.914,2.672,1.08,4.104
		C189.243,20.51,188.238,21.042,187.206,21.042z M81.476,17.845c-1.101,0-2.159-0.608-2.686-1.659
		c-0.74-1.482-0.14-3.284,1.342-4.025l1.342,2.684l-1.287-2.711c1.474-0.76,3.281-0.182,4.042,1.29
		c0.76,1.473,0.183,3.282-1.29,4.042c-0.012,0.006-0.111,0.057-0.123,0.062C82.385,17.742,81.927,17.845,81.476,17.845z
		 M90.681,13.713c-1.195,0-2.325-0.72-2.791-1.899c-0.608-1.541,0.147-3.283,1.688-3.892c6.352-2.509,12.974-4.451,19.681-5.772
		c1.63-0.326,3.204,0.737,3.523,2.363c0.32,1.626-0.737,3.203-2.363,3.523c-6.352,1.252-12.622,3.091-18.638,5.466
		C91.42,13.646,91.047,13.713,90.681,13.713z M159.574,9.61c-0.232,0-0.469-0.027-0.706-0.084c-0.027-0.007-0.151-0.04-0.179-0.047
		c-1.599-0.437-2.541-2.085-2.105-3.684c0.437-1.599,2.091-2.544,3.684-2.105l-0.789,2.895l0.817-2.887
		c1.593,0.418,2.571,2.045,2.168,3.641C162.121,8.699,160.913,9.61,159.574,9.61z M149.709,7.504c-0.164,0-0.329-0.013-0.495-0.041
		C143.368,6.492,137.373,6,131.398,6c-0.519,0-1.041,0.004-1.559,0.011c-1.662,0.009-3.019-1.3-3.044-2.956
		c-0.024-1.656,1.3-3.02,2.956-3.044c0.55-0.008,1.09-0.011,1.652-0.011c6.298,0,12.623,0.52,18.793,1.545
		c1.635,0.271,2.739,1.816,2.468,3.45C152.421,6.464,151.15,7.504,149.709,7.504z M119.729,6.606c-1.501,0-2.803-1.122-2.981-2.648
		c-0.194-1.646,0.977-3.136,2.622-3.329l0.187-0.02c1.646-0.14,3.106,1.073,3.252,2.725c0.146,1.65-1.074,3.106-2.725,3.252
		C119.964,6.6,119.846,6.606,119.729,6.606z"/>
</g>
<g>
	<path class="st0" d="M89.832,57.335c0-0.811,0.406-1.217,1.217-1.217h1.248c0.811,0,1.216,0.406,1.216,1.217v15.104
		c0,1.068-0.16,2.006-0.479,2.816c-0.32,0.811-0.769,1.482-1.345,2.016c-0.575,0.533-1.253,0.934-2.032,1.201
		c-0.779,0.266-1.627,0.398-2.543,0.398c-0.918,0-1.766-0.133-2.545-0.398c-0.779-0.268-1.455-0.668-2.031-1.201
		s-1.024-1.205-1.345-2.016c-0.319-0.811-0.479-1.748-0.479-2.816v-0.191c0-0.811,0.404-1.217,1.216-1.217h1.376
		c0.725,0,1.088,0.363,1.088,1.088c0,0.619,0.068,1.137,0.208,1.553c0.139,0.416,0.331,0.752,0.576,1.008s0.532,0.438,0.864,0.545
		c0.33,0.105,0.688,0.16,1.072,0.16c0.383,0,0.74-0.055,1.071-0.16c0.331-0.107,0.618-0.289,0.864-0.545
		c0.244-0.256,0.437-0.592,0.576-1.008c0.139-0.416,0.207-0.934,0.207-1.553V57.335z"/>
	<path class="st0" d="M98.952,61.655h1.151c0.769,0,1.152,0.383,1.152,1.152v10.176c0,1.023,0.209,1.723,0.625,2.096
		s0.922,0.561,1.52,0.561c0.597,0,1.104-0.188,1.52-0.561s0.624-1.072,0.624-2.096V62.808c0-0.77,0.384-1.152,1.152-1.152h1.151
		c0.769,0,1.152,0.383,1.152,1.152v10.4c0,0.938-0.145,1.764-0.432,2.479c-0.288,0.715-0.678,1.307-1.168,1.777
		c-0.491,0.469-1.083,0.82-1.776,1.055s-1.435,0.352-2.224,0.352c-0.811,0-1.558-0.117-2.24-0.352
		c-0.684-0.234-1.27-0.586-1.76-1.055c-0.491-0.471-0.881-1.062-1.168-1.777c-0.288-0.715-0.432-1.541-0.432-2.479v-10.4
		C97.8,62.038,98.183,61.655,98.952,61.655z"/>
	<path class="st0" d="M119.656,66.007c0-0.469-0.16-0.832-0.48-1.088s-0.758-0.385-1.312-0.385c-0.556,0-0.992,0.129-1.312,0.385
		c-0.32,0.256-0.48,0.662-0.48,1.217v0.062c0,0.557,0.181,0.992,0.544,1.312c0.362,0.32,0.811,0.604,1.344,0.848
		c0.533,0.246,1.12,0.492,1.761,0.736c0.64,0.246,1.227,0.566,1.76,0.961s0.98,0.906,1.344,1.535
		c0.362,0.629,0.544,1.457,0.544,2.48c0,0.768-0.14,1.451-0.416,2.047c-0.277,0.598-0.656,1.1-1.136,1.504
		c-0.48,0.406-1.057,0.717-1.729,0.93s-1.402,0.318-2.191,0.318c-0.812,0-1.547-0.117-2.209-0.352
		c-0.66-0.234-1.231-0.549-1.711-0.943c-0.48-0.395-0.854-0.869-1.121-1.424c-0.266-0.555-0.399-1.152-0.399-1.793v-0.191
		c0-0.768,0.384-1.152,1.151-1.152h1.312c0.661,0,0.992,0.332,0.992,0.992c0,0.555,0.182,0.965,0.544,1.232s0.843,0.4,1.44,0.4
		c0.597,0,1.082-0.129,1.455-0.385s0.561-0.693,0.561-1.312V73.88c0-0.555-0.182-0.988-0.544-1.297
		c-0.363-0.309-0.812-0.58-1.345-0.816c-0.533-0.234-1.119-0.469-1.76-0.703c-0.64-0.234-1.227-0.549-1.76-0.945
		c-0.533-0.395-0.981-0.9-1.344-1.52c-0.363-0.617-0.544-1.439-0.544-2.463c0-1.537,0.485-2.727,1.456-3.568
		c0.971-0.844,2.234-1.264,3.792-1.264c0.789,0,1.504,0.117,2.144,0.352c0.641,0.234,1.189,0.561,1.648,0.977
		s0.816,0.895,1.072,1.439c0.256,0.543,0.384,1.137,0.384,1.775c0,0.768-0.384,1.152-1.152,1.152h-1.312
		C119.986,66.999,119.656,66.669,119.656,66.007z"/>
	<path class="st0" d="M133.224,78.519c-0.32,0.064-0.613,0.102-0.881,0.113c-0.267,0.01-0.518,0.016-0.752,0.016
		c-1.535,0-2.709-0.357-3.52-1.072c-0.811-0.715-1.217-1.936-1.217-3.664V58.679c0-0.768,0.385-1.152,1.152-1.152h1.152
		c0.768,0,1.152,0.385,1.152,1.152v2.977h2.752c0.768,0,1.152,0.383,1.152,1.152v0.928c0,0.768-0.385,1.152-1.152,1.152h-2.752
		v8.768c0,0.662,0.127,1.119,0.384,1.375c0.256,0.256,0.714,0.385,1.376,0.385c0.277,0,0.607-0.031,0.992-0.096
		c0.384-0.064,0.672,0.01,0.863,0.225c0.192,0.213,0.289,0.512,0.289,0.895v0.928c0,0.385-0.092,0.656-0.272,0.816
		C133.762,78.343,133.522,78.454,133.224,78.519z"/>
	<path class="st0" d="M150.759,78.519c-0.32,0.064-0.613,0.102-0.881,0.113c-0.267,0.01-0.518,0.016-0.752,0.016
		c-1.535,0-2.709-0.357-3.52-1.072s-1.217-1.936-1.217-3.664V58.679c0-0.768,0.385-1.152,1.152-1.152h1.152
		c0.768,0,1.152,0.385,1.152,1.152v2.977h2.752c0.768,0,1.152,0.383,1.152,1.152v0.928c0,0.768-0.385,1.152-1.152,1.152h-2.752
		v8.768c0,0.662,0.127,1.119,0.384,1.375c0.256,0.256,0.714,0.385,1.376,0.385c0.277,0,0.607-0.031,0.992-0.096
		c0.384-0.064,0.672,0.01,0.863,0.225c0.192,0.213,0.289,0.512,0.289,0.895v0.928c0,0.385-0.092,0.656-0.272,0.816
		C151.297,78.343,151.057,78.454,150.759,78.519z"/>
	<path class="st0" d="M158.439,77.366c0,0.77-0.385,1.152-1.152,1.152h-1.152c-0.768,0-1.152-0.383-1.152-1.152V56.95
		c0-0.768,0.385-1.15,1.152-1.15h1.152c0.768,0,1.152,0.383,1.152,1.15v5.697c0.746-0.896,1.802-1.344,3.168-1.344
		c0.66,0,1.269,0.105,1.823,0.318c0.555,0.215,1.034,0.539,1.44,0.977c0.404,0.438,0.725,0.988,0.96,1.648
		c0.234,0.662,0.353,1.439,0.353,2.336v10.783c0,0.77-0.385,1.152-1.152,1.152h-1.152c-0.768,0-1.152-0.383-1.152-1.152V67.19
		c0-1.023-0.207-1.723-0.623-2.096s-0.924-0.561-1.521-0.561c-0.598,0-1.104,0.188-1.521,0.561s-0.623,1.072-0.623,2.096V77.366z"/>
	<path class="st0" d="M177.51,73.847c0-0.66,0.331-0.992,0.992-0.992h1.312c0.768,0,1.152,0.385,1.152,1.152
		c0,1.451-0.496,2.625-1.488,3.52c-0.992,0.896-2.309,1.344-3.951,1.344c-0.812,0-1.559-0.117-2.24-0.352
		c-0.684-0.234-1.27-0.586-1.76-1.055c-0.492-0.471-0.881-1.062-1.168-1.777c-0.289-0.715-0.433-1.541-0.433-2.479v-6.24
		c0-0.939,0.144-1.766,0.433-2.48c0.287-0.715,0.676-1.307,1.168-1.775c0.49-0.471,1.076-0.822,1.76-1.057
		c0.682-0.234,1.429-0.352,2.24-0.352c0.789,0,1.529,0.117,2.223,0.352s1.285,0.586,1.777,1.057c0.49,0.469,0.879,1.061,1.168,1.775
		c0.287,0.715,0.432,1.541,0.432,2.48v2.719c0,0.768-0.385,1.152-1.152,1.152h-6.592v2.145c0,1.023,0.208,1.723,0.624,2.096
		s0.923,0.561,1.521,0.561c0.617,0,1.104-0.16,1.455-0.48C177.334,74.839,177.51,74.401,177.51,73.847z M173.382,68.247h4.288V67.19
		c0-1.023-0.208-1.723-0.624-2.096s-0.924-0.561-1.52-0.561c-0.598,0-1.104,0.188-1.521,0.561s-0.624,1.072-0.624,2.096V68.247z"/>
	<path class="st0" d="M70.281,103.591c0,0.896-0.117,1.676-0.352,2.336c-0.234,0.662-0.555,1.211-0.96,1.648
		s-0.886,0.764-1.44,0.977s-1.162,0.318-1.824,0.318c-1.365,0-2.421-0.447-3.168-1.344v5.248c0,0.77-0.383,1.152-1.151,1.152h-1.151
		c-0.769,0-1.152-0.383-1.152-1.152V96.968c0-0.961,0.144-1.797,0.432-2.514c0.288-0.713,0.678-1.301,1.168-1.76
		c0.49-0.457,1.077-0.805,1.76-1.039s1.43-0.352,2.24-0.352c0.789,0,1.531,0.117,2.225,0.352c0.692,0.234,1.285,0.582,1.775,1.039
		c0.49,0.459,0.88,1.047,1.168,1.76c0.288,0.717,0.432,1.553,0.432,2.514V103.591z M66.826,97.19c0-1.023-0.209-1.723-0.625-2.096
		s-0.922-0.561-1.52-0.561s-1.104,0.188-1.52,0.561s-0.625,1.072-0.625,2.096v5.793c0,1.023,0.209,1.723,0.625,2.096
		s0.922,0.561,1.52,0.561s1.104-0.188,1.52-0.561s0.625-1.072,0.625-2.096V97.19z"/>
	<path class="st0" d="M81.321,103.847c0-0.66,0.331-0.992,0.992-0.992h1.312c0.768,0,1.152,0.385,1.152,1.152
		c0,1.451-0.496,2.625-1.488,3.52c-0.992,0.896-2.309,1.344-3.951,1.344c-0.812,0-1.559-0.117-2.24-0.352
		c-0.684-0.234-1.27-0.586-1.76-1.055c-0.492-0.471-0.881-1.062-1.168-1.777c-0.289-0.715-0.433-1.541-0.433-2.479v-6.24
		c0-0.939,0.144-1.766,0.433-2.48c0.287-0.715,0.676-1.307,1.168-1.775c0.49-0.471,1.076-0.822,1.76-1.057
		c0.682-0.234,1.429-0.352,2.24-0.352c0.789,0,1.529,0.117,2.223,0.352s1.285,0.586,1.777,1.057c0.49,0.469,0.879,1.061,1.168,1.775
		c0.287,0.715,0.432,1.541,0.432,2.48v2.719c0,0.768-0.385,1.152-1.152,1.152h-6.592v2.145c0,1.023,0.208,1.723,0.624,2.096
		s0.923,0.561,1.521,0.561c0.617,0,1.104-0.16,1.455-0.48C81.145,104.839,81.321,104.401,81.321,103.847z M77.193,98.247h4.288
		V97.19c0-1.023-0.208-1.723-0.624-2.096s-0.924-0.561-1.52-0.561c-0.598,0-1.104,0.188-1.521,0.561s-0.624,1.072-0.624,2.096
		V98.247z"/>
	<path class="st0" d="M94.184,94.728c-0.747,0-1.28,0.148-1.6,0.447c-0.32,0.299-0.479,0.822-0.479,1.568v10.623
		c0,0.77-0.385,1.152-1.152,1.152H89.8c-0.768,0-1.152-0.383-1.152-1.152V96.487c0-1.834,0.443-3.125,1.328-3.873
		c0.885-0.746,2.129-1.119,3.729-1.119c0.234,0,0.484,0.006,0.752,0.016c0.266,0.012,0.56,0.049,0.88,0.111
		c0.298,0.064,0.538,0.178,0.72,0.338c0.182,0.158,0.271,0.432,0.271,0.814v0.928c0,0.385-0.096,0.684-0.287,0.896
		c-0.192,0.215-0.48,0.289-0.864,0.225S94.461,94.728,94.184,94.728z"/>
	<path class="st0" d="M103.944,85.671c0.234,0,0.496,0.006,0.784,0.016c0.288,0.012,0.592,0.049,0.912,0.113
		c0.299,0.062,0.538,0.176,0.72,0.336c0.181,0.16,0.272,0.432,0.272,0.814v0.93c0,0.383-0.097,0.682-0.289,0.895
		c-0.191,0.215-0.479,0.289-0.863,0.225c-0.385-0.064-0.736-0.096-1.057-0.096c-0.746,0-1.27,0.148-1.567,0.447
		c-0.3,0.299-0.448,0.822-0.448,1.568v0.736h3.072c0.768,0,1.152,0.383,1.152,1.152v0.928c0,0.768-0.385,1.152-1.152,1.152h-3.072
		v12.479c0,0.77-0.384,1.152-1.152,1.152h-1.151c-0.769,0-1.152-0.383-1.152-1.152V90.663c0-1.834,0.433-3.125,1.296-3.871
		C101.112,86.044,102.343,85.671,103.944,85.671z"/>
	<path class="st0" d="M116.488,103.847c0-0.66,0.33-0.992,0.992-0.992h1.312c0.768,0,1.151,0.385,1.151,1.152
		c0,1.451-0.496,2.625-1.488,3.52c-0.991,0.896-2.31,1.344-3.952,1.344c-0.811,0-1.557-0.117-2.24-0.352
		c-0.683-0.234-1.27-0.586-1.76-1.055c-0.49-0.471-0.879-1.062-1.168-1.777c-0.287-0.715-0.432-1.541-0.432-2.479v-6.24
		c0-0.939,0.145-1.766,0.432-2.48c0.289-0.715,0.678-1.307,1.168-1.775c0.49-0.471,1.077-0.822,1.76-1.057
		c0.684-0.234,1.43-0.352,2.24-0.352c0.789,0,1.531,0.117,2.225,0.352s1.285,0.586,1.775,1.057c0.49,0.469,0.881,1.061,1.168,1.775
		c0.289,0.715,0.433,1.541,0.433,2.48v2.719c0,0.768-0.384,1.152-1.152,1.152h-6.592v2.145c0,1.023,0.208,1.723,0.624,2.096
		s0.922,0.561,1.52,0.561c0.619,0,1.104-0.16,1.457-0.48C116.312,104.839,116.488,104.401,116.488,103.847z M112.36,98.247h4.288
		V97.19c0-1.023-0.208-1.723-0.624-2.096s-0.923-0.561-1.521-0.561s-1.104,0.188-1.52,0.561s-0.624,1.072-0.624,2.096V98.247z"/>
	<path class="st0" d="M126.984,102.983c0,1.023,0.207,1.723,0.623,2.096c0.416,0.373,0.923,0.561,1.521,0.561
		c0.618,0,1.104-0.193,1.456-0.576c0.352-0.385,0.527-0.896,0.527-1.537c0-0.66,0.331-0.992,0.992-0.992h1.312
		c0.768,0,1.152,0.385,1.152,1.152c0,0.789-0.135,1.504-0.4,2.145c-0.268,0.641-0.641,1.184-1.12,1.633
		c-0.479,0.447-1.056,0.795-1.728,1.039s-1.403,0.367-2.192,0.367c-0.812,0-1.558-0.117-2.24-0.352s-1.27-0.586-1.76-1.055
		c-0.491-0.471-0.88-1.062-1.168-1.777s-0.433-1.541-0.433-2.479v-6.24c0-0.939,0.145-1.766,0.433-2.48s0.677-1.307,1.168-1.775
		c0.49-0.471,1.077-0.822,1.76-1.057s1.429-0.352,2.24-0.352c0.789,0,1.521,0.123,2.192,0.367c0.672,0.246,1.248,0.592,1.728,1.041
		c0.479,0.447,0.853,0.99,1.12,1.631c0.266,0.641,0.4,1.355,0.4,2.145c0,0.768-0.385,1.152-1.152,1.152h-1.312
		c-0.661,0-0.992-0.332-0.992-0.992c0-0.641-0.176-1.152-0.527-1.537c-0.352-0.383-0.838-0.576-1.456-0.576
		c-0.598,0-1.104,0.188-1.521,0.561c-0.416,0.373-0.623,1.072-0.623,2.096V102.983z"/>
	<path class="st0" d="M144.423,108.519c-0.32,0.064-0.613,0.102-0.881,0.113c-0.267,0.01-0.518,0.016-0.752,0.016
		c-1.535,0-2.709-0.357-3.52-1.072s-1.217-1.936-1.217-3.664V88.679c0-0.768,0.385-1.152,1.152-1.152h1.152
		c0.768,0,1.152,0.385,1.152,1.152v2.977h2.752c0.768,0,1.152,0.383,1.152,1.152v0.928c0,0.768-0.385,1.152-1.152,1.152h-2.752
		v8.768c0,0.662,0.127,1.119,0.384,1.375c0.256,0.256,0.714,0.385,1.376,0.385c0.277,0,0.607-0.031,0.992-0.096
		c0.384-0.064,0.672,0.01,0.863,0.225c0.192,0.213,0.289,0.512,0.289,0.895v0.928c0,0.385-0.092,0.656-0.272,0.816
		C144.961,108.343,144.721,108.454,144.423,108.519z"/>
	<path class="st0" d="M155.558,92.808c0-0.77,0.384-1.152,1.152-1.152h1.151c0.769,0,1.152,0.383,1.152,1.152v10.336
		c0,0.959,0.196,1.615,0.592,1.967c0.395,0.354,0.869,0.529,1.424,0.529s1.029-0.176,1.425-0.529
		c0.395-0.352,0.592-1.008,0.592-1.967V92.808c0-0.77,0.384-1.152,1.151-1.152h1.152c0.769,0,1.151,0.383,1.151,1.152v10.336
		c0,0.959,0.197,1.615,0.592,1.967c0.395,0.354,0.869,0.529,1.425,0.529c0.554,0,1.028-0.176,1.424-0.529
		c0.395-0.352,0.593-1.008,0.593-1.967V92.808c0-0.77,0.383-1.152,1.151-1.152h1.151c0.769,0,1.152,0.383,1.152,1.152v10.975
		c0,0.854-0.128,1.596-0.384,2.225s-0.608,1.158-1.056,1.584c-0.448,0.428-0.977,0.748-1.584,0.961
		c-0.608,0.213-1.275,0.318-2,0.318c-0.961,0-1.798-0.201-2.512-0.607c-0.716-0.404-1.275-1.002-1.681-1.791
		c-0.405,0.789-0.966,1.387-1.681,1.791c-0.715,0.406-1.551,0.607-2.512,0.607c-0.725,0-1.392-0.105-2-0.318
		c-0.607-0.213-1.136-0.533-1.584-0.961c-0.447-0.426-0.8-0.955-1.056-1.584s-0.384-1.371-0.384-2.225V92.808z"/>
	<path class="st0" d="M188.646,103.208c0,0.938-0.145,1.764-0.432,2.479c-0.289,0.715-0.678,1.307-1.168,1.777
		c-0.492,0.469-1.084,0.82-1.776,1.055c-0.694,0.234-1.435,0.352-2.224,0.352c-0.812,0-1.559-0.117-2.24-0.352
		c-0.684-0.234-1.275-0.564-1.776-0.992c-0.501-0.426-0.892-0.953-1.168-1.584c-0.277-0.629-0.416-1.348-0.416-2.16v-0.062
		c0-1.602,0.479-2.85,1.44-3.744c0.959-0.896,2.346-1.344,4.16-1.344h2.144V97.19c0-1.023-0.208-1.723-0.624-2.096
		s-0.923-0.561-1.52-0.561c-0.619,0-1.078,0.166-1.377,0.496c-0.299,0.332-0.447,0.732-0.447,1.201c0,0.66-0.332,0.992-0.992,0.992
		h-1.312c-0.768,0-1.152-0.385-1.152-1.152c0-0.684,0.123-1.312,0.369-1.889c0.244-0.576,0.597-1.076,1.056-1.504
		c0.458-0.426,1.013-0.762,1.664-1.008c0.65-0.244,1.381-0.367,2.192-0.367c0.789,0,1.529,0.117,2.224,0.352
		c0.692,0.234,1.284,0.586,1.776,1.057c0.49,0.469,0.879,1.061,1.168,1.775c0.287,0.715,0.432,1.541,0.432,2.48V103.208z
		 M183.046,105.64c0.597,0,1.104-0.188,1.52-0.561s0.624-1.072,0.624-2.096v-1.76h-2.144c-0.598,0-1.104,0.164-1.521,0.496
		c-0.416,0.33-0.624,0.9-0.624,1.711s0.208,1.383,0.624,1.713S182.449,105.64,183.046,105.64z"/>
	<path class="st0" d="M200.101,92.808c0-0.77,0.385-1.152,1.152-1.152h1.152c0.768,0,1.152,0.383,1.152,1.152v15.967
		c0,0.939-0.145,1.756-0.433,2.449s-0.677,1.264-1.168,1.711c-0.491,0.449-1.083,0.785-1.776,1.008
		c-0.693,0.225-1.435,0.336-2.224,0.336c-0.854,0-1.616-0.123-2.288-0.367c-0.672-0.246-1.242-0.576-1.712-0.992
		s-0.827-0.902-1.071-1.455c-0.246-0.557-0.369-1.152-0.369-1.793c0-0.768,0.385-1.152,1.152-1.152h1.312
		c0.66,0,0.992,0.33,0.992,0.992c0,0.469,0.159,0.869,0.479,1.201c0.319,0.33,0.821,0.496,1.504,0.496
		c0.597,0,1.104-0.16,1.521-0.48s0.623-0.992,0.623-2.016v-2.85c-0.746,0.896-1.803,1.346-3.168,1.346
		c-1.322,0-2.416-0.434-3.279-1.297c-0.864-0.863-1.297-2.191-1.297-3.984v-9.119c0-0.77,0.385-1.152,1.152-1.152h1.152
		c0.768,0,1.152,0.383,1.152,1.152v8.512c0,1.023,0.207,1.723,0.623,2.096s0.923,0.561,1.521,0.561c0.597,0,1.104-0.188,1.521-0.561
		s0.623-1.072,0.623-2.096V92.808z"/>
	<path class="st0" d="M62.873,138.519c-0.319,0.064-0.613,0.102-0.879,0.113c-0.268,0.01-0.518,0.016-0.752,0.016
		c-1.537,0-2.71-0.357-3.521-1.072c-0.812-0.715-1.216-1.936-1.216-3.664v-15.232c0-0.768,0.384-1.152,1.152-1.152h1.151
		c0.769,0,1.151,0.385,1.151,1.152v2.977h2.752c0.769,0,1.152,0.383,1.152,1.152v0.928c0,0.768-0.384,1.152-1.152,1.152H59.96v8.768
		c0,0.662,0.129,1.119,0.385,1.375s0.715,0.385,1.376,0.385c0.276,0,0.608-0.031,0.991-0.096c0.385-0.064,0.673,0.01,0.865,0.225
		c0.191,0.213,0.287,0.512,0.287,0.895v0.928c0,0.385-0.091,0.656-0.271,0.816C63.412,138.343,63.171,138.454,62.873,138.519z"/>
	<path class="st0" d="M77.817,133.208c0,0.959-0.144,1.797-0.433,2.512c-0.287,0.715-0.678,1.301-1.168,1.76
		s-1.082,0.805-1.775,1.039s-1.436,0.352-2.225,0.352c-0.811,0-1.557-0.117-2.24-0.352c-0.683-0.234-1.27-0.58-1.76-1.039
		s-0.879-1.045-1.168-1.76c-0.287-0.715-0.432-1.553-0.432-2.512v-6.24c0-0.939,0.145-1.766,0.432-2.48
		c0.289-0.715,0.678-1.307,1.168-1.775c0.49-0.471,1.077-0.822,1.76-1.057c0.684-0.234,1.43-0.352,2.24-0.352
		c0.789,0,1.531,0.117,2.225,0.352s1.285,0.586,1.775,1.057c0.49,0.469,0.881,1.061,1.168,1.775c0.289,0.715,0.433,1.541,0.433,2.48
		V133.208z M74.361,127.19c0-1.023-0.208-1.723-0.624-2.096s-0.923-0.561-1.521-0.561s-1.104,0.188-1.52,0.561
		s-0.624,1.072-0.624,2.096v5.793c0,1.023,0.208,1.723,0.624,2.096s0.922,0.561,1.52,0.561s1.104-0.188,1.521-0.561
		s0.624-1.072,0.624-2.096V127.19z"/>
	<path class="st0" d="M95.289,126.007c0-0.469-0.16-0.832-0.48-1.088s-0.758-0.385-1.312-0.385s-0.992,0.129-1.312,0.385
		c-0.32,0.256-0.479,0.662-0.479,1.217v0.062c0,0.557,0.18,0.992,0.543,1.312s0.811,0.604,1.344,0.848
		c0.533,0.246,1.121,0.492,1.761,0.736c0.64,0.246,1.227,0.566,1.76,0.961s0.981,0.906,1.345,1.535
		c0.361,0.629,0.543,1.457,0.543,2.48c0,0.768-0.139,1.451-0.416,2.047c-0.277,0.598-0.656,1.1-1.136,1.504
		c-0.479,0.406-1.056,0.717-1.728,0.93s-1.403,0.318-2.192,0.318c-0.812,0-1.547-0.117-2.208-0.352s-1.232-0.549-1.712-0.943
		s-0.854-0.869-1.12-1.424s-0.4-1.152-0.4-1.793v-0.191c0-0.768,0.385-1.152,1.152-1.152h1.312c0.66,0,0.992,0.332,0.992,0.992
		c0,0.555,0.181,0.965,0.543,1.232c0.363,0.268,0.844,0.4,1.44,0.4s1.083-0.129,1.456-0.385s0.561-0.693,0.561-1.312v-0.062
		c0-0.555-0.182-0.988-0.545-1.297s-0.811-0.58-1.344-0.816c-0.533-0.234-1.119-0.469-1.76-0.703s-1.227-0.549-1.76-0.945
		c-0.533-0.395-0.982-0.9-1.344-1.52c-0.363-0.617-0.545-1.439-0.545-2.463c0-1.537,0.485-2.727,1.457-3.568
		c0.97-0.844,2.234-1.264,3.791-1.264c0.789,0,1.504,0.117,2.145,0.352c0.64,0.234,1.189,0.561,1.648,0.977
		c0.458,0.416,0.815,0.895,1.071,1.439c0.256,0.543,0.384,1.137,0.384,1.775c0,0.768-0.384,1.152-1.152,1.152H96.28
		C95.619,126.999,95.289,126.669,95.289,126.007z"/>
	<path class="st0" d="M108.856,138.519c-0.319,0.064-0.613,0.102-0.88,0.113c-0.268,0.01-0.518,0.016-0.752,0.016
		c-1.536,0-2.709-0.357-3.52-1.072c-0.812-0.715-1.217-1.936-1.217-3.664v-15.232c0-0.768,0.385-1.152,1.152-1.152h1.152
		c0.768,0,1.151,0.385,1.151,1.152v2.977h2.752c0.769,0,1.152,0.383,1.152,1.152v0.928c0,0.768-0.384,1.152-1.152,1.152h-2.752
		v8.768c0,0.662,0.128,1.119,0.384,1.375s0.715,0.385,1.377,0.385c0.276,0,0.607-0.031,0.991-0.096s0.673,0.01,0.864,0.225
		c0.191,0.213,0.288,0.512,0.288,0.895v0.928c0,0.385-0.091,0.656-0.272,0.816S109.154,138.454,108.856,138.519z"/>
	<path class="st0" d="M123.511,133.208c0,0.938-0.144,1.764-0.432,2.479s-0.678,1.307-1.168,1.777
		c-0.491,0.469-1.083,0.82-1.775,1.055c-0.694,0.234-1.436,0.352-2.225,0.352c-0.811,0-1.558-0.117-2.24-0.352
		s-1.275-0.564-1.775-0.992c-0.502-0.426-0.892-0.953-1.168-1.584c-0.277-0.629-0.416-1.348-0.416-2.16v-0.062
		c0-1.602,0.479-2.85,1.439-3.744c0.96-0.896,2.347-1.344,4.16-1.344h2.145v-1.441c0-1.023-0.209-1.723-0.625-2.096
		s-0.922-0.561-1.52-0.561c-0.619,0-1.078,0.166-1.376,0.496c-0.299,0.332-0.448,0.732-0.448,1.201c0,0.66-0.331,0.992-0.992,0.992
		h-1.312c-0.769,0-1.152-0.385-1.152-1.152c0-0.684,0.122-1.312,0.368-1.889c0.245-0.576,0.598-1.076,1.057-1.504
		c0.458-0.426,1.012-0.762,1.664-1.008c0.65-0.244,1.381-0.367,2.191-0.367c0.789,0,1.53,0.117,2.225,0.352
		c0.692,0.234,1.284,0.586,1.775,1.057c0.49,0.469,0.88,1.061,1.168,1.775s0.432,1.541,0.432,2.48V133.208z M117.912,135.64
		c0.598,0,1.104-0.188,1.52-0.561s0.625-1.072,0.625-2.096v-1.76h-2.145c-0.598,0-1.104,0.164-1.52,0.496
		c-0.416,0.33-0.625,0.9-0.625,1.711s0.209,1.383,0.625,1.713S117.314,135.64,117.912,135.64z"/>
	<path class="st0" d="M132.79,124.728c-0.746,0-1.279,0.148-1.6,0.447s-0.479,0.822-0.479,1.568v10.623
		c0,0.77-0.384,1.152-1.152,1.152h-1.151c-0.769,0-1.152-0.383-1.152-1.152v-10.879c0-1.834,0.442-3.125,1.328-3.873
		c0.885-0.746,2.128-1.119,3.728-1.119c0.235,0,0.485,0.006,0.753,0.016c0.266,0.012,0.559,0.049,0.879,0.111
		c0.299,0.064,0.539,0.178,0.721,0.338c0.181,0.158,0.271,0.432,0.271,0.814v0.928c0,0.385-0.096,0.684-0.287,0.896
		c-0.193,0.215-0.48,0.289-0.865,0.225C133.4,124.759,133.068,124.728,132.79,124.728z"/>
	<path class="st0" d="M143.798,138.519c-0.319,0.064-0.613,0.102-0.879,0.113c-0.268,0.01-0.518,0.016-0.752,0.016
		c-1.537,0-2.71-0.357-3.521-1.072c-0.812-0.715-1.216-1.936-1.216-3.664v-15.232c0-0.768,0.384-1.152,1.152-1.152h1.151
		c0.769,0,1.151,0.385,1.151,1.152v2.977h2.752c0.769,0,1.152,0.383,1.152,1.152v0.928c0,0.768-0.384,1.152-1.152,1.152h-2.752
		v8.768c0,0.662,0.129,1.119,0.385,1.375s0.715,0.385,1.376,0.385c0.276,0,0.608-0.031,0.991-0.096
		c0.385-0.064,0.673,0.01,0.865,0.225c0.191,0.213,0.287,0.512,0.287,0.895v0.928c0,0.385-0.091,0.656-0.271,0.816
		C144.337,138.343,144.097,138.454,143.798,138.519z"/>
	<path class="st0" d="M162.646,122.808c0-0.77,0.384-1.152,1.152-1.152h1.152c0.768,0,1.151,0.383,1.151,1.152v15.967
		c0,0.939-0.144,1.756-0.433,2.449c-0.287,0.693-0.677,1.264-1.168,1.711c-0.49,0.449-1.082,0.785-1.775,1.008
		c-0.693,0.225-1.436,0.336-2.225,0.336c-0.854,0-1.615-0.123-2.287-0.367c-0.672-0.246-1.243-0.576-1.713-0.992
		c-0.469-0.416-0.826-0.902-1.071-1.455c-0.245-0.557-0.368-1.152-0.368-1.793c0-0.768,0.384-1.152,1.152-1.152h1.312
		c0.661,0,0.992,0.33,0.992,0.992c0,0.469,0.159,0.869,0.479,1.201c0.32,0.33,0.821,0.496,1.504,0.496
		c0.598,0,1.104-0.16,1.521-0.48s0.624-0.992,0.624-2.016v-2.85c-0.747,0.896-1.803,1.346-3.168,1.346
		c-1.323,0-2.416-0.434-3.28-1.297s-1.296-2.191-1.296-3.984v-9.119c0-0.77,0.385-1.152,1.152-1.152h1.152
		c0.768,0,1.151,0.383,1.151,1.152v8.512c0,1.023,0.208,1.723,0.624,2.096s0.922,0.561,1.52,0.561s1.104-0.188,1.521-0.561
		s0.624-1.072,0.624-2.096V122.808z"/>
	<path class="st0" d="M181.238,133.208c0,0.959-0.145,1.797-0.432,2.512c-0.289,0.715-0.678,1.301-1.168,1.76
		c-0.492,0.459-1.084,0.805-1.777,1.039s-1.434,0.352-2.223,0.352c-0.812,0-1.559-0.117-2.24-0.352
		c-0.684-0.234-1.27-0.58-1.76-1.039c-0.492-0.459-0.881-1.045-1.168-1.76c-0.289-0.715-0.433-1.553-0.433-2.512v-6.24
		c0-0.939,0.144-1.766,0.433-2.48c0.287-0.715,0.676-1.307,1.168-1.775c0.49-0.471,1.076-0.822,1.76-1.057
		c0.682-0.234,1.429-0.352,2.24-0.352c0.789,0,1.529,0.117,2.223,0.352s1.285,0.586,1.777,1.057c0.49,0.469,0.879,1.061,1.168,1.775
		c0.287,0.715,0.432,1.541,0.432,2.48V133.208z M177.782,127.19c0-1.023-0.208-1.723-0.624-2.096s-0.924-0.561-1.52-0.561
		c-0.598,0-1.104,0.188-1.521,0.561s-0.624,1.072-0.624,2.096v5.793c0,1.023,0.208,1.723,0.624,2.096s0.923,0.561,1.521,0.561
		c0.596,0,1.104-0.188,1.52-0.561s0.624-1.072,0.624-2.096V127.19z"/>
	<path class="st0" d="M186.133,121.655h1.151c0.769,0,1.152,0.383,1.152,1.152v10.176c0,1.023,0.209,1.723,0.625,2.096
		s0.922,0.561,1.52,0.561c0.597,0,1.104-0.188,1.52-0.561s0.624-1.072,0.624-2.096v-10.176c0-0.77,0.384-1.152,1.152-1.152h1.151
		c0.769,0,1.152,0.383,1.152,1.152v10.4c0,0.938-0.145,1.764-0.432,2.479c-0.288,0.715-0.678,1.307-1.168,1.777
		c-0.491,0.469-1.083,0.82-1.776,1.055s-1.435,0.352-2.224,0.352c-0.811,0-1.558-0.117-2.24-0.352
		c-0.684-0.234-1.27-0.586-1.76-1.055c-0.491-0.471-0.881-1.062-1.168-1.777c-0.288-0.715-0.432-1.541-0.432-2.479v-10.4
		C184.982,122.038,185.365,121.655,186.133,121.655z"/>
	<path class="st0" d="M205.749,124.728c-0.747,0-1.28,0.148-1.6,0.447c-0.32,0.299-0.48,0.822-0.48,1.568v10.623
		c0,0.77-0.385,1.152-1.152,1.152h-1.152c-0.768,0-1.151-0.383-1.151-1.152v-10.879c0-1.834,0.442-3.125,1.328-3.873
		c0.885-0.746,2.128-1.119,3.728-1.119c0.234,0,0.485,0.006,0.752,0.016c0.267,0.012,0.561,0.049,0.881,0.111
		c0.298,0.064,0.538,0.178,0.719,0.338c0.182,0.158,0.272,0.432,0.272,0.814v0.928c0,0.385-0.096,0.684-0.288,0.896
		c-0.191,0.215-0.479,0.289-0.863,0.225C206.357,124.759,206.027,124.728,205.749,124.728z"/>
	<path class="st0" d="M71.065,163.208c0,0.938-0.144,1.764-0.433,2.479c-0.287,0.715-0.678,1.307-1.168,1.777
		c-0.49,0.469-1.082,0.82-1.775,1.055s-1.436,0.352-2.225,0.352c-0.811,0-1.557-0.117-2.24-0.352
		c-0.682-0.234-1.274-0.564-1.775-0.992c-0.502-0.426-0.891-0.953-1.168-1.584c-0.277-0.629-0.416-1.348-0.416-2.16v-0.062
		c0-1.602,0.48-2.85,1.439-3.744c0.961-0.896,2.348-1.344,4.16-1.344h2.145v-1.441c0-1.023-0.208-1.723-0.624-2.096
		s-0.923-0.561-1.521-0.561c-0.619,0-1.077,0.166-1.375,0.496c-0.299,0.332-0.449,0.732-0.449,1.201c0,0.66-0.33,0.992-0.991,0.992
		h-1.312c-0.769,0-1.152-0.385-1.152-1.152c0-0.684,0.122-1.312,0.367-1.889c0.246-0.576,0.598-1.076,1.057-1.504
		c0.459-0.426,1.013-0.762,1.664-1.008c0.65-0.244,1.381-0.367,2.191-0.367c0.789,0,1.531,0.117,2.225,0.352
		s1.285,0.586,1.775,1.057c0.49,0.469,0.881,1.061,1.168,1.775c0.289,0.715,0.433,1.541,0.433,2.48V163.208z M65.464,165.64
		c0.598,0,1.104-0.188,1.521-0.561s0.624-1.072,0.624-2.096v-1.76h-2.145c-0.598,0-1.104,0.164-1.52,0.496
		c-0.416,0.33-0.624,0.9-0.624,1.711s0.208,1.383,0.624,1.713S64.867,165.64,65.464,165.64z"/>
	<path class="st0" d="M86.04,163.591c0,0.896-0.117,1.676-0.352,2.336c-0.235,0.662-0.556,1.211-0.961,1.648
		s-0.885,0.764-1.439,0.977s-1.163,0.318-1.824,0.318c-1.365,0-2.422-0.447-3.168-1.344v5.248c0,0.77-0.384,1.152-1.152,1.152
		h-1.151c-0.769,0-1.152-0.383-1.152-1.152v-15.807c0-0.961,0.144-1.797,0.433-2.514c0.287-0.713,0.677-1.301,1.168-1.76
		c0.49-0.457,1.076-0.805,1.76-1.039c0.682-0.234,1.429-0.352,2.24-0.352c0.789,0,1.53,0.117,2.224,0.352
		c0.692,0.234,1.285,0.582,1.776,1.039c0.49,0.459,0.879,1.047,1.168,1.76c0.287,0.717,0.432,1.553,0.432,2.514V163.591z
		 M82.584,157.19c0-1.023-0.208-1.723-0.624-2.096s-0.923-0.561-1.52-0.561c-0.598,0-1.104,0.188-1.521,0.561
		s-0.624,1.072-0.624,2.096v5.793c0,1.023,0.208,1.723,0.624,2.096s0.923,0.561,1.521,0.561c0.597,0,1.104-0.188,1.52-0.561
		s0.624-1.072,0.624-2.096V157.19z"/>
	<path class="st0" d="M101.016,163.591c0,0.896-0.118,1.676-0.353,2.336c-0.234,0.662-0.555,1.211-0.959,1.648
		c-0.406,0.438-0.887,0.764-1.44,0.977c-0.556,0.213-1.163,0.318-1.824,0.318c-1.365,0-2.421-0.447-3.168-1.344v5.248
		c0,0.77-0.384,1.152-1.151,1.152h-1.152c-0.768,0-1.152-0.383-1.152-1.152v-15.807c0-0.961,0.145-1.797,0.432-2.514
		c0.289-0.713,0.678-1.301,1.168-1.76c0.491-0.457,1.078-0.805,1.761-1.039s1.429-0.352,2.239-0.352
		c0.789,0,1.531,0.117,2.225,0.352s1.285,0.582,1.775,1.039c0.491,0.459,0.881,1.047,1.168,1.76
		c0.289,0.717,0.433,1.553,0.433,2.514V163.591z M97.56,157.19c0-1.023-0.208-1.723-0.624-2.096s-0.923-0.561-1.521-0.561
		s-1.104,0.188-1.52,0.561s-0.624,1.072-0.624,2.096v5.793c0,1.023,0.208,1.723,0.624,2.096s0.922,0.561,1.52,0.561
		s1.104-0.188,1.521-0.561s0.624-1.072,0.624-2.096V157.19z"/>
	<path class="st0" d="M109.496,165.415c0.17,0,0.314-0.006,0.432-0.016c0.117-0.012,0.272-0.037,0.465-0.08
		c0.384-0.064,0.672,0.01,0.863,0.225c0.192,0.213,0.288,0.512,0.288,0.895v0.928c0,0.385-0.091,0.656-0.272,0.816
		c-0.181,0.16-0.432,0.271-0.752,0.336c-0.299,0.064-0.581,0.102-0.848,0.113c-0.267,0.01-0.518,0.016-0.752,0.016
		c-0.619,0-1.179-0.076-1.68-0.225c-0.502-0.148-0.934-0.395-1.296-0.736c-0.363-0.34-0.64-0.795-0.832-1.359
		s-0.288-1.254-0.288-2.064V146.95c0-0.768,0.384-1.15,1.152-1.15h1.151c0.769,0,1.152,0.383,1.152,1.15v17.057
		c0,0.555,0.128,0.928,0.384,1.121C108.919,165.319,109.197,165.415,109.496,165.415z"/>
	<path class="st0" d="M114.199,147.271c0-0.768,0.385-1.152,1.152-1.152h1.152c0.768,0,1.152,0.385,1.152,1.152v1.088
		c0,0.77-0.385,1.152-1.152,1.152h-1.152c-0.768,0-1.152-0.383-1.152-1.152V147.271z M114.199,152.808
		c0-0.77,0.385-1.152,1.152-1.152h1.152c0.768,0,1.152,0.383,1.152,1.152v14.559c0,0.77-0.385,1.152-1.152,1.152h-1.152
		c-0.768,0-1.152-0.383-1.152-1.152V152.808z"/>
	<path class="st0" d="M125.046,162.983c0,1.023,0.209,1.723,0.625,2.096s0.922,0.561,1.52,0.561c0.618,0,1.104-0.193,1.456-0.576
		c0.353-0.385,0.528-0.896,0.528-1.537c0-0.66,0.33-0.992,0.992-0.992h1.312c0.768,0,1.151,0.385,1.151,1.152
		c0,0.789-0.133,1.504-0.399,2.145s-0.64,1.184-1.12,1.633c-0.48,0.447-1.057,0.795-1.729,1.039s-1.402,0.367-2.191,0.367
		c-0.811,0-1.558-0.117-2.24-0.352c-0.684-0.234-1.27-0.586-1.76-1.055c-0.491-0.471-0.88-1.062-1.168-1.777
		s-0.432-1.541-0.432-2.479v-6.24c0-0.939,0.144-1.766,0.432-2.48s0.677-1.307,1.168-1.775c0.49-0.471,1.076-0.822,1.76-1.057
		c0.683-0.234,1.43-0.352,2.24-0.352c0.789,0,1.52,0.123,2.191,0.367c0.672,0.246,1.248,0.592,1.729,1.041
		c0.48,0.447,0.854,0.99,1.12,1.631s0.399,1.355,0.399,2.145c0,0.768-0.384,1.152-1.151,1.152h-1.312
		c-0.662,0-0.992-0.332-0.992-0.992c0-0.641-0.176-1.152-0.528-1.537c-0.353-0.383-0.838-0.576-1.456-0.576
		c-0.598,0-1.104,0.188-1.52,0.561s-0.625,1.072-0.625,2.096V162.983z"/>
	<path class="st0" d="M146.71,163.208c0,0.938-0.145,1.764-0.432,2.479c-0.289,0.715-0.678,1.307-1.168,1.777
		c-0.492,0.469-1.084,0.82-1.776,1.055c-0.694,0.234-1.435,0.352-2.224,0.352c-0.812,0-1.559-0.117-2.24-0.352
		c-0.684-0.234-1.275-0.564-1.776-0.992c-0.501-0.426-0.892-0.953-1.168-1.584c-0.277-0.629-0.416-1.348-0.416-2.16v-0.062
		c0-1.602,0.479-2.85,1.44-3.744c0.959-0.896,2.346-1.344,4.16-1.344h2.144v-1.441c0-1.023-0.208-1.723-0.624-2.096
		s-0.923-0.561-1.52-0.561c-0.619,0-1.078,0.166-1.377,0.496c-0.299,0.332-0.447,0.732-0.447,1.201c0,0.66-0.332,0.992-0.992,0.992
		h-1.312c-0.768,0-1.152-0.385-1.152-1.152c0-0.684,0.123-1.312,0.369-1.889c0.244-0.576,0.597-1.076,1.056-1.504
		c0.458-0.426,1.013-0.762,1.664-1.008c0.65-0.244,1.381-0.367,2.192-0.367c0.789,0,1.529,0.117,2.224,0.352
		c0.692,0.234,1.284,0.586,1.776,1.057c0.49,0.469,0.879,1.061,1.168,1.775c0.287,0.715,0.432,1.541,0.432,2.48V163.208z
		 M141.111,165.64c0.597,0,1.104-0.188,1.52-0.561s0.624-1.072,0.624-2.096v-1.76h-2.144c-0.598,0-1.104,0.164-1.521,0.496
		c-0.416,0.33-0.624,0.9-0.624,1.711s0.208,1.383,0.624,1.713S140.513,165.64,141.111,165.64z"/>
	<path class="st0" d="M156.854,168.519c-0.319,0.064-0.613,0.102-0.88,0.113c-0.268,0.01-0.518,0.016-0.752,0.016
		c-1.536,0-2.709-0.357-3.52-1.072c-0.812-0.715-1.217-1.936-1.217-3.664v-15.232c0-0.768,0.385-1.152,1.152-1.152h1.152
		c0.768,0,1.151,0.385,1.151,1.152v2.977h2.752c0.769,0,1.152,0.383,1.152,1.152v0.928c0,0.768-0.384,1.152-1.152,1.152h-2.752
		v8.768c0,0.662,0.128,1.119,0.384,1.375s0.715,0.385,1.377,0.385c0.276,0,0.607-0.031,0.991-0.096s0.673,0.01,0.864,0.225
		c0.191,0.213,0.288,0.512,0.288,0.895v0.928c0,0.385-0.091,0.656-0.272,0.816S157.152,168.454,156.854,168.519z"/>
	<path class="st0" d="M161.078,147.271c0-0.768,0.384-1.152,1.152-1.152h1.152c0.768,0,1.151,0.385,1.151,1.152v1.088
		c0,0.77-0.384,1.152-1.151,1.152h-1.152c-0.769,0-1.152-0.383-1.152-1.152V147.271z M161.078,152.808
		c0-0.77,0.384-1.152,1.152-1.152h1.152c0.768,0,1.151,0.383,1.151,1.152v14.559c0,0.77-0.384,1.152-1.151,1.152h-1.152
		c-0.769,0-1.152-0.383-1.152-1.152V152.808z"/>
	<path class="st0" d="M179.669,163.208c0,0.959-0.145,1.797-0.432,2.512c-0.289,0.715-0.678,1.301-1.168,1.76
		c-0.492,0.459-1.084,0.805-1.777,1.039s-1.434,0.352-2.223,0.352c-0.812,0-1.559-0.117-2.24-0.352
		c-0.684-0.234-1.27-0.58-1.76-1.039c-0.492-0.459-0.881-1.045-1.168-1.76c-0.289-0.715-0.433-1.553-0.433-2.512v-6.24
		c0-0.939,0.144-1.766,0.433-2.48c0.287-0.715,0.676-1.307,1.168-1.775c0.49-0.471,1.076-0.822,1.76-1.057
		c0.682-0.234,1.429-0.352,2.24-0.352c0.789,0,1.529,0.117,2.223,0.352s1.285,0.586,1.777,1.057c0.49,0.469,0.879,1.061,1.168,1.775
		c0.287,0.715,0.432,1.541,0.432,2.48V163.208z M176.213,157.19c0-1.023-0.208-1.723-0.624-2.096s-0.924-0.561-1.52-0.561
		c-0.598,0-1.104,0.188-1.521,0.561s-0.624,1.072-0.624,2.096v5.793c0,1.023,0.208,1.723,0.624,2.096s0.923,0.561,1.521,0.561
		c0.596,0,1.104-0.188,1.52-0.561s0.624-1.072,0.624-2.096V157.19z"/>
	<path class="st0" d="M193.46,168.519h-1.151c-0.769,0-1.152-0.383-1.152-1.152V157.19c0-1.023-0.208-1.723-0.624-2.096
		s-0.923-0.561-1.52-0.561c-0.598,0-1.104,0.188-1.52,0.561s-0.625,1.072-0.625,2.096v10.176c0,0.77-0.384,1.152-1.152,1.152h-1.151
		c-0.769,0-1.151-0.383-1.151-1.152v-10.398c0-0.939,0.144-1.766,0.432-2.48c0.287-0.715,0.677-1.307,1.168-1.775
		c0.49-0.471,1.076-0.822,1.76-1.057c0.683-0.234,1.43-0.352,2.24-0.352c0.789,0,1.53,0.117,2.224,0.352s1.285,0.586,1.776,1.057
		c0.49,0.469,0.88,1.061,1.168,1.775c0.287,0.715,0.432,1.541,0.432,2.48v10.398C194.613,168.136,194.229,168.519,193.46,168.519z"
		/>
	<path class="st0" d="M202.581,167.366c0,0.77-0.385,1.152-1.152,1.152h-1.856c-0.769,0-1.151-0.383-1.151-1.152v-1.887
		c0-0.768,0.383-1.152,1.151-1.152h1.856c0.768,0,1.152,0.385,1.152,1.152V167.366z"/>
</g>
<g>
	<path class="st0" d="M47.664,402.221c-0.814,0-1.625-0.33-2.217-0.979c-0.221-0.242-5.482-6.05-12.184-16.535
		c-0.893-1.396-0.484-3.251,0.912-4.143c1.395-0.895,3.25-0.485,4.143,0.912c6.4,10.013,11.513,15.668,11.563,15.725
		c1.114,1.225,1.026,3.122-0.198,4.237C49.108,401.962,48.384,402.221,47.664,402.221z M30.59,377.478
		c-1.025,0-2.012-0.526-2.558-1.488c-0.005-0.011-0.06-0.107-0.065-0.117c-0.8-1.451-0.273-3.275,1.178-4.076
		c1.449-0.798,3.275-0.273,4.076,1.178c0.797,1.445,0.302,3.306-1.139,4.111C31.608,377.351,31.094,377.478,30.59,377.478z
		 M25.94,368.567c-1.108,0-2.174-0.617-2.695-1.679c-2.999-6.11-5.666-12.412-7.926-18.729c-0.559-1.561,0.254-3.277,1.813-3.835
		c1.557-0.561,3.276,0.253,3.835,1.813c2.186,6.106,4.764,12.198,7.664,18.106c0.729,1.487,0.116,3.285-1.371,4.016
		C26.834,368.468,26.384,368.567,25.94,368.567z M15.006,340.596c-1.274,0-2.44-0.802-2.83-2.087
		c-0.006-0.02-0.04-0.134-0.045-0.153c-0.449-1.596,0.48-3.252,2.075-3.7c1.591-0.445,3.252,0.48,3.7,2.075
		c0.445,1.584-0.453,3.278-2.032,3.74C15.584,340.555,15.292,340.596,15.006,340.596z M12.497,330.866
		c-1.368,0-2.604-0.942-2.922-2.333c-1.518-6.645-2.627-13.405-3.297-20.093c-0.165-1.648,1.038-3.119,2.687-3.284
		c1.634-0.159,3.118,1.037,3.284,2.687c0.645,6.44,1.714,12.952,3.176,19.354c0.369,1.615-0.642,3.224-2.257,3.593
		C12.943,330.841,12.718,330.866,12.497,330.866z M8.582,301.169c-1.616,0-2.949-1.286-2.997-2.912l2.999-0.088l-3,0.06
		c-0.063-1.644,1.208-3.054,2.851-3.134c1.651-0.107,3.044,1.156,3.141,2.799c0.001,0.029,0.007,0.158,0.008,0.188
		c0.049,1.656-1.255,3.038-2.911,3.087C8.643,301.169,8.613,301.169,8.582,301.169z M8.553,291.071c-0.03,0-0.06,0-0.089-0.001
		c-1.656-0.049-2.96-1.43-2.912-3.086c0.196-6.741,0.836-13.564,1.899-20.28c0.259-1.637,1.798-2.751,3.433-2.493
		c1.636,0.259,2.753,1.796,2.493,3.433c-1.023,6.463-1.639,13.029-1.827,19.515C11.502,289.785,10.169,291.071,8.553,291.071z
		 M12.281,261.303c-0.211,0-0.424-0.022-0.638-0.07c-1.604-0.359-2.631-1.894-2.29-3.501c0.005-0.022,0.03-0.142,0.036-0.163
		c0.38-1.612,1.991-2.615,3.607-2.232c1.612,0.379,2.612,1.994,2.232,3.607C14.903,260.33,13.653,261.303,12.281,261.303z
		 M14.79,251.572c-0.274,0-0.555-0.038-0.832-0.118c-1.592-0.459-2.511-2.122-2.052-3.714c1.845-6.397,4.117-12.849,6.753-19.174
		c0.638-1.53,2.396-2.254,3.924-1.615c1.529,0.638,2.252,2.395,1.615,3.924c-2.55,6.115-4.745,12.349-6.526,18.527
		C17.292,250.717,16.092,251.572,14.79,251.572z M25.519,223.599c-0.438,0-0.884-0.097-1.305-0.301
		c-1.491-0.722-2.115-2.516-1.394-4.007l2.7,1.307l-2.676-1.358c0.701-1.501,2.486-2.151,3.987-1.45
		c1.502,0.701,2.15,2.486,1.45,3.987c-0.006,0.013-0.055,0.115-0.062,0.128C27.704,222.975,26.633,223.599,25.519,223.599z
		 M30.123,214.612c-0.484,0-0.976-0.118-1.432-0.366c-1.455-0.792-1.992-2.614-1.2-4.069c2.996-5.503,6.341-11.046,9.941-16.475
		c0.915-1.38,2.774-1.76,4.158-0.842c1.381,0.916,1.758,2.777,0.842,4.158c-3.504,5.284-6.759,10.677-9.672,16.027
		C32.217,214.045,31.187,214.612,30.123,214.612z"/>
</g>
</svg>