<!-- Generator: Adobe Illustrator 21.0.0, SVG Export Plug-In  -->
<svg version="1.1"
	 xmlns="http://www.w3.org/2000/svg" xmlns:xlink="http://www.w3.org/1999/xlink" xmlns:a="http://ns.adobe.com/AdobeSVGViewerExtensions/3.0/"
	 x="0px" y="0px" width="713.446px" height="108.54px" viewBox="0 0 713.446 108.54"
	 style="enable-background:new 0 0 713.446 108.54;" xml:space="preserve">
<style type="text/css">
	.st0{fill:#FFFFFF;}
	.st1{fill:#FF0000;}
</style>
<defs>
</defs>
<g>
	<path class="st0" d="M1.02,55.741h0.9c0.72,0,1.08,0.321,1.08,0.96v30.24c0,1.56,0.199,2.891,0.6,3.99c0.399,1.1,0.95,2,1.65,2.699
		c0.699,0.701,1.509,1.2,2.43,1.5c0.92,0.301,1.92,0.45,3,0.45s2.079-0.149,3-0.45c0.92-0.3,1.729-0.799,2.43-1.5
		c0.7-0.699,1.25-1.6,1.65-2.699c0.399-1.1,0.6-2.431,0.6-3.99v-30.24c0-0.639,0.34-0.96,1.021-0.96h0.9
		c0.68,0,1.02,0.321,1.02,0.96v30.24c0,1.56,0.2,2.891,0.6,3.99s0.939,2,1.62,2.699c0.68,0.701,1.479,1.2,2.4,1.5
		c0.92,0.301,1.92,0.45,3,0.45s2.09-0.149,3.03-0.45c0.939-0.3,1.76-0.799,2.46-1.5c0.699-0.699,1.249-1.6,1.649-2.699
		c0.399-1.1,0.601-2.431,0.601-3.99v-30.24c0-0.639,0.339-0.96,1.02-0.96h0.9c0.68,0,1.02,0.321,1.02,0.96v30.84
		c0,1.801-0.27,3.381-0.81,4.74c-0.54,1.36-1.271,2.49-2.19,3.391c-0.92,0.899-2.021,1.58-3.3,2.039
		c-1.28,0.459-2.66,0.69-4.14,0.69c-2.241,0-4.181-0.49-5.82-1.47c-1.641-0.98-2.82-2.49-3.54-4.53c-0.761,2.04-1.95,3.55-3.57,4.53
		c-1.62,0.979-3.53,1.47-5.729,1.47c-1.521,0-2.921-0.231-4.2-0.69c-1.28-0.459-2.38-1.14-3.3-2.039
		c-0.921-0.9-1.65-2.03-2.19-3.391C0.27,90.921,0,89.341,0,87.54v-30.84C0,56.062,0.339,55.741,1.02,55.741z"/>
	<path class="st0" d="M52.619,96.781c0,0.641-0.32,0.96-0.96,0.96H50.76c-0.641,0-0.96-0.319-0.96-0.96v-40.68
		c0-0.64,0.319-0.961,0.96-0.961h0.899c0.64,0,0.96,0.321,0.96,0.961V69.54c0.76-1.359,1.779-2.379,3.061-3.06
		c1.279-0.68,2.739-1.021,4.38-1.021c1.279,0,2.479,0.211,3.6,0.631c1.119,0.42,2.09,1.04,2.91,1.859
		c0.819,0.82,1.46,1.851,1.92,3.09c0.459,1.24,0.69,2.681,0.69,4.32v21.42c0,0.641-0.321,0.96-0.96,0.96h-0.841
		c-0.64,0-0.96-0.319-0.96-0.96V75.72c0-1.399-0.18-2.589-0.54-3.569c-0.359-0.979-0.86-1.771-1.5-2.37s-1.37-1.039-2.189-1.32
		c-0.82-0.279-1.71-0.42-2.67-0.42s-1.86,0.141-2.7,0.42c-0.84,0.281-1.57,0.721-2.19,1.32s-1.109,1.391-1.47,2.37
		c-0.359,0.98-0.54,2.17-0.54,3.569V96.781z"/>
	<path class="st0" d="M96.419,88.321c0,1.68-0.239,3.149-0.72,4.41c-0.479,1.26-1.16,2.31-2.04,3.149s-1.91,1.471-3.09,1.891
		c-1.181,0.42-2.451,0.63-3.811,0.63c-1.28,0-2.51-0.19-3.689-0.57c-1.181-0.38-2.22-0.96-3.12-1.739
		c-0.9-0.781-1.61-1.74-2.13-2.881c-0.521-1.14-0.78-2.469-0.78-3.99v-0.299c0-1.521,0.26-2.851,0.78-3.99
		c0.52-1.141,1.22-2.101,2.1-2.881c0.88-0.779,1.91-1.359,3.09-1.74c1.18-0.379,2.431-0.569,3.75-0.569h6.9V75.72
		c0-1.399-0.18-2.589-0.54-3.569c-0.36-0.979-0.851-1.771-1.47-2.37c-0.621-0.6-1.351-1.039-2.19-1.32
		c-0.84-0.279-1.739-0.42-2.7-0.42c-1.84,0-3.37,0.591-4.59,1.77c-1.221,1.182-1.83,2.831-1.83,4.951c0,0.6-0.3,0.899-0.899,0.899
		h-0.9c-0.64,0-0.96-0.319-0.96-0.96c0-2.84,0.859-5.09,2.58-6.75c1.72-1.659,3.92-2.49,6.6-2.49c1.359,0,2.63,0.211,3.811,0.631
		c1.18,0.42,2.21,1.049,3.09,1.89c0.88,0.84,1.561,1.89,2.04,3.149c0.48,1.26,0.72,2.73,0.72,4.41V88.321z M86.759,95.821
		c0.961,0,1.851-0.14,2.671-0.42c0.819-0.279,1.549-0.72,2.189-1.32c0.64-0.6,1.14-1.39,1.5-2.37c0.36-0.979,0.54-2.169,0.54-3.57
		v-5.819h-6.9c-1.92,0-3.55,0.561-4.89,1.68c-1.341,1.12-2.01,2.801-2.01,5.04v0.061c0,2.24,0.669,3.92,2.01,5.039
		C83.209,95.261,84.839,95.821,86.759,95.821z"/>
	<path class="st0" d="M115.559,97.741c-0.801,0.159-1.681,0.24-2.641,0.24c-2.439,0-4.36-0.56-5.76-1.681
		c-1.4-1.119-2.1-3.1-2.1-5.939v-31.02c0-0.641,0.319-0.961,0.96-0.961h0.899c0.64,0,0.96,0.32,0.96,0.961v6.779h7.62
		c0.64,0,0.96,0.32,0.96,0.96v0.66c0,0.64-0.32,0.96-0.96,0.96h-7.62v21.48c0,2.039,0.44,3.42,1.32,4.14s2.22,1.08,4.021,1.08
		c0.359,0,0.729-0.021,1.109-0.06c0.38-0.04,0.77-0.1,1.17-0.181c0.64-0.12,0.96,0.181,0.96,0.899v0.66
		C116.458,97.281,116.158,97.621,115.559,97.741z"/>
	<path class="st0" d="M138.718,55.741h0.9c0.68,0,1.02,0.321,1.02,0.96v40.08c0,0.641-0.34,0.96-1.02,0.96h-0.9
		c-0.681,0-1.02-0.319-1.02-0.96v-40.08C137.698,56.062,138.037,55.741,138.718,55.741z"/>
	<path class="st0" d="M166.197,88.14c0,1.401,0.181,2.591,0.54,3.57c0.36,0.98,0.85,1.771,1.471,2.37
		c0.619,0.601,1.35,1.041,2.189,1.32c0.84,0.28,1.74,0.42,2.7,0.42c1.8,0,3.35-0.601,4.649-1.8c1.3-1.2,1.95-2.881,1.95-5.04
		c0-0.601,0.3-0.9,0.9-0.9h0.899c0.64,0,0.961,0.321,0.961,0.96c0,1.44-0.24,2.74-0.721,3.9c-0.479,1.16-1.14,2.141-1.979,2.939
		c-0.84,0.801-1.83,1.421-2.971,1.86c-1.14,0.439-2.369,0.66-3.689,0.66c-1.4,0-2.69-0.21-3.87-0.63
		c-1.181-0.42-2.2-1.051-3.06-1.891c-0.861-0.84-1.541-1.89-2.04-3.149c-0.501-1.261-0.75-2.73-0.75-4.41V75.54
		c0-1.68,0.249-3.15,0.75-4.41c0.499-1.26,1.179-2.31,2.04-3.149c0.859-0.841,1.879-1.47,3.06-1.89c1.18-0.42,2.47-0.631,3.87-0.631
		c1.32,0,2.55,0.221,3.689,0.66c1.141,0.441,2.131,1.061,2.971,1.86s1.5,1.78,1.979,2.94c0.48,1.16,0.721,2.459,0.721,3.899
		c0,0.64-0.321,0.96-0.961,0.96h-0.899c-0.601,0-0.9-0.3-0.9-0.9c0-2.16-0.65-3.84-1.95-5.039c-1.3-1.201-2.85-1.801-4.649-1.801
		c-0.96,0-1.86,0.141-2.7,0.42c-0.84,0.281-1.57,0.721-2.189,1.32c-0.621,0.6-1.11,1.391-1.471,2.37
		c-0.359,0.98-0.54,2.17-0.54,3.569V88.14z"/>
	<path class="st0" d="M208.676,88.321c0,1.68-0.239,3.149-0.72,4.41c-0.479,1.26-1.16,2.31-2.04,3.149s-1.91,1.471-3.09,1.891
		c-1.181,0.42-2.451,0.63-3.811,0.63c-1.28,0-2.51-0.19-3.689-0.57c-1.181-0.38-2.22-0.96-3.12-1.739
		c-0.9-0.781-1.61-1.74-2.13-2.881c-0.521-1.14-0.78-2.469-0.78-3.99v-0.299c0-1.521,0.26-2.851,0.78-3.99
		c0.52-1.141,1.22-2.101,2.1-2.881c0.88-0.779,1.91-1.359,3.09-1.74c1.18-0.379,2.431-0.569,3.75-0.569h6.9V75.72
		c0-1.399-0.18-2.589-0.54-3.569c-0.36-0.979-0.851-1.771-1.47-2.37c-0.621-0.6-1.351-1.039-2.19-1.32
		c-0.84-0.279-1.739-0.42-2.7-0.42c-1.84,0-3.37,0.591-4.59,1.77c-1.221,1.182-1.83,2.831-1.83,4.951c0,0.6-0.3,0.899-0.899,0.899
		h-0.9c-0.64,0-0.96-0.319-0.96-0.96c0-2.84,0.859-5.09,2.58-6.75c1.72-1.659,3.92-2.49,6.6-2.49c1.359,0,2.63,0.211,3.811,0.631
		c1.18,0.42,2.21,1.049,3.09,1.89c0.88,0.84,1.561,1.89,2.04,3.149c0.48,1.26,0.72,2.73,0.72,4.41V88.321z M199.016,95.821
		c0.961,0,1.851-0.14,2.671-0.42c0.819-0.279,1.549-0.72,2.189-1.32c0.64-0.6,1.14-1.39,1.5-2.37c0.36-0.979,0.54-2.169,0.54-3.57
		v-5.819h-6.9c-1.92,0-3.55,0.561-4.89,1.68c-1.341,1.12-2.01,2.801-2.01,5.04v0.061c0,2.24,0.669,3.92,2.01,5.039
		C195.466,95.261,197.096,95.821,199.016,95.821z"/>
	<path class="st0" d="M235.557,97.741h-0.9c-0.641,0-0.96-0.319-0.96-0.96V75.72c0-1.399-0.18-2.589-0.54-3.569
		c-0.36-0.979-0.851-1.771-1.47-2.37c-0.621-0.6-1.351-1.039-2.19-1.32c-0.84-0.279-1.74-0.42-2.7-0.42s-1.851,0.141-2.67,0.42
		c-0.82,0.281-1.551,0.721-2.189,1.32c-0.641,0.6-1.141,1.391-1.5,2.37c-0.36,0.98-0.54,2.17-0.54,3.569v21.061
		c0,0.641-0.321,0.96-0.96,0.96h-0.841c-0.64,0-0.96-0.319-0.96-0.96V75.54c0-1.68,0.24-3.15,0.721-4.41
		c0.479-1.26,1.159-2.31,2.04-3.149c0.879-0.841,1.899-1.47,3.06-1.89s2.439-0.631,3.84-0.631c1.359,0,2.641,0.211,3.84,0.631
		c1.2,0.42,2.229,1.049,3.091,1.89c0.859,0.84,1.539,1.89,2.04,3.149c0.499,1.26,0.75,2.73,0.75,4.41v21.24
		C236.517,97.421,236.195,97.741,235.557,97.741z"/>
	<path class="st0" d="M258.056,75.361c0-1.64,0.229-3.08,0.689-4.32c0.46-1.239,1.1-2.27,1.92-3.09
		c0.819-0.819,1.79-1.439,2.91-1.859c1.119-0.42,2.319-0.631,3.6-0.631c1.681,0,3.16,0.341,4.44,1.021
		c1.279,0.681,2.3,1.72,3.06,3.12v-13.5c0-0.64,0.32-0.961,0.961-0.961h0.84c0.639,0,0.96,0.321,0.96,0.961v32.22
		c0,1.68-0.24,3.149-0.721,4.41c-0.479,1.26-1.16,2.31-2.04,3.149s-1.91,1.471-3.09,1.891s-2.45,0.63-3.81,0.63
		c-1.4,0-2.69-0.21-3.87-0.63c-1.181-0.42-2.2-1.051-3.06-1.891c-0.861-0.84-1.541-1.89-2.04-3.149
		c-0.501-1.261-0.75-2.73-0.75-4.41V75.361z M260.875,88.14c0,1.401,0.181,2.591,0.54,3.57c0.36,0.98,0.85,1.771,1.471,2.37
		c0.619,0.601,1.35,1.041,2.189,1.32c0.84,0.28,1.74,0.42,2.7,0.42s1.85-0.14,2.67-0.42c0.819-0.279,1.55-0.72,2.19-1.32
		c0.639-0.6,1.14-1.39,1.5-2.37c0.359-0.979,0.539-2.169,0.539-3.57V75.72c0-1.399-0.18-2.589-0.539-3.569
		c-0.36-0.979-0.861-1.771-1.5-2.37c-0.641-0.6-1.371-1.039-2.19-1.32c-0.82-0.279-1.71-0.42-2.67-0.42s-1.86,0.141-2.7,0.42
		c-0.84,0.281-1.57,0.721-2.189,1.32c-0.621,0.6-1.11,1.391-1.471,2.37c-0.359,0.98-0.54,2.17-0.54,3.569V88.14z"/>
	<path class="st0" d="M305.396,88.321c0,1.68-0.24,3.149-0.721,4.41c-0.479,1.26-1.16,2.31-2.04,3.149s-1.91,1.471-3.09,1.891
		s-2.45,0.63-3.81,0.63c-1.4,0-2.69-0.21-3.87-0.63c-1.181-0.42-2.2-1.051-3.06-1.891c-0.861-0.84-1.541-1.89-2.04-3.149
		c-0.501-1.261-0.75-2.73-0.75-4.41V75.54c0-1.68,0.249-3.15,0.75-4.41c0.499-1.26,1.179-2.31,2.04-3.149
		c0.859-0.841,1.879-1.47,3.06-1.89c1.18-0.42,2.47-0.631,3.87-0.631c1.359,0,2.63,0.211,3.81,0.631s2.21,1.049,3.09,1.89
		c0.88,0.84,1.561,1.89,2.04,3.149c0.48,1.26,0.721,2.73,0.721,4.41V88.321z M302.635,75.72c0-1.399-0.18-2.589-0.539-3.569
		c-0.36-0.979-0.861-1.771-1.5-2.37c-0.641-0.6-1.371-1.039-2.19-1.32c-0.82-0.279-1.71-0.42-2.67-0.42s-1.86,0.141-2.7,0.42
		c-0.84,0.281-1.57,0.721-2.189,1.32c-0.621,0.6-1.11,1.391-1.471,2.37c-0.359,0.98-0.54,2.17-0.54,3.569v12.42
		c0,1.401,0.181,2.591,0.54,3.57c0.36,0.98,0.85,1.771,1.471,2.37c0.619,0.601,1.35,1.041,2.189,1.32c0.84,0.28,1.74,0.42,2.7,0.42
		s1.85-0.14,2.67-0.42c0.819-0.279,1.55-0.72,2.19-1.32c0.639-0.6,1.14-1.39,1.5-2.37c0.359-0.979,0.539-2.169,0.539-3.57V75.72z"/>
	<path class="st0" d="M336.594,71.88c-1.4,0-2.4,0.281-3,0.84c-0.601,0.561-0.9,1.541-0.9,2.94v19.92c0,1.44-0.72,2.16-2.16,2.16
		h-2.159c-1.44,0-2.16-0.72-2.16-2.16V75.181c0-3.439,0.829-5.859,2.489-7.26s3.99-2.101,6.99-2.101c0.439,0,0.909,0.011,1.41,0.03
		c0.5,0.021,1.05,0.09,1.65,0.209c0.56,0.121,1.01,0.33,1.35,0.631c0.34,0.3,0.51,0.81,0.51,1.529v1.74
		c0,0.721-0.18,1.281-0.54,1.68c-0.359,0.4-0.899,0.541-1.62,0.42C337.733,71.941,337.113,71.88,336.594,71.88z"/>
	<path class="st0" d="M345.593,57.901c0-1.44,0.721-2.16,2.16-2.16h2.16c1.44,0,2.16,0.72,2.16,2.16v2.04
		c0,1.439-0.72,2.16-2.16,2.16h-2.16c-1.439,0-2.16-0.721-2.16-2.16V57.901z M345.593,68.281c0-1.439,0.721-2.16,2.16-2.16h2.16
		c1.44,0,2.16,0.721,2.16,2.16v27.3c0,1.44-0.72,2.16-2.16,2.16h-2.16c-1.439,0-2.16-0.72-2.16-2.16V68.281z"/>
	<path class="st0" d="M373.912,92.761c-1.4,1.68-3.381,2.52-5.94,2.52c-2.48,0-4.529-0.811-6.149-2.43
		c-1.62-1.62-2.431-4.11-2.431-7.471v-9.3c0-1.76,0.271-3.31,0.811-4.649s1.27-2.45,2.189-3.33s2.02-1.539,3.301-1.98
		c1.279-0.439,2.679-0.66,4.199-0.66c1.479,0,2.87,0.221,4.17,0.66c1.3,0.441,2.41,1.101,3.33,1.98s1.65,1.99,2.19,3.33
		s0.81,2.89,0.81,4.649v22.14c0,1.76-0.27,3.29-0.81,4.59s-1.271,2.371-2.19,3.211s-2.03,1.47-3.33,1.89s-2.69,0.63-4.17,0.63
		c-1.6,0-3.029-0.23-4.29-0.689c-1.26-0.461-2.33-1.08-3.21-1.86s-1.551-1.69-2.01-2.729c-0.46-1.041-0.689-2.16-0.689-3.36
		c0-1.44,0.72-2.16,2.159-2.16h2.46c1.24,0,1.86,0.62,1.86,1.86c0,0.879,0.3,1.629,0.9,2.25c0.6,0.619,1.539,0.93,2.819,0.93
		c1.12,0,2.07-0.3,2.851-0.9c0.779-0.6,1.17-1.859,1.17-3.779V92.761z M373.912,76.5c0-1.92-0.391-3.229-1.17-3.93
		c-0.78-0.699-1.73-1.05-2.851-1.05s-2.069,0.351-2.85,1.05c-0.78,0.7-1.17,2.01-1.17,3.93v7.74c0,1.92,0.39,3.23,1.17,3.931
		c0.78,0.699,1.729,1.049,2.85,1.049s2.07-0.35,2.851-1.049c0.779-0.7,1.17-2.011,1.17-3.931V76.5z"/>
	<path class="st0" d="M394.792,95.58c0,1.44-0.72,2.16-2.16,2.16h-2.16c-1.439,0-2.16-0.72-2.16-2.16V57.3
		c0-1.439,0.721-2.16,2.16-2.16h2.16c1.44,0,2.16,0.721,2.16,2.16v10.681c1.399-1.681,3.38-2.521,5.939-2.521
		c1.24,0,2.38,0.201,3.421,0.6c1.039,0.4,1.939,1.012,2.699,1.83c0.76,0.82,1.359,1.852,1.801,3.091
		c0.439,1.24,0.659,2.7,0.659,4.38v20.22c0,1.44-0.72,2.16-2.159,2.16h-2.16c-1.44,0-2.16-0.72-2.16-2.16V76.5
		c0-1.92-0.391-3.229-1.17-3.93c-0.78-0.699-1.73-1.05-2.851-1.05s-2.069,0.351-2.85,1.05c-0.78,0.7-1.17,2.01-1.17,3.93V95.58z"/>
	<path class="st0" d="M428.871,97.741c-0.601,0.12-1.15,0.189-1.65,0.21c-0.501,0.02-0.97,0.03-1.41,0.03
		c-2.88,0-5.08-0.669-6.6-2.011c-1.521-1.34-2.28-3.629-2.28-6.869V60.54c0-1.439,0.72-2.16,2.16-2.16h2.16
		c1.439,0,2.16,0.721,2.16,2.16v5.58h5.16c1.439,0,2.159,0.721,2.159,2.16v1.74c0,1.439-0.72,2.16-2.159,2.16h-5.16v16.439
		c0,1.24,0.239,2.1,0.72,2.58c0.479,0.48,1.34,0.721,2.58,0.721c0.52,0,1.14-0.061,1.86-0.181c0.72-0.12,1.26,0.021,1.619,0.42
		c0.36,0.4,0.54,0.96,0.54,1.681v1.739c0,0.72-0.17,1.229-0.51,1.53C429.88,97.411,429.43,97.621,428.871,97.741z"/>
	<path class="st0" d="M468.589,97.741h-2.16c-1.44,0-2.16-0.72-2.16-2.16V76.5c0-1.92-0.39-3.229-1.17-3.93
		c-0.78-0.699-1.73-1.05-2.85-1.05c-1.12,0-2.07,0.351-2.851,1.05c-0.779,0.7-1.17,2.01-1.17,3.93v19.08c0,1.44-0.72,2.16-2.16,2.16
		h-2.159c-1.44,0-2.16-0.72-2.16-2.16v-19.5c0-1.76,0.27-3.31,0.81-4.649s1.27-2.45,2.19-3.33c0.919-0.88,2.02-1.539,3.3-1.98
		c1.279-0.439,2.68-0.66,4.2-0.66c1.479,0,2.869,0.221,4.17,0.66c1.299,0.441,2.409,1.101,3.33,1.98
		c0.919,0.88,1.649,1.99,2.189,3.33s0.811,2.89,0.811,4.649v19.5C470.75,97.021,470.029,97.741,468.589,97.741z"/>
	<path class="st0" d="M498.769,87.781c0,1.8-0.271,3.37-0.811,4.71c-0.54,1.341-1.27,2.44-2.189,3.3
		c-0.921,0.861-2.031,1.511-3.33,1.95c-1.301,0.439-2.69,0.66-4.17,0.66c-1.521,0-2.921-0.221-4.2-0.66
		c-1.28-0.439-2.38-1.089-3.3-1.95c-0.921-0.859-1.65-1.959-2.19-3.3c-0.54-1.34-0.81-2.91-0.81-4.71v-11.7
		c0-1.76,0.27-3.31,0.81-4.649s1.27-2.45,2.19-3.33c0.92-0.88,2.02-1.539,3.3-1.98c1.279-0.439,2.68-0.66,4.2-0.66
		c1.479,0,2.869,0.221,4.17,0.66c1.299,0.441,2.409,1.101,3.33,1.98c0.92,0.88,1.649,1.99,2.189,3.33s0.811,2.89,0.811,4.649V87.781
		z M492.289,76.5c0-1.92-0.39-3.229-1.17-3.93c-0.78-0.699-1.73-1.05-2.85-1.05c-1.12,0-2.07,0.351-2.851,1.05
		c-0.779,0.7-1.17,2.01-1.17,3.93v10.86c0,1.92,0.391,3.23,1.17,3.93c0.78,0.701,1.73,1.051,2.851,1.051
		c1.119,0,2.069-0.35,2.85-1.051c0.78-0.699,1.17-2.01,1.17-3.93V76.5z"/>
	<path class="st0" d="M505.789,68.281c0-1.439,0.72-2.16,2.16-2.16h2.159c1.44,0,2.16,0.721,2.16,2.16v19.38
		c0,1.8,0.369,3.03,1.11,3.69c0.739,0.66,1.629,0.99,2.67,0.99c1.04,0,1.93-0.33,2.67-0.99c0.739-0.66,1.11-1.891,1.11-3.69v-19.38
		c0-1.439,0.72-2.16,2.16-2.16h2.159c1.44,0,2.16,0.721,2.16,2.16v19.38c0,1.8,0.369,3.03,1.11,3.69
		c0.739,0.66,1.629,0.99,2.67,0.99c1.04,0,1.93-0.33,2.67-0.99c0.739-0.66,1.11-1.891,1.11-3.69v-19.38
		c0-1.439,0.72-2.16,2.159-2.16h2.16c1.44,0,2.16,0.721,2.16,2.16v20.58c0,1.6-0.24,2.99-0.72,4.17c-0.48,1.18-1.14,2.17-1.98,2.97
		c-0.84,0.801-1.83,1.401-2.97,1.8c-1.14,0.4-2.391,0.601-3.75,0.601c-1.8,0-3.37-0.381-4.71-1.14
		c-1.341-0.76-2.391-1.881-3.15-3.36c-0.76,1.479-1.81,2.601-3.149,3.36c-1.341,0.759-2.91,1.14-4.71,1.14
		c-1.36,0-2.61-0.2-3.75-0.601c-1.141-0.398-2.13-0.999-2.97-1.8c-0.841-0.8-1.5-1.79-1.98-2.97s-0.72-2.57-0.72-4.17V68.281z"/>
	<path class="st0" d="M570.588,54.901c1.039,0,1.959,0.081,2.76,0.239c0.6,0.121,0.9,0.461,0.9,1.021v0.66
		c0,0.72-0.321,1.021-0.961,0.899c-0.399-0.079-0.79-0.139-1.17-0.18c-0.38-0.039-0.75-0.06-1.109-0.06
		c-1.961,0-3.44,0.39-4.44,1.17s-1.5,2.331-1.5,4.649v2.82h8.22c0.64,0,0.961,0.32,0.961,0.96v0.66c0,0.64-0.321,0.96-0.961,0.96
		h-8.22v28.08c0,0.641-0.32,0.96-0.96,0.96h-0.899c-0.641,0-0.96-0.319-0.96-0.96V63c0-1.52,0.188-2.8,0.569-3.84
		c0.38-1.04,0.931-1.869,1.65-2.489s1.6-1.07,2.64-1.351C568.148,55.041,569.307,54.901,570.588,54.901z"/>
	<path class="st0" d="M598.728,88.321c0,1.68-0.24,3.149-0.721,4.41c-0.479,1.26-1.16,2.31-2.04,3.149s-1.91,1.471-3.09,1.891
		s-2.45,0.63-3.81,0.63c-1.4,0-2.69-0.21-3.87-0.63c-1.181-0.42-2.2-1.051-3.06-1.891c-0.861-0.84-1.541-1.89-2.04-3.149
		c-0.501-1.261-0.75-2.73-0.75-4.41V75.54c0-1.68,0.249-3.15,0.75-4.41c0.499-1.26,1.179-2.31,2.04-3.149
		c0.859-0.841,1.879-1.47,3.06-1.89c1.18-0.42,2.47-0.631,3.87-0.631c1.359,0,2.63,0.211,3.81,0.631s2.21,1.049,3.09,1.89
		c0.88,0.84,1.561,1.89,2.04,3.149c0.48,1.26,0.721,2.73,0.721,4.41V88.321z M595.967,75.72c0-1.399-0.18-2.589-0.539-3.569
		c-0.36-0.979-0.861-1.771-1.5-2.37c-0.641-0.6-1.371-1.039-2.19-1.32c-0.82-0.279-1.71-0.42-2.67-0.42s-1.86,0.141-2.7,0.42
		c-0.84,0.281-1.57,0.721-2.189,1.32c-0.621,0.6-1.11,1.391-1.471,2.37c-0.359,0.98-0.54,2.17-0.54,3.569v12.42
		c0,1.401,0.181,2.591,0.54,3.57c0.36,0.98,0.85,1.771,1.471,2.37c0.619,0.601,1.35,1.041,2.189,1.32c0.84,0.28,1.74,0.42,2.7,0.42
		s1.85-0.14,2.67-0.42c0.819-0.279,1.55-0.72,2.19-1.32c0.639-0.6,1.14-1.39,1.5-2.37c0.359-0.979,0.539-2.169,0.539-3.57V75.72z"/>
	<path class="st0" d="M615.947,68.401c-1.961,0-3.45,0.39-4.471,1.17c-1.02,0.78-1.529,2.331-1.529,4.649v22.561
		c0,0.641-0.321,0.96-0.96,0.96h-0.841c-0.64,0-0.96-0.319-0.96-0.96V73.921c0-1.521,0.189-2.8,0.57-3.841
		c0.38-1.04,0.93-1.869,1.65-2.489c0.72-0.62,1.599-1.07,2.64-1.351c1.04-0.279,2.199-0.42,3.48-0.42c0.439,0,0.89,0.021,1.35,0.06
		c0.459,0.041,0.93,0.101,1.41,0.18c0.6,0.121,0.899,0.461,0.899,1.021v0.66c0,0.72-0.32,1.021-0.96,0.899
		c-0.4-0.079-0.79-0.139-1.17-0.18C616.676,68.421,616.306,68.401,615.947,68.401z"/>
	<path class="st0" d="M654.526,67.08c0-0.64,0.32-0.96,0.96-0.96h0.9c0.64,0,0.96,0.32,0.96,0.96v31.5c0,1.681-0.25,3.15-0.75,4.41
		c-0.501,1.26-1.181,2.3-2.04,3.12c-0.86,0.819-1.89,1.43-3.09,1.83c-1.2,0.399-2.48,0.6-3.84,0.6c-2.841,0-5.11-0.771-6.811-2.31
		c-1.7-1.54-2.55-3.53-2.55-5.97c0-0.641,0.32-0.961,0.96-0.961h0.9c0.6,0,0.899,0.301,0.899,0.9c0,1.8,0.609,3.219,1.83,4.26
		c1.22,1.04,2.81,1.561,4.771,1.561c0.96,0,1.859-0.131,2.7-0.391c0.84-0.26,1.569-0.68,2.189-1.26s1.11-1.35,1.47-2.311
		c0.36-0.959,0.54-2.14,0.54-3.539v-6.9c-0.8,1.36-1.829,2.37-3.09,3.03c-1.26,0.659-2.71,0.989-4.35,0.989
		c-1.28,0-2.48-0.199-3.601-0.6c-1.12-0.399-2.09-1.01-2.909-1.83c-0.82-0.819-1.461-1.85-1.92-3.09
		c-0.461-1.239-0.69-2.699-0.69-4.38V67.08c0-0.64,0.319-0.96,0.96-0.96h0.84c0.64,0,0.96,0.32,0.96,0.96v18.3
		c0,1.4,0.181,2.591,0.54,3.57c0.36,0.98,0.86,1.77,1.5,2.37s1.37,1.04,2.19,1.319c0.819,0.281,1.71,0.42,2.67,0.42
		s1.859-0.139,2.7-0.42c0.84-0.279,1.569-0.719,2.189-1.319s1.11-1.39,1.47-2.37c0.36-0.979,0.54-2.17,0.54-3.57V67.08z"/>
	<path class="st0" d="M685.606,88.321c0,1.68-0.24,3.149-0.721,4.41c-0.479,1.26-1.16,2.31-2.04,3.149s-1.91,1.471-3.09,1.891
		s-2.45,0.63-3.81,0.63c-1.4,0-2.69-0.21-3.87-0.63c-1.181-0.42-2.2-1.051-3.06-1.891c-0.861-0.84-1.541-1.89-2.04-3.149
		c-0.501-1.261-0.75-2.73-0.75-4.41V75.54c0-1.68,0.249-3.15,0.75-4.41c0.499-1.26,1.179-2.31,2.04-3.149
		c0.859-0.841,1.879-1.47,3.06-1.89c1.18-0.42,2.47-0.631,3.87-0.631c1.359,0,2.63,0.211,3.81,0.631s2.21,1.049,3.09,1.89
		c0.88,0.84,1.561,1.89,2.04,3.149c0.48,1.26,0.721,2.73,0.721,4.41V88.321z M682.845,75.72c0-1.399-0.18-2.589-0.539-3.569
		c-0.36-0.979-0.861-1.771-1.5-2.37c-0.641-0.6-1.371-1.039-2.19-1.32c-0.82-0.279-1.71-0.42-2.67-0.42s-1.86,0.141-2.7,0.42
		c-0.84,0.281-1.57,0.721-2.189,1.32c-0.621,0.6-1.11,1.391-1.471,2.37c-0.359,0.98-0.54,2.17-0.54,3.569v12.42
		c0,1.401,0.181,2.591,0.54,3.57c0.36,0.98,0.85,1.771,1.471,2.37c0.619,0.601,1.35,1.041,2.189,1.32c0.84,0.28,1.74,0.42,2.7,0.42
		s1.85-0.14,2.67-0.42c0.819-0.279,1.55-0.72,2.19-1.32c0.639-0.6,1.14-1.39,1.5-2.37c0.359-0.979,0.539-2.169,0.539-3.57V75.72z"/>
	<path class="st0" d="M695.025,66.121h0.841c0.639,0,0.96,0.32,0.96,0.96v21.06c0,1.401,0.18,2.591,0.54,3.57
		c0.359,0.98,0.859,1.771,1.5,2.37c0.639,0.601,1.369,1.041,2.189,1.32c0.819,0.28,1.71,0.42,2.67,0.42s1.86-0.14,2.7-0.42
		c0.84-0.279,1.569-0.72,2.19-1.32c0.619-0.6,1.109-1.39,1.47-2.37c0.36-0.979,0.54-2.169,0.54-3.57V67.08
		c0-0.64,0.319-0.96,0.96-0.96h0.9c0.639,0,0.96,0.32,0.96,0.96v21.24c0,1.68-0.251,3.149-0.75,4.41
		c-0.501,1.26-1.181,2.31-2.04,3.149c-0.861,0.84-1.891,1.471-3.091,1.891c-1.199,0.42-2.48,0.63-3.84,0.63
		c-1.4,0-2.68-0.21-3.84-0.63s-2.181-1.051-3.06-1.891c-0.881-0.84-1.561-1.89-2.04-3.149c-0.48-1.261-0.721-2.73-0.721-4.41V67.08
		C694.065,66.441,694.385,66.121,695.025,66.121z"/>
</g>
<g>
	<g>
		<path class="st1" d="M365.182,10.319c0.103,0.103,0.257,0.134,0.463,0.093l3.8-0.803l-0.989,3.769
			c-0.082,0.268-0.144,0.494-0.185,0.68c-0.041,0.206-0.041,0.36,0,0.463c0.062,0.103,0.196,0.206,0.402,0.309l1.359,0.649
			l-6.581,5.53c-0.124,0.103-0.206,0.247-0.247,0.433c-0.082,0.144-0.082,0.309,0,0.494l0.556,1.977
			c-0.762-0.103-1.493-0.196-2.194-0.278c-0.741-0.082-1.462-0.175-2.163-0.278c-0.7-0.082-1.411-0.165-2.132-0.247l0.525,6.89
			h-2.657l0.463-6.89c-0.021,0-0.041,0-0.062,0c-0.741,0.082-1.473,0.165-2.194,0.247c-0.7,0.103-1.411,0.196-2.132,0.278
			c-0.7,0.082-1.431,0.175-2.194,0.278l0.618-1.977c0.021-0.185,0-0.35-0.062-0.494c-0.062-0.185-0.144-0.33-0.247-0.433
			l-6.581-5.53l1.359-0.649c0.185-0.103,0.309-0.206,0.371-0.309c0.041-0.103,0.041-0.257,0-0.463
			c-0.041-0.185-0.093-0.412-0.154-0.68l-1.02-3.769l3.831,0.803c0.165,0.041,0.309,0.01,0.433-0.093
			c0.124-0.082,0.206-0.185,0.247-0.309l0.494-1.792l2.997,3.522c0.103,0.124,0.227,0.227,0.371,0.309
			c0.144,0.062,0.278,0.062,0.402,0c0.124-0.041,0.206-0.144,0.247-0.309c0.062-0.165,0.051-0.412-0.031-0.742l-1.236-7.106
			l1.699,0.927c0.268,0.165,0.505,0.247,0.711,0.247c0.206-0.041,0.371-0.175,0.494-0.402L356.377,0l2.41,4.665
			c0.124,0.227,0.299,0.36,0.525,0.402c0.206,0,0.443-0.082,0.711-0.247l1.73-0.927l-1.298,7.106
			c-0.082,0.33-0.093,0.577-0.031,0.742c0.062,0.165,0.154,0.268,0.278,0.309c0.124,0.062,0.247,0.062,0.371,0
			c0.144-0.082,0.278-0.185,0.402-0.309l2.997-3.522l0.525,1.792C365.017,10.134,365.079,10.237,365.182,10.319"/>
	</g>
</g>
</svg>