<!-- Generator: Adobe Illustrator 21.0.0, SVG Export Plug-In  -->
<svg version="1.1"
	 xmlns="http://www.w3.org/2000/svg" xmlns:xlink="http://www.w3.org/1999/xlink" xmlns:a="http://ns.adobe.com/AdobeSVGViewerExtensions/3.0/"
	 x="0px" y="0px" width="568.892px" height="877.232px" viewBox="0 0 568.892 877.232"
	 style="enable-background:new 0 0 568.892 877.232;" xml:space="preserve">
<style type="text/css">
	.st0{fill:#FFFFFF;}
	
		.st1{fill:none;stroke:#FFFFFF;stroke-width:6.5573;stroke-linecap:round;stroke-linejoin:round;stroke-miterlimit:10;stroke-dasharray:21.8576,10.9288,0.1093,10.9288;}
	
		.st2{fill:none;stroke:#FFFFFF;stroke-width:6.4662;stroke-linecap:round;stroke-linejoin:round;stroke-miterlimit:10;stroke-dasharray:21.5539,10.777,0.1078,10.777;}
</style>
<defs>
</defs>
<g id="New_Symbol_8_copy">
	<g>
		<g>
			<path class="st0" d="M159.196,587.517c-2.223,0.031-4.215,0.571-5.975,1.621c-1.791,1.05-3.211,2.47-4.261,4.261
				c-1.05,1.76-1.59,3.736-1.621,5.929c0.031,2.223,0.571,4.215,1.621,5.975c1.05,1.791,2.47,3.211,4.261,4.261
				c1.76,1.05,3.752,1.59,5.975,1.621c2.192-0.031,4.169-0.571,5.929-1.621c1.791-1.05,3.211-2.47,4.261-4.261
				c1.05-1.76,1.59-3.752,1.621-5.975c-0.031-2.192-0.571-4.169-1.621-5.929c-1.05-1.791-2.47-3.211-4.261-4.261
				C163.364,588.089,161.388,587.548,159.196,587.517 M337.378,858.149c1.266-0.988,2.501-2.053,3.705-3.196H225.337
				c1.235,1.143,2.486,2.223,3.752,3.242c15.408,12.691,33.441,19.036,54.099,19.036
				C303.876,877.232,321.939,870.871,337.378,858.149 M397.035,605.303c1.05,1.791,2.455,3.211,4.215,4.261
				c1.791,1.05,3.783,1.59,5.975,1.621c2.192-0.031,4.184-0.571,5.975-1.621c1.76-1.05,3.18-2.47,4.261-4.261
				c1.05-1.76,1.575-3.752,1.575-5.975c0-2.192-0.525-4.169-1.575-5.929c-1.081-1.791-2.501-3.211-4.261-4.261
				c-1.791-1.05-3.783-1.59-5.975-1.621c-2.192,0.031-4.184,0.571-5.975,1.621c-1.76,1.05-3.165,2.47-4.215,4.261
				c-1.05,1.76-1.59,3.736-1.621,5.929C395.445,601.551,395.985,603.543,397.035,605.303 M361.185,507.62
				c-5.867-2.501-12.181-3.783-18.944-3.844H224.179c-6.793,0.062-13.123,1.343-18.99,3.844c-5.898,2.532-11.07,6.021-15.516,10.468
				c-4.447,4.446-7.936,9.603-10.468,15.47c-2.501,5.898-3.767,12.228-3.798,18.99v93.561c0.031,6.793,1.297,13.123,3.798,18.99
				c2.532,5.867,6.021,11.039,10.468,15.516c4.446,4.446,9.619,7.936,15.516,10.468c5.558,2.378,11.548,3.644,17.971,3.798
				c0.34,0,0.679,0,1.019,0h8.198c2.131,0.031,4.061,0.556,5.79,1.575c1.729,1.019,3.088,2.393,4.076,4.122
				c1.019,1.698,1.544,3.613,1.575,5.743c0,0.062,0,0.124,0,0.185c-0.031,2.223-0.54,4.246-1.528,6.068
				c-0.031,0.031-0.062,0.077-0.093,0.139c-0.154,0.278-0.309,0.54-0.463,0.787c-0.093,0.124-0.185,0.232-0.278,0.324
				c-0.154,0.247-0.309,0.463-0.463,0.648c-0.093,0.093-0.17,0.201-0.232,0.324c-0.278,0.278-0.556,0.571-0.834,0.88
				c-0.34,0.309-0.664,0.602-0.973,0.88c-0.34,0.278-0.664,0.54-0.973,0.787c-0.309,0.154-0.618,0.34-0.926,0.556
				c-5.218,3.397-10.159,7.426-14.822,12.089c-0.834,0.834-1.637,1.667-2.408,2.501c-15.254,16.335-22.881,35.834-22.881,58.499
				c0,21.677,6.978,40.466,20.935,56.368c0.031,0.062,0.093,0.108,0.185,0.139c0.834,0.957,1.822,1.698,2.964,2.223
				c1.173,0.494,2.408,0.756,3.705,0.787l117.137-0.093c1.266,0,2.455-0.262,3.566-0.787c1.173-0.525,2.161-1.251,2.964-2.177
				l0.139-0.139c13.926-15.902,20.889-34.676,20.889-56.322c0-23.838-8.414-44.171-25.243-61c-4.632-4.632-9.541-8.63-14.729-11.996
				c-0.432-0.309-0.849-0.587-1.251-0.834c-0.648-0.432-1.251-0.942-1.806-1.529c-2.007-2.007-3.227-4.307-3.659-6.901h-0.046
				c0-0.062,0-0.293,0-0.695c0-0.371-0.015-0.865-0.046-1.482c-0.031-2.161,0.463-4.122,1.482-5.882
				c1.019-1.76,2.393-3.15,4.122-4.169c1.729-1.05,3.674-1.59,5.836-1.621h8.152c6.762-0.031,13.077-1.297,18.944-3.798
				c5.898-2.532,11.07-6.021,15.516-10.468c4.446-4.477,7.936-9.649,10.468-15.516c2.501-5.867,3.783-12.197,3.844-18.99v-93.561
				c-0.062-6.762-1.343-13.092-3.844-18.99c-2.532-5.867-6.021-11.023-10.468-15.47C372.255,513.641,367.083,510.152,361.185,507.62
				 M369.476,599.328c0,23.838-8.43,44.156-25.289,60.954c-16.829,16.859-37.162,25.289-61,25.289
				c-14.76,0-28.192-3.227-40.296-9.68c-7.411-3.983-14.327-9.186-20.75-15.609c-16.767-16.798-25.15-37.116-25.15-60.954
				c0-23.838,8.383-44.187,25.15-61.046c16.86-16.767,37.208-25.15,61.046-25.15c23.838-0.031,44.171,8.353,61,25.15
				C361.047,555.141,369.476,575.49,369.476,599.328 M320.056,754.26c10.097,10.097,15.146,22.325,15.146,36.683
				c0,14.328-5.049,26.571-15.146,36.73c-10.19,10.128-22.448,15.192-36.776,15.192c-14.358,0-26.602-5.064-36.73-15.192
				c-10.097-10.128-15.146-22.371-15.146-36.73c0-14.327,5.049-26.555,15.146-36.683c3.952-3.983,8.245-7.179,12.876-9.588
				c7.164-3.767,15.115-5.651,23.853-5.651C297.607,739.021,309.866,744.101,320.056,754.26 M330.662,790.897
				c0-13.092-4.601-24.255-13.803-33.487c-9.325-9.294-20.534-13.942-33.626-13.942c-6.207,0-11.996,1.065-17.369,3.196
				c-5.898,2.285-11.271,5.867-16.118,10.746c-9.263,9.233-13.895,20.395-13.895,33.487c0,13.092,4.632,24.286,13.895,33.58
				c9.263,9.233,20.426,13.864,33.487,13.895c13.092-0.031,24.301-4.663,33.626-13.895
				C326.062,815.182,330.662,803.989,330.662,790.897 M296.434,783.856c0.154,0.154,0.386,0.201,0.695,0.139l5.697-1.204
				l-1.482,5.651c-0.124,0.401-0.216,0.741-0.278,1.019c-0.062,0.309-0.062,0.54,0,0.695c0.093,0.154,0.293,0.309,0.602,0.463
				l2.038,0.973l-9.866,8.291c-0.185,0.154-0.309,0.371-0.371,0.648c-0.124,0.216-0.124,0.463,0,0.741l0.834,2.964
				c-1.143-0.154-2.239-0.293-3.289-0.417c-1.112-0.124-2.192-0.263-3.242-0.417c-1.05-0.124-2.115-0.247-3.196-0.371l0.787,10.329
				h-3.983l0.695-10.329c-0.031,0-0.062,0-0.093,0c-1.112,0.123-2.208,0.247-3.289,0.371c-1.05,0.154-2.115,0.293-3.196,0.417
				c-1.05,0.123-2.146,0.262-3.289,0.417l0.926-2.964c0.031-0.278,0-0.525-0.093-0.741c-0.093-0.278-0.216-0.494-0.371-0.648
				l-9.866-8.291l2.038-0.973c0.278-0.154,0.463-0.309,0.556-0.463c0.062-0.154,0.062-0.386,0-0.695
				c-0.062-0.278-0.139-0.618-0.232-1.019l-1.529-5.651l5.743,1.204c0.247,0.062,0.463,0.015,0.648-0.139
				c0.185-0.123,0.309-0.278,0.37-0.463l0.741-2.686l4.493,5.28c0.154,0.185,0.34,0.34,0.556,0.463c0.216,0.093,0.417,0.093,0.602,0
				c0.185-0.062,0.309-0.216,0.371-0.463c0.093-0.247,0.077-0.618-0.046-1.112l-1.853-10.653l2.547,1.39
				c0.401,0.247,0.757,0.37,1.065,0.37c0.309-0.062,0.556-0.262,0.741-0.602l3.613-6.994l3.613,6.994
				c0.185,0.34,0.448,0.54,0.787,0.602c0.309,0,0.664-0.123,1.065-0.37l2.594-1.39l-1.945,10.653
				c-0.123,0.494-0.139,0.865-0.046,1.112c0.093,0.247,0.232,0.401,0.417,0.463c0.185,0.093,0.371,0.093,0.556,0
				c0.216-0.124,0.417-0.278,0.602-0.463l4.493-5.28l0.787,2.686C296.187,783.579,296.28,783.733,296.434,783.856"/>
		</g>
		<g id="Layer0_0_1_STROKES_2_">
			<path class="st0" d="M283.187,650.703c-5.741,0-10.732-2.058-14.833-6.116c-4.069-4.112-6.112-9.071-6.112-14.782
				c0-3.101,2.513-5.614,5.614-5.614c3.1,0,5.614,2.513,5.614,5.614c0,2.723,0.897,4.897,2.823,6.844
				c1.936,1.916,4.14,2.827,6.894,2.827c2.743,0,4.925-0.905,6.869-2.848c1.954-1.955,2.874-4.136,2.895-6.864
				c0.023-3.086,2.532-5.572,5.612-5.572c0.014,0,0.029,0,0.043,0c3.1,0.023,5.595,2.555,5.572,5.655
				c-0.042,5.706-2.123,10.659-6.183,14.72C293.922,648.639,288.94,650.703,283.187,650.703z M334.919,630.045
				c-8.485,0.054-15.851-2.953-21.864-8.89c-0.041-0.04-0.081-0.081-0.12-0.123c-0.684-0.717-1.343-1.446-1.959-2.166
				c-0.024-0.028-0.048-0.056-0.071-0.084c-4.568-5.549-6.884-12.079-6.884-19.408c0-7.36,2.316-13.905,6.884-19.455
				c0.024-0.029,0.048-0.058,0.072-0.086c0.615-0.717,1.273-1.444,1.955-2.161c0.036-0.038,0.073-0.075,0.11-0.113
				c5.977-5.939,13.292-8.95,21.742-8.95c8.465,0,15.757,3.019,21.675,8.974c5.996,5.997,9.042,13.332,9.042,21.79
				c0,8.428-3.047,15.747-9.055,21.756C350.572,627.042,343.325,630.045,334.919,630.045z M321.002,613.224
				c3.839,3.764,8.349,5.594,13.782,5.594c5.437,0.043,9.933-1.812,13.712-5.615c3.893-3.892,5.779-8.412,5.779-13.829
				c0-5.448-1.886-9.982-5.767-13.864c-3.798-3.821-8.283-5.674-13.724-5.674c-5.428,0-9.935,1.843-13.774,5.633
				c-0.515,0.543-1.01,1.09-1.472,1.628c-2.887,3.525-4.29,7.542-4.29,12.277c0,4.704,1.404,8.705,4.291,12.231
				C319.998,612.141,320.49,612.685,321.002,613.224z M231.122,630.045c-0.054,0-0.106,0-0.16,0c-8.425,0-15.725-2.995-21.671-8.903
				c-0.071-0.07-0.139-0.142-0.206-0.216l-1.761-1.947c-0.053-0.059-0.105-0.119-0.156-0.18c-4.608-5.553-6.944-12.088-6.944-19.425
				c0-7.368,2.336-13.919,6.944-19.472c0.052-0.061,0.104-0.123,0.158-0.182l1.757-1.942c0.064-0.07,0.129-0.139,0.196-0.206
				c5.948-5.947,13.251-8.962,21.708-8.962c8.457,0,15.761,3.015,21.709,8.962c6.009,6.01,9.055,13.345,9.055,21.802
				c0,8.428-3.047,15.747-9.055,21.756C246.779,627.046,239.521,630.045,231.122,630.045z M217.305,613.278
				c3.798,3.728,8.276,5.54,13.682,5.54c0.036,0,0.072,0,0.108,0c5.414,0,9.876-1.841,13.663-5.627
				c3.88-3.88,5.766-8.399,5.766-13.816c0-5.448-1.886-9.982-5.767-13.864c-3.818-3.818-8.322-5.674-13.77-5.674
				c-5.402,0-9.878,1.826-13.676,5.581l-1.576,1.741c-2.883,3.512-4.285,7.509-4.285,12.215c0,4.675,1.402,8.656,4.285,12.169
				L217.305,613.278z"/>
		</g>
		<path class="st0" d="M237.427,499.19h91.477c2.987,0,5.778-1.489,7.442-3.969l9.659-14.401l-6.676-1.21
			c-0.926-0.149-1.598-0.463-2.016-0.941c-0.269-0.358-0.448-1.016-0.538-1.971c0-0.807,0-1.852,0-3.136l-0.134-17.474
			l-15.503,7.931c-0.866,0.388-1.538,0.433-2.016,0.134c-0.627-0.239-1.061-0.597-1.3-1.075l-4.436-6.945l-6.94,13.727
			c-0.925,1.829-3.699,0.924-3.368-1.098l3.946-24.099l-7.662,4.212c-1.165,0.627-2.195,0.941-3.091,0.941
			c-1.076-0.09-1.882-0.672-2.42-1.747l-10.753-20.835l-10.753,20.835c-0.627,1.075-1.389,1.658-2.285,1.747
			c-0.986,0-2.061-0.314-3.226-0.941l-7.483-4.212l3.979,24.64c0.326,2.022-2.447,2.922-3.369,1.093l-7.107-14.084l-4.257,7.303
			c-0.329,0.448-0.777,0.792-1.344,1.03c-0.627,0.299-1.3,0.254-2.016-0.134l-15.548-7.931l-0.179,17.519
			c0.03,1.314,0.045,2.375,0.045,3.181c-0.09,0.926-0.314,1.553-0.672,1.882c-0.299,0.478-0.926,0.792-1.882,0.941l-6.631,1.255
			l9.694,13.978C231.737,497.75,234.489,499.19,237.427,499.19z"/>
	</g>
</g>
<path class="st1" d="M466.475,350.774c0,0,6.739,93.254-91.005,133.711"/>
<g>
	<path class="st0" d="M86.828,62.161h1.95c1.267,0,1.9,0.634,1.9,1.9v31.2c0,1.267-0.633,1.9-1.9,1.9h-1.95
		c-1.267,0-1.9-0.633-1.9-1.9v-31.2C84.928,62.794,85.56,62.161,86.828,62.161z"/>
	<path class="st0" d="M114.277,72.361c1.167-1.4,2.816-2.1,4.95-2.1c1.033,0,1.983,0.167,2.85,0.5
		c0.867,0.334,1.617,0.842,2.25,1.525c0.633,0.684,1.133,1.542,1.5,2.575c0.367,1.034,0.55,2.25,0.55,3.65v10.35
		c0,1.5-0.225,2.809-0.675,3.925c-0.45,1.117-1.059,2.034-1.825,2.75c-0.768,0.717-1.692,1.259-2.775,1.625
		c-1.083,0.366-2.242,0.55-3.475,0.55c-1.268,0-2.434-0.184-3.5-0.55c-1.067-0.366-1.984-0.908-2.75-1.625
		c-0.768-0.716-1.375-1.633-1.825-2.75c-0.45-1.116-0.675-2.425-0.675-3.925v-25.4c0-1.2,0.6-1.8,1.8-1.8h1.8c1.2,0,1.8,0.6,1.8,1.8
		V72.361z M114.277,88.511c0,1.6,0.325,2.692,0.975,3.275c0.65,0.584,1.441,0.875,2.375,0.875c0.933,0,1.725-0.291,2.375-0.875
		c0.65-0.583,0.975-1.675,0.975-3.275v-9.05c0-1.6-0.325-2.691-0.975-3.275c-0.65-0.583-1.442-0.875-2.375-0.875
		c-0.934,0-1.725,0.292-2.375,0.875c-0.65,0.584-0.975,1.675-0.975,3.275V88.511z"/>
	<path class="st0" d="M143.626,89.861c0-1.033,0.517-1.55,1.55-1.55h2.05c1.2,0,1.8,0.6,1.8,1.8c0,2.267-0.775,4.1-2.325,5.5
		c-1.55,1.4-3.608,2.1-6.175,2.1c-1.268,0-2.434-0.184-3.5-0.55c-1.067-0.366-1.984-0.916-2.75-1.65
		c-0.768-0.733-1.375-1.658-1.825-2.775c-0.45-1.116-0.675-2.408-0.675-3.875v-9.75c0-1.466,0.225-2.758,0.675-3.875
		c0.45-1.116,1.058-2.041,1.825-2.775c0.766-0.733,1.683-1.283,2.75-1.65c1.066-0.366,2.232-0.55,3.5-0.55
		c1.232,0,2.391,0.184,3.475,0.55c1.083,0.367,2.008,0.917,2.775,1.65c0.766,0.734,1.375,1.659,1.825,2.775
		c0.45,1.117,0.675,2.409,0.675,3.875v4.25c0,1.2-0.6,1.8-1.8,1.8h-10.3v3.35c0,1.6,0.325,2.692,0.975,3.275
		c0.65,0.584,1.441,0.875,2.375,0.875c0.966,0,1.725-0.25,2.275-0.75C143.351,91.411,143.626,90.728,143.626,89.861z
		 M137.176,81.111h6.7v-1.65c0-1.6-0.325-2.691-0.975-3.275c-0.65-0.583-1.442-0.875-2.375-0.875c-0.934,0-1.725,0.292-2.375,0.875
		c-0.65,0.584-0.975,1.675-0.975,3.275V81.111z"/>
	<path class="st0" d="M162.475,92.311c0.267,0,0.492-0.008,0.675-0.025c0.183-0.016,0.425-0.058,0.725-0.125
		c0.6-0.1,1.05,0.017,1.35,0.35c0.3,0.334,0.45,0.8,0.45,1.4v1.45c0,0.6-0.142,1.025-0.425,1.275
		c-0.284,0.25-0.675,0.425-1.175,0.525c-0.467,0.1-0.909,0.158-1.325,0.175c-0.417,0.016-0.809,0.025-1.175,0.025
		c-0.967,0-1.842-0.117-2.625-0.35c-0.784-0.233-1.458-0.616-2.025-1.15c-0.567-0.533-1-1.241-1.3-2.125
		c-0.3-0.883-0.45-1.958-0.45-3.225v-27.05c0-1.2,0.6-1.8,1.8-1.8h1.8c1.2,0,1.8,0.6,1.8,1.8v26.65c0,0.867,0.2,1.45,0.6,1.75
		C161.575,92.161,162.008,92.311,162.475,92.311z"/>
	<path class="st0" d="M169.825,63.961c0-1.2,0.6-1.8,1.8-1.8h1.8c1.2,0,1.8,0.6,1.8,1.8v1.7c0,1.2-0.6,1.8-1.8,1.8h-1.8
		c-1.2,0-1.8-0.6-1.8-1.8V63.961z M169.825,72.611c0-1.2,0.6-1.8,1.8-1.8h1.8c1.2,0,1.8,0.6,1.8,1.8v22.75c0,1.2-0.6,1.8-1.8,1.8
		h-1.8c-1.2,0-1.8-0.6-1.8-1.8V72.611z"/>
	<path class="st0" d="M193.224,89.861c0-1.033,0.517-1.55,1.55-1.55h2.05c1.2,0,1.8,0.6,1.8,1.8c0,2.267-0.775,4.1-2.325,5.5
		c-1.55,1.4-3.608,2.1-6.175,2.1c-1.268,0-2.434-0.184-3.5-0.55c-1.067-0.366-1.984-0.916-2.75-1.65
		c-0.768-0.733-1.375-1.658-1.825-2.775c-0.45-1.116-0.675-2.408-0.675-3.875v-9.75c0-1.466,0.225-2.758,0.675-3.875
		c0.45-1.116,1.058-2.041,1.825-2.775c0.766-0.733,1.683-1.283,2.75-1.65c1.066-0.366,2.232-0.55,3.5-0.55
		c1.232,0,2.391,0.184,3.475,0.55c1.083,0.367,2.008,0.917,2.775,1.65c0.766,0.734,1.375,1.659,1.825,2.775
		c0.45,1.117,0.675,2.409,0.675,3.875v4.25c0,1.2-0.6,1.8-1.8,1.8h-10.3v3.35c0,1.6,0.325,2.692,0.975,3.275
		c0.65,0.584,1.441,0.875,2.375,0.875c0.966,0,1.725-0.25,2.275-0.75C192.949,91.411,193.224,90.728,193.224,89.861z
		 M186.774,81.111h6.7v-1.65c0-1.6-0.325-2.691-0.975-3.275c-0.65-0.583-1.442-0.875-2.375-0.875c-0.934,0-1.725,0.292-2.375,0.875
		c-0.65,0.584-0.975,1.675-0.975,3.275V81.111z"/>
	<path class="st0" d="M203.023,72.711c-0.167-0.566-0.117-1.025,0.15-1.375c0.267-0.35,0.683-0.525,1.25-0.525h2.1
		c1.133,0,1.816,0.484,2.05,1.45l4.35,19.9l4.35-19.9c0.233-0.966,0.917-1.45,2.05-1.45h1.95c0.566,0,0.983,0.175,1.25,0.525
		c0.267,0.35,0.316,0.809,0.15,1.375l-5.55,21.9c-0.467,1.7-1.534,2.55-3.2,2.55h-2.15c-1.7,0-2.767-0.85-3.2-2.55L203.023,72.711z"
		/>
	<path class="st0" d="M238.322,89.861c0-1.033,0.517-1.55,1.55-1.55h2.05c1.2,0,1.8,0.6,1.8,1.8c0,2.267-0.775,4.1-2.325,5.5
		c-1.55,1.4-3.608,2.1-6.175,2.1c-1.268,0-2.434-0.184-3.5-0.55c-1.067-0.366-1.984-0.916-2.75-1.65
		c-0.768-0.733-1.375-1.658-1.825-2.775c-0.45-1.116-0.675-2.408-0.675-3.875v-9.75c0-1.466,0.225-2.758,0.675-3.875
		c0.45-1.116,1.058-2.041,1.825-2.775c0.766-0.733,1.683-1.283,2.75-1.65c1.066-0.366,2.232-0.55,3.5-0.55
		c1.232,0,2.391,0.184,3.475,0.55c1.083,0.367,2.008,0.917,2.775,1.65c0.766,0.734,1.375,1.659,1.825,2.775
		c0.45,1.117,0.675,2.409,0.675,3.875v4.25c0,1.2-0.6,1.8-1.8,1.8h-10.3v3.35c0,1.6,0.325,2.692,0.975,3.275
		c0.65,0.584,1.441,0.875,2.375,0.875c0.966,0,1.725-0.25,2.275-0.75C238.047,91.411,238.322,90.728,238.322,89.861z
		 M231.872,81.111h6.7v-1.65c0-1.6-0.325-2.691-0.975-3.275c-0.65-0.583-1.442-0.875-2.375-0.875c-0.934,0-1.725,0.292-2.375,0.875
		c-0.65,0.584-0.975,1.675-0.975,3.275V81.111z"/>
	<path class="st0" d="M261.171,63.961c0-1.2,0.6-1.8,1.8-1.8h1.8c1.2,0,1.8,0.6,1.8,1.8v1.7c0,1.2-0.6,1.8-1.8,1.8h-1.8
		c-1.2,0-1.8-0.6-1.8-1.8V63.961z M261.171,72.611c0-1.2,0.6-1.8,1.8-1.8h1.8c1.2,0,1.8,0.6,1.8,1.8v22.75c0,1.2-0.6,1.8-1.8,1.8
		h-1.8c-1.2,0-1.8-0.6-1.8-1.8V72.611z"/>
	<path class="st0" d="M288.87,97.161h-1.8c-1.2,0-1.8-0.6-1.8-1.8v-15.9c0-1.6-0.325-2.691-0.975-3.275
		c-0.65-0.583-1.442-0.875-2.375-0.875c-0.934,0-1.725,0.292-2.375,0.875c-0.65,0.584-0.975,1.675-0.975,3.275v15.9
		c0,1.2-0.6,1.8-1.8,1.8h-1.8c-1.2,0-1.8-0.6-1.8-1.8v-16.25c0-1.466,0.225-2.758,0.675-3.875c0.45-1.116,1.058-2.041,1.825-2.775
		c0.767-0.733,1.683-1.283,2.75-1.65c1.066-0.366,2.233-0.55,3.5-0.55c1.233,0,2.392,0.184,3.475,0.55
		c1.083,0.367,2.008,0.917,2.775,1.65c0.767,0.734,1.375,1.659,1.825,2.775c0.45,1.117,0.675,2.409,0.675,3.875v16.25
		C290.67,96.561,290.07,97.161,288.87,97.161z"/>
	<path class="st0" d="M307.619,78.511c0-2.8,0.675-4.875,2.025-6.225s3.058-2.025,5.125-2.025c1,0,1.925,0.167,2.775,0.5
		c0.85,0.334,1.575,0.867,2.175,1.6v-8.9c0-1.2,0.6-1.8,1.8-1.8h1.8c1.2,0,1.8,0.6,1.8,1.8v25.4c0,1.5-0.225,2.809-0.675,3.925
		c-0.45,1.117-1.059,2.034-1.825,2.75c-0.768,0.717-1.692,1.259-2.775,1.625c-1.083,0.366-2.242,0.55-3.475,0.55
		c-1.268,0-2.434-0.184-3.5-0.55c-1.067-0.366-1.984-0.908-2.75-1.625c-0.768-0.716-1.375-1.633-1.825-2.75
		c-0.45-1.116-0.675-2.425-0.675-3.925V78.511z M313.019,88.511c0,1.6,0.325,2.692,0.975,3.275c0.65,0.584,1.441,0.875,2.375,0.875
		c0.933,0,1.725-0.291,2.375-0.875c0.65-0.583,0.975-1.675,0.975-3.275v-9.05c0-1.6-0.325-2.691-0.975-3.275
		c-0.65-0.583-1.442-0.875-2.375-0.875c-0.934,0-1.725,0.292-2.375,0.875c-0.65,0.584-0.975,1.675-0.975,3.275V88.511z"/>
	<path class="st0" d="M331.768,63.961c0-1.2,0.6-1.8,1.8-1.8h1.8c1.2,0,1.8,0.6,1.8,1.8v1.7c0,1.2-0.6,1.8-1.8,1.8h-1.8
		c-1.2,0-1.8-0.6-1.8-1.8V63.961z M331.768,72.611c0-1.2,0.6-1.8,1.8-1.8h1.8c1.2,0,1.8,0.6,1.8,1.8v22.75c0,1.2-0.6,1.8-1.8,1.8
		h-1.8c-1.2,0-1.8-0.6-1.8-1.8V72.611z"/>
	<path class="st0" d="M342.118,72.711c-0.167-0.566-0.117-1.025,0.15-1.375c0.267-0.35,0.683-0.525,1.25-0.525h2.1
		c1.133,0,1.816,0.484,2.05,1.45l4.35,19.9l4.35-19.9c0.233-0.966,0.917-1.45,2.05-1.45h1.95c0.566,0,0.983,0.175,1.25,0.525
		c0.267,0.35,0.316,0.809,0.15,1.375l-5.55,21.9c-0.467,1.7-1.534,2.55-3.2,2.55h-2.15c-1.7,0-2.767-0.85-3.2-2.55L342.118,72.711z"
		/>
	<path class="st0" d="M377.417,89.861c0-1.033,0.517-1.55,1.55-1.55h2.05c1.2,0,1.8,0.6,1.8,1.8c0,2.267-0.775,4.1-2.325,5.5
		c-1.55,1.4-3.608,2.1-6.175,2.1c-1.268,0-2.434-0.184-3.5-0.55c-1.067-0.366-1.984-0.916-2.75-1.65
		c-0.768-0.733-1.375-1.658-1.825-2.775c-0.45-1.116-0.675-2.408-0.675-3.875v-9.75c0-1.466,0.225-2.758,0.675-3.875
		c0.45-1.116,1.058-2.041,1.825-2.775c0.766-0.733,1.683-1.283,2.75-1.65c1.066-0.366,2.232-0.55,3.5-0.55
		c1.232,0,2.391,0.184,3.475,0.55c1.083,0.367,2.008,0.917,2.775,1.65c0.766,0.734,1.375,1.659,1.825,2.775
		c0.45,1.117,0.675,2.409,0.675,3.875v4.25c0,1.2-0.6,1.8-1.8,1.8h-10.3v3.35c0,1.6,0.325,2.692,0.975,3.275
		c0.65,0.584,1.441,0.875,2.375,0.875c0.966,0,1.725-0.25,2.275-0.75C377.142,91.411,377.417,90.728,377.417,89.861z
		 M370.967,81.111h6.7v-1.65c0-1.6-0.325-2.691-0.975-3.275c-0.65-0.583-1.442-0.875-2.375-0.875c-0.934,0-1.725,0.292-2.375,0.875
		c-0.65,0.584-0.975,1.675-0.975,3.275V81.111z"/>
	<path class="st0" d="M397.517,75.611c-1.167,0-2,0.234-2.5,0.7c-0.5,0.467-0.75,1.284-0.75,2.45v16.6c0,1.2-0.6,1.8-1.8,1.8h-1.8
		c-1.2,0-1.8-0.6-1.8-1.8v-17c0-2.866,0.691-4.883,2.075-6.05c1.383-1.166,3.325-1.75,5.825-1.75c0.367,0,0.758,0.009,1.175,0.025
		c0.417,0.017,0.875,0.075,1.375,0.175c0.466,0.1,0.841,0.275,1.125,0.525c0.283,0.25,0.425,0.675,0.425,1.275v1.45
		c0,0.6-0.15,1.067-0.45,1.4c-0.3,0.334-0.75,0.45-1.35,0.35S397.95,75.611,397.517,75.611z"/>
	<path class="st0" d="M415.065,77.611c0-0.733-0.25-1.3-0.75-1.7s-1.184-0.6-2.05-0.6c-0.867,0-1.55,0.2-2.05,0.6
		s-0.75,1.034-0.75,1.9v0.1c0,0.867,0.283,1.55,0.85,2.05c0.566,0.5,1.267,0.942,2.1,1.325c0.833,0.384,1.75,0.767,2.75,1.15
		c1,0.384,1.917,0.884,2.75,1.5c0.833,0.617,1.533,1.417,2.1,2.4c0.566,0.984,0.85,2.275,0.85,3.875c0,1.2-0.217,2.267-0.65,3.2
		c-0.434,0.934-1.025,1.717-1.775,2.35c-0.75,0.634-1.65,1.117-2.7,1.45c-1.05,0.333-2.192,0.5-3.425,0.5
		c-1.267,0-2.417-0.184-3.45-0.55s-1.925-0.858-2.675-1.475c-0.75-0.616-1.333-1.358-1.75-2.225c-0.417-0.866-0.625-1.8-0.625-2.8
		v-0.3c0-1.2,0.6-1.8,1.8-1.8h2.05c1.033,0,1.55,0.517,1.55,1.55c0,0.867,0.283,1.509,0.85,1.925
		c0.566,0.417,1.316,0.625,2.25,0.625c0.933,0,1.691-0.2,2.275-0.6c0.583-0.4,0.875-1.083,0.875-2.05v-0.1
		c0-0.866-0.284-1.541-0.85-2.025c-0.567-0.483-1.267-0.908-2.1-1.275c-0.834-0.366-1.75-0.733-2.75-1.1
		c-1-0.366-1.917-0.858-2.75-1.475c-0.834-0.616-1.534-1.408-2.1-2.375c-0.567-0.966-0.85-2.25-0.85-3.85
		c0-2.4,0.758-4.258,2.275-5.575c1.517-1.316,3.492-1.975,5.925-1.975c1.232,0,2.35,0.184,3.35,0.55
		c1,0.367,1.858,0.875,2.575,1.525c0.716,0.65,1.275,1.4,1.675,2.25c0.4,0.85,0.6,1.775,0.6,2.775c0,1.2-0.6,1.8-1.8,1.8h-2.05
		C415.582,79.161,415.065,78.644,415.065,77.611z"/>
	<path class="st0" d="M426.565,63.961c0-1.2,0.6-1.8,1.8-1.8h1.8c1.2,0,1.8,0.6,1.8,1.8v1.7c0,1.2-0.6,1.8-1.8,1.8h-1.8
		c-1.2,0-1.8-0.6-1.8-1.8V63.961z M426.565,72.611c0-1.2,0.6-1.8,1.8-1.8h1.8c1.2,0,1.8,0.6,1.8,1.8v22.75c0,1.2-0.6,1.8-1.8,1.8
		h-1.8c-1.2,0-1.8-0.6-1.8-1.8V72.611z"/>
	<path class="st0" d="M448.565,97.161c-0.5,0.1-0.958,0.158-1.375,0.175c-0.417,0.016-0.809,0.025-1.175,0.025
		c-2.4,0-4.234-0.558-5.5-1.675c-1.267-1.116-1.9-3.025-1.9-5.725v-23.8c0-1.2,0.6-1.8,1.8-1.8h1.8c1.2,0,1.8,0.6,1.8,1.8v4.65h4.3
		c1.2,0,1.8,0.6,1.8,1.8v1.45c0,1.2-0.6,1.8-1.8,1.8h-4.3v13.7c0,1.034,0.2,1.75,0.6,2.15c0.4,0.4,1.116,0.6,2.15,0.6
		c0.433,0,0.95-0.05,1.55-0.15s1.05,0.017,1.35,0.35c0.3,0.334,0.45,0.8,0.45,1.4v1.45c0,0.6-0.143,1.025-0.425,1.275
		C449.406,96.886,449.031,97.061,448.565,97.161z"/>
	<path class="st0" d="M466.914,72.611c0-1.2,0.6-1.8,1.8-1.8h1.8c1.2,0,1.8,0.6,1.8,1.8v24.95c0,1.466-0.225,2.741-0.675,3.825
		c-0.45,1.083-1.059,1.975-1.825,2.675c-0.767,0.7-1.692,1.225-2.775,1.575c-1.084,0.35-2.242,0.525-3.475,0.525
		c-1.333,0-2.525-0.192-3.575-0.575c-1.05-0.384-1.942-0.9-2.675-1.55c-0.734-0.65-1.292-1.409-1.675-2.275
		c-0.383-0.867-0.575-1.8-0.575-2.8c0-1.2,0.6-1.8,1.8-1.8h2.05c1.033,0,1.55,0.516,1.55,1.55c0,0.733,0.25,1.358,0.75,1.875
		c0.5,0.516,1.283,0.775,2.35,0.775c0.933,0,1.725-0.25,2.375-0.75s0.975-1.55,0.975-3.15v-4.45c-1.167,1.4-2.817,2.1-4.95,2.1
		c-2.067,0-3.775-0.675-5.125-2.025c-1.35-1.35-2.025-3.425-2.025-6.225v-14.25c0-1.2,0.6-1.8,1.8-1.8h1.8c1.2,0,1.8,0.6,1.8,1.8
		v13.3c0,1.6,0.325,2.692,0.975,3.275c0.65,0.584,1.441,0.875,2.375,0.875c0.933,0,1.725-0.291,2.375-0.875
		c0.65-0.583,0.975-1.675,0.975-3.275V72.611z"/>
	<path class="st0" d="M485.063,95.361c0,1.2-0.6,1.8-1.8,1.8h-2.9c-1.2,0-1.8-0.6-1.8-1.8v-2.95c0-1.2,0.6-1.8,1.8-1.8h2.9
		c1.2,0,1.8,0.6,1.8,1.8V95.361z"/>
	<path class="st0" d="M93.376,147.861c0,1.567,0.466,2.692,1.4,3.375c0.933,0.684,2.066,1.025,3.4,1.025c1.333,0,2.467-0.333,3.4-1
		c0.933-0.666,1.4-1.783,1.4-3.35v-0.05c0-0.933-0.217-1.716-0.65-2.35c-0.434-0.633-1-1.183-1.7-1.65
		c-0.7-0.466-1.5-0.875-2.4-1.225c-0.9-0.35-1.825-0.725-2.775-1.125c-0.95-0.4-1.875-0.858-2.775-1.375
		c-0.9-0.516-1.7-1.166-2.4-1.95c-0.7-0.783-1.267-1.741-1.7-2.875c-0.434-1.133-0.65-2.5-0.65-4.1v-0.05
		c0-1.5,0.25-2.841,0.75-4.025c0.5-1.183,1.2-2.183,2.1-3c0.9-0.816,1.975-1.441,3.225-1.875c1.25-0.433,2.625-0.65,4.125-0.65
		s2.875,0.217,4.125,0.65c1.25,0.434,2.325,1.067,3.225,1.9c0.9,0.834,1.6,1.842,2.1,3.025c0.5,1.184,0.75,2.525,0.75,4.025v0.1
		c0,1.267-0.634,1.9-1.9,1.9h-2.15c-1.133,0-1.7-0.566-1.7-1.7v-0.15c0-1.4-0.417-2.466-1.25-3.2c-0.834-0.733-1.9-1.1-3.2-1.1
		s-2.367,0.367-3.2,1.1c-0.833,0.734-1.25,1.8-1.25,3.2v0.05c0,1.267,0.375,2.259,1.125,2.975c0.75,0.717,1.675,1.342,2.775,1.875
		c1.1,0.534,2.308,1.05,3.625,1.55c1.316,0.5,2.525,1.15,3.625,1.95c1.1,0.8,2.025,1.859,2.775,3.175
		c0.75,1.317,1.125,3.042,1.125,5.175v0.05c0,1.534-0.259,2.892-0.775,4.075c-0.518,1.184-1.25,2.184-2.2,3
		c-0.95,0.817-2.083,1.434-3.4,1.85c-1.317,0.416-2.759,0.625-4.325,0.625c-1.5,0-2.883-0.217-4.15-0.65
		c-1.267-0.433-2.367-1.066-3.3-1.9c-0.934-0.833-1.659-1.841-2.175-3.025c-0.517-1.183-0.775-2.525-0.775-4.025v-0.2
		c0-1.266,0.633-1.9,1.9-1.9h2.15c1.133,0,1.7,0.567,1.7,1.7V147.861z"/>
	<path class="st0" d="M131.376,148.861c0,1.5-0.225,2.809-0.675,3.925c-0.45,1.117-1.059,2.034-1.825,2.75
		c-0.768,0.717-1.692,1.259-2.775,1.625c-1.083,0.366-2.242,0.55-3.475,0.55c-1.268,0-2.434-0.184-3.5-0.55
		c-1.067-0.366-1.984-0.908-2.75-1.625c-0.768-0.716-1.375-1.633-1.825-2.75c-0.45-1.116-0.675-2.425-0.675-3.925v-9.75
		c0-1.466,0.225-2.758,0.675-3.875c0.45-1.116,1.058-2.041,1.825-2.775c0.766-0.733,1.683-1.283,2.75-1.65
		c1.066-0.366,2.232-0.55,3.5-0.55c1.232,0,2.391,0.184,3.475,0.55c1.083,0.367,2.008,0.917,2.775,1.65
		c0.766,0.734,1.375,1.659,1.825,2.775c0.45,1.117,0.675,2.409,0.675,3.875V148.861z M125.976,139.461
		c0-1.6-0.325-2.691-0.975-3.275c-0.65-0.583-1.442-0.875-2.375-0.875c-0.934,0-1.725,0.292-2.375,0.875
		c-0.65,0.584-0.975,1.675-0.975,3.275v9.05c0,1.6,0.325,2.692,0.975,3.275c0.65,0.584,1.441,0.875,2.375,0.875
		c0.933,0,1.725-0.291,2.375-0.875c0.65-0.583,0.975-1.675,0.975-3.275V139.461z"/>
	<path class="st0" d="M150.974,122.161h1.95c1.267,0,1.9,0.634,1.9,1.9v31.2c0,1.267-0.633,1.9-1.9,1.9h-1.95
		c-1.267,0-1.9-0.633-1.9-1.9v-31.2C149.074,122.794,149.707,122.161,150.974,122.161z"/>
	<path class="st0" d="M178.673,155.361c0,1.2-0.6,1.8-1.8,1.8h-1.8c-1.2,0-1.8-0.6-1.8-1.8v-31.9c0-1.2,0.6-1.8,1.8-1.8h1.8
		c1.2,0,1.8,0.6,1.8,1.8v8.9c1.167-1.4,2.816-2.1,4.95-2.1c1.033,0,1.983,0.167,2.85,0.5c0.867,0.334,1.617,0.842,2.25,1.525
		c0.633,0.684,1.133,1.542,1.5,2.575c0.367,1.034,0.55,2.25,0.55,3.65v16.85c0,1.2-0.6,1.8-1.8,1.8h-1.8c-1.2,0-1.8-0.6-1.8-1.8
		v-15.9c0-1.6-0.325-2.691-0.975-3.275c-0.65-0.583-1.442-0.875-2.375-0.875c-0.934,0-1.725,0.292-2.375,0.875
		c-0.65,0.584-0.975,1.675-0.975,3.275V155.361z"/>
	<path class="st0" d="M208.473,149.861c0-1.033,0.517-1.55,1.55-1.55h2.05c1.2,0,1.8,0.6,1.8,1.8c0,2.267-0.775,4.1-2.325,5.5
		c-1.55,1.4-3.608,2.1-6.175,2.1c-1.268,0-2.434-0.184-3.5-0.55c-1.067-0.366-1.984-0.916-2.75-1.65
		c-0.768-0.733-1.375-1.658-1.825-2.775c-0.45-1.116-0.675-2.408-0.675-3.875v-9.75c0-1.466,0.225-2.758,0.675-3.875
		c0.45-1.116,1.058-2.041,1.825-2.775c0.766-0.733,1.683-1.283,2.75-1.65c1.066-0.366,2.232-0.55,3.5-0.55
		c1.232,0,2.391,0.184,3.475,0.55c1.083,0.367,2.008,0.917,2.775,1.65c0.766,0.734,1.375,1.659,1.825,2.775
		c0.45,1.117,0.675,2.409,0.675,3.875v4.25c0,1.2-0.6,1.8-1.8,1.8h-10.3v3.35c0,1.6,0.325,2.692,0.975,3.275
		c0.65,0.584,1.441,0.875,2.375,0.875c0.966,0,1.725-0.25,2.275-0.75C208.198,151.411,208.473,150.728,208.473,149.861z
		 M202.023,141.111h6.7v-1.65c0-1.6-0.325-2.691-0.975-3.275c-0.65-0.583-1.442-0.875-2.375-0.875c-0.934,0-1.725,0.292-2.375,0.875
		c-0.65,0.584-0.975,1.675-0.975,3.275V141.111z"/>
	<path class="st0" d="M227.322,152.311c0.267,0,0.492-0.008,0.675-0.025c0.183-0.016,0.425-0.058,0.725-0.125
		c0.6-0.1,1.05,0.017,1.35,0.35c0.3,0.334,0.45,0.8,0.45,1.4v1.45c0,0.6-0.142,1.025-0.425,1.275
		c-0.284,0.25-0.675,0.425-1.175,0.525c-0.467,0.1-0.909,0.158-1.325,0.175c-0.417,0.016-0.809,0.025-1.175,0.025
		c-0.967,0-1.842-0.117-2.625-0.35c-0.784-0.233-1.458-0.616-2.025-1.15c-0.567-0.533-1-1.241-1.3-2.125
		c-0.3-0.883-0.45-1.958-0.45-3.225v-27.05c0-1.2,0.6-1.8,1.8-1.8h1.8c1.2,0,1.8,0.6,1.8,1.8v26.65c0,0.867,0.2,1.45,0.6,1.75
		S226.855,152.311,227.322,152.311z"/>
	<path class="st0" d="M251.921,149.461c0,1.4-0.184,2.617-0.55,3.65c-0.367,1.034-0.867,1.892-1.5,2.575
		c-0.633,0.684-1.383,1.192-2.25,1.525c-0.867,0.333-1.817,0.5-2.85,0.5c-2.133,0-3.783-0.7-4.95-2.1v8.2c0,1.2-0.6,1.8-1.8,1.8
		h-1.8c-1.2,0-1.8-0.6-1.8-1.8v-24.7c0-1.5,0.225-2.808,0.675-3.925c0.45-1.116,1.058-2.033,1.825-2.75
		c0.766-0.716,1.683-1.258,2.75-1.625c1.066-0.366,2.232-0.55,3.5-0.55c1.232,0,2.391,0.184,3.475,0.55
		c1.083,0.367,2.008,0.909,2.775,1.625c0.766,0.717,1.375,1.634,1.825,2.75c0.45,1.117,0.675,2.425,0.675,3.925V149.461z
		 M246.521,139.461c0-1.6-0.325-2.691-0.975-3.275c-0.65-0.583-1.442-0.875-2.375-0.875c-0.934,0-1.725,0.292-2.375,0.875
		c-0.65,0.584-0.975,1.675-0.975,3.275v9.05c0,1.6,0.325,2.692,0.975,3.275c0.65,0.584,1.441,0.875,2.375,0.875
		c0.933,0,1.725-0.291,2.375-0.875c0.65-0.583,0.975-1.675,0.975-3.275V139.461z"/>
	<path class="st0" d="M269.17,123.961c0-1.2,0.6-1.8,1.8-1.8h1.8c1.2,0,1.8,0.6,1.8,1.8v1.7c0,1.2-0.6,1.8-1.8,1.8h-1.8
		c-1.2,0-1.8-0.6-1.8-1.8V123.961z M269.17,132.611c0-1.2,0.6-1.8,1.8-1.8h1.8c1.2,0,1.8,0.6,1.8,1.8v22.75c0,1.2-0.6,1.8-1.8,1.8
		h-1.8c-1.2,0-1.8-0.6-1.8-1.8V132.611z"/>
	<path class="st0" d="M309.969,155.361c0,1.2-0.6,1.8-1.8,1.8h-1.8c-1.2,0-1.8-0.6-1.8-1.8v-16.15c0-1.5-0.309-2.525-0.925-3.075
		c-0.617-0.55-1.358-0.825-2.225-0.825c-0.867,0-1.608,0.275-2.225,0.825c-0.617,0.55-0.925,1.575-0.925,3.075v16.15
		c0,1.2-0.6,1.8-1.8,1.8h-1.8c-1.2,0-1.8-0.6-1.8-1.8v-16.15c0-1.5-0.309-2.525-0.925-3.075c-0.617-0.55-1.358-0.825-2.225-0.825
		c-0.867,0-1.609,0.275-2.225,0.825c-0.617,0.55-0.925,1.575-0.925,3.075v16.15c0,1.2-0.6,1.8-1.8,1.8h-1.8c-1.2,0-1.8-0.6-1.8-1.8
		v-17.15c0-1.333,0.2-2.491,0.6-3.475c0.4-0.983,0.95-1.808,1.65-2.475c0.7-0.666,1.525-1.166,2.475-1.5
		c0.95-0.333,1.991-0.5,3.125-0.5c1.5,0,2.808,0.325,3.925,0.975c1.117,0.65,1.992,1.575,2.625,2.775
		c0.633-1.2,1.508-2.125,2.625-2.775c1.117-0.65,2.425-0.975,3.925-0.975c1.133,0,2.175,0.167,3.125,0.5
		c0.95,0.334,1.775,0.834,2.475,1.5c0.7,0.667,1.25,1.492,1.65,2.475c0.4,0.984,0.6,2.142,0.6,3.475V155.361z"/>
	<path class="st0" d="M345.069,155.361c0,1.2-0.6,1.8-1.8,1.8h-1.8c-1.2,0-1.8-0.6-1.8-1.8v-16.15c0-1.5-0.309-2.525-0.925-3.075
		c-0.617-0.55-1.358-0.825-2.225-0.825c-0.867,0-1.608,0.275-2.225,0.825c-0.617,0.55-0.925,1.575-0.925,3.075v16.15
		c0,1.2-0.6,1.8-1.8,1.8h-1.8c-1.2,0-1.8-0.6-1.8-1.8v-16.15c0-1.5-0.309-2.525-0.925-3.075c-0.617-0.55-1.358-0.825-2.225-0.825
		c-0.867,0-1.609,0.275-2.225,0.825c-0.617,0.55-0.925,1.575-0.925,3.075v16.15c0,1.2-0.6,1.8-1.8,1.8h-1.8c-1.2,0-1.8-0.6-1.8-1.8
		v-17.15c0-1.333,0.2-2.491,0.6-3.475c0.4-0.983,0.95-1.808,1.65-2.475c0.7-0.666,1.525-1.166,2.475-1.5
		c0.95-0.333,1.991-0.5,3.125-0.5c1.5,0,2.808,0.325,3.925,0.975c1.117,0.65,1.992,1.575,2.625,2.775
		c0.633-1.2,1.508-2.125,2.625-2.775c1.117-0.65,2.425-0.975,3.925-0.975c1.133,0,2.175,0.167,3.125,0.5
		c0.95,0.334,1.775,0.834,2.475,1.5c0.7,0.667,1.25,1.492,1.65,2.475c0.4,0.984,0.6,2.142,0.6,3.475V155.361z"/>
	<path class="st0" d="M351.668,123.961c0-1.2,0.6-1.8,1.8-1.8h1.8c1.2,0,1.8,0.6,1.8,1.8v1.7c0,1.2-0.6,1.8-1.8,1.8h-1.8
		c-1.2,0-1.8-0.6-1.8-1.8V123.961z M351.668,132.611c0-1.2,0.6-1.8,1.8-1.8h1.8c1.2,0,1.8,0.6,1.8,1.8v22.75c0,1.2-0.6,1.8-1.8,1.8
		h-1.8c-1.2,0-1.8-0.6-1.8-1.8V132.611z"/>
	<path class="st0" d="M375.267,153.011c-1.167,1.4-2.817,2.1-4.95,2.1c-2.067,0-3.775-0.675-5.125-2.025
		c-1.35-1.35-2.025-3.425-2.025-6.225v-7.75c0-1.466,0.225-2.758,0.675-3.875c0.45-1.116,1.058-2.041,1.825-2.775
		c0.767-0.733,1.683-1.283,2.75-1.65c1.066-0.366,2.233-0.55,3.5-0.55c1.233,0,2.392,0.184,3.475,0.55
		c1.083,0.367,2.008,0.917,2.775,1.65c0.767,0.734,1.375,1.659,1.825,2.775c0.45,1.117,0.675,2.409,0.675,3.875v18.45
		c0,1.466-0.225,2.741-0.675,3.825c-0.45,1.083-1.059,1.975-1.825,2.675c-0.767,0.7-1.692,1.225-2.775,1.575
		c-1.083,0.35-2.242,0.525-3.475,0.525c-1.333,0-2.525-0.192-3.575-0.575c-1.05-0.384-1.942-0.9-2.675-1.55
		c-0.733-0.65-1.292-1.409-1.675-2.275c-0.384-0.867-0.575-1.8-0.575-2.8c0-1.2,0.6-1.8,1.8-1.8h2.05c1.033,0,1.55,0.516,1.55,1.55
		c0,0.733,0.25,1.358,0.75,1.875c0.5,0.516,1.283,0.775,2.35,0.775c0.933,0,1.725-0.25,2.375-0.75s0.975-1.55,0.975-3.15V153.011z
		 M375.267,139.461c0-1.6-0.325-2.691-0.975-3.275c-0.65-0.583-1.442-0.875-2.375-0.875c-0.934,0-1.725,0.292-2.375,0.875
		c-0.65,0.584-0.975,1.675-0.975,3.275v6.45c0,1.6,0.325,2.692,0.975,3.275c0.65,0.584,1.441,0.875,2.375,0.875
		c0.933,0,1.725-0.291,2.375-0.875c0.65-0.583,0.975-1.675,0.975-3.275V139.461z"/>
	<path class="st0" d="M395.617,135.611c-1.167,0-2,0.234-2.5,0.7c-0.5,0.467-0.75,1.284-0.75,2.45v16.6c0,1.2-0.6,1.8-1.8,1.8h-1.8
		c-1.2,0-1.8-0.6-1.8-1.8v-17c0-2.866,0.691-4.883,2.075-6.05c1.383-1.166,3.325-1.75,5.825-1.75c0.367,0,0.758,0.009,1.175,0.025
		c0.417,0.017,0.875,0.075,1.375,0.175c0.466,0.1,0.841,0.275,1.125,0.525c0.283,0.25,0.425,0.675,0.425,1.275v1.45
		c0,0.6-0.15,1.067-0.45,1.4c-0.3,0.334-0.75,0.45-1.35,0.35C396.567,135.661,396.05,135.611,395.617,135.611z"/>
	<path class="st0" d="M419.416,148.861c0,1.467-0.225,2.759-0.675,3.875c-0.45,1.117-1.059,2.042-1.825,2.775
		c-0.767,0.734-1.692,1.284-2.775,1.65c-1.083,0.366-2.242,0.55-3.475,0.55c-1.267,0-2.434-0.184-3.5-0.55
		c-1.067-0.366-1.992-0.883-2.775-1.55c-0.784-0.666-1.392-1.491-1.825-2.475c-0.434-0.983-0.65-2.108-0.65-3.375v-0.1
		c0-2.5,0.75-4.45,2.25-5.85c1.5-1.4,3.667-2.1,6.5-2.1h3.35v-2.25c0-1.6-0.325-2.691-0.975-3.275
		c-0.65-0.583-1.442-0.875-2.375-0.875c-0.967,0-1.684,0.259-2.15,0.775c-0.467,0.517-0.7,1.142-0.7,1.875
		c0,1.034-0.517,1.55-1.55,1.55h-2.05c-1.2,0-1.8-0.6-1.8-1.8c0-1.066,0.191-2.05,0.575-2.95c0.383-0.9,0.933-1.683,1.65-2.35
		c0.716-0.666,1.583-1.191,2.6-1.575c1.016-0.383,2.158-0.575,3.425-0.575c1.233,0,2.392,0.184,3.475,0.55
		c1.083,0.367,2.008,0.917,2.775,1.65c0.767,0.734,1.375,1.659,1.825,2.775c0.45,1.117,0.675,2.409,0.675,3.875V148.861z
		 M410.666,152.661c0.933,0,1.725-0.291,2.375-0.875c0.65-0.583,0.975-1.675,0.975-3.275v-2.75h-3.35
		c-0.934,0-1.725,0.259-2.375,0.775c-0.65,0.517-0.975,1.409-0.975,2.675c0,1.267,0.325,2.159,0.975,2.675
		C408.941,152.403,409.732,152.661,410.666,152.661z"/>
	<path class="st0" d="M440.966,157.161h-1.8c-1.2,0-1.8-0.6-1.8-1.8v-15.9c0-1.6-0.325-2.691-0.975-3.275
		c-0.65-0.583-1.442-0.875-2.375-0.875c-0.934,0-1.725,0.292-2.375,0.875c-0.65,0.584-0.975,1.675-0.975,3.275v15.9
		c0,1.2-0.6,1.8-1.8,1.8h-1.8c-1.2,0-1.8-0.6-1.8-1.8v-16.25c0-1.466,0.225-2.758,0.675-3.875c0.45-1.116,1.058-2.041,1.825-2.775
		c0.767-0.733,1.683-1.283,2.75-1.65c1.066-0.366,2.233-0.55,3.5-0.55c1.233,0,2.392,0.184,3.475,0.55
		c1.083,0.367,2.008,0.917,2.775,1.65c0.767,0.734,1.375,1.659,1.825,2.775c0.45,1.117,0.675,2.409,0.675,3.875v16.25
		C442.766,156.561,442.165,157.161,440.966,157.161z"/>
	<path class="st0" d="M459.065,157.161c-0.5,0.1-0.958,0.158-1.375,0.175c-0.417,0.016-0.809,0.025-1.175,0.025
		c-2.4,0-4.234-0.558-5.5-1.675c-1.267-1.116-1.9-3.025-1.9-5.725v-23.8c0-1.2,0.6-1.8,1.8-1.8h1.8c1.2,0,1.8,0.6,1.8,1.8v4.65h4.3
		c1.2,0,1.8,0.6,1.8,1.8v1.45c0,1.2-0.6,1.8-1.8,1.8h-4.3v13.7c0,1.034,0.2,1.75,0.6,2.15c0.4,0.4,1.116,0.6,2.15,0.6
		c0.433,0,0.95-0.05,1.55-0.15s1.05,0.017,1.35,0.35c0.3,0.334,0.45,0.8,0.45,1.4v1.45c0,0.6-0.143,1.025-0.425,1.275
		C459.907,156.886,459.532,157.061,459.065,157.161z"/>
	<path class="st0" d="M475.715,137.611c0-0.733-0.25-1.3-0.75-1.7s-1.184-0.6-2.05-0.6c-0.867,0-1.55,0.2-2.05,0.6
		s-0.75,1.034-0.75,1.9v0.1c0,0.867,0.283,1.55,0.85,2.05c0.566,0.5,1.267,0.942,2.1,1.325c0.833,0.384,1.75,0.767,2.75,1.15
		c1,0.384,1.917,0.884,2.75,1.5c0.833,0.617,1.533,1.417,2.1,2.4c0.566,0.984,0.85,2.275,0.85,3.875c0,1.2-0.217,2.267-0.65,3.2
		c-0.434,0.934-1.025,1.717-1.775,2.35c-0.75,0.634-1.65,1.117-2.7,1.45c-1.05,0.333-2.192,0.5-3.425,0.5
		c-1.267,0-2.417-0.184-3.45-0.55s-1.925-0.858-2.675-1.475c-0.75-0.616-1.333-1.358-1.75-2.225c-0.417-0.866-0.625-1.8-0.625-2.8
		v-0.3c0-1.2,0.6-1.8,1.8-1.8h2.05c1.033,0,1.55,0.517,1.55,1.55c0,0.867,0.283,1.509,0.85,1.925
		c0.566,0.417,1.316,0.625,2.25,0.625c0.933,0,1.691-0.2,2.275-0.6c0.583-0.4,0.875-1.083,0.875-2.05v-0.1
		c0-0.866-0.284-1.541-0.85-2.025c-0.567-0.483-1.267-0.908-2.1-1.275c-0.834-0.366-1.75-0.733-2.75-1.1
		c-1-0.366-1.917-0.858-2.75-1.475c-0.834-0.616-1.534-1.408-2.1-2.375c-0.567-0.966-0.85-2.25-0.85-3.85
		c0-2.4,0.758-4.258,2.275-5.575c1.517-1.316,3.492-1.975,5.925-1.975c1.232,0,2.35,0.184,3.35,0.55
		c1,0.367,1.858,0.875,2.575,1.525c0.716,0.65,1.275,1.4,1.675,2.25c0.4,0.85,0.6,1.775,0.6,2.775c0,1.2-0.6,1.8-1.8,1.8h-2.05
		C476.231,139.161,475.715,138.644,475.715,137.611z"/>
	<path class="st0" d="M125.676,217.161c-0.5,0.1-0.958,0.158-1.375,0.175c-0.417,0.016-0.809,0.025-1.175,0.025
		c-2.4,0-4.234-0.558-5.5-1.675c-1.267-1.116-1.9-3.025-1.9-5.725v-23.8c0-1.2,0.6-1.8,1.8-1.8h1.8c1.2,0,1.8,0.6,1.8,1.8v4.65h4.3
		c1.2,0,1.8,0.6,1.8,1.8v1.45c0,1.2-0.6,1.8-1.8,1.8h-4.3v13.7c0,1.034,0.2,1.75,0.6,2.15c0.4,0.4,1.116,0.6,2.15,0.6
		c0.433,0,0.95-0.05,1.55-0.15s1.05,0.017,1.35,0.35c0.3,0.334,0.45,0.8,0.45,1.4v1.45c0,0.6-0.143,1.025-0.425,1.275
		C126.517,216.886,126.142,217.061,125.676,217.161z"/>
	<path class="st0" d="M149.025,208.861c0,1.5-0.225,2.809-0.675,3.925c-0.45,1.117-1.059,2.034-1.825,2.75
		c-0.768,0.717-1.692,1.259-2.775,1.625c-1.083,0.366-2.242,0.55-3.475,0.55c-1.268,0-2.434-0.184-3.5-0.55
		c-1.067-0.366-1.984-0.908-2.75-1.625c-0.768-0.716-1.375-1.633-1.825-2.75c-0.45-1.116-0.675-2.425-0.675-3.925v-9.75
		c0-1.466,0.225-2.758,0.675-3.875c0.45-1.116,1.058-2.041,1.825-2.775c0.766-0.733,1.683-1.283,2.75-1.65
		c1.066-0.366,2.232-0.55,3.5-0.55c1.232,0,2.391,0.184,3.475,0.55c1.083,0.367,2.008,0.917,2.775,1.65
		c0.766,0.734,1.375,1.659,1.825,2.775c0.45,1.117,0.675,2.409,0.675,3.875V208.861z M143.625,199.461
		c0-1.6-0.325-2.691-0.975-3.275c-0.65-0.583-1.442-0.875-2.375-0.875c-0.934,0-1.725,0.292-2.375,0.875
		c-0.65,0.584-0.975,1.675-0.975,3.275v9.05c0,1.6,0.325,2.692,0.975,3.275c0.65,0.584,1.441,0.875,2.375,0.875
		c0.933,0,1.725-0.291,2.375-0.875c0.65-0.583,0.975-1.675,0.975-3.275V199.461z"/>
	<path class="st0" d="M170.924,208.511c0,1.6,0.325,2.692,0.975,3.275c0.65,0.584,1.441,0.875,2.375,0.875
		c0.966,0,1.725-0.3,2.275-0.9c0.55-0.6,0.825-1.4,0.825-2.4c0-1.033,0.517-1.55,1.55-1.55h2.05c1.2,0,1.8,0.6,1.8,1.8
		c0,1.234-0.209,2.35-0.625,3.35c-0.417,1-1,1.85-1.75,2.55c-0.75,0.7-1.65,1.242-2.7,1.625s-2.192,0.575-3.425,0.575
		c-1.268,0-2.434-0.184-3.5-0.55c-1.067-0.366-1.984-0.916-2.75-1.65c-0.768-0.733-1.375-1.658-1.825-2.775
		c-0.45-1.116-0.675-2.408-0.675-3.875v-9.75c0-1.466,0.225-2.758,0.675-3.875c0.45-1.116,1.058-2.041,1.825-2.775
		c0.766-0.733,1.683-1.283,2.75-1.65c1.066-0.366,2.232-0.55,3.5-0.55c1.232,0,2.375,0.192,3.425,0.575
		c1.05,0.384,1.95,0.925,2.7,1.625s1.333,1.55,1.75,2.55c0.416,1,0.625,2.117,0.625,3.35c0,1.2-0.6,1.8-1.8,1.8h-2.05
		c-1.034,0-1.55-0.516-1.55-1.55c0-1-0.275-1.8-0.825-2.4c-0.55-0.6-1.309-0.9-2.275-0.9c-0.934,0-1.725,0.292-2.375,0.875
		c-0.65,0.584-0.975,1.675-0.975,3.275V208.511z"/>
	<path class="st0" d="M205.223,208.861c0,1.5-0.225,2.809-0.675,3.925c-0.45,1.117-1.059,2.034-1.825,2.75
		c-0.768,0.717-1.692,1.259-2.775,1.625c-1.083,0.366-2.242,0.55-3.475,0.55c-1.268,0-2.434-0.184-3.5-0.55
		c-1.067-0.366-1.984-0.908-2.75-1.625c-0.768-0.716-1.375-1.633-1.825-2.75c-0.45-1.116-0.675-2.425-0.675-3.925v-9.75
		c0-1.466,0.225-2.758,0.675-3.875c0.45-1.116,1.058-2.041,1.825-2.775c0.766-0.733,1.683-1.283,2.75-1.65
		c1.066-0.366,2.232-0.55,3.5-0.55c1.232,0,2.391,0.184,3.475,0.55c1.083,0.367,2.008,0.917,2.775,1.65
		c0.766,0.734,1.375,1.659,1.825,2.775c0.45,1.117,0.675,2.409,0.675,3.875V208.861z M199.823,199.461
		c0-1.6-0.325-2.691-0.975-3.275c-0.65-0.583-1.442-0.875-2.375-0.875c-0.934,0-1.725,0.292-2.375,0.875
		c-0.65,0.584-0.975,1.675-0.975,3.275v9.05c0,1.6,0.325,2.692,0.975,3.275c0.65,0.584,1.441,0.875,2.375,0.875
		c0.933,0,1.725-0.291,2.375-0.875c0.65-0.583,0.975-1.675,0.975-3.275V199.461z"/>
	<path class="st0" d="M239.872,215.361c0,1.2-0.6,1.8-1.8,1.8h-1.8c-1.2,0-1.8-0.6-1.8-1.8v-16.15c0-1.5-0.309-2.525-0.925-3.075
		c-0.617-0.55-1.358-0.825-2.225-0.825c-0.867,0-1.608,0.275-2.225,0.825c-0.617,0.55-0.925,1.575-0.925,3.075v16.15
		c0,1.2-0.6,1.8-1.8,1.8h-1.8c-1.2,0-1.8-0.6-1.8-1.8v-16.15c0-1.5-0.309-2.525-0.925-3.075c-0.617-0.55-1.358-0.825-2.225-0.825
		c-0.867,0-1.609,0.275-2.225,0.825c-0.617,0.55-0.925,1.575-0.925,3.075v16.15c0,1.2-0.6,1.8-1.8,1.8h-1.8c-1.2,0-1.8-0.6-1.8-1.8
		v-17.15c0-1.333,0.2-2.491,0.6-3.475c0.4-0.983,0.95-1.808,1.65-2.475c0.7-0.666,1.525-1.166,2.475-1.5
		c0.95-0.333,1.991-0.5,3.125-0.5c1.5,0,2.808,0.325,3.925,0.975c1.117,0.65,1.992,1.575,2.625,2.775
		c0.633-1.2,1.508-2.125,2.625-2.775c1.117-0.65,2.425-0.975,3.925-0.975c1.133,0,2.175,0.167,3.125,0.5
		c0.95,0.334,1.775,0.834,2.475,1.5c0.7,0.667,1.25,1.492,1.65,2.475c0.4,0.984,0.6,2.142,0.6,3.475V215.361z"/>
	<path class="st0" d="M257.572,209.861c0-1.033,0.517-1.55,1.55-1.55h2.05c1.2,0,1.8,0.6,1.8,1.8c0,2.267-0.775,4.1-2.325,5.5
		c-1.55,1.4-3.608,2.1-6.175,2.1c-1.268,0-2.434-0.184-3.5-0.55c-1.067-0.366-1.984-0.916-2.75-1.65
		c-0.768-0.733-1.375-1.658-1.825-2.775c-0.45-1.116-0.675-2.408-0.675-3.875v-9.75c0-1.466,0.225-2.758,0.675-3.875
		c0.45-1.116,1.058-2.041,1.825-2.775c0.766-0.733,1.683-1.283,2.75-1.65c1.066-0.366,2.232-0.55,3.5-0.55
		c1.232,0,2.391,0.184,3.475,0.55c1.083,0.367,2.008,0.917,2.775,1.65c0.766,0.734,1.375,1.659,1.825,2.775
		c0.45,1.117,0.675,2.409,0.675,3.875v4.25c0,1.2-0.6,1.8-1.8,1.8h-10.3v3.35c0,1.6,0.325,2.692,0.975,3.275
		c0.65,0.584,1.441,0.875,2.375,0.875c0.966,0,1.725-0.25,2.275-0.75C257.297,211.411,257.572,210.728,257.572,209.861z
		 M251.122,201.111h6.7v-1.65c0-1.6-0.325-2.691-0.975-3.275c-0.65-0.583-1.442-0.875-2.375-0.875c-0.934,0-1.725,0.292-2.375,0.875
		c-0.65,0.584-0.975,1.675-0.975,3.275V201.111z"/>
	<path class="st0" d="M296.72,208.861c0,1.467-0.225,2.759-0.675,3.875c-0.45,1.117-1.059,2.042-1.825,2.775
		c-0.767,0.734-1.692,1.284-2.775,1.65c-1.083,0.366-2.242,0.55-3.475,0.55c-1.267,0-2.434-0.184-3.5-0.55
		c-1.067-0.366-1.992-0.883-2.775-1.55c-0.784-0.666-1.392-1.491-1.825-2.475c-0.434-0.983-0.65-2.108-0.65-3.375v-0.1
		c0-2.5,0.75-4.45,2.25-5.85c1.5-1.4,3.667-2.1,6.5-2.1h3.35v-2.25c0-1.6-0.325-2.691-0.975-3.275
		c-0.65-0.583-1.442-0.875-2.375-0.875c-0.967,0-1.684,0.259-2.15,0.775c-0.467,0.517-0.7,1.142-0.7,1.875
		c0,1.034-0.517,1.55-1.55,1.55h-2.05c-1.2,0-1.8-0.6-1.8-1.8c0-1.066,0.191-2.05,0.575-2.95c0.383-0.9,0.933-1.683,1.65-2.35
		c0.716-0.666,1.583-1.191,2.6-1.575c1.016-0.383,2.158-0.575,3.425-0.575c1.233,0,2.392,0.184,3.475,0.55
		c1.083,0.367,2.008,0.917,2.775,1.65c0.767,0.734,1.375,1.659,1.825,2.775c0.45,1.117,0.675,2.409,0.675,3.875V208.861z
		 M287.97,212.661c0.933,0,1.725-0.291,2.375-0.875c0.65-0.583,0.975-1.675,0.975-3.275v-2.75h-3.35
		c-0.934,0-1.725,0.259-2.375,0.775c-0.65,0.517-0.975,1.409-0.975,2.675c0,1.267,0.325,2.159,0.975,2.675
		C286.245,212.403,287.037,212.661,287.97,212.661z"/>
	<path class="st0" d="M318.27,217.161h-1.8c-1.2,0-1.8-0.6-1.8-1.8v-15.9c0-1.6-0.325-2.691-0.975-3.275
		c-0.65-0.583-1.442-0.875-2.375-0.875c-0.934,0-1.725,0.292-2.375,0.875c-0.65,0.584-0.975,1.675-0.975,3.275v15.9
		c0,1.2-0.6,1.8-1.8,1.8h-1.8c-1.2,0-1.8-0.6-1.8-1.8v-16.25c0-1.466,0.225-2.758,0.675-3.875c0.45-1.116,1.058-2.041,1.825-2.775
		c0.767-0.733,1.683-1.283,2.75-1.65c1.066-0.366,2.233-0.55,3.5-0.55c1.233,0,2.392,0.184,3.475,0.55
		c1.083,0.367,2.008,0.917,2.775,1.65c0.767,0.734,1.375,1.659,1.825,2.775c0.45,1.117,0.675,2.409,0.675,3.875v16.25
		C320.07,216.561,319.47,217.161,318.27,217.161z"/>
	<path class="st0" d="M325.92,198.511c0-2.8,0.675-4.875,2.025-6.225s3.058-2.025,5.125-2.025c1,0,1.925,0.167,2.775,0.5
		c0.85,0.334,1.575,0.867,2.175,1.6v-8.9c0-1.2,0.6-1.8,1.8-1.8h1.8c1.2,0,1.8,0.6,1.8,1.8v25.4c0,1.5-0.225,2.809-0.675,3.925
		c-0.45,1.117-1.059,2.034-1.825,2.75c-0.768,0.717-1.692,1.259-2.775,1.625c-1.083,0.366-2.242,0.55-3.475,0.55
		c-1.268,0-2.434-0.184-3.5-0.55c-1.067-0.366-1.984-0.908-2.75-1.625c-0.768-0.716-1.375-1.633-1.825-2.75
		c-0.45-1.116-0.675-2.425-0.675-3.925V198.511z M331.32,208.511c0,1.6,0.325,2.692,0.975,3.275c0.65,0.584,1.441,0.875,2.375,0.875
		c0.933,0,1.725-0.291,2.375-0.875c0.65-0.583,0.975-1.675,0.975-3.275v-9.05c0-1.6-0.325-2.691-0.975-3.275
		c-0.65-0.583-1.442-0.875-2.375-0.875c-0.934,0-1.725,0.292-2.375,0.875c-0.65,0.584-0.975,1.675-0.975,3.275V208.511z"/>
	<path class="st0" d="M366.318,192.361c1.167-1.4,2.816-2.1,4.95-2.1c1.033,0,1.983,0.167,2.85,0.5
		c0.867,0.334,1.617,0.842,2.25,1.525c0.633,0.684,1.133,1.542,1.5,2.575c0.367,1.034,0.55,2.25,0.55,3.65v10.35
		c0,1.5-0.225,2.809-0.675,3.925c-0.45,1.117-1.059,2.034-1.825,2.75c-0.768,0.717-1.692,1.259-2.775,1.625
		c-1.083,0.366-2.242,0.55-3.475,0.55c-1.268,0-2.434-0.184-3.5-0.55c-1.067-0.366-1.984-0.908-2.75-1.625
		c-0.768-0.716-1.375-1.633-1.825-2.75c-0.45-1.116-0.675-2.425-0.675-3.925v-25.4c0-1.2,0.6-1.8,1.8-1.8h1.8c1.2,0,1.8,0.6,1.8,1.8
		V192.361z M366.318,208.511c0,1.6,0.325,2.692,0.975,3.275c0.65,0.584,1.441,0.875,2.375,0.875c0.933,0,1.725-0.291,2.375-0.875
		c0.65-0.583,0.975-1.675,0.975-3.275v-9.05c0-1.6-0.325-2.691-0.975-3.275c-0.65-0.583-1.442-0.875-2.375-0.875
		c-0.934,0-1.725,0.292-2.375,0.875c-0.65,0.584-0.975,1.675-0.975,3.275V208.511z"/>
	<path class="st0" d="M392.917,195.611c-1.167,0-2,0.234-2.5,0.7c-0.5,0.467-0.75,1.284-0.75,2.45v16.6c0,1.2-0.6,1.8-1.8,1.8h-1.8
		c-1.2,0-1.8-0.6-1.8-1.8v-17c0-2.866,0.691-4.883,2.075-6.05c1.383-1.166,3.325-1.75,5.825-1.75c0.367,0,0.758,0.009,1.175,0.025
		c0.417,0.017,0.875,0.075,1.375,0.175c0.466,0.1,0.841,0.275,1.125,0.525c0.283,0.25,0.425,0.675,0.425,1.275v1.45
		c0,0.6-0.15,1.067-0.45,1.4c-0.3,0.334-0.75,0.45-1.35,0.35C393.868,195.661,393.35,195.611,392.917,195.611z"/>
	<path class="st0" d="M400.417,183.961c0-1.2,0.6-1.8,1.8-1.8h1.8c1.2,0,1.8,0.6,1.8,1.8v1.7c0,1.2-0.6,1.8-1.8,1.8h-1.8
		c-1.2,0-1.8-0.6-1.8-1.8V183.961z M400.417,192.611c0-1.2,0.6-1.8,1.8-1.8h1.8c1.2,0,1.8,0.6,1.8,1.8v22.75c0,1.2-0.6,1.8-1.8,1.8
		h-1.8c-1.2,0-1.8-0.6-1.8-1.8V192.611z"/>
	<path class="st0" d="M428.116,217.161h-1.8c-1.2,0-1.8-0.6-1.8-1.8v-15.9c0-1.6-0.325-2.691-0.975-3.275
		c-0.65-0.583-1.442-0.875-2.375-0.875c-0.934,0-1.725,0.292-2.375,0.875c-0.65,0.584-0.975,1.675-0.975,3.275v15.9
		c0,1.2-0.6,1.8-1.8,1.8h-1.8c-1.2,0-1.8-0.6-1.8-1.8v-16.25c0-1.466,0.225-2.758,0.675-3.875c0.45-1.116,1.058-2.041,1.825-2.775
		c0.767-0.733,1.683-1.283,2.75-1.65c1.066-0.366,2.233-0.55,3.5-0.55c1.233,0,2.392,0.184,3.475,0.55
		c1.083,0.367,2.008,0.917,2.775,1.65c0.767,0.734,1.375,1.659,1.825,2.775c0.45,1.117,0.675,2.409,0.675,3.875v16.25
		C429.916,216.561,429.316,217.161,428.116,217.161z"/>
	<path class="st0" d="M447.816,213.011c-1.167,1.4-2.817,2.1-4.95,2.1c-2.067,0-3.775-0.675-5.125-2.025
		c-1.35-1.35-2.025-3.425-2.025-6.225v-7.75c0-1.466,0.225-2.758,0.675-3.875c0.45-1.116,1.058-2.041,1.825-2.775
		c0.767-0.733,1.683-1.283,2.75-1.65c1.066-0.366,2.233-0.55,3.5-0.55c1.233,0,2.392,0.184,3.475,0.55
		c1.083,0.367,2.008,0.917,2.775,1.65c0.767,0.734,1.375,1.659,1.825,2.775c0.45,1.117,0.675,2.409,0.675,3.875v18.45
		c0,1.466-0.225,2.741-0.675,3.825c-0.45,1.083-1.059,1.975-1.825,2.675c-0.767,0.7-1.692,1.225-2.775,1.575
		c-1.083,0.35-2.242,0.525-3.475,0.525c-1.333,0-2.525-0.192-3.575-0.575c-1.05-0.384-1.942-0.9-2.675-1.55
		c-0.733-0.65-1.292-1.409-1.675-2.275c-0.384-0.867-0.575-1.8-0.575-2.8c0-1.2,0.6-1.8,1.8-1.8h2.05c1.033,0,1.55,0.516,1.55,1.55
		c0,0.733,0.25,1.358,0.75,1.875c0.5,0.516,1.283,0.775,2.35,0.775c0.933,0,1.725-0.25,2.375-0.75s0.975-1.55,0.975-3.15V213.011z
		 M447.816,199.461c0-1.6-0.325-2.691-0.975-3.275c-0.65-0.583-1.442-0.875-2.375-0.875c-0.934,0-1.725,0.292-2.375,0.875
		c-0.65,0.584-0.975,1.675-0.975,3.275v6.45c0,1.6,0.325,2.692,0.975,3.275c0.65,0.584,1.441,0.875,2.375,0.875
		c0.933,0,1.725-0.291,2.375-0.875c0.65-0.583,0.975-1.675,0.975-3.275V199.461z"/>
	<path class="st0" d="M70.002,277.161c-0.5,0.1-0.958,0.158-1.375,0.175c-0.417,0.016-0.809,0.025-1.175,0.025
		c-2.4,0-4.234-0.558-5.5-1.675c-1.267-1.116-1.9-3.025-1.9-5.725v-23.8c0-1.2,0.6-1.8,1.8-1.8h1.8c1.2,0,1.8,0.6,1.8,1.8v4.65h4.3
		c1.2,0,1.8,0.6,1.8,1.8v1.45c0,1.2-0.6,1.8-1.8,1.8h-4.3v13.7c0,1.034,0.2,1.75,0.6,2.15c0.4,0.4,1.116,0.6,2.15,0.6
		c0.433,0,0.95-0.05,1.55-0.15s1.05,0.017,1.35,0.35c0.3,0.334,0.45,0.8,0.45,1.4v1.45c0,0.6-0.143,1.025-0.425,1.275
		C70.844,276.886,70.469,277.061,70.002,277.161z"/>
	<path class="st0" d="M82.002,275.361c0,1.2-0.6,1.8-1.8,1.8h-1.8c-1.2,0-1.8-0.6-1.8-1.8v-31.9c0-1.2,0.6-1.8,1.8-1.8h1.8
		c1.2,0,1.8,0.6,1.8,1.8v8.9c1.167-1.4,2.816-2.1,4.95-2.1c1.033,0,1.983,0.167,2.85,0.5c0.867,0.334,1.617,0.842,2.25,1.525
		c0.633,0.684,1.133,1.542,1.5,2.575c0.367,1.034,0.55,2.25,0.55,3.65v16.85c0,1.2-0.6,1.8-1.8,1.8h-1.8c-1.2,0-1.8-0.6-1.8-1.8
		v-15.9c0-1.6-0.325-2.691-0.975-3.275c-0.65-0.583-1.442-0.875-2.375-0.875c-0.934,0-1.725,0.292-2.375,0.875
		c-0.65,0.584-0.975,1.675-0.975,3.275V275.361z"/>
	<path class="st0" d="M111.801,269.861c0-1.033,0.517-1.55,1.55-1.55h2.05c1.2,0,1.8,0.6,1.8,1.8c0,2.267-0.775,4.1-2.325,5.5
		c-1.55,1.4-3.608,2.1-6.175,2.1c-1.268,0-2.434-0.184-3.5-0.55c-1.067-0.366-1.984-0.916-2.75-1.65
		c-0.768-0.733-1.375-1.658-1.825-2.775c-0.45-1.116-0.675-2.408-0.675-3.875v-9.75c0-1.466,0.225-2.758,0.675-3.875
		c0.45-1.116,1.058-2.041,1.825-2.775c0.766-0.733,1.683-1.283,2.75-1.65c1.066-0.366,2.232-0.55,3.5-0.55
		c1.232,0,2.391,0.184,3.475,0.55c1.083,0.367,2.008,0.917,2.775,1.65c0.766,0.734,1.375,1.659,1.825,2.775
		c0.45,1.117,0.675,2.409,0.675,3.875v4.25c0,1.2-0.6,1.8-1.8,1.8h-10.3v3.35c0,1.6,0.325,2.692,0.975,3.275
		c0.65,0.584,1.441,0.875,2.375,0.875c0.966,0,1.725-0.25,2.275-0.75C111.526,271.411,111.801,270.728,111.801,269.861z
		 M105.351,261.111h6.7v-1.65c0-1.6-0.325-2.691-0.975-3.275c-0.65-0.583-1.442-0.875-2.375-0.875c-0.934,0-1.725,0.292-2.375,0.875
		c-0.65,0.584-0.975,1.675-0.975,3.275V261.111z"/>
	<path class="st0" d="M123.551,243.961c0-1.2,0.6-1.8,1.8-1.8h1.8c1.2,0,1.8,0.6,1.8,1.8v1.7c0,1.2-0.6,1.8-1.8,1.8h-1.8
		c-1.2,0-1.8-0.6-1.8-1.8V243.961z M123.551,252.611c0-1.2,0.6-1.8,1.8-1.8h1.8c1.2,0,1.8,0.6,1.8,1.8v22.75c0,1.2-0.6,1.8-1.8,1.8
		h-1.8c-1.2,0-1.8-0.6-1.8-1.8V252.611z"/>
	<path class="st0" d="M144.2,255.611c-1.167,0-2,0.234-2.5,0.7c-0.5,0.467-0.75,1.284-0.75,2.45v16.6c0,1.2-0.6,1.8-1.8,1.8h-1.8
		c-1.2,0-1.8-0.6-1.8-1.8v-17c0-2.866,0.691-4.883,2.075-6.05c1.383-1.166,3.325-1.75,5.825-1.75c0.367,0,0.758,0.009,1.175,0.025
		c0.417,0.017,0.875,0.075,1.375,0.175c0.466,0.1,0.841,0.275,1.125,0.525c0.283,0.25,0.425,0.675,0.425,1.275v1.45
		c0,0.6-0.15,1.067-0.45,1.4c-0.3,0.334-0.75,0.45-1.35,0.35C145.15,255.661,144.633,255.611,144.2,255.611z"/>
	<path class="st0" d="M172.498,277.161c-0.5,0.1-0.958,0.158-1.375,0.175c-0.417,0.016-0.809,0.025-1.175,0.025
		c-2.4,0-4.234-0.558-5.5-1.675c-1.267-1.116-1.9-3.025-1.9-5.725v-23.8c0-1.2,0.6-1.8,1.8-1.8h1.8c1.2,0,1.8,0.6,1.8,1.8v4.65h4.3
		c1.2,0,1.8,0.6,1.8,1.8v1.45c0,1.2-0.6,1.8-1.8,1.8h-4.3v13.7c0,1.034,0.2,1.75,0.6,2.15c0.4,0.4,1.116,0.6,2.15,0.6
		c0.433,0,0.95-0.05,1.55-0.15s1.05,0.017,1.35,0.35c0.3,0.334,0.45,0.8,0.45,1.4v1.45c0,0.6-0.143,1.025-0.425,1.275
		C173.339,276.886,172.964,277.061,172.498,277.161z"/>
	<path class="st0" d="M195.397,268.861c0,1.467-0.225,2.759-0.675,3.875c-0.45,1.117-1.059,2.042-1.825,2.775
		c-0.767,0.734-1.692,1.284-2.775,1.65c-1.083,0.366-2.242,0.55-3.475,0.55c-1.267,0-2.434-0.184-3.5-0.55
		c-1.067-0.366-1.992-0.883-2.775-1.55c-0.784-0.666-1.392-1.491-1.825-2.475c-0.434-0.983-0.65-2.108-0.65-3.375v-0.1
		c0-2.5,0.75-4.45,2.25-5.85c1.5-1.4,3.667-2.1,6.5-2.1h3.35v-2.25c0-1.6-0.325-2.691-0.975-3.275
		c-0.65-0.583-1.442-0.875-2.375-0.875c-0.967,0-1.684,0.259-2.15,0.775c-0.467,0.517-0.7,1.142-0.7,1.875
		c0,1.034-0.517,1.55-1.55,1.55h-2.05c-1.2,0-1.8-0.6-1.8-1.8c0-1.066,0.191-2.05,0.575-2.95c0.383-0.9,0.933-1.683,1.65-2.35
		c0.716-0.666,1.583-1.191,2.6-1.575c1.016-0.383,2.158-0.575,3.425-0.575c1.233,0,2.392,0.184,3.475,0.55
		c1.083,0.367,2.008,0.917,2.775,1.65c0.767,0.734,1.375,1.659,1.825,2.775c0.45,1.117,0.675,2.409,0.675,3.875V268.861z
		 M186.647,272.661c0.933,0,1.725-0.291,2.375-0.875c0.65-0.583,0.975-1.675,0.975-3.275v-2.75h-3.35
		c-0.934,0-1.725,0.259-2.375,0.775c-0.65,0.517-0.975,1.409-0.975,2.675c0,1.267,0.325,2.159,0.975,2.675
		C184.922,272.403,185.714,272.661,186.647,272.661z"/>
	<path class="st0" d="M208.647,272.311c0.267,0,0.492-0.008,0.675-0.025c0.183-0.016,0.425-0.058,0.725-0.125
		c0.6-0.1,1.05,0.017,1.35,0.35c0.3,0.334,0.45,0.8,0.45,1.4v1.45c0,0.6-0.142,1.025-0.425,1.275
		c-0.284,0.25-0.675,0.425-1.175,0.525c-0.467,0.1-0.909,0.158-1.325,0.175c-0.417,0.016-0.809,0.025-1.175,0.025
		c-0.967,0-1.842-0.117-2.625-0.35c-0.784-0.233-1.458-0.616-2.025-1.15c-0.567-0.533-1-1.241-1.3-2.125
		c-0.3-0.883-0.45-1.958-0.45-3.225v-27.05c0-1.2,0.6-1.8,1.8-1.8h1.8c1.2,0,1.8,0.6,1.8,1.8v26.65c0,0.867,0.2,1.45,0.6,1.75
		S208.18,272.311,208.647,272.311z"/>
	<path class="st0" d="M227.096,269.861c0-1.033,0.517-1.55,1.55-1.55h2.05c1.2,0,1.8,0.6,1.8,1.8c0,2.267-0.775,4.1-2.325,5.5
		c-1.55,1.4-3.608,2.1-6.175,2.1c-1.268,0-2.434-0.184-3.5-0.55c-1.067-0.366-1.984-0.916-2.75-1.65
		c-0.768-0.733-1.375-1.658-1.825-2.775c-0.45-1.116-0.675-2.408-0.675-3.875v-9.75c0-1.466,0.225-2.758,0.675-3.875
		c0.45-1.116,1.058-2.041,1.825-2.775c0.766-0.733,1.683-1.283,2.75-1.65c1.066-0.366,2.232-0.55,3.5-0.55
		c1.232,0,2.391,0.184,3.475,0.55c1.083,0.367,2.008,0.917,2.775,1.65c0.766,0.734,1.375,1.659,1.825,2.775
		c0.45,1.117,0.675,2.409,0.675,3.875v4.25c0,1.2-0.6,1.8-1.8,1.8h-10.3v3.35c0,1.6,0.325,2.692,0.975,3.275
		c0.65,0.584,1.441,0.875,2.375,0.875c0.966,0,1.725-0.25,2.275-0.75C226.821,271.411,227.096,270.728,227.096,269.861z
		 M220.646,261.111h6.7v-1.65c0-1.6-0.325-2.691-0.975-3.275c-0.65-0.583-1.442-0.875-2.375-0.875c-0.934,0-1.725,0.292-2.375,0.875
		c-0.65,0.584-0.975,1.675-0.975,3.275V261.111z"/>
	<path class="st0" d="M254.246,277.161h-1.8c-1.2,0-1.8-0.6-1.8-1.8v-15.9c0-1.6-0.325-2.691-0.975-3.275
		c-0.65-0.583-1.442-0.875-2.375-0.875c-0.934,0-1.725,0.292-2.375,0.875c-0.65,0.584-0.975,1.675-0.975,3.275v15.9
		c0,1.2-0.6,1.8-1.8,1.8h-1.8c-1.2,0-1.8-0.6-1.8-1.8v-16.25c0-1.466,0.225-2.758,0.675-3.875c0.45-1.116,1.058-2.041,1.825-2.775
		c0.767-0.733,1.683-1.283,2.75-1.65c1.066-0.366,2.233-0.55,3.5-0.55c1.233,0,2.392,0.184,3.475,0.55
		c1.083,0.367,2.008,0.917,2.775,1.65c0.767,0.734,1.375,1.659,1.825,2.775c0.45,1.117,0.675,2.409,0.675,3.875v16.25
		C256.045,276.561,255.445,277.161,254.246,277.161z"/>
	<path class="st0" d="M272.345,277.161c-0.5,0.1-0.958,0.158-1.375,0.175c-0.417,0.016-0.809,0.025-1.175,0.025
		c-2.4,0-4.234-0.558-5.5-1.675c-1.267-1.116-1.9-3.025-1.9-5.725v-23.8c0-1.2,0.6-1.8,1.8-1.8h1.8c1.2,0,1.8,0.6,1.8,1.8v4.65h4.3
		c1.2,0,1.8,0.6,1.8,1.8v1.45c0,1.2-0.6,1.8-1.8,1.8h-4.3v13.7c0,1.034,0.2,1.75,0.6,2.15c0.4,0.4,1.116,0.6,2.15,0.6
		c0.433,0,0.95-0.05,1.55-0.15s1.05,0.017,1.35,0.35c0.3,0.334,0.45,0.8,0.45,1.4v1.45c0,0.6-0.143,1.025-0.425,1.275
		C273.186,276.886,272.811,277.061,272.345,277.161z"/>
	<path class="st0" d="M288.995,257.611c0-0.733-0.25-1.3-0.75-1.7s-1.184-0.6-2.05-0.6c-0.867,0-1.55,0.2-2.05,0.6
		s-0.75,1.034-0.75,1.9v0.1c0,0.867,0.283,1.55,0.85,2.05c0.566,0.5,1.267,0.942,2.1,1.325c0.833,0.384,1.75,0.767,2.75,1.15
		c1,0.384,1.917,0.884,2.75,1.5c0.833,0.617,1.533,1.417,2.1,2.4c0.566,0.984,0.85,2.275,0.85,3.875c0,1.2-0.217,2.267-0.65,3.2
		c-0.434,0.934-1.025,1.717-1.775,2.35c-0.75,0.634-1.65,1.117-2.7,1.45c-1.05,0.333-2.192,0.5-3.425,0.5
		c-1.267,0-2.417-0.184-3.45-0.55s-1.925-0.858-2.675-1.475c-0.75-0.616-1.333-1.358-1.75-2.225c-0.417-0.866-0.625-1.8-0.625-2.8
		v-0.3c0-1.2,0.6-1.8,1.8-1.8h2.05c1.033,0,1.55,0.517,1.55,1.55c0,0.867,0.283,1.509,0.85,1.925
		c0.566,0.417,1.316,0.625,2.25,0.625c0.933,0,1.691-0.2,2.275-0.6c0.583-0.4,0.875-1.083,0.875-2.05v-0.1
		c0-0.866-0.284-1.541-0.85-2.025c-0.567-0.483-1.267-0.908-2.1-1.275c-0.834-0.366-1.75-0.733-2.75-1.1
		c-1-0.366-1.917-0.858-2.75-1.475c-0.834-0.616-1.534-1.408-2.1-2.375c-0.567-0.966-0.85-2.25-0.85-3.85
		c0-2.4,0.758-4.258,2.275-5.575c1.517-1.316,3.492-1.975,5.925-1.975c1.232,0,2.35,0.184,3.35,0.55
		c1,0.367,1.858,0.875,2.575,1.525c0.716,0.65,1.275,1.4,1.675,2.25c0.4,0.85,0.6,1.775,0.6,2.775c0,1.2-0.6,1.8-1.8,1.8h-2.05
		C289.511,259.161,288.995,258.644,288.995,257.611z"/>
	<path class="st0" d="M321.293,277.161c-0.5,0.1-0.958,0.158-1.375,0.175c-0.417,0.016-0.809,0.025-1.175,0.025
		c-2.4,0-4.234-0.558-5.5-1.675c-1.267-1.116-1.9-3.025-1.9-5.725v-23.8c0-1.2,0.6-1.8,1.8-1.8h1.8c1.2,0,1.8,0.6,1.8,1.8v4.65h4.3
		c1.2,0,1.8,0.6,1.8,1.8v1.45c0,1.2-0.6,1.8-1.8,1.8h-4.3v13.7c0,1.034,0.2,1.75,0.6,2.15c0.4,0.4,1.116,0.6,2.15,0.6
		c0.433,0,0.95-0.05,1.55-0.15s1.05,0.017,1.35,0.35c0.3,0.334,0.45,0.8,0.45,1.4v1.45c0,0.6-0.143,1.025-0.425,1.275
		C322.135,276.886,321.76,277.061,321.293,277.161z"/>
	<path class="st0" d="M344.643,268.861c0,1.5-0.225,2.809-0.675,3.925c-0.45,1.117-1.059,2.034-1.825,2.75
		c-0.768,0.717-1.692,1.259-2.775,1.625c-1.083,0.366-2.242,0.55-3.475,0.55c-1.268,0-2.434-0.184-3.5-0.55
		c-1.067-0.366-1.984-0.908-2.75-1.625c-0.768-0.716-1.375-1.633-1.825-2.75c-0.45-1.116-0.675-2.425-0.675-3.925v-9.75
		c0-1.466,0.225-2.758,0.675-3.875c0.45-1.116,1.058-2.041,1.825-2.775c0.766-0.733,1.683-1.283,2.75-1.65
		c1.066-0.366,2.232-0.55,3.5-0.55c1.232,0,2.391,0.184,3.475,0.55c1.083,0.367,2.008,0.917,2.775,1.65
		c0.766,0.734,1.375,1.659,1.825,2.775c0.45,1.117,0.675,2.409,0.675,3.875V268.861z M339.243,259.461
		c0-1.6-0.325-2.691-0.975-3.275c-0.65-0.583-1.442-0.875-2.375-0.875c-0.934,0-1.725,0.292-2.375,0.875
		c-0.65,0.584-0.975,1.675-0.975,3.275v9.05c0,1.6,0.325,2.692,0.975,3.275c0.65,0.584,1.441,0.875,2.375,0.875
		c0.933,0,1.725-0.291,2.375-0.875c0.65-0.583,0.975-1.675,0.975-3.275V259.461z"/>
	<path class="st0" d="M380.991,265.461c1.267,0,1.9,0.634,1.9,1.9v0.15c0,1.5-0.259,2.875-0.775,4.125
		c-0.517,1.25-1.242,2.325-2.175,3.225c-0.934,0.9-2.05,1.6-3.35,2.1c-1.3,0.5-2.717,0.75-4.25,0.75
		c-1.567,0-3.008-0.225-4.325-0.675c-1.317-0.45-2.459-1.133-3.425-2.05c-0.967-0.916-1.725-2.058-2.275-3.425
		c-0.55-1.366-0.825-2.966-0.825-4.8v-14.2c0-1.833,0.275-3.433,0.825-4.8c0.55-1.366,1.308-2.508,2.275-3.425
		c0.966-0.916,2.108-1.6,3.425-2.05c1.316-0.45,2.758-0.675,4.325-0.675c1.533,0,2.95,0.25,4.25,0.75c1.3,0.5,2.417,1.2,3.35,2.1
		c0.933,0.9,1.658,1.975,2.175,3.225c0.517,1.25,0.775,2.625,0.775,4.125v0.15c0,1.267-0.634,1.9-1.9,1.9h-2.15
		c-1.133,0-1.7-0.566-1.7-1.7c0-1.5-0.417-2.725-1.25-3.675c-0.834-0.95-2-1.425-3.5-1.425c-0.7,0-1.359,0.1-1.975,0.3
		c-0.617,0.2-1.167,0.534-1.65,1c-0.484,0.467-0.859,1.092-1.125,1.875c-0.268,0.784-0.4,1.759-0.4,2.925v13
		c0,1.167,0.133,2.142,0.4,2.925c0.266,0.784,0.641,1.409,1.125,1.875c0.482,0.467,1.033,0.8,1.65,1c0.616,0.2,1.275,0.3,1.975,0.3
		c1.5,0,2.666-0.475,3.5-1.425c0.833-0.95,1.25-2.175,1.25-3.675c0-1.133,0.566-1.7,1.7-1.7H380.991z"/>
	<path class="st0" d="M405.141,268.861c0,1.467-0.225,2.759-0.675,3.875c-0.45,1.117-1.059,2.042-1.825,2.775
		c-0.767,0.734-1.692,1.284-2.775,1.65c-1.083,0.366-2.242,0.55-3.475,0.55c-1.267,0-2.434-0.184-3.5-0.55
		c-1.067-0.366-1.992-0.883-2.775-1.55c-0.784-0.666-1.392-1.491-1.825-2.475c-0.434-0.983-0.65-2.108-0.65-3.375v-0.1
		c0-2.5,0.75-4.45,2.25-5.85c1.5-1.4,3.667-2.1,6.5-2.1h3.35v-2.25c0-1.6-0.325-2.691-0.975-3.275
		c-0.65-0.583-1.442-0.875-2.375-0.875c-0.967,0-1.684,0.259-2.15,0.775c-0.467,0.517-0.7,1.142-0.7,1.875
		c0,1.034-0.517,1.55-1.55,1.55h-2.05c-1.2,0-1.8-0.6-1.8-1.8c0-1.066,0.191-2.05,0.575-2.95c0.383-0.9,0.933-1.683,1.65-2.35
		c0.716-0.666,1.583-1.191,2.6-1.575c1.016-0.383,2.158-0.575,3.425-0.575c1.233,0,2.392,0.184,3.475,0.55
		c1.083,0.367,2.008,0.917,2.775,1.65c0.767,0.734,1.375,1.659,1.825,2.775c0.45,1.117,0.675,2.409,0.675,3.875V268.861z
		 M396.391,272.661c0.933,0,1.725-0.291,2.375-0.875c0.65-0.583,0.975-1.675,0.975-3.275v-2.75h-3.35
		c-0.934,0-1.725,0.259-2.375,0.775c-0.65,0.517-0.975,1.409-0.975,2.675c0,1.267,0.325,2.159,0.975,2.675
		C394.665,272.403,395.457,272.661,396.391,272.661z"/>
	<path class="st0" d="M426.69,277.161h-1.8c-1.2,0-1.8-0.6-1.8-1.8v-15.9c0-1.6-0.325-2.691-0.975-3.275
		c-0.65-0.583-1.442-0.875-2.375-0.875c-0.934,0-1.725,0.292-2.375,0.875c-0.65,0.584-0.975,1.675-0.975,3.275v15.9
		c0,1.2-0.6,1.8-1.8,1.8h-1.8c-1.2,0-1.8-0.6-1.8-1.8v-16.25c0-1.466,0.225-2.758,0.675-3.875c0.45-1.116,1.058-2.041,1.825-2.775
		c0.767-0.733,1.683-1.283,2.75-1.65c1.066-0.366,2.233-0.55,3.5-0.55c1.233,0,2.392,0.184,3.475,0.55
		c1.083,0.367,2.008,0.917,2.775,1.65c0.767,0.734,1.375,1.659,1.825,2.775c0.45,1.117,0.675,2.409,0.675,3.875v16.25
		C428.49,276.561,427.89,277.161,426.69,277.161z"/>
	<path class="st0" d="M451.39,268.861c0,1.467-0.225,2.759-0.675,3.875c-0.45,1.117-1.059,2.042-1.825,2.775
		c-0.767,0.734-1.692,1.284-2.775,1.65c-1.083,0.366-2.242,0.55-3.475,0.55c-1.267,0-2.434-0.184-3.5-0.55
		c-1.067-0.366-1.992-0.883-2.775-1.55c-0.784-0.666-1.392-1.491-1.825-2.475c-0.434-0.983-0.65-2.108-0.65-3.375v-0.1
		c0-2.5,0.75-4.45,2.25-5.85c1.5-1.4,3.667-2.1,6.5-2.1h3.35v-2.25c0-1.6-0.325-2.691-0.975-3.275
		c-0.65-0.583-1.442-0.875-2.375-0.875c-0.967,0-1.684,0.259-2.15,0.775c-0.467,0.517-0.7,1.142-0.7,1.875
		c0,1.034-0.517,1.55-1.55,1.55h-2.05c-1.2,0-1.8-0.6-1.8-1.8c0-1.066,0.191-2.05,0.575-2.95c0.383-0.9,0.933-1.683,1.65-2.35
		c0.716-0.666,1.583-1.191,2.6-1.575c1.016-0.383,2.158-0.575,3.425-0.575c1.233,0,2.392,0.184,3.475,0.55
		c1.083,0.367,2.008,0.917,2.775,1.65c0.767,0.734,1.375,1.659,1.825,2.775c0.45,1.117,0.675,2.409,0.675,3.875V268.861z
		 M442.64,272.661c0.933,0,1.725-0.291,2.375-0.875c0.65-0.583,0.975-1.675,0.975-3.275v-2.75h-3.35
		c-0.934,0-1.725,0.259-2.375,0.775c-0.65,0.517-0.975,1.409-0.975,2.675c0,1.267,0.325,2.159,0.975,2.675
		C440.915,272.403,441.706,272.661,442.64,272.661z"/>
	<path class="st0" d="M456.79,258.511c0-2.8,0.675-4.875,2.025-6.225s3.058-2.025,5.125-2.025c1,0,1.925,0.167,2.775,0.5
		c0.85,0.334,1.575,0.867,2.175,1.6v-8.9c0-1.2,0.6-1.8,1.8-1.8h1.8c1.2,0,1.8,0.6,1.8,1.8v25.4c0,1.5-0.225,2.809-0.675,3.925
		c-0.45,1.117-1.059,2.034-1.825,2.75c-0.768,0.717-1.692,1.259-2.775,1.625c-1.083,0.366-2.242,0.55-3.475,0.55
		c-1.268,0-2.434-0.184-3.5-0.55c-1.067-0.366-1.984-0.908-2.75-1.625c-0.768-0.716-1.375-1.633-1.825-2.75
		c-0.45-1.116-0.675-2.425-0.675-3.925V258.511z M462.19,268.511c0,1.6,0.325,2.692,0.975,3.275c0.65,0.584,1.441,0.875,2.375,0.875
		c0.933,0,1.725-0.291,2.375-0.875c0.65-0.583,0.975-1.675,0.975-3.275v-9.05c0-1.6-0.325-2.691-0.975-3.275
		c-0.65-0.583-1.442-0.875-2.375-0.875c-0.934,0-1.725,0.292-2.375,0.875c-0.65,0.584-0.975,1.675-0.975,3.275V268.511z"/>
	<path class="st0" d="M497.239,268.861c0,1.467-0.225,2.759-0.675,3.875c-0.45,1.117-1.059,2.042-1.825,2.775
		c-0.767,0.734-1.692,1.284-2.775,1.65c-1.083,0.366-2.242,0.55-3.475,0.55c-1.267,0-2.434-0.184-3.5-0.55
		c-1.067-0.366-1.992-0.883-2.775-1.55c-0.784-0.666-1.392-1.491-1.825-2.475c-0.434-0.983-0.65-2.108-0.65-3.375v-0.1
		c0-2.5,0.75-4.45,2.25-5.85c1.5-1.4,3.667-2.1,6.5-2.1h3.35v-2.25c0-1.6-0.325-2.691-0.975-3.275
		c-0.65-0.583-1.442-0.875-2.375-0.875c-0.967,0-1.684,0.259-2.15,0.775c-0.467,0.517-0.7,1.142-0.7,1.875
		c0,1.034-0.517,1.55-1.55,1.55h-2.05c-1.2,0-1.8-0.6-1.8-1.8c0-1.066,0.191-2.05,0.575-2.95c0.383-0.9,0.933-1.683,1.65-2.35
		c0.716-0.666,1.583-1.191,2.6-1.575c1.016-0.383,2.158-0.575,3.425-0.575c1.233,0,2.392,0.184,3.475,0.55
		c1.083,0.367,2.008,0.917,2.775,1.65c0.767,0.734,1.375,1.659,1.825,2.775c0.45,1.117,0.675,2.409,0.675,3.875V268.861z
		 M488.489,272.661c0.933,0,1.725-0.291,2.375-0.875c0.65-0.583,0.975-1.675,0.975-3.275v-2.75h-3.35
		c-0.934,0-1.725,0.259-2.375,0.775c-0.65,0.517-0.975,1.409-0.975,2.675c0,1.267,0.325,2.159,0.975,2.675
		C486.764,272.403,487.556,272.661,488.489,272.661z"/>
	<path class="st0" d="M509.239,275.361c0,1.2-0.6,1.8-1.8,1.8h-2.9c-1.2,0-1.8-0.6-1.8-1.8v-2.95c0-1.2,0.6-1.8,1.8-1.8h2.9
		c1.2,0,1.8,0.6,1.8,1.8V275.361z"/>
</g>
<path class="st2" d="M498.952,337.054H69.94c-36.841,0-66.707-29.866-66.707-66.707V69.94c0-36.841,29.866-66.707,66.707-66.707
	h429.012c36.841,0,66.707,29.866,66.707,66.707v200.408C565.659,307.189,535.793,337.054,498.952,337.054z"/>
</svg>