<!-- Generator: Adobe Illustrator 21.0.0, SVG Export Plug-In  -->
<svg version="1.1"
	 xmlns="http://www.w3.org/2000/svg" xmlns:xlink="http://www.w3.org/1999/xlink" xmlns:a="http://ns.adobe.com/AdobeSVGViewerExtensions/3.0/"
	 x="0px" y="0px" width="958.401px" height="350.712px" viewBox="0 0 958.401 350.712"
	 style="enable-background:new 0 0 958.401 350.712;" xml:space="preserve">
<style type="text/css">
	.st0{fill:#FFFFFF;}
</style>
<defs>
</defs>
<g>
	<g>
		<g>
			<path class="st0" d="M755.892,124.92c-1.733,0.024-3.285,0.445-4.657,1.263c-1.396,0.818-2.503,1.925-3.321,3.321
				c-0.818,1.372-1.239,2.912-1.263,4.621c0.024,1.733,0.445,3.285,1.263,4.657c0.818,1.396,1.925,2.503,3.321,3.321
				c1.372,0.818,2.924,1.239,4.657,1.263c1.709-0.024,3.249-0.445,4.621-1.263c1.396-0.818,2.503-1.925,3.321-3.321
				c0.818-1.372,1.239-2.924,1.263-4.657c-0.024-1.709-0.445-3.249-1.263-4.621c-0.818-1.396-1.925-2.503-3.321-3.321
				C759.141,125.365,757.601,124.944,755.892,124.92 M894.76,335.839c0.987-0.77,1.949-1.6,2.888-2.491H807.44
				c0.963,0.89,1.937,1.733,2.924,2.527c12.009,9.891,26.063,14.836,42.162,14.836C868.65,350.712,882.728,345.754,894.76,335.839
				 M941.254,138.781c0.818,1.396,1.913,2.503,3.285,3.321c1.396,0.818,2.948,1.239,4.657,1.263
				c1.709-0.024,3.261-0.445,4.657-1.263c1.372-0.818,2.479-1.925,3.321-3.321c0.818-1.372,1.227-2.924,1.227-4.657
				c0-1.709-0.409-3.249-1.227-4.621c-0.842-1.396-1.949-2.503-3.321-3.321c-1.396-0.818-2.948-1.239-4.657-1.263
				c-1.709,0.024-3.261,0.445-4.657,1.263c-1.372,0.818-2.467,1.925-3.285,3.321c-0.818,1.372-1.239,2.912-1.263,4.621
				C940.015,135.857,940.436,137.409,941.254,138.781 M913.315,62.651c-4.572-1.949-9.494-2.948-14.764-2.996h-92.013
				c-5.294,0.048-10.228,1.047-14.8,2.996c-4.596,1.973-8.627,4.693-12.093,8.158c-3.465,3.465-6.185,7.484-8.158,12.057
				c-1.949,4.596-2.936,9.53-2.96,14.8v72.918c0.024,5.294,1.011,10.228,2.96,14.8c1.973,4.572,4.693,8.603,8.158,12.093
				c3.465,3.465,7.496,6.185,12.093,8.158c4.332,1.853,9,2.84,14.006,2.96c0.265,0,0.529,0,0.794,0h6.389
				c1.661,0.024,3.165,0.433,4.512,1.227s2.406,1.865,3.177,3.213c0.794,1.324,1.203,2.816,1.227,4.476c0,0.048,0,0.096,0,0.144
				c-0.024,1.733-0.421,3.309-1.191,4.729c-0.024,0.024-0.048,0.06-0.072,0.108c-0.12,0.217-0.241,0.421-0.361,0.614
				c-0.072,0.096-0.144,0.18-0.217,0.253c-0.12,0.193-0.241,0.361-0.361,0.505c-0.072,0.072-0.132,0.156-0.18,0.253
				c-0.217,0.217-0.433,0.445-0.65,0.686c-0.265,0.241-0.517,0.469-0.758,0.686c-0.265,0.217-0.517,0.421-0.758,0.614
				c-0.241,0.12-0.481,0.265-0.722,0.433c-4.067,2.647-7.917,5.788-11.551,9.422c-0.65,0.65-1.275,1.3-1.877,1.949
				c-11.888,12.73-17.832,27.928-17.832,45.592c0,16.894,5.439,31.538,16.316,43.931c0.024,0.048,0.072,0.084,0.144,0.108
				c0.65,0.746,1.42,1.324,2.31,1.733c0.914,0.385,1.877,0.59,2.888,0.614l91.292-0.072c0.987,0,1.913-0.205,2.779-0.614
				c0.915-0.409,1.685-0.975,2.31-1.697l0.108-0.108c10.853-12.394,16.28-27.025,16.28-43.895c0-18.578-6.558-34.425-19.673-47.541
				c-3.61-3.61-7.436-6.726-11.479-9.349c-0.337-0.241-0.662-0.457-0.975-0.65c-0.505-0.337-0.975-0.734-1.408-1.191
				c-1.564-1.564-2.515-3.357-2.852-5.379h-0.036c0-0.048,0-0.229,0-0.541c0-0.289-0.012-0.674-0.036-1.155
				c-0.024-1.685,0.361-3.213,1.155-4.584c0.794-1.372,1.865-2.455,3.213-3.249c1.348-0.818,2.864-1.239,4.548-1.263h6.353
				c5.27-0.024,10.192-1.011,14.764-2.96c4.596-1.973,8.627-4.693,12.093-8.158c3.465-3.489,6.185-7.52,8.158-12.093
				c1.949-4.572,2.948-9.506,2.996-14.8V97.666c-0.048-5.27-1.047-10.204-2.996-14.8c-1.973-4.572-4.693-8.591-8.158-12.057
				S917.911,64.624,913.315,62.651 M919.776,134.125c0,18.578-6.57,34.413-19.709,47.505c-13.116,13.14-28.962,19.709-47.541,19.709
				c-11.503,0-21.972-2.515-31.405-7.544c-5.776-3.104-11.166-7.159-16.172-12.165c-13.067-13.091-19.601-28.926-19.601-47.505
				c0-18.578,6.534-34.437,19.601-47.577c13.14-13.067,28.999-19.601,47.577-19.601c18.578-0.024,34.425,6.51,47.541,19.601
				C913.206,99.687,919.776,115.546,919.776,134.125 M881.26,254.872c7.869,7.869,11.804,17.399,11.804,28.589
				c0,11.166-3.935,20.708-11.804,28.626c-7.942,7.893-17.495,11.84-28.662,11.84c-11.19,0-20.732-3.947-28.626-11.84
				c-7.869-7.893-11.804-17.435-11.804-28.626c0-11.166,3.935-20.696,11.804-28.589c3.08-3.104,6.425-5.595,10.035-7.472
				c5.583-2.936,11.78-4.404,18.59-4.404C863.764,242.996,873.318,246.954,881.26,254.872 M889.526,283.425
				c0-10.204-3.586-18.903-10.757-26.099c-7.268-7.244-16.003-10.865-26.207-10.865c-4.837,0-9.349,0.83-13.537,2.491
				c-4.596,1.781-8.784,4.572-12.562,8.375c-7.22,7.195-10.829,15.895-10.829,26.099c0,10.204,3.61,18.927,10.829,26.171
				c7.22,7.196,15.919,10.805,26.099,10.829c10.204-0.024,18.939-3.634,26.207-10.829
				C885.94,302.353,889.526,293.629,889.526,283.425 M862.85,277.938c0.12,0.12,0.301,0.156,0.541,0.108l4.44-0.939l-1.155,4.404
				c-0.096,0.313-0.168,0.578-0.217,0.794c-0.048,0.241-0.048,0.421,0,0.541c0.072,0.12,0.229,0.241,0.469,0.361l1.588,0.758
				l-7.689,6.462c-0.144,0.12-0.241,0.289-0.289,0.505c-0.096,0.168-0.096,0.361,0,0.578l0.65,2.31
				c-0.89-0.12-1.745-0.229-2.563-0.325c-0.866-0.096-1.709-0.205-2.527-0.325c-0.818-0.096-1.648-0.193-2.491-0.289l0.614,8.05
				h-3.104l0.541-8.05c-0.024,0-0.048,0-0.072,0c-0.866,0.096-1.721,0.193-2.563,0.289c-0.818,0.12-1.648,0.229-2.491,0.325
				c-0.818,0.096-1.672,0.205-2.563,0.325l0.722-2.31c0.024-0.217,0-0.409-0.072-0.578c-0.072-0.217-0.169-0.385-0.289-0.505
				l-7.689-6.462l1.588-0.758c0.217-0.12,0.361-0.241,0.433-0.361c0.048-0.12,0.048-0.301,0-0.541
				c-0.048-0.217-0.108-0.481-0.18-0.794l-1.191-4.404l4.476,0.939c0.193,0.048,0.361,0.012,0.505-0.108
				c0.144-0.096,0.241-0.217,0.289-0.361l0.578-2.094l3.501,4.115c0.12,0.144,0.265,0.265,0.433,0.361
				c0.168,0.072,0.325,0.072,0.469,0c0.144-0.048,0.241-0.168,0.289-0.361c0.072-0.193,0.06-0.481-0.036-0.866l-1.444-8.302
				l1.985,1.083c0.313,0.193,0.59,0.289,0.83,0.289c0.241-0.048,0.433-0.205,0.578-0.469l2.816-5.451l2.816,5.451
				c0.144,0.265,0.349,0.421,0.614,0.469c0.241,0,0.517-0.096,0.83-0.289l2.021-1.083l-1.516,8.302
				c-0.096,0.385-0.108,0.674-0.036,0.866c0.072,0.193,0.18,0.313,0.325,0.361c0.144,0.072,0.289,0.072,0.433,0
				c0.168-0.096,0.325-0.217,0.469-0.361l3.502-4.115l0.614,2.094C862.657,277.722,862.73,277.842,862.85,277.938"/>
		</g>
	</g>
	<g id="Layer0_0_1_STROKES_1_">
		<g>
			<path class="st0" d="M852.526,174.164c-4.475,0-8.364-1.604-11.56-4.766c-3.172-3.204-4.763-7.069-4.763-11.521
				c0-2.417,1.959-4.375,4.375-4.375s4.375,1.958,4.375,4.375c0,2.122,0.699,3.817,2.2,5.334c1.509,1.493,3.227,2.203,5.373,2.203
				c2.138,0,3.839-0.705,5.354-2.22c1.523-1.523,2.24-3.224,2.256-5.35c0.018-2.405,1.973-4.343,4.374-4.343
				c0.011,0,0.022,0,0.033,0c2.416,0.018,4.36,1.991,4.343,4.407c-0.033,4.447-1.654,8.307-4.819,11.472
				C860.892,172.555,857.009,174.164,852.526,174.164z M892.844,158.064c-6.613,0.042-12.354-2.301-17.04-6.929
				c-0.032-0.031-0.063-0.063-0.094-0.096c-0.533-0.559-1.047-1.127-1.527-1.688c-0.018-0.022-0.037-0.044-0.055-0.066
				c-3.56-4.325-5.365-9.414-5.365-15.126c0-5.736,1.805-10.837,5.365-15.162c0.018-0.022,0.037-0.045,0.056-0.067
				c0.479-0.559,0.992-1.126,1.524-1.684c0.028-0.03,0.057-0.059,0.086-0.088c4.658-4.628,10.359-6.975,16.945-6.975
				c6.597,0,12.281,2.353,16.893,6.994c4.673,4.674,7.047,10.391,7.047,16.982c0,6.568-2.374,12.273-7.057,16.955
				C905.043,155.724,899.395,158.064,892.844,158.064z M881.998,144.955c2.992,2.933,6.507,4.36,10.741,4.36
				c4.237,0.034,7.741-1.412,10.686-4.376c3.034-3.033,4.504-6.556,4.504-10.777c0-4.246-1.47-7.78-4.494-10.805
				c-2.96-2.978-6.455-4.422-10.696-4.422c-4.231,0-7.743,1.436-10.735,4.39c-0.401,0.423-0.787,0.849-1.147,1.269
				c-2.25,2.747-3.344,5.878-3.344,9.568c0,3.666,1.094,6.785,3.344,9.532C881.215,144.11,881.599,144.534,881.998,144.955z
				 M811.948,158.064c-0.042,0-0.083,0-0.124,0c-6.566,0-12.255-2.334-16.889-6.938c-0.055-0.055-0.109-0.111-0.161-0.168
				l-1.373-1.518c-0.042-0.046-0.082-0.093-0.122-0.14c-3.591-4.328-5.412-9.421-5.412-15.139c0-5.742,1.821-10.848,5.412-15.176
				c0.04-0.048,0.081-0.096,0.123-0.142l1.369-1.514c0.05-0.055,0.1-0.108,0.153-0.161c4.635-4.635,10.328-6.985,16.919-6.985
				c6.591,0,12.284,2.35,16.919,6.985c4.683,4.684,7.057,10.4,7.057,16.992c0,6.568-2.374,12.273-7.057,16.955
				C824.151,155.727,818.494,158.064,811.948,158.064z M801.18,144.996c2.96,2.905,6.45,4.318,10.664,4.318c0.028,0,0.056,0,0.084,0
				c4.219,0,7.697-1.435,10.648-4.386c3.024-3.024,4.494-6.546,4.494-10.768c0-4.246-1.47-7.78-4.494-10.805
				c-2.976-2.975-6.486-4.422-10.732-4.422c-4.21,0-7.698,1.423-10.658,4.349l-1.228,1.357c-2.247,2.737-3.34,5.852-3.34,9.52
				c0,3.644,1.093,6.746,3.34,9.484L801.18,144.996z"/>
		</g>
	</g>
	<g>
		<path class="st0" d="M816.862,56.081h71.293c2.328,0,4.503-1.16,5.8-3.094l7.528-11.223l-5.203-0.943
			c-0.722-0.116-1.245-0.361-1.571-0.733c-0.209-0.279-0.349-0.792-0.419-1.536c0-0.629,0-1.443,0-2.444l-0.105-13.619
			l-12.082,6.181c-0.675,0.303-1.199,0.338-1.571,0.105c-0.489-0.186-0.827-0.466-1.013-0.838l-3.457-5.413l-5.409,10.698
			c-0.721,1.426-2.883,0.72-2.625-0.856l3.075-18.782l-5.971,3.282c-0.908,0.489-1.711,0.733-2.409,0.733
			c-0.838-0.07-1.467-0.524-1.886-1.362L852.456,0l-8.381,16.238c-0.489,0.838-1.082,1.292-1.781,1.362
			c-0.768,0-1.606-0.244-2.514-0.733l-5.832-3.282l3.101,19.204c0.254,1.576-1.907,2.277-2.626,0.852l-5.539-10.977l-3.317,5.692
			c-0.256,0.349-0.605,0.617-1.048,0.803c-0.489,0.233-1.013,0.198-1.571-0.105l-12.117-6.181l-0.139,13.654
			c0.023,1.024,0.035,1.851,0.035,2.479c-0.07,0.722-0.245,1.211-0.524,1.467c-0.233,0.372-0.722,0.617-1.467,0.733l-5.168,0.978
			l7.555,10.894C812.428,54.959,814.572,56.081,816.862,56.081z"/>
	</g>
</g>
<g>
	<path class="st0" d="M30.772,106.496c0-0.76,0.38-1.14,1.14-1.14h5.13c0.919,0,1.78,0.12,2.58,0.36
		c0.8,0.239,1.49,0.614,2.07,1.125c0.58,0.51,1.035,1.154,1.365,1.935s0.495,1.721,0.495,2.82v8.52c0,1.101-0.165,2.04-0.495,2.82
		s-0.785,1.425-1.365,1.935c-0.58,0.511-1.271,0.886-2.07,1.125c-0.8,0.24-1.66,0.36-2.58,0.36h-5.13c-0.76,0-1.14-0.38-1.14-1.14
		V106.496z M40.102,111.956c0-0.699-0.085-1.265-0.255-1.694c-0.17-0.43-0.4-0.766-0.69-1.005c-0.29-0.24-0.625-0.405-1.005-0.495
		s-0.78-0.136-1.2-0.136h-2.729v14.461h2.729c0.42,0,0.82-0.046,1.2-0.136s0.715-0.255,1.005-0.495
		c0.29-0.239,0.52-0.574,0.69-1.005c0.169-0.43,0.255-0.994,0.255-1.694V111.956z"/>
	<path class="st0" d="M57.472,121.376c0,0.9-0.135,1.686-0.405,2.355s-0.635,1.22-1.095,1.65c-0.461,0.43-1.016,0.755-1.665,0.975
		c-0.65,0.22-1.346,0.33-2.085,0.33c-0.761,0-1.46-0.11-2.101-0.33s-1.19-0.545-1.649-0.975c-0.461-0.431-0.825-0.98-1.096-1.65
		c-0.27-0.67-0.404-1.455-0.404-2.355v-5.85c0-0.88,0.135-1.654,0.404-2.325c0.271-0.67,0.635-1.225,1.096-1.665
		c0.459-0.439,1.009-0.77,1.649-0.989c0.64-0.221,1.34-0.33,2.101-0.33c0.739,0,1.435,0.109,2.085,0.33
		c0.649,0.22,1.204,0.55,1.665,0.989c0.459,0.44,0.825,0.995,1.095,1.665c0.27,0.671,0.405,1.445,0.405,2.325V121.376z
		 M54.232,115.736c0-0.96-0.195-1.614-0.585-1.965c-0.39-0.35-0.865-0.525-1.425-0.525c-0.561,0-1.035,0.176-1.425,0.525
		c-0.39,0.351-0.585,1.005-0.585,1.965v5.43c0,0.96,0.195,1.616,0.585,1.966s0.865,0.524,1.425,0.524
		c0.56,0,1.035-0.175,1.425-0.524c0.39-0.35,0.585-1.006,0.585-1.966V115.736z"/>
	<path class="st0" d="M70.401,126.356h-1.08c-0.72,0-1.08-0.36-1.08-1.08v-9.54c0-0.96-0.195-1.614-0.585-1.965
		c-0.39-0.35-0.865-0.525-1.425-0.525s-1.035,0.176-1.425,0.525c-0.39,0.351-0.585,1.005-0.585,1.965v9.54
		c0,0.72-0.359,1.08-1.08,1.08h-1.08c-0.72,0-1.08-0.36-1.08-1.08v-9.75c0-0.88,0.135-1.654,0.405-2.325
		c0.271-0.67,0.635-1.225,1.095-1.665c0.46-0.439,1.01-0.77,1.65-0.989c0.64-0.221,1.34-0.33,2.1-0.33
		c0.74,0,1.435,0.109,2.085,0.33c0.649,0.22,1.204,0.55,1.665,0.989c0.46,0.44,0.825,0.995,1.095,1.665
		c0.27,0.671,0.405,1.445,0.405,2.325v9.75C71.481,125.996,71.121,126.356,70.401,126.356z"/>
	<path class="st0" d="M76.851,112.406c-0.06,0.2-0.165,0.37-0.314,0.51c-0.15,0.141-0.365,0.21-0.646,0.21h-0.78
		c-0.22,0-0.405-0.064-0.555-0.194c-0.15-0.13-0.205-0.335-0.165-0.615l0.96-5.88c0.12-0.72,0.53-1.08,1.23-1.08h1.38
		c0.319,0,0.56,0.105,0.72,0.315s0.17,0.515,0.03,0.915L76.851,112.406z"/>
	<path class="st0" d="M88.521,126.356c-0.3,0.06-0.575,0.095-0.825,0.105c-0.25,0.01-0.485,0.015-0.705,0.015
		c-1.44,0-2.541-0.335-3.3-1.005s-1.14-1.815-1.14-3.436v-14.279c0-0.721,0.36-1.08,1.08-1.08h1.08c0.72,0,1.08,0.359,1.08,1.08
		v2.79h2.58c0.72,0,1.08,0.359,1.08,1.079v0.87c0,0.721-0.36,1.08-1.08,1.08h-2.58v8.221c0,0.62,0.12,1.05,0.36,1.29
		c0.24,0.239,0.67,0.359,1.29,0.359c0.26,0,0.57-0.03,0.93-0.09s0.63,0.011,0.81,0.21c0.18,0.2,0.27,0.48,0.27,0.84v0.87
		c0,0.36-0.085,0.615-0.255,0.765C89.025,126.191,88.801,126.297,88.521,126.356z"/>
	<path class="st0" d="M98.96,111.626c0-0.72,0.36-1.079,1.08-1.079h1.08c0.72,0,1.08,0.359,1.08,1.079v9.69
		c0,0.9,0.185,1.515,0.555,1.845s0.814,0.495,1.335,0.495c0.52,0,0.965-0.165,1.335-0.495s0.555-0.944,0.555-1.845v-9.69
		c0-0.72,0.36-1.079,1.08-1.079h1.08c0.72,0,1.08,0.359,1.08,1.079v9.69c0,0.9,0.185,1.515,0.555,1.845
		c0.37,0.33,0.815,0.495,1.335,0.495s0.964-0.165,1.335-0.495c0.37-0.33,0.555-0.944,0.555-1.845v-9.69
		c0-0.72,0.36-1.079,1.08-1.079h1.08c0.72,0,1.08,0.359,1.08,1.079v10.29c0,0.801-0.12,1.496-0.36,2.085
		c-0.24,0.591-0.57,1.086-0.99,1.485c-0.42,0.4-0.915,0.7-1.485,0.9c-0.57,0.199-1.195,0.3-1.875,0.3c-0.9,0-1.685-0.19-2.355-0.57
		c-0.67-0.38-1.195-0.939-1.575-1.68c-0.38,0.74-0.905,1.3-1.575,1.68c-0.67,0.38-1.455,0.57-2.355,0.57
		c-0.68,0-1.305-0.101-1.875-0.3c-0.57-0.2-1.065-0.5-1.485-0.9c-0.42-0.399-0.75-0.895-0.99-1.485
		c-0.24-0.589-0.36-1.284-0.36-2.085V111.626z"/>
	<path class="st0" d="M130.25,121.376c0,0.9-0.135,1.686-0.405,2.355s-0.635,1.22-1.095,1.65c-0.461,0.43-1.016,0.755-1.665,0.975
		c-0.65,0.22-1.346,0.33-2.085,0.33c-0.761,0-1.46-0.11-2.101-0.33s-1.19-0.545-1.649-0.975c-0.461-0.431-0.825-0.98-1.096-1.65
		c-0.27-0.67-0.404-1.455-0.404-2.355v-5.85c0-0.88,0.135-1.654,0.404-2.325c0.271-0.67,0.635-1.225,1.096-1.665
		c0.459-0.439,1.009-0.77,1.649-0.989c0.64-0.221,1.34-0.33,2.101-0.33c0.739,0,1.435,0.109,2.085,0.33
		c0.649,0.22,1.204,0.55,1.665,0.989c0.459,0.44,0.825,0.995,1.095,1.665c0.27,0.671,0.405,1.445,0.405,2.325V121.376z
		 M127.01,115.736c0-0.96-0.195-1.614-0.585-1.965c-0.39-0.35-0.865-0.525-1.425-0.525c-0.561,0-1.035,0.176-1.425,0.525
		c-0.39,0.351-0.585,1.005-0.585,1.965v5.43c0,0.96,0.195,1.616,0.585,1.966s0.865,0.524,1.425,0.524
		c0.56,0,1.035-0.175,1.425-0.524c0.39-0.35,0.585-1.006,0.585-1.966V115.736z"/>
	<path class="st0" d="M138.949,113.427c-0.7,0-1.2,0.14-1.5,0.42s-0.45,0.77-0.45,1.47v9.96c0,0.72-0.359,1.08-1.08,1.08h-1.08
		c-0.72,0-1.08-0.36-1.08-1.08v-10.2c0-1.72,0.415-2.93,1.245-3.63c0.83-0.699,1.995-1.05,3.495-1.05
		c0.22,0,0.455,0.005,0.705,0.015c0.25,0.011,0.525,0.045,0.825,0.105c0.28,0.06,0.505,0.165,0.675,0.314
		c0.17,0.15,0.255,0.405,0.255,0.766v0.87c0,0.359-0.09,0.64-0.27,0.84c-0.18,0.2-0.45,0.27-0.81,0.21
		C139.52,113.456,139.209,113.427,138.949,113.427z"/>
	<path class="st0" d="M148.459,113.427c-0.7,0-1.2,0.14-1.5,0.42s-0.45,0.77-0.45,1.47v9.96c0,0.72-0.359,1.08-1.08,1.08h-1.08
		c-0.72,0-1.08-0.36-1.08-1.08v-10.2c0-1.72,0.415-2.93,1.245-3.63c0.83-0.699,1.995-1.05,3.495-1.05
		c0.22,0,0.455,0.005,0.705,0.015c0.25,0.011,0.525,0.045,0.825,0.105c0.28,0.06,0.505,0.165,0.675,0.314
		c0.17,0.15,0.255,0.405,0.255,0.766v0.87c0,0.359-0.09,0.64-0.27,0.84c-0.18,0.2-0.45,0.27-0.81,0.21
		C149.029,113.456,148.719,113.427,148.459,113.427z"/>
	<path class="st0" d="M160.009,111.626c0-0.72,0.36-1.079,1.08-1.079h1.08c0.72,0,1.08,0.359,1.08,1.079v14.971
		c0,0.88-0.135,1.645-0.405,2.295c-0.27,0.649-0.635,1.185-1.095,1.604c-0.461,0.42-1.016,0.735-1.665,0.945
		c-0.65,0.21-1.346,0.315-2.085,0.315c-0.801,0-1.516-0.115-2.146-0.346c-0.63-0.229-1.165-0.54-1.604-0.93
		c-0.44-0.39-0.775-0.845-1.005-1.365s-0.345-1.08-0.345-1.68c0-0.72,0.36-1.08,1.08-1.08h1.23c0.619,0,0.93,0.31,0.93,0.93
		c0,0.44,0.15,0.815,0.45,1.125c0.3,0.311,0.77,0.465,1.41,0.465c0.56,0,1.035-0.149,1.425-0.449
		c0.39-0.301,0.585-0.931,0.585-1.891v-2.67c-0.7,0.84-1.69,1.26-2.97,1.26c-1.24,0-2.265-0.404-3.075-1.215
		c-0.811-0.81-1.215-2.055-1.215-3.734v-8.551c0-0.72,0.359-1.079,1.08-1.079h1.08c0.72,0,1.08,0.359,1.08,1.079v7.98
		c0,0.96,0.195,1.615,0.585,1.965c0.39,0.351,0.865,0.525,1.425,0.525c0.56,0,1.035-0.175,1.425-0.525
		c0.39-0.35,0.585-1.005,0.585-1.965V111.626z"/>
	<path class="st0" d="M168.798,129.477c-0.06,0.199-0.165,0.37-0.315,0.51c-0.15,0.14-0.365,0.21-0.645,0.21h-0.78
		c-0.221,0-0.405-0.065-0.555-0.195s-0.206-0.335-0.165-0.614l0.96-5.88c0.12-0.721,0.53-1.08,1.23-1.08h1.38
		c0.32,0,0.56,0.104,0.72,0.314c0.16,0.21,0.169,0.516,0.03,0.915L168.798,129.477z"/>
	<path class="st0" d="M182.718,105.356h1.17c0.76,0,1.14,0.38,1.14,1.14v18.721c0,0.76-0.38,1.14-1.14,1.14h-1.17
		c-0.761,0-1.14-0.38-1.14-1.14v-18.721C181.578,105.736,181.957,105.356,182.718,105.356z"/>
	<path class="st0" d="M195.917,111.626c0-0.72,0.36-1.079,1.08-1.079h1.08c0.72,0,1.08,0.359,1.08,1.079v9.69
		c0,0.9,0.185,1.515,0.555,1.845s0.814,0.495,1.335,0.495c0.52,0,0.965-0.165,1.335-0.495s0.555-0.944,0.555-1.845v-9.69
		c0-0.72,0.36-1.079,1.08-1.079h1.08c0.72,0,1.08,0.359,1.08,1.079v9.69c0,0.9,0.185,1.515,0.555,1.845
		c0.37,0.33,0.815,0.495,1.335,0.495s0.964-0.165,1.335-0.495c0.37-0.33,0.555-0.944,0.555-1.845v-9.69
		c0-0.72,0.36-1.079,1.08-1.079h1.08c0.72,0,1.08,0.359,1.08,1.079v10.29c0,0.801-0.12,1.496-0.36,2.085
		c-0.24,0.591-0.57,1.086-0.99,1.485c-0.42,0.4-0.915,0.7-1.485,0.9c-0.57,0.199-1.195,0.3-1.875,0.3c-0.9,0-1.685-0.19-2.355-0.57
		c-0.67-0.38-1.195-0.939-1.575-1.68c-0.38,0.74-0.905,1.3-1.575,1.68c-0.67,0.38-1.455,0.57-2.355,0.57
		c-0.68,0-1.305-0.101-1.875-0.3c-0.57-0.2-1.065-0.5-1.485-0.9c-0.42-0.399-0.75-0.895-0.99-1.485
		c-0.24-0.589-0.36-1.284-0.36-2.085V111.626z"/>
	<path class="st0" d="M227.207,121.376c0,0.9-0.136,1.686-0.405,2.355c-0.271,0.67-0.635,1.22-1.095,1.65
		c-0.461,0.43-1.016,0.755-1.665,0.975c-0.65,0.22-1.346,0.33-2.085,0.33c-0.761,0-1.46-0.11-2.1-0.33s-1.19-0.545-1.65-0.975
		c-0.46-0.431-0.825-0.98-1.095-1.65s-0.405-1.455-0.405-2.355v-5.85c0-0.88,0.135-1.654,0.405-2.325
		c0.27-0.67,0.635-1.225,1.095-1.665c0.46-0.439,1.01-0.77,1.65-0.989c0.64-0.221,1.339-0.33,2.1-0.33
		c0.739,0,1.435,0.109,2.085,0.33c0.649,0.22,1.204,0.55,1.665,0.989c0.46,0.44,0.824,0.995,1.095,1.665
		c0.27,0.671,0.405,1.445,0.405,2.325V121.376z M223.967,115.736c0-0.96-0.195-1.614-0.585-1.965
		c-0.39-0.35-0.865-0.525-1.425-0.525c-0.561,0-1.035,0.176-1.425,0.525c-0.391,0.351-0.585,1.005-0.585,1.965v5.43
		c0,0.96,0.194,1.616,0.585,1.966c0.39,0.35,0.864,0.524,1.425,0.524c0.56,0,1.035-0.175,1.425-0.524
		c0.39-0.35,0.585-1.006,0.585-1.966V115.736z"/>
	<path class="st0" d="M240.137,126.356h-1.08c-0.721,0-1.08-0.36-1.08-1.08v-9.54c0-0.96-0.195-1.614-0.585-1.965
		c-0.391-0.35-0.865-0.525-1.425-0.525c-0.561,0-1.035,0.176-1.426,0.525c-0.39,0.351-0.585,1.005-0.585,1.965v9.54
		c0,0.72-0.359,1.08-1.08,1.08h-1.079c-0.721,0-1.08-0.36-1.08-1.08v-9.75c0-0.88,0.135-1.654,0.404-2.325
		c0.271-0.67,0.635-1.225,1.096-1.665c0.459-0.439,1.01-0.77,1.649-0.989c0.64-0.221,1.34-0.33,2.101-0.33
		c0.739,0,1.435,0.109,2.085,0.33c0.649,0.22,1.204,0.55,1.665,0.989c0.459,0.44,0.824,0.995,1.095,1.665
		c0.27,0.671,0.405,1.445,0.405,2.325v9.75C241.217,125.996,240.857,126.356,240.137,126.356z"/>
	<path class="st0" d="M246.587,112.406c-0.061,0.2-0.165,0.37-0.315,0.51c-0.149,0.141-0.365,0.21-0.645,0.21h-0.78
		c-0.221,0-0.405-0.064-0.555-0.194c-0.15-0.13-0.206-0.335-0.165-0.615l0.96-5.88c0.12-0.72,0.529-1.08,1.229-1.08h1.38
		c0.32,0,0.561,0.105,0.721,0.315c0.159,0.21,0.169,0.515,0.029,0.915L246.587,112.406z"/>
	<path class="st0" d="M258.257,126.356c-0.301,0.06-0.575,0.095-0.825,0.105c-0.251,0.01-0.485,0.015-0.705,0.015
		c-1.44,0-2.54-0.335-3.3-1.005c-0.761-0.67-1.141-1.815-1.141-3.436v-14.279c0-0.721,0.36-1.08,1.08-1.08h1.08
		c0.72,0,1.08,0.359,1.08,1.08v2.79h2.58c0.72,0,1.08,0.359,1.08,1.079v0.87c0,0.721-0.36,1.08-1.08,1.08h-2.58v8.221
		c0,0.62,0.12,1.05,0.36,1.29c0.239,0.239,0.67,0.359,1.29,0.359c0.26,0,0.569-0.03,0.93-0.09s0.63,0.011,0.81,0.21
		c0.181,0.2,0.271,0.48,0.271,0.84v0.87c0,0.36-0.085,0.615-0.255,0.765C258.762,126.191,258.536,126.297,258.257,126.356z"/>
	<path class="st0" d="M274.905,114.626c0-0.439-0.149-0.779-0.45-1.02c-0.3-0.24-0.71-0.36-1.229-0.36c-0.521,0-0.93,0.12-1.23,0.36
		c-0.3,0.24-0.449,0.62-0.449,1.14v0.061c0,0.521,0.169,0.93,0.51,1.229c0.34,0.301,0.76,0.565,1.26,0.795
		c0.5,0.23,1.05,0.461,1.65,0.69c0.6,0.23,1.149,0.53,1.649,0.9s0.92,0.85,1.26,1.439s0.511,1.365,0.511,2.325
		c0,0.72-0.131,1.36-0.391,1.92c-0.26,0.561-0.614,1.03-1.064,1.41s-0.99,0.67-1.62,0.87c-0.63,0.199-1.315,0.3-2.055,0.3
		c-0.761,0-1.451-0.11-2.07-0.33c-0.62-0.22-1.155-0.515-1.605-0.885c-0.449-0.37-0.8-0.814-1.05-1.335s-0.375-1.08-0.375-1.681
		v-0.18c0-0.72,0.36-1.08,1.08-1.08h1.23c0.619,0,0.93,0.311,0.93,0.93c0,0.521,0.17,0.905,0.51,1.155
		c0.34,0.251,0.79,0.375,1.351,0.375c0.56,0,1.015-0.12,1.364-0.359c0.35-0.24,0.525-0.65,0.525-1.23v-0.06
		c0-0.521-0.17-0.925-0.51-1.216c-0.341-0.289-0.761-0.544-1.261-0.765c-0.5-0.22-1.05-0.439-1.649-0.66
		c-0.601-0.22-1.15-0.515-1.65-0.885s-0.92-0.845-1.26-1.425s-0.51-1.351-0.51-2.311c0-1.439,0.454-2.555,1.365-3.345
		c0.909-0.79,2.095-1.185,3.555-1.185c0.739,0,1.41,0.109,2.01,0.33c0.6,0.22,1.115,0.524,1.545,0.915
		c0.43,0.39,0.766,0.84,1.005,1.35c0.24,0.51,0.36,1.064,0.36,1.665c0,0.72-0.36,1.08-1.08,1.08h-1.23
		C275.215,115.557,274.905,115.247,274.905,114.626z"/>
	<path class="st0" d="M288.466,121.977c0-0.62,0.31-0.93,0.93-0.93h1.23c0.72,0,1.08,0.359,1.08,1.079
		c0,1.36-0.466,2.461-1.396,3.301s-2.165,1.26-3.705,1.26c-0.76,0-1.46-0.11-2.1-0.33c-0.641-0.22-1.19-0.55-1.65-0.99
		c-0.46-0.439-0.825-0.994-1.095-1.665c-0.271-0.67-0.405-1.444-0.405-2.325v-5.85c0-0.88,0.135-1.654,0.405-2.325
		c0.27-0.67,0.635-1.225,1.095-1.665c0.46-0.439,1.01-0.77,1.65-0.989c0.64-0.221,1.34-0.33,2.1-0.33c0.74,0,1.435,0.109,2.085,0.33
		c0.649,0.22,1.205,0.55,1.665,0.989c0.46,0.44,0.825,0.995,1.095,1.665c0.271,0.671,0.405,1.445,0.405,2.325v2.55
		c0,0.721-0.36,1.08-1.08,1.08h-6.18v2.01c0,0.96,0.195,1.616,0.585,1.966s0.865,0.524,1.425,0.524c0.58,0,1.035-0.149,1.365-0.45
		C288.301,122.906,288.466,122.497,288.466,121.977z M284.596,116.727h4.02v-0.99c0-0.96-0.194-1.614-0.585-1.965
		c-0.39-0.35-0.865-0.525-1.425-0.525s-1.035,0.176-1.425,0.525c-0.39,0.351-0.585,1.005-0.585,1.965V116.727z"/>
	<path class="st0" d="M304.755,126.356h-1.08c-0.72,0-1.08-0.36-1.08-1.08v-9.54c0-0.96-0.194-1.614-0.585-1.965
		c-0.39-0.35-0.865-0.525-1.425-0.525s-1.035,0.176-1.425,0.525c-0.39,0.351-0.585,1.005-0.585,1.965v9.54
		c0,0.72-0.36,1.08-1.08,1.08h-1.08c-0.72,0-1.08-0.36-1.08-1.08v-9.75c0-0.88,0.135-1.654,0.405-2.325
		c0.27-0.67,0.635-1.225,1.095-1.665c0.46-0.439,1.01-0.77,1.65-0.989c0.64-0.221,1.34-0.33,2.1-0.33c0.74,0,1.435,0.109,2.085,0.33
		c0.649,0.22,1.205,0.55,1.665,0.989c0.46,0.44,0.825,0.995,1.095,1.665c0.271,0.671,0.405,1.445,0.405,2.325v9.75
		C305.835,125.996,305.475,126.356,304.755,126.356z"/>
	<path class="st0" d="M309.345,115.166c0-1.68,0.405-2.925,1.215-3.734c0.811-0.811,1.835-1.215,3.075-1.215
		c0.6,0,1.155,0.1,1.665,0.3s0.945,0.521,1.305,0.96v-5.34c0-0.721,0.36-1.08,1.08-1.08h1.08c0.72,0,1.08,0.359,1.08,1.08v15.239
		c0,0.9-0.135,1.686-0.405,2.355c-0.27,0.67-0.635,1.22-1.095,1.65c-0.46,0.43-1.016,0.755-1.665,0.975
		c-0.65,0.22-1.345,0.33-2.085,0.33c-0.76,0-1.46-0.11-2.1-0.33c-0.641-0.22-1.19-0.545-1.65-0.975
		c-0.46-0.431-0.825-0.98-1.095-1.65c-0.271-0.67-0.405-1.455-0.405-2.355V115.166z M312.585,121.166
		c0,0.96,0.195,1.616,0.585,1.966s0.865,0.524,1.425,0.524s1.035-0.175,1.425-0.524c0.391-0.35,0.585-1.006,0.585-1.966v-5.43
		c0-0.96-0.194-1.614-0.585-1.965c-0.39-0.35-0.865-0.525-1.425-0.525s-1.035,0.176-1.425,0.525
		c-0.39,0.351-0.585,1.005-0.585,1.965V121.166z"/>
	<path class="st0" d="M337.544,111.626c0-0.72,0.36-1.079,1.08-1.079h1.08c0.72,0,1.08,0.359,1.08,1.079v14.971
		c0,0.88-0.135,1.645-0.405,2.295c-0.27,0.649-0.635,1.185-1.095,1.604s-1.016,0.735-1.665,0.945
		c-0.65,0.21-1.346,0.315-2.085,0.315c-0.8,0-1.515-0.115-2.146-0.346c-0.63-0.229-1.165-0.54-1.604-0.93
		c-0.44-0.39-0.775-0.845-1.005-1.365c-0.23-0.521-0.346-1.08-0.346-1.68c0-0.72,0.36-1.08,1.08-1.08h1.23
		c0.619,0,0.93,0.31,0.93,0.93c0,0.44,0.15,0.815,0.45,1.125c0.3,0.311,0.77,0.465,1.41,0.465c0.56,0,1.035-0.149,1.425-0.449
		c0.39-0.301,0.585-0.931,0.585-1.891v-2.67c-0.7,0.84-1.69,1.26-2.97,1.26c-1.24,0-2.266-0.404-3.075-1.215
		c-0.81-0.81-1.215-2.055-1.215-3.734v-8.551c0-0.72,0.36-1.079,1.08-1.079h1.08c0.72,0,1.08,0.359,1.08,1.079v7.98
		c0,0.96,0.194,1.615,0.585,1.965c0.39,0.351,0.864,0.525,1.425,0.525c0.56,0,1.035-0.175,1.425-0.525
		c0.39-0.35,0.585-1.005,0.585-1.965V111.626z"/>
	<path class="st0" d="M354.974,121.376c0,0.9-0.135,1.686-0.405,2.355c-0.27,0.67-0.635,1.22-1.095,1.65
		c-0.46,0.43-1.016,0.755-1.665,0.975c-0.65,0.22-1.345,0.33-2.085,0.33c-0.76,0-1.46-0.11-2.1-0.33
		c-0.641-0.22-1.19-0.545-1.65-0.975c-0.46-0.431-0.825-0.98-1.095-1.65c-0.271-0.67-0.405-1.455-0.405-2.355v-5.85
		c0-0.88,0.135-1.654,0.405-2.325c0.27-0.67,0.635-1.225,1.095-1.665c0.46-0.439,1.01-0.77,1.65-0.989
		c0.64-0.221,1.34-0.33,2.1-0.33c0.74,0,1.435,0.109,2.085,0.33c0.649,0.22,1.205,0.55,1.665,0.989
		c0.46,0.44,0.825,0.995,1.095,1.665c0.271,0.671,0.405,1.445,0.405,2.325V121.376z M351.733,115.736
		c0-0.96-0.194-1.614-0.585-1.965c-0.39-0.35-0.865-0.525-1.425-0.525s-1.035,0.176-1.425,0.525
		c-0.39,0.351-0.585,1.005-0.585,1.965v5.43c0,0.96,0.195,1.616,0.585,1.966s0.865,0.524,1.425,0.524s1.035-0.175,1.425-0.524
		c0.391-0.35,0.585-1.006,0.585-1.966V115.736z"/>
	<path class="st0" d="M359.564,110.547h1.08c0.72,0,1.08,0.359,1.08,1.079v9.54c0,0.96,0.195,1.616,0.585,1.966
		s0.865,0.524,1.425,0.524s1.035-0.175,1.425-0.524c0.391-0.35,0.585-1.006,0.585-1.966v-9.54c0-0.72,0.36-1.079,1.08-1.079h1.08
		c0.72,0,1.08,0.359,1.08,1.079v9.75c0,0.881-0.135,1.655-0.405,2.325c-0.27,0.671-0.635,1.226-1.095,1.665
		c-0.46,0.44-1.016,0.771-1.665,0.99c-0.65,0.22-1.345,0.33-2.085,0.33c-0.76,0-1.46-0.11-2.1-0.33c-0.641-0.22-1.19-0.55-1.65-0.99
		c-0.46-0.439-0.825-0.994-1.095-1.665c-0.271-0.67-0.405-1.444-0.405-2.325v-9.75C358.483,110.906,358.844,110.547,359.564,110.547
		z"/>
	<path class="st0" d="M385.633,114.626c0-0.439-0.149-0.779-0.45-1.02c-0.3-0.24-0.71-0.36-1.229-0.36c-0.521,0-0.93,0.12-1.23,0.36
		c-0.3,0.24-0.449,0.62-0.449,1.14v0.061c0,0.521,0.169,0.93,0.51,1.229c0.34,0.301,0.76,0.565,1.26,0.795
		c0.5,0.23,1.05,0.461,1.65,0.69c0.6,0.23,1.149,0.53,1.649,0.9s0.92,0.85,1.26,1.439s0.511,1.365,0.511,2.325
		c0,0.72-0.131,1.36-0.391,1.92c-0.26,0.561-0.614,1.03-1.064,1.41s-0.99,0.67-1.62,0.87c-0.63,0.199-1.315,0.3-2.055,0.3
		c-0.761,0-1.451-0.11-2.07-0.33c-0.62-0.22-1.155-0.515-1.605-0.885c-0.449-0.37-0.8-0.814-1.05-1.335s-0.375-1.08-0.375-1.681
		v-0.18c0-0.72,0.36-1.08,1.08-1.08h1.23c0.619,0,0.93,0.311,0.93,0.93c0,0.521,0.17,0.905,0.51,1.155
		c0.34,0.251,0.79,0.375,1.351,0.375c0.56,0,1.015-0.12,1.364-0.359c0.35-0.24,0.525-0.65,0.525-1.23v-0.06
		c0-0.521-0.17-0.925-0.51-1.216c-0.341-0.289-0.761-0.544-1.261-0.765c-0.5-0.22-1.05-0.439-1.649-0.66
		c-0.601-0.22-1.15-0.515-1.65-0.885s-0.92-0.845-1.26-1.425s-0.51-1.351-0.51-2.311c0-1.439,0.454-2.555,1.365-3.345
		c0.909-0.79,2.095-1.185,3.555-1.185c0.739,0,1.41,0.109,2.01,0.33c0.6,0.22,1.115,0.524,1.545,0.915
		c0.43,0.39,0.766,0.84,1.005,1.35c0.24,0.51,0.36,1.064,0.36,1.665c0,0.72-0.36,1.08-1.08,1.08h-1.23
		C385.942,115.557,385.633,115.247,385.633,114.626z"/>
	<path class="st0" d="M402.883,121.736c0,0.84-0.109,1.57-0.33,2.19c-0.22,0.62-0.52,1.135-0.899,1.545s-0.83,0.715-1.351,0.915
		c-0.52,0.199-1.09,0.3-1.71,0.3c-1.28,0-2.27-0.42-2.97-1.26v4.92c0,0.72-0.36,1.08-1.08,1.08h-1.08c-0.72,0-1.08-0.36-1.08-1.08
		v-14.82c0-0.9,0.136-1.685,0.405-2.354c0.271-0.67,0.635-1.22,1.095-1.65c0.46-0.43,1.01-0.755,1.65-0.975
		c0.64-0.221,1.34-0.33,2.1-0.33c0.74,0,1.436,0.109,2.085,0.33c0.65,0.22,1.205,0.545,1.665,0.975
		c0.46,0.431,0.825,0.98,1.096,1.65c0.27,0.67,0.404,1.454,0.404,2.354V121.736z M399.644,115.736c0-0.96-0.195-1.614-0.585-1.965
		c-0.391-0.35-0.866-0.525-1.426-0.525s-1.035,0.176-1.425,0.525c-0.39,0.351-0.585,1.005-0.585,1.965v5.43
		c0,0.96,0.195,1.616,0.585,1.966s0.865,0.524,1.425,0.524s1.035-0.175,1.426-0.524c0.39-0.35,0.585-1.006,0.585-1.966V115.736z"/>
	<path class="st0" d="M416.353,121.376c0,0.881-0.135,1.655-0.405,2.325c-0.27,0.671-0.635,1.226-1.095,1.665
		c-0.46,0.44-1.016,0.771-1.665,0.99c-0.65,0.22-1.345,0.33-2.085,0.33c-0.76,0-1.46-0.11-2.1-0.33
		c-0.641-0.22-1.195-0.529-1.665-0.93c-0.471-0.4-0.836-0.896-1.095-1.485c-0.261-0.59-0.391-1.265-0.391-2.025v-0.06
		c0-1.5,0.45-2.67,1.351-3.51c0.899-0.84,2.199-1.26,3.899-1.26h2.01v-1.351c0-0.96-0.194-1.614-0.585-1.965
		c-0.39-0.35-0.865-0.525-1.425-0.525c-0.58,0-1.01,0.155-1.29,0.466c-0.28,0.31-0.42,0.685-0.42,1.125c0,0.62-0.311,0.93-0.93,0.93
		h-1.23c-0.72,0-1.08-0.36-1.08-1.08c0-0.64,0.115-1.23,0.346-1.771c0.229-0.54,0.56-1.009,0.989-1.409
		c0.431-0.4,0.95-0.715,1.561-0.945c0.609-0.229,1.295-0.345,2.055-0.345c0.74,0,1.435,0.109,2.085,0.33
		c0.649,0.22,1.205,0.55,1.665,0.989c0.46,0.44,0.825,0.995,1.095,1.665c0.271,0.671,0.405,1.445,0.405,2.325V121.376z
		 M411.103,123.656c0.56,0,1.035-0.175,1.425-0.524c0.391-0.35,0.585-1.006,0.585-1.966v-1.649h-2.01
		c-0.56,0-1.035,0.155-1.425,0.465c-0.39,0.311-0.585,0.845-0.585,1.605c0,0.76,0.195,1.295,0.585,1.604
		C410.067,123.502,410.543,123.656,411.103,123.656z"/>
	<path class="st0" d="M437.143,125.276c0,0.72-0.36,1.08-1.08,1.08h-1.08c-0.72,0-1.08-0.36-1.08-1.08v-9.689
		c0-0.9-0.186-1.516-0.555-1.846c-0.37-0.33-0.815-0.495-1.335-0.495c-0.521,0-0.966,0.165-1.335,0.495
		c-0.371,0.33-0.556,0.945-0.556,1.846v9.689c0,0.72-0.359,1.08-1.08,1.08h-1.079c-0.721,0-1.08-0.36-1.08-1.08v-9.689
		c0-0.9-0.186-1.516-0.556-1.846s-0.814-0.495-1.335-0.495s-0.965,0.165-1.335,0.495s-0.555,0.945-0.555,1.846v9.689
		c0,0.72-0.36,1.08-1.08,1.08h-1.08c-0.72,0-1.08-0.36-1.08-1.08v-10.29c0-0.8,0.12-1.495,0.36-2.085s0.569-1.085,0.99-1.485
		c0.42-0.399,0.914-0.699,1.484-0.899s1.195-0.3,1.875-0.3c0.9,0,1.685,0.194,2.355,0.585c0.67,0.39,1.194,0.944,1.574,1.665
		c0.38-0.721,0.905-1.275,1.575-1.665c0.67-0.391,1.455-0.585,2.355-0.585c0.68,0,1.305,0.1,1.875,0.3
		c0.569,0.2,1.064,0.5,1.484,0.899c0.421,0.4,0.75,0.896,0.99,1.485s0.36,1.285,0.36,2.085V125.276z"/>
	<path class="st0" d="M444.612,125.276c0,0.72-0.36,1.08-1.08,1.08h-1.74c-0.72,0-1.08-0.36-1.08-1.08v-1.77
		c0-0.721,0.36-1.08,1.08-1.08h1.74c0.72,0,1.08,0.359,1.08,1.08V125.276z"/>
	<path class="st0" d="M456.432,105.356h1.17c0.76,0,1.14,0.38,1.14,1.14v18.721c0,0.76-0.38,1.14-1.14,1.14h-1.17
		c-0.761,0-1.141-0.38-1.141-1.14v-18.721C455.291,105.736,455.671,105.356,456.432,105.356z"/>
	<path class="st0" d="M469.361,115.166c0-1.68,0.404-2.925,1.215-3.734c0.81-0.811,1.835-1.215,3.075-1.215
		c0.6,0,1.154,0.1,1.665,0.3c0.51,0.2,0.944,0.521,1.305,0.96v-5.34c0-0.721,0.36-1.08,1.08-1.08h1.08c0.72,0,1.08,0.359,1.08,1.08
		v15.239c0,0.9-0.136,1.686-0.405,2.355c-0.271,0.67-0.635,1.22-1.095,1.65c-0.461,0.43-1.016,0.755-1.665,0.975
		c-0.65,0.22-1.346,0.33-2.085,0.33c-0.761,0-1.461-0.11-2.101-0.33s-1.189-0.545-1.649-0.975c-0.461-0.431-0.825-0.98-1.096-1.65
		c-0.27-0.67-0.404-1.455-0.404-2.355V115.166z M472.601,121.166c0,0.96,0.195,1.616,0.585,1.966
		c0.391,0.35,0.865,0.524,1.426,0.524c0.56,0,1.034-0.175,1.425-0.524c0.39-0.35,0.585-1.006,0.585-1.966v-5.43
		c0-0.96-0.195-1.614-0.585-1.965c-0.391-0.35-0.865-0.525-1.425-0.525c-0.561,0-1.035,0.176-1.426,0.525
		c-0.39,0.351-0.585,1.005-0.585,1.965V121.166z"/>
	<path class="st0" d="M493.9,121.376c0,0.9-0.135,1.686-0.405,2.355c-0.27,0.67-0.635,1.22-1.095,1.65
		c-0.46,0.43-1.016,0.755-1.665,0.975c-0.65,0.22-1.345,0.33-2.085,0.33c-0.76,0-1.46-0.11-2.1-0.33
		c-0.641-0.22-1.19-0.545-1.65-0.975c-0.46-0.431-0.825-0.98-1.095-1.65c-0.271-0.67-0.405-1.455-0.405-2.355v-5.85
		c0-0.88,0.135-1.654,0.405-2.325c0.27-0.67,0.635-1.225,1.095-1.665c0.46-0.439,1.01-0.77,1.65-0.989
		c0.64-0.221,1.34-0.33,2.1-0.33c0.74,0,1.435,0.109,2.085,0.33c0.649,0.22,1.205,0.55,1.665,0.989
		c0.46,0.44,0.825,0.995,1.095,1.665c0.271,0.671,0.405,1.445,0.405,2.325V121.376z M490.66,115.736c0-0.96-0.194-1.614-0.585-1.965
		c-0.39-0.35-0.865-0.525-1.425-0.525s-1.035,0.176-1.425,0.525c-0.39,0.351-0.585,1.005-0.585,1.965v5.43
		c0,0.96,0.195,1.616,0.585,1.966s0.865,0.524,1.425,0.524s1.035-0.175,1.425-0.524c0.391-0.35,0.585-1.006,0.585-1.966V115.736z"/>
	<path class="st0" d="M506.83,126.356h-1.08c-0.72,0-1.08-0.36-1.08-1.08v-9.54c0-0.96-0.194-1.614-0.585-1.965
		c-0.39-0.35-0.865-0.525-1.425-0.525s-1.035,0.176-1.425,0.525c-0.39,0.351-0.585,1.005-0.585,1.965v9.54
		c0,0.72-0.36,1.08-1.08,1.08h-1.08c-0.72,0-1.08-0.36-1.08-1.08v-9.75c0-0.88,0.135-1.654,0.405-2.325
		c0.27-0.67,0.635-1.225,1.095-1.665c0.46-0.439,1.01-0.77,1.65-0.989c0.64-0.221,1.34-0.33,2.1-0.33c0.74,0,1.435,0.109,2.085,0.33
		c0.649,0.22,1.205,0.55,1.665,0.989c0.46,0.44,0.825,0.995,1.095,1.665c0.271,0.671,0.405,1.445,0.405,2.325v9.75
		C507.91,125.996,507.55,126.356,506.83,126.356z"/>
	<path class="st0" d="M513.28,112.406c-0.061,0.2-0.165,0.37-0.315,0.51c-0.149,0.141-0.365,0.21-0.645,0.21h-0.78
		c-0.221,0-0.405-0.064-0.555-0.194c-0.15-0.13-0.206-0.335-0.165-0.615l0.96-5.88c0.12-0.72,0.529-1.08,1.229-1.08h1.38
		c0.32,0,0.561,0.105,0.721,0.315c0.159,0.21,0.169,0.515,0.029,0.915L513.28,112.406z"/>
	<path class="st0" d="M524.95,126.356c-0.301,0.06-0.575,0.095-0.825,0.105c-0.251,0.01-0.485,0.015-0.705,0.015
		c-1.44,0-2.54-0.335-3.3-1.005c-0.761-0.67-1.141-1.815-1.141-3.436v-14.279c0-0.721,0.36-1.08,1.08-1.08h1.08
		c0.72,0,1.08,0.359,1.08,1.08v2.79h2.58c0.72,0,1.08,0.359,1.08,1.079v0.87c0,0.721-0.36,1.08-1.08,1.08h-2.58v8.221
		c0,0.62,0.12,1.05,0.36,1.29c0.239,0.239,0.67,0.359,1.29,0.359c0.26,0,0.569-0.03,0.93-0.09s0.63,0.011,0.81,0.21
		c0.181,0.2,0.271,0.48,0.271,0.84v0.87c0,0.36-0.085,0.615-0.255,0.765C525.455,126.191,525.23,126.297,524.95,126.356z"/>
	<path class="st0" d="M539.829,123.446c0.159,0,0.295-0.005,0.404-0.015c0.11-0.01,0.256-0.035,0.436-0.075
		c0.359-0.06,0.63,0.011,0.81,0.21c0.181,0.2,0.271,0.48,0.271,0.84v0.87c0,0.36-0.086,0.615-0.255,0.765
		c-0.171,0.15-0.405,0.256-0.705,0.315c-0.28,0.06-0.546,0.095-0.795,0.105c-0.251,0.01-0.485,0.015-0.705,0.015
		c-0.581,0-1.105-0.07-1.575-0.21c-0.471-0.14-0.875-0.37-1.215-0.69c-0.341-0.319-0.601-0.744-0.78-1.274s-0.27-1.175-0.27-1.936
		v-16.229c0-0.721,0.359-1.08,1.079-1.08h1.08c0.721,0,1.08,0.359,1.08,1.08v15.989c0,0.521,0.12,0.87,0.36,1.051
		C539.289,123.356,539.549,123.446,539.829,123.446z"/>
	<path class="st0" d="M544.238,106.437c0-0.72,0.36-1.08,1.08-1.08h1.08c0.721,0,1.08,0.36,1.08,1.08v1.02
		c0,0.721-0.359,1.08-1.08,1.08h-1.08c-0.72,0-1.08-0.359-1.08-1.08V106.437z M544.238,111.626c0-0.72,0.36-1.079,1.08-1.079h1.08
		c0.721,0,1.08,0.359,1.08,1.079v13.65c0,0.72-0.359,1.08-1.08,1.08h-1.08c-0.72,0-1.08-0.36-1.08-1.08V111.626z"/>
	<path class="st0" d="M556.148,119.637l-1.29,1.68v3.96c0,0.72-0.36,1.08-1.08,1.08h-1.08c-0.72,0-1.08-0.36-1.08-1.08v-19.17
		c0-0.72,0.36-1.08,1.08-1.08h1.08c0.72,0,1.08,0.36,1.08,1.08v10.92l3.84-5.67c0.18-0.28,0.375-0.484,0.585-0.615
		c0.21-0.13,0.515-0.194,0.915-0.194h1.53c0.379,0,0.614,0.14,0.704,0.42c0.091,0.28,0.035,0.54-0.164,0.779l-4.051,5.19l4.2,8.25
		c0.16,0.28,0.18,0.545,0.061,0.795c-0.12,0.25-0.36,0.375-0.721,0.375h-1.38c-0.4,0-0.695-0.064-0.885-0.195
		c-0.19-0.13-0.355-0.334-0.495-0.614L556.148,119.637z"/>
	<path class="st0" d="M572.229,121.977c0-0.62,0.31-0.93,0.93-0.93h1.23c0.72,0,1.08,0.359,1.08,1.079
		c0,1.36-0.466,2.461-1.396,3.301s-2.165,1.26-3.705,1.26c-0.76,0-1.46-0.11-2.1-0.33c-0.641-0.22-1.19-0.55-1.65-0.99
		c-0.46-0.439-0.825-0.994-1.095-1.665c-0.271-0.67-0.405-1.444-0.405-2.325v-5.85c0-0.88,0.135-1.654,0.405-2.325
		c0.27-0.67,0.635-1.225,1.095-1.665c0.46-0.439,1.01-0.77,1.65-0.989c0.64-0.221,1.34-0.33,2.1-0.33c0.74,0,1.435,0.109,2.085,0.33
		c0.649,0.22,1.205,0.55,1.665,0.989c0.46,0.44,0.825,0.995,1.095,1.665c0.271,0.671,0.405,1.445,0.405,2.325v2.55
		c0,0.721-0.36,1.08-1.08,1.08h-6.18v2.01c0,0.96,0.195,1.616,0.585,1.966s0.865,0.524,1.425,0.524c0.58,0,1.035-0.149,1.365-0.45
		C572.064,122.906,572.229,122.497,572.229,121.977z M568.358,116.727h4.02v-0.99c0-0.96-0.194-1.614-0.585-1.965
		c-0.39-0.35-0.865-0.525-1.425-0.525s-1.035,0.176-1.425,0.525c-0.39,0.351-0.585,1.005-0.585,1.965V116.727z"/>
	<path class="st0" d="M585.938,106.437c0-0.72,0.36-1.08,1.08-1.08h1.08c0.72,0,1.08,0.36,1.08,1.08v1.02
		c0,0.721-0.36,1.08-1.08,1.08h-1.08c-0.72,0-1.08-0.359-1.08-1.08V106.437z M585.938,111.626c0-0.72,0.36-1.079,1.08-1.079h1.08
		c0.72,0,1.08,0.359,1.08,1.079v13.65c0,0.72-0.36,1.08-1.08,1.08h-1.08c-0.72,0-1.08-0.36-1.08-1.08V111.626z"/>
	<path class="st0" d="M599.137,126.356c-0.3,0.06-0.575,0.095-0.825,0.105c-0.25,0.01-0.484,0.015-0.705,0.015
		c-1.439,0-2.54-0.335-3.3-1.005s-1.14-1.815-1.14-3.436v-14.279c0-0.721,0.359-1.08,1.08-1.08h1.08c0.72,0,1.08,0.359,1.08,1.08
		v2.79h2.58c0.72,0,1.079,0.359,1.079,1.079v0.87c0,0.721-0.359,1.08-1.079,1.08h-2.58v8.221c0,0.62,0.119,1.05,0.359,1.29
		c0.24,0.239,0.67,0.359,1.29,0.359c0.26,0,0.57-0.03,0.931-0.09c0.359-0.06,0.63,0.011,0.81,0.21c0.18,0.2,0.27,0.48,0.27,0.84
		v0.87c0,0.36-0.085,0.615-0.255,0.765C599.642,126.191,599.417,126.297,599.137,126.356z"/>
	<path class="st0" d="M616.416,121.977c0-0.62,0.31-0.93,0.93-0.93h1.23c0.72,0,1.08,0.359,1.08,1.079
		c0,1.36-0.466,2.461-1.396,3.301s-2.165,1.26-3.705,1.26c-0.76,0-1.46-0.11-2.1-0.33c-0.641-0.22-1.19-0.55-1.65-0.99
		c-0.46-0.439-0.825-0.994-1.095-1.665c-0.271-0.67-0.405-1.444-0.405-2.325v-5.85c0-0.88,0.135-1.654,0.405-2.325
		c0.27-0.67,0.635-1.225,1.095-1.665c0.46-0.439,1.01-0.77,1.65-0.989c0.64-0.221,1.34-0.33,2.1-0.33c0.74,0,1.435,0.109,2.085,0.33
		c0.649,0.22,1.205,0.55,1.665,0.989c0.46,0.44,0.825,0.995,1.095,1.665c0.271,0.671,0.405,1.445,0.405,2.325v2.55
		c0,0.721-0.36,1.08-1.08,1.08h-6.18v2.01c0,0.96,0.195,1.616,0.585,1.966s0.865,0.524,1.425,0.524c0.58,0,1.035-0.149,1.365-0.45
		C616.251,122.906,616.416,122.497,616.416,121.977z M612.546,116.727h4.02v-0.99c0-0.96-0.194-1.614-0.585-1.965
		c-0.39-0.35-0.865-0.525-1.425-0.525s-1.035,0.176-1.425,0.525c-0.39,0.351-0.585,1.005-0.585,1.965V116.727z"/>
	<path class="st0" d="M623.466,106.437c0-0.72,0.36-1.08,1.08-1.08h1.08c0.72,0,1.08,0.36,1.08,1.08v1.02
		c0,0.721-0.36,1.08-1.08,1.08h-1.08c-0.72,0-1.08-0.359-1.08-1.08V106.437z M623.466,111.626c0-0.72,0.36-1.079,1.08-1.079h1.08
		c0.72,0,1.08,0.359,1.08,1.079v13.65c0,0.72-0.36,1.08-1.08,1.08h-1.08c-0.72,0-1.08-0.36-1.08-1.08V111.626z"/>
	<path class="st0" d="M636.665,126.356c-0.3,0.06-0.575,0.095-0.825,0.105c-0.25,0.01-0.484,0.015-0.705,0.015
		c-1.439,0-2.54-0.335-3.3-1.005s-1.14-1.815-1.14-3.436v-14.279c0-0.721,0.359-1.08,1.08-1.08h1.08c0.72,0,1.08,0.359,1.08,1.08
		v2.79h2.58c0.72,0,1.079,0.359,1.079,1.079v0.87c0,0.721-0.359,1.08-1.079,1.08h-2.58v8.221c0,0.62,0.119,1.05,0.359,1.29
		c0.24,0.239,0.67,0.359,1.29,0.359c0.26,0,0.57-0.03,0.931-0.09c0.359-0.06,0.63,0.011,0.81,0.21c0.18,0.2,0.27,0.48,0.27,0.84
		v0.87c0,0.36-0.085,0.615-0.255,0.765C637.17,126.191,636.945,126.297,636.665,126.356z"/>
	<path class="st0" d="M643.865,125.276c0,0.72-0.36,1.08-1.08,1.08h-1.08c-0.72,0-1.08-0.36-1.08-1.08v-19.14
		c0-0.721,0.36-1.08,1.08-1.08h1.08c0.72,0,1.08,0.359,1.08,1.08v5.34c0.699-0.84,1.689-1.26,2.97-1.26c0.62,0,1.189,0.1,1.71,0.3
		c0.52,0.2,0.97,0.505,1.35,0.915s0.68,0.925,0.9,1.545c0.22,0.62,0.33,1.35,0.33,2.189v10.11c0,0.72-0.36,1.08-1.08,1.08h-1.08
		c-0.72,0-1.08-0.36-1.08-1.08v-9.54c0-0.96-0.195-1.614-0.585-1.965c-0.39-0.35-0.865-0.525-1.425-0.525
		c-0.561,0-1.035,0.176-1.425,0.525c-0.391,0.351-0.585,1.005-0.585,1.965V125.276z"/>
	<path class="st0" d="M661.745,121.977c0-0.62,0.31-0.93,0.93-0.93h1.23c0.72,0,1.08,0.359,1.08,1.079
		c0,1.36-0.466,2.461-1.396,3.301s-2.165,1.26-3.705,1.26c-0.76,0-1.46-0.11-2.1-0.33c-0.641-0.22-1.19-0.55-1.65-0.99
		c-0.46-0.439-0.825-0.994-1.095-1.665c-0.271-0.67-0.405-1.444-0.405-2.325v-5.85c0-0.88,0.135-1.654,0.405-2.325
		c0.27-0.67,0.635-1.225,1.095-1.665c0.46-0.439,1.01-0.77,1.65-0.989c0.64-0.221,1.34-0.33,2.1-0.33c0.74,0,1.435,0.109,2.085,0.33
		c0.649,0.22,1.205,0.55,1.665,0.989c0.46,0.44,0.825,0.995,1.095,1.665c0.271,0.671,0.405,1.445,0.405,2.325v2.55
		c0,0.721-0.36,1.08-1.08,1.08h-6.18v2.01c0,0.96,0.195,1.616,0.585,1.966s0.865,0.524,1.425,0.524c0.58,0,1.035-0.149,1.365-0.45
		C661.58,122.906,661.745,122.497,661.745,121.977z M657.875,116.727h4.02v-0.99c0-0.96-0.194-1.614-0.585-1.965
		c-0.39-0.35-0.865-0.525-1.425-0.525s-1.035,0.176-1.425,0.525c-0.39,0.351-0.585,1.005-0.585,1.965V116.727z"/>
	<path class="st0" d="M673.805,113.427c-0.7,0-1.2,0.14-1.5,0.42c-0.301,0.28-0.45,0.77-0.45,1.47v9.96c0,0.72-0.36,1.08-1.08,1.08
		h-1.08c-0.72,0-1.08-0.36-1.08-1.08v-10.2c0-1.72,0.415-2.93,1.245-3.63c0.83-0.699,1.995-1.05,3.495-1.05
		c0.22,0,0.454,0.005,0.705,0.015c0.25,0.011,0.524,0.045,0.825,0.105c0.279,0.06,0.505,0.165,0.675,0.314
		c0.17,0.15,0.255,0.405,0.255,0.766v0.87c0,0.359-0.09,0.64-0.271,0.84c-0.18,0.2-0.449,0.27-0.81,0.21
		C674.374,113.456,674.065,113.427,673.805,113.427z"/>
	<path class="st0" d="M680.315,125.276c0,0.72-0.36,1.08-1.08,1.08h-1.74c-0.72,0-1.08-0.36-1.08-1.08v-1.77
		c0-0.721,0.36-1.08,1.08-1.08h1.74c0.72,0,1.08,0.359,1.08,1.08V125.276z"/>
</g>
<g>
	<path class="st0" d="M673.906,152.871h-0.137c-1.657,0-3-1.343-3-3s1.343-3,3-3h0.137c6.108,0,11.979-1.872,16.98-5.413
		c1.354-0.958,3.225-0.637,4.182,0.715c0.958,1.352,0.638,3.224-0.715,4.182C688.334,150.617,681.264,152.871,673.906,152.871z
		 M663.788,152.871c-1.657,0-3.05-1.343-3.05-3s1.293-3,2.95-3h0.1c1.657,0,3,1.343,3,3S665.445,152.871,663.788,152.871z
		 M653.707,152.871h-19.962c-1.657,0-3-1.343-3-3s1.343-3,3-3h19.962c1.657,0,3,1.343,3,3S655.364,152.871,653.707,152.871z
		 M623.764,152.871h-0.101c-1.657,0-3-1.343-3-3s1.343-3,3-3h0.101c1.657,0,3,1.343,3,3S625.421,152.871,623.764,152.871z
		 M613.682,152.871H593.72c-1.657,0-3-1.343-3-3s1.343-3,3-3h19.962c1.657,0,3,1.343,3,3S615.339,152.871,613.682,152.871z
		 M583.738,152.871c-1.657,0-3.05-1.343-3.05-3s1.293-3,2.95-3h0.1c1.657,0,3,1.343,3,3S585.396,152.871,583.738,152.871z
		 M573.657,152.871h-19.963c-1.657,0-3-1.343-3-3s1.343-3,3-3h19.963c1.657,0,3,1.343,3,3S575.315,152.871,573.657,152.871z
		 M543.713,152.871c-1.657,0-3.05-1.343-3.05-3s1.293-3,2.95-3h0.1c1.657,0,3,1.343,3,3S545.37,152.871,543.713,152.871z
		 M533.632,152.871h-19.963c-1.657,0-3-1.343-3-3s1.343-3,3-3h19.963c1.657,0,3,1.343,3,3S535.289,152.871,533.632,152.871z
		 M503.688,152.871c-1.657,0-3.05-1.343-3.05-3s1.293-3,2.95-3h0.1c1.657,0,3,1.343,3,3S505.345,152.871,503.688,152.871z
		 M493.607,152.871h-19.963c-1.657,0-3-1.343-3-3s1.343-3,3-3h19.963c1.657,0,3,1.343,3,3S495.264,152.871,493.607,152.871z
		 M463.662,152.871c-1.657,0-3.05-1.343-3.05-3s1.293-3,2.95-3h0.1c1.657,0,3,1.343,3,3S465.319,152.871,463.662,152.871z
		 M453.581,152.871h-19.963c-1.657,0-3-1.343-3-3s1.343-3,3-3h19.963c1.657,0,3,1.343,3,3S455.238,152.871,453.581,152.871z
		 M423.637,152.871c-1.657,0-3.05-1.343-3.05-3s1.293-3,2.95-3h0.1c1.657,0,3,1.343,3,3S425.294,152.871,423.637,152.871z
		 M413.556,152.871h-19.963c-1.657,0-3-1.343-3-3s1.343-3,3-3h19.963c1.657,0,3,1.343,3,3S415.213,152.871,413.556,152.871z
		 M383.611,152.871c-1.657,0-3.05-1.343-3.05-3s1.293-3,2.95-3h0.1c1.657,0,3,1.343,3,3S385.269,152.871,383.611,152.871z
		 M373.53,152.871h-19.963c-1.657,0-3-1.343-3-3s1.343-3,3-3h19.963c1.657,0,3,1.343,3,3S375.188,152.871,373.53,152.871z
		 M343.586,152.871h-0.1c-1.657,0-3-1.343-3-3s1.343-3,3-3h0.1c1.657,0,3,1.343,3,3S345.243,152.871,343.586,152.871z
		 M333.505,152.871h-19.963c-1.657,0-3-1.343-3-3s1.343-3,3-3h19.963c1.657,0,3,1.343,3,3S335.162,152.871,333.505,152.871z
		 M303.561,152.871c-1.657,0-3.05-1.343-3.05-3s1.293-3,2.95-3h0.1c1.657,0,3,1.343,3,3S305.218,152.871,303.561,152.871z
		 M293.48,152.871h-19.963c-1.657,0-3-1.343-3-3s1.343-3,3-3h19.963c1.657,0,3,1.343,3,3S295.137,152.871,293.48,152.871z
		 M263.536,152.871c-1.657,0-3.05-1.343-3.05-3s1.293-3,2.95-3h0.1c1.657,0,3,1.343,3,3S265.192,152.871,263.536,152.871z
		 M253.455,152.871h-19.962c-1.657,0-3-1.343-3-3s1.343-3,3-3h19.962c1.657,0,3,1.343,3,3S255.111,152.871,253.455,152.871z
		 M223.511,152.871h-0.1c-1.657,0-3-1.343-3-3s1.343-3,3-3h0.1c1.657,0,3,1.343,3,3S225.168,152.871,223.511,152.871z
		 M213.429,152.871h-19.962c-1.657,0-3-1.343-3-3s1.343-3,3-3h19.962c1.657,0,3,1.343,3,3S215.086,152.871,213.429,152.871z
		 M183.485,152.871c-1.657,0-3.05-1.343-3.05-3s1.293-3,2.95-3h0.1c1.657,0,3,1.343,3,3S185.142,152.871,183.485,152.871z
		 M173.404,152.871h-19.963c-1.657,0-3-1.343-3-3s1.343-3,3-3h19.963c1.657,0,3,1.343,3,3S175.061,152.871,173.404,152.871z
		 M143.46,152.871c-1.657,0-3.05-1.343-3.05-3s1.293-3,2.95-3h0.1c1.657,0,3,1.343,3,3S145.117,152.871,143.46,152.871z
		 M133.379,152.871h-19.963c-1.657,0-3-1.343-3-3s1.343-3,3-3h19.963c1.657,0,3,1.343,3,3S135.036,152.871,133.379,152.871z
		 M103.435,152.871c-1.657,0-3.05-1.343-3.05-3s1.293-3,2.95-3h0.1c1.657,0,3,1.343,3,3S105.091,152.871,103.435,152.871z
		 M93.354,152.871H73.391c-1.657,0-3-1.343-3-3s1.343-3,3-3h19.963c1.657,0,3,1.343,3,3S95.01,152.871,93.354,152.871z
		 M63.41,152.871h-0.1c-1.657,0-3-1.343-3-3s1.343-3,3-3h0.1c1.657,0,3,1.343,3,3S65.066,152.871,63.41,152.871z M53.328,152.871
		H35.499c-0.78-0.001-1.562-0.027-2.326-0.076c-1.653-0.108-2.907-1.536-2.799-3.189c0.108-1.652,1.528-2.887,3.188-2.799
		c0.638,0.042,1.291,0.063,1.94,0.064h17.825c1.657,0,3,1.343,3,3S54.985,152.871,53.328,152.871z M23.668,150.633
		c-0.381,0-0.769-0.073-1.144-0.228c-1.531-0.633-2.307-2.405-1.675-3.937c0.633-1.531,2.341-2.276,3.872-1.647
		c0.021,0.009,0.085,0.034,0.092,0.037c1.531,0.633,2.261,2.387,1.628,3.918C25.964,149.934,24.847,150.633,23.668,150.633z
		 M15.008,145.557c-0.667,0-1.337-0.221-1.894-0.675c-5.727-4.671-9.809-10.866-11.802-17.918c-0.451-1.595,0.476-3.252,2.07-3.703
		c1.597-0.45,3.252,0.478,3.703,2.07c1.657,5.86,5.053,11.013,9.821,14.9c1.284,1.047,1.476,2.938,0.429,4.221
		C16.742,145.18,15.878,145.557,15.008,145.557z M699.771,140.001c-0.644,0-1.292-0.206-1.84-0.632
		c-1.308-1.018-1.543-2.902-0.526-4.21l2.368,1.842l-2.346-1.87c0.997-1.315,2.878-1.589,4.197-0.598
		c1.32,0.99,1.602,2.849,0.62,4.175c-0.015,0.019-0.089,0.116-0.104,0.135C701.549,139.604,700.664,140.001,699.771,140.001z
		 M704.56,131.178c-0.334,0-0.673-0.057-1.005-0.175c-1.562-0.555-2.377-2.271-1.821-3.831c1.12-3.151,1.688-6.454,1.688-9.816
		c0-2.71-0.372-5.399-1.106-7.992c-0.451-1.595,0.476-3.253,2.069-3.704c1.597-0.448,3.253,0.475,3.704,2.069
		c0.885,3.125,1.333,6.364,1.333,9.627c0,4.049-0.685,8.028-2.036,11.826C706.949,130.411,705.793,131.178,704.56,131.178z
		 M3.002,119.282c-0.045,0-0.089-0.001-0.135-0.003c-1.655-0.073-2.938-1.474-2.865-3.129c0.073-1.646,1.447-2.97,3.109-2.916
		c1.647,0.061,2.939,1.389,2.89,3.036c0,0.015-0.004,0.129-0.005,0.144C5.926,118.024,4.598,119.282,3.002,119.282z M4.884,109.427
		c-0.337,0-0.68-0.058-1.016-0.178c-1.559-0.562-2.368-2.28-1.807-3.839c2.482-6.899,6.979-12.8,13.001-17.062
		c1.352-0.956,3.225-0.637,4.182,0.717c0.957,1.353,0.637,3.225-0.716,4.182c-5.015,3.548-8.757,8.457-10.822,14.194
		C7.267,108.665,6.114,109.427,4.884,109.427z M701.067,102.52c-0.966,0-1.916-0.465-2.498-1.322
		c-0.022-0.034-0.1-0.151-0.121-0.186c-0.874-1.407-0.441-3.257,0.967-4.131c1.406-0.876,3.256-0.441,4.131,0.967
		c0.931,1.371,0.567,3.227-0.804,4.157C702.229,102.354,701.646,102.52,701.067,102.52z M694.301,95.079
		c-0.663,0-1.33-0.219-1.886-0.668c-4.774-3.865-10.513-6.116-16.594-6.511c-1.653-0.107-2.906-1.535-2.8-3.188
		c0.108-1.653,1.535-2.897,3.188-2.8c7.327,0.477,14.236,3.186,19.98,7.835c1.288,1.043,1.486,2.932,0.444,4.22
		C696.042,94.699,695.175,95.079,694.301,95.079z M25.713,89.353c-1.265,0-2.446-0.8-2.86-2.063
		c-0.513-1.568,0.323-3.253,1.889-3.774l0.162-0.052c1.584-0.489,3.263,0.401,3.75,1.985c0.487,1.583-0.401,3.262-1.985,3.749
		l-0.882-2.867l0.848,2.878C26.33,89.306,26.019,89.353,25.713,89.353z M666.036,87.84h-0.1c-1.657,0-3-1.343-3-3s1.343-3,3-3
		s3.05,1.343,3.05,3S667.693,87.84,666.036,87.84z M655.955,87.84h-19.963c-1.657,0-3-1.343-3-3s1.343-3,3-3h19.963
		c1.657,0,3,1.343,3,3S657.612,87.84,655.955,87.84z M626.011,87.84h-0.1c-1.657,0-3-1.343-3-3s1.343-3,3-3s3.05,1.343,3.05,3
		S627.668,87.84,626.011,87.84z M615.93,87.84h-19.963c-1.657,0-3-1.343-3-3s1.343-3,3-3h19.963c1.657,0,3,1.343,3,3
		S617.587,87.84,615.93,87.84z M585.985,87.84h-0.1c-1.657,0-3-1.343-3-3s1.343-3,3-3s3.05,1.343,3.05,3
		S587.643,87.84,585.985,87.84z M575.904,87.84h-19.963c-1.657,0-3-1.343-3-3s1.343-3,3-3h19.963c1.657,0,3,1.343,3,3
		S577.562,87.84,575.904,87.84z M545.96,87.84h-0.1c-1.657,0-3-1.343-3-3s1.343-3,3-3s3.05,1.343,3.05,3S547.617,87.84,545.96,87.84
		z M535.879,87.84h-19.963c-1.657,0-3-1.343-3-3s1.343-3,3-3h19.963c1.657,0,3,1.343,3,3S537.536,87.84,535.879,87.84z
		 M505.936,87.84h-0.101c-1.657,0-3-1.343-3-3s1.343-3,3-3h0.101c1.657,0,3,1.343,3,3S507.593,87.84,505.936,87.84z M495.854,87.84
		h-19.962c-1.657,0-3-1.343-3-3s1.343-3,3-3h19.962c1.657,0,3,1.343,3,3S497.511,87.84,495.854,87.84z M465.91,87.84h-0.101
		c-1.657,0-3-1.343-3-3s1.343-3,3-3h0.101c1.657,0,3,1.343,3,3S467.567,87.84,465.91,87.84z M455.829,87.84h-19.963
		c-1.657,0-3-1.343-3-3s1.343-3,3-3h19.963c1.657,0,3,1.343,3,3S457.486,87.84,455.829,87.84z M425.885,87.84h-0.1
		c-1.657,0-3-1.343-3-3s1.343-3,3-3s3.05,1.343,3.05,3S427.542,87.84,425.885,87.84z M415.804,87.84h-19.963c-1.657,0-3-1.343-3-3
		s1.343-3,3-3h19.963c1.657,0,3,1.343,3,3S417.461,87.84,415.804,87.84z M385.859,87.84h-0.1c-1.657,0-3-1.343-3-3s1.343-3,3-3
		s3.05,1.343,3.05,3S387.517,87.84,385.859,87.84z M375.778,87.84h-19.963c-1.657,0-3-1.343-3-3s1.343-3,3-3h19.963
		c1.657,0,3,1.343,3,3S377.436,87.84,375.778,87.84z M345.834,87.84h-0.1c-1.657,0-3-1.343-3-3s1.343-3,3-3s3.05,1.343,3.05,3
		S347.491,87.84,345.834,87.84z M335.753,87.84H315.79c-1.657,0-3-1.343-3-3s1.343-3,3-3h19.963c1.657,0,3,1.343,3,3
		S337.41,87.84,335.753,87.84z M305.809,87.84h-0.1c-1.657,0-3-1.343-3-3s1.343-3,3-3s3.05,1.343,3.05,3
		S307.465,87.84,305.809,87.84z M295.728,87.84h-19.963c-1.657,0-3-1.343-3-3s1.343-3,3-3h19.963c1.657,0,3,1.343,3,3
		S297.384,87.84,295.728,87.84z M265.784,87.84h-0.1c-1.657,0-3-1.343-3-3s1.343-3,3-3h0.1c1.657,0,3,1.343,3,3
		S267.44,87.84,265.784,87.84z M255.702,87.84H235.74c-1.657,0-3-1.343-3-3s1.343-3,3-3h19.962c1.657,0,3,1.343,3,3
		S257.359,87.84,255.702,87.84z M225.758,87.84h-0.1c-1.657,0-3-1.343-3-3s1.343-3,3-3h0.1c1.657,0,3,1.343,3,3
		S227.415,87.84,225.758,87.84z M215.677,87.84h-19.963c-1.657,0-3-1.343-3-3s1.343-3,3-3h19.963c1.657,0,3,1.343,3,3
		S217.334,87.84,215.677,87.84z M185.733,87.84h-0.1c-1.657,0-3-1.343-3-3s1.343-3,3-3s3.05,1.343,3.05,3
		S187.39,87.84,185.733,87.84z M175.652,87.84h-19.963c-1.657,0-3-1.343-3-3s1.343-3,3-3h19.963c1.657,0,3,1.343,3,3
		S177.309,87.84,175.652,87.84z M145.708,87.84h-0.1c-1.657,0-3-1.343-3-3s1.343-3,3-3s3.05,1.343,3.05,3
		S147.364,87.84,145.708,87.84z M135.627,87.84h-19.963c-1.657,0-3-1.343-3-3s1.343-3,3-3h19.963c1.657,0,3,1.343,3,3
		S137.283,87.84,135.627,87.84z M105.683,87.84h-0.1c-1.657,0-3-1.343-3-3s1.343-3,3-3h0.1c1.657,0,3,1.343,3,3
		S107.339,87.84,105.683,87.84z M95.601,87.84H75.639c-1.657,0-3-1.343-3-3s1.343-3,3-3h19.962c1.657,0,3,1.343,3,3
		S97.258,87.84,95.601,87.84z M65.657,87.84h-0.1c-1.657,0-3-1.343-3-3s1.343-3,3-3c1.657,0,3.05,1.343,3.05,3
		S67.314,87.84,65.657,87.84z M55.576,87.84H35.613c-1.657,0-3-1.343-3-3s1.343-3,3-3h19.963c1.657,0,3,1.343,3,3
		S57.233,87.84,55.576,87.84z"/>
</g>
<g>
	<path class="st0" d="M633.059,77.628c-0.787,0-1.573-0.308-2.161-0.919c-1.148-1.193-1.114-3.091,0.078-4.24
		c0.241-0.232,6.039-5.781,16.497-12.38c1.402-0.885,3.255-0.464,4.138,0.937c0.884,1.401,0.465,3.254-0.937,4.138
		c-9.894,6.243-15.48,11.574-15.536,11.627C634.556,77.35,633.807,77.628,633.059,77.628z M657.782,60.552
		c-1.078,0-2.127-0.564-2.664-1.57c-0.779-1.462-0.271-3.256,1.191-4.036l0.088-0.047c1.466-0.779,3.28-0.225,4.06,1.235
		c0.779,1.462,0.227,3.279-1.235,4.06C658.766,60.436,658.272,60.552,657.782,60.552z M666.793,56.143
		c-1.147,0-2.242-0.662-2.741-1.777c-0.676-1.513,0.003-3.286,1.516-3.963c6.263-2.799,12.724-5.141,19.205-6.96
		c1.592-0.445,3.251,0.482,3.699,2.078c0.447,1.595-0.482,3.251-2.078,3.699c-6.199,1.74-12.383,3.981-18.379,6.661
		C667.617,56.059,667.202,56.143,666.793,56.143z M773.854,55.963c-0.401,0-0.809-0.081-1.2-0.253
		c-1.51-0.66-2.25-2.435-1.602-3.949c0.649-1.515,2.354-2.245,3.872-1.604c0.014,0.006,0.12,0.051,0.134,0.058
		c1.519,0.664,2.21,2.433,1.546,3.95C776.111,55.291,775.01,55.963,773.854,55.963z M764.446,52.299
		c-0.33,0-0.666-0.055-0.995-0.171c-6.243-2.194-12.588-3.936-18.856-5.176c-1.626-0.322-2.683-1.9-2.361-3.525
		c0.322-1.625,1.895-2.682,3.525-2.361c6.548,1.296,13.17,3.113,19.683,5.402c1.562,0.549,2.385,2.262,1.835,3.825
		C766.843,51.526,765.685,52.299,764.446,52.299z M695.3,47c-1.386,0-2.63-0.968-2.93-2.378c-0.344-1.621,0.693-3.214,2.314-3.558
		c0.033-0.007,0.164-0.033,0.198-0.039c1.629-0.291,3.188,0.8,3.476,2.433c0.288,1.632-0.801,3.188-2.433,3.476
		C695.716,46.979,695.507,47,695.3,47z M735.309,45.441c-0.117,0-0.235-0.007-0.354-0.021l-0.1-0.012
		c-1.646-0.193-2.822-1.685-2.629-3.33s1.684-2.821,3.33-2.629l0.1,0.012c1.646,0.193,2.822,1.685,2.629,3.33
		C738.105,44.318,736.809,45.441,735.309,45.441z M705.273,45.413c-1.499,0-2.794-1.121-2.976-2.646
		c-0.195-1.646,0.98-3.138,2.626-3.333c6.762-0.802,13.686-1.066,20.436-0.796c1.655,0.067,2.943,1.464,2.876,3.119
		c-0.065,1.655-1.465,2.943-3.118,2.877c-6.437-0.266-13.038-0.008-19.486,0.759C705.511,45.406,705.392,45.413,705.273,45.413z"/>
</g>
</svg>