<!-- Generator: Adobe Illustrator 21.0.0, SVG Export Plug-In  -->
<svg version="1.1"
	 xmlns="http://www.w3.org/2000/svg" xmlns:xlink="http://www.w3.org/1999/xlink" xmlns:a="http://ns.adobe.com/AdobeSVGViewerExtensions/3.0/"
	 x="0px" y="0px" width="423.012px" height="135.529px" viewBox="0 0 423.012 135.529"
	 style="enable-background:new 0 0 423.012 135.529;" xml:space="preserve">
<style type="text/css">
	.st0{fill:none;stroke:#FFFFFF;stroke-miterlimit:10;}
	.st1{fill:#3F3F3F;}
	.st2{fill:#FFFFFF;}
	.st3{font-family:'TitilliumWeb-Bold';}
	.st4{font-size:18px;}
</style>
<defs>
</defs>
<path class="st0" d="M392.512,60.5H49c-16.5,0-30-13.5-30-30v0c0-16.5,13.5-30,30-30h343.511c16.5,0,30,13.5,30,30v0
	C422.512,47,409.012,60.5,392.512,60.5z"/>
<path class="st0" d="M392.512,135.029H49c-16.5,0-30-13.5-30-30v0c0-16.5,13.5-30,30-30h343.511c16.5,0,30,13.5,30,30v0
	C422.512,121.529,409.012,135.029,392.512,135.029z"/>
<g>
	<path class="st1" d="M69.439,40.924v-21h1.08v21H69.439z"/>
	<path class="st1" d="M75.169,25.114l1.2-6h1.14l-1.47,6H75.169z"/>
	<path class="st1" d="M81.559,40.924v-21.9h1.05v21.9H81.559z"/>
	<path class="st1" d="M87.708,40.924v-21.9h1.05v21.9H87.708z"/>
	<path class="st1" d="M110.238,30.334v8.64c0.08,0.72,0.83,1.14,2.25,1.26l-0.06,0.93c-1.46,0-2.49-0.42-3.09-1.26
		c-2.04,0.86-4.061,1.29-6.06,1.29c-1.24,0-2.205-0.37-2.895-1.11c-0.69-0.74-1.035-1.795-1.035-3.165c0-1.37,0.33-2.415,0.99-3.135
		c0.66-0.72,1.71-1.15,3.15-1.29l5.7-0.6v-1.56c0-1.28-0.275-2.21-0.825-2.79c-0.55-0.58-1.385-0.87-2.505-0.87
		c-1.14,0-2.72,0.13-4.74,0.39l-0.93,0.12l-0.09-0.99c2.24-0.36,4.16-0.54,5.76-0.54C108.777,25.654,110.238,27.214,110.238,30.334z
		 M101.178,34.414c-0.48,0.54-0.72,1.35-0.72,2.43s0.245,1.916,0.735,2.505c0.49,0.59,1.174,0.885,2.055,0.885
		c0.88,0,1.81-0.105,2.79-0.315s1.75-0.415,2.31-0.615l0.84-0.3v-6.15l-5.58,0.57C102.468,33.544,101.658,33.874,101.178,34.414z"/>
	<path class="st1" d="M119.418,26.614c-2.681,0-4.02,1-4.02,3c0,0.94,0.28,1.605,0.84,1.995c0.56,0.39,1.8,0.735,3.72,1.035
		c1.92,0.3,3.259,0.7,4.02,1.2c0.76,0.5,1.14,1.505,1.14,3.015c0,1.51-0.48,2.61-1.44,3.3s-2.38,1.035-4.26,1.035
		c-1.02,0-2.38-0.12-4.08-0.36l-0.87-0.12l0.12-0.99c2.16,0.34,3.88,0.51,5.16,0.51c1.279,0,2.31-0.25,3.09-0.75
		c0.78-0.5,1.17-1.35,1.17-2.55c0-1.2-0.305-1.99-0.915-2.37c-0.61-0.38-1.86-0.715-3.75-1.005c-1.89-0.29-3.205-0.68-3.945-1.17
		c-0.74-0.49-1.11-1.314-1.11-2.475s0.27-2.055,0.81-2.685c0.54-0.63,1.17-1.05,1.89-1.26s1.47-0.315,2.25-0.315
		c1.62,0,3.14,0.11,4.56,0.33l0.78,0.12l-0.06,0.99C122.478,26.774,120.778,26.614,119.418,26.614z"/>
	<path class="st1" d="M130.008,40.924h-1.05v-21.9h1.05v13.23h2.88l5.16-6.33h1.26l-5.52,6.78l5.76,8.22h-1.26l-5.4-7.71h-2.88
		V40.924z"/>
	<path class="st1" d="M158.837,40.053c-1.46,0.76-3.13,1.14-5.01,1.14c-1.88,0-3.225-0.604-4.035-1.815
		c-0.81-1.21-1.215-3.175-1.215-5.895c0-2.72,0.5-4.705,1.5-5.955c1-1.25,2.779-1.875,5.34-1.875l4.47,0.27v21.9h-1.05V40.053z
		 M155.447,26.614c-2.24,0-3.76,0.545-4.56,1.635c-0.8,1.09-1.2,2.825-1.2,5.205c0,2.38,0.315,4.105,0.945,5.175
		c0.63,1.07,1.745,1.605,3.345,1.605c0.799,0,1.605-0.1,2.415-0.3c0.81-0.199,1.425-0.399,1.845-0.6l0.6-0.3v-12.24
		C157.277,26.674,156.147,26.614,155.447,26.614z"/>
	<path class="st1" d="M174.317,25.924h1.05v15h-1.05v-1.2c-0.18,0.101-0.42,0.235-0.72,0.405c-0.3,0.17-0.885,0.39-1.755,0.66
		c-0.87,0.27-1.685,0.405-2.445,0.405c-2,0-3.32-0.505-3.96-1.515c-0.641-1.01-0.96-2.995-0.96-5.955v-7.8h1.05v7.74
		c0,2.64,0.24,4.395,0.72,5.265c0.48,0.87,1.53,1.305,3.15,1.305c0.799,0,1.609-0.125,2.43-0.375c0.82-0.25,1.44-0.495,1.86-0.735
		l0.63-0.39V25.924z"/>
	<path class="st1" d="M189.707,40.024l0.9-0.06l0.06,0.96c-2.24,0.18-4.09,0.27-5.55,0.27c-2.12-0.02-3.59-0.665-4.41-1.935
		c-0.82-1.27-1.23-3.215-1.23-5.835c0-5.18,2.02-7.77,6.06-7.77c1.9,0,3.325,0.57,4.275,1.71c0.95,1.14,1.425,2.97,1.425,5.49v0.99
		h-10.65c0,2.16,0.34,3.765,1.02,4.815c0.68,1.05,1.81,1.575,3.39,1.575S188.146,40.164,189.707,40.024z M180.586,32.884h9.54
		c0-2.26-0.365-3.87-1.095-4.83c-0.73-0.96-1.895-1.44-3.495-1.44C182.236,26.614,180.586,28.704,180.586,32.884z"/>
	<path class="st1" d="M199.457,26.614c-2.681,0-4.02,1-4.02,3c0,0.94,0.28,1.605,0.84,1.995c0.56,0.39,1.8,0.735,3.72,1.035
		c1.92,0.3,3.259,0.7,4.02,1.2c0.76,0.5,1.14,1.505,1.14,3.015c0,1.51-0.48,2.61-1.44,3.3s-2.38,1.035-4.26,1.035
		c-1.02,0-2.38-0.12-4.08-0.36l-0.87-0.12l0.12-0.99c2.16,0.34,3.88,0.51,5.16,0.51c1.279,0,2.31-0.25,3.09-0.75
		c0.78-0.5,1.17-1.35,1.17-2.55c0-1.2-0.305-1.99-0.915-2.37c-0.61-0.38-1.86-0.715-3.75-1.005c-1.89-0.29-3.205-0.68-3.945-1.17
		c-0.74-0.49-1.11-1.314-1.11-2.475s0.27-2.055,0.81-2.685c0.54-0.63,1.17-1.05,1.89-1.26s1.47-0.315,2.25-0.315
		c1.62,0,3.14,0.11,4.56,0.33l0.78,0.12l-0.06,0.99C202.517,26.774,200.816,26.614,199.457,26.614z"/>
	<path class="st1" d="M216.376,26.884h-5.46v7.86c0,2.3,0.165,3.795,0.495,4.485s1.084,1.035,2.265,1.035l2.94-0.24l0.09,0.96
		c-1.32,0.16-2.33,0.24-3.03,0.24c-1.42,0-2.41-0.364-2.97-1.095c-0.56-0.73-0.84-2.145-0.84-4.245v-9h-2.37v-0.96h2.37v-4.89h1.05
		v4.89h5.46V26.884z"/>
	<path class="st1" d="M219.256,21.574v-1.65h1.05v1.65H219.256z M219.256,40.924v-15h1.05v15H219.256z"/>
	<path class="st1" d="M225.856,27.334c0.919-1.12,2.49-1.68,4.71-1.68c2.22,0,3.79,0.56,4.71,1.68c0.919,1.12,1.38,3.14,1.38,6.06
		s-0.41,4.95-1.23,6.09c-0.82,1.14-2.44,1.71-4.86,1.71c-2.42,0-4.041-0.57-4.86-1.71c-0.82-1.14-1.23-3.17-1.23-6.09
		S224.936,28.454,225.856,27.334z M227.911,39.888c0.65,0.23,1.535,0.345,2.655,0.345c1.12,0,2.005-0.115,2.655-0.345
		c0.65-0.229,1.15-0.66,1.5-1.29c0.35-0.63,0.575-1.339,0.675-2.13c0.1-0.79,0.15-1.895,0.15-3.315c0-2.52-0.35-4.24-1.05-5.16
		c-0.7-0.919-2.01-1.38-3.93-1.38s-3.23,0.46-3.93,1.38c-0.7,0.92-1.05,2.64-1.05,5.16c0,1.42,0.049,2.525,0.15,3.315
		c0.1,0.791,0.325,1.5,0.675,2.13C226.76,39.229,227.261,39.659,227.911,39.888z"/>
	<path class="st1" d="M241.875,40.924h-1.05v-15h1.05v1.2c1.78-0.98,3.6-1.47,5.46-1.47c1.86,0,3.11,0.505,3.75,1.515
		c0.64,1.01,0.96,2.995,0.96,5.955v7.8h-1.05v-7.74c0-2.64-0.24-4.395-0.72-5.265s-1.53-1.305-3.15-1.305
		c-0.8,0-1.635,0.125-2.505,0.375c-0.87,0.25-1.545,0.495-2.025,0.735l-0.72,0.39V40.924z"/>
	<path class="st1" d="M260.925,26.614c-2.681,0-4.02,1-4.02,3c0,0.94,0.28,1.605,0.84,1.995c0.56,0.39,1.8,0.735,3.72,1.035
		c1.92,0.3,3.259,0.7,4.02,1.2c0.76,0.5,1.14,1.505,1.14,3.015c0,1.51-0.48,2.61-1.44,3.3s-2.38,1.035-4.26,1.035
		c-1.02,0-2.38-0.12-4.08-0.36l-0.87-0.12l0.12-0.99c2.16,0.34,3.88,0.51,5.16,0.51c1.279,0,2.31-0.25,3.09-0.75
		c0.78-0.5,1.17-1.35,1.17-2.55c0-1.2-0.305-1.99-0.915-2.37c-0.61-0.38-1.86-0.715-3.75-1.005c-1.89-0.29-3.205-0.68-3.945-1.17
		c-0.74-0.49-1.11-1.314-1.11-2.475s0.27-2.055,0.81-2.685c0.54-0.63,1.17-1.05,1.89-1.26s1.47-0.315,2.25-0.315
		c1.62,0,3.14,0.11,4.56,0.33l0.78,0.12l-0.06,0.99C263.985,26.774,262.285,26.614,260.925,26.614z"/>
	<path class="st1" d="M287.025,30.334v8.64c0.08,0.72,0.83,1.14,2.25,1.26l-0.06,0.93c-1.46,0-2.49-0.42-3.09-1.26
		c-2.04,0.86-4.061,1.29-6.06,1.29c-1.24,0-2.205-0.37-2.895-1.11c-0.69-0.74-1.035-1.795-1.035-3.165c0-1.37,0.33-2.415,0.99-3.135
		c0.66-0.72,1.71-1.15,3.15-1.29l5.7-0.6v-1.56c0-1.28-0.275-2.21-0.825-2.79c-0.55-0.58-1.385-0.87-2.505-0.87
		c-1.14,0-2.72,0.13-4.74,0.39l-0.93,0.12l-0.09-0.99c2.24-0.36,4.16-0.54,5.76-0.54C285.564,25.654,287.025,27.214,287.025,30.334z
		 M277.965,34.414c-0.48,0.54-0.72,1.35-0.72,2.43s0.245,1.916,0.735,2.505c0.49,0.59,1.174,0.885,2.055,0.885
		c0.88,0,1.81-0.105,2.79-0.315s1.75-0.415,2.31-0.615l0.84-0.3v-6.15l-5.58,0.57C279.255,33.544,278.445,33.874,277.965,34.414z"/>
	<path class="st1" d="M292.935,26.854c1.66-0.8,3.424-1.2,5.295-1.2c1.87,0,3.165,0.581,3.885,1.74c0.72,1.16,1.08,3.15,1.08,5.97
		s-0.47,4.83-1.41,6.03c-0.94,1.2-2.75,1.8-5.43,1.8c-1.4,0-2.67-0.07-3.81-0.21l-0.66-0.06v-21.9h1.05V26.854z M292.935,40.053
		c1.56,0.12,2.825,0.18,3.795,0.18c0.97,0,1.84-0.13,2.61-0.39c0.77-0.26,1.355-0.709,1.755-1.35c0.4-0.64,0.665-1.354,0.795-2.145
		c0.129-0.79,0.195-1.845,0.195-3.165c0-2.359-0.27-4.044-0.81-5.055c-0.54-1.01-1.6-1.515-3.18-1.515c-0.8,0-1.63,0.101-2.49,0.3
		c-0.86,0.2-1.52,0.4-1.98,0.6l-0.69,0.3V40.053z"/>
	<path class="st1" d="M308.145,27.334c0.919-1.12,2.49-1.68,4.71-1.68c2.22,0,3.79,0.56,4.71,1.68c0.919,1.12,1.38,3.14,1.38,6.06
		s-0.41,4.95-1.23,6.09c-0.82,1.14-2.44,1.71-4.86,1.71c-2.42,0-4.041-0.57-4.86-1.71c-0.82-1.14-1.23-3.17-1.23-6.09
		S307.225,28.454,308.145,27.334z M310.2,39.888c0.65,0.23,1.535,0.345,2.655,0.345c1.12,0,2.005-0.115,2.655-0.345
		c0.65-0.229,1.15-0.66,1.5-1.29c0.35-0.63,0.575-1.339,0.675-2.13c0.1-0.79,0.15-1.895,0.15-3.315c0-2.52-0.35-4.24-1.05-5.16
		c-0.7-0.919-2.01-1.38-3.93-1.38s-3.23,0.46-3.93,1.38c-0.7,0.92-1.05,2.64-1.05,5.16c0,1.42,0.049,2.525,0.15,3.315
		c0.1,0.791,0.325,1.5,0.675,2.13C309.049,39.229,309.55,39.659,310.2,39.888z"/>
	<path class="st1" d="M332.805,25.924h1.05v15h-1.05v-1.2c-0.18,0.101-0.42,0.235-0.72,0.405c-0.3,0.17-0.885,0.39-1.755,0.66
		c-0.87,0.27-1.685,0.405-2.445,0.405c-2,0-3.32-0.505-3.96-1.515c-0.641-1.01-0.96-2.995-0.96-5.955v-7.8h1.05v7.74
		c0,2.64,0.24,4.395,0.72,5.265c0.48,0.87,1.53,1.305,3.15,1.305c0.799,0,1.609-0.125,2.43-0.375c0.82-0.25,1.44-0.495,1.86-0.735
		l0.63-0.39V25.924z"/>
	<path class="st1" d="M345.975,26.884h-5.46v7.86c0,2.3,0.165,3.795,0.495,4.485s1.084,1.035,2.265,1.035l2.94-0.24l0.09,0.96
		c-1.32,0.16-2.33,0.24-3.03,0.24c-1.42,0-2.41-0.364-2.97-1.095c-0.56-0.73-0.84-2.145-0.84-4.245v-9h-2.37v-0.96h2.37v-4.89h1.05
		v4.89h5.46V26.884z"/>
	<path class="st1" d="M355.454,21.574v-1.65h1.05v1.65H355.454z M355.454,40.924v-15h1.05v15H355.454z"/>
	<path class="st1" d="M368.624,26.884h-5.46v7.86c0,2.3,0.165,3.795,0.495,4.485s1.084,1.035,2.265,1.035l2.94-0.24l0.09,0.96
		c-1.32,0.16-2.33,0.24-3.03,0.24c-1.42,0-2.41-0.364-2.97-1.095c-0.56-0.73-0.84-2.145-0.84-4.245v-9h-2.37v-0.96h2.37v-4.89h1.05
		v4.89h5.46V26.884z"/>
	<path class="st1" d="M371.384,40.924v-2.4h1.2v2.4H371.384z"/>
</g>
<g>
	<path class="st1" d="M57.994,114.387h-1.08v-9.03l-6.84-11.97h1.26l6.12,10.77l6.12-10.77h1.26l-6.84,11.97V114.387z"/>
	<path class="st1" d="M66.394,100.798c0.919-1.12,2.49-1.68,4.71-1.68c2.22,0,3.79,0.56,4.71,1.68c0.919,1.12,1.38,3.14,1.38,6.06
		s-0.41,4.95-1.23,6.09c-0.82,1.14-2.44,1.71-4.86,1.71c-2.42,0-4.041-0.57-4.86-1.71c-0.82-1.14-1.23-3.17-1.23-6.09
		S65.474,101.918,66.394,100.798z M68.449,113.352c0.65,0.23,1.535,0.345,2.655,0.345c1.12,0,2.005-0.115,2.655-0.345
		c0.65-0.229,1.15-0.66,1.5-1.29c0.35-0.63,0.575-1.339,0.675-2.13c0.1-0.79,0.15-1.895,0.15-3.315c0-2.52-0.35-4.24-1.05-5.16
		c-0.7-0.919-2.01-1.38-3.93-1.38s-3.23,0.46-3.93,1.38c-0.7,0.92-1.05,2.64-1.05,5.16c0,1.42,0.049,2.525,0.15,3.315
		c0.1,0.791,0.325,1.5,0.675,2.13C67.298,112.693,67.799,113.123,68.449,113.352z"/>
	<path class="st1" d="M91.054,99.387h1.05v15h-1.05v-1.2c-0.18,0.101-0.42,0.235-0.72,0.405c-0.3,0.17-0.885,0.39-1.755,0.66
		c-0.87,0.27-1.685,0.405-2.445,0.405c-2,0-3.32-0.505-3.96-1.515c-0.641-1.01-0.96-2.995-0.96-5.955v-7.8h1.05v7.74
		c0,2.64,0.24,4.395,0.72,5.265c0.48,0.87,1.53,1.305,3.15,1.305c0.799,0,1.609-0.125,2.43-0.375c0.82-0.25,1.44-0.495,1.86-0.735
		l0.63-0.39V99.387z"/>
	<path class="st1" d="M96.364,98.577l1.2-6h1.14l-1.47,6H96.364z"/>
	<path class="st1" d="M102.753,114.387v-21.9h1.05v21.9H102.753z"/>
	<path class="st1" d="M108.903,114.387v-21.9h1.05v21.9H108.903z"/>
	<path class="st1" d="M131.432,103.798v8.64c0.08,0.72,0.83,1.14,2.25,1.26l-0.06,0.93c-1.46,0-2.49-0.42-3.09-1.26
		c-2.04,0.86-4.061,1.29-6.06,1.29c-1.24,0-2.205-0.37-2.895-1.11c-0.69-0.74-1.035-1.795-1.035-3.165c0-1.37,0.33-2.415,0.99-3.135
		c0.66-0.72,1.71-1.15,3.15-1.29l5.7-0.6v-1.56c0-1.28-0.275-2.21-0.825-2.79c-0.55-0.58-1.385-0.87-2.505-0.87
		c-1.14,0-2.72,0.13-4.74,0.39l-0.93,0.12l-0.09-0.99c2.24-0.36,4.16-0.54,5.76-0.54
		C129.972,99.117,131.432,100.678,131.432,103.798z M122.372,107.878c-0.48,0.54-0.72,1.35-0.72,2.43s0.245,1.916,0.735,2.505
		c0.49,0.59,1.174,0.885,2.055,0.885c0.88,0,1.81-0.105,2.79-0.315s1.75-0.415,2.31-0.615l0.84-0.3v-6.15l-5.58,0.57
		C123.662,107.008,122.852,107.338,122.372,107.878z"/>
	<path class="st1" d="M137.372,114.387h-1.05v-15h1.05v1.2c1.78-0.98,3.6-1.47,5.46-1.47c1.86,0,3.11,0.505,3.75,1.515
		c0.64,1.01,0.96,2.995,0.96,5.955v7.8h-1.05v-7.74c0-2.64-0.24-4.395-0.72-5.265s-1.53-1.305-3.15-1.305
		c-0.8,0-1.635,0.125-2.505,0.375c-0.87,0.25-1.545,0.495-2.025,0.735l-0.72,0.39V114.387z"/>
	<path class="st1" d="M156.422,100.077c-2.681,0-4.02,1-4.02,3c0,0.94,0.28,1.605,0.84,1.995c0.56,0.39,1.8,0.735,3.72,1.035
		c1.92,0.3,3.259,0.7,4.02,1.2c0.76,0.5,1.14,1.505,1.14,3.015c0,1.51-0.48,2.61-1.44,3.3s-2.38,1.035-4.26,1.035
		c-1.02,0-2.38-0.12-4.08-0.36l-0.87-0.12l0.12-0.99c2.16,0.34,3.88,0.51,5.16,0.51c1.279,0,2.31-0.25,3.09-0.75
		c0.78-0.5,1.17-1.35,1.17-2.55c0-1.2-0.305-1.99-0.915-2.37c-0.61-0.38-1.86-0.715-3.75-1.005c-1.89-0.29-3.205-0.68-3.945-1.17
		c-0.74-0.49-1.11-1.314-1.11-2.475s0.27-2.055,0.81-2.685c0.54-0.63,1.17-1.05,1.89-1.26s1.47-0.315,2.25-0.315
		c1.62,0,3.14,0.11,4.56,0.33l0.78,0.12l-0.06,0.99C159.482,100.238,157.782,100.077,156.422,100.077z"/>
	<path class="st1" d="M164.462,99.387h1.11l3.81,14.04h0.33l4.44-13.74h1.14l4.44,13.74h0.33l3.81-14.04h1.11l-4.05,15h-2.04
		l-4.17-13.44l-4.17,13.44h-2.04L164.462,99.387z"/>
	<path class="st1" d="M197.762,113.488l0.9-0.06l0.06,0.96c-2.24,0.18-4.09,0.27-5.55,0.27c-2.12-0.02-3.59-0.665-4.41-1.935
		c-0.82-1.27-1.23-3.215-1.23-5.835c0-5.18,2.02-7.77,6.06-7.77c1.9,0,3.325,0.57,4.275,1.71c0.95,1.14,1.425,2.97,1.425,5.49v0.99
		h-10.65c0,2.16,0.34,3.765,1.02,4.815c0.68,1.05,1.81,1.575,3.39,1.575S196.202,113.628,197.762,113.488z M188.642,106.347h9.54
		c0-2.26-0.365-3.87-1.095-4.83c-0.73-0.96-1.895-1.44-3.495-1.44C190.292,100.077,188.642,102.168,188.642,106.347z"/>
	<path class="st1" d="M203.222,114.387v-15h1.05v2.34c0.6-0.48,1.495-0.995,2.685-1.545c1.19-0.55,2.275-0.915,3.255-1.095v1.08
		c-0.88,0.18-1.815,0.48-2.805,0.9c-0.99,0.42-1.755,0.8-2.295,1.14l-0.84,0.51v11.67H203.222z"/>
	<path class="st1" d="M227.042,100.347h-5.46v7.86c0,2.3,0.165,3.795,0.495,4.485s1.084,1.035,2.265,1.035l2.94-0.24l0.09,0.96
		c-1.32,0.16-2.33,0.24-3.03,0.24c-1.42,0-2.41-0.364-2.97-1.095c-0.56-0.73-0.84-2.145-0.84-4.245v-9h-2.37v-0.96h2.37v-4.89h1.05
		v4.89h5.46V100.347z"/>
	<path class="st1" d="M230.971,114.387h-1.05v-21.9h1.05v7.8c1.76-0.78,3.57-1.17,5.43-1.17s3.109,0.505,3.75,1.515
		c0.64,1.01,0.96,2.995,0.96,5.955v7.8h-1.05v-7.74c0-2.64-0.24-4.395-0.72-5.265s-1.53-1.305-3.15-1.305
		c-0.8,0-1.635,0.101-2.505,0.3c-0.87,0.2-1.535,0.4-1.995,0.6l-0.72,0.3V114.387z"/>
	<path class="st1" d="M255.301,113.488l0.9-0.06l0.06,0.96c-2.24,0.18-4.09,0.27-5.55,0.27c-2.12-0.02-3.59-0.665-4.41-1.935
		c-0.82-1.27-1.23-3.215-1.23-5.835c0-5.18,2.02-7.77,6.06-7.77c1.9,0,3.325,0.57,4.275,1.71c0.95,1.14,1.425,2.97,1.425,5.49v0.99
		h-10.65c0,2.16,0.34,3.765,1.02,4.815c0.68,1.05,1.81,1.575,3.39,1.575S253.741,113.628,255.301,113.488z M246.181,106.347h9.54
		c0-2.26-0.365-3.87-1.095-4.83c-0.73-0.96-1.895-1.44-3.495-1.44C247.831,100.077,246.181,102.168,246.181,106.347z"/>
	<path class="st1" d="M276.991,113.517c-1.46,0.76-3.13,1.14-5.01,1.14c-1.88,0-3.225-0.604-4.035-1.815
		c-0.81-1.21-1.215-3.175-1.215-5.895c0-2.72,0.5-4.705,1.5-5.955c1-1.25,2.779-1.875,5.34-1.875l4.47,0.27v21.9h-1.05V113.517z
		 M273.601,100.077c-2.24,0-3.76,0.545-4.56,1.635c-0.8,1.09-1.2,2.825-1.2,5.205c0,2.38,0.315,4.105,0.945,5.175
		c0.63,1.07,1.745,1.605,3.345,1.605c0.799,0,1.605-0.1,2.415-0.3c0.81-0.199,1.425-0.399,1.845-0.6l0.6-0.3v-12.24
		C275.431,100.137,274.301,100.077,273.601,100.077z"/>
	<path class="st1" d="M292.471,99.387h1.05v15h-1.05v-1.2c-0.18,0.101-0.42,0.235-0.72,0.405c-0.3,0.17-0.885,0.39-1.755,0.66
		c-0.87,0.27-1.685,0.405-2.445,0.405c-2,0-3.32-0.505-3.96-1.515c-0.641-1.01-0.96-2.995-0.96-5.955v-7.8h1.05v7.74
		c0,2.64,0.24,4.395,0.72,5.265c0.48,0.87,1.53,1.305,3.15,1.305c0.799,0,1.609-0.125,2.43-0.375c0.82-0.25,1.44-0.495,1.86-0.735
		l0.63-0.39V99.387z"/>
	<path class="st1" d="M307.861,113.488l0.9-0.06l0.06,0.96c-2.24,0.18-4.09,0.27-5.55,0.27c-2.12-0.02-3.59-0.665-4.41-1.935
		c-0.82-1.27-1.23-3.215-1.23-5.835c0-5.18,2.02-7.77,6.06-7.77c1.9,0,3.325,0.57,4.275,1.71c0.95,1.14,1.425,2.97,1.425,5.49v0.99
		h-10.65c0,2.16,0.34,3.765,1.02,4.815c0.68,1.05,1.81,1.575,3.39,1.575S306.301,113.628,307.861,113.488z M298.741,106.347h9.54
		c0-2.26-0.365-3.87-1.095-4.83c-0.73-0.96-1.895-1.44-3.495-1.44C300.391,100.077,298.741,102.168,298.741,106.347z"/>
	<path class="st1" d="M317.611,100.077c-2.681,0-4.02,1-4.02,3c0,0.94,0.28,1.605,0.84,1.995c0.56,0.39,1.8,0.735,3.72,1.035
		c1.92,0.3,3.259,0.7,4.02,1.2c0.76,0.5,1.14,1.505,1.14,3.015c0,1.51-0.48,2.61-1.44,3.3s-2.38,1.035-4.26,1.035
		c-1.02,0-2.38-0.12-4.08-0.36l-0.87-0.12l0.12-0.99c2.16,0.34,3.88,0.51,5.16,0.51c1.279,0,2.31-0.25,3.09-0.75
		c0.78-0.5,1.17-1.35,1.17-2.55c0-1.2-0.305-1.99-0.915-2.37c-0.61-0.38-1.86-0.715-3.75-1.005c-1.89-0.29-3.205-0.68-3.945-1.17
		c-0.74-0.49-1.11-1.314-1.11-2.475s0.27-2.055,0.81-2.685c0.54-0.63,1.17-1.05,1.89-1.26s1.47-0.315,2.25-0.315
		c1.62,0,3.14,0.11,4.56,0.33l0.78,0.12l-0.06,0.99C320.671,100.238,318.971,100.077,317.611,100.077z"/>
	<path class="st1" d="M334.531,100.347h-5.46v7.86c0,2.3,0.165,3.795,0.495,4.485s1.084,1.035,2.265,1.035l2.94-0.24l0.09,0.96
		c-1.32,0.16-2.33,0.24-3.03,0.24c-1.42,0-2.41-0.364-2.97-1.095c-0.56-0.73-0.84-2.145-0.84-4.245v-9h-2.37v-0.96h2.37v-4.89h1.05
		v4.89h5.46V100.347z"/>
	<path class="st1" d="M337.411,95.037v-1.65h1.05v1.65H337.411z M337.411,114.387v-15h1.05v15H337.411z"/>
	<path class="st1" d="M344.01,100.798c0.919-1.12,2.49-1.68,4.71-1.68c2.22,0,3.79,0.56,4.71,1.68c0.919,1.12,1.38,3.14,1.38,6.06
		s-0.41,4.95-1.23,6.09c-0.82,1.14-2.44,1.71-4.86,1.71c-2.42,0-4.041-0.57-4.86-1.71c-0.82-1.14-1.23-3.17-1.23-6.09
		S343.09,101.918,344.01,100.798z M346.065,113.352c0.65,0.23,1.535,0.345,2.655,0.345c1.12,0,2.005-0.115,2.655-0.345
		c0.65-0.229,1.15-0.66,1.5-1.29c0.35-0.63,0.575-1.339,0.675-2.13c0.1-0.79,0.15-1.895,0.15-3.315c0-2.52-0.35-4.24-1.05-5.16
		c-0.7-0.919-2.01-1.38-3.93-1.38s-3.23,0.46-3.93,1.38c-0.7,0.92-1.05,2.64-1.05,5.16c0,1.42,0.049,2.525,0.15,3.315
		c0.1,0.791,0.325,1.5,0.675,2.13C344.915,112.693,345.415,113.123,346.065,113.352z"/>
	<path class="st1" d="M360.03,114.387h-1.05v-15h1.05v1.2c1.78-0.98,3.6-1.47,5.46-1.47c1.86,0,3.11,0.505,3.75,1.515
		c0.64,1.01,0.96,2.995,0.96,5.955v7.8h-1.05v-7.74c0-2.64-0.24-4.395-0.72-5.265s-1.53-1.305-3.15-1.305
		c-0.8,0-1.635,0.125-2.505,0.375c-0.87,0.25-1.545,0.495-2.025,0.735l-0.72,0.39V114.387z"/>
	<path class="st1" d="M379.08,100.077c-2.681,0-4.02,1-4.02,3c0,0.94,0.28,1.605,0.84,1.995c0.56,0.39,1.8,0.735,3.72,1.035
		c1.92,0.3,3.259,0.7,4.02,1.2c0.76,0.5,1.14,1.505,1.14,3.015c0,1.51-0.48,2.61-1.44,3.3s-2.38,1.035-4.26,1.035
		c-1.02,0-2.38-0.12-4.08-0.36l-0.87-0.12l0.12-0.99c2.16,0.34,3.88,0.51,5.16,0.51c1.279,0,2.31-0.25,3.09-0.75
		c0.78-0.5,1.17-1.35,1.17-2.55c0-1.2-0.305-1.99-0.915-2.37c-0.61-0.38-1.86-0.715-3.75-1.005c-1.89-0.29-3.205-0.68-3.945-1.17
		c-0.74-0.49-1.11-1.314-1.11-2.475s0.27-2.055,0.81-2.685c0.54-0.63,1.17-1.05,1.89-1.26s1.47-0.315,2.25-0.315
		c1.62,0,3.14,0.11,4.56,0.33l0.78,0.12l-0.06,0.99C382.14,100.238,380.439,100.077,379.08,100.077z"/>
	<path class="st1" d="M388.5,114.387v-2.4h1.2v2.4H388.5z"/>
</g>
<circle class="st1" cx="18" cy="30.5" r="18"/>
<circle class="st1" cx="18" cy="105.029" r="18"/>
<g>
	<path class="st2" d="M20.485,24.381v11.88h-2.484v-9.072l-2.574,1.656l-1.134-1.854l3.924-2.61H20.485z"/>
</g>
<g>
	<path class="st2" d="M21.835,110.79h-7.704v-2.106l2.538-2.574c0.9-0.924,1.527-1.632,1.881-2.124
		c0.354-0.492,0.531-1.017,0.531-1.575s-0.147-0.951-0.441-1.179c-0.294-0.228-0.711-0.342-1.251-0.342
		c-0.804,0-1.68,0.072-2.628,0.216l-0.432,0.054l-0.126-1.926c1.176-0.36,2.394-0.54,3.654-0.54c2.52,0,3.78,1.134,3.78,3.402
		c0,0.888-0.192,1.656-0.576,2.304c-0.384,0.648-1.08,1.434-2.088,2.358l-2.07,1.872h4.932V110.79z"/>
</g>
</svg>