<!-- Generator: Adobe Illustrator 21.0.0, SVG Export Plug-In  -->
<svg version="1.1"
	 xmlns="http://www.w3.org/2000/svg" xmlns:xlink="http://www.w3.org/1999/xlink" xmlns:a="http://ns.adobe.com/AdobeSVGViewerExtensions/3.0/"
	 x="0px" y="0px" width="83.085px" height="17.6px" viewBox="0 0 83.085 17.6" style="enable-background:new 0 0 83.085 17.6;"
	 xml:space="preserve">
<style type="text/css">
	.st0{fill:#7F7F7F;}
	.st1{font-family:'YummoW03-Bold';}
	.st2{font-size:16px;}
</style>
<defs>
</defs>
<g>
	<path class="st0" d="M1.248,3.008c0-0.405,0.203-0.608,0.608-0.608H2.48c0.405,0,0.608,0.203,0.608,0.608v8.848h3.44
		c0.405,0,0.608,0.203,0.608,0.608v0.528c0,0.405-0.203,0.608-0.608,0.608H1.856c-0.405,0-0.608-0.203-0.608-0.608V3.008z"/>
	<path class="st0" d="M12.112,11.264c0-0.331,0.166-0.496,0.496-0.496h0.656c0.384,0,0.576,0.192,0.576,0.576
		c0,0.726-0.248,1.312-0.744,1.76c-0.496,0.448-1.155,0.672-1.976,0.672c-0.406,0-0.779-0.059-1.12-0.176s-0.635-0.293-0.88-0.528
		c-0.246-0.235-0.44-0.531-0.584-0.888s-0.216-0.771-0.216-1.24v-3.12c0-0.469,0.072-0.883,0.216-1.24
		C8.68,6.227,8.875,5.93,9.12,5.696C9.365,5.461,9.659,5.285,10,5.167c0.341-0.117,0.714-0.176,1.12-0.176
		c0.395,0,0.765,0.059,1.112,0.176c0.347,0.118,0.643,0.293,0.888,0.528c0.245,0.234,0.44,0.531,0.584,0.888
		c0.144,0.357,0.216,0.771,0.216,1.24v1.36c0,0.384-0.192,0.576-0.576,0.576h-3.296v1.072c0,0.512,0.104,0.861,0.312,1.048
		c0.208,0.187,0.461,0.28,0.76,0.28c0.309,0,0.552-0.08,0.728-0.24C12.024,11.76,12.112,11.541,12.112,11.264z M10.048,8.463h2.144
		V7.936c0-0.512-0.104-0.861-0.312-1.048s-0.461-0.28-0.76-0.28c-0.299,0-0.552,0.094-0.76,0.28s-0.312,0.536-0.312,1.048V8.463z"/>
	<path class="st0" d="M18.976,13.6c-0.16,0.032-0.307,0.05-0.44,0.056c-0.134,0.005-0.259,0.008-0.376,0.008
		c-0.768,0-1.355-0.178-1.76-0.536c-0.405-0.357-0.608-0.968-0.608-1.832V3.68c0-0.384,0.192-0.576,0.576-0.576h0.576
		c0.384,0,0.576,0.192,0.576,0.576v1.488h1.376c0.384,0,0.576,0.192,0.576,0.576v0.464c0,0.384-0.192,0.576-0.576,0.576H17.52v4.384
		c0,0.331,0.064,0.56,0.192,0.688s0.357,0.192,0.688,0.192c0.139,0,0.304-0.016,0.496-0.048c0.192-0.032,0.336,0.005,0.432,0.112
		c0.096,0.106,0.144,0.256,0.144,0.448v0.464c0,0.192-0.045,0.328-0.136,0.408S19.125,13.567,18.976,13.6z"/>
	<path class="st0" d="M21.839,6.16c-0.032,0.107-0.088,0.197-0.168,0.272s-0.195,0.112-0.344,0.112h-0.416
		c-0.118,0-0.216-0.034-0.296-0.104c-0.08-0.069-0.109-0.178-0.088-0.328l0.512-3.136c0.064-0.384,0.282-0.576,0.656-0.576h0.736
		c0.17,0,0.298,0.056,0.384,0.168c0.085,0.112,0.09,0.275,0.016,0.488L21.839,6.16z"/>
	<path class="st0" d="M28.175,7.344c0-0.235-0.08-0.416-0.24-0.544c-0.16-0.128-0.379-0.192-0.656-0.192S26.784,6.671,26.624,6.8
		c-0.16,0.128-0.24,0.331-0.24,0.608v0.032c0,0.278,0.091,0.496,0.272,0.656c0.182,0.16,0.405,0.301,0.672,0.424
		c0.266,0.123,0.56,0.246,0.88,0.368s0.613,0.283,0.88,0.48s0.491,0.454,0.672,0.768c0.182,0.314,0.272,0.728,0.272,1.24
		c0,0.384-0.069,0.726-0.208,1.024c-0.139,0.299-0.328,0.55-0.568,0.752c-0.24,0.203-0.528,0.358-0.864,0.464
		s-0.702,0.16-1.096,0.16c-0.405,0-0.773-0.059-1.104-0.176s-0.616-0.274-0.856-0.472c-0.24-0.197-0.427-0.435-0.56-0.712
		s-0.2-0.576-0.2-0.896v-0.096c0-0.384,0.192-0.576,0.576-0.576h0.656c0.331,0,0.496,0.166,0.496,0.496
		c0,0.277,0.09,0.482,0.272,0.616c0.181,0.134,0.421,0.2,0.72,0.2c0.298,0,0.542-0.064,0.728-0.192s0.28-0.347,0.28-0.656V11.28
		c0-0.277-0.091-0.494-0.272-0.648c-0.181-0.155-0.405-0.291-0.672-0.408c-0.267-0.117-0.56-0.234-0.88-0.352
		c-0.32-0.117-0.613-0.274-0.88-0.472c-0.267-0.197-0.491-0.45-0.672-0.76c-0.181-0.309-0.272-0.72-0.272-1.232
		c0-0.768,0.243-1.363,0.728-1.784s1.117-0.632,1.896-0.632c0.395,0,0.752,0.059,1.072,0.176c0.32,0.118,0.594,0.28,0.824,0.488
		s0.408,0.448,0.536,0.72s0.192,0.568,0.192,0.888c0,0.384-0.192,0.576-0.576,0.576h-0.656C28.341,7.84,28.175,7.674,28.175,7.344z"
		/>
	<path class="st0" d="M39.023,12.271c-0.374,0.448-0.902,0.672-1.584,0.672c-0.662,0-1.208-0.216-1.64-0.648
		c-0.432-0.432-0.648-1.096-0.648-1.992v-2.48c0-0.469,0.072-0.883,0.216-1.24c0.144-0.357,0.338-0.653,0.584-0.888
		c0.245-0.235,0.539-0.411,0.88-0.528c0.341-0.117,0.715-0.176,1.12-0.176c0.395,0,0.765,0.059,1.112,0.176
		c0.347,0.118,0.643,0.293,0.888,0.528c0.245,0.234,0.44,0.531,0.584,0.888c0.144,0.357,0.216,0.771,0.216,1.24v5.904
		c0,0.469-0.072,0.877-0.216,1.224s-0.339,0.632-0.584,0.856c-0.246,0.224-0.542,0.392-0.888,0.504
		c-0.347,0.112-0.717,0.168-1.112,0.168c-0.427,0-0.808-0.062-1.144-0.184s-0.622-0.288-0.856-0.496
		c-0.235-0.208-0.414-0.451-0.536-0.728c-0.123-0.278-0.184-0.576-0.184-0.896c0-0.384,0.192-0.576,0.576-0.576h0.656
		c0.331,0,0.496,0.165,0.496,0.496c0,0.234,0.08,0.435,0.24,0.6c0.16,0.165,0.411,0.248,0.752,0.248c0.298,0,0.552-0.08,0.76-0.24
		s0.312-0.496,0.312-1.008V12.271z M39.023,7.936c0-0.512-0.104-0.861-0.312-1.048s-0.462-0.28-0.76-0.28
		c-0.299,0-0.552,0.094-0.76,0.28s-0.312,0.536-0.312,1.048V10c0,0.512,0.104,0.862,0.312,1.048s0.461,0.28,0.76,0.28
		c0.298,0,0.552-0.093,0.76-0.28s0.312-0.536,0.312-1.048V7.936z"/>
	<path class="st0" d="M46.415,11.264c0-0.331,0.166-0.496,0.496-0.496h0.656c0.384,0,0.576,0.192,0.576,0.576
		c0,0.726-0.248,1.312-0.744,1.76c-0.496,0.448-1.155,0.672-1.976,0.672c-0.406,0-0.779-0.059-1.12-0.176s-0.635-0.293-0.88-0.528
		c-0.246-0.235-0.44-0.531-0.584-0.888s-0.216-0.771-0.216-1.24v-3.12c0-0.469,0.072-0.883,0.216-1.24
		c0.144-0.357,0.338-0.653,0.584-0.888c0.245-0.235,0.539-0.411,0.88-0.528c0.341-0.117,0.714-0.176,1.12-0.176
		c0.395,0,0.765,0.059,1.112,0.176c0.347,0.118,0.643,0.293,0.888,0.528c0.245,0.234,0.44,0.531,0.584,0.888
		c0.144,0.357,0.216,0.771,0.216,1.24v1.36c0,0.384-0.192,0.576-0.576,0.576h-3.296v1.072c0,0.512,0.104,0.861,0.312,1.048
		c0.208,0.187,0.461,0.28,0.76,0.28c0.309,0,0.552-0.08,0.728-0.24C46.327,11.76,46.415,11.541,46.415,11.264z M44.351,8.463h2.144
		V7.936c0-0.512-0.104-0.861-0.312-1.048s-0.461-0.28-0.76-0.28c-0.299,0-0.552,0.094-0.76,0.28s-0.312,0.536-0.312,1.048V8.463z"/>
	<path class="st0" d="M53.278,13.6c-0.16,0.032-0.307,0.05-0.44,0.056c-0.134,0.005-0.259,0.008-0.376,0.008
		c-0.768,0-1.355-0.178-1.76-0.536c-0.405-0.357-0.608-0.968-0.608-1.832V3.68c0-0.384,0.192-0.576,0.576-0.576h0.576
		c0.384,0,0.576,0.192,0.576,0.576v1.488h1.376c0.384,0,0.576,0.192,0.576,0.576v0.464c0,0.384-0.192,0.576-0.576,0.576h-1.376
		v4.384c0,0.331,0.064,0.56,0.192,0.688s0.357,0.192,0.688,0.192c0.139,0,0.304-0.016,0.496-0.048
		c0.192-0.032,0.336,0.005,0.432,0.112c0.096,0.106,0.144,0.256,0.144,0.448v0.464c0,0.192-0.045,0.328-0.136,0.408
		S53.428,13.567,53.278,13.6z"/>
	<path class="st0" d="M62.046,13.6c-0.16,0.032-0.307,0.05-0.44,0.056c-0.134,0.005-0.259,0.008-0.376,0.008
		c-0.768,0-1.355-0.178-1.76-0.536c-0.405-0.357-0.608-0.968-0.608-1.832V3.68c0-0.384,0.192-0.576,0.576-0.576h0.576
		c0.384,0,0.576,0.192,0.576,0.576v1.488h1.376c0.384,0,0.576,0.192,0.576,0.576v0.464c0,0.384-0.192,0.576-0.576,0.576H60.59v4.384
		c0,0.331,0.064,0.56,0.192,0.688s0.357,0.192,0.688,0.192c0.139,0,0.304-0.016,0.496-0.048c0.192-0.032,0.336,0.005,0.432,0.112
		c0.096,0.106,0.144,0.256,0.144,0.448v0.464c0,0.192-0.045,0.328-0.136,0.408S62.195,13.567,62.046,13.6z"/>
	<path class="st0" d="M69.518,10.944c0,0.48-0.072,0.898-0.216,1.256s-0.339,0.651-0.584,0.88c-0.246,0.229-0.542,0.403-0.888,0.52
		s-0.717,0.176-1.112,0.176c-0.406,0-0.779-0.059-1.12-0.176s-0.635-0.291-0.88-0.52c-0.246-0.229-0.44-0.522-0.584-0.88
		s-0.216-0.776-0.216-1.256v-3.12c0-0.469,0.072-0.883,0.216-1.24c0.144-0.357,0.338-0.653,0.584-0.888
		c0.245-0.235,0.539-0.411,0.88-0.528c0.341-0.117,0.714-0.176,1.12-0.176c0.395,0,0.765,0.059,1.112,0.176
		c0.347,0.118,0.643,0.293,0.888,0.528c0.245,0.234,0.44,0.531,0.584,0.888c0.144,0.357,0.216,0.771,0.216,1.24V10.944z
		 M67.79,7.936c0-0.512-0.104-0.861-0.312-1.048s-0.461-0.28-0.76-0.28c-0.299,0-0.552,0.094-0.76,0.28s-0.312,0.536-0.312,1.048
		v2.896c0,0.512,0.104,0.861,0.312,1.048c0.208,0.187,0.461,0.28,0.76,0.28c0.298,0,0.552-0.093,0.76-0.28
		c0.208-0.187,0.312-0.536,0.312-1.048V7.936z"/>
	<path class="st0" d="M75.038,2.976c0-0.384,0.192-0.576,0.576-0.576h0.576c0.384,0,0.576,0.192,0.576,0.576V3.52
		c0,0.384-0.192,0.576-0.576,0.576h-0.576c-0.384,0-0.576-0.192-0.576-0.576V2.976z M75.038,5.744c0-0.384,0.192-0.576,0.576-0.576
		h0.576c0.384,0,0.576,0.192,0.576,0.576v7.28c0,0.384-0.192,0.576-0.576,0.576h-0.576c-0.384,0-0.576-0.192-0.576-0.576V5.744z"/>
	<path class="st0" d="M82.077,13.6c-0.16,0.032-0.307,0.05-0.44,0.056c-0.134,0.005-0.259,0.008-0.376,0.008
		c-0.768,0-1.355-0.178-1.76-0.536c-0.405-0.357-0.608-0.968-0.608-1.832V3.68c0-0.384,0.192-0.576,0.576-0.576h0.576
		c0.384,0,0.576,0.192,0.576,0.576v1.488h1.376c0.384,0,0.576,0.192,0.576,0.576v0.464c0,0.384-0.192,0.576-0.576,0.576h-1.376
		v4.384c0,0.331,0.064,0.56,0.192,0.688s0.357,0.192,0.688,0.192c0.139,0,0.304-0.016,0.496-0.048
		c0.192-0.032,0.336,0.005,0.432,0.112c0.096,0.106,0.144,0.256,0.144,0.448v0.464c0,0.192-0.045,0.328-0.136,0.408
		S82.227,13.567,82.077,13.6z"/>
</g>
</svg>