<!-- Generator: Adobe Illustrator 21.0.0, SVG Export Plug-In  -->
<svg version="1.1"
	 xmlns="http://www.w3.org/2000/svg" xmlns:xlink="http://www.w3.org/1999/xlink" xmlns:a="http://ns.adobe.com/AdobeSVGViewerExtensions/3.0/"
	 x="0px" y="0px" width="191.485px" height="361.131px" viewBox="0 0 191.485 361.131"
	 style="enable-background:new 0 0 191.485 361.131;" xml:space="preserve">
<style type="text/css">
	
		.st0{fill:none;stroke:#FFFFFF;stroke-width:5.0426;stroke-linecap:round;stroke-linejoin:round;stroke-miterlimit:10;stroke-dasharray:16.8088,8.4044,0.084,8.4044;}
	.st1{fill:#FFFFFF;}
</style>
<defs>
</defs>
<circle class="st0" cx="95.742" cy="95.742" r="93.221"/>
<g>
	<path class="st1" d="M56.773,39.707c0-0.76,0.379-1.14,1.14-1.14h1.17c0.76,0,1.14,0.38,1.14,1.14v14.16
		c0,1.001-0.15,1.88-0.45,2.641c-0.3,0.76-0.72,1.39-1.26,1.89s-1.175,0.875-1.905,1.125c-0.73,0.25-1.525,0.375-2.385,0.375
		s-1.655-0.125-2.385-0.375c-0.73-0.25-1.365-0.625-1.905-1.125s-0.96-1.13-1.26-1.89c-0.3-0.761-0.45-1.64-0.45-2.641v-0.18
		c0-0.76,0.38-1.14,1.14-1.14h1.29c0.68,0,1.02,0.34,1.02,1.02c0,0.58,0.064,1.065,0.195,1.455c0.13,0.39,0.31,0.705,0.54,0.945
		c0.229,0.239,0.5,0.41,0.81,0.51c0.31,0.101,0.645,0.149,1.005,0.149s0.695-0.049,1.005-0.149c0.31-0.1,0.58-0.271,0.81-0.51
		c0.23-0.24,0.41-0.556,0.54-0.945c0.13-0.39,0.195-0.875,0.195-1.455V39.707z"/>
	<path class="st1" d="M65.323,43.758h1.08c0.72,0,1.08,0.359,1.08,1.079v9.54c0,0.96,0.195,1.616,0.585,1.966
		c0.39,0.35,0.865,0.524,1.425,0.524c0.56,0,1.035-0.175,1.425-0.524s0.585-1.006,0.585-1.966v-9.54c0-0.72,0.36-1.079,1.08-1.079
		h1.08c0.72,0,1.08,0.359,1.08,1.079v9.75c0,0.881-0.135,1.655-0.405,2.325c-0.27,0.671-0.635,1.226-1.095,1.665
		c-0.46,0.44-1.016,0.771-1.665,0.99c-0.65,0.22-1.345,0.33-2.085,0.33c-0.76,0-1.46-0.11-2.1-0.33c-0.64-0.22-1.19-0.55-1.65-0.99
		c-0.46-0.439-0.825-0.994-1.095-1.665c-0.27-0.67-0.405-1.444-0.405-2.325v-9.75C64.243,44.117,64.603,43.758,65.323,43.758z"/>
	<path class="st1" d="M84.733,47.837c0-0.439-0.15-0.779-0.45-1.02c-0.3-0.24-0.71-0.36-1.23-0.36s-0.93,0.12-1.23,0.36
		c-0.3,0.24-0.45,0.62-0.45,1.14v0.061c0,0.521,0.169,0.93,0.51,1.229c0.34,0.301,0.76,0.565,1.26,0.795
		c0.5,0.23,1.05,0.461,1.65,0.69c0.6,0.23,1.15,0.53,1.65,0.9c0.5,0.37,0.919,0.85,1.26,1.439c0.34,0.59,0.51,1.365,0.51,2.325
		c0,0.72-0.13,1.36-0.39,1.92c-0.26,0.561-0.615,1.03-1.065,1.41s-0.99,0.67-1.62,0.87c-0.63,0.199-1.315,0.3-2.055,0.3
		c-0.761,0-1.451-0.11-2.07-0.33c-0.62-0.22-1.155-0.515-1.605-0.885c-0.45-0.37-0.8-0.814-1.05-1.335
		c-0.25-0.521-0.375-1.08-0.375-1.681v-0.18c0-0.72,0.36-1.08,1.08-1.08h1.23c0.62,0,0.93,0.311,0.93,0.93
		c0,0.521,0.17,0.905,0.51,1.155c0.34,0.251,0.79,0.375,1.35,0.375c0.56,0,1.015-0.12,1.365-0.359c0.35-0.24,0.525-0.65,0.525-1.23
		v-0.06c0-0.521-0.17-0.925-0.51-1.216c-0.34-0.289-0.76-0.544-1.26-0.765c-0.5-0.22-1.05-0.439-1.65-0.66
		c-0.6-0.22-1.15-0.515-1.65-0.885c-0.5-0.37-0.92-0.845-1.26-1.425s-0.51-1.351-0.51-2.311c0-1.439,0.455-2.555,1.365-3.345
		c0.91-0.79,2.095-1.185,3.555-1.185c0.74,0,1.41,0.109,2.01,0.33c0.6,0.22,1.115,0.524,1.545,0.915
		c0.43,0.39,0.765,0.84,1.005,1.35c0.24,0.51,0.36,1.064,0.36,1.665c0,0.72-0.36,1.08-1.08,1.08h-1.23
		C85.042,48.768,84.733,48.458,84.733,47.837z"/>
	<path class="st1" d="M97.453,59.568c-0.3,0.06-0.575,0.095-0.825,0.105c-0.25,0.01-0.485,0.015-0.705,0.015
		c-1.44,0-2.54-0.335-3.3-1.005c-0.76-0.67-1.14-1.815-1.14-3.436V40.968c0-0.721,0.36-1.08,1.08-1.08h1.08
		c0.72,0,1.08,0.359,1.08,1.08v2.79h2.58c0.72,0,1.08,0.359,1.08,1.079v0.87c0,0.721-0.36,1.08-1.08,1.08h-2.58v8.221
		c0,0.62,0.12,1.05,0.36,1.29c0.24,0.239,0.67,0.359,1.29,0.359c0.26,0,0.57-0.03,0.93-0.09c0.36-0.06,0.63,0.011,0.81,0.21
		c0.18,0.2,0.27,0.48,0.27,0.84v0.87c0,0.36-0.085,0.615-0.255,0.765C97.958,59.403,97.733,59.508,97.453,59.568z"/>
	<path class="st1" d="M113.892,59.568c-0.3,0.06-0.575,0.095-0.825,0.105c-0.25,0.01-0.485,0.015-0.705,0.015
		c-1.44,0-2.54-0.335-3.3-1.005c-0.76-0.67-1.14-1.815-1.14-3.436V40.968c0-0.721,0.36-1.08,1.08-1.08h1.08
		c0.72,0,1.08,0.359,1.08,1.08v2.79h2.58c0.72,0,1.08,0.359,1.08,1.079v0.87c0,0.721-0.36,1.08-1.08,1.08h-2.58v8.221
		c0,0.62,0.12,1.05,0.36,1.29c0.24,0.239,0.67,0.359,1.29,0.359c0.26,0,0.57-0.03,0.93-0.09c0.36-0.06,0.63,0.011,0.81,0.21
		c0.18,0.2,0.27,0.48,0.27,0.84v0.87c0,0.36-0.085,0.615-0.255,0.765C114.397,59.403,114.172,59.508,113.892,59.568z"/>
	<path class="st1" d="M121.092,58.487c0,0.72-0.36,1.08-1.08,1.08h-1.08c-0.72,0-1.08-0.36-1.08-1.08v-19.14
		c0-0.721,0.36-1.08,1.08-1.08h1.08c0.72,0,1.08,0.359,1.08,1.08v5.34c0.7-0.84,1.69-1.26,2.97-1.26c0.62,0,1.19,0.1,1.71,0.3
		c0.52,0.2,0.97,0.505,1.35,0.915s0.68,0.925,0.9,1.545c0.22,0.62,0.33,1.35,0.33,2.189v10.11c0,0.72-0.36,1.08-1.08,1.08h-1.08
		c-0.72,0-1.08-0.36-1.08-1.08v-9.54c0-0.96-0.195-1.614-0.585-1.965c-0.39-0.35-0.865-0.525-1.425-0.525s-1.035,0.176-1.425,0.525
		c-0.39,0.351-0.585,1.005-0.585,1.965V58.487z"/>
	<path class="st1" d="M138.972,55.188c0-0.62,0.31-0.93,0.93-0.93h1.23c0.72,0,1.08,0.359,1.08,1.079
		c0,1.36-0.465,2.461-1.395,3.301c-0.93,0.84-2.166,1.26-3.705,1.26c-0.76,0-1.46-0.11-2.1-0.33c-0.64-0.22-1.19-0.55-1.65-0.99
		c-0.46-0.439-0.825-0.994-1.095-1.665c-0.27-0.67-0.405-1.444-0.405-2.325v-5.85c0-0.88,0.135-1.654,0.405-2.325
		c0.27-0.67,0.635-1.225,1.095-1.665c0.46-0.439,1.01-0.77,1.65-0.989c0.64-0.221,1.34-0.33,2.1-0.33c0.74,0,1.435,0.109,2.085,0.33
		c0.649,0.22,1.205,0.55,1.665,0.989c0.46,0.44,0.825,0.995,1.095,1.665c0.27,0.671,0.405,1.445,0.405,2.325v2.55
		c0,0.721-0.36,1.08-1.08,1.08h-6.18v2.01c0,0.96,0.195,1.616,0.585,1.966c0.39,0.35,0.865,0.524,1.425,0.524
		c0.58,0,1.035-0.149,1.365-0.45C138.807,56.117,138.972,55.708,138.972,55.188z M135.101,49.938h4.02v-0.99
		c0-0.96-0.195-1.614-0.585-1.965c-0.39-0.35-0.865-0.525-1.425-0.525c-0.56,0-1.035,0.176-1.425,0.525
		c-0.39,0.351-0.585,1.005-0.585,1.965V49.938z"/>
	<path class="st1" d="M38.444,82.947c0,0.84-0.11,1.57-0.33,2.19s-0.52,1.135-0.9,1.545s-0.83,0.715-1.35,0.915
		c-0.52,0.199-1.09,0.3-1.71,0.3c-1.28,0-2.27-0.42-2.97-1.26v4.92c0,0.72-0.36,1.08-1.08,1.08h-1.08c-0.72,0-1.08-0.36-1.08-1.08
		v-14.82c0-0.9,0.135-1.685,0.405-2.354s0.634-1.22,1.095-1.65c0.46-0.43,1.01-0.755,1.65-0.975c0.64-0.221,1.34-0.33,2.1-0.33
		c0.74,0,1.435,0.109,2.085,0.33c0.65,0.22,1.205,0.545,1.665,0.975c0.46,0.431,0.825,0.98,1.095,1.65s0.405,1.454,0.405,2.354
		V82.947z M35.204,76.947c0-0.96-0.195-1.614-0.585-1.965c-0.39-0.35-0.866-0.525-1.425-0.525c-0.56,0-1.035,0.176-1.425,0.525
		c-0.39,0.351-0.585,1.005-0.585,1.965v5.43c0,0.96,0.195,1.616,0.585,1.966c0.39,0.35,0.865,0.524,1.425,0.524
		c0.56,0,1.035-0.175,1.425-0.524c0.39-0.35,0.585-1.006,0.585-1.966V76.947z"/>
	<path class="st1" d="M48.793,83.188c0-0.62,0.31-0.93,0.93-0.93h1.23c0.72,0,1.08,0.359,1.08,1.079c0,1.36-0.465,2.461-1.395,3.301
		c-0.93,0.84-2.166,1.26-3.705,1.26c-0.76,0-1.46-0.11-2.1-0.33c-0.64-0.22-1.19-0.55-1.65-0.99
		c-0.46-0.439-0.825-0.994-1.095-1.665c-0.27-0.67-0.405-1.444-0.405-2.325v-5.85c0-0.88,0.135-1.654,0.405-2.325
		c0.27-0.67,0.635-1.225,1.095-1.665c0.46-0.439,1.01-0.77,1.65-0.989c0.64-0.221,1.34-0.33,2.1-0.33c0.74,0,1.435,0.109,2.085,0.33
		c0.649,0.22,1.205,0.55,1.665,0.989c0.46,0.44,0.825,0.995,1.095,1.665c0.27,0.671,0.405,1.445,0.405,2.325v2.55
		c0,0.721-0.36,1.08-1.08,1.08h-6.18v2.01c0,0.96,0.195,1.616,0.585,1.966c0.39,0.35,0.865,0.524,1.425,0.524
		c0.58,0,1.035-0.149,1.365-0.45C48.628,84.117,48.793,83.708,48.793,83.188z M44.923,77.938h4.02v-0.99
		c0-0.96-0.195-1.614-0.585-1.965c-0.39-0.35-0.865-0.525-1.425-0.525c-0.56,0-1.035,0.176-1.425,0.525
		c-0.39,0.351-0.585,1.005-0.585,1.965V77.938z"/>
	<path class="st1" d="M60.853,74.638c-0.7,0-1.2,0.14-1.5,0.42c-0.3,0.28-0.45,0.77-0.45,1.47v9.96c0,0.72-0.36,1.08-1.08,1.08
		h-1.08c-0.72,0-1.08-0.36-1.08-1.08v-10.2c0-1.72,0.415-2.93,1.245-3.63c0.83-0.699,1.995-1.05,3.495-1.05
		c0.22,0,0.455,0.005,0.705,0.015c0.25,0.011,0.525,0.045,0.825,0.105c0.28,0.06,0.505,0.165,0.675,0.314
		c0.17,0.15,0.255,0.405,0.255,0.766v0.87c0,0.359-0.09,0.64-0.27,0.84c-0.18,0.2-0.45,0.27-0.81,0.21
		C61.423,74.667,61.113,74.638,60.853,74.638z"/>
	<path class="st1" d="M70.003,66.148c0.22,0,0.465,0.005,0.735,0.015c0.27,0.011,0.555,0.045,0.855,0.105
		c0.28,0.06,0.505,0.165,0.675,0.314c0.17,0.15,0.255,0.405,0.255,0.766v0.87c0,0.359-0.09,0.64-0.27,0.84
		c-0.18,0.2-0.45,0.27-0.81,0.21c-0.36-0.061-0.69-0.09-0.99-0.09c-0.7,0-1.19,0.14-1.47,0.42c-0.28,0.28-0.42,0.77-0.42,1.47v0.69
		h2.88c0.72,0,1.08,0.359,1.08,1.079v0.87c0,0.721-0.36,1.08-1.08,1.08h-2.88v11.7c0,0.72-0.36,1.08-1.08,1.08h-1.08
		c-0.72,0-1.08-0.36-1.08-1.08v-15.66c0-1.72,0.405-2.93,1.215-3.63S68.503,66.148,70.003,66.148z"/>
	<path class="st1" d="M81.763,83.188c0-0.62,0.31-0.93,0.93-0.93h1.23c0.72,0,1.08,0.359,1.08,1.079c0,1.36-0.465,2.461-1.395,3.301
		c-0.93,0.84-2.166,1.26-3.705,1.26c-0.76,0-1.46-0.11-2.1-0.33c-0.64-0.22-1.19-0.55-1.65-0.99
		c-0.46-0.439-0.825-0.994-1.095-1.665c-0.27-0.67-0.405-1.444-0.405-2.325v-5.85c0-0.88,0.135-1.654,0.405-2.325
		c0.27-0.67,0.635-1.225,1.095-1.665c0.46-0.439,1.01-0.77,1.65-0.989c0.64-0.221,1.34-0.33,2.1-0.33c0.74,0,1.435,0.109,2.085,0.33
		c0.649,0.22,1.205,0.55,1.665,0.989c0.46,0.44,0.825,0.995,1.095,1.665c0.27,0.671,0.405,1.445,0.405,2.325v2.55
		c0,0.721-0.36,1.08-1.08,1.08h-6.18v2.01c0,0.96,0.195,1.616,0.585,1.966c0.39,0.35,0.865,0.524,1.425,0.524
		c0.58,0,1.035-0.149,1.365-0.45C81.598,84.117,81.763,83.708,81.763,83.188z M77.892,77.938h4.02v-0.99
		c0-0.96-0.195-1.614-0.585-1.965c-0.39-0.35-0.865-0.525-1.425-0.525c-0.56,0-1.035,0.176-1.425,0.525
		c-0.39,0.351-0.585,1.005-0.585,1.965V77.938z"/>
	<path class="st1" d="M91.602,82.377c0,0.96,0.195,1.616,0.585,1.966c0.39,0.35,0.865,0.524,1.425,0.524
		c0.58,0,1.035-0.18,1.365-0.54c0.33-0.359,0.495-0.84,0.495-1.439c0-0.62,0.31-0.931,0.93-0.931h1.23c0.72,0,1.08,0.36,1.08,1.08
		c0,0.74-0.125,1.41-0.375,2.011c-0.25,0.6-0.6,1.109-1.05,1.529c-0.45,0.42-0.99,0.745-1.62,0.976
		c-0.63,0.229-1.315,0.345-2.055,0.345c-0.76,0-1.46-0.11-2.1-0.33c-0.64-0.22-1.19-0.55-1.65-0.99
		c-0.46-0.439-0.825-0.994-1.095-1.665c-0.27-0.67-0.405-1.444-0.405-2.325v-5.85c0-0.88,0.135-1.654,0.405-2.325
		c0.27-0.67,0.635-1.225,1.095-1.665c0.46-0.439,1.01-0.77,1.65-0.989c0.64-0.221,1.34-0.33,2.1-0.33
		c0.74,0,1.425,0.115,2.055,0.345c0.63,0.23,1.17,0.555,1.62,0.975c0.45,0.42,0.8,0.931,1.05,1.53c0.25,0.6,0.375,1.271,0.375,2.01
		c0,0.721-0.36,1.08-1.08,1.08h-1.23c-0.62,0-0.93-0.31-0.93-0.93c0-0.601-0.165-1.08-0.495-1.44c-0.33-0.359-0.785-0.54-1.365-0.54
		c-0.56,0-1.035,0.176-1.425,0.525c-0.39,0.351-0.585,1.005-0.585,1.965V82.377z"/>
	<path class="st1" d="M107.952,87.568c-0.3,0.06-0.575,0.095-0.825,0.105c-0.25,0.01-0.485,0.015-0.705,0.015
		c-1.44,0-2.54-0.335-3.3-1.005c-0.76-0.67-1.14-1.815-1.14-3.436V68.968c0-0.721,0.36-1.08,1.08-1.08h1.08
		c0.72,0,1.08,0.359,1.08,1.08v2.79h2.58c0.72,0,1.08,0.359,1.08,1.079v0.87c0,0.721-0.36,1.08-1.08,1.08h-2.58v8.221
		c0,0.62,0.12,1.05,0.36,1.29c0.24,0.239,0.67,0.359,1.29,0.359c0.26,0,0.57-0.03,0.93-0.09c0.36-0.06,0.63,0.011,0.81,0.21
		c0.18,0.2,0.27,0.48,0.27,0.84v0.87c0,0.36-0.085,0.615-0.255,0.765C108.456,87.403,108.231,87.508,107.952,87.568z"/>
	<path class="st1" d="M118.391,72.837c0-0.72,0.36-1.079,1.08-1.079h1.08c0.72,0,1.08,0.359,1.08,1.079v9.69
		c0,0.9,0.185,1.515,0.555,1.845c0.37,0.33,0.814,0.495,1.335,0.495c0.52,0,0.965-0.165,1.335-0.495
		c0.37-0.33,0.555-0.944,0.555-1.845v-9.69c0-0.72,0.36-1.079,1.08-1.079h1.08c0.72,0,1.08,0.359,1.08,1.079v9.69
		c0,0.9,0.185,1.515,0.555,1.845c0.37,0.33,0.814,0.495,1.335,0.495c0.52,0,0.965-0.165,1.335-0.495
		c0.37-0.33,0.555-0.944,0.555-1.845v-9.69c0-0.72,0.36-1.079,1.08-1.079h1.08c0.72,0,1.08,0.359,1.08,1.079v10.29
		c0,0.801-0.12,1.496-0.36,2.085c-0.24,0.591-0.57,1.086-0.99,1.485c-0.42,0.4-0.915,0.7-1.485,0.9c-0.57,0.199-1.195,0.3-1.875,0.3
		c-0.9,0-1.685-0.19-2.355-0.57c-0.67-0.38-1.195-0.939-1.575-1.68c-0.38,0.74-0.905,1.3-1.575,1.68
		c-0.67,0.38-1.455,0.57-2.355,0.57c-0.68,0-1.305-0.101-1.875-0.3c-0.57-0.2-1.065-0.5-1.485-0.9
		c-0.42-0.399-0.75-0.895-0.99-1.485c-0.24-0.589-0.36-1.284-0.36-2.085V72.837z"/>
	<path class="st1" d="M149.411,82.587c0,0.881-0.135,1.655-0.405,2.325c-0.27,0.671-0.635,1.226-1.095,1.665
		c-0.46,0.44-1.016,0.771-1.665,0.99c-0.65,0.22-1.345,0.33-2.085,0.33c-0.76,0-1.46-0.11-2.1-0.33
		c-0.64-0.22-1.195-0.529-1.665-0.93c-0.47-0.4-0.835-0.896-1.095-1.485c-0.26-0.59-0.39-1.265-0.39-2.025v-0.06
		c0-1.5,0.45-2.67,1.35-3.51c0.9-0.84,2.2-1.26,3.9-1.26h2.01v-1.351c0-0.96-0.195-1.614-0.585-1.965
		c-0.39-0.35-0.865-0.525-1.425-0.525c-0.581,0-1.01,0.155-1.29,0.466c-0.28,0.31-0.42,0.685-0.42,1.125
		c0,0.62-0.311,0.93-0.93,0.93h-1.23c-0.72,0-1.08-0.36-1.08-1.08c0-0.64,0.115-1.23,0.345-1.771c0.229-0.54,0.56-1.009,0.99-1.409
		s0.95-0.715,1.56-0.945c0.61-0.229,1.295-0.345,2.055-0.345c0.74,0,1.435,0.109,2.085,0.33c0.649,0.22,1.205,0.55,1.665,0.989
		c0.46,0.44,0.825,0.995,1.095,1.665c0.27,0.671,0.405,1.445,0.405,2.325V82.587z M144.161,84.867c0.56,0,1.035-0.175,1.425-0.524
		s0.585-1.006,0.585-1.966v-1.649h-2.01c-0.56,0-1.035,0.155-1.425,0.465c-0.39,0.311-0.585,0.845-0.585,1.605
		c0,0.76,0.195,1.295,0.585,1.604C143.126,84.713,143.601,84.867,144.161,84.867z"/>
	<path class="st1" d="M160.15,72.837c0-0.72,0.36-1.079,1.08-1.079h1.08c0.72,0,1.08,0.359,1.08,1.079v14.971
		c0,0.88-0.135,1.645-0.405,2.295c-0.27,0.649-0.635,1.185-1.095,1.604s-1.015,0.735-1.665,0.945s-1.345,0.315-2.085,0.315
		c-0.8,0-1.515-0.115-2.145-0.346c-0.63-0.229-1.165-0.54-1.605-0.93s-0.775-0.845-1.005-1.365c-0.23-0.521-0.345-1.08-0.345-1.68
		c0-0.72,0.36-1.08,1.08-1.08h1.23c0.62,0,0.93,0.31,0.93,0.93c0,0.44,0.15,0.815,0.45,1.125c0.3,0.311,0.77,0.465,1.41,0.465
		c0.56,0,1.035-0.149,1.425-0.449c0.39-0.301,0.585-0.931,0.585-1.891v-2.67c-0.7,0.84-1.69,1.26-2.97,1.26
		c-1.24,0-2.265-0.404-3.075-1.215c-0.81-0.81-1.215-2.055-1.215-3.734v-8.551c0-0.72,0.36-1.079,1.08-1.079h1.08
		c0.72,0,1.08,0.359,1.08,1.079v7.98c0,0.96,0.195,1.615,0.585,1.965c0.39,0.351,0.865,0.525,1.425,0.525s1.035-0.175,1.425-0.525
		c0.39-0.35,0.585-1.005,0.585-1.965V72.837z"/>
	<path class="st1" d="M31.499,115.568c-0.3,0.06-0.575,0.095-0.825,0.105c-0.25,0.01-0.485,0.015-0.705,0.015
		c-1.44,0-2.54-0.335-3.3-1.005c-0.76-0.67-1.14-1.815-1.14-3.436V96.968c0-0.721,0.36-1.08,1.08-1.08h1.08
		c0.72,0,1.08,0.359,1.08,1.08v2.79h2.58c0.72,0,1.08,0.359,1.08,1.079v0.87c0,0.721-0.36,1.08-1.08,1.08h-2.58v8.221
		c0,0.62,0.12,1.05,0.36,1.29c0.24,0.239,0.67,0.359,1.29,0.359c0.26,0,0.57-0.03,0.93-0.09c0.36-0.06,0.63,0.011,0.81,0.21
		c0.18,0.2,0.27,0.48,0.27,0.84v0.87c0,0.36-0.085,0.615-0.255,0.765C32.004,115.403,31.779,115.508,31.499,115.568z"/>
	<path class="st1" d="M45.509,110.587c0,0.9-0.135,1.686-0.405,2.355s-0.635,1.22-1.095,1.65c-0.46,0.43-1.016,0.755-1.665,0.975
		c-0.65,0.22-1.345,0.33-2.085,0.33c-0.76,0-1.46-0.11-2.1-0.33c-0.64-0.22-1.19-0.545-1.65-0.975
		c-0.46-0.431-0.825-0.98-1.095-1.65s-0.405-1.455-0.405-2.355v-5.85c0-0.88,0.135-1.654,0.405-2.325
		c0.27-0.67,0.635-1.225,1.095-1.665c0.46-0.439,1.01-0.77,1.65-0.989c0.64-0.221,1.34-0.33,2.1-0.33c0.74,0,1.435,0.109,2.085,0.33
		c0.649,0.22,1.205,0.55,1.665,0.989c0.46,0.44,0.825,0.995,1.095,1.665c0.27,0.671,0.405,1.445,0.405,2.325V110.587z
		 M42.269,104.947c0-0.96-0.195-1.614-0.585-1.965c-0.39-0.35-0.865-0.525-1.425-0.525c-0.56,0-1.035,0.176-1.425,0.525
		c-0.39,0.351-0.585,1.005-0.585,1.965v5.43c0,0.96,0.195,1.616,0.585,1.966c0.39,0.35,0.865,0.524,1.425,0.524
		c0.56,0,1.035-0.175,1.425-0.524s0.585-1.006,0.585-1.966V104.947z"/>
	<path class="st1" d="M61.889,103.837c0-0.439-0.15-0.779-0.45-1.02c-0.3-0.24-0.71-0.36-1.23-0.36s-0.93,0.12-1.23,0.36
		c-0.3,0.24-0.45,0.62-0.45,1.14v0.061c0,0.521,0.169,0.93,0.51,1.229c0.34,0.301,0.76,0.565,1.26,0.795
		c0.5,0.23,1.05,0.461,1.65,0.69c0.6,0.23,1.15,0.53,1.65,0.9c0.5,0.37,0.919,0.85,1.26,1.439c0.34,0.59,0.51,1.365,0.51,2.325
		c0,0.72-0.13,1.36-0.39,1.92c-0.26,0.561-0.615,1.03-1.065,1.41c-0.45,0.38-0.99,0.67-1.62,0.87c-0.63,0.199-1.315,0.3-2.055,0.3
		c-0.761,0-1.451-0.11-2.07-0.33c-0.62-0.22-1.155-0.515-1.605-0.885c-0.45-0.37-0.8-0.814-1.05-1.335
		c-0.25-0.521-0.375-1.08-0.375-1.681v-0.18c0-0.72,0.36-1.08,1.08-1.08h1.23c0.62,0,0.93,0.311,0.93,0.93
		c0,0.521,0.17,0.905,0.51,1.155c0.34,0.251,0.79,0.375,1.35,0.375c0.56,0,1.015-0.12,1.365-0.359c0.35-0.24,0.525-0.65,0.525-1.23
		v-0.06c0-0.521-0.17-0.925-0.51-1.216c-0.34-0.289-0.76-0.544-1.26-0.765c-0.5-0.22-1.05-0.439-1.65-0.66
		c-0.6-0.22-1.15-0.515-1.65-0.885c-0.5-0.37-0.92-0.845-1.26-1.425s-0.51-1.351-0.51-2.311c0-1.439,0.455-2.555,1.365-3.345
		c0.91-0.79,2.095-1.185,3.555-1.185c0.74,0,1.41,0.109,2.01,0.33c0.6,0.22,1.115,0.524,1.545,0.915
		c0.43,0.39,0.765,0.84,1.005,1.35c0.24,0.51,0.36,1.064,0.36,1.665c0,0.72-0.36,1.08-1.08,1.08h-1.23
		C62.198,104.768,61.889,104.458,61.889,103.837z"/>
	<path class="st1" d="M74.608,115.568c-0.3,0.06-0.575,0.095-0.825,0.105c-0.25,0.01-0.485,0.015-0.705,0.015
		c-1.44,0-2.54-0.335-3.3-1.005c-0.76-0.67-1.14-1.815-1.14-3.436V96.968c0-0.721,0.36-1.08,1.08-1.08h1.08
		c0.72,0,1.08,0.359,1.08,1.08v2.79h2.58c0.72,0,1.08,0.359,1.08,1.079v0.87c0,0.721-0.36,1.08-1.08,1.08h-2.58v8.221
		c0,0.62,0.12,1.05,0.36,1.29c0.24,0.239,0.67,0.359,1.29,0.359c0.26,0,0.57-0.03,0.93-0.09c0.36-0.06,0.63,0.011,0.81,0.21
		c0.18,0.2,0.27,0.48,0.27,0.84v0.87c0,0.36-0.085,0.615-0.255,0.765C75.113,115.403,74.888,115.508,74.608,115.568z"/>
	<path class="st1" d="M88.348,110.587c0,0.881-0.135,1.655-0.405,2.325c-0.27,0.671-0.635,1.226-1.095,1.665
		c-0.46,0.44-1.016,0.771-1.665,0.99c-0.65,0.22-1.345,0.33-2.085,0.33c-0.76,0-1.46-0.11-2.1-0.33
		c-0.64-0.22-1.195-0.529-1.665-0.93c-0.47-0.4-0.835-0.896-1.095-1.485c-0.26-0.59-0.39-1.265-0.39-2.025v-0.06
		c0-1.5,0.45-2.67,1.35-3.51c0.9-0.84,2.2-1.26,3.9-1.26h2.01v-1.351c0-0.96-0.195-1.614-0.585-1.965
		c-0.39-0.35-0.865-0.525-1.425-0.525c-0.581,0-1.01,0.155-1.29,0.466c-0.28,0.31-0.42,0.685-0.42,1.125
		c0,0.62-0.311,0.93-0.93,0.93h-1.23c-0.72,0-1.08-0.36-1.08-1.08c0-0.64,0.115-1.23,0.345-1.771c0.229-0.54,0.56-1.009,0.99-1.409
		s0.95-0.715,1.56-0.945c0.61-0.229,1.295-0.345,2.055-0.345c0.74,0,1.435,0.109,2.085,0.33c0.649,0.22,1.205,0.55,1.665,0.989
		c0.46,0.44,0.825,0.995,1.095,1.665c0.27,0.671,0.405,1.445,0.405,2.325V110.587z M83.098,112.867c0.56,0,1.035-0.175,1.425-0.524
		s0.585-1.006,0.585-1.966v-1.649h-2.01c-0.56,0-1.035,0.155-1.425,0.465c-0.39,0.311-0.585,0.845-0.585,1.605
		c0,0.76,0.195,1.295,0.585,1.604C82.063,112.713,82.538,112.867,83.098,112.867z"/>
	<path class="st1" d="M97.048,102.638c-0.7,0-1.2,0.14-1.5,0.42c-0.3,0.28-0.45,0.77-0.45,1.47v9.96c0,0.72-0.36,1.08-1.08,1.08
		h-1.08c-0.72,0-1.08-0.36-1.08-1.08v-10.2c0-1.72,0.415-2.93,1.245-3.63c0.83-0.699,1.995-1.05,3.495-1.05
		c0.22,0,0.455,0.005,0.705,0.015c0.25,0.011,0.525,0.045,0.825,0.105c0.28,0.06,0.505,0.165,0.675,0.314
		c0.17,0.15,0.255,0.405,0.255,0.766v0.87c0,0.359-0.09,0.64-0.27,0.84c-0.18,0.2-0.45,0.27-0.81,0.21
		C97.618,102.667,97.308,102.638,97.048,102.638z"/>
	<path class="st1" d="M107.367,115.568c-0.3,0.06-0.575,0.095-0.825,0.105c-0.25,0.01-0.485,0.015-0.705,0.015
		c-1.44,0-2.54-0.335-3.3-1.005c-0.76-0.67-1.14-1.815-1.14-3.436V96.968c0-0.721,0.36-1.08,1.08-1.08h1.08
		c0.72,0,1.08,0.359,1.08,1.08v2.79h2.58c0.72,0,1.08,0.359,1.08,1.079v0.87c0,0.721-0.36,1.08-1.08,1.08h-2.58v8.221
		c0,0.62,0.12,1.05,0.36,1.29c0.24,0.239,0.67,0.359,1.29,0.359c0.26,0,0.57-0.03,0.93-0.09c0.36-0.06,0.63,0.011,0.81,0.21
		c0.18,0.2,0.27,0.48,0.27,0.84v0.87c0,0.36-0.085,0.615-0.255,0.765C107.872,115.403,107.647,115.508,107.367,115.568z"/>
	<path class="st1" d="M125.037,100.837c0-0.72,0.36-1.079,1.08-1.079h1.08c0.72,0,1.08,0.359,1.08,1.079v14.971
		c0,0.88-0.135,1.645-0.405,2.295c-0.27,0.649-0.635,1.185-1.095,1.604s-1.015,0.735-1.665,0.945s-1.345,0.315-2.085,0.315
		c-0.8,0-1.515-0.115-2.145-0.346c-0.63-0.229-1.165-0.54-1.605-0.93s-0.775-0.845-1.005-1.365c-0.23-0.521-0.345-1.08-0.345-1.68
		c0-0.72,0.36-1.08,1.08-1.08h1.23c0.62,0,0.93,0.31,0.93,0.93c0,0.44,0.15,0.815,0.45,1.125c0.3,0.311,0.77,0.465,1.41,0.465
		c0.56,0,1.035-0.149,1.425-0.449c0.39-0.301,0.585-0.931,0.585-1.891v-2.67c-0.7,0.84-1.69,1.26-2.97,1.26
		c-1.24,0-2.265-0.404-3.075-1.215c-0.81-0.81-1.215-2.055-1.215-3.734v-8.551c0-0.72,0.36-1.079,1.08-1.079h1.08
		c0.72,0,1.08,0.359,1.08,1.079v7.98c0,0.96,0.195,1.615,0.585,1.965c0.39,0.351,0.865,0.525,1.425,0.525s1.035-0.175,1.425-0.525
		c0.39-0.35,0.585-1.005,0.585-1.965V100.837z"/>
	<path class="st1" d="M142.466,110.587c0,0.9-0.135,1.686-0.405,2.355s-0.635,1.22-1.095,1.65c-0.46,0.43-1.016,0.755-1.665,0.975
		c-0.65,0.22-1.345,0.33-2.085,0.33c-0.76,0-1.46-0.11-2.1-0.33c-0.64-0.22-1.19-0.545-1.65-0.975
		c-0.46-0.431-0.825-0.98-1.095-1.65s-0.405-1.455-0.405-2.355v-5.85c0-0.88,0.135-1.654,0.405-2.325
		c0.27-0.67,0.635-1.225,1.095-1.665c0.46-0.439,1.01-0.77,1.65-0.989c0.64-0.221,1.34-0.33,2.1-0.33c0.74,0,1.435,0.109,2.085,0.33
		c0.649,0.22,1.205,0.55,1.665,0.989c0.46,0.44,0.825,0.995,1.095,1.665c0.27,0.671,0.405,1.445,0.405,2.325V110.587z
		 M139.226,104.947c0-0.96-0.195-1.614-0.585-1.965c-0.39-0.35-0.865-0.525-1.425-0.525c-0.56,0-1.035,0.176-1.425,0.525
		c-0.39,0.351-0.585,1.005-0.585,1.965v5.43c0,0.96,0.195,1.616,0.585,1.966c0.39,0.35,0.865,0.524,1.425,0.524
		c0.56,0,1.035-0.175,1.425-0.524s0.585-1.006,0.585-1.966V104.947z"/>
	<path class="st1" d="M147.056,99.758h1.08c0.72,0,1.08,0.359,1.08,1.079v9.54c0,0.96,0.195,1.616,0.585,1.966
		c0.39,0.35,0.865,0.524,1.425,0.524c0.56,0,1.035-0.175,1.425-0.524s0.585-1.006,0.585-1.966v-9.54c0-0.72,0.36-1.079,1.08-1.079
		h1.08c0.72,0,1.08,0.359,1.08,1.079v9.75c0,0.881-0.135,1.655-0.405,2.325c-0.27,0.671-0.635,1.226-1.095,1.665
		c-0.46,0.44-1.016,0.771-1.665,0.99c-0.65,0.22-1.345,0.33-2.085,0.33c-0.76,0-1.46-0.11-2.1-0.33c-0.64-0.22-1.19-0.55-1.65-0.99
		c-0.46-0.439-0.825-0.994-1.095-1.665c-0.27-0.67-0.405-1.444-0.405-2.325v-9.75C145.976,100.117,146.336,99.758,147.056,99.758z"
		/>
	<path class="st1" d="M165.446,102.638c-0.7,0-1.2,0.14-1.5,0.42c-0.3,0.28-0.45,0.77-0.45,1.47v9.96c0,0.72-0.36,1.08-1.08,1.08
		h-1.08c-0.72,0-1.08-0.36-1.08-1.08v-10.2c0-1.72,0.415-2.93,1.245-3.63c0.83-0.699,1.995-1.05,3.495-1.05
		c0.22,0,0.455,0.005,0.705,0.015c0.25,0.011,0.525,0.045,0.825,0.105c0.28,0.06,0.505,0.165,0.675,0.314
		c0.17,0.15,0.255,0.405,0.255,0.766v0.87c0,0.359-0.09,0.64-0.27,0.84c-0.18,0.2-0.45,0.27-0.81,0.21
		C166.016,102.667,165.705,102.638,165.446,102.638z"/>
	<path class="st1" d="M39.179,138.587c0,0.881-0.135,1.655-0.405,2.325c-0.27,0.671-0.635,1.226-1.095,1.665
		c-0.46,0.44-1.016,0.771-1.665,0.99c-0.65,0.22-1.345,0.33-2.085,0.33c-0.76,0-1.46-0.11-2.1-0.33
		c-0.64-0.22-1.195-0.529-1.665-0.93c-0.47-0.4-0.835-0.896-1.095-1.485c-0.26-0.59-0.39-1.265-0.39-2.025v-0.06
		c0-1.5,0.45-2.67,1.35-3.51c0.9-0.84,2.2-1.26,3.9-1.26h2.01v-1.351c0-0.96-0.195-1.614-0.585-1.965
		c-0.39-0.35-0.865-0.525-1.425-0.525c-0.581,0-1.01,0.155-1.29,0.466c-0.28,0.31-0.42,0.685-0.42,1.125
		c0,0.62-0.311,0.93-0.93,0.93h-1.23c-0.72,0-1.08-0.36-1.08-1.08c0-0.64,0.115-1.23,0.345-1.771c0.229-0.54,0.56-1.009,0.99-1.409
		s0.95-0.715,1.56-0.945c0.61-0.229,1.295-0.345,2.055-0.345c0.74,0,1.435,0.109,2.085,0.33c0.649,0.22,1.205,0.55,1.665,0.989
		c0.46,0.44,0.825,0.995,1.095,1.665c0.27,0.671,0.405,1.445,0.405,2.325V138.587z M33.929,140.867c0.56,0,1.035-0.175,1.425-0.524
		s0.585-1.006,0.585-1.966v-1.649h-2.01c-0.56,0-1.035,0.155-1.425,0.465c-0.39,0.311-0.585,0.845-0.585,1.605
		c0,0.76,0.195,1.295,0.585,1.604C32.894,140.713,33.369,140.867,33.929,140.867z"/>
	<path class="st1" d="M53.219,138.947c0,0.84-0.11,1.57-0.33,2.19s-0.52,1.135-0.9,1.545s-0.83,0.715-1.35,0.915
		c-0.52,0.199-1.09,0.3-1.71,0.3c-1.28,0-2.27-0.42-2.97-1.26v4.92c0,0.72-0.36,1.08-1.08,1.08h-1.08c-0.72,0-1.08-0.36-1.08-1.08
		v-14.82c0-0.9,0.135-1.685,0.405-2.354s0.634-1.22,1.095-1.65c0.46-0.43,1.01-0.755,1.65-0.975c0.64-0.221,1.34-0.33,2.1-0.33
		c0.74,0,1.435,0.109,2.085,0.33c0.65,0.22,1.205,0.545,1.665,0.975c0.46,0.431,0.825,0.98,1.095,1.65s0.405,1.454,0.405,2.354
		V138.947z M49.979,132.947c0-0.96-0.195-1.614-0.585-1.965c-0.39-0.35-0.866-0.525-1.425-0.525c-0.56,0-1.035,0.176-1.425,0.525
		c-0.39,0.351-0.585,1.005-0.585,1.965v5.43c0,0.96,0.195,1.616,0.585,1.966c0.39,0.35,0.865,0.524,1.425,0.524
		c0.56,0,1.035-0.175,1.425-0.524c0.39-0.35,0.585-1.006,0.585-1.966V132.947z"/>
	<path class="st1" d="M67.258,138.947c0,0.84-0.11,1.57-0.33,2.19s-0.52,1.135-0.9,1.545s-0.83,0.715-1.35,0.915
		c-0.52,0.199-1.09,0.3-1.71,0.3c-1.28,0-2.27-0.42-2.97-1.26v4.92c0,0.72-0.36,1.08-1.08,1.08h-1.08c-0.72,0-1.08-0.36-1.08-1.08
		v-14.82c0-0.9,0.135-1.685,0.405-2.354s0.634-1.22,1.095-1.65c0.46-0.43,1.01-0.755,1.65-0.975c0.64-0.221,1.34-0.33,2.1-0.33
		c0.74,0,1.435,0.109,2.085,0.33c0.65,0.22,1.205,0.545,1.665,0.975c0.46,0.431,0.825,0.98,1.095,1.65s0.405,1.454,0.405,2.354
		V138.947z M64.018,132.947c0-0.96-0.195-1.614-0.585-1.965c-0.39-0.35-0.866-0.525-1.425-0.525c-0.56,0-1.035,0.176-1.425,0.525
		c-0.39,0.351-0.585,1.005-0.585,1.965v5.43c0,0.96,0.195,1.616,0.585,1.966c0.39,0.35,0.865,0.524,1.425,0.524
		c0.56,0,1.035-0.175,1.425-0.524c0.39-0.35,0.585-1.006,0.585-1.966V132.947z"/>
	<path class="st1" d="M75.208,140.657c0.16,0,0.295-0.005,0.405-0.015s0.255-0.035,0.435-0.075c0.36-0.06,0.63,0.011,0.81,0.21
		c0.18,0.2,0.27,0.48,0.27,0.84v0.87c0,0.36-0.085,0.615-0.255,0.765c-0.17,0.15-0.405,0.256-0.705,0.315
		c-0.28,0.06-0.545,0.095-0.795,0.105c-0.25,0.01-0.485,0.015-0.705,0.015c-0.581,0-1.105-0.07-1.575-0.21
		c-0.47-0.14-0.875-0.37-1.215-0.69c-0.34-0.319-0.6-0.744-0.78-1.274c-0.18-0.53-0.27-1.175-0.27-1.936v-16.229
		c0-0.721,0.36-1.08,1.08-1.08h1.08c0.72,0,1.08,0.359,1.08,1.08v15.989c0,0.521,0.12,0.87,0.36,1.051
		C74.668,140.568,74.928,140.657,75.208,140.657z"/>
	<path class="st1" d="M79.617,123.648c0-0.72,0.36-1.08,1.08-1.08h1.08c0.72,0,1.08,0.36,1.08,1.08v1.02
		c0,0.721-0.36,1.08-1.08,1.08h-1.08c-0.72,0-1.08-0.359-1.08-1.08V123.648z M79.617,128.837c0-0.72,0.36-1.079,1.08-1.079h1.08
		c0.72,0,1.08,0.359,1.08,1.079v13.65c0,0.72-0.36,1.08-1.08,1.08h-1.08c-0.72,0-1.08-0.36-1.08-1.08V128.837z"/>
	<path class="st1" d="M89.787,138.377c0,0.96,0.195,1.616,0.585,1.966c0.39,0.35,0.865,0.524,1.425,0.524
		c0.58,0,1.035-0.18,1.365-0.54c0.33-0.359,0.495-0.84,0.495-1.439c0-0.62,0.31-0.931,0.93-0.931h1.23c0.72,0,1.08,0.36,1.08,1.08
		c0,0.74-0.125,1.41-0.375,2.011c-0.25,0.6-0.6,1.109-1.05,1.529c-0.45,0.42-0.99,0.745-1.62,0.976
		c-0.63,0.229-1.315,0.345-2.055,0.345c-0.76,0-1.46-0.11-2.1-0.33c-0.64-0.22-1.19-0.55-1.65-0.99
		c-0.46-0.439-0.825-0.994-1.095-1.665c-0.27-0.67-0.405-1.444-0.405-2.325v-5.85c0-0.88,0.135-1.654,0.405-2.325
		c0.27-0.67,0.635-1.225,1.095-1.665c0.46-0.439,1.01-0.77,1.65-0.989c0.64-0.221,1.34-0.33,2.1-0.33
		c0.74,0,1.425,0.115,2.055,0.345c0.63,0.23,1.17,0.555,1.62,0.975c0.45,0.42,0.8,0.931,1.05,1.53c0.25,0.6,0.375,1.271,0.375,2.01
		c0,0.721-0.36,1.08-1.08,1.08h-1.23c-0.62,0-0.93-0.31-0.93-0.93c0-0.601-0.165-1.08-0.495-1.44c-0.33-0.359-0.785-0.54-1.365-0.54
		c-0.56,0-1.035,0.176-1.425,0.525c-0.39,0.351-0.585,1.005-0.585,1.965V138.377z"/>
	<path class="st1" d="M110.097,138.587c0,0.881-0.135,1.655-0.405,2.325c-0.27,0.671-0.635,1.226-1.095,1.665
		c-0.46,0.44-1.016,0.771-1.665,0.99c-0.65,0.22-1.345,0.33-2.085,0.33c-0.76,0-1.46-0.11-2.1-0.33
		c-0.64-0.22-1.195-0.529-1.665-0.93c-0.47-0.4-0.835-0.896-1.095-1.485c-0.26-0.59-0.39-1.265-0.39-2.025v-0.06
		c0-1.5,0.45-2.67,1.35-3.51c0.9-0.84,2.2-1.26,3.9-1.26h2.01v-1.351c0-0.96-0.195-1.614-0.585-1.965
		c-0.39-0.35-0.865-0.525-1.425-0.525c-0.581,0-1.01,0.155-1.29,0.466c-0.28,0.31-0.42,0.685-0.42,1.125
		c0,0.62-0.311,0.93-0.93,0.93h-1.23c-0.72,0-1.08-0.36-1.08-1.08c0-0.64,0.115-1.23,0.345-1.771c0.229-0.54,0.56-1.009,0.99-1.409
		s0.95-0.715,1.56-0.945c0.61-0.229,1.295-0.345,2.055-0.345c0.74,0,1.435,0.109,2.085,0.33c0.649,0.22,1.205,0.55,1.665,0.989
		c0.46,0.44,0.825,0.995,1.095,1.665c0.27,0.671,0.405,1.445,0.405,2.325V138.587z M104.847,140.867c0.56,0,1.035-0.175,1.425-0.524
		s0.585-1.006,0.585-1.966v-1.649h-2.01c-0.56,0-1.035,0.155-1.425,0.465c-0.39,0.311-0.585,0.845-0.585,1.605
		c0,0.76,0.195,1.295,0.585,1.604C103.811,140.713,104.287,140.867,104.847,140.867z"/>
	<path class="st1" d="M119.606,143.568c-0.3,0.06-0.575,0.095-0.825,0.105c-0.25,0.01-0.485,0.015-0.705,0.015
		c-1.44,0-2.54-0.335-3.3-1.005c-0.76-0.67-1.14-1.815-1.14-3.436v-14.279c0-0.721,0.36-1.08,1.08-1.08h1.08
		c0.72,0,1.08,0.359,1.08,1.08v2.79h2.58c0.72,0,1.08,0.359,1.08,1.079v0.87c0,0.721-0.36,1.08-1.08,1.08h-2.58v8.221
		c0,0.62,0.12,1.05,0.36,1.29c0.24,0.239,0.67,0.359,1.29,0.359c0.26,0,0.57-0.03,0.93-0.09c0.36-0.06,0.63,0.011,0.81,0.21
		c0.18,0.2,0.27,0.48,0.27,0.84v0.87c0,0.36-0.085,0.615-0.255,0.765C120.111,143.403,119.886,143.508,119.606,143.568z"/>
	<path class="st1" d="M123.566,123.648c0-0.72,0.36-1.08,1.08-1.08h1.08c0.72,0,1.08,0.36,1.08,1.08v1.02
		c0,0.721-0.36,1.08-1.08,1.08h-1.08c-0.72,0-1.08-0.359-1.08-1.08V123.648z M123.566,128.837c0-0.72,0.36-1.079,1.08-1.079h1.08
		c0.72,0,1.08,0.359,1.08,1.079v13.65c0,0.72-0.36,1.08-1.08,1.08h-1.08c-0.72,0-1.08-0.36-1.08-1.08V128.837z"/>
	<path class="st1" d="M140.995,138.587c0,0.9-0.135,1.686-0.405,2.355s-0.635,1.22-1.095,1.65c-0.46,0.43-1.016,0.755-1.665,0.975
		c-0.65,0.22-1.345,0.33-2.085,0.33c-0.76,0-1.46-0.11-2.1-0.33c-0.64-0.22-1.19-0.545-1.65-0.975
		c-0.46-0.431-0.825-0.98-1.095-1.65s-0.405-1.455-0.405-2.355v-5.85c0-0.88,0.135-1.654,0.405-2.325
		c0.27-0.67,0.635-1.225,1.095-1.665c0.46-0.439,1.01-0.77,1.65-0.989c0.64-0.221,1.34-0.33,2.1-0.33c0.74,0,1.435,0.109,2.085,0.33
		c0.649,0.22,1.205,0.55,1.665,0.989c0.46,0.44,0.825,0.995,1.095,1.665c0.27,0.671,0.405,1.445,0.405,2.325V138.587z
		 M137.755,132.947c0-0.96-0.195-1.614-0.585-1.965c-0.39-0.35-0.865-0.525-1.425-0.525c-0.56,0-1.035,0.176-1.425,0.525
		c-0.39,0.351-0.585,1.005-0.585,1.965v5.43c0,0.96,0.195,1.616,0.585,1.966c0.39,0.35,0.865,0.524,1.425,0.524
		c0.56,0,1.035-0.175,1.425-0.524s0.585-1.006,0.585-1.966V132.947z"/>
	<path class="st1" d="M153.926,143.568h-1.08c-0.72,0-1.08-0.36-1.08-1.08v-9.54c0-0.96-0.195-1.614-0.585-1.965
		c-0.39-0.35-0.865-0.525-1.425-0.525c-0.56,0-1.035,0.176-1.425,0.525c-0.39,0.351-0.585,1.005-0.585,1.965v9.54
		c0,0.72-0.36,1.08-1.08,1.08h-1.08c-0.72,0-1.08-0.36-1.08-1.08v-9.75c0-0.88,0.135-1.654,0.405-2.325
		c0.27-0.67,0.635-1.225,1.095-1.665c0.459-0.439,1.01-0.77,1.65-0.989c0.64-0.221,1.34-0.33,2.1-0.33
		c0.74,0,1.435,0.109,2.085,0.33c0.649,0.22,1.205,0.55,1.665,0.989c0.459,0.44,0.825,0.995,1.095,1.665
		c0.27,0.671,0.405,1.445,0.405,2.325v9.75C155.006,143.207,154.645,143.568,153.926,143.568z"/>
	<path class="st1" d="M162.475,142.488c0,0.72-0.36,1.08-1.08,1.08h-1.74c-0.72,0-1.08-0.36-1.08-1.08v-1.77
		c0-0.721,0.36-1.08,1.08-1.08h1.74c0.72,0,1.08,0.359,1.08,1.08V142.488z"/>
</g>
<line class="st0" x1="98.931" y1="198.294" x2="115.449" y2="358.61"/>
</svg>