<!-- Generator: Adobe Illustrator 21.0.0, SVG Export Plug-In  -->
<svg version="1.1"
	 xmlns="http://www.w3.org/2000/svg" xmlns:xlink="http://www.w3.org/1999/xlink" xmlns:a="http://ns.adobe.com/AdobeSVGViewerExtensions/3.0/"
	 x="0px" y="0px" width="221.336px" height="268.799px" viewBox="0 0 221.336 268.799"
	 style="enable-background:new 0 0 221.336 268.799;" xml:space="preserve">
<style type="text/css">
	.st0{fill:#FFFFFF;}
</style>
<defs>
</defs>
<g>
	<path class="st0" d="M54.239,0.959C54.239,0.32,54.578,0,55.259,0h19.62c0.68,0,1.021,0.34,1.021,1.02V1.74
		c0,0.719-0.341,1.079-1.021,1.079h-17.7v16.44h14.4c0.68,0,1.02,0.34,1.02,1.02V21c0,0.72-0.34,1.08-1.02,1.08h-14.4v17.1h17.7
		c0.68,0,1.021,0.359,1.021,1.08v0.72c0,0.681-0.341,1.021-1.021,1.021h-19.62c-0.681,0-1.02-0.32-1.02-0.961V0.959z"/>
	<path class="st0" d="M101.459,32.58c0,1.68-0.239,3.149-0.72,4.41c-0.479,1.26-1.16,2.309-2.04,3.149
		c-0.88,0.84-1.91,1.47-3.09,1.89c-1.181,0.42-2.451,0.631-3.811,0.631c-1.28,0-2.51-0.191-3.689-0.57
		c-1.181-0.38-2.22-0.961-3.12-1.74c-0.9-0.78-1.61-1.74-2.13-2.88c-0.521-1.14-0.78-2.47-0.78-3.99v-0.3
		c0-1.52,0.26-2.85,0.78-3.99c0.52-1.141,1.22-2.1,2.1-2.88s1.91-1.359,3.09-1.74c1.18-0.38,2.431-0.569,3.75-0.569h6.9v-4.021
		c0-1.399-0.18-2.589-0.54-3.569s-0.851-1.771-1.47-2.371c-0.621-0.6-1.351-1.039-2.19-1.319s-1.739-0.421-2.7-0.421
		c-1.84,0-3.37,0.592-4.59,1.771c-1.221,1.181-1.83,2.831-1.83,4.95c0,0.6-0.3,0.9-0.899,0.9h-0.9c-0.64,0-0.96-0.32-0.96-0.961
		c0-2.84,0.859-5.09,2.58-6.75c1.72-1.658,3.92-2.489,6.6-2.489c1.359,0,2.63,0.21,3.811,0.63c1.18,0.42,2.21,1.05,3.09,1.891
		c0.88,0.84,1.561,1.889,2.04,3.149c0.48,1.26,0.72,2.729,0.72,4.409V32.58z M91.799,40.08c0.961,0,1.851-0.141,2.671-0.42
		c0.819-0.279,1.549-0.721,2.189-1.32c0.64-0.6,1.14-1.39,1.5-2.37c0.36-0.979,0.54-2.169,0.54-3.57V26.58h-6.9
		c-1.92,0-3.55,0.561-4.89,1.68c-1.341,1.12-2.01,2.801-2.01,5.039v0.061c0,2.24,0.669,3.921,2.01,5.04
		C88.249,39.52,89.879,40.08,91.799,40.08z"/>
	<path class="st0" d="M124.259,18.119c0-2-0.621-3.469-1.86-4.41c-1.24-0.939-2.721-1.41-4.44-1.41s-3.2,0.461-4.439,1.381
		c-1.24,0.92-1.86,2.381-1.86,4.38v0.12c0,1.48,0.391,2.64,1.17,3.48c0.78,0.84,1.75,1.539,2.91,2.1s2.43,1.061,3.811,1.5
		c1.38,0.44,2.649,1.01,3.81,1.71s2.13,1.63,2.91,2.79s1.17,2.699,1.17,4.619c0,1.32-0.24,2.49-0.72,3.511
		c-0.48,1.021-1.141,1.89-1.98,2.61c-0.84,0.72-1.83,1.26-2.97,1.619c-1.141,0.36-2.391,0.541-3.75,0.541
		c-1.36,0-2.61-0.191-3.75-0.57c-1.141-0.38-2.13-0.93-2.97-1.65c-0.841-0.72-1.491-1.59-1.95-2.609
		c-0.461-1.021-0.69-2.17-0.69-3.451v-0.18c0-0.639,0.32-0.959,0.96-0.959h0.9c0.6,0,0.899,0.299,0.899,0.899v0.06
		c0,1.041,0.181,1.931,0.54,2.67c0.36,0.741,0.841,1.351,1.44,1.83c0.6,0.48,1.3,0.831,2.1,1.051s1.64,0.33,2.521,0.33
		c0.879,0,1.719-0.11,2.52-0.33c0.8-0.22,1.5-0.561,2.101-1.021c0.6-0.46,1.08-1.05,1.439-1.771c0.36-0.719,0.54-1.599,0.54-2.64
		v-0.12c0-1.479-0.39-2.64-1.17-3.479c-0.78-0.841-1.75-1.53-2.91-2.07s-2.42-1.029-3.779-1.47c-1.36-0.439-2.621-1.01-3.78-1.71
		c-1.161-0.7-2.13-1.62-2.91-2.761c-0.78-1.14-1.17-2.689-1.17-4.649c0-1.319,0.229-2.499,0.69-3.54
		c0.459-1.039,1.089-1.91,1.89-2.609c0.8-0.7,1.76-1.24,2.88-1.621c1.119-0.379,2.319-0.569,3.6-0.569s2.47,0.19,3.57,0.569
		c1.1,0.381,2.06,0.931,2.88,1.65c0.819,0.721,1.46,1.59,1.92,2.609c0.46,1.021,0.69,2.151,0.69,3.391v0.18
		c0,0.641-0.32,0.961-0.96,0.961h-0.9c-0.6,0-0.899-0.301-0.899-0.9V18.119z"/>
	<path class="st0" d="M151.738,11.34c0-0.64,0.32-0.961,0.96-0.961h0.9c0.64,0,0.96,0.321,0.96,0.961v31.5
		c0,1.68-0.25,3.15-0.75,4.41c-0.501,1.26-1.181,2.299-2.04,3.119c-0.86,0.82-1.89,1.43-3.09,1.83s-2.48,0.6-3.84,0.6
		c-2.841,0-5.11-0.77-6.811-2.309c-1.7-1.541-2.55-3.531-2.55-5.971c0-0.641,0.32-0.96,0.96-0.96h0.9c0.6,0,0.899,0.3,0.899,0.899
		c0,1.801,0.609,3.22,1.83,4.261c1.22,1.04,2.81,1.56,4.771,1.56c0.96,0,1.859-0.13,2.7-0.39c0.84-0.261,1.569-0.681,2.189-1.261
		s1.11-1.35,1.47-2.31c0.36-0.96,0.54-2.14,0.54-3.54v-6.9c-0.8,1.361-1.829,2.371-3.09,3.031c-1.26,0.659-2.71,0.989-4.35,0.989
		c-1.28,0-2.48-0.2-3.601-0.601c-1.12-0.398-2.09-1.009-2.909-1.829c-0.82-0.819-1.461-1.851-1.92-3.091
		c-0.461-1.238-0.69-2.699-0.69-4.379V11.34c0-0.64,0.319-0.961,0.96-0.961h0.84c0.64,0,0.96,0.321,0.96,0.961v18.3
		c0,1.4,0.181,2.591,0.54,3.569c0.36,0.98,0.86,1.771,1.5,2.371c0.64,0.6,1.37,1.04,2.19,1.319c0.819,0.28,1.71,0.42,2.67,0.42
		s1.859-0.14,2.7-0.42c0.84-0.279,1.569-0.72,2.189-1.319c0.62-0.601,1.11-1.391,1.47-2.371c0.36-0.979,0.54-2.169,0.54-3.569V11.34
		z"/>
	<path class="st0" d="M168.297,41.039c0,0.641-0.32,0.961-0.96,0.961h-2.1c-0.641,0-0.96-0.32-0.96-0.961V38.1
		c0-0.64,0.319-0.96,0.96-0.96h2.1c0.64,0,0.96,0.32,0.96,0.96V41.039z"/>
	<path class="st0" d="M44.489,83.76c0-2.08,0.3-3.891,0.9-5.43c0.6-1.54,1.43-2.83,2.489-3.871c1.06-1.039,2.319-1.819,3.78-2.34
		c1.46-0.52,3.05-0.779,4.771-0.779c1.719,0,3.309,0.26,4.77,0.779c1.46,0.521,2.72,1.301,3.78,2.34
		c1.06,1.041,1.89,2.331,2.49,3.871c0.6,1.539,0.899,3.35,0.899,5.43v18.48c0,3.399-0.771,6.09-2.31,8.069
		c-1.541,1.979-3.551,3.271-6.03,3.87v2.22c0,1.88,0.38,3.21,1.14,3.99s1.98,1.17,3.66,1.17c0.64,0,1.141-0.06,1.5-0.181
		c0.64-0.16,0.96,0.121,0.96,0.841V123c0,0.559-0.32,0.92-0.96,1.08c-0.359,0.119-0.921,0.18-1.68,0.18c-2.2,0-4-0.561-5.4-1.68
		c-1.4-1.121-2.1-3.061-2.1-5.82v-2.1h-0.72c-1.721,0-3.311-0.262-4.771-0.781c-1.461-0.519-2.721-1.299-3.78-2.34
		c-1.06-1.039-1.89-2.329-2.489-3.869c-0.601-1.539-0.9-3.35-0.9-5.43V83.76z M47.43,101.879c0,1.801,0.239,3.341,0.72,4.621
		c0.479,1.28,1.13,2.31,1.95,3.09c0.819,0.779,1.77,1.35,2.85,1.709c1.08,0.361,2.239,0.541,3.48,0.541
		c1.239,0,2.399-0.18,3.479-0.541c1.08-0.359,2.029-0.93,2.85-1.709c0.82-0.78,1.471-1.81,1.95-3.09
		c0.48-1.28,0.721-2.82,0.721-4.621v-17.76c0-1.8-0.24-3.339-0.721-4.619c-0.479-1.28-1.13-2.311-1.95-3.09
		c-0.82-0.781-1.77-1.351-2.85-1.711c-1.08-0.359-2.24-0.539-3.479-0.539c-1.241,0-2.4,0.18-3.48,0.539
		c-1.08,0.36-2.03,0.93-2.85,1.711c-0.82,0.779-1.471,1.81-1.95,3.09c-0.48,1.28-0.72,2.819-0.72,4.619V101.879z"/>
	<path class="st0" d="M78.388,82.379h0.841c0.639,0,0.96,0.321,0.96,0.961v21.06c0,1.401,0.18,2.591,0.54,3.57
		c0.359,0.98,0.859,1.771,1.5,2.37c0.639,0.6,1.369,1.041,2.189,1.32c0.819,0.279,1.71,0.42,2.67,0.42s1.86-0.141,2.7-0.42
		s1.569-0.721,2.19-1.32c0.619-0.6,1.109-1.39,1.47-2.37c0.36-0.979,0.54-2.169,0.54-3.57V83.34c0-0.64,0.319-0.961,0.96-0.961h0.9
		c0.639,0,0.96,0.321,0.96,0.961v21.24c0,1.68-0.251,3.149-0.75,4.41c-0.501,1.26-1.181,2.309-2.04,3.149
		c-0.861,0.84-1.891,1.47-3.091,1.89c-1.199,0.42-2.48,0.631-3.84,0.631c-1.4,0-2.68-0.211-3.84-0.631s-2.181-1.05-3.06-1.89
		c-0.881-0.841-1.561-1.89-2.04-3.149c-0.48-1.261-0.721-2.73-0.721-4.41V83.34C77.428,82.7,77.748,82.379,78.388,82.379z"/>
	<path class="st0" d="M106.289,72.959c0-0.639,0.319-0.959,0.96-0.959h0.899c0.64,0,0.96,0.32,0.96,0.959v3.24
		c0,0.641-0.32,0.961-0.96,0.961h-0.899c-0.641,0-0.96-0.32-0.96-0.961V72.959z M106.289,83.34c0-0.64,0.319-0.961,0.96-0.961h0.899
		c0.64,0,0.96,0.321,0.96,0.961v29.699c0,0.641-0.32,0.961-0.96,0.961h-0.899c-0.641,0-0.96-0.32-0.96-0.961V83.34z"/>
	<path class="st0" d="M120.808,104.399c0,1.401,0.181,2.591,0.54,3.57c0.36,0.98,0.85,1.771,1.471,2.37
		c0.619,0.6,1.35,1.041,2.189,1.32s1.74,0.42,2.7,0.42c1.8,0,3.35-0.601,4.649-1.801c1.3-1.199,1.95-2.88,1.95-5.039
		c0-0.601,0.3-0.9,0.9-0.9h0.899c0.64,0,0.961,0.32,0.961,0.959c0,1.441-0.24,2.741-0.721,3.9c-0.479,1.161-1.14,2.141-1.979,2.94
		s-1.83,1.421-2.971,1.86c-1.14,0.439-2.369,0.66-3.689,0.66c-1.4,0-2.69-0.211-3.87-0.631c-1.181-0.42-2.2-1.05-3.06-1.89
		c-0.861-0.841-1.541-1.89-2.04-3.149c-0.501-1.261-0.75-2.73-0.75-4.41V91.799c0-1.68,0.249-3.149,0.75-4.409
		c0.499-1.261,1.179-2.31,2.04-3.149c0.859-0.841,1.879-1.471,3.06-1.891c1.18-0.42,2.47-0.63,3.87-0.63
		c1.32,0,2.55,0.22,3.689,0.659c1.141,0.441,2.131,1.061,2.971,1.861c0.84,0.8,1.5,1.779,1.979,2.939
		c0.48,1.16,0.721,2.46,0.721,3.9c0,0.64-0.321,0.959-0.961,0.959h-0.899c-0.601,0-0.9-0.299-0.9-0.899c0-2.16-0.65-3.841-1.95-5.04
		c-1.3-1.2-2.85-1.801-4.649-1.801c-0.96,0-1.86,0.141-2.7,0.421s-1.57,0.72-2.189,1.319c-0.621,0.601-1.11,1.391-1.471,2.371
		c-0.359,0.98-0.54,2.17-0.54,3.569V104.399z"/>
	<path class="st0" d="M153.508,97.379l-5.101,6.061v9.6c0,0.641-0.32,0.961-0.96,0.961h-0.899c-0.641,0-0.96-0.32-0.96-0.961v-40.74
		c0-0.639,0.319-0.959,0.96-0.959h0.899c0.64,0,0.96,0.32,0.96,0.959V99.84l13.681-16.801c0.279-0.439,0.739-0.66,1.38-0.66h1.319
		c0.32,0,0.52,0.141,0.601,0.42c0.079,0.281,0.02,0.521-0.181,0.721l-9.899,11.7l10.2,17.64c0.199,0.28,0.239,0.54,0.119,0.78
		c-0.119,0.239-0.359,0.36-0.72,0.36h-1.2c-0.6,0-1-0.24-1.199-0.721L153.508,97.379z"/>
	<path class="st0" d="M176.847,113.039c0,0.641-0.32,0.961-0.96,0.961h-2.1c-0.641,0-0.96-0.32-0.96-0.961V110.1
		c0-0.64,0.319-0.96,0.96-0.96h2.1c0.64,0,0.96,0.32,0.96,0.96V113.039z"/>
	<path class="st0" d="M45.389,144h0.9c0.68,0,1.02,0.32,1.02,0.959v18.301h18v-18.301c0-0.639,0.34-0.959,1.021-0.959h0.899
		c0.721,0,1.08,0.32,1.08,0.959v40.08c0,0.641-0.359,0.961-1.08,0.961h-0.899c-0.681,0-1.021-0.32-1.021-0.961V166.08h-18v18.959
		c0,0.641-0.34,0.961-1.02,0.961h-0.9c-0.681,0-1.02-0.32-1.02-0.961v-40.08C44.369,144.32,44.708,144,45.389,144z"/>
	<path class="st0" d="M97.229,176.58c0,1.68-0.24,3.149-0.721,4.41c-0.479,1.26-1.16,2.309-2.04,3.149
		c-0.88,0.84-1.91,1.47-3.09,1.89s-2.45,0.631-3.81,0.631c-1.4,0-2.69-0.211-3.87-0.631c-1.181-0.42-2.2-1.05-3.06-1.89
		c-0.861-0.841-1.541-1.89-2.04-3.149c-0.501-1.261-0.75-2.73-0.75-4.41v-12.781c0-1.68,0.249-3.149,0.75-4.409
		c0.499-1.261,1.179-2.31,2.04-3.149c0.859-0.841,1.879-1.471,3.06-1.891c1.18-0.42,2.47-0.63,3.87-0.63
		c1.359,0,2.63,0.21,3.81,0.63s2.21,1.05,3.09,1.891c0.88,0.84,1.561,1.889,2.04,3.149c0.48,1.26,0.721,2.729,0.721,4.409V176.58z
		 M94.469,163.979c0-1.399-0.18-2.589-0.539-3.569c-0.36-0.98-0.861-1.771-1.5-2.371c-0.641-0.6-1.371-1.039-2.19-1.319
		c-0.82-0.28-1.71-0.421-2.67-0.421s-1.86,0.141-2.7,0.421s-1.57,0.72-2.189,1.319c-0.621,0.601-1.11,1.391-1.471,2.371
		c-0.359,0.98-0.54,2.17-0.54,3.569v12.42c0,1.401,0.181,2.591,0.54,3.57c0.36,0.98,0.85,1.771,1.471,2.37
		c0.619,0.6,1.35,1.041,2.189,1.32s1.74,0.42,2.7,0.42s1.85-0.141,2.67-0.42c0.819-0.279,1.55-0.721,2.19-1.32
		c0.639-0.6,1.14-1.39,1.5-2.37c0.359-0.979,0.539-2.169,0.539-3.57V163.979z"/>
	<path class="st0" d="M137.788,185.039c0,0.641-0.32,0.961-0.96,0.961h-0.84c-0.641,0-0.96-0.32-0.96-0.961v-22.14
		c0-2.399-0.57-4.1-1.71-5.101c-1.141-0.998-2.551-1.5-4.23-1.5s-3.09,0.502-4.229,1.5c-1.141,1.001-1.711,2.701-1.711,5.101v22.14
		c0,0.641-0.32,0.961-0.96,0.961h-0.899c-0.641,0-0.96-0.32-0.96-0.961v-22.14c0-1.2-0.16-2.22-0.48-3.06s-0.75-1.52-1.29-2.041
		c-0.54-0.519-1.17-0.899-1.89-1.139c-0.72-0.24-1.5-0.361-2.34-0.361c-1.681,0-3.081,0.502-4.2,1.5
		c-1.12,1.001-1.68,2.701-1.68,5.101v22.14c0,0.641-0.321,0.961-0.96,0.961h-0.841c-0.64,0-0.96-0.32-0.96-0.961v-22.56
		c0-2.96,0.8-5.16,2.4-6.601c1.6-1.439,3.62-2.159,6.06-2.159c1.801,0,3.37,0.431,4.711,1.29c1.339,0.86,2.289,2.15,2.85,3.869
		c0.56-1.719,1.51-3.009,2.85-3.869c1.34-0.859,2.93-1.29,4.771-1.29c2.399,0,4.41,0.72,6.03,2.159
		c1.619,1.44,2.43,3.641,2.43,6.601V185.039z"/>
	<path class="st0" d="M162.567,177.359c0-0.6,0.3-0.9,0.9-0.9h0.899c0.64,0,0.961,0.321,0.961,0.961c0,1.4-0.231,2.67-0.69,3.81
		c-0.46,1.14-1.11,2.11-1.95,2.91s-1.83,1.421-2.97,1.86s-2.391,0.66-3.75,0.66c-1.4,0-2.69-0.211-3.87-0.631
		c-1.181-0.42-2.2-1.05-3.06-1.89c-0.861-0.841-1.541-1.89-2.04-3.149c-0.501-1.261-0.75-2.73-0.75-4.41v-12.781
		c0-1.68,0.249-3.149,0.75-4.409c0.499-1.261,1.179-2.31,2.04-3.149c0.859-0.841,1.879-1.471,3.06-1.891
		c1.18-0.42,2.47-0.63,3.87-0.63c1.359,0,2.63,0.21,3.81,0.63s2.21,1.05,3.09,1.891c0.88,0.84,1.561,1.889,2.04,3.149
		c0.48,1.26,0.721,2.729,0.721,4.409v5.701c0,0.64-0.321,0.959-0.96,0.959h-15.601v5.94c0,1.401,0.181,2.591,0.54,3.57
		c0.36,0.98,0.85,1.771,1.471,2.37c0.619,0.6,1.35,1.041,2.189,1.32s1.74,0.42,2.7,0.42c1.839,0,3.399-0.59,4.68-1.771
		C161.928,181.131,162.567,179.48,162.567,177.359z M149.067,167.879h13.8v-3.899c0-1.399-0.18-2.589-0.539-3.569
		c-0.36-0.98-0.861-1.771-1.5-2.371c-0.641-0.6-1.371-1.039-2.19-1.319c-0.82-0.28-1.71-0.421-2.67-0.421s-1.86,0.141-2.7,0.421
		s-1.57,0.72-2.189,1.319c-0.621,0.601-1.11,1.391-1.471,2.371c-0.359,0.98-0.54,2.17-0.54,3.569V167.879z"/>
	<path class="st0" d="M178.167,185.039c0,0.641-0.32,0.961-0.96,0.961h-2.1c-0.641,0-0.96-0.32-0.96-0.961V182.1
		c0-0.64,0.319-0.96,0.96-0.96h2.1c0.64,0,0.96,0.32,0.96,0.96V185.039z"/>
	<path class="st0" d="M0,227.76c0-2.08,0.3-3.891,0.9-5.43c0.6-1.54,1.43-2.83,2.489-3.871c1.06-1.039,2.319-1.819,3.78-2.34
		c1.46-0.52,3.05-0.779,4.771-0.779c1.719,0,3.309,0.26,4.77,0.779c1.46,0.521,2.72,1.301,3.78,2.34
		c1.06,1.041,1.89,2.331,2.49,3.871c0.6,1.539,0.899,3.35,0.899,5.43v18.48c0,2.08-0.3,3.891-0.899,5.43
		c-0.601,1.54-1.431,2.83-2.49,3.869c-1.061,1.041-2.32,1.821-3.78,2.34c-1.461,0.52-3.051,0.781-4.77,0.781
		c-1.721,0-3.311-0.262-4.771-0.781c-1.461-0.519-2.721-1.299-3.78-2.34C2.33,254.5,1.5,253.21,0.9,251.67
		C0.3,250.131,0,248.32,0,246.24V227.76z M2.94,245.879c0,1.801,0.239,3.341,0.72,4.621c0.479,1.28,1.13,2.31,1.95,3.09
		c0.819,0.779,1.77,1.35,2.85,1.709c1.08,0.361,2.239,0.541,3.48,0.541c1.239,0,2.399-0.18,3.479-0.541
		c1.08-0.359,2.029-0.93,2.85-1.709c0.82-0.78,1.471-1.81,1.95-3.09c0.48-1.28,0.721-2.82,0.721-4.621v-17.76
		c0-1.8-0.24-3.339-0.721-4.619c-0.479-1.28-1.13-2.311-1.95-3.09c-0.82-0.781-1.77-1.351-2.85-1.711
		c-1.08-0.359-2.24-0.539-3.479-0.539c-1.241,0-2.4,0.18-3.48,0.539c-1.08,0.36-2.03,0.93-2.85,1.711
		c-0.82,0.779-1.471,1.81-1.95,3.09c-0.48,1.28-0.72,2.819-0.72,4.619V245.879z"/>
	<path class="st0" d="M51.359,258h-0.9c-0.641,0-0.96-0.32-0.96-0.961v-21.06c0-1.399-0.18-2.589-0.54-3.569
		s-0.851-1.771-1.47-2.371c-0.621-0.6-1.351-1.039-2.19-1.319s-1.74-0.421-2.7-0.421s-1.851,0.141-2.67,0.421
		c-0.82,0.28-1.551,0.72-2.189,1.319c-0.641,0.601-1.141,1.391-1.5,2.371c-0.36,0.98-0.54,2.17-0.54,3.569v21.06
		c0,0.641-0.321,0.961-0.96,0.961h-0.841c-0.64,0-0.96-0.32-0.96-0.961v-21.24c0-1.68,0.24-3.149,0.721-4.409
		c0.479-1.261,1.159-2.31,2.04-3.149c0.879-0.841,1.899-1.471,3.06-1.891s2.439-0.63,3.84-0.63c1.359,0,2.641,0.21,3.84,0.63
		c1.2,0.42,2.229,1.05,3.091,1.891c0.859,0.84,1.539,1.889,2.04,3.149c0.499,1.26,0.75,2.729,0.75,4.409v21.24
		C52.319,257.68,51.998,258,51.359,258z"/>
	<path class="st0" d="M85.199,258c-0.801,0.158-1.681,0.24-2.641,0.24c-2.439,0-4.36-0.561-5.76-1.681c-1.4-1.12-2.1-3.1-2.1-5.94
		V219.6c0-0.64,0.319-0.96,0.96-0.96h0.899c0.64,0,0.96,0.32,0.96,0.96v6.779h7.62c0.64,0,0.96,0.321,0.96,0.961V228
		c0,0.64-0.32,0.959-0.96,0.959h-7.62v21.48c0,2.04,0.44,3.42,1.32,4.141c0.88,0.719,2.22,1.08,4.021,1.08
		c0.359,0,0.729-0.021,1.109-0.061c0.38-0.039,0.77-0.1,1.17-0.18c0.64-0.121,0.96,0.18,0.96,0.899v0.66
		C86.099,257.54,85.799,257.879,85.199,258z"/>
	<path class="st0" d="M96.298,257.039c0,0.641-0.32,0.961-0.96,0.961h-0.899c-0.641,0-0.96-0.32-0.96-0.961v-40.68
		c0-0.639,0.319-0.96,0.96-0.96h0.899c0.64,0,0.96,0.321,0.96,0.96v13.439c0.76-1.359,1.779-2.379,3.061-3.059
		c1.279-0.68,2.739-1.021,4.38-1.021c1.279,0,2.479,0.21,3.6,0.63c1.119,0.42,2.09,1.041,2.91,1.859
		c0.819,0.82,1.46,1.852,1.92,3.09c0.459,1.241,0.69,2.682,0.69,4.32v21.42c0,0.641-0.321,0.961-0.96,0.961h-0.841
		c-0.64,0-0.96-0.32-0.96-0.961v-21.06c0-1.399-0.18-2.589-0.54-3.569c-0.359-0.98-0.86-1.771-1.5-2.371
		c-0.64-0.6-1.37-1.039-2.189-1.319c-0.82-0.28-1.71-0.421-2.67-0.421s-1.86,0.141-2.7,0.421s-1.57,0.72-2.19,1.319
		c-0.62,0.601-1.109,1.391-1.47,2.371c-0.359,0.98-0.54,2.17-0.54,3.569V257.039z"/>
	<path class="st0" d="M137.638,249.359c0-0.6,0.3-0.9,0.9-0.9h0.899c0.64,0,0.961,0.321,0.961,0.961c0,1.4-0.231,2.67-0.69,3.81
		c-0.46,1.14-1.11,2.11-1.95,2.91s-1.83,1.421-2.97,1.86s-2.391,0.66-3.75,0.66c-1.4,0-2.69-0.211-3.87-0.631
		c-1.181-0.42-2.2-1.05-3.06-1.89c-0.861-0.841-1.541-1.89-2.04-3.149c-0.501-1.261-0.75-2.73-0.75-4.41v-12.781
		c0-1.68,0.249-3.149,0.75-4.409c0.499-1.261,1.179-2.31,2.04-3.149c0.859-0.841,1.879-1.471,3.06-1.891
		c1.18-0.42,2.47-0.63,3.87-0.63c1.359,0,2.63,0.21,3.81,0.63s2.21,1.05,3.09,1.891c0.88,0.84,1.561,1.889,2.04,3.149
		c0.48,1.26,0.721,2.729,0.721,4.409v5.701c0,0.64-0.321,0.959-0.96,0.959h-15.601v5.94c0,1.401,0.181,2.591,0.54,3.57
		c0.36,0.98,0.85,1.771,1.471,2.37c0.619,0.6,1.35,1.041,2.189,1.32s1.74,0.42,2.7,0.42c1.839,0,3.399-0.59,4.68-1.771
		C136.998,253.131,137.638,251.48,137.638,249.359z M124.138,239.879h13.8v-3.899c0-1.399-0.18-2.589-0.539-3.569
		c-0.36-0.98-0.861-1.771-1.5-2.371c-0.641-0.6-1.371-1.039-2.19-1.319c-0.82-0.28-1.71-0.421-2.67-0.421s-1.86,0.141-2.7,0.421
		s-1.57,0.72-2.189,1.319c-0.621,0.601-1.11,1.391-1.471,2.371c-0.359,0.98-0.54,2.17-0.54,3.569V239.879z"/>
	<path class="st0" d="M178.077,251.819c-0.761,1.401-1.78,2.431-3.06,3.091c-1.281,0.659-2.761,0.989-4.44,0.989
		c-1.28,0-2.48-0.2-3.6-0.601c-1.121-0.398-2.091-1.009-2.91-1.829c-0.82-0.819-1.461-1.851-1.92-3.091
		c-0.461-1.238-0.69-2.699-0.69-4.379v-10.201c0-1.68,0.25-3.149,0.75-4.409c0.5-1.261,1.18-2.31,2.04-3.149
		c0.859-0.841,1.88-1.471,3.061-1.891c1.179-0.42,2.469-0.63,3.869-0.63c1.359,0,2.63,0.21,3.811,0.63
		c1.18,0.42,2.21,1.05,3.09,1.891c0.88,0.84,1.56,1.889,2.04,3.149c0.48,1.26,0.72,2.729,0.72,4.409v23.041
		c0,1.68-0.239,3.15-0.72,4.41s-1.16,2.299-2.04,3.119s-1.91,1.43-3.09,1.83c-1.181,0.4-2.451,0.6-3.811,0.6
		c-2.88,0-5.17-0.77-6.869-2.309c-1.701-1.541-2.551-3.531-2.551-5.971c0-0.641,0.32-0.96,0.96-0.96h0.96c0.601,0,0.9,0.3,0.9,0.899
		c0,1.801,0.6,3.22,1.8,4.261c1.2,1.04,2.8,1.56,4.8,1.56c0.96,0,1.851-0.13,2.671-0.39c0.819-0.261,1.549-0.681,2.189-1.261
		c0.64-0.58,1.14-1.35,1.5-2.31s0.54-2.14,0.54-3.54V251.819z M178.077,235.979c0-1.399-0.18-2.589-0.54-3.569
		s-0.86-1.771-1.5-2.371c-0.641-0.6-1.37-1.039-2.189-1.319c-0.82-0.28-1.711-0.421-2.671-0.421s-1.859,0.141-2.699,0.421
		c-0.841,0.28-1.57,0.72-2.19,1.319c-0.62,0.601-1.11,1.391-1.47,2.371c-0.36,0.98-0.54,2.17-0.54,3.569v9.66
		c0,1.4,0.18,2.591,0.54,3.569c0.359,0.98,0.85,1.771,1.47,2.371c0.62,0.6,1.35,1.04,2.19,1.319c0.84,0.28,1.739,0.42,2.699,0.42
		s1.851-0.14,2.671-0.42c0.819-0.279,1.549-0.72,2.189-1.319c0.64-0.601,1.14-1.391,1.5-2.371c0.36-0.979,0.54-2.169,0.54-3.569
		V235.979z"/>
	<path class="st0" d="M208.677,248.58c0,1.68-0.24,3.149-0.721,4.41c-0.479,1.26-1.16,2.309-2.04,3.149
		c-0.88,0.84-1.91,1.47-3.09,1.89s-2.45,0.631-3.81,0.631c-1.4,0-2.69-0.211-3.87-0.631c-1.181-0.42-2.2-1.05-3.06-1.89
		c-0.861-0.841-1.541-1.89-2.04-3.149c-0.501-1.261-0.75-2.73-0.75-4.41v-12.781c0-1.68,0.249-3.149,0.75-4.409
		c0.499-1.261,1.179-2.31,2.04-3.149c0.859-0.841,1.879-1.471,3.06-1.891c1.18-0.42,2.47-0.63,3.87-0.63
		c1.359,0,2.63,0.21,3.81,0.63s2.21,1.05,3.09,1.891c0.88,0.84,1.561,1.889,2.04,3.149c0.48,1.26,0.721,2.729,0.721,4.409V248.58z
		 M205.916,235.979c0-1.399-0.18-2.589-0.539-3.569c-0.36-0.98-0.861-1.771-1.5-2.371c-0.641-0.6-1.371-1.039-2.19-1.319
		c-0.82-0.28-1.71-0.421-2.67-0.421s-1.86,0.141-2.7,0.421s-1.57,0.72-2.189,1.319c-0.621,0.601-1.11,1.391-1.471,2.371
		c-0.359,0.98-0.54,2.17-0.54,3.569v12.42c0,1.401,0.181,2.591,0.54,3.57c0.36,0.98,0.85,1.771,1.471,2.37
		c0.619,0.6,1.35,1.041,2.189,1.32s1.74,0.42,2.7,0.42s1.85-0.141,2.67-0.42c0.819-0.279,1.55-0.721,2.19-1.32
		c0.639-0.6,1.14-1.39,1.5-2.37c0.359-0.979,0.539-2.169,0.539-3.57V235.979z"/>
	<path class="st0" d="M221.336,257.039c0,0.641-0.32,0.961-0.96,0.961h-2.1c-0.641,0-0.96-0.32-0.96-0.961V254.1
		c0-0.64,0.319-0.96,0.96-0.96h2.1c0.64,0,0.96,0.32,0.96,0.96V257.039z"/>
</g>
</svg>