<!-- Generator: Adobe Illustrator 21.0.0, SVG Export Plug-In  -->
<svg version="1.1"
	 xmlns="http://www.w3.org/2000/svg" xmlns:xlink="http://www.w3.org/1999/xlink" xmlns:a="http://ns.adobe.com/AdobeSVGViewerExtensions/3.0/"
	 x="0px" y="0px" width="260px" height="60px" viewBox="0 0 260 60" style="enable-background:new 0 0 260 60;"
	 xml:space="preserve">
<style type="text/css">
	.st0{fill:#FF0000;}
	.st1{fill:#FFFFFF;}
</style>
<defs>
</defs>
<g>
	<path class="st0" d="M230,60H30C13.5,60,0,46.5,0,30v0C0,13.5,13.5,0,30,0h200c16.5,0,30,13.5,30,30v0C260,46.5,246.5,60,230,60z"
		/>
</g>
<g>
	<path class="st1" d="M68.609,39c-0.32,0.064-0.613,0.101-0.88,0.112c-0.267,0.01-0.518,0.016-0.752,0.016
		c-1.536,0-2.709-0.356-3.52-1.072c-0.811-0.714-1.216-1.936-1.216-3.664V19.16c0-0.769,0.384-1.152,1.152-1.152h1.152
		c0.768,0,1.152,0.384,1.152,1.152v2.976h2.752c0.768,0,1.152,0.384,1.152,1.152v0.928c0,0.769-0.384,1.152-1.152,1.152h-2.752
		v8.768c0,0.662,0.128,1.12,0.384,1.376c0.256,0.256,0.714,0.385,1.376,0.385c0.277,0,0.608-0.032,0.992-0.097
		c0.384-0.063,0.672,0.011,0.864,0.225c0.192,0.213,0.288,0.512,0.288,0.896v0.928c0,0.385-0.091,0.656-0.272,0.816
		C69.148,38.824,68.908,38.935,68.609,39z"/>
	<path class="st1" d="M78.177,25.208c-0.747,0-1.28,0.149-1.6,0.448c-0.32,0.299-0.48,0.821-0.48,1.567v10.624
		c0,0.769-0.384,1.152-1.152,1.152h-1.152c-0.768,0-1.152-0.384-1.152-1.152v-10.88c0-1.834,0.442-3.125,1.328-3.872
		c0.885-0.746,2.128-1.12,3.728-1.12c0.235,0,0.485,0.006,0.752,0.017c0.266,0.011,0.56,0.048,0.88,0.111
		c0.298,0.064,0.539,0.177,0.72,0.337c0.181,0.159,0.272,0.432,0.272,0.815v0.928c0,0.385-0.096,0.684-0.288,0.896
		c-0.192,0.214-0.48,0.288-0.864,0.224C78.785,25.24,78.454,25.208,78.177,25.208z"/>
	<path class="st1" d="M90.497,23.288c0-0.769,0.384-1.152,1.152-1.152h1.152c0.768,0,1.152,0.384,1.152,1.152v15.968
		c0,0.938-0.144,1.755-0.432,2.448s-0.677,1.264-1.168,1.712c-0.491,0.448-1.083,0.784-1.776,1.008
		c-0.694,0.225-1.435,0.336-2.224,0.336c-0.854,0-1.616-0.123-2.288-0.368s-1.243-0.575-1.712-0.991
		c-0.47-0.416-0.827-0.902-1.072-1.456c-0.246-0.556-0.368-1.152-0.368-1.792c0-0.769,0.384-1.152,1.152-1.152h1.312
		c0.661,0,0.992,0.33,0.992,0.992c0,0.469,0.16,0.869,0.48,1.2c0.32,0.33,0.821,0.496,1.504,0.496c0.597,0,1.104-0.16,1.52-0.48
		s0.624-0.992,0.624-2.016v-2.849c-0.747,0.896-1.803,1.345-3.168,1.345c-1.323,0-2.416-0.433-3.28-1.297
		c-0.864-0.863-1.296-2.191-1.296-3.983v-9.12c0-0.769,0.384-1.152,1.152-1.152h1.152c0.768,0,1.152,0.384,1.152,1.152V31.8
		c0,1.024,0.208,1.724,0.624,2.097s0.922,0.56,1.52,0.56c0.597,0,1.104-0.187,1.52-0.56s0.624-1.072,0.624-2.097V23.288z"/>
	<path class="st1" d="M123.712,37.847c0,0.769-0.384,1.152-1.152,1.152h-1.152c-0.768,0-1.152-0.384-1.152-1.152V27.512
		c0-0.96-0.198-1.615-0.592-1.968c-0.395-0.352-0.87-0.528-1.424-0.528c-0.555,0-1.03,0.177-1.424,0.528
		c-0.395,0.353-0.592,1.008-0.592,1.968v10.336c0,0.769-0.384,1.152-1.152,1.152h-1.152c-0.768,0-1.152-0.384-1.152-1.152V27.512
		c0-0.96-0.197-1.615-0.592-1.968c-0.395-0.352-0.87-0.528-1.424-0.528s-1.029,0.177-1.424,0.528
		c-0.395,0.353-0.592,1.008-0.592,1.968v10.336c0,0.769-0.384,1.152-1.152,1.152h-1.152c-0.768,0-1.152-0.384-1.152-1.152V26.872
		c0-0.854,0.128-1.595,0.384-2.224c0.256-0.63,0.608-1.157,1.056-1.584c0.448-0.427,0.976-0.747,1.584-0.961
		c0.608-0.213,1.274-0.319,2-0.319c0.96,0,1.797,0.208,2.512,0.624s1.275,1.008,1.68,1.775c0.405-0.768,0.965-1.359,1.68-1.775
		c0.714-0.416,1.552-0.624,2.512-0.624c0.725,0,1.392,0.106,2,0.319c0.608,0.214,1.136,0.534,1.584,0.961
		c0.448,0.427,0.8,0.954,1.056,1.584c0.256,0.629,0.384,1.37,0.384,2.224V37.847z"/>
	<path class="st1" d="M135.039,34.328c0-0.661,0.331-0.992,0.992-0.992h1.312c0.768,0,1.152,0.384,1.152,1.152
		c0,1.451-0.496,2.624-1.488,3.52c-0.992,0.896-2.31,1.344-3.952,1.344c-0.812,0-1.558-0.117-2.24-0.352
		c-0.683-0.234-1.27-0.587-1.76-1.056c-0.491-0.47-0.88-1.062-1.168-1.776s-0.432-1.541-0.432-2.479v-6.24
		c0-0.938,0.144-1.766,0.432-2.48c0.288-0.714,0.677-1.307,1.168-1.775c0.49-0.47,1.077-0.821,1.76-1.057
		c0.683-0.234,1.429-0.352,2.24-0.352c0.789,0,1.53,0.117,2.224,0.352c0.693,0.235,1.285,0.587,1.776,1.057
		c0.49,0.469,0.88,1.062,1.168,1.775c0.288,0.715,0.433,1.542,0.433,2.48v2.72c0,0.768-0.385,1.152-1.152,1.152h-6.592v2.144
		c0,1.024,0.208,1.723,0.624,2.096c0.416,0.374,0.923,0.561,1.521,0.561c0.618,0,1.104-0.16,1.456-0.48
		C134.863,35.32,135.039,34.883,135.039,34.328z M130.912,28.727h4.288v-1.056c0-1.023-0.207-1.723-0.623-2.096
		s-0.924-0.561-1.521-0.561c-0.598,0-1.104,0.188-1.521,0.561s-0.624,1.072-0.624,2.096V28.727z"/>
	<path class="st1" d="M159.519,39h-1.151c-0.769,0-1.152-0.384-1.152-1.152V27.672c0-1.023-0.209-1.723-0.624-2.096
		c-0.416-0.373-0.923-0.561-1.521-0.561s-1.104,0.188-1.52,0.561s-0.624,1.072-0.624,2.096v10.176c0,0.769-0.384,1.152-1.152,1.152
		h-1.151c-0.769,0-1.152-0.384-1.152-1.152V27.448c0-0.938,0.145-1.766,0.432-2.48c0.288-0.714,0.678-1.307,1.168-1.775
		c0.49-0.47,1.077-0.821,1.76-1.057c0.684-0.234,1.43-0.352,2.24-0.352c0.789,0,1.531,0.117,2.225,0.352
		c0.693,0.235,1.285,0.587,1.775,1.057c0.49,0.469,0.881,1.062,1.168,1.775c0.288,0.715,0.432,1.542,0.432,2.48v10.399
		C160.67,38.616,160.287,39,159.519,39z"/>
	<path class="st1" d="M175.615,33.688c0,0.96-0.145,1.797-0.433,2.512s-0.678,1.302-1.168,1.76c-0.491,0.459-1.083,0.806-1.776,1.04
		s-1.435,0.352-2.224,0.352c-0.812,0-1.558-0.117-2.24-0.352s-1.27-0.581-1.76-1.04c-0.491-0.458-0.88-1.045-1.168-1.76
		s-0.433-1.552-0.433-2.512v-6.24c0-0.938,0.145-1.766,0.433-2.48c0.288-0.714,0.677-1.307,1.168-1.775
		c0.49-0.47,1.077-0.821,1.76-1.057c0.683-0.234,1.429-0.352,2.24-0.352c0.789,0,1.53,0.117,2.224,0.352
		c0.693,0.235,1.285,0.587,1.776,1.057c0.49,0.469,0.88,1.062,1.168,1.775c0.288,0.715,0.433,1.542,0.433,2.48V33.688z
		 M172.158,27.672c0-1.023-0.207-1.723-0.623-2.096s-0.924-0.561-1.521-0.561c-0.598,0-1.104,0.188-1.521,0.561
		s-0.623,1.072-0.623,2.096v5.792c0,1.024,0.207,1.723,0.623,2.096c0.416,0.374,0.923,0.561,1.521,0.561
		c0.597,0,1.104-0.187,1.521-0.561c0.416-0.373,0.623-1.071,0.623-2.096V27.672z"/>
	<path class="st1" d="M179.358,23.288c0-0.769,0.384-1.152,1.151-1.152h1.152c0.768,0,1.152,0.384,1.152,1.152v10.336
		c0,0.96,0.197,1.616,0.592,1.968c0.395,0.353,0.869,0.528,1.424,0.528s1.029-0.176,1.424-0.528
		c0.395-0.352,0.592-1.008,0.592-1.968V23.288c0-0.769,0.385-1.152,1.152-1.152h1.152c0.768,0,1.152,0.384,1.152,1.152v10.336
		c0,0.96,0.197,1.616,0.592,1.968c0.395,0.353,0.869,0.528,1.424,0.528s1.029-0.176,1.424-0.528
		c0.395-0.352,0.592-1.008,0.592-1.968V23.288c0-0.769,0.385-1.152,1.152-1.152h1.152c0.768,0,1.152,0.384,1.152,1.152v10.976
		c0,0.854-0.129,1.596-0.385,2.225s-0.607,1.157-1.057,1.584c-0.447,0.427-0.975,0.747-1.584,0.96c-0.607,0.213-1.274,0.319-2,0.319
		c-0.959,0-1.797-0.202-2.512-0.607s-1.274-1.003-1.68-1.792c-0.405,0.789-0.965,1.387-1.68,1.792s-1.553,0.607-2.512,0.607
		c-0.727,0-1.393-0.106-2-0.319c-0.608-0.213-1.137-0.533-1.584-0.96c-0.449-0.427-0.801-0.955-1.057-1.584
		s-0.384-1.371-0.384-2.225V23.288z"/>
</g>
</svg>