<!-- Generator: Adobe Illustrator 21.0.0, SVG Export Plug-In  -->
<svg version="1.1"
	 xmlns="http://www.w3.org/2000/svg" xmlns:xlink="http://www.w3.org/1999/xlink" xmlns:a="http://ns.adobe.com/AdobeSVGViewerExtensions/3.0/"
	 x="0px" y="0px" width="792.587px" height="109.806px" viewBox="0 0 792.587 109.806"
	 style="enable-background:new 0 0 792.587 109.806;" xml:space="preserve">
<style type="text/css">
	.st0{fill:#3F3F3F;}
	.st1{fill:#FF0000;}
</style>
<defs>
</defs>
<g>
	<path class="st0" d="M10.2,59.826H0.96c-0.641,0-0.96-0.359-0.96-1.079v-0.721c0-0.68,0.319-1.02,0.96-1.02h21.42
		c0.68,0,1.021,0.34,1.021,1.02v0.721c0,0.72-0.341,1.079-1.021,1.079h-9.24v38.221c0,0.64-0.34,0.96-1.02,0.96h-0.9
		c-0.681,0-1.02-0.32-1.02-0.96V59.826z"/>
	<path class="st0" d="M43.5,90.366c0-0.6,0.3-0.899,0.9-0.899H45.3c0.64,0,0.961,0.32,0.961,0.96c0,1.4-0.231,2.67-0.69,3.81
		c-0.46,1.141-1.11,2.11-1.95,2.91c-0.84,0.801-1.83,1.421-2.97,1.86s-2.391,0.66-3.75,0.66c-1.4,0-2.69-0.21-3.87-0.631
		c-1.181-0.42-2.2-1.05-3.06-1.89c-0.861-0.84-1.541-1.89-2.04-3.149c-0.501-1.261-0.75-2.73-0.75-4.41v-12.78
		c0-1.68,0.249-3.15,0.75-4.41c0.499-1.26,1.179-2.31,2.04-3.149c0.859-0.841,1.879-1.471,3.06-1.891c1.18-0.42,2.47-0.63,3.87-0.63
		c1.359,0,2.63,0.21,3.81,0.63s2.21,1.05,3.09,1.891c0.88,0.84,1.561,1.89,2.04,3.149c0.48,1.26,0.721,2.73,0.721,4.41v5.7
		c0,0.64-0.321,0.96-0.96,0.96H30v5.939c0,1.401,0.181,2.591,0.54,3.57c0.36,0.98,0.85,1.771,1.471,2.37
		c0.619,0.6,1.35,1.041,2.189,1.32c0.84,0.28,1.74,0.42,2.7,0.42c1.839,0,3.399-0.59,4.68-1.771
		C42.86,94.137,43.5,92.487,43.5,90.366z M30,80.886h13.8v-3.9c0-1.399-0.18-2.589-0.539-3.569c-0.36-0.98-0.861-1.771-1.5-2.37
		c-0.641-0.601-1.371-1.04-2.19-1.32c-0.82-0.279-1.71-0.42-2.67-0.42s-1.86,0.141-2.7,0.42c-0.84,0.28-1.57,0.72-2.189,1.32
		c-0.621,0.6-1.11,1.39-1.471,2.37c-0.359,0.98-0.54,2.17-0.54,3.569V80.886z"/>
	<path class="st0" d="M61.979,96.667c0.56,0,1.01-0.03,1.351-0.091c0.339-0.06,0.669-0.109,0.99-0.149
		c0.639-0.12,0.96,0.18,0.96,0.899v0.66c0,0.561-0.321,0.9-0.96,1.021c-0.441,0.079-0.831,0.14-1.171,0.18
		c-0.34,0.039-0.81,0.061-1.409,0.061c-1.92,0-3.511-0.53-4.771-1.591c-1.26-1.059-1.89-2.93-1.89-5.609V57.366
		c0-0.639,0.319-0.96,0.96-0.96h0.84c0.64,0,0.96,0.321,0.96,0.96v34.32c0,1.841,0.35,3.131,1.05,3.87
		C59.589,96.297,60.619,96.667,61.979,96.667z"/>
	<path class="st0" d="M77.939,96.667c0.56,0,1.01-0.03,1.351-0.091c0.339-0.06,0.669-0.109,0.99-0.149
		c0.639-0.12,0.96,0.18,0.96,0.899v0.66c0,0.561-0.321,0.9-0.96,1.021c-0.441,0.079-0.831,0.14-1.171,0.18
		c-0.34,0.039-0.81,0.061-1.409,0.061c-1.92,0-3.511-0.53-4.771-1.591c-1.26-1.059-1.89-2.93-1.89-5.609V57.366
		c0-0.639,0.319-0.96,0.96-0.96h0.84c0.64,0,0.96,0.321,0.96,0.96v34.32c0,1.841,0.35,3.131,1.05,3.87
		C75.549,96.297,76.579,96.667,77.939,96.667z"/>
	<path class="st0" d="M118.078,89.587c0,1.68-0.239,3.149-0.72,4.41c-0.479,1.26-1.16,2.31-2.04,3.149s-1.91,1.47-3.09,1.89
		c-1.181,0.421-2.451,0.631-3.811,0.631c-1.28,0-2.51-0.19-3.689-0.57c-1.181-0.38-2.22-0.96-3.12-1.74s-1.61-1.74-2.13-2.88
		c-0.521-1.14-0.78-2.47-0.78-3.99v-0.3c0-1.52,0.26-2.85,0.78-3.99c0.52-1.14,1.22-2.1,2.1-2.88s1.91-1.359,3.09-1.74
		c1.18-0.379,2.431-0.569,3.75-0.569h6.9v-4.021c0-1.399-0.18-2.589-0.54-3.569s-0.851-1.771-1.47-2.37
		c-0.621-0.601-1.351-1.04-2.19-1.32c-0.84-0.279-1.739-0.42-2.7-0.42c-1.84,0-3.37,0.591-4.59,1.77
		c-1.221,1.181-1.83,2.831-1.83,4.95c0,0.601-0.3,0.9-0.899,0.9h-0.9c-0.64,0-0.96-0.32-0.96-0.96c0-2.84,0.859-5.09,2.58-6.75
		c1.72-1.659,3.92-2.49,6.6-2.49c1.359,0,2.63,0.21,3.811,0.63c1.18,0.42,2.21,1.05,3.09,1.891c0.88,0.84,1.561,1.89,2.04,3.149
		c0.48,1.26,0.72,2.73,0.72,4.41V89.587z M108.418,97.087c0.961,0,1.851-0.14,2.671-0.42c0.819-0.279,1.549-0.721,2.189-1.32
		c0.64-0.6,1.14-1.39,1.5-2.37c0.36-0.979,0.54-2.169,0.54-3.57v-5.819h-6.9c-1.92,0-3.55,0.561-4.89,1.68
		c-1.341,1.12-2.01,2.801-2.01,5.04v0.06c0,2.241,0.669,3.921,2.01,5.04C104.868,96.527,106.498,97.087,108.418,97.087z"/>
	<path class="st0" d="M129.419,70.806c0.759-1.359,1.779-2.38,3.06-3.06c1.279-0.68,2.76-1.021,4.44-1.021
		c1.279,0,2.469,0.21,3.569,0.63c1.1,0.42,2.06,1.041,2.88,1.86c0.819,0.82,1.46,1.851,1.92,3.09c0.46,1.24,0.69,2.681,0.69,4.32
		v12.96c0,1.68-0.24,3.149-0.72,4.41c-0.48,1.26-1.161,2.31-2.04,3.149c-0.881,0.84-1.911,1.47-3.09,1.89
		c-1.181,0.421-2.451,0.631-3.811,0.631c-1.4,0-2.68-0.21-3.84-0.631c-1.16-0.42-2.181-1.05-3.06-1.89
		c-0.881-0.84-1.561-1.89-2.04-3.149c-0.48-1.261-0.721-2.73-0.721-4.41V57.366c0-0.639,0.32-0.96,0.96-0.96h0.841
		c0.639,0,0.96,0.321,0.96,0.96V70.806z M129.419,89.406c0,1.401,0.18,2.591,0.54,3.57c0.359,0.98,0.859,1.771,1.5,2.37
		c0.639,0.6,1.369,1.041,2.189,1.32c0.819,0.28,1.71,0.42,2.67,0.42s1.85-0.14,2.67-0.42c0.819-0.279,1.55-0.721,2.19-1.32
		c0.64-0.6,1.14-1.39,1.5-2.37c0.359-0.979,0.54-2.169,0.54-3.57v-12.42c0-1.399-0.181-2.589-0.54-3.569
		c-0.36-0.98-0.86-1.771-1.5-2.37c-0.641-0.601-1.371-1.04-2.19-1.32c-0.82-0.279-1.71-0.42-2.67-0.42s-1.851,0.141-2.67,0.42
		c-0.82,0.28-1.551,0.72-2.189,1.32c-0.641,0.6-1.141,1.39-1.5,2.37c-0.36,0.98-0.54,2.17-0.54,3.569V89.406z"/>
	<path class="st0" d="M173.218,89.587c0,1.68-0.24,3.149-0.721,4.41c-0.479,1.26-1.16,2.31-2.04,3.149s-1.91,1.47-3.09,1.89
		c-1.18,0.421-2.45,0.631-3.81,0.631c-1.4,0-2.69-0.21-3.87-0.631c-1.181-0.42-2.2-1.05-3.06-1.89
		c-0.861-0.84-1.541-1.89-2.04-3.149c-0.501-1.261-0.75-2.73-0.75-4.41v-12.78c0-1.68,0.249-3.15,0.75-4.41
		c0.499-1.26,1.179-2.31,2.04-3.149c0.859-0.841,1.879-1.471,3.06-1.891c1.18-0.42,2.47-0.63,3.87-0.63c1.359,0,2.63,0.21,3.81,0.63
		s2.21,1.05,3.09,1.891c0.88,0.84,1.561,1.89,2.04,3.149c0.48,1.26,0.721,2.73,0.721,4.41V89.587z M170.457,76.986
		c0-1.399-0.18-2.589-0.539-3.569c-0.36-0.98-0.861-1.771-1.5-2.37c-0.641-0.601-1.371-1.04-2.19-1.32
		c-0.82-0.279-1.71-0.42-2.67-0.42s-1.86,0.141-2.7,0.42c-0.84,0.28-1.57,0.72-2.189,1.32c-0.621,0.6-1.11,1.39-1.471,2.37
		c-0.359,0.98-0.54,2.17-0.54,3.569v12.42c0,1.401,0.181,2.591,0.54,3.57c0.36,0.98,0.85,1.771,1.471,2.37
		c0.619,0.6,1.35,1.041,2.189,1.32c0.84,0.28,1.74,0.42,2.7,0.42s1.85-0.14,2.67-0.42c0.819-0.279,1.55-0.721,2.19-1.32
		c0.639-0.6,1.14-1.39,1.5-2.37c0.359-0.979,0.539-2.169,0.539-3.57V76.986z"/>
	<path class="st0" d="M182.636,67.386h0.841c0.639,0,0.96,0.32,0.96,0.96v21.06c0,1.401,0.18,2.591,0.54,3.57
		c0.359,0.98,0.859,1.771,1.5,2.37c0.639,0.6,1.369,1.041,2.189,1.32c0.819,0.28,1.71,0.42,2.67,0.42s1.86-0.14,2.7-0.42
		c0.84-0.279,1.569-0.721,2.19-1.32c0.619-0.6,1.109-1.39,1.47-2.37c0.36-0.979,0.54-2.169,0.54-3.57v-21.06
		c0-0.64,0.319-0.96,0.96-0.96h0.9c0.639,0,0.96,0.32,0.96,0.96v21.24c0,1.68-0.251,3.149-0.75,4.41
		c-0.501,1.26-1.181,2.31-2.04,3.149c-0.861,0.84-1.891,1.47-3.091,1.89c-1.199,0.421-2.48,0.631-3.84,0.631
		c-1.4,0-2.68-0.21-3.84-0.631c-1.16-0.42-2.181-1.05-3.06-1.89c-0.881-0.84-1.561-1.89-2.04-3.149
		c-0.48-1.261-0.721-2.73-0.721-4.41v-21.24C181.676,67.707,181.996,67.386,182.636,67.386z"/>
	<path class="st0" d="M220.797,99.007c-0.801,0.159-1.681,0.24-2.641,0.24c-2.439,0-4.36-0.561-5.76-1.681
		c-1.4-1.119-2.1-3.1-2.1-5.939V60.606c0-0.64,0.319-0.96,0.96-0.96h0.899c0.64,0,0.96,0.32,0.96,0.96v6.78h7.62
		c0.64,0,0.96,0.32,0.96,0.96v0.66c0,0.64-0.32,0.96-0.96,0.96h-7.62v21.479c0,2.04,0.44,3.42,1.32,4.141
		c0.88,0.72,2.22,1.08,4.021,1.08c0.359,0,0.729-0.021,1.109-0.061c0.38-0.039,0.77-0.1,1.17-0.18c0.64-0.12,0.96,0.18,0.96,0.899
		v0.66C221.696,98.547,221.396,98.886,220.797,99.007z"/>
	<path class="st0" d="M258.295,68.346c0-0.64,0.32-0.96,0.96-0.96h0.9c0.64,0,0.96,0.32,0.96,0.96v31.5c0,1.68-0.25,3.15-0.75,4.41
		c-0.501,1.26-1.181,2.3-2.04,3.12c-0.86,0.819-1.89,1.43-3.09,1.83c-1.2,0.399-2.48,0.6-3.84,0.6c-2.841,0-5.11-0.771-6.811-2.31
		c-1.7-1.541-2.55-3.531-2.55-5.971c0-0.64,0.32-0.96,0.96-0.96h0.9c0.6,0,0.899,0.3,0.899,0.9c0,1.8,0.609,3.219,1.83,4.26
		c1.22,1.04,2.81,1.56,4.771,1.56c0.96,0,1.859-0.13,2.7-0.39c0.84-0.261,1.569-0.681,2.189-1.26c0.62-0.58,1.11-1.351,1.47-2.311
		c0.36-0.96,0.54-2.14,0.54-3.54v-6.899c-0.8,1.36-1.829,2.37-3.09,3.03c-1.26,0.659-2.71,0.989-4.35,0.989
		c-1.28,0-2.48-0.199-3.601-0.6c-1.12-0.399-2.09-1.01-2.909-1.83c-0.82-0.819-1.461-1.85-1.92-3.09
		c-0.461-1.239-0.69-2.7-0.69-4.38v-18.66c0-0.64,0.319-0.96,0.96-0.96h0.84c0.64,0,0.96,0.32,0.96,0.96v18.3
		c0,1.4,0.181,2.591,0.54,3.57c0.36,0.98,0.86,1.77,1.5,2.37c0.64,0.6,1.37,1.04,2.19,1.319c0.819,0.28,1.71,0.42,2.67,0.42
		s1.859-0.14,2.7-0.42c0.84-0.279,1.569-0.72,2.189-1.319c0.62-0.601,1.11-1.39,1.47-2.37c0.36-0.979,0.54-2.17,0.54-3.57V68.346z"
		/>
	<path class="st0" d="M289.375,89.587c0,1.68-0.24,3.149-0.721,4.41c-0.479,1.26-1.16,2.31-2.04,3.149s-1.91,1.47-3.09,1.89
		c-1.18,0.421-2.45,0.631-3.81,0.631c-1.4,0-2.69-0.21-3.87-0.631c-1.181-0.42-2.2-1.05-3.06-1.89
		c-0.861-0.84-1.541-1.89-2.04-3.149c-0.501-1.261-0.75-2.73-0.75-4.41v-12.78c0-1.68,0.249-3.15,0.75-4.41
		c0.499-1.26,1.179-2.31,2.04-3.149c0.859-0.841,1.879-1.471,3.06-1.891c1.18-0.42,2.47-0.63,3.87-0.63c1.359,0,2.63,0.21,3.81,0.63
		s2.21,1.05,3.09,1.891c0.88,0.84,1.561,1.89,2.04,3.149c0.48,1.26,0.721,2.73,0.721,4.41V89.587z M286.614,76.986
		c0-1.399-0.18-2.589-0.539-3.569c-0.36-0.98-0.861-1.771-1.5-2.37c-0.641-0.601-1.371-1.04-2.19-1.32
		c-0.82-0.279-1.71-0.42-2.67-0.42s-1.86,0.141-2.7,0.42c-0.84,0.28-1.57,0.72-2.189,1.32c-0.621,0.6-1.11,1.39-1.471,2.37
		c-0.359,0.98-0.54,2.17-0.54,3.569v12.42c0,1.401,0.181,2.591,0.54,3.57c0.36,0.98,0.85,1.771,1.471,2.37
		c0.619,0.6,1.35,1.041,2.189,1.32c0.84,0.28,1.74,0.42,2.7,0.42s1.85-0.14,2.67-0.42c0.819-0.279,1.55-0.721,2.19-1.32
		c0.639-0.6,1.14-1.39,1.5-2.37c0.359-0.979,0.539-2.169,0.539-3.57V76.986z"/>
	<path class="st0" d="M298.794,67.386h0.841c0.639,0,0.96,0.32,0.96,0.96v21.06c0,1.401,0.18,2.591,0.54,3.57
		c0.359,0.98,0.859,1.771,1.5,2.37c0.639,0.6,1.369,1.041,2.189,1.32c0.819,0.28,1.71,0.42,2.67,0.42s1.86-0.14,2.7-0.42
		c0.84-0.279,1.569-0.721,2.19-1.32c0.619-0.6,1.109-1.39,1.47-2.37c0.36-0.979,0.54-2.169,0.54-3.57v-21.06
		c0-0.64,0.319-0.96,0.96-0.96h0.9c0.639,0,0.96,0.32,0.96,0.96v21.24c0,1.68-0.251,3.149-0.75,4.41
		c-0.501,1.26-1.181,2.31-2.04,3.149c-0.861,0.84-1.891,1.47-3.091,1.89c-1.199,0.421-2.48,0.631-3.84,0.631
		c-1.4,0-2.68-0.21-3.84-0.631c-1.16-0.42-2.181-1.05-3.06-1.89c-0.881-0.84-1.561-1.89-2.04-3.149
		c-0.48-1.261-0.721-2.73-0.721-4.41v-21.24C297.834,67.707,298.154,67.386,298.794,67.386z"/>
	<path class="st0" d="M335.034,69.667c-1.961,0-3.45,0.39-4.471,1.17c-1.02,0.779-1.529,2.33-1.529,4.649v22.561
		c0,0.64-0.321,0.96-0.96,0.96h-0.841c-0.64,0-0.96-0.32-0.96-0.96v-22.86c0-1.52,0.189-2.799,0.57-3.84
		c0.38-1.04,0.93-1.869,1.65-2.49c0.72-0.619,1.599-1.069,2.64-1.35c1.04-0.279,2.199-0.42,3.48-0.42c0.439,0,0.89,0.021,1.35,0.06
		c0.459,0.04,0.93,0.101,1.41,0.18c0.6,0.12,0.899,0.461,0.899,1.021v0.66c0,0.72-0.32,1.02-0.96,0.899
		c-0.4-0.079-0.79-0.14-1.17-0.18C335.764,69.687,335.394,69.667,335.034,69.667z"/>
	<path class="st0" d="M372.773,90.366c0-0.6,0.3-0.899,0.9-0.899h0.899c0.64,0,0.961,0.32,0.961,0.96c0,1.4-0.231,2.67-0.69,3.81
		c-0.46,1.141-1.11,2.11-1.95,2.91c-0.84,0.801-1.83,1.421-2.97,1.86s-2.391,0.66-3.75,0.66c-1.4,0-2.69-0.21-3.87-0.631
		c-1.181-0.42-2.2-1.05-3.06-1.89c-0.861-0.84-1.541-1.89-2.04-3.149c-0.501-1.261-0.75-2.73-0.75-4.41v-12.78
		c0-1.68,0.249-3.15,0.75-4.41c0.499-1.26,1.179-2.31,2.04-3.149c0.859-0.841,1.879-1.471,3.06-1.891c1.18-0.42,2.47-0.63,3.87-0.63
		c1.359,0,2.63,0.21,3.81,0.63s2.21,1.05,3.09,1.891c0.88,0.84,1.561,1.89,2.04,3.149c0.48,1.26,0.721,2.73,0.721,4.41v5.7
		c0,0.64-0.321,0.96-0.96,0.96h-15.601v5.939c0,1.401,0.181,2.591,0.54,3.57c0.36,0.98,0.85,1.771,1.471,2.37
		c0.619,0.6,1.35,1.041,2.189,1.32c0.84,0.28,1.74,0.42,2.7,0.42c1.839,0,3.399-0.59,4.68-1.771
		C372.134,94.137,372.773,92.487,372.773,90.366z M359.273,80.886h13.8v-3.9c0-1.399-0.18-2.589-0.539-3.569
		c-0.36-0.98-0.861-1.771-1.5-2.37c-0.641-0.601-1.371-1.04-2.19-1.32c-0.82-0.279-1.71-0.42-2.67-0.42s-1.86,0.141-2.7,0.42
		c-0.84,0.28-1.57,0.72-2.189,1.32c-0.621,0.6-1.11,1.39-1.471,2.37c-0.359,0.98-0.54,2.17-0.54,3.569V80.886z"/>
	<path class="st0" d="M392.693,80.886l7.14-12.78c0.2-0.479,0.601-0.72,1.2-0.72h1.08c0.36,0,0.6,0.12,0.72,0.36
		c0.12,0.239,0.08,0.5-0.12,0.779l-8.34,14.34l8.76,15c0.2,0.28,0.24,0.54,0.12,0.78s-0.359,0.36-0.72,0.36h-1.14
		c-0.601,0-1.001-0.24-1.2-0.721l-7.561-13.5l-7.5,13.5c-0.2,0.48-0.62,0.721-1.26,0.721h-1.08c-0.32,0-0.54-0.12-0.66-0.36
		c-0.119-0.24-0.1-0.5,0.061-0.78l8.7-15l-8.28-14.34c-0.16-0.279-0.18-0.54-0.06-0.779c0.119-0.24,0.339-0.36,0.659-0.36h1.2
		c0.601,0,1,0.24,1.2,0.72L392.693,80.886z"/>
	<path class="st0" d="M429.773,89.766c0,1.641-0.23,3.081-0.69,4.32c-0.46,1.24-1.101,2.271-1.92,3.09
		c-0.82,0.82-1.78,1.439-2.88,1.859c-1.101,0.421-2.29,0.631-3.569,0.631c-1.681,0-3.161-0.33-4.44-0.99
		c-1.28-0.66-2.301-1.67-3.06-3.03v12.54c0,0.64-0.321,0.96-0.96,0.96h-0.841c-0.64,0-0.96-0.32-0.96-0.96v-31.38
		c0-1.68,0.24-3.15,0.721-4.41c0.479-1.26,1.159-2.31,2.04-3.149c0.879-0.841,1.899-1.471,3.06-1.891s2.439-0.63,3.84-0.63
		c1.359,0,2.63,0.21,3.811,0.63c1.179,0.42,2.209,1.05,3.09,1.891c0.879,0.84,1.56,1.89,2.04,3.149c0.479,1.26,0.72,2.73,0.72,4.41
		V89.766z M427.013,76.986c0-1.399-0.181-2.589-0.54-3.569c-0.36-0.98-0.86-1.771-1.5-2.37c-0.641-0.601-1.371-1.04-2.19-1.32
		c-0.82-0.279-1.71-0.42-2.67-0.42s-1.851,0.141-2.67,0.42c-0.82,0.28-1.551,0.72-2.189,1.32c-0.641,0.6-1.141,1.39-1.5,2.37
		c-0.36,0.98-0.54,2.17-0.54,3.569v12.42c0,1.401,0.18,2.591,0.54,3.57c0.359,0.98,0.859,1.771,1.5,2.37
		c0.639,0.6,1.369,1.041,2.189,1.32c0.819,0.28,1.71,0.42,2.67,0.42s1.85-0.14,2.67-0.42c0.819-0.279,1.55-0.721,2.19-1.32
		c0.64-0.6,1.14-1.39,1.5-2.37c0.359-0.979,0.54-2.169,0.54-3.57V76.986z"/>
	<path class="st0" d="M453.952,90.366c0-0.6,0.3-0.899,0.9-0.899h0.899c0.64,0,0.961,0.32,0.961,0.96c0,1.4-0.231,2.67-0.69,3.81
		c-0.46,1.141-1.11,2.11-1.95,2.91c-0.84,0.801-1.83,1.421-2.97,1.86s-2.391,0.66-3.75,0.66c-1.4,0-2.69-0.21-3.87-0.631
		c-1.181-0.42-2.2-1.05-3.06-1.89c-0.861-0.84-1.541-1.89-2.04-3.149c-0.501-1.261-0.75-2.73-0.75-4.41v-12.78
		c0-1.68,0.249-3.15,0.75-4.41c0.499-1.26,1.179-2.31,2.04-3.149c0.859-0.841,1.879-1.471,3.06-1.891c1.18-0.42,2.47-0.63,3.87-0.63
		c1.359,0,2.63,0.21,3.81,0.63s2.21,1.05,3.09,1.891c0.88,0.84,1.561,1.89,2.04,3.149c0.48,1.26,0.721,2.73,0.721,4.41v5.7
		c0,0.64-0.321,0.96-0.96,0.96h-15.601v5.939c0,1.401,0.181,2.591,0.54,3.57c0.36,0.98,0.85,1.771,1.471,2.37
		c0.619,0.6,1.35,1.041,2.189,1.32c0.84,0.28,1.74,0.42,2.7,0.42c1.839,0,3.399-0.59,4.68-1.771
		C453.312,94.137,453.952,92.487,453.952,90.366z M440.452,80.886h13.8v-3.9c0-1.399-0.18-2.589-0.539-3.569
		c-0.36-0.98-0.861-1.771-1.5-2.37c-0.641-0.601-1.371-1.04-2.19-1.32c-0.82-0.279-1.71-0.42-2.67-0.42s-1.86,0.141-2.7,0.42
		c-0.84,0.28-1.57,0.72-2.189,1.32c-0.621,0.6-1.11,1.39-1.471,2.37c-0.359,0.98-0.54,2.17-0.54,3.569V80.886z"/>
	<path class="st0" d="M474.112,69.667c-1.961,0-3.45,0.39-4.471,1.17c-1.02,0.779-1.529,2.33-1.529,4.649v22.561
		c0,0.64-0.321,0.96-0.96,0.96h-0.841c-0.64,0-0.96-0.32-0.96-0.96v-22.86c0-1.52,0.189-2.799,0.57-3.84
		c0.38-1.04,0.93-1.869,1.65-2.49c0.72-0.619,1.599-1.069,2.64-1.35c1.04-0.279,2.199-0.42,3.48-0.42c0.439,0,0.89,0.021,1.35,0.06
		c0.459,0.04,0.93,0.101,1.41,0.18c0.6,0.12,0.899,0.461,0.899,1.021v0.66c0,0.72-0.32,1.02-0.96,0.899
		c-0.4-0.079-0.79-0.14-1.17-0.18C474.841,69.687,474.471,69.667,474.112,69.667z"/>
	<path class="st0" d="M483.472,57.967c0-0.64,0.319-0.96,0.96-0.96h0.899c0.64,0,0.96,0.32,0.96,0.96v3.24
		c0,0.64-0.32,0.96-0.96,0.96h-0.899c-0.641,0-0.96-0.32-0.96-0.96V57.967z M483.472,68.346c0-0.64,0.319-0.96,0.96-0.96h0.899
		c0.64,0,0.96,0.32,0.96,0.96v29.7c0,0.64-0.32,0.96-0.96,0.96h-0.899c-0.641,0-0.96-0.32-0.96-0.96V68.346z"/>
	<path class="st0" d="M511.491,90.366c0-0.6,0.3-0.899,0.9-0.899h0.899c0.64,0,0.961,0.32,0.961,0.96c0,1.4-0.231,2.67-0.69,3.81
		c-0.46,1.141-1.11,2.11-1.95,2.91c-0.84,0.801-1.83,1.421-2.97,1.86s-2.391,0.66-3.75,0.66c-1.4,0-2.69-0.21-3.87-0.631
		c-1.181-0.42-2.2-1.05-3.06-1.89c-0.861-0.84-1.541-1.89-2.04-3.149c-0.501-1.261-0.75-2.73-0.75-4.41v-12.78
		c0-1.68,0.249-3.15,0.75-4.41c0.499-1.26,1.179-2.31,2.04-3.149c0.859-0.841,1.879-1.471,3.06-1.891c1.18-0.42,2.47-0.63,3.87-0.63
		c1.359,0,2.63,0.21,3.81,0.63s2.21,1.05,3.09,1.891c0.88,0.84,1.561,1.89,2.04,3.149c0.48,1.26,0.721,2.73,0.721,4.41v5.7
		c0,0.64-0.321,0.96-0.96,0.96h-15.601v5.939c0,1.401,0.181,2.591,0.54,3.57c0.36,0.98,0.85,1.771,1.471,2.37
		c0.619,0.6,1.35,1.041,2.189,1.32c0.84,0.28,1.74,0.42,2.7,0.42c1.839,0,3.399-0.59,4.68-1.771
		C510.851,94.137,511.491,92.487,511.491,90.366z M497.991,80.886h13.8v-3.9c0-1.399-0.18-2.589-0.539-3.569
		c-0.36-0.98-0.861-1.771-1.5-2.37c-0.641-0.601-1.371-1.04-2.19-1.32c-0.82-0.279-1.71-0.42-2.67-0.42s-1.86,0.141-2.7,0.42
		c-0.84,0.28-1.57,0.72-2.189,1.32c-0.621,0.6-1.11,1.39-1.471,2.37c-0.359,0.98-0.54,2.17-0.54,3.569V80.886z"/>
	<path class="st0" d="M541.311,99.007h-0.9c-0.641,0-0.96-0.32-0.96-0.96V76.986c0-1.399-0.18-2.589-0.54-3.569
		s-0.851-1.771-1.47-2.37c-0.621-0.601-1.351-1.04-2.19-1.32c-0.84-0.279-1.74-0.42-2.7-0.42s-1.851,0.141-2.67,0.42
		c-0.82,0.28-1.551,0.72-2.189,1.32c-0.641,0.6-1.141,1.39-1.5,2.37c-0.36,0.98-0.54,2.17-0.54,3.569v21.061
		c0,0.64-0.321,0.96-0.96,0.96h-0.841c-0.64,0-0.96-0.32-0.96-0.96v-21.24c0-1.68,0.24-3.15,0.721-4.41
		c0.479-1.26,1.159-2.31,2.04-3.149c0.879-0.841,1.899-1.471,3.06-1.891s2.439-0.63,3.84-0.63c1.359,0,2.641,0.21,3.84,0.63
		c1.2,0.42,2.229,1.05,3.091,1.891c0.859,0.84,1.539,1.89,2.04,3.149c0.499,1.26,0.75,2.73,0.75,4.41v21.24
		C542.271,98.686,541.95,99.007,541.311,99.007z"/>
	<path class="st0" d="M553.49,89.406c0,1.401,0.181,2.591,0.54,3.57c0.36,0.98,0.85,1.771,1.471,2.37
		c0.619,0.6,1.35,1.041,2.189,1.32c0.84,0.28,1.74,0.42,2.7,0.42c1.8,0,3.35-0.601,4.649-1.801c1.3-1.199,1.95-2.88,1.95-5.039
		c0-0.601,0.3-0.9,0.9-0.9h0.899c0.64,0,0.961,0.32,0.961,0.96c0,1.44-0.24,2.74-0.721,3.9c-0.479,1.16-1.14,2.14-1.979,2.939
		c-0.84,0.801-1.83,1.421-2.971,1.86c-1.14,0.439-2.369,0.66-3.689,0.66c-1.4,0-2.69-0.21-3.87-0.631
		c-1.181-0.42-2.2-1.05-3.06-1.89c-0.861-0.84-1.541-1.89-2.04-3.149c-0.501-1.261-0.75-2.73-0.75-4.41v-12.78
		c0-1.68,0.249-3.15,0.75-4.41c0.499-1.26,1.179-2.31,2.04-3.149c0.859-0.841,1.879-1.471,3.06-1.891c1.18-0.42,2.47-0.63,3.87-0.63
		c1.32,0,2.55,0.221,3.689,0.66c1.141,0.44,2.131,1.061,2.971,1.86s1.5,1.78,1.979,2.939c0.48,1.161,0.721,2.46,0.721,3.9
		c0,0.64-0.321,0.96-0.961,0.96h-0.899c-0.601,0-0.9-0.3-0.9-0.9c0-2.16-0.65-3.84-1.95-5.04s-2.85-1.8-4.649-1.8
		c-0.96,0-1.86,0.141-2.7,0.42c-0.84,0.28-1.57,0.72-2.189,1.32c-0.621,0.6-1.11,1.39-1.471,2.37c-0.359,0.98-0.54,2.17-0.54,3.569
		V89.406z"/>
	<path class="st0" d="M593.509,90.366c0-0.6,0.3-0.899,0.9-0.899h0.899c0.64,0,0.961,0.32,0.961,0.96c0,1.4-0.231,2.67-0.69,3.81
		c-0.46,1.141-1.11,2.11-1.95,2.91c-0.84,0.801-1.83,1.421-2.97,1.86s-2.391,0.66-3.75,0.66c-1.4,0-2.69-0.21-3.87-0.631
		c-1.181-0.42-2.2-1.05-3.06-1.89c-0.861-0.84-1.541-1.89-2.04-3.149c-0.501-1.261-0.75-2.73-0.75-4.41v-12.78
		c0-1.68,0.249-3.15,0.75-4.41c0.499-1.26,1.179-2.31,2.04-3.149c0.859-0.841,1.879-1.471,3.06-1.891c1.18-0.42,2.47-0.63,3.87-0.63
		c1.359,0,2.63,0.21,3.81,0.63s2.21,1.05,3.09,1.891c0.88,0.84,1.561,1.89,2.04,3.149c0.48,1.26,0.721,2.73,0.721,4.41v5.7
		c0,0.64-0.321,0.96-0.96,0.96h-15.601v5.939c0,1.401,0.181,2.591,0.54,3.57c0.36,0.98,0.85,1.771,1.471,2.37
		c0.619,0.6,1.35,1.041,2.189,1.32c0.84,0.28,1.74,0.42,2.7,0.42c1.839,0,3.399-0.59,4.68-1.771
		C592.87,94.137,593.509,92.487,593.509,90.366z M580.009,80.886h13.8v-3.9c0-1.399-0.18-2.589-0.539-3.569
		c-0.36-0.98-0.861-1.771-1.5-2.37c-0.641-0.601-1.371-1.04-2.19-1.32c-0.82-0.279-1.71-0.42-2.67-0.42s-1.86,0.141-2.7,0.42
		c-0.84,0.28-1.57,0.72-2.189,1.32c-0.621,0.6-1.11,1.39-1.471,2.37c-0.359,0.98-0.54,2.17-0.54,3.569V80.886z"/>
	<path class="st0" d="M618.048,68.346c0-0.64,0.32-0.96,0.96-0.96h0.841c0.639,0,0.96,0.32,0.96,0.96v22.14
		c0,2.4,0.56,4.101,1.68,5.101c1.119,1,2.52,1.5,4.2,1.5c0.84,0,1.62-0.12,2.34-0.36s1.35-0.62,1.89-1.14s0.97-1.2,1.29-2.04
		s0.48-1.86,0.48-3.061v-22.14c0-0.64,0.319-0.96,0.96-0.96h0.899c0.64,0,0.96,0.32,0.96,0.96v22.14c0,2.4,0.57,4.101,1.711,5.101
		c1.14,1,2.55,1.5,4.229,1.5s3.09-0.5,4.23-1.5c1.14-1,1.71-2.7,1.71-5.101v-22.14c0-0.64,0.319-0.96,0.96-0.96h0.84
		c0.64,0,0.96,0.32,0.96,0.96v22.56c0,2.961-0.811,5.16-2.43,6.601c-1.62,1.439-3.631,2.16-6.03,2.16
		c-1.841,0-3.431-0.42-4.771-1.261c-1.34-0.84-2.29-2.119-2.85-3.84c-0.561,1.721-1.511,3-2.85,3.84
		c-1.341,0.841-2.91,1.261-4.711,1.261c-2.439,0-4.46-0.721-6.06-2.16c-1.601-1.44-2.4-3.64-2.4-6.601V68.346z"/>
	<path class="st0" d="M659.689,57.967c0-0.64,0.319-0.96,0.96-0.96h0.899c0.64,0,0.96,0.32,0.96,0.96v3.24
		c0,0.64-0.32,0.96-0.96,0.96h-0.899c-0.641,0-0.96-0.32-0.96-0.96V57.967z M659.689,68.346c0-0.64,0.319-0.96,0.96-0.96h0.899
		c0.64,0,0.96,0.32,0.96,0.96v29.7c0,0.64-0.32,0.96-0.96,0.96h-0.899c-0.641,0-0.96-0.32-0.96-0.96V68.346z"/>
	<path class="st0" d="M682.728,99.007c-0.801,0.159-1.681,0.24-2.641,0.24c-2.439,0-4.36-0.561-5.76-1.681
		c-1.4-1.119-2.1-3.1-2.1-5.939V60.606c0-0.64,0.319-0.96,0.96-0.96h0.899c0.64,0,0.96,0.32,0.96,0.96v6.78h7.62
		c0.64,0,0.96,0.32,0.96,0.96v0.66c0,0.64-0.32,0.96-0.96,0.96h-7.62v21.479c0,2.04,0.44,3.42,1.32,4.141
		c0.88,0.72,2.22,1.08,4.021,1.08c0.359,0,0.729-0.021,1.109-0.061c0.38-0.039,0.77-0.1,1.17-0.18c0.64-0.12,0.96,0.18,0.96,0.899
		v0.66C683.627,98.547,683.328,98.886,682.728,99.007z"/>
	<path class="st0" d="M693.828,98.047c0,0.64-0.32,0.96-0.96,0.96h-0.899c-0.641,0-0.96-0.32-0.96-0.96V57.366
		c0-0.639,0.319-0.96,0.96-0.96h0.899c0.64,0,0.96,0.321,0.96,0.96v13.44c0.76-1.359,1.779-2.38,3.061-3.06
		c1.279-0.68,2.739-1.021,4.38-1.021c1.279,0,2.479,0.21,3.6,0.63c1.119,0.42,2.09,1.041,2.91,1.86c0.819,0.82,1.46,1.851,1.92,3.09
		c0.459,1.24,0.69,2.681,0.69,4.32v21.42c0,0.64-0.321,0.96-0.96,0.96h-0.841c-0.64,0-0.96-0.32-0.96-0.96V76.986
		c0-1.399-0.18-2.589-0.54-3.569c-0.359-0.98-0.86-1.771-1.5-2.37c-0.64-0.601-1.37-1.04-2.189-1.32
		c-0.82-0.279-1.71-0.42-2.67-0.42s-1.86,0.141-2.7,0.42c-0.84,0.28-1.57,0.72-2.19,1.32c-0.62,0.6-1.109,1.39-1.47,2.37
		c-0.359,0.98-0.54,2.17-0.54,3.569V98.047z"/>
	<path class="st0" d="M764.748,98.047c0,0.64-0.32,0.96-0.96,0.96h-0.84c-0.641,0-0.96-0.32-0.96-0.96V75.906
		c0-2.399-0.57-4.1-1.71-5.1c-1.141-0.999-2.551-1.5-4.23-1.5s-3.09,0.501-4.229,1.5c-1.141,1-1.711,2.7-1.711,5.1v22.141
		c0,0.64-0.32,0.96-0.96,0.96h-0.899c-0.641,0-0.96-0.32-0.96-0.96V75.906c0-1.199-0.16-2.22-0.48-3.06s-0.75-1.52-1.29-2.04
		c-0.54-0.52-1.17-0.9-1.89-1.14c-0.72-0.24-1.5-0.36-2.34-0.36c-1.681,0-3.081,0.501-4.2,1.5c-1.12,1-1.68,2.7-1.68,5.1v22.141
		c0,0.64-0.321,0.96-0.96,0.96h-0.841c-0.64,0-0.96-0.32-0.96-0.96V75.486c0-2.959,0.8-5.16,2.4-6.6c1.6-1.44,3.62-2.16,6.06-2.16
		c1.801,0,3.37,0.431,4.711,1.29c1.339,0.86,2.289,2.15,2.85,3.87c0.56-1.72,1.51-3.01,2.85-3.87c1.34-0.859,2.93-1.29,4.771-1.29
		c2.399,0,4.41,0.72,6.03,2.16c1.619,1.439,2.43,3.641,2.43,6.6V98.047z"/>
	<path class="st0" d="M789.527,90.366c0-0.6,0.3-0.899,0.9-0.899h0.899c0.64,0,0.961,0.32,0.961,0.96c0,1.4-0.231,2.67-0.69,3.81
		c-0.46,1.141-1.11,2.11-1.95,2.91c-0.84,0.801-1.83,1.421-2.97,1.86s-2.391,0.66-3.75,0.66c-1.4,0-2.69-0.21-3.87-0.631
		c-1.181-0.42-2.2-1.05-3.06-1.89c-0.861-0.84-1.541-1.89-2.04-3.149c-0.501-1.261-0.75-2.73-0.75-4.41v-12.78
		c0-1.68,0.249-3.15,0.75-4.41c0.499-1.26,1.179-2.31,2.04-3.149c0.859-0.841,1.879-1.471,3.06-1.891c1.18-0.42,2.47-0.63,3.87-0.63
		c1.359,0,2.63,0.21,3.81,0.63s2.21,1.05,3.09,1.891c0.88,0.84,1.561,1.89,2.04,3.149c0.48,1.26,0.721,2.73,0.721,4.41v5.7
		c0,0.64-0.321,0.96-0.96,0.96h-15.601v5.939c0,1.401,0.181,2.591,0.54,3.57c0.36,0.98,0.85,1.771,1.471,2.37
		c0.619,0.6,1.35,1.041,2.189,1.32c0.84,0.28,1.74,0.42,2.7,0.42c1.839,0,3.399-0.59,4.68-1.771
		C788.887,94.137,789.527,92.487,789.527,90.366z M776.027,80.886h13.8v-3.9c0-1.399-0.18-2.589-0.539-3.569
		c-0.36-0.98-0.861-1.771-1.5-2.37c-0.641-0.601-1.371-1.04-2.19-1.32c-0.82-0.279-1.71-0.42-2.67-0.42s-1.86,0.141-2.7,0.42
		c-0.84,0.28-1.57,0.72-2.189,1.32c-0.621,0.6-1.11,1.39-1.471,2.37c-0.359,0.98-0.54,2.17-0.54,3.569V80.886z"/>
</g>
<g>
	<g>
		<path class="st1" d="M406.222,10.319c0.103,0.103,0.257,0.134,0.463,0.093l3.8-0.803l-0.989,3.769
			c-0.082,0.268-0.144,0.494-0.185,0.68c-0.041,0.206-0.041,0.36,0,0.463c0.062,0.103,0.196,0.206,0.402,0.309l1.359,0.649
			l-6.581,5.53c-0.124,0.103-0.206,0.247-0.247,0.433c-0.082,0.144-0.082,0.309,0,0.494l0.556,1.977
			c-0.762-0.103-1.493-0.196-2.194-0.278c-0.741-0.082-1.462-0.175-2.163-0.278c-0.7-0.082-1.411-0.165-2.132-0.247l0.525,6.89
			h-2.657l0.463-6.89c-0.021,0-0.041,0-0.062,0c-0.741,0.082-1.473,0.165-2.194,0.247c-0.7,0.103-1.411,0.196-2.132,0.278
			c-0.7,0.082-1.431,0.175-2.194,0.278l0.618-1.977c0.021-0.185,0-0.35-0.062-0.494c-0.062-0.185-0.144-0.33-0.247-0.433
			l-6.581-5.53l1.359-0.649c0.185-0.103,0.309-0.206,0.371-0.309c0.041-0.103,0.041-0.257,0-0.463
			c-0.041-0.185-0.093-0.412-0.154-0.68l-1.02-3.769l3.831,0.803c0.165,0.041,0.309,0.01,0.433-0.093
			c0.124-0.082,0.206-0.185,0.247-0.309l0.494-1.792l2.997,3.522c0.103,0.124,0.227,0.227,0.371,0.309
			c0.144,0.062,0.278,0.062,0.402,0c0.124-0.041,0.206-0.144,0.247-0.309c0.062-0.165,0.051-0.412-0.031-0.742l-1.236-7.106
			l1.699,0.927c0.268,0.165,0.505,0.247,0.711,0.247c0.206-0.041,0.371-0.175,0.494-0.402L397.417,0l2.41,4.665
			c0.124,0.227,0.299,0.36,0.525,0.402c0.206,0,0.443-0.082,0.711-0.247l1.73-0.927l-1.298,7.106
			c-0.082,0.33-0.093,0.577-0.031,0.742c0.062,0.165,0.154,0.268,0.278,0.309c0.124,0.062,0.247,0.062,0.371,0
			c0.144-0.082,0.278-0.185,0.402-0.309l2.997-3.522l0.525,1.792C406.057,10.134,406.119,10.237,406.222,10.319"/>
	</g>
</g>
</svg>