<!-- Generator: Adobe Illustrator 21.0.0, SVG Export Plug-In  -->
<svg version="1.1"
	 xmlns="http://www.w3.org/2000/svg" xmlns:xlink="http://www.w3.org/1999/xlink" xmlns:a="http://ns.adobe.com/AdobeSVGViewerExtensions/3.0/"
	 x="0px" y="0px" width="85.502px" height="17.6px" viewBox="0 0 85.502 17.6" style="enable-background:new 0 0 85.502 17.6;"
	 xml:space="preserve">
<style type="text/css">
	.st0{fill:#7F7F7F;}
	.st1{font-family:'YummoW03-Bold';}
	.st2{font-size:16px;}
</style>
<defs>
</defs>
<g>
	<path class="st0" d="M1.744,2.399h0.624c0.405,0,0.608,0.203,0.608,0.608v7.264c0,0.342,0.037,0.624,0.111,0.848
		s0.179,0.403,0.312,0.536c0.133,0.133,0.29,0.229,0.472,0.288c0.181,0.059,0.373,0.088,0.576,0.088
		c0.202,0,0.392-0.029,0.567-0.088s0.331-0.155,0.465-0.288c0.133-0.133,0.24-0.312,0.319-0.536c0.08-0.224,0.12-0.506,0.12-0.848
		V3.008c0-0.405,0.203-0.608,0.607-0.608h0.625c0.404,0,0.607,0.203,0.607,0.608v7.264c0,0.342,0.04,0.624,0.12,0.848
		s0.187,0.403,0.32,0.536c0.133,0.133,0.288,0.229,0.464,0.288s0.365,0.088,0.568,0.088c0.202,0,0.395-0.029,0.576-0.088
		c0.181-0.059,0.338-0.155,0.471-0.288c0.134-0.133,0.238-0.312,0.312-0.536s0.112-0.506,0.112-0.848V3.008
		c0-0.405,0.202-0.608,0.608-0.608h0.623c0.406,0,0.608,0.203,0.608,0.608v7.648c0,0.522-0.077,0.979-0.231,1.368
		c-0.155,0.39-0.371,0.715-0.648,0.976c-0.277,0.262-0.605,0.456-0.984,0.584s-0.791,0.192-1.24,0.192
		c-0.576,0-1.09-0.109-1.543-0.328c-0.454-0.219-0.809-0.552-1.064-1c-0.256,0.448-0.607,0.781-1.057,1
		c-0.447,0.218-0.959,0.328-1.535,0.328c-0.448,0-0.861-0.064-1.24-0.192S2.293,13.261,2.016,13
		c-0.277-0.261-0.493-0.586-0.647-0.976c-0.155-0.389-0.231-0.845-0.231-1.368V3.008C1.137,2.603,1.338,2.399,1.744,2.399z"/>
	<path class="st0" d="M16.512,13.023c0,0.384-0.191,0.576-0.576,0.576H15.36c-0.384,0-0.576-0.192-0.576-0.576V2.815
		c0-0.384,0.192-0.576,0.576-0.576h0.575c0.385,0,0.576,0.192,0.576,0.576v2.848c0.373-0.448,0.902-0.672,1.584-0.672
		c0.331,0,0.635,0.053,0.912,0.16c0.277,0.107,0.518,0.27,0.721,0.488c0.202,0.219,0.362,0.494,0.479,0.824
		c0.117,0.331,0.177,0.72,0.177,1.168v5.392c0,0.384-0.192,0.576-0.576,0.576h-0.576c-0.385,0-0.576-0.192-0.576-0.576V7.936
		c0-0.512-0.104-0.861-0.312-1.048c-0.207-0.187-0.461-0.28-0.76-0.28s-0.552,0.094-0.76,0.28s-0.312,0.536-0.312,1.048V13.023z"/>
	<path class="st0" d="M27.712,10.944c0,0.469-0.071,0.882-0.216,1.24s-0.339,0.653-0.584,0.888
		c-0.246,0.234-0.541,0.411-0.889,0.528c-0.346,0.117-0.717,0.176-1.111,0.176c-0.406,0-0.779-0.059-1.12-0.176
		s-0.638-0.283-0.888-0.496c-0.251-0.213-0.445-0.477-0.584-0.792c-0.139-0.314-0.208-0.674-0.208-1.08V11.2
		c0-0.8,0.239-1.424,0.72-1.872c0.48-0.448,1.174-0.672,2.08-0.672h1.072v-0.72c0-0.512-0.104-0.861-0.312-1.048
		s-0.461-0.28-0.76-0.28c-0.31,0-0.539,0.083-0.688,0.248C24.074,7.021,24,7.221,24,7.456c0,0.331-0.166,0.496-0.496,0.496h-0.656
		c-0.384,0-0.576-0.192-0.576-0.576c0-0.341,0.062-0.656,0.185-0.944s0.298-0.539,0.528-0.752c0.229-0.213,0.506-0.381,0.832-0.504
		c0.324-0.123,0.689-0.184,1.096-0.184c0.395,0,0.766,0.059,1.111,0.176c0.348,0.118,0.643,0.293,0.889,0.528
		c0.245,0.234,0.439,0.531,0.584,0.888c0.145,0.357,0.216,0.771,0.216,1.24V10.944z M24.912,12.16c0.299,0,0.552-0.093,0.76-0.28
		c0.208-0.187,0.312-0.536,0.312-1.048v-0.88h-1.072c-0.299,0-0.553,0.083-0.76,0.248c-0.209,0.166-0.312,0.451-0.312,0.856
		s0.104,0.691,0.312,0.856C24.359,12.077,24.613,12.16,24.912,12.16z"/>
	<path class="st0" d="M32.783,13.6c-0.16,0.032-0.307,0.05-0.439,0.056c-0.134,0.005-0.259,0.008-0.376,0.008
		c-0.769,0-1.354-0.178-1.761-0.536c-0.404-0.357-0.607-0.968-0.607-1.832V3.68c0-0.384,0.191-0.576,0.576-0.576h0.576
		c0.384,0,0.576,0.192,0.576,0.576v1.488h1.375c0.385,0,0.576,0.192,0.576,0.576v0.464c0,0.384-0.191,0.576-0.576,0.576h-1.375
		v4.384c0,0.331,0.063,0.56,0.191,0.688s0.357,0.192,0.688,0.192c0.139,0,0.305-0.016,0.496-0.048
		c0.192-0.032,0.336,0.005,0.433,0.112c0.096,0.106,0.144,0.256,0.144,0.448v0.464c0,0.192-0.045,0.328-0.136,0.408
		S32.934,13.567,32.783,13.6z"/>
	<path class="st0" d="M39.936,10.832c0,0.512,0.104,0.861,0.312,1.048c0.208,0.187,0.462,0.28,0.761,0.28
		c0.309,0,0.551-0.096,0.728-0.288c0.176-0.192,0.264-0.448,0.264-0.768c0-0.331,0.165-0.496,0.496-0.496h0.656
		c0.384,0,0.575,0.192,0.575,0.576c0,0.395-0.066,0.752-0.199,1.072c-0.134,0.32-0.32,0.592-0.561,0.816
		c-0.24,0.224-0.527,0.397-0.863,0.52c-0.336,0.122-0.701,0.184-1.096,0.184c-0.406,0-0.779-0.059-1.121-0.176
		c-0.341-0.117-0.635-0.293-0.879-0.528c-0.246-0.235-0.44-0.531-0.584-0.888c-0.145-0.357-0.217-0.771-0.217-1.24v-3.12
		c0-0.469,0.072-0.883,0.217-1.24c0.144-0.357,0.338-0.653,0.584-0.888c0.244-0.235,0.538-0.411,0.879-0.528
		c0.342-0.117,0.715-0.176,1.121-0.176c0.395,0,0.76,0.062,1.096,0.184s0.623,0.296,0.863,0.52c0.24,0.224,0.427,0.496,0.561,0.816
		c0.133,0.32,0.199,0.677,0.199,1.072c0,0.384-0.191,0.576-0.575,0.576h-0.656c-0.331,0-0.496-0.166-0.496-0.496
		c0-0.32-0.088-0.576-0.264-0.768c-0.177-0.192-0.419-0.288-0.728-0.288c-0.299,0-0.553,0.094-0.761,0.28s-0.312,0.536-0.312,1.048
		V10.832z"/>
	<path class="st0" d="M50.767,10.944c0,0.469-0.071,0.882-0.216,1.24s-0.339,0.653-0.584,0.888
		c-0.246,0.234-0.541,0.411-0.889,0.528c-0.346,0.117-0.717,0.176-1.111,0.176c-0.406,0-0.779-0.059-1.12-0.176
		s-0.638-0.283-0.888-0.496c-0.251-0.213-0.445-0.477-0.584-0.792c-0.139-0.314-0.208-0.674-0.208-1.08V11.2
		c0-0.8,0.239-1.424,0.72-1.872c0.48-0.448,1.174-0.672,2.08-0.672h1.072v-0.72c0-0.512-0.104-0.861-0.312-1.048
		s-0.461-0.28-0.76-0.28c-0.31,0-0.539,0.083-0.688,0.248c-0.15,0.166-0.225,0.366-0.225,0.6c0,0.331-0.166,0.496-0.496,0.496
		h-0.656c-0.384,0-0.576-0.192-0.576-0.576c0-0.341,0.062-0.656,0.185-0.944s0.298-0.539,0.528-0.752
		c0.229-0.213,0.506-0.381,0.832-0.504c0.324-0.123,0.689-0.184,1.096-0.184c0.395,0,0.766,0.059,1.111,0.176
		c0.348,0.118,0.643,0.293,0.889,0.528c0.245,0.234,0.439,0.531,0.584,0.888c0.145,0.357,0.216,0.771,0.216,1.24V10.944z
		 M47.967,12.16c0.299,0,0.552-0.093,0.76-0.28c0.208-0.187,0.312-0.536,0.312-1.048v-0.88h-1.072c-0.299,0-0.553,0.083-0.76,0.248
		c-0.209,0.166-0.312,0.451-0.312,0.856s0.104,0.691,0.312,0.856C47.414,12.077,47.668,12.16,47.967,12.16z"/>
	<path class="st0" d="M57.663,13.6h-0.576c-0.384,0-0.576-0.192-0.576-0.576V7.936c0-0.512-0.104-0.861-0.312-1.048
		c-0.209-0.187-0.462-0.28-0.76-0.28c-0.299,0-0.553,0.094-0.761,0.28s-0.312,0.536-0.312,1.048v5.088
		c0,0.384-0.192,0.576-0.576,0.576h-0.576c-0.384,0-0.576-0.192-0.576-0.576v-5.2c0-0.469,0.072-0.883,0.217-1.24
		c0.144-0.357,0.338-0.653,0.584-0.888c0.244-0.235,0.538-0.411,0.879-0.528c0.342-0.117,0.715-0.176,1.121-0.176
		c0.395,0,0.765,0.059,1.111,0.176c0.347,0.118,0.643,0.293,0.889,0.528c0.244,0.234,0.439,0.531,0.584,0.888
		c0.144,0.357,0.215,0.771,0.215,1.24v5.2C58.238,13.408,58.047,13.6,57.663,13.6z"/>
	<path class="st0" d="M64.654,2.399h0.624c0.405,0,0.608,0.203,0.608,0.608v9.984c0,0.405-0.203,0.608-0.608,0.608h-0.624
		c-0.405,0-0.607-0.203-0.607-0.608V3.008C64.047,2.603,64.249,2.399,64.654,2.399z"/>
	<path class="st0" d="M71.55,7.632c0-0.896,0.216-1.56,0.648-1.992c0.432-0.432,0.979-0.648,1.64-0.648
		c0.32,0,0.616,0.053,0.889,0.16c0.271,0.107,0.504,0.278,0.695,0.512V2.815c0-0.384,0.192-0.576,0.576-0.576h0.576
		c0.384,0,0.576,0.192,0.576,0.576v8.128c0,0.48-0.072,0.898-0.217,1.256c-0.144,0.357-0.338,0.651-0.584,0.88
		c-0.245,0.229-0.541,0.403-0.888,0.52s-0.718,0.176-1.112,0.176c-0.405,0-0.778-0.059-1.119-0.176
		c-0.342-0.117-0.635-0.291-0.881-0.52c-0.245-0.229-0.439-0.522-0.584-0.88c-0.144-0.357-0.216-0.776-0.216-1.256V7.632z
		 M73.277,10.832c0,0.512,0.104,0.861,0.312,1.048c0.208,0.187,0.461,0.28,0.76,0.28s0.553-0.093,0.76-0.28
		c0.209-0.187,0.312-0.536,0.312-1.048V7.936c0-0.512-0.104-0.861-0.312-1.048c-0.207-0.187-0.461-0.28-0.76-0.28
		s-0.552,0.094-0.76,0.28s-0.312,0.536-0.312,1.048V10.832z"/>
	<path class="st0" d="M84.639,10.944c0,0.48-0.072,0.898-0.217,1.256c-0.144,0.357-0.338,0.651-0.584,0.88
		c-0.245,0.229-0.541,0.403-0.888,0.52s-0.718,0.176-1.112,0.176c-0.405,0-0.778-0.059-1.119-0.176
		c-0.342-0.117-0.635-0.291-0.881-0.52c-0.245-0.229-0.439-0.522-0.584-0.88c-0.144-0.357-0.216-0.776-0.216-1.256v-3.12
		c0-0.469,0.072-0.883,0.216-1.24c0.145-0.357,0.339-0.653,0.584-0.888c0.246-0.235,0.539-0.411,0.881-0.528
		c0.341-0.117,0.714-0.176,1.119-0.176c0.395,0,0.766,0.059,1.112,0.176c0.347,0.118,0.643,0.293,0.888,0.528
		c0.246,0.234,0.44,0.531,0.584,0.888c0.145,0.357,0.217,0.771,0.217,1.24V10.944z M82.91,7.936c0-0.512-0.104-0.861-0.312-1.048
		c-0.207-0.187-0.461-0.28-0.76-0.28s-0.552,0.094-0.76,0.28s-0.312,0.536-0.312,1.048v2.896c0,0.512,0.104,0.861,0.312,1.048
		c0.208,0.187,0.461,0.28,0.76,0.28s0.553-0.093,0.76-0.28c0.209-0.187,0.312-0.536,0.312-1.048V7.936z"/>
</g>
</svg>