<svg xmlns="http://www.w3.org/2000/svg" viewBox="0 0 211.75 350.71"><defs><style>.cls-1{fill:red;}</style></defs><title>Asset 3</title><g id="Layer_2" data-name="Layer 2"><g id="Layer_1-2" data-name="Layer 1"><g id="New_Symbol_7" data-name="New Symbol 7"><path class="cls-1" d="M9.24,124.92a9.25,9.25,0,0,0-8,4.58,9.21,9.21,0,0,0,3.32,12.6,9.23,9.23,0,0,0,13.86-8,9.25,9.25,0,0,0-4.58-7.94,9.1,9.1,0,0,0-4.62-1.26M148.11,335.84q1.48-1.16,2.89-2.49H60.79q1.44,1.34,2.92,2.53,18,14.84,42.16,14.84t42.23-14.87M194.6,138.78a9.18,9.18,0,0,0,12.6,3.32,9.54,9.54,0,0,0,3.32-3.32,9.38,9.38,0,0,0,0-9.28,9.54,9.54,0,0,0-3.32-3.32,9.16,9.16,0,0,0-12.6,3.32,9.15,9.15,0,0,0,0,9.28M166.66,62.65a38.15,38.15,0,0,0-14.76-3h-92a37.89,37.89,0,0,0-38,38v72.92a37.79,37.79,0,0,0,3,14.8A38.84,38.84,0,0,0,33,197.48a38.29,38.29,0,0,0,12.09,8.16,37.57,37.57,0,0,0,14,3h7.18a9,9,0,0,1,4.51,1.23A8.66,8.66,0,0,1,74,213a8.79,8.79,0,0,1,1.23,4.48v.14A10.06,10.06,0,0,1,74,222.38a.42.42,0,0,0-.07.11q-.18.32-.36.61a2.36,2.36,0,0,1-.22.25,4.59,4.59,0,0,1-.36.51,1,1,0,0,0-.18.25q-.32.32-.65.69l-.76.69-.76.61a5.73,5.73,0,0,0-.72.43A71.51,71.51,0,0,0,58.37,236q-1,1-1.88,1.95Q38.66,257,38.66,283.5q0,25.34,16.32,43.93a.23.23,0,0,0,.14.11,6.79,6.79,0,0,0,2.31,1.73,7.86,7.86,0,0,0,2.89.61l91.29-.07a6.43,6.43,0,0,0,2.78-.61,6.55,6.55,0,0,0,2.31-1.7l.11-.11q16.28-18.59,16.28-43.9,0-27.87-19.67-47.54a70.53,70.53,0,0,0-11.48-9.35q-.51-.36-1-.65a8.21,8.21,0,0,1-1.41-1.19,9.75,9.75,0,0,1-2.85-5.38h0v-.54q0-.43,0-1.16a8.73,8.73,0,0,1,1.16-4.58,9,9,0,0,1,7.76-4.51h6.35a37.7,37.7,0,0,0,14.76-3,38.29,38.29,0,0,0,12.09-8.16,38.84,38.84,0,0,0,8.16-12.09,38.24,38.24,0,0,0,3-14.8V97.67a38.13,38.13,0,0,0-23.25-35m6.46,71.47q0,27.87-19.71,47.5t-47.54,19.71a65.69,65.69,0,0,1-31.41-7.54A69.21,69.21,0,0,1,58.3,181.63Q38.7,162,38.7,134.12T58.3,86.55Q78,66.95,105.88,66.95t47.54,19.6q19.71,19.71,19.71,47.58M134.61,254.87a40.45,40.45,0,0,1-28.66,69.06,40.48,40.48,0,0,1-28.63-69.06,40.35,40.35,0,0,1,10-7.47,39.32,39.32,0,0,1,18.59-4.4,39.13,39.13,0,0,1,28.66,11.88m8.27,28.55a36.91,36.91,0,0,0-37-37A36.39,36.39,0,0,0,92.37,249a36,36,0,0,0-12.56,8.37,37,37,0,0,0,26.1,63.1,36.85,36.85,0,0,0,37-37m-26.68-5.49a.57.57,0,0,0,.54.11l4.44-.94-1.16,4.4q-.14.47-.22.79a1,1,0,0,0,0,.54,1.13,1.13,0,0,0,.47.36l1.59.76-7.69,6.46a.88.88,0,0,0-.29.51.61.61,0,0,0,0,.58l.65,2.31L112,293.5q-1.3-.14-2.53-.32l-2.49-.29.61,8h-3.1l.54-8h-.07l-2.56.29q-1.23.18-2.49.32l-2.56.32.72-2.31a1.13,1.13,0,0,0-.07-.58,1.27,1.27,0,0,0-.29-.51L90,284l1.59-.76a1.14,1.14,0,0,0,.43-.36,1,1,0,0,0,0-.54l-.18-.79-1.19-4.4,4.48.94a.54.54,0,0,0,.51-.11.7.7,0,0,0,.29-.36l.58-2.09,3.5,4.12a1.58,1.58,0,0,0,.43.36.53.53,0,0,0,.47,0,.46.46,0,0,0,.29-.36,1.55,1.55,0,0,0,0-.87l-1.44-8.3,2,1.08a1.64,1.64,0,0,0,.83.29.85.85,0,0,0,.58-.47l2.82-5.45,2.82,5.45a.86.86,0,0,0,.61.47,1.64,1.64,0,0,0,.83-.29l2-1.08-1.52,8.3a1.55,1.55,0,0,0,0,.87.55.55,0,0,0,.32.36.46.46,0,0,0,.43,0,2.22,2.22,0,0,0,.47-.36l3.5-4.12.61,2.09a.57.57,0,0,0,.22.36"/><g id="Layer0_0_1_STROKES" data-name="Layer0 0 1 STROKES"><path class="cls-1" d="M105.87,174.16a16.27,16.27,0,0,1-16.32-16.29,4.38,4.38,0,0,1,8.75,0,7.59,7.59,0,0,0,15.18,0,4.38,4.38,0,0,1,4.37-4.34h0a4.38,4.38,0,0,1,4.34,4.41,16.39,16.39,0,0,1-16.36,16.25Zm40.32-16.1a23.28,23.28,0,0,1-17-6.93l-.09-.1c-.53-.56-1-1.13-1.53-1.69l-.05-.07a24.06,24.06,0,0,1,0-30.29l.06-.07c.48-.56,1-1.13,1.52-1.68l.09-.09a23.26,23.26,0,0,1,16.95-7,23,23,0,0,1,16.89,7,23.94,23.94,0,0,1,0,33.94A22.88,22.88,0,0,1,146.19,158.06ZM135.35,145a14.66,14.66,0,0,0,10.74,4.36,14.23,14.23,0,0,0,10.69-4.38,15.19,15.19,0,0,0,0-21.58,14.38,14.38,0,0,0-10.7-4.42,14.6,14.6,0,0,0-10.74,4.39c-.4.42-.79.85-1.15,1.27a15.31,15.31,0,0,0,0,19.1C134.56,144.11,134.95,144.53,135.35,145Zm-70,13.11h-.12a23.19,23.19,0,0,1-16.89-6.94l-.16-.17-1.37-1.52-.12-.14a23.93,23.93,0,0,1,0-30.32l.12-.14,1.37-1.51.15-.16a23.14,23.14,0,0,1,16.92-7,24,24,0,0,1,16.92,40.93A23,23,0,0,1,65.3,158.06ZM54.53,145a14.54,14.54,0,0,0,10.66,4.32h.08a14.37,14.37,0,0,0,10.65-4.39,15.21,15.21,0,0,0-10.73-26,14.48,14.48,0,0,0-10.66,4.35l-1.23,1.36a15.19,15.19,0,0,0,0,19Z"/></g><path class="cls-1" d="M70.21,56.08H141.5A7,7,0,0,0,147.3,53l7.53-11.22-5.2-.94a2.56,2.56,0,0,1-1.57-.73,3.22,3.22,0,0,1-.42-1.54V36.11l-.1-13.62-12.08,6.18a1.67,1.67,0,0,1-1.57.1,1.77,1.77,0,0,1-1-.84l-3.46-5.41L124,33.22a1.4,1.4,0,0,1-2.63-.86l3.08-18.78-6,3.28a5.22,5.22,0,0,1-2.41.73,2.24,2.24,0,0,1-1.89-1.36L105.81,0,97.42,16.24a2.39,2.39,0,0,1-1.78,1.36,5.36,5.36,0,0,1-2.51-.73L87.3,13.58l3.1,19.2a1.4,1.4,0,0,1-2.63.85l-5.54-11-3.32,5.69a2.44,2.44,0,0,1-1,.8,1.66,1.66,0,0,1-1.57-.1L64.18,22.87,64,36.53q0,1.54,0,2.48a2.28,2.28,0,0,1-.52,1.47,2,2,0,0,1-1.47.73l-5.17,1,7.55,10.89A7,7,0,0,0,70.21,56.08Z"/></g></g></g></svg>