<?xml version="1.0" encoding="utf-8"?>
<!-- Generator: Adobe Illustrator 20.1.0, SVG Export Plug-In . SVG Version: 6.00 Build 0)  -->
<svg version="1.1" id="Layer_1" xmlns="http://www.w3.org/2000/svg" xmlns:xlink="http://www.w3.org/1999/xlink" x="0px" y="0px"
	 viewBox="0 0 840 160" style="enable-background:new 0 0 840 160;" xml:space="preserve">
<style type="text/css">
	.st0{fill:#FFFFFF;}
	.st1{fill:#FF0000;}
</style>
<symbol  id="New_Symbol_3" viewBox="-415.9 -75.7 831.9 151.4">
	<path class="st0" d="M-164.9,73.1c-2.6-2.1-5.5-5.3-5.5-8.8c0-37.5,0-75.1,0-112.6c-3.8,10.2-7.6,20.4-11.4,30.6
		C-189.9,4-198,25.7-206,47.4c-3.3,8.8-7.9,18-18.7,18.7c0,2.8,0,5.5,0,8.3c0,3.4-6.1-0.6-6.9-1.2c-2.6-2.1-5.5-5.3-5.5-8.8
		c0-40.4,0-80.8,0-121.2c0-5.8,0-11.6,0-17.3c0-3.4,6.1,0.6,6.9,1.2c2.6,2.1,5.5,5.3,5.5,8.8c0,37.7,0,75.3,0,113
		c2.8-3,4.6-7,6.1-11c3.5-9.3,6.9-18.6,10.4-27.9c8.4-22.6,16.8-45.1,25.2-67.7c2.6-6.9,4.7-17.7,13.9-17.7c5,0,11.3,6.3,11.3,11.3
		c0,40.4,0,80.8,0,121.2c0,5.8,0,11.6,0,17.3C-157.9,77.7-164.1,73.8-164.9,73.1z"/>
	<path class="st0" d="M-277.6,59.7c-1,4.3-1.4,14.3-6.7,15.7c-7.3,1.9-14.9-7.4-16.6-13.5c-0.5-1.9-0.9-3.9-1.3-5.8
		c-5.1-23.1-10.2-46.2-15.3-69.4c-4.4-19.9-8.8-39.9-13.2-59.8c-0.8-3.7,3.7-2,5.3-1.1c3.1,1.8,6.4,5.3,7.1,8.8
		c1.8,8.1,3.6,16.3,5.4,24.4c11,0,21.9,0,32.9,0c3.5,0,6.7,2.9,8.7,5.5c2.9-12.9,5.7-25.8,8.6-38.8c1-4.4,13.5,5.2,12.5,10
		C-259.4-22.9-268.5,18.4-277.6,59.7z M-310.2-28.4c6.1,27.6,12.2,55.1,18.3,82.7c0.1,0.6,0.3,1.1,0.4,1.7c0.3-1.6,0.6-3.1,1-4.7
		c5.1-23.2,10.3-46.4,15.4-69.6c0.8-3.4,1.5-6.8,2.3-10.2C-285.3-28.4-297.7-28.4-310.2-28.4z"/>
	<path class="st0" d="M-92.6,59.7c-1,4.3-1.4,14.3-6.7,15.7c-7.3,1.9-14.9-7.4-16.6-13.5c-0.5-1.9-0.9-3.9-1.3-5.8
		c-5.1-23.1-10.2-46.2-15.3-69.4c-4.4-19.9-8.8-39.9-13.2-59.8c-0.8-3.7,3.7-2,5.3-1.1c3.1,1.8,6.4,5.3,7.1,8.8
		c1.8,8.1,3.6,16.3,5.4,24.4c10.8,0,21.6,0,32.3,0c3.5,0,6.7,2.9,8.8,5.5c0.1,0.1,0.2,0.3,0.4,0.5c2.9-13.1,5.8-26.2,8.7-39.3
		c1-4.4,13.5,5.2,12.5,10C-74.4-22.9-83.5,18.4-92.6,59.7z M-125.2-28.4c6.1,27.6,12.2,55.1,18.3,82.7c0.1,0.6,0.3,1.1,0.4,1.7
		c0.3-1.6,0.6-3.1,1-4.7c5.1-23.2,10.3-46.4,15.4-69.6c0.8-3.4,1.5-6.8,2.3-10.2C-100.3-28.4-112.7-28.4-125.2-28.4z"/>
	<path class="st0" d="M110.9-64.2c-9.1,41.3-18.3,82.6-27.4,123.9c-1,4.3-1.4,14.3-6.7,15.7c-7.3,1.9-14.9-7.4-16.6-13.5
		c-0.5-1.9-0.9-3.9-1.3-5.8C53.8,33,48.7,9.9,43.6-13.2c-4.4-19.9-8.8-39.9-13.2-59.8c-0.8-3.7,3.7-2,5.3-1.1
		c3.1,1.8,6.4,5.3,7.1,8.8c1.8,8.1,3.6,16.3,5.4,24.4c10.5,0,21,0,31.5,0c3.5,0,6.7,2.9,8.8,5.5c0.2,0.2,0.6,0.8,1,1.6
		c3-13.5,6-26.9,8.9-40.4C99.4-78.6,111.9-69,110.9-64.2z M50.9-28.4C57-0.9,63.1,26.7,69.2,54.3c0.1,0.6,0.3,1.1,0.4,1.7
		c0.3-1.6,0.6-3.1,1-4.7C75.8,28.2,80.9,5,86-18.2c0.8-3.4,1.5-6.8,2.3-10.2C75.8-28.4,63.4-28.4,50.9-28.4z"/>
	<path class="st0" d="M-342.3,73.1c-2.1-1.6-4.4-4-5.2-6.7c-10.8,9.3-27,12.1-41.3,4.9c-12.3-6.2-22.3-17.7-25.9-31
		c-1.5-5.6-1.2-11.4-1.2-17.2c0-17,0-34.1,0-51.1c0-4.3-0.1-8.6,0-12.9c0.3-12.7,7.6-24.4,18.8-30.4c28-14.8,61.2,11.9,61.8,41.1
		c0.1,3.4-6.2-0.6-6.9-1.2c-2.7-2.1-5.5-5.3-5.5-8.8c-0.2-9.9-4.7-18.5-14.5-21.5c-10.2-3.2-21.7-0.4-29.7,6.5
		c-7.5,6.4-11.3,15.4-11.5,25.2c-0.1,3.5,0,7,0,10.5c0,14.8,0,29.6,0,44.4c0,10.3-1.9,24.1,6.1,32.1c7.8,7.8,21.9,7.3,31.2,2.8
		c11.4-5.5,18.1-17.1,18.3-29.6c0.1-3.4,6.1,0.6,6.9,1.2c2.6,2.1,5.5,5.3,5.5,8.8c0,11.3,0,22.7,0,34
		C-335.3,77.7-341.5,73.8-342.3,73.1z"/>
	<path class="st0" d="M28.8,42.4c0,9.2-2.9,17.9-9.7,24.4c-8,7.7-17.8,8.8-28.3,8.8c-5.2,0-10.2,0-15.2-1.7
		c-4.9-1.7-9.5-4.7-13.3-8.3c0,2.9,0,5.8,0,8.8c0,3.4-6.1-0.6-6.9-1.2c-2.6-2.1-5.5-5.3-5.5-8.8c0-11.2,0-22.4,0-33.6
		c0-0.8,0-1.6,0-2.4c0-28.4,0-56.8,0-85.2c0-5.8,0-11.6,0-17.3c0.1-0.7,0.5-1.1,1.2-1.2c7.2,0,14.6-0.4,21.8,0.2
		c13.4,1.1,25.8,7.6,35.5,16.6c9.8,9.1,17.2,21.1,19.6,34.4c1.1,6.1,0.8,12.3,0.8,18.5C28.8,10.3,28.8,26.4,28.8,42.4z M16.1-27.2
		c-1.6-20-15.5-34-35.6-35.6c-5.8-0.5-12.1,0.8-17.8-0.1c-0.1,0-0.2,0-0.4,0c0,0.6-0.1,1.4-0.1,1.7c0,23.3,0,46.6,0,69.8
		c0,13.9,0,27.8,0,41.7c0.2,2.4,0.7,4.8,1.8,6.9c3,6.2,10.8,6,16.8,6c7.8,0,15.3,0.1,22.1-4.4c8.5-5.5,13.2-14.4,13.4-24.4
		c0.2-10.1,0-20.2,0-30.2C16.3-6.3,17-16.9,16.1-27.2z"/>
	<g>
		<path class="st1" d="M175.5,75.6h-25.1c-19.3,0-35-15.7-35-35V17.8c0-12.6,6.7-23.7,16.8-29.9c-5.6-6.9-8.4-15.1-8.4-24.2
			c0-10.8,3.9-20.1,11.5-27.7c7.6-7.6,16.9-11.5,27.7-11.5S183-71.7,190.6-64c7.6,7.6,11.5,16.9,11.5,27.7c0,9.2-2.8,17.3-8.4,24.2
			c10.1,6.2,16.8,17.2,16.8,29.9v22.9C210.5,59.9,194.8,75.6,175.5,75.6z M135.3,40.6c0,8.3,6.7,15,15,15h25.1c8.3,0,15-6.7,15-15
			V17.8c0-8.3-6.7-15-15-15h-25.1c-8.3,0-15,6.7-15,15V40.6z M176.4-49.9c-3.8-3.8-8.1-5.6-13.6-5.6s-9.7,1.8-13.5,5.6
			c-3.8,3.8-5.6,8.1-5.6,13.6c0,5.4,1.8,9.7,5.6,13.5c3.7,3.7,7.8,5.5,12.9,5.6h1.3c5.1-0.1,9.2-1.9,12.9-5.6
			c3.8-3.8,5.6-8.1,5.6-13.5C182-41.8,180.3-46.1,176.4-49.9z"/>
		<path class="st1" d="M281.7,75.6h-25.1c-19.3,0-35-15.7-35-35v-81.3c0-19.3,15.7-35,35-35h25.1c19.3,0,35,15.7,35,35v81.3
			C316.7,59.9,301,75.6,281.7,75.6z M296.7-40.7c0-8.3-6.7-15-15-15h-25.1c-8.3,0-15,6.7-15,15v81.3c0,8.3,6.7,15,15,15h25.1
			c8.3,0,15-6.7,15-15V-40.7z"/>
		<path class="st1" d="M405.9,75.6h-75c-5.5,0-10-4.5-10-10s4.5-10,10-10h27.5v-96.3c0-19.3,15.7-35,35-35c5.5,0,10,4.5,10,10
			s-4.5,10-10,10c-8.3,0-15,6.7-15,15v96.3h27.5c5.5,0,10,4.5,10,10S411.5,75.6,405.9,75.6z"/>
	</g>
</symbol>
<use xlink:href="#New_Symbol_3"  width="831.9" height="151.4" id="XMLID_1_" x="-415.9" y="-75.7" transform="matrix(1 0 0 -1 420 80)" style="overflow:visible;"/>
</svg>
