<svg xmlns="http://www.w3.org/2000/svg" viewBox="0 0 399.98 213.07"><defs><style>.cls-1{fill:#fff;}.cls-2{fill:red;}</style></defs><title>Asset 2</title><g id="Layer_2" data-name="Layer 2"><g id="Layer_1-2" data-name="Layer 1"><g id="New_Symbol_3" data-name="New Symbol 3"><path class="cls-1" d="M118,145.75v54.71c-.52-1.55-.92-3.05-1.29-4l-8.21-22-7.25-19.48c-1.72-4.62-3.66-9.39-9.38-10v-4c0-1.72-6,2.37-6,4.81v66.61c0,1.72,6-2.37,6-4.81V153.21c2.09,2.18,3,5.52,4.12,8.49l7.9,21.21,7.66,20.58c1.27,3.42,2.4,9.46,7.05,9.46,2.39,0,5.41-3,5.41-5.41V140.93C124,139.21,118,143.3,118,145.75Z"/><path class="cls-1" d="M66.15,146.48c-.49-2.21-.59-5.81-3.46-6.14-4.34-.5-7,4.79-7.79,8.28-2.52,10.85-4.81,21.76-7.22,32.63L40.93,211.8c-.6,2.72,5.51-1.62,6-3.71l2.6-11.74H65.32c1.67,0,3.22-1.37,4.21-2.63l4.12,18.63c.47,2.12,6.51-2.51,6-4.81Zm-7.45-.3c-1.41,1-.71-.54,0,0Zm-7.87,44.16,3.26-14.76L59,153.24c.26-1.19.47-2.5.7-3.83,0,0,0,.09,0,.12l1.53,6.9,5,22.44,2.54,11.47Z"/><path class="cls-1" d="M155.11,146.48c-.49-2.21-.59-5.81-3.46-6.14-4.34-.5-7,4.79-7.79,8.28-2.52,10.85-4.81,21.76-7.22,32.63l-6.76,30.56c-.6,2.72,5.51-1.62,6-3.71l2.6-11.74H154c1.69,0,3.25-1.4,4.23-2.67l.17-.25,4.18,18.92c.47,2.12,6.51-2.51,6-4.81Zm-7.45-.3c-1.41,1-.71-.54,0,0Zm-7.87,44.16L143,175.59,148,153.24c.26-1.19.47-2.5.7-3.83,0,0,0,.09,0,.12l1.53,6.9,5,22.44,2.54,11.47Z"/><path class="cls-1" d="M253.3,207.54l-13.5-61.06c-.49-2.21-.59-5.81-3.46-6.14-4.34-.5-7,4.79-7.79,8.28-2.52,10.85-4.81,21.76-7.22,32.63l-6.76,30.56c-.6,2.72,5.51-1.62,6-3.71l2.6-11.74h15.13c1.7,0,3.24-1.4,4.23-2.67a7.58,7.58,0,0,0,.49-.77l4.3,19.44C247.76,214.47,253.81,209.84,253.3,207.54Zm-21-61.36c-1.41,1-.71-.54,0,0Zm-7.87,44.16,3.26-14.76,4.94-22.35c.26-1.19.47-2.5.7-3.83,0,0,0,.09,0,.12l1.53,6.9,5,22.44,2.54,11.47Z"/><path class="cls-1" d="M33,144.87a17.82,17.82,0,0,0-19.34-2.75C4.61,146.21,0,154.81,0,164.35v26.15c0,9,1.54,17.78,11.19,21.38,12.91,4.81,27-7.24,27.53-20.17.12-3-5.89,1.58-6,3.71C32,213,8.57,208.22,6.22,193.83c-1-6.14-.21-12.91-.21-19.09s-.85-13.28.2-19.54c1.29-7.72,9.1-10.39,15.93-8,6.52,2.26,10.33,8.2,10.6,14.94.08,1.89,6-2.5,6-4.81V140.93C38.74,139.41,34,142.45,33,144.87Z"/><path class="cls-1" d="M207.38,143.1c-4.22-2.92-9-2.87-13.94-2.77a17.6,17.6,0,0,0-11.61,4.82v-4.22c0-1.72-6,2.37-6,4.81V162q0,.51,0,1v49.29a.7.7,0,0,0,.6.6c10.15,0,19.06-.46,27.07-7.63,7.65-6.85,10.33-15.4,10.33-25.34,0-8,.21-16.07,0-24.08C213.67,150.81,211.67,146.07,207.38,143.1Zm.1,48.69c-1.74,10.33-10.11,15.11-20,15.15a29.77,29.77,0,0,0-4.24,0c-.8.12-1.44-.16-1.59,0-.07-.77.13-1.91.13-2.46V152.05a7.6,7.6,0,0,1,.84-2.85c2.06-3.63,7.57-3,11.12-2.86,8.3.3,13.87,6.29,14,14.51.1,5.59,0,11.2,0,16.79C207.8,182.27,208.26,187.21,207.48,191.79Z"/><path class="cls-2" d="M284.34,140.3H272.26a16.85,16.85,0,0,0-16.83,16.83v11a16.82,16.82,0,0,0,8.1,14.36,18.82,18.82,0,1,0,29.55,0,16.82,16.82,0,0,0,8.1-14.36v-11A16.85,16.85,0,0,0,284.34,140.3ZM265,157.13a7.22,7.22,0,0,1,7.21-7.21h12.08a7.22,7.22,0,0,1,7.21,7.21v11a7.22,7.22,0,0,1-7.21,7.21H272.26a7.22,7.22,0,0,1-7.21-7.21Zm19.77,43.54A9.21,9.21,0,1,1,278,185h.61a9.21,9.21,0,0,1,6.21,15.71Z"/><path class="cls-2" d="M335.41,140.3H323.32a16.85,16.85,0,0,0-16.83,16.83v39.11a16.85,16.85,0,0,0,16.83,16.83h12.08a16.85,16.85,0,0,0,16.83-16.83V157.13A16.85,16.85,0,0,0,335.41,140.3Zm7.21,55.93a7.22,7.22,0,0,1-7.21,7.21H323.32a7.22,7.22,0,0,1-7.21-7.21V157.13a7.22,7.22,0,0,1,7.21-7.21h12.08a7.22,7.22,0,0,1,7.21,7.21Z"/><path class="cls-2" d="M395.17,140.3H359.11a4.81,4.81,0,1,0,0,9.62h13.22v46.32a16.85,16.85,0,0,0,16.83,16.83,4.81,4.81,0,1,0,0-9.62,7.22,7.22,0,0,1-7.21-7.21V149.92h13.22a4.81,4.81,0,1,0,0-9.62Z"/></g><g id="New_Symbol_7" data-name="New Symbol 7"><path class="cls-2" d="M217.6,20.67a1,1,0,0,0,.93.19l7.61-1.61-2,7.55q-.25.8-.37,1.36a1.72,1.72,0,0,0,0,.93,1.93,1.93,0,0,0,.8.62l2.72,1.3L214.13,42.08a1.51,1.51,0,0,0-.5.87,1,1,0,0,0,0,1l1.11,4q-2.29-.31-4.39-.56T206,46.78l-4.27-.5,1.05,13.8h-5.32l.93-13.8h-.12l-4.39.5q-2.1.31-4.27.56t-4.39.56l1.24-4a1.94,1.94,0,0,0-.12-1,2.18,2.18,0,0,0-.5-.87L172.67,31l2.72-1.3a2,2,0,0,0,.74-.62,1.73,1.73,0,0,0,0-.93l-.31-1.36-2-7.55,7.67,1.61a.93.93,0,0,0,.87-.19,1.19,1.19,0,0,0,.5-.62l1-3.59,6,7.05a2.7,2.7,0,0,0,.74.62.92.92,0,0,0,.8,0,.79.79,0,0,0,.5-.62,2.66,2.66,0,0,0-.06-1.49L189.32,7.8l3.4,1.86a2.81,2.81,0,0,0,1.42.5,1.45,1.45,0,0,0,1-.8L200,0l4.83,9.34a1.47,1.47,0,0,0,1.05.8,2.81,2.81,0,0,0,1.42-.5l3.47-1.86L208.13,22a2.66,2.66,0,0,0-.06,1.49.94.94,0,0,0,.56.62.79.79,0,0,0,.74,0,3.81,3.81,0,0,0,.8-.62l6-7.05L217.22,20a1,1,0,0,0,.37.62"/></g></g></g></svg>